<svg width="42" height="44" viewBox="0 0 42 44" fill="none" xmlns="http://www.w3.org/2000/svg">
<g filter="url(#filter0_d_15_42)">
<path d="M20.9999 3.33331C18.8112 3.33331 16.644 3.76441 14.6219 4.60199C12.5998 5.43957 10.7624 6.66722 9.21481 8.21487C6.0892 11.3405 4.33325 15.5797 4.33325 20C4.33325 27.3666 9.11659 33.6166 15.7333 35.8333C16.5666 35.9666 16.8333 35.45 16.8333 35C16.8333 34.6166 16.8333 33.5666 16.8333 32.1833C12.2166 33.1833 11.2333 29.95 11.2333 29.95C10.4666 28.0166 9.38325 27.5 9.38325 27.5C7.86659 26.4666 9.49992 26.5 9.49992 26.5C11.1666 26.6166 12.0499 28.2166 12.0499 28.2166C13.4999 30.75 15.9499 30 16.8999 29.6C17.0499 28.5166 17.4833 27.7833 17.9499 27.3666C14.2499 26.95 10.3666 25.5166 10.3666 19.1666C10.3666 17.3166 10.9999 15.8333 12.0833 14.65C11.9166 14.2333 11.3333 12.5 12.2499 10.25C12.2499 10.25 13.6499 9.79998 16.8333 11.95C18.1499 11.5833 19.5833 11.4 20.9999 11.4C22.4166 11.4 23.8499 11.5833 25.1666 11.95C28.3499 9.79998 29.7499 10.25 29.7499 10.25C30.6666 12.5 30.0833 14.2333 29.9166 14.65C30.9999 15.8333 31.6332 17.3166 31.6332 19.1666C31.6332 25.5333 27.7333 26.9333 24.0166 27.35C24.6166 27.8666 25.1666 28.8833 25.1666 30.4333C25.1666 32.6666 25.1666 34.4666 25.1666 35C25.1666 35.45 25.4333 35.9833 26.2833 35.8333C32.8999 33.6 37.6666 27.3666 37.6666 20C37.6666 17.8113 37.2355 15.644 36.3979 13.6219C35.5603 11.5998 34.3327 9.76251 32.785 8.21487C31.2374 6.66722 29.4001 5.43957 27.378 4.60199C25.3559 3.76441 23.1886 3.33331 20.9999 3.33331Z" fill="#54C198"/>
</g>
<defs>
<filter id="filter0_d_15_42" x="-3" y="0" width="48" height="48" filterUnits="userSpaceOnUse" color-interpolation-filters="sRGB">
<feFlood flood-opacity="0" result="BackgroundImageFix"/>
<feColorMatrix in="SourceAlpha" type="matrix" values="0 0 0 0 0 0 0 0 0 0 0 0 0 0 0 0 0 0 127 0" result="hardAlpha"/>
<feOffset dy="4"/>
<feGaussianBlur stdDeviation="2"/>
<feComposite in2="hardAlpha" operator="out"/>
<feColorMatrix type="matrix" values="0 0 0 0 0 0 0 0 0 0 0 0 0 0 0 0 0 0 0.25 0"/>
<feBlend mode="normal" in2="BackgroundImageFix" result="effect1_dropShadow_15_42"/>
<feBlend mode="normal" in="SourceGraphic" in2="effect1_dropShadow_15_42" result="shape"/>
</filter>
</defs>
</svg>
