<svg width="43" height="45" viewBox="0 0 43 45" fill="none" xmlns="http://www.w3.org/2000/svg">
<g filter="url(#filter0_d_15_44)">
<path d="M14.3251 3.33331H28.6751C34.1417 3.33331 38.5834 7.66665 38.5834 13V27C38.5834 29.5637 37.5395 32.0225 35.6813 33.8353C33.8232 35.6482 31.3029 36.6666 28.6751 36.6666H14.3251C8.85841 36.6666 4.41675 32.3333 4.41675 27V13C4.41675 10.4362 5.46066 7.97747 7.31883 6.16461C9.177 4.35176 11.6972 3.33331 14.3251 3.33331ZM13.9834 6.66665C12.3523 6.66665 10.7881 7.29879 9.63471 8.42401C8.48136 9.54922 7.83341 11.0753 7.83341 12.6666V27.3333C7.83341 30.65 10.5838 33.3333 13.9834 33.3333H29.0167C30.6478 33.3333 32.2121 32.7012 33.3655 31.576C34.5188 30.4507 35.1667 28.9246 35.1667 27.3333V12.6666C35.1667 9.34998 32.4163 6.66665 29.0167 6.66665H13.9834ZM30.4688 9.16665C31.0352 9.16665 31.5783 9.38614 31.9788 9.77684C32.3793 10.1675 32.6042 10.6974 32.6042 11.25C32.6042 11.8025 32.3793 12.3324 31.9788 12.7231C31.5783 13.1138 31.0352 13.3333 30.4688 13.3333C29.9025 13.3333 29.3593 13.1138 28.9589 12.7231C28.5584 12.3324 28.3334 11.8025 28.3334 11.25C28.3334 10.6974 28.5584 10.1675 28.9589 9.77684C29.3593 9.38614 29.9025 9.16665 30.4688 9.16665ZM21.5001 11.6666C23.7655 11.6666 25.9381 12.5446 27.54 14.1074C29.1418 15.6702 30.0417 17.7898 30.0417 20C30.0417 22.2101 29.1418 24.3297 27.54 25.8925C25.9381 27.4553 23.7655 28.3333 21.5001 28.3333C19.2347 28.3333 17.0621 27.4553 15.4602 25.8925C13.8583 24.3297 12.9584 22.2101 12.9584 20C12.9584 17.7898 13.8583 15.6702 15.4602 14.1074C17.0621 12.5446 19.2347 11.6666 21.5001 11.6666ZM21.5001 15C20.1408 15 18.8373 15.5268 17.8762 16.4644C16.915 17.4021 16.3751 18.6739 16.3751 20C16.3751 21.3261 16.915 22.5978 17.8762 23.5355C18.8373 24.4732 20.1408 25 21.5001 25C22.8593 25 24.1629 24.4732 25.124 23.5355C26.0851 22.5978 26.6251 21.3261 26.6251 20C26.6251 18.6739 26.0851 17.4021 25.124 16.4644C24.1629 15.5268 22.8593 15 21.5001 15Z" fill="#54C198"/>
</g>
<defs>
<filter id="filter0_d_15_44" x="-3" y="0" width="49" height="48" filterUnits="userSpaceOnUse" color-interpolation-filters="sRGB">
<feFlood flood-opacity="0" result="BackgroundImageFix"/>
<feColorMatrix in="SourceAlpha" type="matrix" values="0 0 0 0 0 0 0 0 0 0 0 0 0 0 0 0 0 0 127 0" result="hardAlpha"/>
<feOffset dy="4"/>
<feGaussianBlur stdDeviation="2"/>
<feComposite in2="hardAlpha" operator="out"/>
<feColorMatrix type="matrix" values="0 0 0 0 0 0 0 0 0 0 0 0 0 0 0 0 0 0 0.25 0"/>
<feBlend mode="normal" in2="BackgroundImageFix" result="effect1_dropShadow_15_44"/>
<feBlend mode="normal" in="SourceGraphic" in2="effect1_dropShadow_15_44" result="shape"/>
</filter>
</defs>
</svg>
