<svg width="41" height="40" viewBox="0 0 41 40" fill="none" xmlns="http://www.w3.org/2000/svg">
<path d="M13.3251 3.33331H27.6751C33.1417 3.33331 37.5834 7.66665 37.5834 13V27C37.5834 29.5637 36.5395 32.0225 34.6813 33.8353C32.8232 35.6482 30.3029 36.6666 27.6751 36.6666H13.3251C7.85841 36.6666 3.41675 32.3333 3.41675 27V13C3.41675 10.4362 4.46066 7.97747 6.31883 6.16461C8.177 4.35176 10.6972 3.33331 13.3251 3.33331ZM12.9834 6.66665C11.3523 6.66665 9.78806 7.29879 8.63471 8.42401C7.48136 9.54922 6.83341 11.0753 6.83341 12.6666V27.3333C6.83341 30.65 9.58383 33.3333 12.9834 33.3333H28.0167C29.6478 33.3333 31.2121 32.7012 32.3655 31.576C33.5188 30.4507 34.1667 28.9246 34.1667 27.3333V12.6666C34.1667 9.34998 31.4163 6.66665 28.0167 6.66665H12.9834ZM29.4688 9.16665C30.0352 9.16665 30.5783 9.38614 30.9788 9.77684C31.3793 10.1675 31.6042 10.6974 31.6042 11.25C31.6042 11.8025 31.3793 12.3324 30.9788 12.7231C30.5783 13.1138 30.0352 13.3333 29.4688 13.3333C28.9025 13.3333 28.3593 13.1138 27.9589 12.7231C27.5584 12.3324 27.3334 11.8025 27.3334 11.25C27.3334 10.6974 27.5584 10.1675 27.9589 9.77684C28.3593 9.38614 28.9025 9.16665 29.4688 9.16665ZM20.5001 11.6666C22.7655 11.6666 24.9381 12.5446 26.54 14.1074C28.1418 15.6702 29.0417 17.7898 29.0417 20C29.0417 22.2101 28.1418 24.3297 26.54 25.8925C24.9381 27.4553 22.7655 28.3333 20.5001 28.3333C18.2347 28.3333 16.0621 27.4553 14.4602 25.8925C12.8583 24.3297 11.9584 22.2101 11.9584 20C11.9584 17.7898 12.8583 15.6702 14.4602 14.1074C16.0621 12.5446 18.2347 11.6666 20.5001 11.6666ZM20.5001 15C19.1408 15 17.8373 15.5268 16.8762 16.4644C15.915 17.4021 15.3751 18.6739 15.3751 20C15.3751 21.3261 15.915 22.5978 16.8762 23.5355C17.8373 24.4732 19.1408 25 20.5001 25C21.8593 25 23.1629 24.4732 24.124 23.5355C25.0851 22.5978 25.6251 21.3261 25.6251 20C25.6251 18.6739 25.0851 17.4021 24.124 16.4644C23.1629 15.5268 21.8593 15 20.5001 15Z" fill="#54C198"/>
</svg>
