<svg width="41" height="43" viewBox="0 0 41 43" fill="none" xmlns="http://www.w3.org/2000/svg">
<g filter="url(#filter0_d_15_40)">
<path d="M32.4583 5C33.3645 5 34.2335 5.35119 34.8743 5.97631C35.515 6.60143 35.875 7.44928 35.875 8.33333V31.6667C35.875 32.5507 35.515 33.3986 34.8743 34.0237C34.2335 34.6488 33.3645 35 32.4583 35H8.54167C7.63551 35 6.76647 34.6488 6.12572 34.0237C5.48497 33.3986 5.125 32.5507 5.125 31.6667V8.33333C5.125 7.44928 5.48497 6.60143 6.12572 5.97631C6.76647 5.35119 7.63551 5 8.54167 5H32.4583ZM31.6042 30.8333V22C31.6042 20.559 31.0174 19.177 29.973 18.1581C28.9286 17.1391 27.512 16.5667 26.035 16.5667C24.5829 16.5667 22.8917 17.4333 22.0717 18.7333V16.8833H17.3054V30.8333H22.0717V22.6167C22.0717 21.3333 23.1308 20.2833 24.4463 20.2833C25.0806 20.2833 25.6889 20.5292 26.1374 20.9668C26.5859 21.4043 26.8379 21.9978 26.8379 22.6167V30.8333H31.6042ZM11.7533 14.2667C12.5145 14.2667 13.2445 13.9717 13.7827 13.4466C14.321 12.9215 14.6233 12.2093 14.6233 11.4667C14.6233 9.91667 13.3421 8.65 11.7533 8.65C10.9876 8.65 10.2533 8.94675 9.71186 9.47498C9.17042 10.0032 8.86625 10.7196 8.86625 11.4667C8.86625 13.0167 10.1646 14.2667 11.7533 14.2667ZM14.1279 30.8333V16.8833H9.39583V30.8333H14.1279Z" fill="#54C198"/>
</g>
<defs>
<filter id="filter0_d_15_40" x="-4" y="0" width="49" height="48" filterUnits="userSpaceOnUse" color-interpolation-filters="sRGB">
<feFlood flood-opacity="0" result="BackgroundImageFix"/>
<feColorMatrix in="SourceAlpha" type="matrix" values="0 0 0 0 0 0 0 0 0 0 0 0 0 0 0 0 0 0 127 0" result="hardAlpha"/>
<feOffset dy="4"/>
<feGaussianBlur stdDeviation="2"/>
<feComposite in2="hardAlpha" operator="out"/>
<feColorMatrix type="matrix" values="0 0 0 0 0 0 0 0 0 0 0 0 0 0 0 0 0 0 0.25 0"/>
<feBlend mode="normal" in2="BackgroundImageFix" result="effect1_dropShadow_15_40"/>
<feBlend mode="normal" in="SourceGraphic" in2="effect1_dropShadow_15_40" result="shape"/>
</filter>
</defs>
</svg>
