<svg width="40" height="32" viewBox="0 0 40 32" fill="none" xmlns="http://www.w3.org/2000/svg">
<path d="M1 0H2V1H1V0Z" fill="black"/>
<path d="M2 0H3V1H2V0Z" fill="black"/>
<path d="M3 0H4V1H3V0Z" fill="black"/>
<path d="M4 0H5V1H4V0Z" fill="black"/>
<path d="M5 0H6V1H5V0Z" fill="black"/>
<path d="M6 0H7V1H6V0Z" fill="black"/>
<path d="M7 0H8V1H7V0Z" fill="black"/>
<path d="M8 0H9V1H8V0Z" fill="black"/>
<path d="M9 0H10V1H9V0Z" fill="black"/>
<path d="M10 0H11V1H10V0Z" fill="black"/>
<path d="M11 0H12V1H11V0Z" fill="black"/>
<path d="M12 0H13V1H12V0Z" fill="black"/>
<path d="M13 0H14V1H13V0Z" fill="black"/>
<path d="M14 0H15V1H14V0Z" fill="black"/>
<path d="M15 0H16V1H15V0Z" fill="black"/>
<path d="M16 0H17V1H16V0Z" fill="black"/>
<path d="M17 0H18V1H17V0Z" fill="black"/>
<path d="M18 0H19V1H18V0Z" fill="black"/>
<path d="M19 0H20V1H19V0Z" fill="black"/>
<path d="M20 0H21V1H20V0Z" fill="black"/>
<path d="M21 0H22V1H21V0Z" fill="black"/>
<path d="M22 0H23V1H22V0Z" fill="black"/>
<path d="M23 0H24V1H23V0Z" fill="black"/>
<path d="M24 0H25V1H24V0Z" fill="black"/>
<path d="M25 0H26V1H25V0Z" fill="black"/>
<path d="M26 0H27V1H26V0Z" fill="black"/>
<path d="M27 0H28V1H27V0Z" fill="black"/>
<path d="M28 0H29V1H28V0Z" fill="black"/>
<path d="M29 0H30V1H29V0Z" fill="black"/>
<path d="M30 0H31V1H30V0Z" fill="black"/>
<path d="M31 0H32V1H31V0Z" fill="black"/>
<path d="M32 0H33V1H32V0Z" fill="black"/>
<path d="M33 0H34V1H33V0Z" fill="black"/>
<path d="M34 0H35V1H34V0Z" fill="black"/>
<path d="M35 0H36V1H35V0Z" fill="black"/>
<path d="M36 0H37V1H36V0Z" fill="black"/>
<path d="M37 0H38V1H37V0Z" fill="black"/>
<path d="M38 0H39V1H38V0Z" fill="black"/>
<path d="M0 1H1V2H0V1Z" fill="black"/>
<path d="M1 1H2V2H1V1Z" fill="black"/>
<path d="M2 1H3V2H2V1Z" fill="black"/>
<path d="M3 1H4V2H3V1Z" fill="black"/>
<path d="M4 1H5V2H4V1Z" fill="black"/>
<path d="M5 1H6V2H5V1Z" fill="black"/>
<path d="M6 1H7V2H6V1Z" fill="black"/>
<path d="M7 1H8V2H7V1Z" fill="black"/>
<path d="M8 1H9V2H8V1Z" fill="black"/>
<path d="M9 1H10V2H9V1Z" fill="black"/>
<path d="M10 1H11V2H10V1Z" fill="black"/>
<path d="M11 1H12V2H11V1Z" fill="black"/>
<path d="M12 1H13V2H12V1Z" fill="black"/>
<path d="M13 1H14V2H13V1Z" fill="black"/>
<path d="M14 1H15V2H14V1Z" fill="black"/>
<path d="M15 1H16V2H15V1Z" fill="black"/>
<path d="M16 1H17V2H16V1Z" fill="black"/>
<path d="M17 1H18V2H17V1Z" fill="black"/>
<path d="M18 1H19V2H18V1Z" fill="black"/>
<path d="M19 1H20V2H19V1Z" fill="black"/>
<path d="M20 1H21V2H20V1Z" fill="black"/>
<path d="M21 1H22V2H21V1Z" fill="black"/>
<path d="M22 1H23V2H22V1Z" fill="black"/>
<path d="M23 1H24V2H23V1Z" fill="black"/>
<path d="M24 1H25V2H24V1Z" fill="black"/>
<path d="M25 1H26V2H25V1Z" fill="black"/>
<path d="M26 1H27V2H26V1Z" fill="black"/>
<path d="M27 1H28V2H27V1Z" fill="black"/>
<path d="M28 1H29V2H28V1Z" fill="black"/>
<path d="M29 1H30V2H29V1Z" fill="black"/>
<path d="M30 1H31V2H30V1Z" fill="black"/>
<path d="M31 1H32V2H31V1Z" fill="black"/>
<path d="M32 1H33V2H32V1Z" fill="black"/>
<path d="M33 1H34V2H33V1Z" fill="black"/>
<path d="M34 1H35V2H34V1Z" fill="black"/>
<path d="M35 1H36V2H35V1Z" fill="black"/>
<path d="M36 1H37V2H36V1Z" fill="black"/>
<path d="M37 1H38V2H37V1Z" fill="black"/>
<path d="M38 1H39V2H38V1Z" fill="black"/>
<path d="M39 1H40V2H39V1Z" fill="black"/>
<path d="M0 2H1V3H0V2Z" fill="black"/>
<path d="M1 2H2V3H1V2Z" fill="black"/>
<path d="M2 2H3V3H2V2Z" fill="black"/>
<path d="M3 2H4V3H3V2Z" fill="black"/>
<path d="M4 2H5V3H4V2Z" fill="black"/>
<path d="M5 2H6V3H5V2Z" fill="black"/>
<path d="M6 2H7V3H6V2Z" fill="black"/>
<path d="M7 2H8V3H7V2Z" fill="black"/>
<path d="M8 2H9V3H8V2Z" fill="black"/>
<path d="M9 2H10V3H9V2Z" fill="black"/>
<path d="M10 2H11V3H10V2Z" fill="black"/>
<path d="M11 2H12V3H11V2Z" fill="black"/>
<path d="M12 2H13V3H12V2Z" fill="black"/>
<path d="M13 2H14V3H13V2Z" fill="black"/>
<path d="M14 2H15V3H14V2Z" fill="black"/>
<path d="M15 2H16V3H15V2Z" fill="black"/>
<path d="M16 2H17V3H16V2Z" fill="black"/>
<path d="M17 2H18V3H17V2Z" fill="black"/>
<path d="M18 2H19V3H18V2Z" fill="black"/>
<path d="M19 2H20V3H19V2Z" fill="black"/>
<path d="M20 2H21V3H20V2Z" fill="black"/>
<path d="M21 2H22V3H21V2Z" fill="black"/>
<path d="M22 2H23V3H22V2Z" fill="black"/>
<path d="M23 2H24V3H23V2Z" fill="black"/>
<path d="M24 2H25V3H24V2Z" fill="black"/>
<path d="M25 2H26V3H25V2Z" fill="black"/>
<path d="M26 2H27V3H26V2Z" fill="black"/>
<path d="M27 2H28V3H27V2Z" fill="black"/>
<path d="M28 2H29V3H28V2Z" fill="black"/>
<path d="M29 2H30V3H29V2Z" fill="black"/>
<path d="M30 2H31V3H30V2Z" fill="black"/>
<path d="M31 2H32V3H31V2Z" fill="black"/>
<path d="M32 2H33V3H32V2Z" fill="black"/>
<path d="M33 2H34V3H33V2Z" fill="black"/>
<path d="M34 2H35V3H34V2Z" fill="black"/>
<path d="M35 2H36V3H35V2Z" fill="black"/>
<path d="M36 2H37V3H36V2Z" fill="black"/>
<path d="M37 2H38V3H37V2Z" fill="black"/>
<path d="M38 2H39V3H38V2Z" fill="black"/>
<path d="M39 2H40V3H39V2Z" fill="black"/>
<path d="M0 3H1V4H0V3Z" fill="black"/>
<path d="M1 3H2V4H1V3Z" fill="black"/>
<path d="M2 3H3V4H2V3Z" fill="black"/>
<path d="M3 3H4V4H3V3Z" fill="black"/>
<path d="M4 3H5V4H4V3Z" fill="black"/>
<path d="M5 3H6V4H5V3Z" fill="black"/>
<path d="M6 3H7V4H6V3Z" fill="black"/>
<path d="M7 3H8V4H7V3Z" fill="black"/>
<path d="M8 3H9V4H8V3Z" fill="black"/>
<path d="M9 3H10V4H9V3Z" fill="black"/>
<path d="M10 3H11V4H10V3Z" fill="black"/>
<path d="M11 3H12V4H11V3Z" fill="black"/>
<path d="M12 3H13V4H12V3Z" fill="black"/>
<path d="M13 3H14V4H13V3Z" fill="black"/>
<path d="M14 3H15V4H14V3Z" fill="black"/>
<path d="M15 3H16V4H15V3Z" fill="black"/>
<path d="M16 3H17V4H16V3Z" fill="black"/>
<path d="M17 3H18V4H17V3Z" fill="black"/>
<path d="M18 3H19V4H18V3Z" fill="black"/>
<path d="M19 3H20V4H19V3Z" fill="black"/>
<path d="M20 3H21V4H20V3Z" fill="black"/>
<path d="M21 3H22V4H21V3Z" fill="black"/>
<path d="M22 3H23V4H22V3Z" fill="black"/>
<path d="M23 3H24V4H23V3Z" fill="black"/>
<path d="M24 3H25V4H24V3Z" fill="black"/>
<path d="M25 3H26V4H25V3Z" fill="black"/>
<path d="M26 3H27V4H26V3Z" fill="black"/>
<path d="M27 3H28V4H27V3Z" fill="black"/>
<path d="M28 3H29V4H28V3Z" fill="black"/>
<path d="M29 3H30V4H29V3Z" fill="black"/>
<path d="M30 3H31V4H30V3Z" fill="black"/>
<path d="M31 3H32V4H31V3Z" fill="black"/>
<path d="M32 3H33V4H32V3Z" fill="black"/>
<path d="M33 3H34V4H33V3Z" fill="black"/>
<path d="M34 3H35V4H34V3Z" fill="black"/>
<path d="M35 3H36V4H35V3Z" fill="black"/>
<path d="M36 3H37V4H36V3Z" fill="black"/>
<path d="M37 3H38V4H37V3Z" fill="black"/>
<path d="M38 3H39V4H38V3Z" fill="black"/>
<path d="M39 3H40V4H39V3Z" fill="black"/>
<path d="M0 4H1V5H0V4Z" fill="black"/>
<path d="M1 4H2V5H1V4Z" fill="black"/>
<path d="M2 4H3V5H2V4Z" fill="black"/>
<path d="M3 4H4V5H3V4Z" fill="black"/>
<path d="M4 4H5V5H4V4Z" fill="black"/>
<path d="M5 4H6V5H5V4Z" fill="black"/>
<path d="M6 4H7V5H6V4Z" fill="black"/>
<path d="M7 4H8V5H7V4Z" fill="black"/>
<path d="M8 4H9V5H8V4Z" fill="black"/>
<path d="M9 4H10V5H9V4Z" fill="black"/>
<path d="M10 4H11V5H10V4Z" fill="black"/>
<path d="M11 4H12V5H11V4Z" fill="black"/>
<path d="M12 4H13V5H12V4Z" fill="black"/>
<path d="M13 4H14V5H13V4Z" fill="black"/>
<path d="M14 4H15V5H14V4Z" fill="black"/>
<path d="M15 4H16V5H15V4Z" fill="black"/>
<path d="M16 4H17V5H16V4Z" fill="black"/>
<path d="M17 4H18V5H17V4Z" fill="black"/>
<path d="M18 4H19V5H18V4Z" fill="black"/>
<path d="M19 4H20V5H19V4Z" fill="black"/>
<path d="M20 4H21V5H20V4Z" fill="black"/>
<path d="M21 4H22V5H21V4Z" fill="black"/>
<path d="M22 4H23V5H22V4Z" fill="black"/>
<path d="M23 4H24V5H23V4Z" fill="black"/>
<path d="M24 4H25V5H24V4Z" fill="black"/>
<path d="M25 4H26V5H25V4Z" fill="black"/>
<path d="M26 4H27V5H26V4Z" fill="black"/>
<path d="M27 4H28V5H27V4Z" fill="black"/>
<path d="M28 4H29V5H28V4Z" fill="black"/>
<path d="M29 4H30V5H29V4Z" fill="black"/>
<path d="M30 4H31V5H30V4Z" fill="black"/>
<path d="M31 4H32V5H31V4Z" fill="black"/>
<path d="M32 4H33V5H32V4Z" fill="black"/>
<path d="M33 4H34V5H33V4Z" fill="black"/>
<path d="M34 4H35V5H34V4Z" fill="black"/>
<path d="M35 4H36V5H35V4Z" fill="black"/>
<path d="M36 4H37V5H36V4Z" fill="black"/>
<path d="M37 4H38V5H37V4Z" fill="black"/>
<path d="M38 4H39V5H38V4Z" fill="black"/>
<path d="M39 4H40V5H39V4Z" fill="black"/>
<path d="M0 5H1V6H0V5Z" fill="black"/>
<path d="M1 5H2V6H1V5Z" fill="black"/>
<path d="M2 5H3V6H2V5Z" fill="black"/>
<path d="M3 5H4V6H3V5Z" fill="black"/>
<path d="M5 5H6V6H5V5Z" fill="black"/>
<path d="M6 5H7V6H6V5Z" fill="black"/>
<path d="M7 5H8V6H7V5Z" fill="black"/>
<path d="M8 5H9V6H8V5Z" fill="black"/>
<path d="M9 5H10V6H9V5Z" fill="black"/>
<path d="M10 5H11V6H10V5Z" fill="black"/>
<path d="M11 5H12V6H11V5Z" fill="black"/>
<path d="M12 5H13V6H12V5Z" fill="black"/>
<path d="M13 5H14V6H13V5Z" fill="black"/>
<path d="M14 5H15V6H14V5Z" fill="black"/>
<path d="M15 5H16V6H15V5Z" fill="black"/>
<path d="M16 5H17V6H16V5Z" fill="black"/>
<path d="M17 5H18V6H17V5Z" fill="black"/>
<path d="M18 5H19V6H18V5Z" fill="black"/>
<path d="M19 5H20V6H19V5Z" fill="black"/>
<path d="M20 5H21V6H20V5Z" fill="black"/>
<path d="M21 5H22V6H21V5Z" fill="black"/>
<path d="M22 5H23V6H22V5Z" fill="black"/>
<path d="M23 5H24V6H23V5Z" fill="black"/>
<path d="M24 5H25V6H24V5Z" fill="black"/>
<path d="M25 5H26V6H25V5Z" fill="black"/>
<path d="M26 5H27V6H26V5Z" fill="black"/>
<path d="M27 5H28V6H27V5Z" fill="black"/>
<path d="M28 5H29V6H28V5Z" fill="black"/>
<path d="M29 5H30V6H29V5Z" fill="black"/>
<path d="M30 5H31V6H30V5Z" fill="black"/>
<path d="M31 5H32V6H31V5Z" fill="black"/>
<path d="M32 5H33V6H32V5Z" fill="black"/>
<path d="M33 5H34V6H33V5Z" fill="black"/>
<path d="M34 5H35V6H34V5Z" fill="black"/>
<path d="M36 5H37V6H36V5Z" fill="black"/>
<path d="M37 5H38V6H37V5Z" fill="black"/>
<path d="M38 5H39V6H38V5Z" fill="black"/>
<path d="M39 5H40V6H39V5Z" fill="black"/>
<path d="M0 6H1V7H0V6Z" fill="black"/>
<path d="M1 6H2V7H1V6Z" fill="black"/>
<path d="M2 6H3V7H2V6Z" fill="black"/>
<path d="M3 6H4V7H3V6Z" fill="black"/>
<path d="M7 6H8V7H7V6Z" fill="black"/>
<path d="M8 6H9V7H8V6Z" fill="black"/>
<path d="M9 6H10V7H9V6Z" fill="black"/>
<path d="M10 6H11V7H10V6Z" fill="black"/>
<path d="M11 6H12V7H11V6Z" fill="black"/>
<path d="M12 6H13V7H12V6Z" fill="black"/>
<path d="M13 6H14V7H13V6Z" fill="black"/>
<path d="M14 6H15V7H14V6Z" fill="black"/>
<path d="M15 6H16V7H15V6Z" fill="black"/>
<path d="M16 6H17V7H16V6Z" fill="black"/>
<path d="M17 6H18V7H17V6Z" fill="black"/>
<path d="M18 6H19V7H18V6Z" fill="black"/>
<path d="M19 6H20V7H19V6Z" fill="black"/>
<path d="M20 6H21V7H20V6Z" fill="black"/>
<path d="M21 6H22V7H21V6Z" fill="black"/>
<path d="M22 6H23V7H22V6Z" fill="black"/>
<path d="M23 6H24V7H23V6Z" fill="black"/>
<path d="M24 6H25V7H24V6Z" fill="black"/>
<path d="M25 6H26V7H25V6Z" fill="black"/>
<path d="M26 6H27V7H26V6Z" fill="black"/>
<path d="M27 6H28V7H27V6Z" fill="black"/>
<path d="M28 6H29V7H28V6Z" fill="black"/>
<path d="M29 6H30V7H29V6Z" fill="black"/>
<path d="M30 6H31V7H30V6Z" fill="black"/>
<path d="M31 6H32V7H31V6Z" fill="black"/>
<path d="M32 6H33V7H32V6Z" fill="black"/>
<path d="M36 6H37V7H36V6Z" fill="black"/>
<path d="M37 6H38V7H37V6Z" fill="black"/>
<path d="M38 6H39V7H38V6Z" fill="black"/>
<path d="M39 6H40V7H39V6Z" fill="black"/>
<path d="M0 7H1V8H0V7Z" fill="black"/>
<path d="M1 7H2V8H1V7Z" fill="black"/>
<path d="M2 7H3V8H2V7Z" fill="black"/>
<path d="M3 7H4V8H3V7Z" fill="black"/>
<path d="M9 7H10V8H9V7Z" fill="black"/>
<path d="M10 7H11V8H10V7Z" fill="black"/>
<path d="M11 7H12V8H11V7Z" fill="black"/>
<path d="M12 7H13V8H12V7Z" fill="black"/>
<path d="M13 7H14V8H13V7Z" fill="black"/>
<path d="M14 7H15V8H14V7Z" fill="black"/>
<path d="M15 7H16V8H15V7Z" fill="black"/>
<path d="M16 7H17V8H16V7Z" fill="black"/>
<path d="M17 7H18V8H17V7Z" fill="black"/>
<path d="M18 7H19V8H18V7Z" fill="black"/>
<path d="M19 7H20V8H19V7Z" fill="black"/>
<path d="M20 7H21V8H20V7Z" fill="black"/>
<path d="M21 7H22V8H21V7Z" fill="black"/>
<path d="M22 7H23V8H22V7Z" fill="black"/>
<path d="M23 7H24V8H23V7Z" fill="black"/>
<path d="M24 7H25V8H24V7Z" fill="black"/>
<path d="M25 7H26V8H25V7Z" fill="black"/>
<path d="M26 7H27V8H26V7Z" fill="black"/>
<path d="M27 7H28V8H27V7Z" fill="black"/>
<path d="M28 7H29V8H28V7Z" fill="black"/>
<path d="M29 7H30V8H29V7Z" fill="black"/>
<path d="M30 7H31V8H30V7Z" fill="black"/>
<path d="M36 7H37V8H36V7Z" fill="black"/>
<path d="M37 7H38V8H37V7Z" fill="black"/>
<path d="M38 7H39V8H38V7Z" fill="black"/>
<path d="M39 7H40V8H39V7Z" fill="black"/>
<path d="M0 8H1V9H0V8Z" fill="black"/>
<path d="M1 8H2V9H1V8Z" fill="black"/>
<path d="M2 8H3V9H2V8Z" fill="black"/>
<path d="M3 8H4V9H3V8Z" fill="black"/>
<path d="M4 8H5V9H4V8Z" fill="black"/>
<path d="M5 8H6V9H5V8Z" fill="black"/>
<path d="M10 8H11V9H10V8Z" fill="black"/>
<path d="M11 8H12V9H11V8Z" fill="black"/>
<path d="M12 8H13V9H12V8Z" fill="black"/>
<path d="M13 8H14V9H13V8Z" fill="black"/>
<path d="M14 8H15V9H14V8Z" fill="black"/>
<path d="M15 8H16V9H15V8Z" fill="black"/>
<path d="M16 8H17V9H16V8Z" fill="black"/>
<path d="M17 8H18V9H17V8Z" fill="black"/>
<path d="M18 8H19V9H18V8Z" fill="black"/>
<path d="M19 8H20V9H19V8Z" fill="black"/>
<path d="M20 8H21V9H20V8Z" fill="black"/>
<path d="M21 8H22V9H21V8Z" fill="black"/>
<path d="M22 8H23V9H22V8Z" fill="black"/>
<path d="M23 8H24V9H23V8Z" fill="black"/>
<path d="M24 8H25V9H24V8Z" fill="black"/>
<path d="M25 8H26V9H25V8Z" fill="black"/>
<path d="M26 8H27V9H26V8Z" fill="black"/>
<path d="M27 8H28V9H27V8Z" fill="black"/>
<path d="M28 8H29V9H28V8Z" fill="black"/>
<path d="M29 8H30V9H29V8Z" fill="black"/>
<path d="M34 8H35V9H34V8Z" fill="black"/>
<path d="M35 8H36V9H35V8Z" fill="black"/>
<path d="M36 8H37V9H36V8Z" fill="black"/>
<path d="M37 8H38V9H37V8Z" fill="black"/>
<path d="M38 8H39V9H38V8Z" fill="black"/>
<path d="M39 8H40V9H39V8Z" fill="black"/>
<path d="M0 9H1V10H0V9Z" fill="black"/>
<path d="M1 9H2V10H1V9Z" fill="black"/>
<path d="M2 9H3V10H2V9Z" fill="black"/>
<path d="M3 9H4V10H3V9Z" fill="black"/>
<path d="M4 9H5V10H4V9Z" fill="black"/>
<path d="M5 9H6V10H5V9Z" fill="black"/>
<path d="M6 9H7V10H6V9Z" fill="black"/>
<path d="M12 9H13V10H12V9Z" fill="black"/>
<path d="M13 9H14V10H13V9Z" fill="black"/>
<path d="M14 9H15V10H14V9Z" fill="black"/>
<path d="M15 9H16V10H15V9Z" fill="black"/>
<path d="M16 9H17V10H16V9Z" fill="black"/>
<path d="M17 9H18V10H17V9Z" fill="black"/>
<path d="M18 9H19V10H18V9Z" fill="black"/>
<path d="M19 9H20V10H19V9Z" fill="black"/>
<path d="M20 9H21V10H20V9Z" fill="black"/>
<path d="M21 9H22V10H21V9Z" fill="black"/>
<path d="M22 9H23V10H22V9Z" fill="black"/>
<path d="M23 9H24V10H23V9Z" fill="black"/>
<path d="M24 9H25V10H24V9Z" fill="black"/>
<path d="M25 9H26V10H25V9Z" fill="black"/>
<path d="M26 9H27V10H26V9Z" fill="black"/>
<path d="M27 9H28V10H27V9Z" fill="black"/>
<path d="M33 9H34V10H33V9Z" fill="black"/>
<path d="M34 9H35V10H34V9Z" fill="black"/>
<path d="M35 9H36V10H35V9Z" fill="black"/>
<path d="M36 9H37V10H36V9Z" fill="black"/>
<path d="M37 9H38V10H37V9Z" fill="black"/>
<path d="M38 9H39V10H38V9Z" fill="black"/>
<path d="M39 9H40V10H39V9Z" fill="black"/>
<path d="M0 10H1V11H0V10Z" fill="black"/>
<path d="M1 10H2V11H1V10Z" fill="black"/>
<path d="M2 10H3V11H2V10Z" fill="black"/>
<path d="M3 10H4V11H3V10Z" fill="black"/>
<path d="M4 10H5V11H4V10Z" fill="black"/>
<path d="M5 10H6V11H5V10Z" fill="black"/>
<path d="M6 10H7V11H6V10Z" fill="black"/>
<path d="M7 10H8V11H7V10Z" fill="black"/>
<path d="M8 10H9V11H8V10Z" fill="black"/>
<path d="M13 10H14V11H13V10Z" fill="black"/>
<path d="M14 10H15V11H14V10Z" fill="black"/>
<path d="M15 10H16V11H15V10Z" fill="black"/>
<path d="M16 10H17V11H16V10Z" fill="black"/>
<path d="M17 10H18V11H17V10Z" fill="black"/>
<path d="M18 10H19V11H18V10Z" fill="black"/>
<path d="M19 10H20V11H19V10Z" fill="black"/>
<path d="M20 10H21V11H20V10Z" fill="black"/>
<path d="M21 10H22V11H21V10Z" fill="black"/>
<path d="M22 10H23V11H22V10Z" fill="black"/>
<path d="M23 10H24V11H23V10Z" fill="black"/>
<path d="M24 10H25V11H24V10Z" fill="black"/>
<path d="M25 10H26V11H25V10Z" fill="black"/>
<path d="M26 10H27V11H26V10Z" fill="black"/>
<path d="M31 10H32V11H31V10Z" fill="black"/>
<path d="M32 10H33V11H32V10Z" fill="black"/>
<path d="M33 10H34V11H33V10Z" fill="black"/>
<path d="M34 10H35V11H34V10Z" fill="black"/>
<path d="M35 10H36V11H35V10Z" fill="black"/>
<path d="M36 10H37V11H36V10Z" fill="black"/>
<path d="M37 10H38V11H37V10Z" fill="black"/>
<path d="M38 10H39V11H38V10Z" fill="black"/>
<path d="M39 10H40V11H39V10Z" fill="black"/>
<path d="M0 11H1V12H0V11Z" fill="black"/>
<path d="M1 11H2V12H1V11Z" fill="black"/>
<path d="M2 11H3V12H2V11Z" fill="black"/>
<path d="M3 11H4V12H3V11Z" fill="black"/>
<path d="M4 11H5V12H4V11Z" fill="black"/>
<path d="M5 11H6V12H5V11Z" fill="black"/>
<path d="M6 11H7V12H6V11Z" fill="black"/>
<path d="M7 11H8V12H7V11Z" fill="black"/>
<path d="M8 11H9V12H8V11Z" fill="black"/>
<path d="M9 11H10V12H9V11Z" fill="black"/>
<path d="M10 11H11V12H10V11Z" fill="black"/>
<path d="M15 11H16V12H15V11Z" fill="black"/>
<path d="M16 11H17V12H16V11Z" fill="black"/>
<path d="M17 11H18V12H17V11Z" fill="black"/>
<path d="M18 11H19V12H18V11Z" fill="black"/>
<path d="M19 11H20V12H19V11Z" fill="black"/>
<path d="M20 11H21V12H20V11Z" fill="black"/>
<path d="M21 11H22V12H21V11Z" fill="black"/>
<path d="M22 11H23V12H22V11Z" fill="black"/>
<path d="M23 11H24V12H23V11Z" fill="black"/>
<path d="M24 11H25V12H24V11Z" fill="black"/>
<path d="M29 11H30V12H29V11Z" fill="black"/>
<path d="M30 11H31V12H30V11Z" fill="black"/>
<path d="M31 11H32V12H31V11Z" fill="black"/>
<path d="M32 11H33V12H32V11Z" fill="black"/>
<path d="M33 11H34V12H33V11Z" fill="black"/>
<path d="M34 11H35V12H34V11Z" fill="black"/>
<path d="M35 11H36V12H35V11Z" fill="black"/>
<path d="M36 11H37V12H36V11Z" fill="black"/>
<path d="M37 11H38V12H37V11Z" fill="black"/>
<path d="M38 11H39V12H38V11Z" fill="black"/>
<path d="M39 11H40V12H39V11Z" fill="black"/>
<path d="M0 12H1V13H0V12Z" fill="black"/>
<path d="M1 12H2V13H1V12Z" fill="black"/>
<path d="M2 12H3V13H2V12Z" fill="black"/>
<path d="M3 12H4V13H3V12Z" fill="black"/>
<path d="M4 12H5V13H4V12Z" fill="black"/>
<path d="M5 12H6V13H5V12Z" fill="black"/>
<path d="M6 12H7V13H6V12Z" fill="black"/>
<path d="M7 12H8V13H7V12Z" fill="black"/>
<path d="M8 12H9V13H8V12Z" fill="black"/>
<path d="M9 12H10V13H9V12Z" fill="black"/>
<path d="M10 12H11V13H10V12Z" fill="black"/>
<path d="M11 12H12V13H11V12Z" fill="black"/>
<path d="M17 12H18V13H17V12Z" fill="black"/>
<path d="M18 12H19V13H18V12Z" fill="black"/>
<path d="M19 12H20V13H19V12Z" fill="black"/>
<path d="M20 12H21V13H20V12Z" fill="black"/>
<path d="M21 12H22V13H21V12Z" fill="black"/>
<path d="M22 12H23V13H22V12Z" fill="black"/>
<path d="M28 12H29V13H28V12Z" fill="black"/>
<path d="M29 12H30V13H29V12Z" fill="black"/>
<path d="M30 12H31V13H30V12Z" fill="black"/>
<path d="M31 12H32V13H31V12Z" fill="black"/>
<path d="M32 12H33V13H32V12Z" fill="black"/>
<path d="M33 12H34V13H33V12Z" fill="black"/>
<path d="M34 12H35V13H34V12Z" fill="black"/>
<path d="M35 12H36V13H35V12Z" fill="black"/>
<path d="M36 12H37V13H36V12Z" fill="black"/>
<path d="M37 12H38V13H37V12Z" fill="black"/>
<path d="M38 12H39V13H38V12Z" fill="black"/>
<path d="M39 12H40V13H39V12Z" fill="black"/>
<path d="M0 13H1V14H0V13Z" fill="black"/>
<path d="M1 13H2V14H1V13Z" fill="black"/>
<path d="M2 13H3V14H2V13Z" fill="black"/>
<path d="M3 13H4V14H3V13Z" fill="black"/>
<path d="M4 13H5V14H4V13Z" fill="black"/>
<path d="M5 13H6V14H5V13Z" fill="black"/>
<path d="M6 13H7V14H6V13Z" fill="black"/>
<path d="M7 13H8V14H7V13Z" fill="black"/>
<path d="M8 13H9V14H8V13Z" fill="black"/>
<path d="M9 13H10V14H9V13Z" fill="black"/>
<path d="M10 13H11V14H10V13Z" fill="black"/>
<path d="M11 13H12V14H11V13Z" fill="black"/>
<path d="M12 13H13V14H12V13Z" fill="black"/>
<path d="M13 13H14V14H13V13Z" fill="black"/>
<path d="M18 13H19V14H18V13Z" fill="black"/>
<path d="M19 13H20V14H19V13Z" fill="black"/>
<path d="M20 13H21V14H20V13Z" fill="black"/>
<path d="M21 13H22V14H21V13Z" fill="black"/>
<path d="M26 13H27V14H26V13Z" fill="black"/>
<path d="M27 13H28V14H27V13Z" fill="black"/>
<path d="M28 13H29V14H28V13Z" fill="black"/>
<path d="M29 13H30V14H29V13Z" fill="black"/>
<path d="M30 13H31V14H30V13Z" fill="black"/>
<path d="M31 13H32V14H31V13Z" fill="black"/>
<path d="M32 13H33V14H32V13Z" fill="black"/>
<path d="M33 13H34V14H33V13Z" fill="black"/>
<path d="M34 13H35V14H34V13Z" fill="black"/>
<path d="M35 13H36V14H35V13Z" fill="black"/>
<path d="M36 13H37V14H36V13Z" fill="black"/>
<path d="M37 13H38V14H37V13Z" fill="black"/>
<path d="M38 13H39V14H38V13Z" fill="black"/>
<path d="M39 13H40V14H39V13Z" fill="black"/>
<path d="M0 14H1V15H0V14Z" fill="black"/>
<path d="M1 14H2V15H1V14Z" fill="black"/>
<path d="M2 14H3V15H2V14Z" fill="black"/>
<path d="M3 14H4V15H3V14Z" fill="black"/>
<path d="M4 14H5V15H4V14Z" fill="black"/>
<path d="M5 14H6V15H5V14Z" fill="black"/>
<path d="M6 14H7V15H6V14Z" fill="black"/>
<path d="M7 14H8V15H7V14Z" fill="black"/>
<path d="M8 14H9V15H8V14Z" fill="black"/>
<path d="M9 14H10V15H9V14Z" fill="black"/>
<path d="M10 14H11V15H10V14Z" fill="black"/>
<path d="M11 14H12V15H11V14Z" fill="black"/>
<path d="M12 14H13V15H12V14Z" fill="black"/>
<path d="M13 14H14V15H13V14Z" fill="black"/>
<path d="M14 14H15V15H14V14Z" fill="black"/>
<path d="M25 14H26V15H25V14Z" fill="black"/>
<path d="M26 14H27V15H26V14Z" fill="black"/>
<path d="M27 14H28V15H27V14Z" fill="black"/>
<path d="M28 14H29V15H28V14Z" fill="black"/>
<path d="M29 14H30V15H29V14Z" fill="black"/>
<path d="M30 14H31V15H30V14Z" fill="black"/>
<path d="M31 14H32V15H31V14Z" fill="black"/>
<path d="M32 14H33V15H32V14Z" fill="black"/>
<path d="M33 14H34V15H33V14Z" fill="black"/>
<path d="M34 14H35V15H34V14Z" fill="black"/>
<path d="M35 14H36V15H35V14Z" fill="black"/>
<path d="M36 14H37V15H36V14Z" fill="black"/>
<path d="M37 14H38V15H37V14Z" fill="black"/>
<path d="M38 14H39V15H38V14Z" fill="black"/>
<path d="M39 14H40V15H39V14Z" fill="black"/>
<path d="M0 15H1V16H0V15Z" fill="black"/>
<path d="M1 15H2V16H1V15Z" fill="black"/>
<path d="M2 15H3V16H2V15Z" fill="black"/>
<path d="M3 15H4V16H3V15Z" fill="black"/>
<path d="M4 15H5V16H4V15Z" fill="black"/>
<path d="M5 15H6V16H5V15Z" fill="black"/>
<path d="M6 15H7V16H6V15Z" fill="black"/>
<path d="M7 15H8V16H7V15Z" fill="black"/>
<path d="M8 15H9V16H8V15Z" fill="black"/>
<path d="M9 15H10V16H9V15Z" fill="black"/>
<path d="M10 15H11V16H10V15Z" fill="black"/>
<path d="M11 15H12V16H11V15Z" fill="black"/>
<path d="M12 15H13V16H12V15Z" fill="black"/>
<path d="M13 15H14V16H13V15Z" fill="black"/>
<path d="M14 15H15V16H14V15Z" fill="black"/>
<path d="M15 15H16V16H15V15Z" fill="black"/>
<path d="M16 15H17V16H16V15Z" fill="black"/>
<path d="M23 15H24V16H23V15Z" fill="black"/>
<path d="M24 15H25V16H24V15Z" fill="black"/>
<path d="M25 15H26V16H25V15Z" fill="black"/>
<path d="M26 15H27V16H26V15Z" fill="black"/>
<path d="M27 15H28V16H27V15Z" fill="black"/>
<path d="M28 15H29V16H28V15Z" fill="black"/>
<path d="M29 15H30V16H29V15Z" fill="black"/>
<path d="M30 15H31V16H30V15Z" fill="black"/>
<path d="M31 15H32V16H31V15Z" fill="black"/>
<path d="M32 15H33V16H32V15Z" fill="black"/>
<path d="M33 15H34V16H33V15Z" fill="black"/>
<path d="M34 15H35V16H34V15Z" fill="black"/>
<path d="M35 15H36V16H35V15Z" fill="black"/>
<path d="M36 15H37V16H36V15Z" fill="black"/>
<path d="M37 15H38V16H37V15Z" fill="black"/>
<path d="M38 15H39V16H38V15Z" fill="black"/>
<path d="M39 15H40V16H39V15Z" fill="black"/>
<path d="M0 16H1V17H0V16Z" fill="black"/>
<path d="M1 16H2V17H1V16Z" fill="black"/>
<path d="M2 16H3V17H2V16Z" fill="black"/>
<path d="M3 16H4V17H3V16Z" fill="black"/>
<path d="M4 16H5V17H4V16Z" fill="black"/>
<path d="M5 16H6V17H5V16Z" fill="black"/>
<path d="M6 16H7V17H6V16Z" fill="black"/>
<path d="M7 16H8V17H7V16Z" fill="black"/>
<path d="M8 16H9V17H8V16Z" fill="black"/>
<path d="M9 16H10V17H9V16Z" fill="black"/>
<path d="M10 16H11V17H10V16Z" fill="black"/>
<path d="M11 16H12V17H11V16Z" fill="black"/>
<path d="M12 16H13V17H12V16Z" fill="black"/>
<path d="M13 16H14V17H13V16Z" fill="black"/>
<path d="M14 16H15V17H14V16Z" fill="black"/>
<path d="M15 16H16V17H15V16Z" fill="black"/>
<path d="M16 16H17V17H16V16Z" fill="black"/>
<path d="M17 16H18V17H17V16Z" fill="black"/>
<path d="M18 16H19V17H18V16Z" fill="black"/>
<path d="M21 16H22V17H21V16Z" fill="black"/>
<path d="M22 16H23V17H22V16Z" fill="black"/>
<path d="M23 16H24V17H23V16Z" fill="black"/>
<path d="M24 16H25V17H24V16Z" fill="black"/>
<path d="M25 16H26V17H25V16Z" fill="black"/>
<path d="M26 16H27V17H26V16Z" fill="black"/>
<path d="M27 16H28V17H27V16Z" fill="black"/>
<path d="M28 16H29V17H28V16Z" fill="black"/>
<path d="M29 16H30V17H29V16Z" fill="black"/>
<path d="M30 16H31V17H30V16Z" fill="black"/>
<path d="M31 16H32V17H31V16Z" fill="black"/>
<path d="M32 16H33V17H32V16Z" fill="black"/>
<path d="M33 16H34V17H33V16Z" fill="black"/>
<path d="M34 16H35V17H34V16Z" fill="black"/>
<path d="M35 16H36V17H35V16Z" fill="black"/>
<path d="M36 16H37V17H36V16Z" fill="black"/>
<path d="M37 16H38V17H37V16Z" fill="black"/>
<path d="M38 16H39V17H38V16Z" fill="black"/>
<path d="M39 16H40V17H39V16Z" fill="black"/>
<path d="M0 17H1V18H0V17Z" fill="black"/>
<path d="M1 17H2V18H1V17Z" fill="black"/>
<path d="M2 17H3V18H2V17Z" fill="black"/>
<path d="M3 17H4V18H3V17Z" fill="black"/>
<path d="M4 17H5V18H4V17Z" fill="black"/>
<path d="M5 17H6V18H5V17Z" fill="black"/>
<path d="M6 17H7V18H6V17Z" fill="black"/>
<path d="M7 17H8V18H7V17Z" fill="black"/>
<path d="M8 17H9V18H8V17Z" fill="black"/>
<path d="M9 17H10V18H9V17Z" fill="black"/>
<path d="M10 17H11V18H10V17Z" fill="black"/>
<path d="M11 17H12V18H11V17Z" fill="black"/>
<path d="M12 17H13V18H12V17Z" fill="black"/>
<path d="M13 17H14V18H13V17Z" fill="black"/>
<path d="M14 17H15V18H14V17Z" fill="black"/>
<path d="M15 17H16V18H15V17Z" fill="black"/>
<path d="M16 17H17V18H16V17Z" fill="black"/>
<path d="M17 17H18V18H17V17Z" fill="black"/>
<path d="M18 17H19V18H18V17Z" fill="black"/>
<path d="M19 17H20V18H19V17Z" fill="black"/>
<path d="M20 17H21V18H20V17Z" fill="black"/>
<path d="M21 17H22V18H21V17Z" fill="black"/>
<path d="M22 17H23V18H22V17Z" fill="black"/>
<path d="M23 17H24V18H23V17Z" fill="black"/>
<path d="M24 17H25V18H24V17Z" fill="black"/>
<path d="M25 17H26V18H25V17Z" fill="black"/>
<path d="M26 17H27V18H26V17Z" fill="black"/>
<path d="M27 17H28V18H27V17Z" fill="black"/>
<path d="M28 17H29V18H28V17Z" fill="black"/>
<path d="M29 17H30V18H29V17Z" fill="black"/>
<path d="M30 17H31V18H30V17Z" fill="black"/>
<path d="M31 17H32V18H31V17Z" fill="black"/>
<path d="M32 17H33V18H32V17Z" fill="black"/>
<path d="M33 17H34V18H33V17Z" fill="black"/>
<path d="M34 17H35V18H34V17Z" fill="black"/>
<path d="M35 17H36V18H35V17Z" fill="black"/>
<path d="M36 17H37V18H36V17Z" fill="black"/>
<path d="M37 17H38V18H37V17Z" fill="black"/>
<path d="M38 17H39V18H38V17Z" fill="black"/>
<path d="M39 17H40V18H39V17Z" fill="black"/>
<path d="M0 18H1V19H0V18Z" fill="black"/>
<path d="M1 18H2V19H1V18Z" fill="black"/>
<path d="M2 18H3V19H2V18Z" fill="black"/>
<path d="M3 18H4V19H3V18Z" fill="black"/>
<path d="M4 18H5V19H4V18Z" fill="black"/>
<path d="M5 18H6V19H5V18Z" fill="black"/>
<path d="M6 18H7V19H6V18Z" fill="black"/>
<path d="M7 18H8V19H7V18Z" fill="black"/>
<path d="M8 18H9V19H8V18Z" fill="black"/>
<path d="M9 18H10V19H9V18Z" fill="black"/>
<path d="M10 18H11V19H10V18Z" fill="black"/>
<path d="M11 18H12V19H11V18Z" fill="black"/>
<path d="M12 18H13V19H12V18Z" fill="black"/>
<path d="M13 18H14V19H13V18Z" fill="black"/>
<path d="M14 18H15V19H14V18Z" fill="black"/>
<path d="M15 18H16V19H15V18Z" fill="black"/>
<path d="M16 18H17V19H16V18Z" fill="black"/>
<path d="M17 18H18V19H17V18Z" fill="black"/>
<path d="M18 18H19V19H18V18Z" fill="black"/>
<path d="M19 18H20V19H19V18Z" fill="black"/>
<path d="M20 18H21V19H20V18Z" fill="black"/>
<path d="M21 18H22V19H21V18Z" fill="black"/>
<path d="M22 18H23V19H22V18Z" fill="black"/>
<path d="M23 18H24V19H23V18Z" fill="black"/>
<path d="M24 18H25V19H24V18Z" fill="black"/>
<path d="M25 18H26V19H25V18Z" fill="black"/>
<path d="M26 18H27V19H26V18Z" fill="black"/>
<path d="M27 18H28V19H27V18Z" fill="black"/>
<path d="M28 18H29V19H28V18Z" fill="black"/>
<path d="M29 18H30V19H29V18Z" fill="black"/>
<path d="M30 18H31V19H30V18Z" fill="black"/>
<path d="M31 18H32V19H31V18Z" fill="black"/>
<path d="M32 18H33V19H32V18Z" fill="black"/>
<path d="M33 18H34V19H33V18Z" fill="black"/>
<path d="M34 18H35V19H34V18Z" fill="black"/>
<path d="M35 18H36V19H35V18Z" fill="black"/>
<path d="M36 18H37V19H36V18Z" fill="black"/>
<path d="M37 18H38V19H37V18Z" fill="black"/>
<path d="M38 18H39V19H38V18Z" fill="black"/>
<path d="M39 18H40V19H39V18Z" fill="black"/>
<path d="M0 19H1V20H0V19Z" fill="black"/>
<path d="M1 19H2V20H1V19Z" fill="black"/>
<path d="M2 19H3V20H2V19Z" fill="black"/>
<path d="M3 19H4V20H3V19Z" fill="black"/>
<path d="M4 19H5V20H4V19Z" fill="black"/>
<path d="M5 19H6V20H5V19Z" fill="black"/>
<path d="M6 19H7V20H6V19Z" fill="black"/>
<path d="M7 19H8V20H7V19Z" fill="black"/>
<path d="M8 19H9V20H8V19Z" fill="black"/>
<path d="M9 19H10V20H9V19Z" fill="black"/>
<path d="M10 19H11V20H10V19Z" fill="black"/>
<path d="M11 19H12V20H11V19Z" fill="black"/>
<path d="M12 19H13V20H12V19Z" fill="black"/>
<path d="M13 19H14V20H13V19Z" fill="black"/>
<path d="M14 19H15V20H14V19Z" fill="black"/>
<path d="M15 19H16V20H15V19Z" fill="black"/>
<path d="M16 19H17V20H16V19Z" fill="black"/>
<path d="M17 19H18V20H17V19Z" fill="black"/>
<path d="M18 19H19V20H18V19Z" fill="black"/>
<path d="M19 19H20V20H19V19Z" fill="black"/>
<path d="M20 19H21V20H20V19Z" fill="black"/>
<path d="M21 19H22V20H21V19Z" fill="black"/>
<path d="M22 19H23V20H22V19Z" fill="black"/>
<path d="M23 19H24V20H23V19Z" fill="black"/>
<path d="M24 19H25V20H24V19Z" fill="black"/>
<path d="M25 19H26V20H25V19Z" fill="black"/>
<path d="M26 19H27V20H26V19Z" fill="black"/>
<path d="M27 19H28V20H27V19Z" fill="black"/>
<path d="M28 19H29V20H28V19Z" fill="black"/>
<path d="M29 19H30V20H29V19Z" fill="black"/>
<path d="M30 19H31V20H30V19Z" fill="black"/>
<path d="M31 19H32V20H31V19Z" fill="black"/>
<path d="M32 19H33V20H32V19Z" fill="black"/>
<path d="M33 19H34V20H33V19Z" fill="black"/>
<path d="M34 19H35V20H34V19Z" fill="black"/>
<path d="M35 19H36V20H35V19Z" fill="black"/>
<path d="M36 19H37V20H36V19Z" fill="black"/>
<path d="M37 19H38V20H37V19Z" fill="black"/>
<path d="M38 19H39V20H38V19Z" fill="black"/>
<path d="M39 19H40V20H39V19Z" fill="black"/>
<path d="M0 20H1V21H0V20Z" fill="black"/>
<path d="M1 20H2V21H1V20Z" fill="black"/>
<path d="M2 20H3V21H2V20Z" fill="black"/>
<path d="M3 20H4V21H3V20Z" fill="black"/>
<path d="M4 20H5V21H4V20Z" fill="black"/>
<path d="M5 20H6V21H5V20Z" fill="black"/>
<path d="M6 20H7V21H6V20Z" fill="black"/>
<path d="M7 20H8V21H7V20Z" fill="black"/>
<path d="M8 20H9V21H8V20Z" fill="black"/>
<path d="M9 20H10V21H9V20Z" fill="black"/>
<path d="M10 20H11V21H10V20Z" fill="black"/>
<path d="M11 20H12V21H11V20Z" fill="black"/>
<path d="M12 20H13V21H12V20Z" fill="black"/>
<path d="M13 20H14V21H13V20Z" fill="black"/>
<path d="M14 20H15V21H14V20Z" fill="black"/>
<path d="M15 20H16V21H15V20Z" fill="black"/>
<path d="M16 20H17V21H16V20Z" fill="black"/>
<path d="M17 20H18V21H17V20Z" fill="black"/>
<path d="M18 20H19V21H18V20Z" fill="black"/>
<path d="M19 20H20V21H19V20Z" fill="black"/>
<path d="M20 20H21V21H20V20Z" fill="black"/>
<path d="M21 20H22V21H21V20Z" fill="black"/>
<path d="M22 20H23V21H22V20Z" fill="black"/>
<path d="M23 20H24V21H23V20Z" fill="black"/>
<path d="M24 20H25V21H24V20Z" fill="black"/>
<path d="M25 20H26V21H25V20Z" fill="black"/>
<path d="M26 20H27V21H26V20Z" fill="black"/>
<path d="M27 20H28V21H27V20Z" fill="black"/>
<path d="M28 20H29V21H28V20Z" fill="black"/>
<path d="M29 20H30V21H29V20Z" fill="black"/>
<path d="M30 20H31V21H30V20Z" fill="black"/>
<path d="M31 20H32V21H31V20Z" fill="black"/>
<path d="M32 20H33V21H32V20Z" fill="black"/>
<path d="M33 20H34V21H33V20Z" fill="black"/>
<path d="M34 20H35V21H34V20Z" fill="black"/>
<path d="M35 20H36V21H35V20Z" fill="black"/>
<path d="M36 20H37V21H36V20Z" fill="black"/>
<path d="M37 20H38V21H37V20Z" fill="black"/>
<path d="M38 20H39V21H38V20Z" fill="black"/>
<path d="M39 20H40V21H39V20Z" fill="black"/>
<path d="M0 21H1V22H0V21Z" fill="black"/>
<path d="M1 21H2V22H1V21Z" fill="black"/>
<path d="M2 21H3V22H2V21Z" fill="black"/>
<path d="M3 21H4V22H3V21Z" fill="black"/>
<path d="M4 21H5V22H4V21Z" fill="black"/>
<path d="M5 21H6V22H5V21Z" fill="black"/>
<path d="M6 21H7V22H6V21Z" fill="black"/>
<path d="M7 21H8V22H7V21Z" fill="black"/>
<path d="M8 21H9V22H8V21Z" fill="black"/>
<path d="M9 21H10V22H9V21Z" fill="black"/>
<path d="M10 21H11V22H10V21Z" fill="black"/>
<path d="M11 21H12V22H11V21Z" fill="black"/>
<path d="M12 21H13V22H12V21Z" fill="black"/>
<path d="M13 21H14V22H13V21Z" fill="black"/>
<path d="M14 21H15V22H14V21Z" fill="black"/>
<path d="M15 21H16V22H15V21Z" fill="black"/>
<path d="M16 21H17V22H16V21Z" fill="black"/>
<path d="M17 21H18V22H17V21Z" fill="black"/>
<path d="M18 21H19V22H18V21Z" fill="black"/>
<path d="M19 21H20V22H19V21Z" fill="black"/>
<path d="M20 21H21V22H20V21Z" fill="black"/>
<path d="M21 21H22V22H21V21Z" fill="black"/>
<path d="M22 21H23V22H22V21Z" fill="black"/>
<path d="M23 21H24V22H23V21Z" fill="black"/>
<path d="M24 21H25V22H24V21Z" fill="black"/>
<path d="M25 21H26V22H25V21Z" fill="black"/>
<path d="M26 21H27V22H26V21Z" fill="black"/>
<path d="M27 21H28V22H27V21Z" fill="black"/>
<path d="M28 21H29V22H28V21Z" fill="black"/>
<path d="M29 21H30V22H29V21Z" fill="black"/>
<path d="M30 21H31V22H30V21Z" fill="black"/>
<path d="M31 21H32V22H31V21Z" fill="black"/>
<path d="M32 21H33V22H32V21Z" fill="black"/>
<path d="M33 21H34V22H33V21Z" fill="black"/>
<path d="M34 21H35V22H34V21Z" fill="black"/>
<path d="M35 21H36V22H35V21Z" fill="black"/>
<path d="M36 21H37V22H36V21Z" fill="black"/>
<path d="M37 21H38V22H37V21Z" fill="black"/>
<path d="M38 21H39V22H38V21Z" fill="black"/>
<path d="M39 21H40V22H39V21Z" fill="black"/>
<path d="M0 22H1V23H0V22Z" fill="black"/>
<path d="M1 22H2V23H1V22Z" fill="black"/>
<path d="M2 22H3V23H2V22Z" fill="black"/>
<path d="M3 22H4V23H3V22Z" fill="black"/>
<path d="M4 22H5V23H4V22Z" fill="black"/>
<path d="M5 22H6V23H5V22Z" fill="black"/>
<path d="M6 22H7V23H6V22Z" fill="black"/>
<path d="M7 22H8V23H7V22Z" fill="black"/>
<path d="M8 22H9V23H8V22Z" fill="black"/>
<path d="M9 22H10V23H9V22Z" fill="black"/>
<path d="M10 22H11V23H10V22Z" fill="black"/>
<path d="M11 22H12V23H11V22Z" fill="black"/>
<path d="M12 22H13V23H12V22Z" fill="black"/>
<path d="M13 22H14V23H13V22Z" fill="black"/>
<path d="M14 22H15V23H14V22Z" fill="black"/>
<path d="M15 22H16V23H15V22Z" fill="black"/>
<path d="M16 22H17V23H16V22Z" fill="black"/>
<path d="M17 22H18V23H17V22Z" fill="black"/>
<path d="M18 22H19V23H18V22Z" fill="black"/>
<path d="M19 22H20V23H19V22Z" fill="black"/>
<path d="M20 22H21V23H20V22Z" fill="black"/>
<path d="M21 22H22V23H21V22Z" fill="black"/>
<path d="M22 22H23V23H22V22Z" fill="black"/>
<path d="M23 22H24V23H23V22Z" fill="black"/>
<path d="M24 22H25V23H24V22Z" fill="black"/>
<path d="M25 22H26V23H25V22Z" fill="black"/>
<path d="M26 22H27V23H26V22Z" fill="black"/>
<path d="M27 22H28V23H27V22Z" fill="black"/>
<path d="M28 22H29V23H28V22Z" fill="black"/>
<path d="M29 22H30V23H29V22Z" fill="black"/>
<path d="M30 22H31V23H30V22Z" fill="black"/>
<path d="M31 22H32V23H31V22Z" fill="black"/>
<path d="M32 22H33V23H32V22Z" fill="black"/>
<path d="M33 22H34V23H33V22Z" fill="black"/>
<path d="M34 22H35V23H34V22Z" fill="black"/>
<path d="M35 22H36V23H35V22Z" fill="black"/>
<path d="M36 22H37V23H36V22Z" fill="black"/>
<path d="M37 22H38V23H37V22Z" fill="black"/>
<path d="M38 22H39V23H38V22Z" fill="black"/>
<path d="M39 22H40V23H39V22Z" fill="black"/>
<path d="M0 23H1V24H0V23Z" fill="black"/>
<path d="M1 23H2V24H1V23Z" fill="black"/>
<path d="M2 23H3V24H2V23Z" fill="black"/>
<path d="M3 23H4V24H3V23Z" fill="black"/>
<path d="M4 23H5V24H4V23Z" fill="black"/>
<path d="M5 23H6V24H5V23Z" fill="black"/>
<path d="M6 23H7V24H6V23Z" fill="black"/>
<path d="M7 23H8V24H7V23Z" fill="black"/>
<path d="M8 23H9V24H8V23Z" fill="black"/>
<path d="M9 23H10V24H9V23Z" fill="black"/>
<path d="M10 23H11V24H10V23Z" fill="black"/>
<path d="M11 23H12V24H11V23Z" fill="black"/>
<path d="M12 23H13V24H12V23Z" fill="black"/>
<path d="M13 23H14V24H13V23Z" fill="black"/>
<path d="M14 23H15V24H14V23Z" fill="black"/>
<path d="M15 23H16V24H15V23Z" fill="black"/>
<path d="M16 23H17V24H16V23Z" fill="black"/>
<path d="M17 23H18V24H17V23Z" fill="black"/>
<path d="M18 23H19V24H18V23Z" fill="black"/>
<path d="M19 23H20V24H19V23Z" fill="black"/>
<path d="M20 23H21V24H20V23Z" fill="black"/>
<path d="M21 23H22V24H21V23Z" fill="black"/>
<path d="M22 23H23V24H22V23Z" fill="black"/>
<path d="M23 23H24V24H23V23Z" fill="black"/>
<path d="M24 23H25V24H24V23Z" fill="black"/>
<path d="M25 23H26V24H25V23Z" fill="black"/>
<path d="M26 23H27V24H26V23Z" fill="black"/>
<path d="M27 23H28V24H27V23Z" fill="black"/>
<path d="M28 23H29V24H28V23Z" fill="black"/>
<path d="M29 23H30V24H29V23Z" fill="black"/>
<path d="M30 23H31V24H30V23Z" fill="black"/>
<path d="M31 23H32V24H31V23Z" fill="black"/>
<path d="M32 23H33V24H32V23Z" fill="black"/>
<path d="M33 23H34V24H33V23Z" fill="black"/>
<path d="M34 23H35V24H34V23Z" fill="black"/>
<path d="M35 23H36V24H35V23Z" fill="black"/>
<path d="M36 23H37V24H36V23Z" fill="black"/>
<path d="M37 23H38V24H37V23Z" fill="black"/>
<path d="M38 23H39V24H38V23Z" fill="black"/>
<path d="M39 23H40V24H39V23Z" fill="black"/>
<path d="M0 24H1V25H0V24Z" fill="black"/>
<path d="M1 24H2V25H1V24Z" fill="black"/>
<path d="M2 24H3V25H2V24Z" fill="black"/>
<path d="M3 24H4V25H3V24Z" fill="black"/>
<path d="M4 24H5V25H4V24Z" fill="black"/>
<path d="M5 24H6V25H5V24Z" fill="black"/>
<path d="M6 24H7V25H6V24Z" fill="black"/>
<path d="M7 24H8V25H7V24Z" fill="black"/>
<path d="M8 24H9V25H8V24Z" fill="black"/>
<path d="M9 24H10V25H9V24Z" fill="black"/>
<path d="M10 24H11V25H10V24Z" fill="black"/>
<path d="M11 24H12V25H11V24Z" fill="black"/>
<path d="M12 24H13V25H12V24Z" fill="black"/>
<path d="M13 24H14V25H13V24Z" fill="black"/>
<path d="M14 24H15V25H14V24Z" fill="black"/>
<path d="M15 24H16V25H15V24Z" fill="black"/>
<path d="M16 24H17V25H16V24Z" fill="black"/>
<path d="M17 24H18V25H17V24Z" fill="black"/>
<path d="M18 24H19V25H18V24Z" fill="black"/>
<path d="M19 24H20V25H19V24Z" fill="black"/>
<path d="M20 24H21V25H20V24Z" fill="black"/>
<path d="M21 24H22V25H21V24Z" fill="black"/>
<path d="M22 24H23V25H22V24Z" fill="black"/>
<path d="M23 24H24V25H23V24Z" fill="black"/>
<path d="M24 24H25V25H24V24Z" fill="black"/>
<path d="M25 24H26V25H25V24Z" fill="black"/>
<path d="M26 24H27V25H26V24Z" fill="black"/>
<path d="M27 24H28V25H27V24Z" fill="black"/>
<path d="M28 24H29V25H28V24Z" fill="black"/>
<path d="M29 24H30V25H29V24Z" fill="black"/>
<path d="M30 24H31V25H30V24Z" fill="black"/>
<path d="M31 24H32V25H31V24Z" fill="black"/>
<path d="M32 24H33V25H32V24Z" fill="black"/>
<path d="M33 24H34V25H33V24Z" fill="black"/>
<path d="M34 24H35V25H34V24Z" fill="black"/>
<path d="M35 24H36V25H35V24Z" fill="black"/>
<path d="M36 24H37V25H36V24Z" fill="black"/>
<path d="M37 24H38V25H37V24Z" fill="black"/>
<path d="M38 24H39V25H38V24Z" fill="black"/>
<path d="M39 24H40V25H39V24Z" fill="black"/>
<path d="M0 25H1V26H0V25Z" fill="black"/>
<path d="M1 25H2V26H1V25Z" fill="black"/>
<path d="M2 25H3V26H2V25Z" fill="black"/>
<path d="M3 25H4V26H3V25Z" fill="black"/>
<path d="M4 25H5V26H4V25Z" fill="black"/>
<path d="M5 25H6V26H5V25Z" fill="black"/>
<path d="M6 25H7V26H6V25Z" fill="black"/>
<path d="M7 25H8V26H7V25Z" fill="black"/>
<path d="M8 25H9V26H8V25Z" fill="black"/>
<path d="M9 25H10V26H9V25Z" fill="black"/>
<path d="M10 25H11V26H10V25Z" fill="black"/>
<path d="M11 25H12V26H11V25Z" fill="black"/>
<path d="M12 25H13V26H12V25Z" fill="black"/>
<path d="M13 25H14V26H13V25Z" fill="black"/>
<path d="M14 25H15V26H14V25Z" fill="black"/>
<path d="M15 25H16V26H15V25Z" fill="black"/>
<path d="M16 25H17V26H16V25Z" fill="black"/>
<path d="M17 25H18V26H17V25Z" fill="black"/>
<path d="M18 25H19V26H18V25Z" fill="black"/>
<path d="M19 25H20V26H19V25Z" fill="black"/>
<path d="M20 25H21V26H20V25Z" fill="black"/>
<path d="M21 25H22V26H21V25Z" fill="black"/>
<path d="M22 25H23V26H22V25Z" fill="black"/>
<path d="M23 25H24V26H23V25Z" fill="black"/>
<path d="M24 25H25V26H24V25Z" fill="black"/>
<path d="M25 25H26V26H25V25Z" fill="black"/>
<path d="M26 25H27V26H26V25Z" fill="black"/>
<path d="M27 25H28V26H27V25Z" fill="black"/>
<path d="M28 25H29V26H28V25Z" fill="black"/>
<path d="M29 25H30V26H29V25Z" fill="black"/>
<path d="M30 25H31V26H30V25Z" fill="black"/>
<path d="M31 25H32V26H31V25Z" fill="black"/>
<path d="M32 25H33V26H32V25Z" fill="black"/>
<path d="M33 25H34V26H33V25Z" fill="black"/>
<path d="M34 25H35V26H34V25Z" fill="black"/>
<path d="M35 25H36V26H35V25Z" fill="black"/>
<path d="M36 25H37V26H36V25Z" fill="black"/>
<path d="M37 25H38V26H37V25Z" fill="black"/>
<path d="M38 25H39V26H38V25Z" fill="black"/>
<path d="M39 25H40V26H39V25Z" fill="black"/>
<path d="M0 26H1V27H0V26Z" fill="black"/>
<path d="M1 26H2V27H1V26Z" fill="black"/>
<path d="M2 26H3V27H2V26Z" fill="black"/>
<path d="M3 26H4V27H3V26Z" fill="black"/>
<path d="M4 26H5V27H4V26Z" fill="black"/>
<path d="M5 26H6V27H5V26Z" fill="black"/>
<path d="M6 26H7V27H6V26Z" fill="black"/>
<path d="M7 26H8V27H7V26Z" fill="black"/>
<path d="M8 26H9V27H8V26Z" fill="black"/>
<path d="M9 26H10V27H9V26Z" fill="black"/>
<path d="M10 26H11V27H10V26Z" fill="black"/>
<path d="M11 26H12V27H11V26Z" fill="black"/>
<path d="M12 26H13V27H12V26Z" fill="black"/>
<path d="M13 26H14V27H13V26Z" fill="black"/>
<path d="M14 26H15V27H14V26Z" fill="black"/>
<path d="M15 26H16V27H15V26Z" fill="black"/>
<path d="M16 26H17V27H16V26Z" fill="black"/>
<path d="M17 26H18V27H17V26Z" fill="black"/>
<path d="M18 26H19V27H18V26Z" fill="black"/>
<path d="M19 26H20V27H19V26Z" fill="black"/>
<path d="M20 26H21V27H20V26Z" fill="black"/>
<path d="M21 26H22V27H21V26Z" fill="black"/>
<path d="M22 26H23V27H22V26Z" fill="black"/>
<path d="M23 26H24V27H23V26Z" fill="black"/>
<path d="M24 26H25V27H24V26Z" fill="black"/>
<path d="M25 26H26V27H25V26Z" fill="black"/>
<path d="M26 26H27V27H26V26Z" fill="black"/>
<path d="M27 26H28V27H27V26Z" fill="black"/>
<path d="M28 26H29V27H28V26Z" fill="black"/>
<path d="M29 26H30V27H29V26Z" fill="black"/>
<path d="M30 26H31V27H30V26Z" fill="black"/>
<path d="M31 26H32V27H31V26Z" fill="black"/>
<path d="M32 26H33V27H32V26Z" fill="black"/>
<path d="M33 26H34V27H33V26Z" fill="black"/>
<path d="M34 26H35V27H34V26Z" fill="black"/>
<path d="M35 26H36V27H35V26Z" fill="black"/>
<path d="M36 26H37V27H36V26Z" fill="black"/>
<path d="M37 26H38V27H37V26Z" fill="black"/>
<path d="M38 26H39V27H38V26Z" fill="black"/>
<path d="M39 26H40V27H39V26Z" fill="black"/>
<path d="M0 27H1V28H0V27Z" fill="black"/>
<path d="M1 27H2V28H1V27Z" fill="black"/>
<path d="M2 27H3V28H2V27Z" fill="black"/>
<path d="M3 27H4V28H3V27Z" fill="black"/>
<path d="M4 27H5V28H4V27Z" fill="black"/>
<path d="M5 27H6V28H5V27Z" fill="black"/>
<path d="M6 27H7V28H6V27Z" fill="black"/>
<path d="M7 27H8V28H7V27Z" fill="black"/>
<path d="M8 27H9V28H8V27Z" fill="black"/>
<path d="M9 27H10V28H9V27Z" fill="black"/>
<path d="M10 27H11V28H10V27Z" fill="black"/>
<path d="M11 27H12V28H11V27Z" fill="black"/>
<path d="M12 27H13V28H12V27Z" fill="black"/>
<path d="M13 27H14V28H13V27Z" fill="black"/>
<path d="M14 27H15V28H14V27Z" fill="black"/>
<path d="M15 27H16V28H15V27Z" fill="black"/>
<path d="M16 27H17V28H16V27Z" fill="black"/>
<path d="M17 27H18V28H17V27Z" fill="black"/>
<path d="M18 27H19V28H18V27Z" fill="black"/>
<path d="M19 27H20V28H19V27Z" fill="black"/>
<path d="M20 27H21V28H20V27Z" fill="black"/>
<path d="M21 27H22V28H21V27Z" fill="black"/>
<path d="M22 27H23V28H22V27Z" fill="black"/>
<path d="M23 27H24V28H23V27Z" fill="black"/>
<path d="M24 27H25V28H24V27Z" fill="black"/>
<path d="M25 27H26V28H25V27Z" fill="black"/>
<path d="M26 27H27V28H26V27Z" fill="black"/>
<path d="M27 27H28V28H27V27Z" fill="black"/>
<path d="M28 27H29V28H28V27Z" fill="black"/>
<path d="M29 27H30V28H29V27Z" fill="black"/>
<path d="M30 27H31V28H30V27Z" fill="black"/>
<path d="M31 27H32V28H31V27Z" fill="black"/>
<path d="M32 27H33V28H32V27Z" fill="black"/>
<path d="M33 27H34V28H33V27Z" fill="black"/>
<path d="M34 27H35V28H34V27Z" fill="black"/>
<path d="M35 27H36V28H35V27Z" fill="black"/>
<path d="M36 27H37V28H36V27Z" fill="black"/>
<path d="M37 27H38V28H37V27Z" fill="black"/>
<path d="M38 27H39V28H38V27Z" fill="black"/>
<path d="M39 27H40V28H39V27Z" fill="black"/>
<path d="M0 28H1V29H0V28Z" fill="black"/>
<path d="M1 28H2V29H1V28Z" fill="black"/>
<path d="M2 28H3V29H2V28Z" fill="black"/>
<path d="M3 28H4V29H3V28Z" fill="black"/>
<path d="M4 28H5V29H4V28Z" fill="black"/>
<path d="M5 28H6V29H5V28Z" fill="black"/>
<path d="M6 28H7V29H6V28Z" fill="black"/>
<path d="M7 28H8V29H7V28Z" fill="black"/>
<path d="M8 28H9V29H8V28Z" fill="black"/>
<path d="M9 28H10V29H9V28Z" fill="black"/>
<path d="M10 28H11V29H10V28Z" fill="black"/>
<path d="M11 28H12V29H11V28Z" fill="black"/>
<path d="M12 28H13V29H12V28Z" fill="black"/>
<path d="M13 28H14V29H13V28Z" fill="black"/>
<path d="M14 28H15V29H14V28Z" fill="black"/>
<path d="M15 28H16V29H15V28Z" fill="black"/>
<path d="M16 28H17V29H16V28Z" fill="black"/>
<path d="M17 28H18V29H17V28Z" fill="black"/>
<path d="M18 28H19V29H18V28Z" fill="black"/>
<path d="M19 28H20V29H19V28Z" fill="black"/>
<path d="M20 28H21V29H20V28Z" fill="black"/>
<path d="M21 28H22V29H21V28Z" fill="black"/>
<path d="M22 28H23V29H22V28Z" fill="black"/>
<path d="M23 28H24V29H23V28Z" fill="black"/>
<path d="M24 28H25V29H24V28Z" fill="black"/>
<path d="M25 28H26V29H25V28Z" fill="black"/>
<path d="M26 28H27V29H26V28Z" fill="black"/>
<path d="M27 28H28V29H27V28Z" fill="black"/>
<path d="M28 28H29V29H28V28Z" fill="black"/>
<path d="M29 28H30V29H29V28Z" fill="black"/>
<path d="M30 28H31V29H30V28Z" fill="black"/>
<path d="M31 28H32V29H31V28Z" fill="black"/>
<path d="M32 28H33V29H32V28Z" fill="black"/>
<path d="M33 28H34V29H33V28Z" fill="black"/>
<path d="M34 28H35V29H34V28Z" fill="black"/>
<path d="M35 28H36V29H35V28Z" fill="black"/>
<path d="M36 28H37V29H36V28Z" fill="black"/>
<path d="M37 28H38V29H37V28Z" fill="black"/>
<path d="M38 28H39V29H38V28Z" fill="black"/>
<path d="M39 28H40V29H39V28Z" fill="black"/>
<path d="M0 29H1V30H0V29Z" fill="black"/>
<path d="M1 29H2V30H1V29Z" fill="black"/>
<path d="M2 29H3V30H2V29Z" fill="black"/>
<path d="M3 29H4V30H3V29Z" fill="black"/>
<path d="M4 29H5V30H4V29Z" fill="black"/>
<path d="M5 29H6V30H5V29Z" fill="black"/>
<path d="M6 29H7V30H6V29Z" fill="black"/>
<path d="M7 29H8V30H7V29Z" fill="black"/>
<path d="M8 29H9V30H8V29Z" fill="black"/>
<path d="M9 29H10V30H9V29Z" fill="black"/>
<path d="M10 29H11V30H10V29Z" fill="black"/>
<path d="M11 29H12V30H11V29Z" fill="black"/>
<path d="M12 29H13V30H12V29Z" fill="black"/>
<path d="M13 29H14V30H13V29Z" fill="black"/>
<path d="M14 29H15V30H14V29Z" fill="black"/>
<path d="M15 29H16V30H15V29Z" fill="black"/>
<path d="M16 29H17V30H16V29Z" fill="black"/>
<path d="M17 29H18V30H17V29Z" fill="black"/>
<path d="M18 29H19V30H18V29Z" fill="black"/>
<path d="M19 29H20V30H19V29Z" fill="black"/>
<path d="M20 29H21V30H20V29Z" fill="black"/>
<path d="M21 29H22V30H21V29Z" fill="black"/>
<path d="M22 29H23V30H22V29Z" fill="black"/>
<path d="M23 29H24V30H23V29Z" fill="black"/>
<path d="M24 29H25V30H24V29Z" fill="black"/>
<path d="M25 29H26V30H25V29Z" fill="black"/>
<path d="M26 29H27V30H26V29Z" fill="black"/>
<path d="M27 29H28V30H27V29Z" fill="black"/>
<path d="M28 29H29V30H28V29Z" fill="black"/>
<path d="M29 29H30V30H29V29Z" fill="black"/>
<path d="M30 29H31V30H30V29Z" fill="black"/>
<path d="M31 29H32V30H31V29Z" fill="black"/>
<path d="M32 29H33V30H32V29Z" fill="black"/>
<path d="M33 29H34V30H33V29Z" fill="black"/>
<path d="M34 29H35V30H34V29Z" fill="black"/>
<path d="M35 29H36V30H35V29Z" fill="black"/>
<path d="M36 29H37V30H36V29Z" fill="black"/>
<path d="M37 29H38V30H37V29Z" fill="black"/>
<path d="M38 29H39V30H38V29Z" fill="black"/>
<path d="M39 29H40V30H39V29Z" fill="black"/>
<path d="M0 30H1V31H0V30Z" fill="black"/>
<path d="M1 30H2V31H1V30Z" fill="black"/>
<path d="M2 30H3V31H2V30Z" fill="black"/>
<path d="M3 30H4V31H3V30Z" fill="black"/>
<path d="M4 30H5V31H4V30Z" fill="black"/>
<path d="M5 30H6V31H5V30Z" fill="black"/>
<path d="M6 30H7V31H6V30Z" fill="black"/>
<path d="M7 30H8V31H7V30Z" fill="black"/>
<path d="M8 30H9V31H8V30Z" fill="black"/>
<path d="M9 30H10V31H9V30Z" fill="black"/>
<path d="M10 30H11V31H10V30Z" fill="black"/>
<path d="M11 30H12V31H11V30Z" fill="black"/>
<path d="M12 30H13V31H12V30Z" fill="black"/>
<path d="M13 30H14V31H13V30Z" fill="black"/>
<path d="M14 30H15V31H14V30Z" fill="black"/>
<path d="M15 30H16V31H15V30Z" fill="black"/>
<path d="M16 30H17V31H16V30Z" fill="black"/>
<path d="M17 30H18V31H17V30Z" fill="black"/>
<path d="M18 30H19V31H18V30Z" fill="black"/>
<path d="M19 30H20V31H19V30Z" fill="black"/>
<path d="M20 30H21V31H20V30Z" fill="black"/>
<path d="M21 30H22V31H21V30Z" fill="black"/>
<path d="M22 30H23V31H22V30Z" fill="black"/>
<path d="M23 30H24V31H23V30Z" fill="black"/>
<path d="M24 30H25V31H24V30Z" fill="black"/>
<path d="M25 30H26V31H25V30Z" fill="black"/>
<path d="M26 30H27V31H26V30Z" fill="black"/>
<path d="M27 30H28V31H27V30Z" fill="black"/>
<path d="M28 30H29V31H28V30Z" fill="black"/>
<path d="M29 30H30V31H29V30Z" fill="black"/>
<path d="M30 30H31V31H30V30Z" fill="black"/>
<path d="M31 30H32V31H31V30Z" fill="black"/>
<path d="M32 30H33V31H32V30Z" fill="black"/>
<path d="M33 30H34V31H33V30Z" fill="black"/>
<path d="M34 30H35V31H34V30Z" fill="black"/>
<path d="M35 30H36V31H35V30Z" fill="black"/>
<path d="M36 30H37V31H36V30Z" fill="black"/>
<path d="M37 30H38V31H37V30Z" fill="black"/>
<path d="M38 30H39V31H38V30Z" fill="black"/>
<path d="M39 30H40V31H39V30Z" fill="black"/>
<path d="M1 31H2V32H1V31Z" fill="black"/>
<path d="M2 31H3V32H2V31Z" fill="black"/>
<path d="M3 31H4V32H3V31Z" fill="black"/>
<path d="M4 31H5V32H4V31Z" fill="black"/>
<path d="M5 31H6V32H5V31Z" fill="black"/>
<path d="M6 31H7V32H6V31Z" fill="black"/>
<path d="M7 31H8V32H7V31Z" fill="black"/>
<path d="M8 31H9V32H8V31Z" fill="black"/>
<path d="M9 31H10V32H9V31Z" fill="black"/>
<path d="M10 31H11V32H10V31Z" fill="black"/>
<path d="M11 31H12V32H11V31Z" fill="black"/>
<path d="M12 31H13V32H12V31Z" fill="black"/>
<path d="M13 31H14V32H13V31Z" fill="black"/>
<path d="M14 31H15V32H14V31Z" fill="black"/>
<path d="M15 31H16V32H15V31Z" fill="black"/>
<path d="M16 31H17V32H16V31Z" fill="black"/>
<path d="M17 31H18V32H17V31Z" fill="black"/>
<path d="M18 31H19V32H18V31Z" fill="black"/>
<path d="M19 31H20V32H19V31Z" fill="black"/>
<path d="M20 31H21V32H20V31Z" fill="black"/>
<path d="M21 31H22V32H21V31Z" fill="black"/>
<path d="M22 31H23V32H22V31Z" fill="black"/>
<path d="M23 31H24V32H23V31Z" fill="black"/>
<path d="M24 31H25V32H24V31Z" fill="black"/>
<path d="M25 31H26V32H25V31Z" fill="black"/>
<path d="M26 31H27V32H26V31Z" fill="black"/>
<path d="M27 31H28V32H27V31Z" fill="black"/>
<path d="M28 31H29V32H28V31Z" fill="black"/>
<path d="M29 31H30V32H29V31Z" fill="black"/>
<path d="M30 31H31V32H30V31Z" fill="black"/>
<path d="M31 31H32V32H31V31Z" fill="black"/>
<path d="M32 31H33V32H32V31Z" fill="black"/>
<path d="M33 31H34V32H33V31Z" fill="black"/>
<path d="M34 31H35V32H34V31Z" fill="black"/>
<path d="M35 31H36V32H35V31Z" fill="black"/>
<path d="M36 31H37V32H36V31Z" fill="black"/>
<path d="M37 31H38V32H37V31Z" fill="black"/>
<path d="M38 31H39V32H38V31Z" fill="black"/>
</svg>
