<svg width="29" height="28" viewBox="0 0 29 28" fill="none" xmlns="http://www.w3.org/2000/svg">
<path d="M9.96875 0H10.875V0.933333H9.96875V0Z" fill="black"/>
<path d="M10.875 0H11.7812V0.933333H10.875V0Z" fill="black"/>
<path d="M11.7812 0H12.6875V0.933333H11.7812V0Z" fill="black"/>
<path d="M12.6875 0H13.5938V0.933333H12.6875V0Z" fill="black"/>
<path d="M13.5938 0H14.5V0.933333H13.5938V0Z" fill="black"/>
<path d="M14.5 0H15.4062V0.933333H14.5V0Z" fill="black"/>
<path d="M15.4062 0H16.3125V0.933333H15.4062V0Z" fill="black"/>
<path d="M16.3125 0H17.2188V0.933333H16.3125V0Z" fill="black"/>
<path d="M17.2188 0H18.125V0.933333H17.2188V0Z" fill="black"/>
<path d="M18.125 0H19.0312V0.933333H18.125V0Z" fill="black"/>
<path d="M19.0312 0H19.9375V0.933333H19.0312V0Z" fill="black"/>
<path d="M7.25 0.933333H8.15625V1.86667H7.25V0.933333Z" fill="black"/>
<path d="M8.15625 0.933333H9.0625V1.86667H8.15625V0.933333Z" fill="black"/>
<path d="M9.0625 0.933333H9.96875V1.86667H9.0625V0.933333Z" fill="black"/>
<path d="M9.96875 0.933333H10.875V1.86667H9.96875V0.933333Z" fill="black"/>
<path d="M10.875 0.933333H11.7812V1.86667H10.875V0.933333Z" fill="black"/>
<path d="M11.7812 0.933333H12.6875V1.86667H11.7812V0.933333Z" fill="black"/>
<path d="M12.6875 0.933333H13.5938V1.86667H12.6875V0.933333Z" fill="black"/>
<path d="M13.5938 0.933333H14.5V1.86667H13.5938V0.933333Z" fill="black"/>
<path d="M14.5 0.933333H15.4062V1.86667H14.5V0.933333Z" fill="black"/>
<path d="M15.4062 0.933333H16.3125V1.86667H15.4062V0.933333Z" fill="black"/>
<path d="M16.3125 0.933333H17.2188V1.86667H16.3125V0.933333Z" fill="black"/>
<path d="M17.2188 0.933333H18.125V1.86667H17.2188V0.933333Z" fill="black"/>
<path d="M18.125 0.933333H19.0312V1.86667H18.125V0.933333Z" fill="black"/>
<path d="M19.0312 0.933333H19.9375V1.86667H19.0312V0.933333Z" fill="black"/>
<path d="M19.9375 0.933333H20.8438V1.86667H19.9375V0.933333Z" fill="black"/>
<path d="M20.8438 0.933333H21.75V1.86667H20.8438V0.933333Z" fill="black"/>
<path d="M6.34375 1.86667H7.25V2.8H6.34375V1.86667Z" fill="black"/>
<path d="M7.25 1.86667H8.15625V2.8H7.25V1.86667Z" fill="black"/>
<path d="M8.15625 1.86667H9.0625V2.8H8.15625V1.86667Z" fill="black"/>
<path d="M9.0625 1.86667H9.96875V2.8H9.0625V1.86667Z" fill="black"/>
<path d="M9.96875 1.86667H10.875V2.8H9.96875V1.86667Z" fill="black"/>
<path d="M10.875 1.86667H11.7812V2.8H10.875V1.86667Z" fill="black"/>
<path d="M11.7812 1.86667H12.6875V2.8H11.7812V1.86667Z" fill="black"/>
<path d="M12.6875 1.86667H13.5938V2.8H12.6875V1.86667Z" fill="black"/>
<path d="M13.5938 1.86667H14.5V2.8H13.5938V1.86667Z" fill="black"/>
<path d="M14.5 1.86667H15.4062V2.8H14.5V1.86667Z" fill="black"/>
<path d="M15.4062 1.86667H16.3125V2.8H15.4062V1.86667Z" fill="black"/>
<path d="M16.3125 1.86667H17.2188V2.8H16.3125V1.86667Z" fill="black"/>
<path d="M17.2188 1.86667H18.125V2.8H17.2188V1.86667Z" fill="black"/>
<path d="M18.125 1.86667H19.0312V2.8H18.125V1.86667Z" fill="black"/>
<path d="M19.0312 1.86667H19.9375V2.8H19.0312V1.86667Z" fill="black"/>
<path d="M19.9375 1.86667H20.8438V2.8H19.9375V1.86667Z" fill="black"/>
<path d="M20.8438 1.86667H21.75V2.8H20.8438V1.86667Z" fill="black"/>
<path d="M21.75 1.86667H22.6562V2.8H21.75V1.86667Z" fill="black"/>
<path d="M5.4375 2.8H6.34375V3.73333H5.4375V2.8Z" fill="black"/>
<path d="M6.34375 2.8H7.25V3.73333H6.34375V2.8Z" fill="black"/>
<path d="M7.25 2.8H8.15625V3.73333H7.25V2.8Z" fill="black"/>
<path d="M8.15625 2.8H9.0625V3.73333H8.15625V2.8Z" fill="black"/>
<path d="M9.0625 2.8H9.96875V3.73333H9.0625V2.8Z" fill="black"/>
<path d="M9.96875 2.8H10.875V3.73333H9.96875V2.8Z" fill="black"/>
<path d="M10.875 2.8H11.7812V3.73333H10.875V2.8Z" fill="black"/>
<path d="M11.7812 2.8H12.6875V3.73333H11.7812V2.8Z" fill="black"/>
<path d="M12.6875 2.8H13.5938V3.73333H12.6875V2.8Z" fill="black"/>
<path d="M13.5938 2.8H14.5V3.73333H13.5938V2.8Z" fill="black"/>
<path d="M14.5 2.8H15.4062V3.73333H14.5V2.8Z" fill="black"/>
<path d="M15.4062 2.8H16.3125V3.73333H15.4062V2.8Z" fill="black"/>
<path d="M16.3125 2.8H17.2188V3.73333H16.3125V2.8Z" fill="black"/>
<path d="M17.2188 2.8H18.125V3.73333H17.2188V2.8Z" fill="black"/>
<path d="M18.125 2.8H19.0312V3.73333H18.125V2.8Z" fill="black"/>
<path d="M19.0312 2.8H19.9375V3.73333H19.0312V2.8Z" fill="black"/>
<path d="M19.9375 2.8H20.8438V3.73333H19.9375V2.8Z" fill="black"/>
<path d="M20.8438 2.8H21.75V3.73333H20.8438V2.8Z" fill="black"/>
<path d="M21.75 2.8H22.6562V3.73333H21.75V2.8Z" fill="black"/>
<path d="M22.6562 2.8H23.5625V3.73333H22.6562V2.8Z" fill="black"/>
<path d="M23.5625 2.8H24.4688V3.73333H23.5625V2.8Z" fill="black"/>
<path d="M4.53125 3.73333H5.4375V4.66667H4.53125V3.73333Z" fill="black"/>
<path d="M5.4375 3.73333H6.34375V4.66667H5.4375V3.73333Z" fill="black"/>
<path d="M6.34375 3.73333H7.25V4.66667H6.34375V3.73333Z" fill="black"/>
<path d="M7.25 3.73333H8.15625V4.66667H7.25V3.73333Z" fill="black"/>
<path d="M8.15625 3.73333H9.0625V4.66667H8.15625V3.73333Z" fill="black"/>
<path d="M9.0625 3.73333H9.96875V4.66667H9.0625V3.73333Z" fill="black"/>
<path d="M9.96875 3.73333H10.875V4.66667H9.96875V3.73333Z" fill="black"/>
<path d="M10.875 3.73333H11.7812V4.66667H10.875V3.73333Z" fill="black"/>
<path d="M11.7812 3.73333H12.6875V4.66667H11.7812V3.73333Z" fill="black"/>
<path d="M12.6875 3.73333H13.5938V4.66667H12.6875V3.73333Z" fill="black"/>
<path d="M13.5938 3.73333H14.5V4.66667H13.5938V3.73333Z" fill="black"/>
<path d="M14.5 3.73333H15.4062V4.66667H14.5V3.73333Z" fill="black"/>
<path d="M15.4062 3.73333H16.3125V4.66667H15.4062V3.73333Z" fill="black"/>
<path d="M16.3125 3.73333H17.2188V4.66667H16.3125V3.73333Z" fill="black"/>
<path d="M17.2188 3.73333H18.125V4.66667H17.2188V3.73333Z" fill="black"/>
<path d="M18.125 3.73333H19.0312V4.66667H18.125V3.73333Z" fill="black"/>
<path d="M19.0312 3.73333H19.9375V4.66667H19.0312V3.73333Z" fill="black"/>
<path d="M19.9375 3.73333H20.8438V4.66667H19.9375V3.73333Z" fill="black"/>
<path d="M20.8438 3.73333H21.75V4.66667H20.8438V3.73333Z" fill="black"/>
<path d="M21.75 3.73333H22.6562V4.66667H21.75V3.73333Z" fill="black"/>
<path d="M22.6562 3.73333H23.5625V4.66667H22.6562V3.73333Z" fill="black"/>
<path d="M23.5625 3.73333H24.4688V4.66667H23.5625V3.73333Z" fill="black"/>
<path d="M24.4688 3.73333H25.375V4.66667H24.4688V3.73333Z" fill="black"/>
<path d="M3.625 4.66667H4.53125V5.6H3.625V4.66667Z" fill="black"/>
<path d="M4.53125 4.66667H5.4375V5.6H4.53125V4.66667Z" fill="black"/>
<path d="M5.4375 4.66667H6.34375V5.6H5.4375V4.66667Z" fill="black"/>
<path d="M6.34375 4.66667H7.25V5.6H6.34375V4.66667Z" fill="black"/>
<path d="M7.25 4.66667H8.15625V5.6H7.25V4.66667Z" fill="black"/>
<path d="M8.15625 4.66667H9.0625V5.6H8.15625V4.66667Z" fill="black"/>
<path d="M9.0625 4.66667H9.96875V5.6H9.0625V4.66667Z" fill="black"/>
<path d="M9.96875 4.66667H10.875V5.6H9.96875V4.66667Z" fill="black"/>
<path d="M10.875 4.66667H11.7812V5.6H10.875V4.66667Z" fill="black"/>
<path d="M11.7812 4.66667H12.6875V5.6H11.7812V4.66667Z" fill="black"/>
<path d="M12.6875 4.66667H13.5938V5.6H12.6875V4.66667Z" fill="black"/>
<path d="M13.5938 4.66667H14.5V5.6H13.5938V4.66667Z" fill="black"/>
<path d="M14.5 4.66667H15.4062V5.6H14.5V4.66667Z" fill="black"/>
<path d="M15.4062 4.66667H16.3125V5.6H15.4062V4.66667Z" fill="black"/>
<path d="M16.3125 4.66667H17.2188V5.6H16.3125V4.66667Z" fill="black"/>
<path d="M17.2188 4.66667H18.125V5.6H17.2188V4.66667Z" fill="black"/>
<path d="M18.125 4.66667H19.0312V5.6H18.125V4.66667Z" fill="black"/>
<path d="M19.0312 4.66667H19.9375V5.6H19.0312V4.66667Z" fill="black"/>
<path d="M19.9375 4.66667H20.8438V5.6H19.9375V4.66667Z" fill="black"/>
<path d="M20.8438 4.66667H21.75V5.6H20.8438V4.66667Z" fill="black"/>
<path d="M21.75 4.66667H22.6562V5.6H21.75V4.66667Z" fill="black"/>
<path d="M22.6562 4.66667H23.5625V5.6H22.6562V4.66667Z" fill="black"/>
<path d="M23.5625 4.66667H24.4688V5.6H23.5625V4.66667Z" fill="black"/>
<path d="M24.4688 4.66667H25.375V5.6H24.4688V4.66667Z" fill="black"/>
<path d="M2.71875 5.6H3.625V6.53333H2.71875V5.6Z" fill="black"/>
<path d="M3.625 5.6H4.53125V6.53333H3.625V5.6Z" fill="black"/>
<path d="M4.53125 5.6H5.4375V6.53333H4.53125V5.6Z" fill="black"/>
<path d="M5.4375 5.6H6.34375V6.53333H5.4375V5.6Z" fill="black"/>
<path d="M6.34375 5.6H7.25V6.53333H6.34375V5.6Z" fill="black"/>
<path d="M9.0625 5.6H9.96875V6.53333H9.0625V5.6Z" fill="black"/>
<path d="M9.96875 5.6H10.875V6.53333H9.96875V5.6Z" fill="black"/>
<path d="M10.875 5.6H11.7812V6.53333H10.875V5.6Z" fill="black"/>
<path d="M11.7812 5.6H12.6875V6.53333H11.7812V5.6Z" fill="black"/>
<path d="M12.6875 5.6H13.5938V6.53333H12.6875V5.6Z" fill="black"/>
<path d="M13.5938 5.6H14.5V6.53333H13.5938V5.6Z" fill="black"/>
<path d="M14.5 5.6H15.4062V6.53333H14.5V5.6Z" fill="black"/>
<path d="M15.4062 5.6H16.3125V6.53333H15.4062V5.6Z" fill="black"/>
<path d="M16.3125 5.6H17.2188V6.53333H16.3125V5.6Z" fill="black"/>
<path d="M17.2188 5.6H18.125V6.53333H17.2188V5.6Z" fill="black"/>
<path d="M18.125 5.6H19.0312V6.53333H18.125V5.6Z" fill="black"/>
<path d="M19.0312 5.6H19.9375V6.53333H19.0312V5.6Z" fill="black"/>
<path d="M21.75 5.6H22.6562V6.53333H21.75V5.6Z" fill="black"/>
<path d="M22.6562 5.6H23.5625V6.53333H22.6562V5.6Z" fill="black"/>
<path d="M23.5625 5.6H24.4688V6.53333H23.5625V5.6Z" fill="black"/>
<path d="M24.4688 5.6H25.375V6.53333H24.4688V5.6Z" fill="black"/>
<path d="M25.375 5.6H26.2812V6.53333H25.375V5.6Z" fill="black"/>
<path d="M1.8125 6.53333H2.71875V7.46667H1.8125V6.53333Z" fill="black"/>
<path d="M2.71875 6.53333H3.625V7.46667H2.71875V6.53333Z" fill="black"/>
<path d="M3.625 6.53333H4.53125V7.46667H3.625V6.53333Z" fill="black"/>
<path d="M4.53125 6.53333H5.4375V7.46667H4.53125V6.53333Z" fill="black"/>
<path d="M5.4375 6.53333H6.34375V7.46667H5.4375V6.53333Z" fill="black"/>
<path d="M22.6562 6.53333H23.5625V7.46667H22.6562V6.53333Z" fill="black"/>
<path d="M23.5625 6.53333H24.4688V7.46667H23.5625V6.53333Z" fill="black"/>
<path d="M24.4688 6.53333H25.375V7.46667H24.4688V6.53333Z" fill="black"/>
<path d="M25.375 6.53333H26.2812V7.46667H25.375V6.53333Z" fill="black"/>
<path d="M26.2812 6.53333H27.1875V7.46667H26.2812V6.53333Z" fill="black"/>
<path d="M1.8125 7.46667H2.71875V8.4H1.8125V7.46667Z" fill="black"/>
<path d="M2.71875 7.46667H3.625V8.4H2.71875V7.46667Z" fill="black"/>
<path d="M3.625 7.46667H4.53125V8.4H3.625V7.46667Z" fill="black"/>
<path d="M4.53125 7.46667H5.4375V8.4H4.53125V7.46667Z" fill="black"/>
<path d="M5.4375 7.46667H6.34375V8.4H5.4375V7.46667Z" fill="black"/>
<path d="M22.6562 7.46667H23.5625V8.4H22.6562V7.46667Z" fill="black"/>
<path d="M23.5625 7.46667H24.4688V8.4H23.5625V7.46667Z" fill="black"/>
<path d="M24.4688 7.46667H25.375V8.4H24.4688V7.46667Z" fill="black"/>
<path d="M25.375 7.46667H26.2812V8.4H25.375V7.46667Z" fill="black"/>
<path d="M26.2812 7.46667H27.1875V8.4H26.2812V7.46667Z" fill="black"/>
<path d="M0.90625 8.4H1.8125V9.33333H0.90625V8.4Z" fill="black"/>
<path d="M1.8125 8.4H2.71875V9.33333H1.8125V8.4Z" fill="black"/>
<path d="M2.71875 8.4H3.625V9.33333H2.71875V8.4Z" fill="black"/>
<path d="M3.625 8.4H4.53125V9.33333H3.625V8.4Z" fill="black"/>
<path d="M4.53125 8.4H5.4375V9.33333H4.53125V8.4Z" fill="black"/>
<path d="M5.4375 8.4H6.34375V9.33333H5.4375V8.4Z" fill="black"/>
<path d="M6.34375 8.4H7.25V9.33333H6.34375V8.4Z" fill="black"/>
<path d="M22.6562 8.4H23.5625V9.33333H22.6562V8.4Z" fill="black"/>
<path d="M23.5625 8.4H24.4688V9.33333H23.5625V8.4Z" fill="black"/>
<path d="M24.4688 8.4H25.375V9.33333H24.4688V8.4Z" fill="black"/>
<path d="M25.375 8.4H26.2812V9.33333H25.375V8.4Z" fill="black"/>
<path d="M26.2812 8.4H27.1875V9.33333H26.2812V8.4Z" fill="black"/>
<path d="M27.1875 8.4H28.0938V9.33333H27.1875V8.4Z" fill="black"/>
<path d="M0.90625 9.33333H1.8125V10.2667H0.90625V9.33333Z" fill="black"/>
<path d="M1.8125 9.33333H2.71875V10.2667H1.8125V9.33333Z" fill="black"/>
<path d="M2.71875 9.33333H3.625V10.2667H2.71875V9.33333Z" fill="black"/>
<path d="M3.625 9.33333H4.53125V10.2667H3.625V9.33333Z" fill="black"/>
<path d="M4.53125 9.33333H5.4375V10.2667H4.53125V9.33333Z" fill="black"/>
<path d="M5.4375 9.33333H6.34375V10.2667H5.4375V9.33333Z" fill="black"/>
<path d="M22.6562 9.33333H23.5625V10.2667H22.6562V9.33333Z" fill="black"/>
<path d="M23.5625 9.33333H24.4688V10.2667H23.5625V9.33333Z" fill="black"/>
<path d="M24.4688 9.33333H25.375V10.2667H24.4688V9.33333Z" fill="black"/>
<path d="M25.375 9.33333H26.2812V10.2667H25.375V9.33333Z" fill="black"/>
<path d="M26.2812 9.33333H27.1875V10.2667H26.2812V9.33333Z" fill="black"/>
<path d="M27.1875 9.33333H28.0938V10.2667H27.1875V9.33333Z" fill="black"/>
<path d="M0.90625 10.2667H1.8125V11.2H0.90625V10.2667Z" fill="black"/>
<path d="M1.8125 10.2667H2.71875V11.2H1.8125V10.2667Z" fill="black"/>
<path d="M2.71875 10.2667H3.625V11.2H2.71875V10.2667Z" fill="black"/>
<path d="M3.625 10.2667H4.53125V11.2H3.625V10.2667Z" fill="black"/>
<path d="M4.53125 10.2667H5.4375V11.2H4.53125V10.2667Z" fill="black"/>
<path d="M5.4375 10.2667H6.34375V11.2H5.4375V10.2667Z" fill="black"/>
<path d="M22.6562 10.2667H23.5625V11.2H22.6562V10.2667Z" fill="black"/>
<path d="M23.5625 10.2667H24.4688V11.2H23.5625V10.2667Z" fill="black"/>
<path d="M24.4688 10.2667H25.375V11.2H24.4688V10.2667Z" fill="black"/>
<path d="M25.375 10.2667H26.2812V11.2H25.375V10.2667Z" fill="black"/>
<path d="M26.2812 10.2667H27.1875V11.2H26.2812V10.2667Z" fill="black"/>
<path d="M27.1875 10.2667H28.0938V11.2H27.1875V10.2667Z" fill="black"/>
<path d="M0.90625 11.2H1.8125V12.1333H0.90625V11.2Z" fill="black"/>
<path d="M1.8125 11.2H2.71875V12.1333H1.8125V11.2Z" fill="black"/>
<path d="M2.71875 11.2H3.625V12.1333H2.71875V11.2Z" fill="black"/>
<path d="M3.625 11.2H4.53125V12.1333H3.625V11.2Z" fill="black"/>
<path d="M4.53125 11.2H5.4375V12.1333H4.53125V11.2Z" fill="black"/>
<path d="M23.5625 11.2H24.4688V12.1333H23.5625V11.2Z" fill="black"/>
<path d="M24.4688 11.2H25.375V12.1333H24.4688V11.2Z" fill="black"/>
<path d="M25.375 11.2H26.2812V12.1333H25.375V11.2Z" fill="black"/>
<path d="M26.2812 11.2H27.1875V12.1333H26.2812V11.2Z" fill="black"/>
<path d="M27.1875 11.2H28.0938V12.1333H27.1875V11.2Z" fill="black"/>
<path d="M28.0938 11.2H29V12.1333H28.0938V11.2Z" fill="black"/>
<path d="M0.90625 12.1333H1.8125V13.0667H0.90625V12.1333Z" fill="black"/>
<path d="M1.8125 12.1333H2.71875V13.0667H1.8125V12.1333Z" fill="black"/>
<path d="M2.71875 12.1333H3.625V13.0667H2.71875V12.1333Z" fill="black"/>
<path d="M3.625 12.1333H4.53125V13.0667H3.625V12.1333Z" fill="black"/>
<path d="M4.53125 12.1333H5.4375V13.0667H4.53125V12.1333Z" fill="black"/>
<path d="M23.5625 12.1333H24.4688V13.0667H23.5625V12.1333Z" fill="black"/>
<path d="M24.4688 12.1333H25.375V13.0667H24.4688V12.1333Z" fill="black"/>
<path d="M25.375 12.1333H26.2812V13.0667H25.375V12.1333Z" fill="black"/>
<path d="M26.2812 12.1333H27.1875V13.0667H26.2812V12.1333Z" fill="black"/>
<path d="M27.1875 12.1333H28.0938V13.0667H27.1875V12.1333Z" fill="black"/>
<path d="M28.0938 12.1333H29V13.0667H28.0938V12.1333Z" fill="black"/>
<path d="M0 13.0667H0.90625V14H0V13.0667Z" fill="black"/>
<path d="M0.90625 13.0667H1.8125V14H0.90625V13.0667Z" fill="black"/>
<path d="M1.8125 13.0667H2.71875V14H1.8125V13.0667Z" fill="black"/>
<path d="M2.71875 13.0667H3.625V14H2.71875V13.0667Z" fill="black"/>
<path d="M3.625 13.0667H4.53125V14H3.625V13.0667Z" fill="black"/>
<path d="M4.53125 13.0667H5.4375V14H4.53125V13.0667Z" fill="black"/>
<path d="M23.5625 13.0667H24.4688V14H23.5625V13.0667Z" fill="black"/>
<path d="M24.4688 13.0667H25.375V14H24.4688V13.0667Z" fill="black"/>
<path d="M25.375 13.0667H26.2812V14H25.375V13.0667Z" fill="black"/>
<path d="M26.2812 13.0667H27.1875V14H26.2812V13.0667Z" fill="black"/>
<path d="M27.1875 13.0667H28.0938V14H27.1875V13.0667Z" fill="black"/>
<path d="M28.0938 13.0667H29V14H28.0938V13.0667Z" fill="black"/>
<path d="M0 14H0.90625V14.9333H0V14Z" fill="black"/>
<path d="M0.90625 14H1.8125V14.9333H0.90625V14Z" fill="black"/>
<path d="M1.8125 14H2.71875V14.9333H1.8125V14Z" fill="black"/>
<path d="M2.71875 14H3.625V14.9333H2.71875V14Z" fill="black"/>
<path d="M3.625 14H4.53125V14.9333H3.625V14Z" fill="black"/>
<path d="M4.53125 14H5.4375V14.9333H4.53125V14Z" fill="black"/>
<path d="M23.5625 14H24.4688V14.9333H23.5625V14Z" fill="black"/>
<path d="M24.4688 14H25.375V14.9333H24.4688V14Z" fill="black"/>
<path d="M25.375 14H26.2812V14.9333H25.375V14Z" fill="black"/>
<path d="M26.2812 14H27.1875V14.9333H26.2812V14Z" fill="black"/>
<path d="M27.1875 14H28.0938V14.9333H27.1875V14Z" fill="black"/>
<path d="M28.0938 14H29V14.9333H28.0938V14Z" fill="black"/>
<path d="M0.90625 14.9333H1.8125V15.8667H0.90625V14.9333Z" fill="black"/>
<path d="M1.8125 14.9333H2.71875V15.8667H1.8125V14.9333Z" fill="black"/>
<path d="M2.71875 14.9333H3.625V15.8667H2.71875V14.9333Z" fill="black"/>
<path d="M3.625 14.9333H4.53125V15.8667H3.625V14.9333Z" fill="black"/>
<path d="M4.53125 14.9333H5.4375V15.8667H4.53125V14.9333Z" fill="black"/>
<path d="M23.5625 14.9333H24.4688V15.8667H23.5625V14.9333Z" fill="black"/>
<path d="M24.4688 14.9333H25.375V15.8667H24.4688V14.9333Z" fill="black"/>
<path d="M25.375 14.9333H26.2812V15.8667H25.375V14.9333Z" fill="black"/>
<path d="M26.2812 14.9333H27.1875V15.8667H26.2812V14.9333Z" fill="black"/>
<path d="M27.1875 14.9333H28.0938V15.8667H27.1875V14.9333Z" fill="black"/>
<path d="M28.0938 14.9333H29V15.8667H28.0938V14.9333Z" fill="black"/>
<path d="M0.90625 15.8667H1.8125V16.8H0.90625V15.8667Z" fill="black"/>
<path d="M1.8125 15.8667H2.71875V16.8H1.8125V15.8667Z" fill="black"/>
<path d="M2.71875 15.8667H3.625V16.8H2.71875V15.8667Z" fill="black"/>
<path d="M3.625 15.8667H4.53125V16.8H3.625V15.8667Z" fill="black"/>
<path d="M4.53125 15.8667H5.4375V16.8H4.53125V15.8667Z" fill="black"/>
<path d="M5.4375 15.8667H6.34375V16.8H5.4375V15.8667Z" fill="black"/>
<path d="M23.5625 15.8667H24.4688V16.8H23.5625V15.8667Z" fill="black"/>
<path d="M24.4688 15.8667H25.375V16.8H24.4688V15.8667Z" fill="black"/>
<path d="M25.375 15.8667H26.2812V16.8H25.375V15.8667Z" fill="black"/>
<path d="M26.2812 15.8667H27.1875V16.8H26.2812V15.8667Z" fill="black"/>
<path d="M27.1875 15.8667H28.0938V16.8H27.1875V15.8667Z" fill="black"/>
<path d="M28.0938 15.8667H29V16.8H28.0938V15.8667Z" fill="black"/>
<path d="M0.90625 16.8H1.8125V17.7333H0.90625V16.8Z" fill="black"/>
<path d="M1.8125 16.8H2.71875V17.7333H1.8125V16.8Z" fill="black"/>
<path d="M2.71875 16.8H3.625V17.7333H2.71875V16.8Z" fill="black"/>
<path d="M3.625 16.8H4.53125V17.7333H3.625V16.8Z" fill="black"/>
<path d="M4.53125 16.8H5.4375V17.7333H4.53125V16.8Z" fill="black"/>
<path d="M5.4375 16.8H6.34375V17.7333H5.4375V16.8Z" fill="black"/>
<path d="M22.6562 16.8H23.5625V17.7333H22.6562V16.8Z" fill="black"/>
<path d="M23.5625 16.8H24.4688V17.7333H23.5625V16.8Z" fill="black"/>
<path d="M24.4688 16.8H25.375V17.7333H24.4688V16.8Z" fill="black"/>
<path d="M25.375 16.8H26.2812V17.7333H25.375V16.8Z" fill="black"/>
<path d="M26.2812 16.8H27.1875V17.7333H26.2812V16.8Z" fill="black"/>
<path d="M27.1875 16.8H28.0938V17.7333H27.1875V16.8Z" fill="black"/>
<path d="M0.90625 17.7333H1.8125V18.6667H0.90625V17.7333Z" fill="black"/>
<path d="M1.8125 17.7333H2.71875V18.6667H1.8125V17.7333Z" fill="black"/>
<path d="M2.71875 17.7333H3.625V18.6667H2.71875V17.7333Z" fill="black"/>
<path d="M3.625 17.7333H4.53125V18.6667H3.625V17.7333Z" fill="black"/>
<path d="M4.53125 17.7333H5.4375V18.6667H4.53125V17.7333Z" fill="black"/>
<path d="M5.4375 17.7333H6.34375V18.6667H5.4375V17.7333Z" fill="black"/>
<path d="M6.34375 17.7333H7.25V18.6667H6.34375V17.7333Z" fill="black"/>
<path d="M21.75 17.7333H22.6562V18.6667H21.75V17.7333Z" fill="black"/>
<path d="M22.6562 17.7333H23.5625V18.6667H22.6562V17.7333Z" fill="black"/>
<path d="M23.5625 17.7333H24.4688V18.6667H23.5625V17.7333Z" fill="black"/>
<path d="M24.4688 17.7333H25.375V18.6667H24.4688V17.7333Z" fill="black"/>
<path d="M25.375 17.7333H26.2812V18.6667H25.375V17.7333Z" fill="black"/>
<path d="M26.2812 17.7333H27.1875V18.6667H26.2812V17.7333Z" fill="black"/>
<path d="M27.1875 17.7333H28.0938V18.6667H27.1875V17.7333Z" fill="black"/>
<path d="M0.90625 18.6667H1.8125V19.6H0.90625V18.6667Z" fill="black"/>
<path d="M1.8125 18.6667H2.71875V19.6H1.8125V18.6667Z" fill="black"/>
<path d="M2.71875 18.6667H3.625V19.6H2.71875V18.6667Z" fill="black"/>
<path d="M3.625 18.6667H4.53125V19.6H3.625V18.6667Z" fill="black"/>
<path d="M4.53125 18.6667H5.4375V19.6H4.53125V18.6667Z" fill="black"/>
<path d="M5.4375 18.6667H6.34375V19.6H5.4375V18.6667Z" fill="black"/>
<path d="M6.34375 18.6667H7.25V19.6H6.34375V18.6667Z" fill="black"/>
<path d="M7.25 18.6667H8.15625V19.6H7.25V18.6667Z" fill="black"/>
<path d="M20.8438 18.6667H21.75V19.6H20.8438V18.6667Z" fill="black"/>
<path d="M21.75 18.6667H22.6562V19.6H21.75V18.6667Z" fill="black"/>
<path d="M22.6562 18.6667H23.5625V19.6H22.6562V18.6667Z" fill="black"/>
<path d="M23.5625 18.6667H24.4688V19.6H23.5625V18.6667Z" fill="black"/>
<path d="M24.4688 18.6667H25.375V19.6H24.4688V18.6667Z" fill="black"/>
<path d="M25.375 18.6667H26.2812V19.6H25.375V18.6667Z" fill="black"/>
<path d="M26.2812 18.6667H27.1875V19.6H26.2812V18.6667Z" fill="black"/>
<path d="M27.1875 18.6667H28.0938V19.6H27.1875V18.6667Z" fill="black"/>
<path d="M1.8125 19.6H2.71875V20.5333H1.8125V19.6Z" fill="black"/>
<path d="M2.71875 19.6H3.625V20.5333H2.71875V19.6Z" fill="black"/>
<path d="M3.625 19.6H4.53125V20.5333H3.625V19.6Z" fill="black"/>
<path d="M6.34375 19.6H7.25V20.5333H6.34375V19.6Z" fill="black"/>
<path d="M7.25 19.6H8.15625V20.5333H7.25V19.6Z" fill="black"/>
<path d="M8.15625 19.6H9.0625V20.5333H8.15625V19.6Z" fill="black"/>
<path d="M9.0625 19.6H9.96875V20.5333H9.0625V19.6Z" fill="black"/>
<path d="M9.96875 19.6H10.875V20.5333H9.96875V19.6Z" fill="black"/>
<path d="M18.125 19.6H19.0312V20.5333H18.125V19.6Z" fill="black"/>
<path d="M19.0312 19.6H19.9375V20.5333H19.0312V19.6Z" fill="black"/>
<path d="M19.9375 19.6H20.8438V20.5333H19.9375V19.6Z" fill="black"/>
<path d="M20.8438 19.6H21.75V20.5333H20.8438V19.6Z" fill="black"/>
<path d="M21.75 19.6H22.6562V20.5333H21.75V19.6Z" fill="black"/>
<path d="M22.6562 19.6H23.5625V20.5333H22.6562V19.6Z" fill="black"/>
<path d="M23.5625 19.6H24.4688V20.5333H23.5625V19.6Z" fill="black"/>
<path d="M24.4688 19.6H25.375V20.5333H24.4688V19.6Z" fill="black"/>
<path d="M25.375 19.6H26.2812V20.5333H25.375V19.6Z" fill="black"/>
<path d="M26.2812 19.6H27.1875V20.5333H26.2812V19.6Z" fill="black"/>
<path d="M1.8125 20.5333H2.71875V21.4667H1.8125V20.5333Z" fill="black"/>
<path d="M2.71875 20.5333H3.625V21.4667H2.71875V20.5333Z" fill="black"/>
<path d="M3.625 20.5333H4.53125V21.4667H3.625V20.5333Z" fill="black"/>
<path d="M4.53125 20.5333H5.4375V21.4667H4.53125V20.5333Z" fill="black"/>
<path d="M7.25 20.5333H8.15625V21.4667H7.25V20.5333Z" fill="black"/>
<path d="M8.15625 20.5333H9.0625V21.4667H8.15625V20.5333Z" fill="black"/>
<path d="M9.0625 20.5333H9.96875V21.4667H9.0625V20.5333Z" fill="black"/>
<path d="M9.96875 20.5333H10.875V21.4667H9.96875V20.5333Z" fill="black"/>
<path d="M10.875 20.5333H11.7812V21.4667H10.875V20.5333Z" fill="black"/>
<path d="M17.2188 20.5333H18.125V21.4667H17.2188V20.5333Z" fill="black"/>
<path d="M18.125 20.5333H19.0312V21.4667H18.125V20.5333Z" fill="black"/>
<path d="M19.0312 20.5333H19.9375V21.4667H19.0312V20.5333Z" fill="black"/>
<path d="M19.9375 20.5333H20.8438V21.4667H19.9375V20.5333Z" fill="black"/>
<path d="M20.8438 20.5333H21.75V21.4667H20.8438V20.5333Z" fill="black"/>
<path d="M21.75 20.5333H22.6562V21.4667H21.75V20.5333Z" fill="black"/>
<path d="M22.6562 20.5333H23.5625V21.4667H22.6562V20.5333Z" fill="black"/>
<path d="M23.5625 20.5333H24.4688V21.4667H23.5625V20.5333Z" fill="black"/>
<path d="M24.4688 20.5333H25.375V21.4667H24.4688V20.5333Z" fill="black"/>
<path d="M25.375 20.5333H26.2812V21.4667H25.375V20.5333Z" fill="black"/>
<path d="M26.2812 20.5333H27.1875V21.4667H26.2812V20.5333Z" fill="black"/>
<path d="M2.71875 21.4667H3.625V22.4H2.71875V21.4667Z" fill="black"/>
<path d="M3.625 21.4667H4.53125V22.4H3.625V21.4667Z" fill="black"/>
<path d="M4.53125 21.4667H5.4375V22.4H4.53125V21.4667Z" fill="black"/>
<path d="M5.4375 21.4667H6.34375V22.4H5.4375V21.4667Z" fill="black"/>
<path d="M7.25 21.4667H8.15625V22.4H7.25V21.4667Z" fill="black"/>
<path d="M8.15625 21.4667H9.0625V22.4H8.15625V21.4667Z" fill="black"/>
<path d="M9.0625 21.4667H9.96875V22.4H9.0625V21.4667Z" fill="black"/>
<path d="M9.96875 21.4667H10.875V22.4H9.96875V21.4667Z" fill="black"/>
<path d="M18.125 21.4667H19.0312V22.4H18.125V21.4667Z" fill="black"/>
<path d="M19.0312 21.4667H19.9375V22.4H19.0312V21.4667Z" fill="black"/>
<path d="M19.9375 21.4667H20.8438V22.4H19.9375V21.4667Z" fill="black"/>
<path d="M20.8438 21.4667H21.75V22.4H20.8438V21.4667Z" fill="black"/>
<path d="M21.75 21.4667H22.6562V22.4H21.75V21.4667Z" fill="black"/>
<path d="M22.6562 21.4667H23.5625V22.4H22.6562V21.4667Z" fill="black"/>
<path d="M23.5625 21.4667H24.4688V22.4H23.5625V21.4667Z" fill="black"/>
<path d="M24.4688 21.4667H25.375V22.4H24.4688V21.4667Z" fill="black"/>
<path d="M25.375 21.4667H26.2812V22.4H25.375V21.4667Z" fill="black"/>
<path d="M3.625 22.4H4.53125V23.3333H3.625V22.4Z" fill="black"/>
<path d="M4.53125 22.4H5.4375V23.3333H4.53125V22.4Z" fill="black"/>
<path d="M5.4375 22.4H6.34375V23.3333H5.4375V22.4Z" fill="black"/>
<path d="M18.125 22.4H19.0312V23.3333H18.125V22.4Z" fill="black"/>
<path d="M19.0312 22.4H19.9375V23.3333H19.0312V22.4Z" fill="black"/>
<path d="M19.9375 22.4H20.8438V23.3333H19.9375V22.4Z" fill="black"/>
<path d="M20.8438 22.4H21.75V23.3333H20.8438V22.4Z" fill="black"/>
<path d="M21.75 22.4H22.6562V23.3333H21.75V22.4Z" fill="black"/>
<path d="M22.6562 22.4H23.5625V23.3333H22.6562V22.4Z" fill="black"/>
<path d="M23.5625 22.4H24.4688V23.3333H23.5625V22.4Z" fill="black"/>
<path d="M24.4688 22.4H25.375V23.3333H24.4688V22.4Z" fill="black"/>
<path d="M4.53125 23.3333H5.4375V24.2667H4.53125V23.3333Z" fill="black"/>
<path d="M5.4375 23.3333H6.34375V24.2667H5.4375V23.3333Z" fill="black"/>
<path d="M6.34375 23.3333H7.25V24.2667H6.34375V23.3333Z" fill="black"/>
<path d="M18.125 23.3333H19.0312V24.2667H18.125V23.3333Z" fill="black"/>
<path d="M19.0312 23.3333H19.9375V24.2667H19.0312V23.3333Z" fill="black"/>
<path d="M19.9375 23.3333H20.8438V24.2667H19.9375V23.3333Z" fill="black"/>
<path d="M20.8438 23.3333H21.75V24.2667H20.8438V23.3333Z" fill="black"/>
<path d="M21.75 23.3333H22.6562V24.2667H21.75V23.3333Z" fill="black"/>
<path d="M22.6562 23.3333H23.5625V24.2667H22.6562V23.3333Z" fill="black"/>
<path d="M23.5625 23.3333H24.4688V24.2667H23.5625V23.3333Z" fill="black"/>
<path d="M24.4688 23.3333H25.375V24.2667H24.4688V23.3333Z" fill="black"/>
<path d="M5.4375 24.2667H6.34375V25.2H5.4375V24.2667Z" fill="black"/>
<path d="M6.34375 24.2667H7.25V25.2H6.34375V24.2667Z" fill="black"/>
<path d="M7.25 24.2667H8.15625V25.2H7.25V24.2667Z" fill="black"/>
<path d="M8.15625 24.2667H9.0625V25.2H8.15625V24.2667Z" fill="black"/>
<path d="M9.0625 24.2667H9.96875V25.2H9.0625V24.2667Z" fill="black"/>
<path d="M9.96875 24.2667H10.875V25.2H9.96875V24.2667Z" fill="black"/>
<path d="M18.125 24.2667H19.0312V25.2H18.125V24.2667Z" fill="black"/>
<path d="M19.0312 24.2667H19.9375V25.2H19.0312V24.2667Z" fill="black"/>
<path d="M19.9375 24.2667H20.8438V25.2H19.9375V24.2667Z" fill="black"/>
<path d="M20.8438 24.2667H21.75V25.2H20.8438V24.2667Z" fill="black"/>
<path d="M21.75 24.2667H22.6562V25.2H21.75V24.2667Z" fill="black"/>
<path d="M22.6562 24.2667H23.5625V25.2H22.6562V24.2667Z" fill="black"/>
<path d="M23.5625 24.2667H24.4688V25.2H23.5625V24.2667Z" fill="black"/>
<path d="M6.34375 25.2H7.25V26.1333H6.34375V25.2Z" fill="black"/>
<path d="M7.25 25.2H8.15625V26.1333H7.25V25.2Z" fill="black"/>
<path d="M8.15625 25.2H9.0625V26.1333H8.15625V25.2Z" fill="black"/>
<path d="M9.0625 25.2H9.96875V26.1333H9.0625V25.2Z" fill="black"/>
<path d="M9.96875 25.2H10.875V26.1333H9.96875V25.2Z" fill="black"/>
<path d="M18.125 25.2H19.0312V26.1333H18.125V25.2Z" fill="black"/>
<path d="M19.0312 25.2H19.9375V26.1333H19.0312V25.2Z" fill="black"/>
<path d="M19.9375 25.2H20.8438V26.1333H19.9375V25.2Z" fill="black"/>
<path d="M20.8438 25.2H21.75V26.1333H20.8438V25.2Z" fill="black"/>
<path d="M21.75 25.2H22.6562V26.1333H21.75V25.2Z" fill="black"/>
<path d="M8.15625 26.1333H9.0625V27.0667H8.15625V26.1333Z" fill="black"/>
<path d="M9.0625 26.1333H9.96875V27.0667H9.0625V26.1333Z" fill="black"/>
<path d="M9.96875 26.1333H10.875V27.0667H9.96875V26.1333Z" fill="black"/>
<path d="M18.125 26.1333H19.0312V27.0667H18.125V26.1333Z" fill="black"/>
<path d="M19.0312 26.1333H19.9375V27.0667H19.0312V26.1333Z" fill="black"/>
<path d="M19.9375 26.1333H20.8438V27.0667H19.9375V26.1333Z" fill="black"/>
<path d="M20.8438 26.1333H21.75V27.0667H20.8438V26.1333Z" fill="black"/>
<path d="M9.96875 27.0667H10.875V28H9.96875V27.0667Z" fill="black"/>
<path d="M18.125 27.0667H19.0312V28H18.125V27.0667Z" fill="black"/>
</svg>
