<svg width="28" height="27" viewBox="0 0 28 27" fill="none" xmlns="http://www.w3.org/2000/svg">
<path d="M4.375 0H5.25V0.9H4.375V0Z" fill="black"/>
<path d="M5.25 0H6.125V0.9H5.25V0Z" fill="black"/>
<path d="M6.125 0H7V0.9H6.125V0Z" fill="black"/>
<path d="M7 0H7.875V0.9H7V0Z" fill="black"/>
<path d="M7.875 0H8.75V0.9H7.875V0Z" fill="black"/>
<path d="M8.75 0H9.625V0.9H8.75V0Z" fill="black"/>
<path d="M9.625 0H10.5V0.9H9.625V0Z" fill="black"/>
<path d="M10.5 0H11.375V0.9H10.5V0Z" fill="black"/>
<path d="M11.375 0H12.25V0.9H11.375V0Z" fill="black"/>
<path d="M12.25 0H13.125V0.9H12.25V0Z" fill="black"/>
<path d="M13.125 0H14V0.9H13.125V0Z" fill="black"/>
<path d="M14 0H14.875V0.9H14V0Z" fill="black"/>
<path d="M14.875 0H15.75V0.9H14.875V0Z" fill="black"/>
<path d="M15.75 0H16.625V0.9H15.75V0Z" fill="black"/>
<path d="M16.625 0H17.5V0.9H16.625V0Z" fill="black"/>
<path d="M17.5 0H18.375V0.9H17.5V0Z" fill="black"/>
<path d="M18.375 0H19.25V0.9H18.375V0Z" fill="black"/>
<path d="M19.25 0H20.125V0.9H19.25V0Z" fill="black"/>
<path d="M20.125 0H21V0.9H20.125V0Z" fill="black"/>
<path d="M21 0H21.875V0.9H21V0Z" fill="black"/>
<path d="M21.875 0H22.75V0.9H21.875V0Z" fill="black"/>
<path d="M22.75 0H23.625V0.9H22.75V0Z" fill="black"/>
<path d="M3.5 0.9H4.375L4.375 1.8H3.5V0.9Z" fill="black"/>
<path d="M4.375 0.9H5.25V1.8H4.375L4.375 0.9Z" fill="black"/>
<path d="M5.25 0.9H6.125V1.8H5.25V0.9Z" fill="black"/>
<path d="M6.125 0.9H7V1.8H6.125V0.9Z" fill="black"/>
<path d="M7 0.9H7.875V1.8H7V0.9Z" fill="black"/>
<path d="M7.875 0.9H8.75V1.8H7.875V0.9Z" fill="black"/>
<path d="M8.75 0.9H9.625V1.8H8.75V0.9Z" fill="black"/>
<path d="M9.625 0.9H10.5V1.8H9.625V0.9Z" fill="black"/>
<path d="M10.5 0.9H11.375V1.8H10.5V0.9Z" fill="black"/>
<path d="M11.375 0.9H12.25V1.8H11.375V0.9Z" fill="black"/>
<path d="M12.25 0.9H13.125V1.8H12.25V0.9Z" fill="black"/>
<path d="M13.125 0.9H14V1.8H13.125V0.9Z" fill="black"/>
<path d="M14 0.9H14.875V1.8H14V0.9Z" fill="black"/>
<path d="M14.875 0.9H15.75V1.8H14.875V0.9Z" fill="black"/>
<path d="M15.75 0.9H16.625V1.8H15.75V0.9Z" fill="black"/>
<path d="M16.625 0.9H17.5V1.8H16.625V0.9Z" fill="black"/>
<path d="M17.5 0.9H18.375V1.8H17.5V0.9Z" fill="black"/>
<path d="M18.375 0.9H19.25V1.8H18.375V0.9Z" fill="black"/>
<path d="M19.25 0.9H20.125V1.8H19.25V0.9Z" fill="black"/>
<path d="M20.125 0.9H21V1.8H20.125V0.9Z" fill="black"/>
<path d="M21 0.9H21.875V1.8H21V0.9Z" fill="black"/>
<path d="M21.875 0.9H22.75V1.8H21.875V0.9Z" fill="black"/>
<path d="M22.75 0.9H23.625V1.8H22.75V0.9Z" fill="black"/>
<path d="M23.625 0.9H24.5V1.8H23.625V0.9Z" fill="black"/>
<path d="M2.625 1.8H3.5V2.7H2.625V1.8Z" fill="black"/>
<path d="M3.5 1.8H4.375V2.7H3.5V1.8Z" fill="black"/>
<path d="M4.375 1.8H5.25V2.7H4.375V1.8Z" fill="black"/>
<path d="M5.25 1.8H6.125V2.7H5.25V1.8Z" fill="black"/>
<path d="M6.125 1.8H7V2.7H6.125V1.8Z" fill="black"/>
<path d="M7 1.8H7.875V2.7H7V1.8Z" fill="black"/>
<path d="M7.875 1.8H8.75V2.7H7.875V1.8Z" fill="black"/>
<path d="M8.75 1.8H9.625V2.7H8.75V1.8Z" fill="black"/>
<path d="M9.625 1.8H10.5V2.7H9.625V1.8Z" fill="black"/>
<path d="M10.5 1.8H11.375V2.7H10.5V1.8Z" fill="black"/>
<path d="M11.375 1.8H12.25V2.7H11.375V1.8Z" fill="black"/>
<path d="M12.25 1.8H13.125V2.7H12.25V1.8Z" fill="black"/>
<path d="M13.125 1.8H14V2.7H13.125V1.8Z" fill="black"/>
<path d="M14 1.8H14.875V2.7H14V1.8Z" fill="black"/>
<path d="M14.875 1.8H15.75V2.7H14.875V1.8Z" fill="black"/>
<path d="M15.75 1.8H16.625V2.7H15.75V1.8Z" fill="black"/>
<path d="M16.625 1.8H17.5V2.7H16.625V1.8Z" fill="black"/>
<path d="M17.5 1.8H18.375V2.7H17.5V1.8Z" fill="black"/>
<path d="M18.375 1.8H19.25V2.7H18.375V1.8Z" fill="black"/>
<path d="M19.25 1.8H20.125V2.7H19.25V1.8Z" fill="black"/>
<path d="M20.125 1.8H21V2.7H20.125V1.8Z" fill="black"/>
<path d="M21 1.8H21.875V2.7H21V1.8Z" fill="black"/>
<path d="M21.875 1.8H22.75V2.7H21.875V1.8Z" fill="black"/>
<path d="M22.75 1.8H23.625V2.7H22.75V1.8Z" fill="black"/>
<path d="M23.625 1.8H24.5V2.7H23.625V1.8Z" fill="black"/>
<path d="M24.5 1.8H25.375V2.7H24.5V1.8Z" fill="black"/>
<path d="M25.375 1.8H26.25V2.7H25.375V1.8Z" fill="black"/>
<path d="M1.75 2.7H2.625V3.6H1.75V2.7Z" fill="black"/>
<path d="M2.625 2.7H3.5V3.6H2.625V2.7Z" fill="black"/>
<path d="M3.5 2.7H4.375V3.6H3.5V2.7Z" fill="black"/>
<path d="M4.375 2.7H5.25V3.6H4.375V2.7Z" fill="black"/>
<path d="M22.75 2.7H23.625V3.6H22.75L22.75 2.7Z" fill="black"/>
<path d="M23.625 2.7H24.5V3.6H23.625V2.7Z" fill="black"/>
<path d="M24.5 2.7H25.375V3.6H24.5V2.7Z" fill="black"/>
<path d="M25.375 2.7H26.25V3.6H25.375V2.7Z" fill="black"/>
<path d="M0.875 3.6H1.75V4.5H0.875V3.6Z" fill="black"/>
<path d="M1.75 3.6H2.625V4.5H1.75V3.6Z" fill="black"/>
<path d="M2.625 3.6H3.5V4.5H2.625V3.6Z" fill="black"/>
<path d="M3.5 3.6H4.375V4.5H3.5V3.6Z" fill="black"/>
<path d="M23.625 3.6H24.5V4.5H23.625V3.6Z" fill="black"/>
<path d="M24.5 3.6H25.375V4.5H24.5V3.6Z" fill="black"/>
<path d="M25.375 3.6H26.25V4.5H25.375V3.6Z" fill="black"/>
<path d="M26.25 3.6H27.125V4.5H26.25V3.6Z" fill="black"/>
<path d="M0.875 4.5H1.75V5.4H0.875V4.5Z" fill="black"/>
<path d="M1.75 4.5H2.625V5.4H1.75V4.5Z" fill="black"/>
<path d="M2.625 4.5H3.5V5.4H2.625V4.5Z" fill="black"/>
<path d="M20.125 4.5H21V5.4H20.125V4.5Z" fill="black"/>
<path d="M21 4.5H21.875V5.4H21V4.5Z" fill="black"/>
<path d="M21.875 4.5H22.75V5.4H21.875V4.5Z" fill="black"/>
<path d="M24.5 4.5H25.375V5.4H24.5V4.5Z" fill="black"/>
<path d="M25.375 4.5H26.25V5.4H25.375V4.5Z" fill="black"/>
<path d="M26.25 4.5H27.125V5.4H26.25V4.5Z" fill="black"/>
<path d="M0.875 5.4H1.75V6.3H0.875V5.4Z" fill="black"/>
<path d="M1.75 5.4H2.625V6.3H1.75V5.4Z" fill="black"/>
<path d="M2.625 5.4H3.5V6.3H2.625V5.4Z" fill="black"/>
<path d="M19.25 5.4H20.125L20.125 6.3H19.25V5.4Z" fill="black"/>
<path d="M20.125 5.4H21V6.3H20.125L20.125 5.4Z" fill="black"/>
<path d="M21 5.4H21.875V6.3H21V5.4Z" fill="black"/>
<path d="M21.875 5.4H22.75V6.3H21.875V5.4Z" fill="black"/>
<path d="M24.5 5.4H25.375V6.3H24.5V5.4Z" fill="black"/>
<path d="M25.375 5.4H26.25V6.3H25.375V5.4Z" fill="black"/>
<path d="M26.25 5.4H27.125V6.3H26.25V5.4Z" fill="black"/>
<path d="M27.125 5.4H28V6.3H27.125V5.4Z" fill="black"/>
<path d="M0.875 6.3H1.75V7.2H0.875V6.3Z" fill="black"/>
<path d="M1.75 6.3H2.625V7.2H1.75V6.3Z" fill="black"/>
<path d="M2.625 6.3H3.5V7.2H2.625V6.3Z" fill="black"/>
<path d="M12.25 6.3H13.125V7.2H12.25V6.3Z" fill="black"/>
<path d="M13.125 6.3H14V7.2H13.125V6.3Z" fill="black"/>
<path d="M14 6.3H14.875V7.2H14V6.3Z" fill="black"/>
<path d="M14.875 6.3H15.75V7.2H14.875V6.3Z" fill="black"/>
<path d="M19.25 6.3H20.125V7.2H19.25V6.3Z" fill="black"/>
<path d="M20.125 6.3H21V7.2H20.125V6.3Z" fill="black"/>
<path d="M21 6.3H21.875V7.2H21V6.3Z" fill="black"/>
<path d="M21.875 6.3H22.75V7.2H21.875V6.3Z" fill="black"/>
<path d="M25.375 6.3H26.25V7.2H25.375L25.375 6.3Z" fill="black"/>
<path d="M26.25 6.3H27.125V7.2H26.25V6.3Z" fill="black"/>
<path d="M27.125 6.3H28V7.2H27.125V6.3Z" fill="black"/>
<path d="M0 7.2L0.875 7.2V8.1H0V7.2Z" fill="black"/>
<path d="M0.875 7.2H1.75V8.1H0.875V7.2Z" fill="black"/>
<path d="M1.75 7.2H2.625V8.1H1.75V7.2Z" fill="black"/>
<path d="M2.625 7.2H3.5V8.1H2.625V7.2Z" fill="black"/>
<path d="M10.5 7.2H11.375V8.1H10.5V7.2Z" fill="black"/>
<path d="M11.375 7.2L12.25 7.2V8.1H11.375V7.2Z" fill="black"/>
<path d="M12.25 7.2H13.125V8.1H12.25V7.2Z" fill="black"/>
<path d="M13.125 7.2H14V8.1H13.125V7.2Z" fill="black"/>
<path d="M14 7.2H14.875V8.1H14V7.2Z" fill="black"/>
<path d="M14.875 7.2H15.75V8.1H14.875V7.2Z" fill="black"/>
<path d="M15.75 7.2L16.625 7.2V8.1H15.75V7.2Z" fill="black"/>
<path d="M16.625 7.2H17.5V8.1H16.625V7.2Z" fill="black"/>
<path d="M20.125 7.2H21V8.1H20.125L20.125 7.2Z" fill="black"/>
<path d="M21 7.2H21.875V8.1H21V7.2Z" fill="black"/>
<path d="M21.875 7.2H22.75V8.1H21.875V7.2Z" fill="black"/>
<path d="M25.375 7.2H26.25V8.1H25.375V7.2Z" fill="black"/>
<path d="M26.25 7.2H27.125V8.1H26.25V7.2Z" fill="black"/>
<path d="M27.125 7.2H28V8.1H27.125V7.2Z" fill="black"/>
<path d="M0 8.1H0.875V9H0V8.1Z" fill="black"/>
<path d="M0.875 8.1H1.75V9H0.875V8.1Z" fill="black"/>
<path d="M1.75 8.1H2.625V9H1.75V8.1Z" fill="black"/>
<path d="M2.625 8.1H3.5V9H2.625V8.1Z" fill="black"/>
<path d="M9.625 8.1H10.5V9H9.625V8.1Z" fill="black"/>
<path d="M10.5 8.1H11.375V9H10.5V8.1Z" fill="black"/>
<path d="M11.375 8.1H12.25V9H11.375V8.1Z" fill="black"/>
<path d="M12.25 8.1H13.125V9H12.25V8.1Z" fill="black"/>
<path d="M13.125 8.1H14V9H13.125V8.1Z" fill="black"/>
<path d="M14 8.1H14.875V9H14V8.1Z" fill="black"/>
<path d="M14.875 8.1H15.75V9H14.875V8.1Z" fill="black"/>
<path d="M15.75 8.1H16.625V9H15.75V8.1Z" fill="black"/>
<path d="M16.625 8.1H17.5V9H16.625V8.1Z" fill="black"/>
<path d="M17.5 8.1H18.375V9H17.5V8.1Z" fill="black"/>
<path d="M18.375 8.1H19.25V9H18.375V8.1Z" fill="black"/>
<path d="M25.375 8.1H26.25V9H25.375V8.1Z" fill="black"/>
<path d="M26.25 8.1H27.125V9H26.25V8.1Z" fill="black"/>
<path d="M27.125 8.1H28V9H27.125V8.1Z" fill="black"/>
<path d="M0 9H0.875V9.9H0V9Z" fill="black"/>
<path d="M0.875 9H1.75V9.9H0.875V9Z" fill="black"/>
<path d="M1.75 9H2.625V9.9H1.75V9Z" fill="black"/>
<path d="M2.625 9H3.5V9.9H2.625V9Z" fill="black"/>
<path d="M8.75 9H9.625L9.625 9.9H8.75V9Z" fill="black"/>
<path d="M9.625 9H10.5V9.9H9.625L9.625 9Z" fill="black"/>
<path d="M10.5 9H11.375V9.9H10.5V9Z" fill="black"/>
<path d="M11.375 9H12.25V9.9H11.375V9Z" fill="black"/>
<path d="M12.25 9H13.125V9.9H12.25V9Z" fill="black"/>
<path d="M14.875 9H15.75V9.9H14.875L14.875 9Z" fill="black"/>
<path d="M15.75 9H16.625V9.9H15.75V9Z" fill="black"/>
<path d="M16.625 9H17.5V9.9H16.625V9Z" fill="black"/>
<path d="M17.5 9H18.375V9.9H17.5V9Z" fill="black"/>
<path d="M18.375 9H19.25V9.9H18.375V9Z" fill="black"/>
<path d="M19.25 9H20.125V9.9H19.25V9Z" fill="black"/>
<path d="M25.375 9H26.25V9.9H25.375V9Z" fill="black"/>
<path d="M26.25 9H27.125V9.9H26.25V9Z" fill="black"/>
<path d="M27.125 9H28V9.9H27.125V9Z" fill="black"/>
<path d="M0 9.9H0.875V10.8H0V9.9Z" fill="black"/>
<path d="M0.875 9.9H1.75V10.8H0.875V9.9Z" fill="black"/>
<path d="M1.75 9.9H2.625V10.8H1.75V9.9Z" fill="black"/>
<path d="M2.625 9.9H3.5V10.8H2.625V9.9Z" fill="black"/>
<path d="M7.875 9.9L8.75 9.9V10.8H7.875V9.9Z" fill="black"/>
<path d="M8.75 9.9H9.625V10.8H8.75V9.9Z" fill="black"/>
<path d="M9.625 9.9H10.5V10.8H9.625V9.9Z" fill="black"/>
<path d="M10.5 9.9H11.375V10.8H10.5V9.9Z" fill="black"/>
<path d="M16.625 9.9H17.5V10.8H16.625V9.9Z" fill="black"/>
<path d="M17.5 9.9H18.375V10.8H17.5V9.9Z" fill="black"/>
<path d="M18.375 9.9H19.25V10.8H18.375V9.9Z" fill="black"/>
<path d="M19.25 9.9H20.125V10.8H19.25V9.9Z" fill="black"/>
<path d="M25.375 9.9H26.25V10.8H25.375V9.9Z" fill="black"/>
<path d="M26.25 9.9H27.125V10.8H26.25V9.9Z" fill="black"/>
<path d="M27.125 9.9H28V10.8H27.125V9.9Z" fill="black"/>
<path d="M0 10.8H0.875V11.7H0V10.8Z" fill="black"/>
<path d="M0.875 10.8H1.75V11.7H0.875V10.8Z" fill="black"/>
<path d="M1.75 10.8H2.625V11.7H1.75V10.8Z" fill="black"/>
<path d="M2.625 10.8H3.5V11.7H2.625V10.8Z" fill="black"/>
<path d="M7.875 10.8H8.75V11.7H7.875V10.8Z" fill="black"/>
<path d="M8.75 10.8H9.625V11.7H8.75V10.8Z" fill="black"/>
<path d="M9.625 10.8H10.5V11.7H9.625V10.8Z" fill="black"/>
<path d="M17.5 10.8H18.375V11.7H17.5L17.5 10.8Z" fill="black"/>
<path d="M18.375 10.8H19.25V11.7H18.375V10.8Z" fill="black"/>
<path d="M19.25 10.8H20.125V11.7H19.25V10.8Z" fill="black"/>
<path d="M20.125 10.8H21V11.7H20.125V10.8Z" fill="black"/>
<path d="M25.375 10.8H26.25V11.7H25.375V10.8Z" fill="black"/>
<path d="M26.25 10.8H27.125V11.7H26.25V10.8Z" fill="black"/>
<path d="M27.125 10.8H28V11.7H27.125V10.8Z" fill="black"/>
<path d="M0 11.7H0.875V12.6H0V11.7Z" fill="black"/>
<path d="M0.875 11.7H1.75V12.6H0.875V11.7Z" fill="black"/>
<path d="M1.75 11.7H2.625V12.6H1.75V11.7Z" fill="black"/>
<path d="M2.625 11.7H3.5V12.6H2.625V11.7Z" fill="black"/>
<path d="M7 11.7H7.875V12.6H7V11.7Z" fill="black"/>
<path d="M7.875 11.7H8.75V12.6H7.875V11.7Z" fill="black"/>
<path d="M8.75 11.7H9.625V12.6H8.75V11.7Z" fill="black"/>
<path d="M9.625 11.7H10.5V12.6H9.625V11.7Z" fill="black"/>
<path d="M18.375 11.7H19.25V12.6H18.375V11.7Z" fill="black"/>
<path d="M19.25 11.7H20.125V12.6H19.25V11.7Z" fill="black"/>
<path d="M20.125 11.7H21V12.6H20.125V11.7Z" fill="black"/>
<path d="M25.375 11.7H26.25V12.6H25.375V11.7Z" fill="black"/>
<path d="M26.25 11.7H27.125V12.6H26.25V11.7Z" fill="black"/>
<path d="M27.125 11.7H28V12.6H27.125V11.7Z" fill="black"/>
<path d="M0 12.6H0.875V13.5H0V12.6Z" fill="black"/>
<path d="M0.875 12.6H1.75V13.5H0.875V12.6Z" fill="black"/>
<path d="M1.75 12.6H2.625V13.5H1.75V12.6Z" fill="black"/>
<path d="M2.625 12.6H3.5V13.5H2.625V12.6Z" fill="black"/>
<path d="M7 12.6H7.875V13.5H7V12.6Z" fill="black"/>
<path d="M7.875 12.6H8.75V13.5H7.875V12.6Z" fill="black"/>
<path d="M8.75 12.6H9.625V13.5H8.75V12.6Z" fill="black"/>
<path d="M9.625 12.6H10.5V13.5H9.625V12.6Z" fill="black"/>
<path d="M18.375 12.6H19.25V13.5H18.375V12.6Z" fill="black"/>
<path d="M19.25 12.6H20.125V13.5H19.25V12.6Z" fill="black"/>
<path d="M20.125 12.6H21V13.5H20.125V12.6Z" fill="black"/>
<path d="M25.375 12.6H26.25V13.5H25.375V12.6Z" fill="black"/>
<path d="M26.25 12.6H27.125V13.5H26.25V12.6Z" fill="black"/>
<path d="M27.125 12.6H28V13.5H27.125V12.6Z" fill="black"/>
<path d="M0 13.5H0.875V14.4H0V13.5Z" fill="black"/>
<path d="M0.875 13.5H1.75V14.4H0.875V13.5Z" fill="black"/>
<path d="M1.75 13.5H2.625V14.4H1.75V13.5Z" fill="black"/>
<path d="M2.625 13.5H3.5V14.4H2.625V13.5Z" fill="black"/>
<path d="M7 13.5H7.875V14.4H7V13.5Z" fill="black"/>
<path d="M7.875 13.5H8.75V14.4H7.875V13.5Z" fill="black"/>
<path d="M8.75 13.5H9.625V14.4H8.75V13.5Z" fill="black"/>
<path d="M9.625 13.5H10.5V14.4H9.625V13.5Z" fill="black"/>
<path d="M18.375 13.5H19.25V14.4H18.375V13.5Z" fill="black"/>
<path d="M19.25 13.5H20.125V14.4H19.25V13.5Z" fill="black"/>
<path d="M20.125 13.5H21V14.4H20.125V13.5Z" fill="black"/>
<path d="M25.375 13.5H26.25V14.4H25.375V13.5Z" fill="black"/>
<path d="M26.25 13.5H27.125V14.4H26.25V13.5Z" fill="black"/>
<path d="M27.125 13.5H28V14.4H27.125V13.5Z" fill="black"/>
<path d="M0 14.4H0.875V15.3H0V14.4Z" fill="black"/>
<path d="M0.875 14.4H1.75V15.3H0.875V14.4Z" fill="black"/>
<path d="M1.75 14.4H2.625V15.3H1.75V14.4Z" fill="black"/>
<path d="M2.625 14.4H3.5V15.3H2.625V14.4Z" fill="black"/>
<path d="M7 14.4H7.875V15.3H7V14.4Z" fill="black"/>
<path d="M7.875 14.4H8.75V15.3H7.875V14.4Z" fill="black"/>
<path d="M8.75 14.4H9.625V15.3H8.75V14.4Z" fill="black"/>
<path d="M9.625 14.4H10.5V15.3H9.625V14.4Z" fill="black"/>
<path d="M18.375 14.4H19.25V15.3H18.375V14.4Z" fill="black"/>
<path d="M19.25 14.4H20.125V15.3H19.25V14.4Z" fill="black"/>
<path d="M20.125 14.4H21V15.3H20.125V14.4Z" fill="black"/>
<path d="M25.375 14.4H26.25V15.3H25.375V14.4Z" fill="black"/>
<path d="M26.25 14.4H27.125V15.3H26.25V14.4Z" fill="black"/>
<path d="M27.125 14.4H28V15.3H27.125V14.4Z" fill="black"/>
<path d="M0 15.3H0.875V16.2H0V15.3Z" fill="black"/>
<path d="M0.875 15.3H1.75V16.2H0.875V15.3Z" fill="black"/>
<path d="M1.75 15.3H2.625V16.2H1.75V15.3Z" fill="black"/>
<path d="M2.625 15.3H3.5V16.2H2.625V15.3Z" fill="black"/>
<path d="M7.875 15.3H8.75V16.2H7.875V15.3Z" fill="black"/>
<path d="M8.75 15.3H9.625V16.2H8.75V15.3Z" fill="black"/>
<path d="M9.625 15.3H10.5V16.2H9.625V15.3Z" fill="black"/>
<path d="M17.5 15.3L18.375 15.3V16.2H17.5V15.3Z" fill="black"/>
<path d="M18.375 15.3H19.25V16.2H18.375V15.3Z" fill="black"/>
<path d="M19.25 15.3H20.125V16.2H19.25V15.3Z" fill="black"/>
<path d="M20.125 15.3H21V16.2H20.125V15.3Z" fill="black"/>
<path d="M25.375 15.3H26.25V16.2H25.375V15.3Z" fill="black"/>
<path d="M26.25 15.3H27.125V16.2H26.25V15.3Z" fill="black"/>
<path d="M27.125 15.3H28V16.2H27.125V15.3Z" fill="black"/>
<path d="M0 16.2H0.875V17.1H0V16.2Z" fill="black"/>
<path d="M0.875 16.2H1.75V17.1H0.875V16.2Z" fill="black"/>
<path d="M1.75 16.2H2.625V17.1H1.75V16.2Z" fill="black"/>
<path d="M2.625 16.2H3.5V17.1H2.625V16.2Z" fill="black"/>
<path d="M7.875 16.2H8.75V17.1H7.875V16.2Z" fill="black"/>
<path d="M8.75 16.2H9.625V17.1H8.75V16.2Z" fill="black"/>
<path d="M9.625 16.2H10.5V17.1H9.625V16.2Z" fill="black"/>
<path d="M10.5 16.2H11.375V17.1H10.5V16.2Z" fill="black"/>
<path d="M16.625 16.2H17.5L17.5 17.1H16.625V16.2Z" fill="black"/>
<path d="M17.5 16.2H18.375V17.1H17.5L17.5 16.2Z" fill="black"/>
<path d="M18.375 16.2H19.25V17.1H18.375V16.2Z" fill="black"/>
<path d="M19.25 16.2H20.125V17.1H19.25V16.2Z" fill="black"/>
<path d="M25.375 16.2H26.25V17.1H25.375V16.2Z" fill="black"/>
<path d="M26.25 16.2H27.125V17.1H26.25V16.2Z" fill="black"/>
<path d="M27.125 16.2H28V17.1H27.125V16.2Z" fill="black"/>
<path d="M0 17.1H0.875V18H0V17.1Z" fill="black"/>
<path d="M0.875 17.1H1.75V18H0.875V17.1Z" fill="black"/>
<path d="M1.75 17.1H2.625V18H1.75V17.1Z" fill="black"/>
<path d="M2.625 17.1H3.5V18H2.625V17.1Z" fill="black"/>
<path d="M8.75 17.1H9.625V18H8.75V17.1Z" fill="black"/>
<path d="M9.625 17.1H10.5V18H9.625V17.1Z" fill="black"/>
<path d="M10.5 17.1H11.375V18H10.5V17.1Z" fill="black"/>
<path d="M11.375 17.1H12.25V18H11.375V17.1Z" fill="black"/>
<path d="M12.25 17.1H13.125V18H12.25V17.1Z" fill="black"/>
<path d="M14.875 17.1H15.75V18H14.875V17.1Z" fill="black"/>
<path d="M15.75 17.1H16.625V18H15.75V17.1Z" fill="black"/>
<path d="M16.625 17.1H17.5V18H16.625V17.1Z" fill="black"/>
<path d="M17.5 17.1H18.375V18H17.5V17.1Z" fill="black"/>
<path d="M18.375 17.1H19.25V18H18.375V17.1Z" fill="black"/>
<path d="M19.25 17.1H20.125V18H19.25V17.1Z" fill="black"/>
<path d="M25.375 17.1H26.25V18H25.375V17.1Z" fill="black"/>
<path d="M26.25 17.1H27.125V18H26.25V17.1Z" fill="black"/>
<path d="M27.125 17.1H28V18H27.125V17.1Z" fill="black"/>
<path d="M0 18H0.875V18.9H0V18Z" fill="black"/>
<path d="M0.875 18H1.75V18.9H0.875V18Z" fill="black"/>
<path d="M1.75 18H2.625V18.9H1.75V18Z" fill="black"/>
<path d="M2.625 18H3.5V18.9H2.625V18Z" fill="black"/>
<path d="M9.625 18H10.5V18.9H9.625L9.625 18Z" fill="black"/>
<path d="M10.5 18H11.375V18.9H10.5V18Z" fill="black"/>
<path d="M11.375 18H12.25V18.9H11.375V18Z" fill="black"/>
<path d="M12.25 18H13.125V18.9H12.25V18Z" fill="black"/>
<path d="M13.125 18L14 18V18.9H13.125V18Z" fill="black"/>
<path d="M14 18L14.875 18L14.875 18.9H14V18Z" fill="black"/>
<path d="M14.875 18H15.75V18.9H14.875L14.875 18Z" fill="black"/>
<path d="M15.75 18H16.625V18.9H15.75V18Z" fill="black"/>
<path d="M16.625 18H17.5V18.9H16.625V18Z" fill="black"/>
<path d="M17.5 18H18.375V18.9H17.5V18Z" fill="black"/>
<path d="M18.375 18H19.25V18.9H18.375V18Z" fill="black"/>
<path d="M25.375 18H26.25V18.9H25.375V18Z" fill="black"/>
<path d="M26.25 18H27.125V18.9H26.25V18Z" fill="black"/>
<path d="M27.125 18H28V18.9H27.125V18Z" fill="black"/>
<path d="M0 18.9H0.875V19.8H0V18.9Z" fill="black"/>
<path d="M0.875 18.9H1.75V19.8H0.875V18.9Z" fill="black"/>
<path d="M1.75 18.9H2.625V19.8H1.75V18.9Z" fill="black"/>
<path d="M2.625 18.9H3.5V19.8H2.625V18.9Z" fill="black"/>
<path d="M10.5 18.9H11.375V19.8H10.5V18.9Z" fill="black"/>
<path d="M11.375 18.9H12.25V19.8H11.375V18.9Z" fill="black"/>
<path d="M12.25 18.9H13.125V19.8H12.25V18.9Z" fill="black"/>
<path d="M13.125 18.9H14V19.8H13.125V18.9Z" fill="black"/>
<path d="M14 18.9H14.875V19.8H14V18.9Z" fill="black"/>
<path d="M14.875 18.9H15.75V19.8H14.875V18.9Z" fill="black"/>
<path d="M15.75 18.9H16.625V19.8H15.75V18.9Z" fill="black"/>
<path d="M16.625 18.9H17.5V19.8H16.625V18.9Z" fill="black"/>
<path d="M25.375 18.9H26.25V19.8H25.375V18.9Z" fill="black"/>
<path d="M26.25 18.9H27.125V19.8H26.25V18.9Z" fill="black"/>
<path d="M27.125 18.9H28V19.8H27.125V18.9Z" fill="black"/>
<path d="M0.875 19.8H1.75V20.7H0.875V19.8Z" fill="black"/>
<path d="M1.75 19.8H2.625V20.7H1.75V19.8Z" fill="black"/>
<path d="M2.625 19.8H3.5V20.7H2.625V19.8Z" fill="black"/>
<path d="M12.25 19.8H13.125V20.7H12.25V19.8Z" fill="black"/>
<path d="M13.125 19.8H14V20.7H13.125V19.8Z" fill="black"/>
<path d="M14 19.8H14.875V20.7H14V19.8Z" fill="black"/>
<path d="M14.875 19.8H15.75V20.7H14.875V19.8Z" fill="black"/>
<path d="M25.375 19.8H26.25V20.7H25.375V19.8Z" fill="black"/>
<path d="M26.25 19.8H27.125V20.7H26.25V19.8Z" fill="black"/>
<path d="M27.125 19.8H28V20.7H27.125V19.8Z" fill="black"/>
<path d="M0.875 20.7H1.75V21.6H0.875V20.7Z" fill="black"/>
<path d="M1.75 20.7H2.625V21.6H1.75V20.7Z" fill="black"/>
<path d="M2.625 20.7H3.5V21.6H2.625V20.7Z" fill="black"/>
<path d="M24.5 20.7H25.375L25.375 21.6H24.5V20.7Z" fill="black"/>
<path d="M25.375 20.7H26.25V21.6H25.375L25.375 20.7Z" fill="black"/>
<path d="M26.25 20.7H27.125V21.6H26.25V20.7Z" fill="black"/>
<path d="M27.125 20.7H28V21.6H27.125V20.7Z" fill="black"/>
<path d="M0.875 21.6H1.75V22.5H0.875V21.6Z" fill="black"/>
<path d="M1.75 21.6H2.625V22.5H1.75V21.6Z" fill="black"/>
<path d="M2.625 21.6H3.5V22.5H2.625V21.6Z" fill="black"/>
<path d="M24.5 21.6H25.375V22.5H24.5V21.6Z" fill="black"/>
<path d="M25.375 21.6H26.25V22.5H25.375V21.6Z" fill="black"/>
<path d="M26.25 21.6H27.125V22.5H26.25V21.6Z" fill="black"/>
<path d="M0.875 22.5H1.75V23.4H0.875V22.5Z" fill="black"/>
<path d="M1.75 22.5H2.625V23.4H1.75V22.5Z" fill="black"/>
<path d="M2.625 22.5H3.5V23.4H2.625V22.5Z" fill="black"/>
<path d="M3.5 22.5H4.375V23.4H3.5V22.5Z" fill="black"/>
<path d="M23.625 22.5H24.5V23.4H23.625V22.5Z" fill="black"/>
<path d="M24.5 22.5H25.375V23.4H24.5V22.5Z" fill="black"/>
<path d="M25.375 22.5H26.25V23.4H25.375V22.5Z" fill="black"/>
<path d="M26.25 22.5H27.125V23.4H26.25V22.5Z" fill="black"/>
<path d="M1.75 23.4H2.625V24.3H1.75V23.4Z" fill="black"/>
<path d="M2.625 23.4H3.5V24.3H2.625V23.4Z" fill="black"/>
<path d="M3.5 23.4H4.375V24.3H3.5V23.4Z" fill="black"/>
<path d="M4.375 23.4L5.25 23.4V24.3H4.375V23.4Z" fill="black"/>
<path d="M22.75 23.4L23.625 23.4V24.3H22.75V23.4Z" fill="black"/>
<path d="M23.625 23.4H24.5V24.3H23.625V23.4Z" fill="black"/>
<path d="M24.5 23.4H25.375V24.3H24.5V23.4Z" fill="black"/>
<path d="M25.375 23.4H26.25V24.3H25.375V23.4Z" fill="black"/>
<path d="M2.625 24.3H3.5V25.2H2.625V24.3Z" fill="black"/>
<path d="M3.5 24.3H4.375V25.2H3.5V24.3Z" fill="black"/>
<path d="M4.375 24.3H5.25V25.2H4.375V24.3Z" fill="black"/>
<path d="M5.25 24.3H6.125V25.2H5.25V24.3Z" fill="black"/>
<path d="M6.125 24.3H7V25.2H6.125V24.3Z" fill="black"/>
<path d="M7 24.3H7.875V25.2H7V24.3Z" fill="black"/>
<path d="M7.875 24.3H8.75V25.2H7.875V24.3Z" fill="black"/>
<path d="M8.75 24.3H9.625V25.2H8.75V24.3Z" fill="black"/>
<path d="M9.625 24.3H10.5V25.2H9.625V24.3Z" fill="black"/>
<path d="M10.5 24.3H11.375V25.2H10.5V24.3Z" fill="black"/>
<path d="M11.375 24.3H12.25V25.2H11.375V24.3Z" fill="black"/>
<path d="M12.25 24.3H13.125V25.2H12.25V24.3Z" fill="black"/>
<path d="M13.125 24.3H14V25.2H13.125V24.3Z" fill="black"/>
<path d="M14 24.3H14.875V25.2H14V24.3Z" fill="black"/>
<path d="M14.875 24.3H15.75V25.2H14.875V24.3Z" fill="black"/>
<path d="M15.75 24.3H16.625V25.2H15.75V24.3Z" fill="black"/>
<path d="M16.625 24.3H17.5V25.2H16.625V24.3Z" fill="black"/>
<path d="M17.5 24.3H18.375V25.2H17.5V24.3Z" fill="black"/>
<path d="M18.375 24.3H19.25V25.2H18.375V24.3Z" fill="black"/>
<path d="M19.25 24.3H20.125V25.2H19.25V24.3Z" fill="black"/>
<path d="M20.125 24.3H21V25.2H20.125V24.3Z" fill="black"/>
<path d="M21 24.3H21.875V25.2H21V24.3Z" fill="black"/>
<path d="M21.875 24.3H22.75L22.75 25.2H21.875V24.3Z" fill="black"/>
<path d="M22.75 24.3H23.625V25.2H22.75L22.75 24.3Z" fill="black"/>
<path d="M23.625 24.3H24.5V25.2H23.625V24.3Z" fill="black"/>
<path d="M24.5 24.3H25.375V25.2H24.5V24.3Z" fill="black"/>
<path d="M3.5 25.2H4.375V26.1H3.5V25.2Z" fill="black"/>
<path d="M4.375 25.2H5.25V26.1H4.375V25.2Z" fill="black"/>
<path d="M5.25 25.2H6.125V26.1H5.25V25.2Z" fill="black"/>
<path d="M6.125 25.2H7V26.1H6.125V25.2Z" fill="black"/>
<path d="M7 25.2H7.875V26.1H7V25.2Z" fill="black"/>
<path d="M7.875 25.2H8.75V26.1H7.875V25.2Z" fill="black"/>
<path d="M8.75 25.2H9.625V26.1H8.75V25.2Z" fill="black"/>
<path d="M9.625 25.2H10.5V26.1H9.625V25.2Z" fill="black"/>
<path d="M10.5 25.2H11.375V26.1H10.5V25.2Z" fill="black"/>
<path d="M11.375 25.2H12.25V26.1H11.375V25.2Z" fill="black"/>
<path d="M12.25 25.2H13.125V26.1H12.25V25.2Z" fill="black"/>
<path d="M13.125 25.2H14V26.1H13.125V25.2Z" fill="black"/>
<path d="M14 25.2H14.875V26.1H14V25.2Z" fill="black"/>
<path d="M14.875 25.2H15.75V26.1H14.875V25.2Z" fill="black"/>
<path d="M15.75 25.2H16.625V26.1H15.75V25.2Z" fill="black"/>
<path d="M16.625 25.2H17.5V26.1H16.625V25.2Z" fill="black"/>
<path d="M17.5 25.2H18.375V26.1H17.5V25.2Z" fill="black"/>
<path d="M18.375 25.2H19.25V26.1H18.375V25.2Z" fill="black"/>
<path d="M19.25 25.2H20.125V26.1H19.25V25.2Z" fill="black"/>
<path d="M20.125 25.2H21V26.1H20.125V25.2Z" fill="black"/>
<path d="M21 25.2H21.875V26.1H21V25.2Z" fill="black"/>
<path d="M21.875 25.2H22.75V26.1H21.875V25.2Z" fill="black"/>
<path d="M22.75 25.2H23.625V26.1H22.75V25.2Z" fill="black"/>
<path d="M23.625 25.2H24.5V26.1H23.625V25.2Z" fill="black"/>
<path d="M5.25 26.1H6.125V27H5.25V26.1Z" fill="black"/>
<path d="M6.125 26.1H7V27H6.125V26.1Z" fill="black"/>
<path d="M7 26.1H7.875V27H7V26.1Z" fill="black"/>
<path d="M7.875 26.1H8.75V27H7.875V26.1Z" fill="black"/>
<path d="M8.75 26.1H9.625V27H8.75V26.1Z" fill="black"/>
<path d="M9.625 26.1H10.5V27H9.625V26.1Z" fill="black"/>
<path d="M10.5 26.1H11.375V27H10.5V26.1Z" fill="black"/>
<path d="M11.375 26.1H12.25V27H11.375V26.1Z" fill="black"/>
<path d="M12.25 26.1H13.125V27H12.25V26.1Z" fill="black"/>
<path d="M13.125 26.1H14V27H13.125V26.1Z" fill="black"/>
<path d="M14 26.1H14.875V27H14V26.1Z" fill="black"/>
<path d="M14.875 26.1H15.75V27H14.875V26.1Z" fill="black"/>
<path d="M15.75 26.1H16.625V27H15.75V26.1Z" fill="black"/>
<path d="M16.625 26.1H17.5V27H16.625V26.1Z" fill="black"/>
<path d="M17.5 26.1H18.375V27H17.5V26.1Z" fill="black"/>
<path d="M18.375 26.1H19.25V27H18.375V26.1Z" fill="black"/>
<path d="M19.25 26.1H20.125V27H19.25V26.1Z" fill="black"/>
<path d="M20.125 26.1H21V27H20.125V26.1Z" fill="black"/>
<path d="M21 26.1H21.875V27H21V26.1Z" fill="black"/>
<path d="M21.875 26.1H22.75V27H21.875V26.1Z" fill="black"/>
<path d="M22.75 26.1H23.625V27H22.75V26.1Z" fill="black"/>
</svg>
