<svg width="27" height="27" viewBox="0 0 27 27" fill="none" xmlns="http://www.w3.org/2000/svg">
<path d="M1.92857 0H2.89286V0.964286H1.92857V0Z" fill="black"/>
<path d="M2.89286 0H3.85714V0.964286H2.89286V0Z" fill="black"/>
<path d="M3.85714 0H4.82143V0.964286H3.85714V0Z" fill="black"/>
<path d="M4.82143 0H5.78571V0.964286H4.82143V0Z" fill="black"/>
<path d="M5.78571 0H6.75V0.964286H5.78571V0Z" fill="black"/>
<path d="M6.75 0H7.71429V0.964286H6.75V0Z" fill="black"/>
<path d="M7.71429 0H8.67857V0.964286H7.71429V0Z" fill="black"/>
<path d="M8.67857 0H9.64286V0.964286H8.67857V0Z" fill="black"/>
<path d="M9.64286 0H10.6071V0.964286H9.64286V0Z" fill="black"/>
<path d="M10.6071 0H11.5714V0.964286H10.6071V0Z" fill="black"/>
<path d="M11.5714 0H12.5357V0.964286H11.5714V0Z" fill="black"/>
<path d="M12.5357 0H13.5V0.964286H12.5357V0Z" fill="black"/>
<path d="M13.5 0H14.4643V0.964286H13.5V0Z" fill="black"/>
<path d="M14.4643 0H15.4286V0.964286H14.4643V0Z" fill="black"/>
<path d="M15.4286 0H16.3929V0.964286H15.4286V0Z" fill="black"/>
<path d="M16.3929 0H17.3571V0.964286H16.3929V0Z" fill="black"/>
<path d="M17.3571 0H18.3214V0.964286H17.3571V0Z" fill="black"/>
<path d="M18.3214 0H19.2857V0.964286H18.3214V0Z" fill="black"/>
<path d="M19.2857 0H20.25V0.964286H19.2857V0Z" fill="black"/>
<path d="M20.25 0H21.2143V0.964286H20.25V0Z" fill="black"/>
<path d="M21.2143 0H22.1786V0.964286H21.2143V0Z" fill="black"/>
<path d="M22.1786 0H23.1429V0.964286H22.1786V0Z" fill="black"/>
<path d="M23.1429 0H24.1071V0.964286H23.1429V0Z" fill="black"/>
<path d="M0 0.964286H0.964286V1.92857H0V0.964286Z" fill="black"/>
<path d="M0.964286 0.964286H1.92857V1.92857H0.964286V0.964286Z" fill="black"/>
<path d="M1.92857 0.964286H2.89286V1.92857H1.92857V0.964286Z" fill="black"/>
<path d="M2.89286 0.964286H3.85714V1.92857H2.89286V0.964286Z" fill="black"/>
<path d="M3.85714 0.964286H4.82143V1.92857H3.85714V0.964286Z" fill="black"/>
<path d="M4.82143 0.964286H5.78571V1.92857H4.82143V0.964286Z" fill="black"/>
<path d="M5.78571 0.964286H6.75V1.92857H5.78571V0.964286Z" fill="black"/>
<path d="M6.75 0.964286H7.71429V1.92857H6.75V0.964286Z" fill="black"/>
<path d="M7.71429 0.964286H8.67857V1.92857H7.71429V0.964286Z" fill="black"/>
<path d="M8.67857 0.964286H9.64286V1.92857H8.67857V0.964286Z" fill="black"/>
<path d="M9.64286 0.964286H10.6071V1.92857H9.64286V0.964286Z" fill="black"/>
<path d="M10.6071 0.964286H11.5714V1.92857H10.6071V0.964286Z" fill="black"/>
<path d="M11.5714 0.964286H12.5357V1.92857H11.5714V0.964286Z" fill="black"/>
<path d="M12.5357 0.964286H13.5V1.92857H12.5357V0.964286Z" fill="black"/>
<path d="M13.5 0.964286H14.4643V1.92857H13.5V0.964286Z" fill="black"/>
<path d="M14.4643 0.964286H15.4286V1.92857H14.4643V0.964286Z" fill="black"/>
<path d="M15.4286 0.964286H16.3929V1.92857H15.4286V0.964286Z" fill="black"/>
<path d="M16.3929 0.964286H17.3571V1.92857H16.3929V0.964286Z" fill="black"/>
<path d="M17.3571 0.964286H18.3214V1.92857H17.3571V0.964286Z" fill="black"/>
<path d="M18.3214 0.964286H19.2857V1.92857H18.3214V0.964286Z" fill="black"/>
<path d="M19.2857 0.964286H20.25V1.92857H19.2857V0.964286Z" fill="black"/>
<path d="M20.25 0.964286H21.2143V1.92857H20.25V0.964286Z" fill="black"/>
<path d="M21.2143 0.964286H22.1786V1.92857H21.2143V0.964286Z" fill="black"/>
<path d="M22.1786 0.964286H23.1429V1.92857H22.1786V0.964286Z" fill="black"/>
<path d="M23.1429 0.964286H24.1071V1.92857H23.1429V0.964286Z" fill="black"/>
<path d="M24.1071 0.964286H25.0714V1.92857H24.1071V0.964286Z" fill="black"/>
<path d="M25.0714 0.964286H26.0357V1.92857H25.0714V0.964286Z" fill="black"/>
<path d="M0 1.92857H0.964286V2.89286H0V1.92857Z" fill="black"/>
<path d="M0.964286 1.92857H1.92857V2.89286H0.964286V1.92857Z" fill="black"/>
<path d="M1.92857 1.92857H2.89286V2.89286H1.92857V1.92857Z" fill="black"/>
<path d="M2.89286 1.92857H3.85714V2.89286H2.89286V1.92857Z" fill="black"/>
<path d="M3.85714 1.92857H4.82143V2.89286H3.85714V1.92857Z" fill="black"/>
<path d="M4.82143 1.92857H5.78571V2.89286H4.82143V1.92857Z" fill="black"/>
<path d="M5.78571 1.92857H6.75V2.89286H5.78571V1.92857Z" fill="black"/>
<path d="M6.75 1.92857H7.71429V2.89286H6.75V1.92857Z" fill="black"/>
<path d="M7.71429 1.92857H8.67857V2.89286H7.71429V1.92857Z" fill="black"/>
<path d="M8.67857 1.92857H9.64286V2.89286H8.67857V1.92857Z" fill="black"/>
<path d="M9.64286 1.92857H10.6071V2.89286H9.64286V1.92857Z" fill="black"/>
<path d="M10.6071 1.92857H11.5714V2.89286H10.6071V1.92857Z" fill="black"/>
<path d="M11.5714 1.92857H12.5357V2.89286H11.5714V1.92857Z" fill="black"/>
<path d="M12.5357 1.92857H13.5V2.89286H12.5357V1.92857Z" fill="black"/>
<path d="M13.5 1.92857H14.4643V2.89286H13.5V1.92857Z" fill="black"/>
<path d="M14.4643 1.92857H15.4286V2.89286H14.4643V1.92857Z" fill="black"/>
<path d="M15.4286 1.92857H16.3929V2.89286H15.4286V1.92857Z" fill="black"/>
<path d="M16.3929 1.92857H17.3571V2.89286H16.3929V1.92857Z" fill="black"/>
<path d="M17.3571 1.92857H18.3214V2.89286H17.3571V1.92857Z" fill="black"/>
<path d="M18.3214 1.92857H19.2857V2.89286H18.3214V1.92857Z" fill="black"/>
<path d="M19.2857 1.92857H20.25V2.89286H19.2857V1.92857Z" fill="black"/>
<path d="M20.25 1.92857H21.2143V2.89286H20.25V1.92857Z" fill="black"/>
<path d="M21.2143 1.92857H22.1786V2.89286H21.2143V1.92857Z" fill="black"/>
<path d="M22.1786 1.92857H23.1429V2.89286H22.1786V1.92857Z" fill="black"/>
<path d="M23.1429 1.92857H24.1071V2.89286H23.1429V1.92857Z" fill="black"/>
<path d="M24.1071 1.92857H25.0714V2.89286H24.1071V1.92857Z" fill="black"/>
<path d="M25.0714 1.92857H26.0357V2.89286H25.0714V1.92857Z" fill="black"/>
<path d="M26.0357 1.92857H27V2.89286H26.0357V1.92857Z" fill="black"/>
<path d="M0 2.89286H0.964286V3.85714H0V2.89286Z" fill="black"/>
<path d="M0.964286 2.89286H1.92857V3.85714H0.964286V2.89286Z" fill="black"/>
<path d="M1.92857 2.89286H2.89286V3.85714H1.92857V2.89286Z" fill="black"/>
<path d="M2.89286 2.89286H3.85714V3.85714H2.89286V2.89286Z" fill="black"/>
<path d="M3.85714 2.89286H4.82143V3.85714H3.85714V2.89286Z" fill="black"/>
<path d="M4.82143 2.89286H5.78571V3.85714H4.82143V2.89286Z" fill="black"/>
<path d="M5.78571 2.89286H6.75V3.85714H5.78571V2.89286Z" fill="black"/>
<path d="M6.75 2.89286H7.71429V3.85714H6.75V2.89286Z" fill="black"/>
<path d="M7.71429 2.89286H8.67857V3.85714H7.71429V2.89286Z" fill="black"/>
<path d="M8.67857 2.89286H9.64286V3.85714H8.67857V2.89286Z" fill="black"/>
<path d="M9.64286 2.89286H10.6071V3.85714H9.64286V2.89286Z" fill="black"/>
<path d="M10.6071 2.89286H11.5714V3.85714H10.6071V2.89286Z" fill="black"/>
<path d="M11.5714 2.89286H12.5357V3.85714H11.5714V2.89286Z" fill="black"/>
<path d="M12.5357 2.89286H13.5V3.85714H12.5357V2.89286Z" fill="black"/>
<path d="M13.5 2.89286H14.4643V3.85714H13.5V2.89286Z" fill="black"/>
<path d="M14.4643 2.89286H15.4286V3.85714H14.4643V2.89286Z" fill="black"/>
<path d="M15.4286 2.89286H16.3929V3.85714H15.4286V2.89286Z" fill="black"/>
<path d="M16.3929 2.89286H17.3571V3.85714H16.3929V2.89286Z" fill="black"/>
<path d="M17.3571 2.89286H18.3214V3.85714H17.3571V2.89286Z" fill="black"/>
<path d="M18.3214 2.89286H19.2857V3.85714H18.3214V2.89286Z" fill="black"/>
<path d="M19.2857 2.89286H20.25V3.85714H19.2857V2.89286Z" fill="black"/>
<path d="M20.25 2.89286H21.2143V3.85714H20.25V2.89286Z" fill="black"/>
<path d="M21.2143 2.89286H22.1786V3.85714H21.2143V2.89286Z" fill="black"/>
<path d="M22.1786 2.89286H23.1429V3.85714H22.1786V2.89286Z" fill="black"/>
<path d="M23.1429 2.89286H24.1071V3.85714H23.1429V2.89286Z" fill="black"/>
<path d="M24.1071 2.89286H25.0714V3.85714H24.1071V2.89286Z" fill="black"/>
<path d="M25.0714 2.89286H26.0357V3.85714H25.0714V2.89286Z" fill="black"/>
<path d="M26.0357 2.89286H27V3.85714H26.0357V2.89286Z" fill="black"/>
<path d="M0 3.85714H0.964286V4.82143H0V3.85714Z" fill="black"/>
<path d="M0.964286 3.85714H1.92857V4.82143H0.964286V3.85714Z" fill="black"/>
<path d="M1.92857 3.85714H2.89286V4.82143H1.92857V3.85714Z" fill="black"/>
<path d="M2.89286 3.85714H3.85714V4.82143H2.89286V3.85714Z" fill="black"/>
<path d="M6.75 3.85714H7.71429V4.82143H6.75V3.85714Z" fill="black"/>
<path d="M7.71429 3.85714H8.67857V4.82143H7.71429V3.85714Z" fill="black"/>
<path d="M8.67857 3.85714H9.64286V4.82143H8.67857V3.85714Z" fill="black"/>
<path d="M9.64286 3.85714H10.6071V4.82143H9.64286V3.85714Z" fill="black"/>
<path d="M10.6071 3.85714H11.5714V4.82143H10.6071V3.85714Z" fill="black"/>
<path d="M11.5714 3.85714H12.5357V4.82143H11.5714V3.85714Z" fill="black"/>
<path d="M12.5357 3.85714H13.5V4.82143H12.5357V3.85714Z" fill="black"/>
<path d="M13.5 3.85714H14.4643V4.82143H13.5V3.85714Z" fill="black"/>
<path d="M14.4643 3.85714H15.4286V4.82143H14.4643V3.85714Z" fill="black"/>
<path d="M15.4286 3.85714H16.3929V4.82143H15.4286V3.85714Z" fill="black"/>
<path d="M16.3929 3.85714H17.3571V4.82143H16.3929V3.85714Z" fill="black"/>
<path d="M17.3571 3.85714H18.3214V4.82143H17.3571V3.85714Z" fill="black"/>
<path d="M18.3214 3.85714H19.2857V4.82143H18.3214V3.85714Z" fill="black"/>
<path d="M19.2857 3.85714H20.25V4.82143H19.2857V3.85714Z" fill="black"/>
<path d="M20.25 3.85714H21.2143V4.82143H20.25V3.85714Z" fill="black"/>
<path d="M21.2143 3.85714H22.1786V4.82143H21.2143V3.85714Z" fill="black"/>
<path d="M22.1786 3.85714H23.1429V4.82143H22.1786V3.85714Z" fill="black"/>
<path d="M23.1429 3.85714H24.1071V4.82143H23.1429V3.85714Z" fill="black"/>
<path d="M24.1071 3.85714H25.0714V4.82143H24.1071V3.85714Z" fill="black"/>
<path d="M25.0714 3.85714H26.0357V4.82143H25.0714V3.85714Z" fill="black"/>
<path d="M26.0357 3.85714H27V4.82143H26.0357V3.85714Z" fill="black"/>
<path d="M0 4.82143H0.964286V5.78571H0V4.82143Z" fill="black"/>
<path d="M0.964286 4.82143H1.92857V5.78571H0.964286V4.82143Z" fill="black"/>
<path d="M1.92857 4.82143H2.89286V5.78571H1.92857V4.82143Z" fill="black"/>
<path d="M7.71429 4.82143H8.67857V5.78571H7.71429V4.82143Z" fill="black"/>
<path d="M8.67857 4.82143H9.64286V5.78571H8.67857V4.82143Z" fill="black"/>
<path d="M9.64286 4.82143H10.6071V5.78571H9.64286V4.82143Z" fill="black"/>
<path d="M10.6071 4.82143H11.5714V5.78571H10.6071V4.82143Z" fill="black"/>
<path d="M11.5714 4.82143H12.5357V5.78571H11.5714V4.82143Z" fill="black"/>
<path d="M12.5357 4.82143H13.5V5.78571H12.5357V4.82143Z" fill="black"/>
<path d="M13.5 4.82143H14.4643V5.78571H13.5V4.82143Z" fill="black"/>
<path d="M14.4643 4.82143H15.4286V5.78571H14.4643V4.82143Z" fill="black"/>
<path d="M15.4286 4.82143H16.3929V5.78571H15.4286V4.82143Z" fill="black"/>
<path d="M16.3929 4.82143H17.3571V5.78571H16.3929V4.82143Z" fill="black"/>
<path d="M17.3571 4.82143H18.3214V5.78571H17.3571V4.82143Z" fill="black"/>
<path d="M18.3214 4.82143H19.2857V5.78571H18.3214V4.82143Z" fill="black"/>
<path d="M19.2857 4.82143H20.25V5.78571H19.2857V4.82143Z" fill="black"/>
<path d="M20.25 4.82143H21.2143V5.78571H20.25V4.82143Z" fill="black"/>
<path d="M21.2143 4.82143H22.1786V5.78571H21.2143V4.82143Z" fill="black"/>
<path d="M22.1786 4.82143H23.1429V5.78571H22.1786V4.82143Z" fill="black"/>
<path d="M23.1429 4.82143H24.1071V5.78571H23.1429V4.82143Z" fill="black"/>
<path d="M24.1071 4.82143H25.0714V5.78571H24.1071V4.82143Z" fill="black"/>
<path d="M25.0714 4.82143H26.0357V5.78571H25.0714V4.82143Z" fill="black"/>
<path d="M26.0357 4.82143H27V5.78571H26.0357V4.82143Z" fill="black"/>
<path d="M0 5.78571H0.964286V6.75H0V5.78571Z" fill="black"/>
<path d="M0.964286 5.78571H1.92857V6.75H0.964286V5.78571Z" fill="black"/>
<path d="M1.92857 5.78571H2.89286V6.75H1.92857V5.78571Z" fill="black"/>
<path d="M7.71429 5.78571H8.67857V6.75H7.71429V5.78571Z" fill="black"/>
<path d="M8.67857 5.78571H9.64286V6.75H8.67857V5.78571Z" fill="black"/>
<path d="M9.64286 5.78571H10.6071V6.75H9.64286V5.78571Z" fill="black"/>
<path d="M10.6071 5.78571H11.5714V6.75H10.6071V5.78571Z" fill="black"/>
<path d="M11.5714 5.78571H12.5357V6.75H11.5714V5.78571Z" fill="black"/>
<path d="M12.5357 5.78571H13.5V6.75H12.5357V5.78571Z" fill="black"/>
<path d="M13.5 5.78571H14.4643V6.75H13.5V5.78571Z" fill="black"/>
<path d="M14.4643 5.78571H15.4286V6.75H14.4643V5.78571Z" fill="black"/>
<path d="M15.4286 5.78571H16.3929V6.75H15.4286V5.78571Z" fill="black"/>
<path d="M16.3929 5.78571H17.3571V6.75H16.3929V5.78571Z" fill="black"/>
<path d="M17.3571 5.78571H18.3214V6.75H17.3571V5.78571Z" fill="black"/>
<path d="M18.3214 5.78571H19.2857V6.75H18.3214V5.78571Z" fill="black"/>
<path d="M19.2857 5.78571H20.25V6.75H19.2857V5.78571Z" fill="black"/>
<path d="M20.25 5.78571H21.2143V6.75H20.25V5.78571Z" fill="black"/>
<path d="M21.2143 5.78571H22.1786V6.75H21.2143V5.78571Z" fill="black"/>
<path d="M22.1786 5.78571H23.1429V6.75H22.1786V5.78571Z" fill="black"/>
<path d="M23.1429 5.78571H24.1071V6.75H23.1429V5.78571Z" fill="black"/>
<path d="M24.1071 5.78571H25.0714V6.75H24.1071V5.78571Z" fill="black"/>
<path d="M25.0714 5.78571H26.0357V6.75H25.0714V5.78571Z" fill="black"/>
<path d="M26.0357 5.78571H27V6.75H26.0357V5.78571Z" fill="black"/>
<path d="M0 6.75H0.964286V7.71429H0V6.75Z" fill="black"/>
<path d="M0.964286 6.75H1.92857V7.71429H0.964286V6.75Z" fill="black"/>
<path d="M1.92857 6.75H2.89286V7.71429H1.92857V6.75Z" fill="black"/>
<path d="M7.71429 6.75H8.67857V7.71429H7.71429V6.75Z" fill="black"/>
<path d="M8.67857 6.75H9.64286V7.71429H8.67857V6.75Z" fill="black"/>
<path d="M9.64286 6.75H10.6071V7.71429H9.64286V6.75Z" fill="black"/>
<path d="M10.6071 6.75H11.5714V7.71429H10.6071V6.75Z" fill="black"/>
<path d="M11.5714 6.75H12.5357V7.71429H11.5714V6.75Z" fill="black"/>
<path d="M12.5357 6.75H13.5V7.71429H12.5357V6.75Z" fill="black"/>
<path d="M13.5 6.75H14.4643V7.71429H13.5V6.75Z" fill="black"/>
<path d="M14.4643 6.75H15.4286V7.71429H14.4643V6.75Z" fill="black"/>
<path d="M15.4286 6.75H16.3929V7.71429H15.4286V6.75Z" fill="black"/>
<path d="M16.3929 6.75H17.3571V7.71429H16.3929V6.75Z" fill="black"/>
<path d="M17.3571 6.75H18.3214V7.71429H17.3571V6.75Z" fill="black"/>
<path d="M18.3214 6.75H19.2857V7.71429H18.3214V6.75Z" fill="black"/>
<path d="M19.2857 6.75H20.25V7.71429H19.2857V6.75Z" fill="black"/>
<path d="M20.25 6.75H21.2143V7.71429H20.25V6.75Z" fill="black"/>
<path d="M21.2143 6.75H22.1786V7.71429H21.2143V6.75Z" fill="black"/>
<path d="M22.1786 6.75H23.1429V7.71429H22.1786V6.75Z" fill="black"/>
<path d="M23.1429 6.75H24.1071V7.71429H23.1429V6.75Z" fill="black"/>
<path d="M24.1071 6.75H25.0714V7.71429H24.1071V6.75Z" fill="black"/>
<path d="M25.0714 6.75H26.0357V7.71429H25.0714V6.75Z" fill="black"/>
<path d="M26.0357 6.75H27V7.71429H26.0357V6.75Z" fill="black"/>
<path d="M0 7.71429H0.964286V8.67857H0V7.71429Z" fill="black"/>
<path d="M0.964286 7.71429H1.92857V8.67857H0.964286V7.71429Z" fill="black"/>
<path d="M1.92857 7.71429H2.89286V8.67857H1.92857V7.71429Z" fill="black"/>
<path d="M2.89286 7.71429H3.85714V8.67857H2.89286V7.71429Z" fill="black"/>
<path d="M6.75 7.71429H7.71429V8.67857H6.75V7.71429Z" fill="black"/>
<path d="M7.71429 7.71429H8.67857V8.67857H7.71429V7.71429Z" fill="black"/>
<path d="M8.67857 7.71429H9.64286V8.67857H8.67857V7.71429Z" fill="black"/>
<path d="M9.64286 7.71429H10.6071V8.67857H9.64286V7.71429Z" fill="black"/>
<path d="M10.6071 7.71429H11.5714V8.67857H10.6071V7.71429Z" fill="black"/>
<path d="M11.5714 7.71429H12.5357V8.67857H11.5714V7.71429Z" fill="black"/>
<path d="M12.5357 7.71429H13.5V8.67857H12.5357V7.71429Z" fill="black"/>
<path d="M13.5 7.71429H14.4643V8.67857H13.5V7.71429Z" fill="black"/>
<path d="M14.4643 7.71429H15.4286V8.67857H14.4643V7.71429Z" fill="black"/>
<path d="M15.4286 7.71429H16.3929V8.67857H15.4286V7.71429Z" fill="black"/>
<path d="M16.3929 7.71429H17.3571V8.67857H16.3929V7.71429Z" fill="black"/>
<path d="M17.3571 7.71429H18.3214V8.67857H17.3571V7.71429Z" fill="black"/>
<path d="M18.3214 7.71429H19.2857V8.67857H18.3214V7.71429Z" fill="black"/>
<path d="M19.2857 7.71429H20.25V8.67857H19.2857V7.71429Z" fill="black"/>
<path d="M20.25 7.71429H21.2143V8.67857H20.25V7.71429Z" fill="black"/>
<path d="M21.2143 7.71429H22.1786V8.67857H21.2143V7.71429Z" fill="black"/>
<path d="M22.1786 7.71429H23.1429V8.67857H22.1786V7.71429Z" fill="black"/>
<path d="M23.1429 7.71429H24.1071V8.67857H23.1429V7.71429Z" fill="black"/>
<path d="M24.1071 7.71429H25.0714V8.67857H24.1071V7.71429Z" fill="black"/>
<path d="M25.0714 7.71429H26.0357V8.67857H25.0714V7.71429Z" fill="black"/>
<path d="M26.0357 7.71429H27V8.67857H26.0357V7.71429Z" fill="black"/>
<path d="M0 8.67857H0.964286V9.64286H0V8.67857Z" fill="black"/>
<path d="M0.964286 8.67857H1.92857V9.64286H0.964286V8.67857Z" fill="black"/>
<path d="M1.92857 8.67857H2.89286V9.64286H1.92857V8.67857Z" fill="black"/>
<path d="M2.89286 8.67857H3.85714V9.64286H2.89286V8.67857Z" fill="black"/>
<path d="M3.85714 8.67857H4.82143V9.64286H3.85714V8.67857Z" fill="black"/>
<path d="M4.82143 8.67857H5.78571V9.64286H4.82143V8.67857Z" fill="black"/>
<path d="M5.78571 8.67857H6.75V9.64286H5.78571V8.67857Z" fill="black"/>
<path d="M6.75 8.67857H7.71429V9.64286H6.75V8.67857Z" fill="black"/>
<path d="M7.71429 8.67857H8.67857V9.64286H7.71429V8.67857Z" fill="black"/>
<path d="M8.67857 8.67857H9.64286V9.64286H8.67857V8.67857Z" fill="black"/>
<path d="M9.64286 8.67857H10.6071V9.64286H9.64286V8.67857Z" fill="black"/>
<path d="M10.6071 8.67857H11.5714V9.64286H10.6071V8.67857Z" fill="black"/>
<path d="M11.5714 8.67857H12.5357V9.64286H11.5714V8.67857Z" fill="black"/>
<path d="M12.5357 8.67857H13.5V9.64286H12.5357V8.67857Z" fill="black"/>
<path d="M13.5 8.67857H14.4643V9.64286H13.5V8.67857Z" fill="black"/>
<path d="M14.4643 8.67857H15.4286V9.64286H14.4643V8.67857Z" fill="black"/>
<path d="M15.4286 8.67857H16.3929V9.64286H15.4286V8.67857Z" fill="black"/>
<path d="M16.3929 8.67857H17.3571V9.64286H16.3929V8.67857Z" fill="black"/>
<path d="M17.3571 8.67857H18.3214V9.64286H17.3571V8.67857Z" fill="black"/>
<path d="M18.3214 8.67857H19.2857V9.64286H18.3214V8.67857Z" fill="black"/>
<path d="M19.2857 8.67857H20.25V9.64286H19.2857V8.67857Z" fill="black"/>
<path d="M20.25 8.67857H21.2143V9.64286H20.25V8.67857Z" fill="black"/>
<path d="M21.2143 8.67857H22.1786V9.64286H21.2143V8.67857Z" fill="black"/>
<path d="M22.1786 8.67857H23.1429V9.64286H22.1786V8.67857Z" fill="black"/>
<path d="M23.1429 8.67857H24.1071V9.64286H23.1429V8.67857Z" fill="black"/>
<path d="M24.1071 8.67857H25.0714V9.64286H24.1071V8.67857Z" fill="black"/>
<path d="M25.0714 8.67857H26.0357V9.64286H25.0714V8.67857Z" fill="black"/>
<path d="M26.0357 8.67857H27V9.64286H26.0357V8.67857Z" fill="black"/>
<path d="M0 9.64286H0.964286V10.6071H0V9.64286Z" fill="black"/>
<path d="M0.964286 9.64286H1.92857V10.6071H0.964286V9.64286Z" fill="black"/>
<path d="M1.92857 9.64286H2.89286V10.6071H1.92857V9.64286Z" fill="black"/>
<path d="M2.89286 9.64286H3.85714V10.6071H2.89286V9.64286Z" fill="black"/>
<path d="M3.85714 9.64286H4.82143V10.6071H3.85714V9.64286Z" fill="black"/>
<path d="M4.82143 9.64286H5.78571V10.6071H4.82143V9.64286Z" fill="black"/>
<path d="M5.78571 9.64286H6.75V10.6071H5.78571V9.64286Z" fill="black"/>
<path d="M6.75 9.64286H7.71429V10.6071H6.75V9.64286Z" fill="black"/>
<path d="M7.71429 9.64286H8.67857V10.6071H7.71429V9.64286Z" fill="black"/>
<path d="M8.67857 9.64286H9.64286V10.6071H8.67857V9.64286Z" fill="black"/>
<path d="M9.64286 9.64286H10.6071V10.6071H9.64286V9.64286Z" fill="black"/>
<path d="M10.6071 9.64286H11.5714V10.6071H10.6071V9.64286Z" fill="black"/>
<path d="M11.5714 9.64286H12.5357V10.6071H11.5714V9.64286Z" fill="black"/>
<path d="M12.5357 9.64286H13.5V10.6071H12.5357V9.64286Z" fill="black"/>
<path d="M13.5 9.64286H14.4643V10.6071H13.5V9.64286Z" fill="black"/>
<path d="M14.4643 9.64286H15.4286V10.6071H14.4643V9.64286Z" fill="black"/>
<path d="M15.4286 9.64286H16.3929V10.6071H15.4286V9.64286Z" fill="black"/>
<path d="M16.3929 9.64286H17.3571V10.6071H16.3929V9.64286Z" fill="black"/>
<path d="M17.3571 9.64286H18.3214V10.6071H17.3571V9.64286Z" fill="black"/>
<path d="M18.3214 9.64286H19.2857V10.6071H18.3214V9.64286Z" fill="black"/>
<path d="M19.2857 9.64286H20.25V10.6071H19.2857V9.64286Z" fill="black"/>
<path d="M20.25 9.64286H21.2143V10.6071H20.25V9.64286Z" fill="black"/>
<path d="M21.2143 9.64286H22.1786V10.6071H21.2143V9.64286Z" fill="black"/>
<path d="M22.1786 9.64286H23.1429V10.6071H22.1786V9.64286Z" fill="black"/>
<path d="M23.1429 9.64286H24.1071V10.6071H23.1429V9.64286Z" fill="black"/>
<path d="M24.1071 9.64286H25.0714V10.6071H24.1071V9.64286Z" fill="black"/>
<path d="M25.0714 9.64286H26.0357V10.6071H25.0714V9.64286Z" fill="black"/>
<path d="M26.0357 9.64286H27V10.6071H26.0357V9.64286Z" fill="black"/>
<path d="M0 10.6071H0.964286V11.5714H0V10.6071Z" fill="black"/>
<path d="M0.964286 10.6071H1.92857V11.5714H0.964286V10.6071Z" fill="black"/>
<path d="M1.92857 10.6071H2.89286V11.5714H1.92857V10.6071Z" fill="black"/>
<path d="M7.71429 10.6071H8.67857V11.5714H7.71429V10.6071Z" fill="black"/>
<path d="M8.67857 10.6071H9.64286V11.5714H8.67857V10.6071Z" fill="black"/>
<path d="M9.64286 10.6071H10.6071V11.5714H9.64286V10.6071Z" fill="black"/>
<path d="M14.4643 10.6071H15.4286V11.5714H14.4643V10.6071Z" fill="black"/>
<path d="M15.4286 10.6071H16.3929V11.5714H15.4286V10.6071Z" fill="black"/>
<path d="M19.2857 10.6071H20.25V11.5714H19.2857L19.2857 10.6071Z" fill="black"/>
<path d="M20.25 10.6071H21.2143V11.5714H20.25V10.6071Z" fill="black"/>
<path d="M21.2143 10.6071H22.1786V11.5714H21.2143V10.6071Z" fill="black"/>
<path d="M22.1786 10.6071H23.1429V11.5714H22.1786V10.6071Z" fill="black"/>
<path d="M23.1429 10.6071H24.1071V11.5714H23.1429V10.6071Z" fill="black"/>
<path d="M24.1071 10.6071H25.0714V11.5714H24.1071V10.6071Z" fill="black"/>
<path d="M25.0714 10.6071H26.0357V11.5714H25.0714V10.6071Z" fill="black"/>
<path d="M26.0357 10.6071H27V11.5714H26.0357V10.6071Z" fill="black"/>
<path d="M0 11.5714H0.964286V12.5357H0V11.5714Z" fill="black"/>
<path d="M0.964286 11.5714H1.92857V12.5357H0.964286V11.5714Z" fill="black"/>
<path d="M1.92857 11.5714H2.89286V12.5357H1.92857V11.5714Z" fill="black"/>
<path d="M7.71429 11.5714H8.67857V12.5357H7.71429V11.5714Z" fill="black"/>
<path d="M8.67857 11.5714H9.64286V12.5357H8.67857V11.5714Z" fill="black"/>
<path d="M9.64286 11.5714H10.6071V12.5357H9.64286V11.5714Z" fill="black"/>
<path d="M14.4643 11.5714H15.4286V12.5357H14.4643V11.5714Z" fill="black"/>
<path d="M21.2143 11.5714H22.1786V12.5357H21.2143V11.5714Z" fill="black"/>
<path d="M22.1786 11.5714H23.1429V12.5357H22.1786V11.5714Z" fill="black"/>
<path d="M23.1429 11.5714H24.1071V12.5357H23.1429V11.5714Z" fill="black"/>
<path d="M24.1071 11.5714H25.0714V12.5357H24.1071V11.5714Z" fill="black"/>
<path d="M25.0714 11.5714H26.0357V12.5357H25.0714V11.5714Z" fill="black"/>
<path d="M26.0357 11.5714H27V12.5357H26.0357V11.5714Z" fill="black"/>
<path d="M0 12.5357H0.964286V13.5H0V12.5357Z" fill="black"/>
<path d="M0.964286 12.5357H1.92857V13.5H0.964286V12.5357Z" fill="black"/>
<path d="M1.92857 12.5357H2.89286V13.5H1.92857V12.5357Z" fill="black"/>
<path d="M7.71429 12.5357H8.67857V13.5H7.71429V12.5357Z" fill="black"/>
<path d="M8.67857 12.5357H9.64286V13.5H8.67857V12.5357Z" fill="black"/>
<path d="M9.64286 12.5357H10.6071V13.5H9.64286V12.5357Z" fill="black"/>
<path d="M22.1786 12.5357H23.1429V13.5H22.1786L22.1786 12.5357Z" fill="black"/>
<path d="M23.1429 12.5357H24.1071V13.5H23.1429V12.5357Z" fill="black"/>
<path d="M24.1071 12.5357H25.0714V13.5H24.1071V12.5357Z" fill="black"/>
<path d="M25.0714 12.5357H26.0357V13.5H25.0714V12.5357Z" fill="black"/>
<path d="M26.0357 12.5357H27V13.5H26.0357V12.5357Z" fill="black"/>
<path d="M0 13.5H0.964286V14.4643H0V13.5Z" fill="black"/>
<path d="M0.964286 13.5H1.92857V14.4643H0.964286V13.5Z" fill="black"/>
<path d="M1.92857 13.5H2.89286V14.4643H1.92857V13.5Z" fill="black"/>
<path d="M7.71429 13.5H8.67857V14.4643H7.71429V13.5Z" fill="black"/>
<path d="M8.67857 13.5H9.64286V14.4643H8.67857V13.5Z" fill="black"/>
<path d="M9.64286 13.5H10.6071V14.4643H9.64286V13.5Z" fill="black"/>
<path d="M22.1786 13.5H23.1429V14.4643H22.1786V13.5Z" fill="black"/>
<path d="M23.1429 13.5H24.1071V14.4643H23.1429V13.5Z" fill="black"/>
<path d="M24.1071 13.5H25.0714V14.4643H24.1071V13.5Z" fill="black"/>
<path d="M25.0714 13.5H26.0357V14.4643H25.0714V13.5Z" fill="black"/>
<path d="M26.0357 13.5H27V14.4643H26.0357V13.5Z" fill="black"/>
<path d="M0 14.4643H0.964286V15.4286H0V14.4643Z" fill="black"/>
<path d="M0.964286 14.4643H1.92857V15.4286H0.964286V14.4643Z" fill="black"/>
<path d="M1.92857 14.4643H2.89286V15.4286H1.92857V14.4643Z" fill="black"/>
<path d="M7.71429 14.4643H8.67857V15.4286H7.71429V14.4643Z" fill="black"/>
<path d="M8.67857 14.4643H9.64286V15.4286H8.67857V14.4643Z" fill="black"/>
<path d="M9.64286 14.4643H10.6071V15.4286H9.64286V14.4643Z" fill="black"/>
<path d="M14.4643 14.4643H15.4286V15.4286H14.4643V14.4643Z" fill="black"/>
<path d="M15.4286 14.4643H16.3929V15.4286H15.4286V14.4643Z" fill="black"/>
<path d="M16.3929 14.4643H17.3571V15.4286H16.3929V14.4643Z" fill="black"/>
<path d="M17.3571 14.4643H18.3214V15.4286H17.3571V14.4643Z" fill="black"/>
<path d="M23.1429 14.4643H24.1071V15.4286H23.1429V14.4643Z" fill="black"/>
<path d="M24.1071 14.4643H25.0714V15.4286H24.1071V14.4643Z" fill="black"/>
<path d="M25.0714 14.4643H26.0357V15.4286H25.0714V14.4643Z" fill="black"/>
<path d="M26.0357 14.4643H27V15.4286H26.0357V14.4643Z" fill="black"/>
<path d="M0 15.4286H0.964286V16.3929H0V15.4286Z" fill="black"/>
<path d="M0.964286 15.4286H1.92857V16.3929H0.964286V15.4286Z" fill="black"/>
<path d="M1.92857 15.4286H2.89286V16.3929H1.92857V15.4286Z" fill="black"/>
<path d="M7.71429 15.4286H8.67857V16.3929H7.71429V15.4286Z" fill="black"/>
<path d="M8.67857 15.4286H9.64286V16.3929H8.67857V15.4286Z" fill="black"/>
<path d="M9.64286 15.4286H10.6071V16.3929H9.64286V15.4286Z" fill="black"/>
<path d="M14.4643 15.4286H15.4286V16.3929H14.4643V15.4286Z" fill="black"/>
<path d="M15.4286 15.4286H16.3929V16.3929H15.4286V15.4286Z" fill="black"/>
<path d="M16.3929 15.4286H17.3571V16.3929H16.3929V15.4286Z" fill="black"/>
<path d="M17.3571 15.4286H18.3214V16.3929H17.3571V15.4286Z" fill="black"/>
<path d="M23.1429 15.4286H24.1071V16.3929H23.1429V15.4286Z" fill="black"/>
<path d="M24.1071 15.4286H25.0714V16.3929H24.1071V15.4286Z" fill="black"/>
<path d="M25.0714 15.4286H26.0357V16.3929H25.0714V15.4286Z" fill="black"/>
<path d="M26.0357 15.4286H27V16.3929H26.0357V15.4286Z" fill="black"/>
<path d="M0 16.3929H0.964286V17.3571H0V16.3929Z" fill="black"/>
<path d="M0.964286 16.3929H1.92857V17.3571H0.964286V16.3929Z" fill="black"/>
<path d="M1.92857 16.3929H2.89286V17.3571H1.92857V16.3929Z" fill="black"/>
<path d="M7.71429 16.3929H8.67857V17.3571H7.71429V16.3929Z" fill="black"/>
<path d="M8.67857 16.3929H9.64286V17.3571H8.67857V16.3929Z" fill="black"/>
<path d="M9.64286 16.3929H10.6071V17.3571H9.64286V16.3929Z" fill="black"/>
<path d="M14.4643 16.3929H15.4286V17.3571H14.4643V16.3929Z" fill="black"/>
<path d="M15.4286 16.3929H16.3929V17.3571H15.4286V16.3929Z" fill="black"/>
<path d="M16.3929 16.3929H17.3571V17.3571H16.3929V16.3929Z" fill="black"/>
<path d="M17.3571 16.3929H18.3214V17.3571H17.3571V16.3929Z" fill="black"/>
<path d="M23.1429 16.3929H24.1071V17.3571H23.1429V16.3929Z" fill="black"/>
<path d="M24.1071 16.3929H25.0714V17.3571H24.1071V16.3929Z" fill="black"/>
<path d="M25.0714 16.3929H26.0357V17.3571H25.0714V16.3929Z" fill="black"/>
<path d="M26.0357 16.3929H27V17.3571H26.0357V16.3929Z" fill="black"/>
<path d="M0 17.3571H0.964286V18.3214H0V17.3571Z" fill="black"/>
<path d="M0.964286 17.3571H1.92857V18.3214H0.964286V17.3571Z" fill="black"/>
<path d="M1.92857 17.3571H2.89286V18.3214H1.92857V17.3571Z" fill="black"/>
<path d="M7.71429 17.3571H8.67857V18.3214H7.71429V17.3571Z" fill="black"/>
<path d="M8.67857 17.3571H9.64286V18.3214H8.67857V17.3571Z" fill="black"/>
<path d="M9.64286 17.3571H10.6071V18.3214H9.64286V17.3571Z" fill="black"/>
<path d="M14.4643 17.3571H15.4286V18.3214H14.4643V17.3571Z" fill="black"/>
<path d="M15.4286 17.3571H16.3929V18.3214H15.4286V17.3571Z" fill="black"/>
<path d="M16.3929 17.3571H17.3571V18.3214H16.3929V17.3571Z" fill="black"/>
<path d="M17.3571 17.3571H18.3214V18.3214H17.3571V17.3571Z" fill="black"/>
<path d="M23.1429 17.3571H24.1071V18.3214H23.1429V17.3571Z" fill="black"/>
<path d="M24.1071 17.3571H25.0714V18.3214H24.1071V17.3571Z" fill="black"/>
<path d="M25.0714 17.3571H26.0357V18.3214H25.0714V17.3571Z" fill="black"/>
<path d="M26.0357 17.3571H27V18.3214H26.0357V17.3571Z" fill="black"/>
<path d="M0 18.3214H0.964286V19.2857H0V18.3214Z" fill="black"/>
<path d="M0.964286 18.3214H1.92857V19.2857H0.964286V18.3214Z" fill="black"/>
<path d="M1.92857 18.3214H2.89286V19.2857H1.92857V18.3214Z" fill="black"/>
<path d="M7.71429 18.3214H8.67857V19.2857H7.71429V18.3214Z" fill="black"/>
<path d="M8.67857 18.3214H9.64286V19.2857H8.67857V18.3214Z" fill="black"/>
<path d="M9.64286 18.3214H10.6071V19.2857H9.64286V18.3214Z" fill="black"/>
<path d="M14.4643 18.3214H15.4286V19.2857H14.4643V18.3214Z" fill="black"/>
<path d="M15.4286 18.3214H16.3929V19.2857H15.4286V18.3214Z" fill="black"/>
<path d="M16.3929 18.3214H17.3571V19.2857H16.3929V18.3214Z" fill="black"/>
<path d="M17.3571 18.3214H18.3214V19.2857H17.3571V18.3214Z" fill="black"/>
<path d="M23.1429 18.3214H24.1071V19.2857H23.1429V18.3214Z" fill="black"/>
<path d="M24.1071 18.3214H25.0714V19.2857H24.1071V18.3214Z" fill="black"/>
<path d="M25.0714 18.3214H26.0357V19.2857H25.0714V18.3214Z" fill="black"/>
<path d="M26.0357 18.3214H27V19.2857H26.0357V18.3214Z" fill="black"/>
<path d="M0 19.2857H0.964286V20.25H0V19.2857Z" fill="black"/>
<path d="M0.964286 19.2857H1.92857V20.25H0.964286V19.2857Z" fill="black"/>
<path d="M1.92857 19.2857H2.89286V20.25H1.92857V19.2857Z" fill="black"/>
<path d="M7.71429 19.2857H8.67857V20.25H7.71429V19.2857Z" fill="black"/>
<path d="M8.67857 19.2857H9.64286V20.25H8.67857V19.2857Z" fill="black"/>
<path d="M9.64286 19.2857H10.6071V20.25H9.64286V19.2857Z" fill="black"/>
<path d="M14.4643 19.2857H15.4286V20.25H14.4643V19.2857Z" fill="black"/>
<path d="M15.4286 19.2857H16.3929V20.25H15.4286V19.2857Z" fill="black"/>
<path d="M16.3929 19.2857H17.3571V20.25H16.3929V19.2857Z" fill="black"/>
<path d="M17.3571 19.2857H18.3214V20.25H17.3571V19.2857Z" fill="black"/>
<path d="M23.1429 19.2857H24.1071V20.25H23.1429V19.2857Z" fill="black"/>
<path d="M24.1071 19.2857H25.0714V20.25H24.1071V19.2857Z" fill="black"/>
<path d="M25.0714 19.2857H26.0357V20.25H25.0714V19.2857Z" fill="black"/>
<path d="M26.0357 19.2857H27V20.25H26.0357V19.2857Z" fill="black"/>
<path d="M0 20.25H0.964286V21.2143H0V20.25Z" fill="black"/>
<path d="M0.964286 20.25H1.92857V21.2143H0.964286V20.25Z" fill="black"/>
<path d="M1.92857 20.25H2.89286V21.2143H1.92857V20.25Z" fill="black"/>
<path d="M7.71429 20.25H8.67857V21.2143H7.71429V20.25Z" fill="black"/>
<path d="M8.67857 20.25H9.64286V21.2143H8.67857V20.25Z" fill="black"/>
<path d="M9.64286 20.25H10.6071V21.2143H9.64286V20.25Z" fill="black"/>
<path d="M14.4643 20.25H15.4286V21.2143H14.4643V20.25Z" fill="black"/>
<path d="M15.4286 20.25H16.3929V21.2143H15.4286V20.25Z" fill="black"/>
<path d="M16.3929 20.25H17.3571V21.2143H16.3929V20.25Z" fill="black"/>
<path d="M17.3571 20.25H18.3214V21.2143H17.3571V20.25Z" fill="black"/>
<path d="M23.1429 20.25H24.1071V21.2143H23.1429V20.25Z" fill="black"/>
<path d="M24.1071 20.25H25.0714V21.2143H24.1071V20.25Z" fill="black"/>
<path d="M25.0714 20.25H26.0357V21.2143H25.0714V20.25Z" fill="black"/>
<path d="M26.0357 20.25H27V21.2143H26.0357V20.25Z" fill="black"/>
<path d="M0 21.2143H0.964286V22.1786H0V21.2143Z" fill="black"/>
<path d="M0.964286 21.2143H1.92857V22.1786H0.964286V21.2143Z" fill="black"/>
<path d="M1.92857 21.2143H2.89286V22.1786H1.92857V21.2143Z" fill="black"/>
<path d="M7.71429 21.2143H8.67857V22.1786H7.71429V21.2143Z" fill="black"/>
<path d="M8.67857 21.2143H9.64286V22.1786H8.67857V21.2143Z" fill="black"/>
<path d="M9.64286 21.2143H10.6071V22.1786H9.64286V21.2143Z" fill="black"/>
<path d="M14.4643 21.2143H15.4286V22.1786H14.4643V21.2143Z" fill="black"/>
<path d="M15.4286 21.2143H16.3929V22.1786H15.4286V21.2143Z" fill="black"/>
<path d="M16.3929 21.2143H17.3571V22.1786H16.3929V21.2143Z" fill="black"/>
<path d="M17.3571 21.2143H18.3214V22.1786H17.3571V21.2143Z" fill="black"/>
<path d="M23.1429 21.2143H24.1071V22.1786H23.1429V21.2143Z" fill="black"/>
<path d="M24.1071 21.2143H25.0714V22.1786H24.1071V21.2143Z" fill="black"/>
<path d="M25.0714 21.2143H26.0357V22.1786H25.0714V21.2143Z" fill="black"/>
<path d="M26.0357 21.2143H27V22.1786H26.0357V21.2143Z" fill="black"/>
<path d="M0 22.1786H0.964286V23.1429H0V22.1786Z" fill="black"/>
<path d="M0.964286 22.1786H1.92857V23.1429H0.964286V22.1786Z" fill="black"/>
<path d="M1.92857 22.1786H2.89286V23.1429H1.92857V22.1786Z" fill="black"/>
<path d="M7.71429 22.1786H8.67857V23.1429H7.71429V22.1786Z" fill="black"/>
<path d="M8.67857 22.1786H9.64286V23.1429H8.67857V22.1786Z" fill="black"/>
<path d="M9.64286 22.1786H10.6071V23.1429H9.64286V22.1786Z" fill="black"/>
<path d="M14.4643 22.1786H15.4286V23.1429H14.4643V22.1786Z" fill="black"/>
<path d="M15.4286 22.1786H16.3929V23.1429H15.4286V22.1786Z" fill="black"/>
<path d="M16.3929 22.1786H17.3571V23.1429H16.3929V22.1786Z" fill="black"/>
<path d="M17.3571 22.1786H18.3214V23.1429H17.3571V22.1786Z" fill="black"/>
<path d="M23.1429 22.1786H24.1071V23.1429H23.1429V22.1786Z" fill="black"/>
<path d="M24.1071 22.1786H25.0714V23.1429H24.1071V22.1786Z" fill="black"/>
<path d="M25.0714 22.1786H26.0357V23.1429H25.0714V22.1786Z" fill="black"/>
<path d="M26.0357 22.1786H27V23.1429H26.0357V22.1786Z" fill="black"/>
<path d="M0 23.1429H0.964286V24.1071H0V23.1429Z" fill="black"/>
<path d="M0.964286 23.1429H1.92857V24.1071H0.964286V23.1429Z" fill="black"/>
<path d="M1.92857 23.1429H2.89286V24.1071H1.92857V23.1429Z" fill="black"/>
<path d="M2.89286 23.1429H3.85714V24.1071H2.89286V23.1429Z" fill="black"/>
<path d="M3.85714 23.1429H4.82143V24.1071H3.85714V23.1429Z" fill="black"/>
<path d="M4.82143 23.1429H5.78571V24.1071H4.82143V23.1429Z" fill="black"/>
<path d="M5.78571 23.1429H6.75V24.1071H5.78571V23.1429Z" fill="black"/>
<path d="M6.75 23.1429H7.71429V24.1071H6.75V23.1429Z" fill="black"/>
<path d="M7.71429 23.1429H8.67857V24.1071H7.71429V23.1429Z" fill="black"/>
<path d="M8.67857 23.1429H9.64286V24.1071H8.67857V23.1429Z" fill="black"/>
<path d="M9.64286 23.1429H10.6071V24.1071H9.64286V23.1429Z" fill="black"/>
<path d="M10.6071 23.1429H11.5714V24.1071H10.6071V23.1429Z" fill="black"/>
<path d="M11.5714 23.1429H12.5357V24.1071H11.5714V23.1429Z" fill="black"/>
<path d="M12.5357 23.1429H13.5V24.1071H12.5357V23.1429Z" fill="black"/>
<path d="M13.5 23.1429H14.4643V24.1071H13.5V23.1429Z" fill="black"/>
<path d="M14.4643 23.1429H15.4286V24.1071H14.4643V23.1429Z" fill="black"/>
<path d="M15.4286 23.1429H16.3929V24.1071H15.4286V23.1429Z" fill="black"/>
<path d="M16.3929 23.1429H17.3571V24.1071H16.3929V23.1429Z" fill="black"/>
<path d="M17.3571 23.1429H18.3214V24.1071H17.3571V23.1429Z" fill="black"/>
<path d="M18.3214 23.1429H19.2857V24.1071H18.3214V23.1429Z" fill="black"/>
<path d="M19.2857 23.1429H20.25V24.1071H19.2857V23.1429Z" fill="black"/>
<path d="M20.25 23.1429H21.2143V24.1071H20.25V23.1429Z" fill="black"/>
<path d="M21.2143 23.1429H22.1786V24.1071H21.2143V23.1429Z" fill="black"/>
<path d="M22.1786 23.1429H23.1429V24.1071H22.1786V23.1429Z" fill="black"/>
<path d="M23.1429 23.1429H24.1071V24.1071H23.1429V23.1429Z" fill="black"/>
<path d="M24.1071 23.1429H25.0714V24.1071H24.1071V23.1429Z" fill="black"/>
<path d="M25.0714 23.1429H26.0357V24.1071H25.0714V23.1429Z" fill="black"/>
<path d="M26.0357 23.1429H27V24.1071H26.0357V23.1429Z" fill="black"/>
<path d="M0 24.1071H0.964286V25.0714H0V24.1071Z" fill="black"/>
<path d="M0.964286 24.1071H1.92857V25.0714H0.964286V24.1071Z" fill="black"/>
<path d="M1.92857 24.1071H2.89286V25.0714H1.92857V24.1071Z" fill="black"/>
<path d="M2.89286 24.1071H3.85714V25.0714H2.89286V24.1071Z" fill="black"/>
<path d="M3.85714 24.1071H4.82143V25.0714H3.85714V24.1071Z" fill="black"/>
<path d="M4.82143 24.1071H5.78571V25.0714H4.82143V24.1071Z" fill="black"/>
<path d="M5.78571 24.1071H6.75V25.0714H5.78571V24.1071Z" fill="black"/>
<path d="M6.75 24.1071H7.71429V25.0714H6.75V24.1071Z" fill="black"/>
<path d="M7.71429 24.1071H8.67857V25.0714H7.71429V24.1071Z" fill="black"/>
<path d="M8.67857 24.1071H9.64286V25.0714H8.67857V24.1071Z" fill="black"/>
<path d="M9.64286 24.1071H10.6071V25.0714H9.64286V24.1071Z" fill="black"/>
<path d="M10.6071 24.1071H11.5714V25.0714H10.6071V24.1071Z" fill="black"/>
<path d="M11.5714 24.1071H12.5357V25.0714H11.5714V24.1071Z" fill="black"/>
<path d="M12.5357 24.1071H13.5V25.0714H12.5357V24.1071Z" fill="black"/>
<path d="M13.5 24.1071H14.4643V25.0714H13.5V24.1071Z" fill="black"/>
<path d="M14.4643 24.1071H15.4286V25.0714H14.4643V24.1071Z" fill="black"/>
<path d="M15.4286 24.1071H16.3929V25.0714H15.4286V24.1071Z" fill="black"/>
<path d="M16.3929 24.1071H17.3571V25.0714H16.3929V24.1071Z" fill="black"/>
<path d="M17.3571 24.1071H18.3214V25.0714H17.3571V24.1071Z" fill="black"/>
<path d="M18.3214 24.1071H19.2857V25.0714H18.3214V24.1071Z" fill="black"/>
<path d="M19.2857 24.1071H20.25V25.0714H19.2857V24.1071Z" fill="black"/>
<path d="M20.25 24.1071H21.2143V25.0714H20.25V24.1071Z" fill="black"/>
<path d="M21.2143 24.1071H22.1786V25.0714H21.2143V24.1071Z" fill="black"/>
<path d="M22.1786 24.1071H23.1429V25.0714H22.1786V24.1071Z" fill="black"/>
<path d="M23.1429 24.1071H24.1071V25.0714H23.1429V24.1071Z" fill="black"/>
<path d="M24.1071 24.1071H25.0714V25.0714H24.1071V24.1071Z" fill="black"/>
<path d="M25.0714 24.1071H26.0357V25.0714H25.0714V24.1071Z" fill="black"/>
<path d="M26.0357 24.1071H27V25.0714H26.0357V24.1071Z" fill="black"/>
<path d="M0 25.0714H0.964286V26.0357H0V25.0714Z" fill="black"/>
<path d="M0.964286 25.0714H1.92857V26.0357H0.964286V25.0714Z" fill="black"/>
<path d="M1.92857 25.0714H2.89286V26.0357H1.92857V25.0714Z" fill="black"/>
<path d="M2.89286 25.0714H3.85714V26.0357H2.89286V25.0714Z" fill="black"/>
<path d="M3.85714 25.0714H4.82143V26.0357H3.85714V25.0714Z" fill="black"/>
<path d="M4.82143 25.0714H5.78571V26.0357H4.82143V25.0714Z" fill="black"/>
<path d="M5.78571 25.0714H6.75V26.0357H5.78571V25.0714Z" fill="black"/>
<path d="M6.75 25.0714H7.71429V26.0357H6.75V25.0714Z" fill="black"/>
<path d="M7.71429 25.0714H8.67857V26.0357H7.71429V25.0714Z" fill="black"/>
<path d="M8.67857 25.0714H9.64286V26.0357H8.67857V25.0714Z" fill="black"/>
<path d="M9.64286 25.0714H10.6071V26.0357H9.64286V25.0714Z" fill="black"/>
<path d="M10.6071 25.0714H11.5714V26.0357H10.6071V25.0714Z" fill="black"/>
<path d="M11.5714 25.0714H12.5357V26.0357H11.5714V25.0714Z" fill="black"/>
<path d="M12.5357 25.0714H13.5V26.0357H12.5357V25.0714Z" fill="black"/>
<path d="M13.5 25.0714H14.4643V26.0357H13.5V25.0714Z" fill="black"/>
<path d="M14.4643 25.0714H15.4286V26.0357H14.4643V25.0714Z" fill="black"/>
<path d="M15.4286 25.0714H16.3929V26.0357H15.4286V25.0714Z" fill="black"/>
<path d="M16.3929 25.0714H17.3571V26.0357H16.3929V25.0714Z" fill="black"/>
<path d="M17.3571 25.0714H18.3214V26.0357H17.3571V25.0714Z" fill="black"/>
<path d="M18.3214 25.0714H19.2857V26.0357H18.3214V25.0714Z" fill="black"/>
<path d="M19.2857 25.0714H20.25V26.0357H19.2857V25.0714Z" fill="black"/>
<path d="M20.25 25.0714H21.2143V26.0357H20.25V25.0714Z" fill="black"/>
<path d="M21.2143 25.0714H22.1786V26.0357H21.2143V25.0714Z" fill="black"/>
<path d="M22.1786 25.0714H23.1429V26.0357H22.1786V25.0714Z" fill="black"/>
<path d="M23.1429 25.0714H24.1071V26.0357H23.1429V25.0714Z" fill="black"/>
<path d="M24.1071 25.0714H25.0714V26.0357H24.1071V25.0714Z" fill="black"/>
<path d="M25.0714 25.0714H26.0357V26.0357H25.0714V25.0714Z" fill="black"/>
<path d="M0.964286 26.0357H1.92857V27H0.964286V26.0357Z" fill="black"/>
<path d="M1.92857 26.0357H2.89286V27H1.92857V26.0357Z" fill="black"/>
<path d="M2.89286 26.0357H3.85714V27H2.89286V26.0357Z" fill="black"/>
<path d="M3.85714 26.0357H4.82143V27H3.85714V26.0357Z" fill="black"/>
<path d="M4.82143 26.0357H5.78571V27H4.82143V26.0357Z" fill="black"/>
<path d="M5.78571 26.0357H6.75V27H5.78571V26.0357Z" fill="black"/>
<path d="M6.75 26.0357H7.71429V27H6.75V26.0357Z" fill="black"/>
<path d="M7.71429 26.0357H8.67857V27H7.71429V26.0357Z" fill="black"/>
<path d="M8.67857 26.0357H9.64286V27H8.67857V26.0357Z" fill="black"/>
<path d="M9.64286 26.0357H10.6071V27H9.64286V26.0357Z" fill="black"/>
<path d="M10.6071 26.0357H11.5714V27H10.6071V26.0357Z" fill="black"/>
<path d="M11.5714 26.0357H12.5357V27H11.5714V26.0357Z" fill="black"/>
<path d="M12.5357 26.0357H13.5V27H12.5357V26.0357Z" fill="black"/>
<path d="M13.5 26.0357H14.4643V27H13.5V26.0357Z" fill="black"/>
<path d="M14.4643 26.0357H15.4286V27H14.4643V26.0357Z" fill="black"/>
<path d="M15.4286 26.0357H16.3929V27H15.4286V26.0357Z" fill="black"/>
<path d="M16.3929 26.0357H17.3571V27H16.3929V26.0357Z" fill="black"/>
<path d="M17.3571 26.0357H18.3214V27H17.3571V26.0357Z" fill="black"/>
<path d="M18.3214 26.0357H19.2857V27H18.3214V26.0357Z" fill="black"/>
<path d="M19.2857 26.0357H20.25V27H19.2857V26.0357Z" fill="black"/>
<path d="M20.25 26.0357H21.2143V27H20.25V26.0357Z" fill="black"/>
<path d="M21.2143 26.0357H22.1786V27H21.2143V26.0357Z" fill="black"/>
<path d="M22.1786 26.0357H23.1429V27H22.1786V26.0357Z" fill="black"/>
<path d="M23.1429 26.0357H24.1071V27H23.1429V26.0357Z" fill="black"/>
<path d="M24.1071 26.0357H25.0714V27H24.1071V26.0357Z" fill="black"/>
<path d="M25.0714 26.0357H26.0357V27H25.0714V26.0357Z" fill="black"/>
</svg>
