<svg width="40" height="56" viewBox="0 0 40 56" fill="none" xmlns="http://www.w3.org/2000/svg">
<path d="M14 0H16V2H14V0Z" fill="black"/>
<path d="M16 0H18V2H16V0Z" fill="black"/>
<path d="M18 0H20V2H18V0Z" fill="black"/>
<path d="M20 0H22V2H20V0Z" fill="black"/>
<path d="M22 0H24V2H22V0Z" fill="black"/>
<path d="M24 0H26V2H24V0Z" fill="black"/>
<path d="M26 0H28V2H26V0Z" fill="black"/>
<path d="M8 2H10V4H8V2Z" fill="black"/>
<path d="M10 2H12V4H10V2Z" fill="black"/>
<path d="M12 2H14V4H12V2Z" fill="black"/>
<path d="M14 2H16V4H14V2Z" fill="black"/>
<path d="M16 2H18V4H16V2Z" fill="black"/>
<path d="M18 2H20V4H18V2Z" fill="black"/>
<path d="M20 2H22V4H20V2Z" fill="black"/>
<path d="M22 2H24V4H22V2Z" fill="black"/>
<path d="M24 2H26V4H24V2Z" fill="black"/>
<path d="M26 2H28V4H26V2Z" fill="black"/>
<path d="M28 2H30V4H28V2Z" fill="black"/>
<path d="M30 2H32V4H30V2Z" fill="black"/>
<path d="M32 2H34V4H32V2Z" fill="black"/>
<path d="M6 4H8V6H6V4Z" fill="black"/>
<path d="M8 4H10V6H8V4Z" fill="black"/>
<path d="M10 4H12V6H10V4Z" fill="black"/>
<path d="M12 4H14V6H12V4Z" fill="black"/>
<path d="M14 4H16V6H14V4Z" fill="black"/>
<path d="M16 4H18V6H16V4Z" fill="black"/>
<path d="M18 4H20V6H18V4Z" fill="black"/>
<path d="M20 4H22V6H20V4Z" fill="black"/>
<path d="M22 4H24V6H22V4Z" fill="black"/>
<path d="M24 4H26V6H24V4Z" fill="black"/>
<path d="M26 4H28V6H26V4Z" fill="black"/>
<path d="M28 4H30V6H28V4Z" fill="black"/>
<path d="M30 4H32V6H30V4Z" fill="black"/>
<path d="M32 4H34V6H32V4Z" fill="black"/>
<path d="M4 6H6V8H4V6Z" fill="black"/>
<path d="M6 6H8V8H6V6Z" fill="black"/>
<path d="M8 6H10V8H8V6Z" fill="black"/>
<path d="M10 6H12V8H10V6Z" fill="black"/>
<path d="M12 6H14V8H12V6Z" fill="black"/>
<path d="M14 6H16V8H14V6Z" fill="black"/>
<path d="M16 6H18V8H16V6Z" fill="black"/>
<path d="M18 6H20V8H18V6Z" fill="black"/>
<path d="M20 6H22V8H20V6Z" fill="black"/>
<path d="M22 6H24V8H22V6Z" fill="black"/>
<path d="M24 6H26V8H24V6Z" fill="black"/>
<path d="M26 6H28V8H26V6Z" fill="black"/>
<path d="M28 6H30V8H28V6Z" fill="black"/>
<path d="M30 6H32V8H30V6Z" fill="black"/>
<path d="M32 6H34V8H32V6Z" fill="black"/>
<path d="M34 6H36V8H34V6Z" fill="black"/>
<path d="M4 8H6V10H4V8Z" fill="black"/>
<path d="M6 8H8V10H6V8Z" fill="black"/>
<path d="M8 8H10V10H8V8Z" fill="black"/>
<path d="M10 8H12V10H10V8Z" fill="black"/>
<path d="M12 8H14V10H12V8Z" fill="black"/>
<path d="M14 8H16V10H14V8Z" fill="black"/>
<path d="M16 8H18V10H16V8Z" fill="black"/>
<path d="M18 8H20V10H18V8Z" fill="black"/>
<path d="M20 8H22V10H20V8Z" fill="black"/>
<path d="M22 8H24V10H22V8Z" fill="black"/>
<path d="M24 8H26V10H24V8Z" fill="black"/>
<path d="M26 8H28V10H26V8Z" fill="black"/>
<path d="M28 8H30V10H28V8Z" fill="black"/>
<path d="M30 8H32V10H30V8Z" fill="black"/>
<path d="M32 8H34V10H32V8Z" fill="black"/>
<path d="M34 8H36V10H34V8Z" fill="black"/>
<path d="M36 8H38V10H36V8Z" fill="black"/>
<path d="M2 10H4V12H2V10Z" fill="black"/>
<path d="M4 10H6V12H4V10Z" fill="black"/>
<path d="M6 10H8V12H6V10Z" fill="black"/>
<path d="M8 10H10V12H8V10Z" fill="black"/>
<path d="M10 10H12V12H10V10Z" fill="black"/>
<path d="M12 10H14V12H12V10Z" fill="black"/>
<path d="M14 10H16V12H14V10Z" fill="black"/>
<path d="M16 10H18V12H16V10Z" fill="black"/>
<path d="M18 10H20V12H18V10Z" fill="black"/>
<path d="M20 10H22V12H20V10Z" fill="black"/>
<path d="M22 10H24V12H22V10Z" fill="black"/>
<path d="M24 10H26V12H24V10Z" fill="black"/>
<path d="M26 10H28V12H26V10Z" fill="black"/>
<path d="M28 10H30V12H28V10Z" fill="black"/>
<path d="M30 10H32V12H30V10Z" fill="black"/>
<path d="M32 10H34V12H32V10Z" fill="black"/>
<path d="M34 10H36V12H34V10Z" fill="black"/>
<path d="M36 10H38V12H36V10Z" fill="black"/>
<path d="M38 10H40V12H38V10Z" fill="black"/>
<path d="M0 12H2V14H0V12Z" fill="black"/>
<path d="M2 12H4V14H2V12Z" fill="black"/>
<path d="M4 12H6V14H4V12Z" fill="black"/>
<path d="M6 12H8V14H6V12Z" fill="black"/>
<path d="M8 12H10V14H8V12Z" fill="black"/>
<path d="M10 12H12V14H10V12Z" fill="black"/>
<path d="M12 12H14V14H12V12Z" fill="black"/>
<path d="M14 12H16V14H14V12Z" fill="black"/>
<path d="M16 12H18V14H16V12Z" fill="black"/>
<path d="M18 12H20V14H18V12Z" fill="black"/>
<path d="M20 12H22V14H20V12Z" fill="black"/>
<path d="M22 12H24V14H22V12Z" fill="black"/>
<path d="M24 12H26V14H24V12Z" fill="black"/>
<path d="M26 12H28V14H26V12Z" fill="black"/>
<path d="M28 12H30V14H28V12Z" fill="black"/>
<path d="M30 12H32V14H30V12Z" fill="black"/>
<path d="M32 12H34V14H32V12Z" fill="black"/>
<path d="M34 12H36V14H34V12Z" fill="black"/>
<path d="M36 12H38V14H36V12Z" fill="black"/>
<path d="M38 12H40V14H38V12Z" fill="black"/>
<path d="M0 14H2V16H0V14Z" fill="black"/>
<path d="M2 14H4V16H2V14Z" fill="black"/>
<path d="M4 14H6V16H4V14Z" fill="black"/>
<path d="M6 14H8V16H6V14Z" fill="black"/>
<path d="M8 14H10V16H8V14Z" fill="black"/>
<path d="M10 14H12V16H10V14Z" fill="black"/>
<path d="M12 14H14V16H12V14Z" fill="black"/>
<path d="M14 14H16V16H14V14Z" fill="black"/>
<path d="M24 14H26V16H24V14Z" fill="black"/>
<path d="M26 14H28V16H26V14Z" fill="black"/>
<path d="M28 14H30V16H28V14Z" fill="black"/>
<path d="M30 14H32V16H30V14Z" fill="black"/>
<path d="M32 14H34V16H32V14Z" fill="black"/>
<path d="M34 14H36V16H34V14Z" fill="black"/>
<path d="M36 14H38V16H36V14Z" fill="black"/>
<path d="M38 14H40V16H38V14Z" fill="black"/>
<path d="M0 16H2V18H0V16Z" fill="black"/>
<path d="M2 16H4V18H2V16Z" fill="black"/>
<path d="M4 16H6V18H4V16Z" fill="black"/>
<path d="M6 16H8V18H6V16Z" fill="black"/>
<path d="M8 16H10V18H8V16Z" fill="black"/>
<path d="M10 16H12V18H10V16Z" fill="black"/>
<path d="M12 16H14V18H12V16Z" fill="black"/>
<path d="M14 16H16V18H14V16Z" fill="black"/>
<path d="M26 16H28V18H26V16Z" fill="black"/>
<path d="M28 16H30V18H28V16Z" fill="black"/>
<path d="M30 16H32V18H30V16Z" fill="black"/>
<path d="M32 16H34V18H32V16Z" fill="black"/>
<path d="M34 16H36V18H34V16Z" fill="black"/>
<path d="M36 16H38V18H36V16Z" fill="black"/>
<path d="M38 16H40V18H38V16Z" fill="black"/>
<path d="M0 18H2V20H0V18Z" fill="black"/>
<path d="M2 18H4V20H2V18Z" fill="black"/>
<path d="M4 18H6V20H4V18Z" fill="black"/>
<path d="M6 18H8V20H6V18Z" fill="black"/>
<path d="M8 18H10V20H8V18Z" fill="black"/>
<path d="M10 18H12V20H10V18Z" fill="black"/>
<path d="M12 18H14V20H12V18Z" fill="black"/>
<path d="M14 18H16V20H14V18Z" fill="black"/>
<path d="M26 18H28V20H26V18Z" fill="black"/>
<path d="M28 18H30V20H28V18Z" fill="black"/>
<path d="M30 18H32V20H30V18Z" fill="black"/>
<path d="M32 18H34V20H32V18Z" fill="black"/>
<path d="M34 18H36V20H34V18Z" fill="black"/>
<path d="M36 18H38V20H36V18Z" fill="black"/>
<path d="M38 18H40V20H38V18Z" fill="black"/>
<path d="M0 20H2V22H0V20Z" fill="black"/>
<path d="M2 20H4V22H2V20Z" fill="black"/>
<path d="M4 20H6V22H4V20Z" fill="black"/>
<path d="M6 20H8V22H6V20Z" fill="black"/>
<path d="M8 20H10V22H8V20Z" fill="black"/>
<path d="M10 20H12V22H10V20Z" fill="black"/>
<path d="M12 20H14V22H12V20Z" fill="black"/>
<path d="M14 20H16V22H14V20Z" fill="black"/>
<path d="M28 20H30V22H28V20Z" fill="black"/>
<path d="M30 20H32V22H30V20Z" fill="black"/>
<path d="M32 20H34V22H32V20Z" fill="black"/>
<path d="M34 20H36V22H34V20Z" fill="black"/>
<path d="M36 20H38V22H36V20Z" fill="black"/>
<path d="M38 20H40V22H38V20Z" fill="black"/>
<path d="M0 22H2V24H0V22Z" fill="black"/>
<path d="M2 22H4V24H2V22Z" fill="black"/>
<path d="M4 22H6V24H4V22Z" fill="black"/>
<path d="M6 22H8V24H6V22Z" fill="black"/>
<path d="M8 22H10V24H8V22Z" fill="black"/>
<path d="M10 22H12V24H10V22Z" fill="black"/>
<path d="M12 22H14V24H12V22Z" fill="black"/>
<path d="M14 22H16V24H14V22Z" fill="black"/>
<path d="M26 22H28V24H26V22Z" fill="black"/>
<path d="M28 22H30V24H28V22Z" fill="black"/>
<path d="M30 22H32V24H30V22Z" fill="black"/>
<path d="M32 22H34V24H32V22Z" fill="black"/>
<path d="M34 22H36V24H34V22Z" fill="black"/>
<path d="M36 22H38V24H36V22Z" fill="black"/>
<path d="M38 22H40V24H38V22Z" fill="black"/>
<path d="M0 24H2V26H0V24Z" fill="black"/>
<path d="M2 24H4V26H2V24Z" fill="black"/>
<path d="M4 24H6V26H4V24Z" fill="black"/>
<path d="M6 24H8V26H6V24Z" fill="black"/>
<path d="M8 24H10V26H8V24Z" fill="black"/>
<path d="M10 24H12V26H10V24Z" fill="black"/>
<path d="M12 24H14V26H12V24Z" fill="black"/>
<path d="M14 24H16V26H14V24Z" fill="black"/>
<path d="M24 24H26V26H24V24Z" fill="black"/>
<path d="M26 24H28V26H26V24Z" fill="black"/>
<path d="M28 24H30V26H28V24Z" fill="black"/>
<path d="M30 24H32V26H30V24Z" fill="black"/>
<path d="M32 24H34V26H32V24Z" fill="black"/>
<path d="M34 24H36V26H34V24Z" fill="black"/>
<path d="M36 24H38V26H36V24Z" fill="black"/>
<path d="M38 24H40V26H38V24Z" fill="black"/>
<path d="M0 26H2V28H0V26Z" fill="black"/>
<path d="M2 26H4V28H2V26Z" fill="black"/>
<path d="M4 26H6V28H4V26Z" fill="black"/>
<path d="M6 26H8V28H6V26Z" fill="black"/>
<path d="M8 26H10V28H8V26Z" fill="black"/>
<path d="M10 26H12V28H10V26Z" fill="black"/>
<path d="M12 26H14V28H12V26Z" fill="black"/>
<path d="M14 26H16V28H14V26Z" fill="black"/>
<path d="M16 26H18V28H16V26Z" fill="black"/>
<path d="M18 26H20V28H18V26Z" fill="black"/>
<path d="M20 26H22V28H20V26Z" fill="black"/>
<path d="M22 26H24V28H22V26Z" fill="black"/>
<path d="M24 26H26V28H24V26Z" fill="black"/>
<path d="M26 26H28V28H26V26Z" fill="black"/>
<path d="M28 26H30V28H28V26Z" fill="black"/>
<path d="M30 26H32V28H30V26Z" fill="black"/>
<path d="M32 26H34V28H32V26Z" fill="black"/>
<path d="M34 26H36V28H34V26Z" fill="black"/>
<path d="M36 26H38V28H36V26Z" fill="black"/>
<path d="M38 26H40V28H38V26Z" fill="black"/>
<path d="M2 28H4V30H2V28Z" fill="black"/>
<path d="M4 28H6V30H4V28Z" fill="black"/>
<path d="M6 28H8V30H6V28Z" fill="black"/>
<path d="M8 28H10V30H8V28Z" fill="black"/>
<path d="M10 28H12V30H10V28Z" fill="black"/>
<path d="M12 28H14V30H12V28Z" fill="black"/>
<path d="M14 28H16V30H14V28Z" fill="black"/>
<path d="M16 28H18V30H16V28Z" fill="black"/>
<path d="M18 28H20V30H18V28Z" fill="black"/>
<path d="M20 28H22V30H20V28Z" fill="black"/>
<path d="M22 28H24V30H22V28Z" fill="black"/>
<path d="M24 28H26V30H24V28Z" fill="black"/>
<path d="M26 28H28V30H26V28Z" fill="black"/>
<path d="M28 28H30V30H28V28Z" fill="black"/>
<path d="M30 28H32V30H30V28Z" fill="black"/>
<path d="M32 28H34V30H32V28Z" fill="black"/>
<path d="M34 28H36V30H34V28Z" fill="black"/>
<path d="M36 28H38V30H36V28Z" fill="black"/>
<path d="M38 28H40V30H38V28Z" fill="black"/>
<path d="M2 30H4V32H2V30Z" fill="black"/>
<path d="M4 30H6V32H4V30Z" fill="black"/>
<path d="M6 30H8V32H6V30Z" fill="black"/>
<path d="M8 30H10V32H8V30Z" fill="black"/>
<path d="M10 30H12V32H10V30Z" fill="black"/>
<path d="M12 30H14V32H12V30Z" fill="black"/>
<path d="M14 30H16V32H14V30Z" fill="black"/>
<path d="M16 30H18V32H16V30Z" fill="black"/>
<path d="M18 30H20V32H18V30Z" fill="black"/>
<path d="M20 30H22V32H20V30Z" fill="black"/>
<path d="M22 30H24V32H22V30Z" fill="black"/>
<path d="M24 30H26V32H24V30Z" fill="black"/>
<path d="M26 30H28V32H26V30Z" fill="black"/>
<path d="M28 30H30V32H28V30Z" fill="black"/>
<path d="M30 30H32V32H30V30Z" fill="black"/>
<path d="M32 30H34V32H32V30Z" fill="black"/>
<path d="M34 30H36V32H34V30Z" fill="black"/>
<path d="M36 30H38V32H36V30Z" fill="black"/>
<path d="M38 30H40V32H38V30Z" fill="black"/>
<path d="M4 32H6V34H4V32Z" fill="black"/>
<path d="M6 32H8V34H6V32Z" fill="black"/>
<path d="M8 32H10V34H8V32Z" fill="black"/>
<path d="M10 32H12V34H10V32Z" fill="black"/>
<path d="M12 32H14V34H12V32Z" fill="black"/>
<path d="M14 32H16V34H14V32Z" fill="black"/>
<path d="M16 32H18V34H16V32Z" fill="black"/>
<path d="M18 32H20V34H18V32Z" fill="black"/>
<path d="M20 32H22V34H20V32Z" fill="black"/>
<path d="M22 32H24V34H22V32Z" fill="black"/>
<path d="M24 32H26V34H24V32Z" fill="black"/>
<path d="M26 32H28V34H26V32Z" fill="black"/>
<path d="M28 32H30V34H28V32Z" fill="black"/>
<path d="M30 32H32V34H30V32Z" fill="black"/>
<path d="M32 32H34V34H32V32Z" fill="black"/>
<path d="M34 32H36V34H34V32Z" fill="black"/>
<path d="M36 32H38V34H36V32Z" fill="black"/>
<path d="M4 34H6V36H4V34Z" fill="black"/>
<path d="M6 34H8V36H6V34Z" fill="black"/>
<path d="M8 34H10V36H8V34Z" fill="black"/>
<path d="M10 34H12V36H10V34Z" fill="black"/>
<path d="M12 34H14V36H12V34Z" fill="black"/>
<path d="M14 34H16V36H14V34Z" fill="black"/>
<path d="M16 34H18V36H16V34Z" fill="black"/>
<path d="M18 34H20V36H18V34Z" fill="black"/>
<path d="M20 34H22V36H20V34Z" fill="black"/>
<path d="M22 34H24V36H22V34Z" fill="black"/>
<path d="M24 34H26V36H24V34Z" fill="black"/>
<path d="M26 34H28V36H26V34Z" fill="black"/>
<path d="M28 34H30V36H28V34Z" fill="black"/>
<path d="M30 34H32V36H30V34Z" fill="black"/>
<path d="M32 34H34V36H32V34Z" fill="black"/>
<path d="M34 34H36V36H34V34Z" fill="black"/>
<path d="M4 36H6V38H4V36Z" fill="black"/>
<path d="M6 36H8V38H6V36Z" fill="black"/>
<path d="M8 36H10V38H8V36Z" fill="black"/>
<path d="M10 36H12V38H10V36Z" fill="black"/>
<path d="M12 36H14V38H12V36Z" fill="black"/>
<path d="M14 36H16V38H14V36Z" fill="black"/>
<path d="M16 36H18V38H16V36Z" fill="black"/>
<path d="M18 36H20V38H18V36Z" fill="black"/>
<path d="M20 36H22V38H20V36Z" fill="black"/>
<path d="M22 36H24V38H22V36Z" fill="black"/>
<path d="M24 36H26V38H24V36Z" fill="black"/>
<path d="M26 36H28V38H26V36Z" fill="black"/>
<path d="M28 36H30V38H28V36Z" fill="black"/>
<path d="M30 36H32V38H30V36Z" fill="black"/>
<path d="M32 36H34V38H32V36Z" fill="black"/>
<path d="M34 36H36V38H34V36Z" fill="black"/>
<path d="M6 38H8V40H6V38Z" fill="black"/>
<path d="M8 38H10V40H8V38Z" fill="black"/>
<path d="M10 38H12V40H10V38Z" fill="black"/>
<path d="M12 38H14V40H12V38Z" fill="black"/>
<path d="M14 38H16V40H14V38Z" fill="black"/>
<path d="M16 38H18V40H16V38Z" fill="black"/>
<path d="M18 38H20V40H18V38Z" fill="black"/>
<path d="M20 38H22V40H20V38Z" fill="black"/>
<path d="M22 38H24V40H22V38Z" fill="black"/>
<path d="M24 38H26V40H24V38Z" fill="black"/>
<path d="M26 38H28V40H26V38Z" fill="black"/>
<path d="M28 38H30V40H28V38Z" fill="black"/>
<path d="M30 38H32V40H30V38Z" fill="black"/>
<path d="M32 38H34V40H32V38Z" fill="black"/>
<path d="M8 40H10V42H8V40Z" fill="black"/>
<path d="M10 40H12V42H10V40Z" fill="black"/>
<path d="M12 40H14V42H12V40Z" fill="black"/>
<path d="M14 40H16V42H14V40Z" fill="black"/>
<path d="M16 40H18V42H16V40Z" fill="black"/>
<path d="M18 40H20V42H18V40Z" fill="black"/>
<path d="M20 40H22V42H20V40Z" fill="black"/>
<path d="M22 40H24V42H22V40Z" fill="black"/>
<path d="M24 40H26V42H24V40Z" fill="black"/>
<path d="M26 40H28V42H26V40Z" fill="black"/>
<path d="M28 40H30V42H28V40Z" fill="black"/>
<path d="M30 40H32V42H30V40Z" fill="black"/>
<path d="M32 40H34V42H32V40Z" fill="black"/>
<path d="M8 42H10V44H8V42Z" fill="black"/>
<path d="M10 42H12V44H10V42Z" fill="black"/>
<path d="M12 42H14V44H12V42Z" fill="black"/>
<path d="M14 42H16V44H14V42Z" fill="black"/>
<path d="M16 42H18V44H16V42Z" fill="black"/>
<path d="M18 42H20V44H18V42Z" fill="black"/>
<path d="M20 42H22V44H20V42Z" fill="black"/>
<path d="M22 42H24V44H22V42Z" fill="black"/>
<path d="M24 42H26V44H24V42Z" fill="black"/>
<path d="M26 42H28V44H26V42Z" fill="black"/>
<path d="M28 42H30V44H28V42Z" fill="black"/>
<path d="M30 42H32V44H30V42Z" fill="black"/>
<path d="M10 44H12V46H10V44Z" fill="black"/>
<path d="M12 44H14V46H12V44Z" fill="black"/>
<path d="M14 44H16V46H14V44Z" fill="black"/>
<path d="M16 44H18V46H16V44Z" fill="black"/>
<path d="M18 44H20V46H18V44Z" fill="black"/>
<path d="M20 44H22V46H20V44Z" fill="black"/>
<path d="M22 44H24V46H22V44Z" fill="black"/>
<path d="M24 44H26V46H24V44Z" fill="black"/>
<path d="M26 44H28V46H26V44Z" fill="black"/>
<path d="M28 44H30V46H28V44Z" fill="black"/>
<path d="M10 46H12V48H10V46Z" fill="black"/>
<path d="M12 46H14V48H12V46Z" fill="black"/>
<path d="M14 46H16V48H14V46Z" fill="black"/>
<path d="M16 46H18V48H16V46Z" fill="black"/>
<path d="M18 46H20V48H18V46Z" fill="black"/>
<path d="M20 46H22V48H20V46Z" fill="black"/>
<path d="M22 46H24V48H22V46Z" fill="black"/>
<path d="M24 46H26V48H24V46Z" fill="black"/>
<path d="M26 46H28V48H26V46Z" fill="black"/>
<path d="M28 46H30V48H28V46Z" fill="black"/>
<path d="M14 48H16V50H14V48Z" fill="black"/>
<path d="M16 48H18V50H16V48Z" fill="black"/>
<path d="M18 48H20V50H18V48Z" fill="black"/>
<path d="M20 48H22V50H20V48Z" fill="black"/>
<path d="M22 48H24V50H22V48Z" fill="black"/>
<path d="M24 48H26V50H24V48Z" fill="black"/>
<path d="M26 48H28V50H26V48Z" fill="black"/>
<path d="M14 50H16V52H14V50Z" fill="black"/>
<path d="M16 50H18V52H16V50Z" fill="black"/>
<path d="M18 50H20V52H18V50Z" fill="black"/>
<path d="M20 50H22V52H20V50Z" fill="black"/>
<path d="M22 50H24V52H22V50Z" fill="black"/>
<path d="M24 50H26V52H24V50Z" fill="black"/>
<path d="M16 52H18V54H16V52Z" fill="black"/>
<path d="M18 52H20V54H18V52Z" fill="black"/>
<path d="M20 52H22V54H20V52Z" fill="black"/>
<path d="M22 52H24V54H22V52Z" fill="black"/>
<path d="M24 52H26V54H24V52Z" fill="black"/>
<path d="M18 54H20V56H18V54Z" fill="black"/>
<path d="M20 54H22V56H20V54Z" fill="black"/>
<path d="M22 54H24V56H22V54Z" fill="black"/>
</svg>
