<svg width="36" height="36" viewBox="0 0 36 36" fill="none" xmlns="http://www.w3.org/2000/svg">
<path d="M0 0H1V1H0V0Z" fill="black"/>
<path d="M1 0H2V1H1V0Z" fill="black"/>
<path d="M2 0H3V1H2V0Z" fill="black"/>
<path d="M3 0H4V1H3V0Z" fill="black"/>
<path d="M4 0H5V1H4V0Z" fill="black"/>
<path d="M5 0H6V1H5V0Z" fill="black"/>
<path d="M6 0H7V1H6V0Z" fill="black"/>
<path d="M7 0H8V1H7V0Z" fill="black"/>
<path d="M8 0H9V1H8V0Z" fill="black"/>
<path d="M9 0H10V1H9V0Z" fill="black"/>
<path d="M10 0H11V1H10V0Z" fill="black"/>
<path d="M0 1H1V2H0V1Z" fill="black"/>
<path d="M1 1H2V2H1V1Z" fill="black"/>
<path d="M2 1H3V2H2V1Z" fill="black"/>
<path d="M3 1H4V2H3V1Z" fill="black"/>
<path d="M4 1H5V2H4V1Z" fill="black"/>
<path d="M5 1H6V2H5V1Z" fill="black"/>
<path d="M6 1H7V2H6V1Z" fill="black"/>
<path d="M7 1H8V2H7V1Z" fill="black"/>
<path d="M8 1H9V2H8V1Z" fill="black"/>
<path d="M9 1H10V2H9V1Z" fill="black"/>
<path d="M10 1H11V2H10V1Z" fill="black"/>
<path d="M0 2H1V3H0V2Z" fill="black"/>
<path d="M1 2H2V3H1V2Z" fill="black"/>
<path d="M2 2H3V3H2V2Z" fill="black"/>
<path d="M3 2H4V3H3V2Z" fill="black"/>
<path d="M4 2H5V3H4V2Z" fill="black"/>
<path d="M5 2H6V3H5V2Z" fill="black"/>
<path d="M6 2H7V3H6V2Z" fill="black"/>
<path d="M7 2H8V3H7V2Z" fill="black"/>
<path d="M8 2H9V3H8V2Z" fill="black"/>
<path d="M9 2H10V3H9V2Z" fill="black"/>
<path d="M10 2H11V3H10V2Z" fill="black"/>
<path d="M0 3H1V4H0V3Z" fill="black"/>
<path d="M1 3H2V4H1V3Z" fill="black"/>
<path d="M2 3H3V4H2V3Z" fill="black"/>
<path d="M3 3H4V4H3V3Z" fill="black"/>
<path d="M4 3H5V4H4V3Z" fill="black"/>
<path d="M5 3H6V4H5V3Z" fill="black"/>
<path d="M6 3H7V4H6V3Z" fill="black"/>
<path d="M7 3H8V4H7V3Z" fill="black"/>
<path d="M8 3H9V4H8V3Z" fill="black"/>
<path d="M9 3H10V4H9V3Z" fill="black"/>
<path d="M10 3H11V4H10V3Z" fill="black"/>
<path d="M11 3H12V4H11V3Z" fill="black"/>
<path d="M0 4H1V5H0V4Z" fill="black"/>
<path d="M1 4H2V5H1V4Z" fill="black"/>
<path d="M2 4H3V5H2V4Z" fill="black"/>
<path d="M3 4H4V5H3V4Z" fill="black"/>
<path d="M4 4H5V5H4V4Z" fill="black"/>
<path d="M5 4H6V5H5V4Z" fill="black"/>
<path d="M6 4H7V5H6V4Z" fill="black"/>
<path d="M7 4H8V5H7V4Z" fill="black"/>
<path d="M8 4H9V5H8V4Z" fill="black"/>
<path d="M9 4H10V5H9V4Z" fill="black"/>
<path d="M10 4H11V5H10V4Z" fill="black"/>
<path d="M11 4H12V5H11V4Z" fill="black"/>
<path d="M0 5H1V6H0V5Z" fill="black"/>
<path d="M1 5H2V6H1V5Z" fill="black"/>
<path d="M2 5H3V6H2V5Z" fill="black"/>
<path d="M3 5H4V6H3V5Z" fill="black"/>
<path d="M4 5H5V6H4V5Z" fill="black"/>
<path d="M5 5H6V6H5V5Z" fill="black"/>
<path d="M6 5H7V6H6V5Z" fill="black"/>
<path d="M7 5H8V6H7V5Z" fill="black"/>
<path d="M8 5H9V6H8V5Z" fill="black"/>
<path d="M9 5H10V6H9V5Z" fill="black"/>
<path d="M10 5H11V6H10V5Z" fill="black"/>
<path d="M11 5H12V6H11V5Z" fill="black"/>
<path d="M0 6H1V7H0V6Z" fill="black"/>
<path d="M1 6H2V7H1V6Z" fill="black"/>
<path d="M2 6H3V7H2V6Z" fill="black"/>
<path d="M3 6H4V7H3V6Z" fill="black"/>
<path d="M4 6H5V7H4V6Z" fill="black"/>
<path d="M5 6H6V7H5V6Z" fill="black"/>
<path d="M6 6H7V7H6V6Z" fill="black"/>
<path d="M7 6H8V7H7V6Z" fill="black"/>
<path d="M8 6H9V7H8V6Z" fill="black"/>
<path d="M9 6H10V7H9V6Z" fill="black"/>
<path d="M10 6H11V7H10V6Z" fill="black"/>
<path d="M11 6H12V7H11V6Z" fill="black"/>
<path d="M0 7H1V8H0V7Z" fill="black"/>
<path d="M1 7H2V8H1V7Z" fill="black"/>
<path d="M2 7H3V8H2V7Z" fill="black"/>
<path d="M3 7H4V8H3V7Z" fill="black"/>
<path d="M4 7H5V8H4V7Z" fill="black"/>
<path d="M5 7H6V8H5V7Z" fill="black"/>
<path d="M6 7H7V8H6V7Z" fill="black"/>
<path d="M7 7H8V8H7V7Z" fill="black"/>
<path d="M8 7H9V8H8V7Z" fill="black"/>
<path d="M9 7H10V8H9V7Z" fill="black"/>
<path d="M10 7H11V8H10V7Z" fill="black"/>
<path d="M11 7H12V8H11V7Z" fill="black"/>
<path d="M0 8H1V9H0V8Z" fill="black"/>
<path d="M1 8H2V9H1V8Z" fill="black"/>
<path d="M2 8H3V9H2V8Z" fill="black"/>
<path d="M3 8H4V9H3V8Z" fill="black"/>
<path d="M4 8H5V9H4V8Z" fill="black"/>
<path d="M5 8H6V9H5V8Z" fill="black"/>
<path d="M6 8H7V9H6V8Z" fill="black"/>
<path d="M7 8H8V9H7V8Z" fill="black"/>
<path d="M8 8H9V9H8V8Z" fill="black"/>
<path d="M9 8H10V9H9V8Z" fill="black"/>
<path d="M10 8H11V9H10V8Z" fill="black"/>
<path d="M11 8H12V9H11V8Z" fill="black"/>
<path d="M0 9H1V10H0V9Z" fill="black"/>
<path d="M1 9H2V10H1V9Z" fill="black"/>
<path d="M2 9H3V10H2V9Z" fill="black"/>
<path d="M3 9H4V10H3V9Z" fill="black"/>
<path d="M4 9H5V10H4V9Z" fill="black"/>
<path d="M5 9H6V10H5V9Z" fill="black"/>
<path d="M6 9H7V10H6V9Z" fill="black"/>
<path d="M7 9H8V10H7V9Z" fill="black"/>
<path d="M8 9H9V10H8V9Z" fill="black"/>
<path d="M9 9H10V10H9V9Z" fill="black"/>
<path d="M10 9H11V10H10V9Z" fill="black"/>
<path d="M11 9H12V10H11V9Z" fill="black"/>
<path d="M12 9H13V10H12V9Z" fill="black"/>
<path d="M1 10H2V11H1V10Z" fill="black"/>
<path d="M2 10H3V11H2V10Z" fill="black"/>
<path d="M3 10H4V11H3V10Z" fill="black"/>
<path d="M4 10H5V11H4V10Z" fill="black"/>
<path d="M5 10H6V11H5V10Z" fill="black"/>
<path d="M6 10H7V11H6V10Z" fill="black"/>
<path d="M7 10H8V11H7V10Z" fill="black"/>
<path d="M8 10H9V11H8V10Z" fill="black"/>
<path d="M9 10H10V11H9V10Z" fill="black"/>
<path d="M10 10H11V11H10V10Z" fill="black"/>
<path d="M11 10H12V11H11V10Z" fill="black"/>
<path d="M12 10H13V11H12V10Z" fill="black"/>
<path d="M1 11H2V12H1V11Z" fill="black"/>
<path d="M2 11H3V12H2V11Z" fill="black"/>
<path d="M3 11H4V12H3V11Z" fill="black"/>
<path d="M4 11H5V12H4V11Z" fill="black"/>
<path d="M5 11H6V12H5V11Z" fill="black"/>
<path d="M6 11H7V12H6V11Z" fill="black"/>
<path d="M7 11H8V12H7V11Z" fill="black"/>
<path d="M8 11H9V12H8V11Z" fill="black"/>
<path d="M9 11H10V12H9V11Z" fill="black"/>
<path d="M10 11H11V12H10V11Z" fill="black"/>
<path d="M11 11H12V12H11V11Z" fill="black"/>
<path d="M1 12H2V13H1V12Z" fill="black"/>
<path d="M2 12H3V13H2V12Z" fill="black"/>
<path d="M3 12H4V13H3V12Z" fill="black"/>
<path d="M4 12H5V13H4V12Z" fill="black"/>
<path d="M5 12H6V13H5V12Z" fill="black"/>
<path d="M6 12H7V13H6V12Z" fill="black"/>
<path d="M7 12H8V13H7V12Z" fill="black"/>
<path d="M8 12H9V13H8V12Z" fill="black"/>
<path d="M9 12H10V13H9V12Z" fill="black"/>
<path d="M10 12H11V13H10V12Z" fill="black"/>
<path d="M1 13H2V14H1V13Z" fill="black"/>
<path d="M2 13H3V14H2V13Z" fill="black"/>
<path d="M3 13H4V14H3V13Z" fill="black"/>
<path d="M4 13H5V14H4V13Z" fill="black"/>
<path d="M5 13H6V14H5V13Z" fill="black"/>
<path d="M6 13H7V14H6V13Z" fill="black"/>
<path d="M7 13H8V14H7V13Z" fill="black"/>
<path d="M8 13H9V14H8V13Z" fill="black"/>
<path d="M9 13H10V14H9V13Z" fill="black"/>
<path d="M2 14H3V15H2V14Z" fill="black"/>
<path d="M3 14H4V15H3V14Z" fill="black"/>
<path d="M4 14H5V15H4V14Z" fill="black"/>
<path d="M5 14H6V15H5V14Z" fill="black"/>
<path d="M6 14H7V15H6V14Z" fill="black"/>
<path d="M7 14H8V15H7V14Z" fill="black"/>
<path d="M8 14H9V15H8V14Z" fill="black"/>
<path d="M2 15H3V16H2V15Z" fill="black"/>
<path d="M3 15H4V16H3V15Z" fill="black"/>
<path d="M4 15H5V16H4V15Z" fill="black"/>
<path d="M5 15H6V16H5V15Z" fill="black"/>
<path d="M6 15H7V16H6V15Z" fill="black"/>
<path d="M7 15H8V16H7V15Z" fill="black"/>
<path d="M3 16H4V17H3V16Z" fill="black"/>
<path d="M4 16H5V17H4V16Z" fill="black"/>
<path d="M5 16H6V17H5V16Z" fill="black"/>
<path d="M6 16H7V17H6V16Z" fill="black"/>
<path d="M7 16H8V17H7V16Z" fill="black"/>
<path d="M3 17H4V18H3V17Z" fill="black"/>
<path d="M4 17H5V18H4V17Z" fill="black"/>
<path d="M5 17H6V18H5V17Z" fill="black"/>
<path d="M6 17H7V18H6V17Z" fill="black"/>
<path d="M7 17H8V18H7V17Z" fill="black"/>
<path d="M8 17H9V18H8V17Z" fill="black"/>
<path d="M4 18H5V19H4V18Z" fill="black"/>
<path d="M5 18H6V19H5V18Z" fill="black"/>
<path d="M6 18H7V19H6V18Z" fill="black"/>
<path d="M7 18H8V19H7V18Z" fill="black"/>
<path d="M8 18H9V19H8V18Z" fill="black"/>
<path d="M9 18H10V19H9V18Z" fill="black"/>
<path d="M4 19H5V20H4V19Z" fill="black"/>
<path d="M5 19H6V20H5V19Z" fill="black"/>
<path d="M6 19H7V20H6V19Z" fill="black"/>
<path d="M7 19H8V20H7V19Z" fill="black"/>
<path d="M8 19H9V20H8V19Z" fill="black"/>
<path d="M9 19H10V20H9V19Z" fill="black"/>
<path d="M5 20H6V21H5V20Z" fill="black"/>
<path d="M6 20H7V21H6V20Z" fill="black"/>
<path d="M7 20H8V21H7V20Z" fill="black"/>
<path d="M8 20H9V21H8V20Z" fill="black"/>
<path d="M9 20H10V21H9V20Z" fill="black"/>
<path d="M10 20H11V21H10V20Z" fill="black"/>
<path d="M5 21H6V22H5V21Z" fill="black"/>
<path d="M6 21H7V22H6V21Z" fill="black"/>
<path d="M7 21H8V22H7V21Z" fill="black"/>
<path d="M8 21H9V22H8V21Z" fill="black"/>
<path d="M9 21H10V22H9V21Z" fill="black"/>
<path d="M10 21H11V22H10V21Z" fill="black"/>
<path d="M11 21H12V22H11V21Z" fill="black"/>
<path d="M6 22H7V23H6V22Z" fill="black"/>
<path d="M7 22H8V23H7V22Z" fill="black"/>
<path d="M8 22H9V23H8V22Z" fill="black"/>
<path d="M9 22H10V23H9V22Z" fill="black"/>
<path d="M10 22H11V23H10V22Z" fill="black"/>
<path d="M11 22H12V23H11V22Z" fill="black"/>
<path d="M12 22H13V23H12V22Z" fill="black"/>
<path d="M7 23H8V24H7V23Z" fill="black"/>
<path d="M8 23H9V24H8V23Z" fill="black"/>
<path d="M9 23H10V24H9V23Z" fill="black"/>
<path d="M10 23H11V24H10V23Z" fill="black"/>
<path d="M11 23H12V24H11V23Z" fill="black"/>
<path d="M12 23H13V24H12V23Z" fill="black"/>
<path d="M13 23H14V24H13V23Z" fill="black"/>
<path d="M25 23H26V24H25V23Z" fill="black"/>
<path d="M26 23H27V24H26V23Z" fill="black"/>
<path d="M8 24H9V25H8V24Z" fill="black"/>
<path d="M9 24H10V25H9V24Z" fill="black"/>
<path d="M10 24H11V25H10V24Z" fill="black"/>
<path d="M11 24H12V25H11V24Z" fill="black"/>
<path d="M12 24H13V25H12V24Z" fill="black"/>
<path d="M13 24H14V25H13V24Z" fill="black"/>
<path d="M14 24H15V25H14V24Z" fill="black"/>
<path d="M24 24H25V25H24V24Z" fill="black"/>
<path d="M25 24H26V25H25V24Z" fill="black"/>
<path d="M26 24H27V25H26V24Z" fill="black"/>
<path d="M27 24H28V25H27V24Z" fill="black"/>
<path d="M28 24H29V25H28V24Z" fill="black"/>
<path d="M29 24H30V25H29V24Z" fill="black"/>
<path d="M30 24H31V25H30V24Z" fill="black"/>
<path d="M31 24H32V25H31V24Z" fill="black"/>
<path d="M9 25H10V26H9V25Z" fill="black"/>
<path d="M10 25H11V26H10V25Z" fill="black"/>
<path d="M11 25H12V26H11V25Z" fill="black"/>
<path d="M12 25H13V26H12V25Z" fill="black"/>
<path d="M13 25H14V26H13V25Z" fill="black"/>
<path d="M14 25H15V26H14V25Z" fill="black"/>
<path d="M15 25H16V26H15V25Z" fill="black"/>
<path d="M23 25H24V26H23V25Z" fill="black"/>
<path d="M24 25H25V26H24V25Z" fill="black"/>
<path d="M25 25H26V26H25V25Z" fill="black"/>
<path d="M26 25H27V26H26V25Z" fill="black"/>
<path d="M27 25H28V26H27V25Z" fill="black"/>
<path d="M28 25H29V26H28V25Z" fill="black"/>
<path d="M29 25H30V26H29V25Z" fill="black"/>
<path d="M30 25H31V26H30V25Z" fill="black"/>
<path d="M31 25H32V26H31V25Z" fill="black"/>
<path d="M32 25H33V26H32V25Z" fill="black"/>
<path d="M33 25H34V26H33V25Z" fill="black"/>
<path d="M34 25H35V26H34V25Z" fill="black"/>
<path d="M35 25H36V26H35V25Z" fill="black"/>
<path d="M10 26H11V27H10V26Z" fill="black"/>
<path d="M11 26H12V27H11V26Z" fill="black"/>
<path d="M12 26H13V27H12V26Z" fill="black"/>
<path d="M13 26H14V27H13V26Z" fill="black"/>
<path d="M14 26H15V27H14V26Z" fill="black"/>
<path d="M15 26H16V27H15V26Z" fill="black"/>
<path d="M16 26H17V27H16V26Z" fill="black"/>
<path d="M17 26H18V27H17V26Z" fill="black"/>
<path d="M22 26H23V27H22V26Z" fill="black"/>
<path d="M23 26H24V27H23V26Z" fill="black"/>
<path d="M24 26H25V27H24V26Z" fill="black"/>
<path d="M25 26H26V27H25V26Z" fill="black"/>
<path d="M26 26H27V27H26V26Z" fill="black"/>
<path d="M27 26H28V27H27V26Z" fill="black"/>
<path d="M28 26H29V27H28V26Z" fill="black"/>
<path d="M29 26H30V27H29V26Z" fill="black"/>
<path d="M30 26H31V27H30V26Z" fill="black"/>
<path d="M31 26H32V27H31V26Z" fill="black"/>
<path d="M32 26H33V27H32V26Z" fill="black"/>
<path d="M33 26H34V27H33V26Z" fill="black"/>
<path d="M34 26H35V27H34V26Z" fill="black"/>
<path d="M35 26H36V27H35V26Z" fill="black"/>
<path d="M11 27H12V28H11V27Z" fill="black"/>
<path d="M12 27H13V28H12V27Z" fill="black"/>
<path d="M13 27H14V28H13V27Z" fill="black"/>
<path d="M14 27H15V28H14V27Z" fill="black"/>
<path d="M15 27H16V28H15V27Z" fill="black"/>
<path d="M16 27H17V28H16V27Z" fill="black"/>
<path d="M17 27H18V28H17V27Z" fill="black"/>
<path d="M18 27H19V28H18V27Z" fill="black"/>
<path d="M21 27H22V28H21V27Z" fill="black"/>
<path d="M22 27H23V28H22V27Z" fill="black"/>
<path d="M23 27H24V28H23V27Z" fill="black"/>
<path d="M24 27H25V28H24V27Z" fill="black"/>
<path d="M25 27H26V28H25V27Z" fill="black"/>
<path d="M26 27H27V28H26V27Z" fill="black"/>
<path d="M27 27H28V28H27V27Z" fill="black"/>
<path d="M28 27H29V28H28V27Z" fill="black"/>
<path d="M29 27H30V28H29V27Z" fill="black"/>
<path d="M30 27H31V28H30V27Z" fill="black"/>
<path d="M31 27H32V28H31V27Z" fill="black"/>
<path d="M32 27H33V28H32V27Z" fill="black"/>
<path d="M33 27H34V28H33V27Z" fill="black"/>
<path d="M34 27H35V28H34V27Z" fill="black"/>
<path d="M35 27H36V28H35V27Z" fill="black"/>
<path d="M12 28H13V29H12V28Z" fill="black"/>
<path d="M13 28H14V29H13V28Z" fill="black"/>
<path d="M14 28H15V29H14V28Z" fill="black"/>
<path d="M15 28H16V29H15V28Z" fill="black"/>
<path d="M16 28H17V29H16V28Z" fill="black"/>
<path d="M17 28H18V29H17V28Z" fill="black"/>
<path d="M18 28H19V29H18V28Z" fill="black"/>
<path d="M19 28H20V29H19V28Z" fill="black"/>
<path d="M20 28H21V29H20V28Z" fill="black"/>
<path d="M21 28H22V29H21V28Z" fill="black"/>
<path d="M22 28H23V29H22V28Z" fill="black"/>
<path d="M23 28H24V29H23V28Z" fill="black"/>
<path d="M24 28H25V29H24V28Z" fill="black"/>
<path d="M25 28H26V29H25V28Z" fill="black"/>
<path d="M26 28H27V29H26V28Z" fill="black"/>
<path d="M27 28H28V29H27V28Z" fill="black"/>
<path d="M28 28H29V29H28V28Z" fill="black"/>
<path d="M29 28H30V29H29V28Z" fill="black"/>
<path d="M30 28H31V29H30V28Z" fill="black"/>
<path d="M31 28H32V29H31V28Z" fill="black"/>
<path d="M32 28H33V29H32V28Z" fill="black"/>
<path d="M33 28H34V29H33V28Z" fill="black"/>
<path d="M34 28H35V29H34V28Z" fill="black"/>
<path d="M35 28H36V29H35V28Z" fill="black"/>
<path d="M13 29H14V30H13V29Z" fill="black"/>
<path d="M14 29H15V30H14V29Z" fill="black"/>
<path d="M15 29H16V30H15V29Z" fill="black"/>
<path d="M16 29H17V30H16V29Z" fill="black"/>
<path d="M17 29H18V30H17V29Z" fill="black"/>
<path d="M18 29H19V30H18V29Z" fill="black"/>
<path d="M19 29H20V30H19V29Z" fill="black"/>
<path d="M20 29H21V30H20V29Z" fill="black"/>
<path d="M21 29H22V30H21V29Z" fill="black"/>
<path d="M22 29H23V30H22V29Z" fill="black"/>
<path d="M23 29H24V30H23V29Z" fill="black"/>
<path d="M24 29H25V30H24V29Z" fill="black"/>
<path d="M25 29H26V30H25V29Z" fill="black"/>
<path d="M26 29H27V30H26V29Z" fill="black"/>
<path d="M27 29H28V30H27V29Z" fill="black"/>
<path d="M28 29H29V30H28V29Z" fill="black"/>
<path d="M29 29H30V30H29V29Z" fill="black"/>
<path d="M30 29H31V30H30V29Z" fill="black"/>
<path d="M31 29H32V30H31V29Z" fill="black"/>
<path d="M32 29H33V30H32V29Z" fill="black"/>
<path d="M33 29H34V30H33V29Z" fill="black"/>
<path d="M34 29H35V30H34V29Z" fill="black"/>
<path d="M35 29H36V30H35V29Z" fill="black"/>
<path d="M15 30H16V31H15V30Z" fill="black"/>
<path d="M16 30H17V31H16V30Z" fill="black"/>
<path d="M17 30H18V31H17V30Z" fill="black"/>
<path d="M18 30H19V31H18V30Z" fill="black"/>
<path d="M19 30H20V31H19V30Z" fill="black"/>
<path d="M20 30H21V31H20V30Z" fill="black"/>
<path d="M21 30H22V31H21V30Z" fill="black"/>
<path d="M22 30H23V31H22V30Z" fill="black"/>
<path d="M23 30H24V31H23V30Z" fill="black"/>
<path d="M24 30H25V31H24V30Z" fill="black"/>
<path d="M25 30H26V31H25V30Z" fill="black"/>
<path d="M26 30H27V31H26V30Z" fill="black"/>
<path d="M27 30H28V31H27V30Z" fill="black"/>
<path d="M28 30H29V31H28V30Z" fill="black"/>
<path d="M29 30H30V31H29V30Z" fill="black"/>
<path d="M30 30H31V31H30V30Z" fill="black"/>
<path d="M31 30H32V31H31V30Z" fill="black"/>
<path d="M32 30H33V31H32V30Z" fill="black"/>
<path d="M33 30H34V31H33V30Z" fill="black"/>
<path d="M34 30H35V31H34V30Z" fill="black"/>
<path d="M35 30H36V31H35V30Z" fill="black"/>
<path d="M16 31H17V32H16V31Z" fill="black"/>
<path d="M17 31H18V32H17V31Z" fill="black"/>
<path d="M18 31H19V32H18V31Z" fill="black"/>
<path d="M19 31H20V32H19V31Z" fill="black"/>
<path d="M20 31H21V32H20V31Z" fill="black"/>
<path d="M21 31H22V32H21V31Z" fill="black"/>
<path d="M22 31H23V32H22V31Z" fill="black"/>
<path d="M23 31H24V32H23V31Z" fill="black"/>
<path d="M24 31H25V32H24V31Z" fill="black"/>
<path d="M25 31H26V32H25V31Z" fill="black"/>
<path d="M26 31H27V32H26V31Z" fill="black"/>
<path d="M27 31H28V32H27V31Z" fill="black"/>
<path d="M28 31H29V32H28V31Z" fill="black"/>
<path d="M29 31H30V32H29V31Z" fill="black"/>
<path d="M30 31H31V32H30V31Z" fill="black"/>
<path d="M31 31H32V32H31V31Z" fill="black"/>
<path d="M32 31H33V32H32V31Z" fill="black"/>
<path d="M33 31H34V32H33V31Z" fill="black"/>
<path d="M34 31H35V32H34V31Z" fill="black"/>
<path d="M35 31H36V32H35V31Z" fill="black"/>
<path d="M18 32H19V33H18V32Z" fill="black"/>
<path d="M19 32H20V33H19V32Z" fill="black"/>
<path d="M20 32H21V33H20V32Z" fill="black"/>
<path d="M21 32H22V33H21V32Z" fill="black"/>
<path d="M22 32H23V33H22V32Z" fill="black"/>
<path d="M23 32H24V33H23V32Z" fill="black"/>
<path d="M24 32H25V33H24V32Z" fill="black"/>
<path d="M25 32H26V33H25V32Z" fill="black"/>
<path d="M26 32H27V33H26V32Z" fill="black"/>
<path d="M27 32H28V33H27V32Z" fill="black"/>
<path d="M28 32H29V33H28V32Z" fill="black"/>
<path d="M29 32H30V33H29V32Z" fill="black"/>
<path d="M30 32H31V33H30V32Z" fill="black"/>
<path d="M31 32H32V33H31V32Z" fill="black"/>
<path d="M32 32H33V33H32V32Z" fill="black"/>
<path d="M33 32H34V33H33V32Z" fill="black"/>
<path d="M34 32H35V33H34V32Z" fill="black"/>
<path d="M35 32H36V33H35V32Z" fill="black"/>
<path d="M20 33H21V34H20V33Z" fill="black"/>
<path d="M21 33H22V34H21V33Z" fill="black"/>
<path d="M22 33H23V34H22V33Z" fill="black"/>
<path d="M23 33H24V34H23V33Z" fill="black"/>
<path d="M24 33H25V34H24V33Z" fill="black"/>
<path d="M25 33H26V34H25V33Z" fill="black"/>
<path d="M26 33H27V34H26V33Z" fill="black"/>
<path d="M27 33H28V34H27V33Z" fill="black"/>
<path d="M28 33H29V34H28V33Z" fill="black"/>
<path d="M29 33H30V34H29V33Z" fill="black"/>
<path d="M30 33H31V34H30V33Z" fill="black"/>
<path d="M31 33H32V34H31V33Z" fill="black"/>
<path d="M32 33H33V34H32V33Z" fill="black"/>
<path d="M33 33H34V34H33V33Z" fill="black"/>
<path d="M34 33H35V34H34V33Z" fill="black"/>
<path d="M35 33H36V34H35V33Z" fill="black"/>
<path d="M22 34H23V35H22V34Z" fill="black"/>
<path d="M23 34H24V35H23V34Z" fill="black"/>
<path d="M24 34H25V35H24V34Z" fill="black"/>
<path d="M25 34H26V35H25V34Z" fill="black"/>
<path d="M26 34H27V35H26V34Z" fill="black"/>
<path d="M27 34H28V35H27V34Z" fill="black"/>
<path d="M28 34H29V35H28V34Z" fill="black"/>
<path d="M29 34H30V35H29V34Z" fill="black"/>
<path d="M30 34H31V35H30V34Z" fill="black"/>
<path d="M31 34H32V35H31V34Z" fill="black"/>
<path d="M32 34H33V35H32V34Z" fill="black"/>
<path d="M33 34H34V35H33V34Z" fill="black"/>
<path d="M34 34H35V35H34V34Z" fill="black"/>
<path d="M35 34H36V35H35V34Z" fill="black"/>
<path d="M26 35H27V36H26V35Z" fill="black"/>
<path d="M27 35H28V36H27V35Z" fill="black"/>
<path d="M28 35H29V36H28V35Z" fill="black"/>
<path d="M29 35H30V36H29V35Z" fill="black"/>
<path d="M30 35H31V36H30V35Z" fill="black"/>
<path d="M31 35H32V36H31V35Z" fill="black"/>
<path d="M32 35H33V36H32V35Z" fill="black"/>
<path d="M33 35H34V36H33V35Z" fill="black"/>
<path d="M34 35H35V36H34V35Z" fill="black"/>
<path d="M35 35H36V36H35V35Z" fill="black"/>
</svg>
