<svg width="37" height="55" viewBox="0 0 37 55" fill="none" xmlns="http://www.w3.org/2000/svg">
<path d="M8.70588 0H9.79412V1.07843H8.70588V0Z" fill="#EF4D1D"/>
<path d="M9.79412 0H10.8824V1.07843H9.79412V0Z" fill="#F14E1E"/>
<path d="M10.8824 0H11.9706V1.07843H10.8824V0Z" fill="#F14E1E"/>
<path d="M11.9706 0H13.0588V1.07843H11.9706V0Z" fill="#F14E1E"/>
<path d="M13.0588 0H14.1471V1.07843H13.0588V0Z" fill="#F14E1E"/>
<path d="M14.1471 0H15.2353V1.07843H14.1471V0Z" fill="#F14E1E"/>
<path d="M15.2353 0H16.3235V1.07843H15.2353V0Z" fill="#F14E1E"/>
<path d="M16.3235 0H17.4118V1.07843H16.3235V0Z" fill="#F14E1E"/>
<path d="M17.4118 0H18.5V1.07843H17.4118V0Z" fill="#F14E1E"/>
<path d="M18.5 0H19.5882V1.07843H18.5V0Z" fill="#FF7262"/>
<path d="M19.5882 0H20.6765V1.07843H19.5882V0Z" fill="#FF7262"/>
<path d="M20.6765 0H21.7647V1.07843H20.6765V0Z" fill="#FF7262"/>
<path d="M21.7647 0H22.8529V1.07843H21.7647V0Z" fill="#FF7262"/>
<path d="M22.8529 0H23.9412V1.07843H22.8529V0Z" fill="#FF7262"/>
<path d="M23.9412 0H25.0294V1.07843H23.9412V0Z" fill="#FF7262"/>
<path d="M25.0294 0H26.1176V1.07843H25.0294V0Z" fill="#FF7262"/>
<path d="M26.1176 0H27.2059V1.07843H26.1176V0Z" fill="#FF7262"/>
<path d="M27.2059 0H28.2941V1.07843H27.2059V0Z" fill="#FF7262"/>
<path d="M28.2941 0H29.3824V1.07843H28.2941V0Z" fill="#FF7060"/>
<path d="M5.44118 1.07843H6.52941V2.15686H5.44118V1.07843Z" fill="#F24E1E"/>
<path d="M6.52941 1.07843H7.61765V2.15686H6.52941V1.07843Z" fill="#F24E1E"/>
<path d="M7.61765 1.07843H8.70588V2.15686H7.61765V1.07843Z" fill="#F24E1E"/>
<path d="M8.70588 1.07843H9.79412V2.15686H8.70588V1.07843Z" fill="#F24E1E"/>
<path d="M9.79412 1.07843H10.8824V2.15686H9.79412V1.07843Z" fill="#F24E1E"/>
<path d="M10.8824 1.07843H11.9706V2.15686H10.8824V1.07843Z" fill="#F24E1E"/>
<path d="M11.9706 1.07843H13.0588V2.15686H11.9706V1.07843Z" fill="#F24E1E"/>
<path d="M13.0588 1.07843H14.1471V2.15686H13.0588V1.07843Z" fill="#F24E1E"/>
<path d="M14.1471 1.07843H15.2353V2.15686H14.1471V1.07843Z" fill="#F24E1E"/>
<path d="M15.2353 1.07843H16.3235V2.15686H15.2353V1.07843Z" fill="#F24E1E"/>
<path d="M16.3235 1.07843H17.4118V2.15686H16.3235V1.07843Z" fill="#F24E1E"/>
<path d="M17.4118 1.07843H18.5V2.15686H17.4118V1.07843Z" fill="#F24E1E"/>
<path d="M18.5 1.07843H19.5882V2.15686H18.5V1.07843Z" fill="#FF7262"/>
<path d="M19.5882 1.07843H20.6765V2.15686H19.5882V1.07843Z" fill="#FF7262"/>
<path d="M20.6765 1.07843H21.7647V2.15686H20.6765V1.07843Z" fill="#FF7262"/>
<path d="M21.7647 1.07843H22.8529V2.15686H21.7647V1.07843Z" fill="#FF7262"/>
<path d="M22.8529 1.07843H23.9412V2.15686H22.8529V1.07843Z" fill="#FF7262"/>
<path d="M23.9412 1.07843H25.0294V2.15686H23.9412V1.07843Z" fill="#FF7262"/>
<path d="M25.0294 1.07843H26.1176V2.15686H25.0294V1.07843Z" fill="#FF7262"/>
<path d="M26.1176 1.07843H27.2059V2.15686H26.1176V1.07843Z" fill="#FF7262"/>
<path d="M27.2059 1.07843H28.2941V2.15686H27.2059V1.07843Z" fill="#FF7262"/>
<path d="M28.2941 1.07843H29.3824V2.15686H28.2941V1.07843Z" fill="#FF7262"/>
<path d="M29.3824 1.07843H30.4706V2.15686H29.3824V1.07843Z" fill="#FF7262"/>
<path d="M30.4706 1.07843H31.5588V2.15686H30.4706V1.07843Z" fill="#FF7262"/>
<path d="M31.5588 1.07843H32.6471V2.15686H31.5588V1.07843Z" fill="#FF7262"/>
<path d="M3.26471 2.15686H4.35294V3.23529H3.26471V2.15686Z" fill="#F24D1D"/>
<path d="M4.35294 2.15686H5.44118V3.23529H4.35294V2.15686Z" fill="#F24E1E"/>
<path d="M5.44118 2.15686H6.52941V3.23529H5.44118V2.15686Z" fill="#F24E1E"/>
<path d="M6.52941 2.15686H7.61765V3.23529H6.52941V2.15686Z" fill="#F24E1E"/>
<path d="M7.61765 2.15686H8.70588V3.23529H7.61765V2.15686Z" fill="#F24E1E"/>
<path d="M8.70588 2.15686H9.79412V3.23529H8.70588V2.15686Z" fill="#F24E1E"/>
<path d="M9.79412 2.15686H10.8824V3.23529H9.79412V2.15686Z" fill="#F24E1E"/>
<path d="M10.8824 2.15686H11.9706V3.23529H10.8824V2.15686Z" fill="#F24E1E"/>
<path d="M11.9706 2.15686H13.0588V3.23529H11.9706V2.15686Z" fill="#F24E1E"/>
<path d="M13.0588 2.15686H14.1471V3.23529H13.0588V2.15686Z" fill="#F24E1E"/>
<path d="M14.1471 2.15686H15.2353V3.23529H14.1471V2.15686Z" fill="#F24E1E"/>
<path d="M15.2353 2.15686H16.3235V3.23529H15.2353V2.15686Z" fill="#F24E1E"/>
<path d="M16.3235 2.15686H17.4118V3.23529H16.3235V2.15686Z" fill="#F24E1E"/>
<path d="M17.4118 2.15686H18.5V3.23529H17.4118V2.15686Z" fill="#F24E1E"/>
<path d="M18.5 2.15686H19.5882V3.23529H18.5V2.15686Z" fill="#FF7262"/>
<path d="M19.5882 2.15686H20.6765V3.23529H19.5882V2.15686Z" fill="#FF7262"/>
<path d="M20.6765 2.15686H21.7647V3.23529H20.6765V2.15686Z" fill="#FF7262"/>
<path d="M21.7647 2.15686H22.8529V3.23529H21.7647V2.15686Z" fill="#FF7262"/>
<path d="M22.8529 2.15686H23.9412V3.23529H22.8529V2.15686Z" fill="#FF7262"/>
<path d="M23.9412 2.15686H25.0294V3.23529H23.9412V2.15686Z" fill="#FF7262"/>
<path d="M25.0294 2.15686H26.1176V3.23529H25.0294V2.15686Z" fill="#FF7262"/>
<path d="M26.1176 2.15686H27.2059V3.23529H26.1176V2.15686Z" fill="#FF7262"/>
<path d="M27.2059 2.15686H28.2941V3.23529H27.2059V2.15686Z" fill="#FF7262"/>
<path d="M28.2941 2.15686H29.3824V3.23529H28.2941V2.15686Z" fill="#FF7262"/>
<path d="M29.3824 2.15686H30.4706V3.23529H29.3824V2.15686Z" fill="#FF7262"/>
<path d="M30.4706 2.15686H31.5588V3.23529H30.4706V2.15686Z" fill="#FF7262"/>
<path d="M31.5588 2.15686H32.6471V3.23529H31.5588V2.15686Z" fill="#FF7262"/>
<path d="M32.6471 2.15686H33.7353V3.23529H32.6471V2.15686Z" fill="#FF7262"/>
<path d="M2.17647 3.23529L3.26471 3.23529V4.31373H2.17647V3.23529Z" fill="#F34E1E"/>
<path d="M3.26471 3.23529H4.35294V4.31373H3.26471V3.23529Z" fill="#F24E1E"/>
<path d="M4.35294 3.23529H5.44118V4.31373H4.35294V3.23529Z" fill="#F24E1E"/>
<path d="M5.44118 3.23529H6.52941V4.31373H5.44118V3.23529Z" fill="#F24E1E"/>
<path d="M6.52941 3.23529H7.61765V4.31373H6.52941V3.23529Z" fill="#F24E1E"/>
<path d="M7.61765 3.23529H8.70588V4.31373H7.61765V3.23529Z" fill="#F24E1E"/>
<path d="M8.70588 3.23529H9.79412V4.31373H8.70588V3.23529Z" fill="#F24E1E"/>
<path d="M9.79412 3.23529H10.8824V4.31373H9.79412V3.23529Z" fill="#F24E1E"/>
<path d="M10.8824 3.23529H11.9706V4.31373H10.8824V3.23529Z" fill="#F24E1E"/>
<path d="M11.9706 3.23529H13.0588V4.31373H11.9706V3.23529Z" fill="#F24E1E"/>
<path d="M13.0588 3.23529H14.1471V4.31373H13.0588V3.23529Z" fill="#F24E1E"/>
<path d="M14.1471 3.23529H15.2353V4.31373H14.1471V3.23529Z" fill="#F24E1E"/>
<path d="M15.2353 3.23529H16.3235V4.31373H15.2353V3.23529Z" fill="#F24E1E"/>
<path d="M16.3235 3.23529H17.4118V4.31373H16.3235V3.23529Z" fill="#F24E1E"/>
<path d="M17.4118 3.23529H18.5V4.31373H17.4118V3.23529Z" fill="#F24E1E"/>
<path d="M18.5 3.23529H19.5882V4.31373H18.5V3.23529Z" fill="#FF7262"/>
<path d="M19.5882 3.23529H20.6765V4.31373H19.5882V3.23529Z" fill="#FF7262"/>
<path d="M20.6765 3.23529H21.7647V4.31373H20.6765V3.23529Z" fill="#FF7262"/>
<path d="M21.7647 3.23529H22.8529V4.31373H21.7647V3.23529Z" fill="#FF7262"/>
<path d="M22.8529 3.23529H23.9412V4.31373H22.8529V3.23529Z" fill="#FF7262"/>
<path d="M23.9412 3.23529H25.0294V4.31373H23.9412V3.23529Z" fill="#FF7262"/>
<path d="M25.0294 3.23529H26.1176V4.31373H25.0294V3.23529Z" fill="#FF7262"/>
<path d="M26.1176 3.23529H27.2059V4.31373H26.1176V3.23529Z" fill="#FF7262"/>
<path d="M27.2059 3.23529H28.2941V4.31373H27.2059V3.23529Z" fill="#FF7262"/>
<path d="M28.2941 3.23529H29.3824V4.31373H28.2941V3.23529Z" fill="#FF7262"/>
<path d="M29.3824 3.23529H30.4706V4.31373H29.3824V3.23529Z" fill="#FF7262"/>
<path d="M30.4706 3.23529H31.5588V4.31373H30.4706V3.23529Z" fill="#FF7262"/>
<path d="M31.5588 3.23529H32.6471V4.31373H31.5588V3.23529Z" fill="#FF7262"/>
<path d="M32.6471 3.23529H33.7353V4.31373H32.6471V3.23529Z" fill="#FF7262"/>
<path d="M33.7353 3.23529L34.8235 3.23529V4.31373H33.7353V3.23529Z" fill="#FF7262"/>
<path d="M2.17647 4.31373H3.26471V5.39216H2.17647V4.31373Z" fill="#F24E1E"/>
<path d="M3.26471 4.31373H4.35294V5.39216H3.26471V4.31373Z" fill="#F24E1E"/>
<path d="M4.35294 4.31373H5.44118V5.39216H4.35294V4.31373Z" fill="#F24E1E"/>
<path d="M5.44118 4.31373H6.52941V5.39216H5.44118V4.31373Z" fill="#F24E1E"/>
<path d="M6.52941 4.31373H7.61765V5.39216H6.52941V4.31373Z" fill="#F24E1E"/>
<path d="M7.61765 4.31373H8.70588V5.39216H7.61765V4.31373Z" fill="#F24E1E"/>
<path d="M8.70588 4.31373H9.79412V5.39216H8.70588V4.31373Z" fill="#F24E1E"/>
<path d="M9.79412 4.31373H10.8824V5.39216H9.79412V4.31373Z" fill="#F24E1E"/>
<path d="M10.8824 4.31373H11.9706V5.39216H10.8824V4.31373Z" fill="#F24E1E"/>
<path d="M11.9706 4.31373H13.0588V5.39216H11.9706V4.31373Z" fill="#F24E1E"/>
<path d="M13.0588 4.31373H14.1471V5.39216H13.0588V4.31373Z" fill="#F24E1E"/>
<path d="M14.1471 4.31373H15.2353V5.39216H14.1471V4.31373Z" fill="#F24E1E"/>
<path d="M15.2353 4.31373H16.3235V5.39216H15.2353V4.31373Z" fill="#F24E1E"/>
<path d="M16.3235 4.31373H17.4118V5.39216H16.3235V4.31373Z" fill="#F24E1E"/>
<path d="M17.4118 4.31373H18.5V5.39216H17.4118V4.31373Z" fill="#F24E1E"/>
<path d="M18.5 4.31373H19.5882V5.39216H18.5V4.31373Z" fill="#FF7262"/>
<path d="M19.5882 4.31373H20.6765V5.39216H19.5882V4.31373Z" fill="#FF7262"/>
<path d="M20.6765 4.31373H21.7647V5.39216H20.6765V4.31373Z" fill="#FF7262"/>
<path d="M21.7647 4.31373H22.8529V5.39216H21.7647V4.31373Z" fill="#FF7262"/>
<path d="M22.8529 4.31373H23.9412V5.39216H22.8529V4.31373Z" fill="#FF7262"/>
<path d="M23.9412 4.31373H25.0294V5.39216H23.9412V4.31373Z" fill="#FF7262"/>
<path d="M25.0294 4.31373H26.1176V5.39216H25.0294V4.31373Z" fill="#FF7262"/>
<path d="M26.1176 4.31373H27.2059V5.39216H26.1176V4.31373Z" fill="#FF7262"/>
<path d="M27.2059 4.31373H28.2941V5.39216H27.2059V4.31373Z" fill="#FF7262"/>
<path d="M28.2941 4.31373H29.3824V5.39216H28.2941V4.31373Z" fill="#FF7262"/>
<path d="M29.3824 4.31373H30.4706V5.39216H29.3824V4.31373Z" fill="#FF7262"/>
<path d="M30.4706 4.31373H31.5588V5.39216H30.4706V4.31373Z" fill="#FF7262"/>
<path d="M31.5588 4.31373H32.6471V5.39216H31.5588V4.31373Z" fill="#FF7262"/>
<path d="M32.6471 4.31373H33.7353V5.39216H32.6471V4.31373Z" fill="#FF7262"/>
<path d="M33.7353 4.31373H34.8235V5.39216H33.7353V4.31373Z" fill="#FF7262"/>
<path d="M34.8235 4.31373H35.9118V5.39216H34.8235V4.31373Z" fill="#FF7262"/>
<path d="M1.08824 5.39216H2.17647V6.47059H1.08824V5.39216Z" fill="#F24E1E"/>
<path d="M2.17647 5.39216H3.26471V6.47059H2.17647V5.39216Z" fill="#F24E1E"/>
<path d="M3.26471 5.39216H4.35294V6.47059H3.26471V5.39216Z" fill="#F24E1E"/>
<path d="M4.35294 5.39216H5.44118V6.47059H4.35294V5.39216Z" fill="#F24E1E"/>
<path d="M5.44118 5.39216H6.52941V6.47059H5.44118V5.39216Z" fill="#F24E1E"/>
<path d="M6.52941 5.39216H7.61765V6.47059H6.52941V5.39216Z" fill="#F24E1E"/>
<path d="M7.61765 5.39216H8.70588V6.47059H7.61765V5.39216Z" fill="#F24E1E"/>
<path d="M8.70588 5.39216H9.79412V6.47059H8.70588V5.39216Z" fill="#F24E1E"/>
<path d="M9.79412 5.39216H10.8824V6.47059H9.79412V5.39216Z" fill="#F24E1E"/>
<path d="M10.8824 5.39216H11.9706V6.47059H10.8824V5.39216Z" fill="#F24E1E"/>
<path d="M11.9706 5.39216H13.0588V6.47059H11.9706V5.39216Z" fill="#F24E1E"/>
<path d="M13.0588 5.39216H14.1471V6.47059H13.0588V5.39216Z" fill="#F24E1E"/>
<path d="M14.1471 5.39216H15.2353V6.47059H14.1471V5.39216Z" fill="#F24E1E"/>
<path d="M15.2353 5.39216H16.3235V6.47059H15.2353V5.39216Z" fill="#F24E1E"/>
<path d="M16.3235 5.39216H17.4118V6.47059H16.3235V5.39216Z" fill="#F24E1E"/>
<path d="M17.4118 5.39216H18.5V6.47059H17.4118V5.39216Z" fill="#F24E1E"/>
<path d="M18.5 5.39216H19.5882V6.47059H18.5V5.39216Z" fill="#FF7262"/>
<path d="M19.5882 5.39216H20.6765V6.47059H19.5882V5.39216Z" fill="#FF7262"/>
<path d="M20.6765 5.39216H21.7647V6.47059H20.6765V5.39216Z" fill="#FF7262"/>
<path d="M21.7647 5.39216H22.8529V6.47059H21.7647V5.39216Z" fill="#FF7262"/>
<path d="M22.8529 5.39216H23.9412V6.47059H22.8529V5.39216Z" fill="#FF7262"/>
<path d="M23.9412 5.39216H25.0294V6.47059H23.9412V5.39216Z" fill="#FF7262"/>
<path d="M25.0294 5.39216H26.1176V6.47059H25.0294V5.39216Z" fill="#FF7262"/>
<path d="M26.1176 5.39216H27.2059V6.47059H26.1176V5.39216Z" fill="#FF7262"/>
<path d="M27.2059 5.39216H28.2941V6.47059H27.2059V5.39216Z" fill="#FF7262"/>
<path d="M28.2941 5.39216H29.3824V6.47059H28.2941V5.39216Z" fill="#FF7262"/>
<path d="M29.3824 5.39216H30.4706V6.47059H29.3824V5.39216Z" fill="#FF7262"/>
<path d="M30.4706 5.39216H31.5588V6.47059H30.4706V5.39216Z" fill="#FF7262"/>
<path d="M31.5588 5.39216H32.6471V6.47059H31.5588V5.39216Z" fill="#FF7262"/>
<path d="M32.6471 5.39216H33.7353V6.47059H32.6471V5.39216Z" fill="#FF7262"/>
<path d="M33.7353 5.39216H34.8235V6.47059H33.7353V5.39216Z" fill="#FF7262"/>
<path d="M34.8235 5.39216H35.9118V6.47059H34.8235V5.39216Z" fill="#FF7262"/>
<path d="M35.9118 5.39216H37V6.47059H35.9118V5.39216Z" fill="#FF7262"/>
<path d="M1.08824 6.47059H2.17647V7.54902H1.08824V6.47059Z" fill="#F24E1E"/>
<path d="M2.17647 6.47059H3.26471V7.54902H2.17647V6.47059Z" fill="#F24E1E"/>
<path d="M3.26471 6.47059H4.35294V7.54902H3.26471V6.47059Z" fill="#F24E1E"/>
<path d="M4.35294 6.47059H5.44118V7.54902H4.35294V6.47059Z" fill="#F24E1E"/>
<path d="M5.44118 6.47059H6.52941V7.54902H5.44118V6.47059Z" fill="#F24E1E"/>
<path d="M6.52941 6.47059H7.61765V7.54902H6.52941V6.47059Z" fill="#F24E1E"/>
<path d="M7.61765 6.47059H8.70588V7.54902H7.61765V6.47059Z" fill="#F24E1E"/>
<path d="M8.70588 6.47059H9.79412V7.54902H8.70588V6.47059Z" fill="#F24E1E"/>
<path d="M9.79412 6.47059H10.8824V7.54902H9.79412V6.47059Z" fill="#F24E1E"/>
<path d="M10.8824 6.47059H11.9706V7.54902H10.8824V6.47059Z" fill="#F24E1E"/>
<path d="M11.9706 6.47059H13.0588V7.54902H11.9706V6.47059Z" fill="#F24E1E"/>
<path d="M13.0588 6.47059H14.1471V7.54902H13.0588V6.47059Z" fill="#F24E1E"/>
<path d="M14.1471 6.47059H15.2353V7.54902H14.1471V6.47059Z" fill="#F24E1E"/>
<path d="M15.2353 6.47059H16.3235V7.54902H15.2353V6.47059Z" fill="#F24E1E"/>
<path d="M16.3235 6.47059H17.4118V7.54902H16.3235V6.47059Z" fill="#F24E1E"/>
<path d="M17.4118 6.47059H18.5V7.54902H17.4118V6.47059Z" fill="#F24E1E"/>
<path d="M18.5 6.47059H19.5882V7.54902H18.5V6.47059Z" fill="#FF7262"/>
<path d="M19.5882 6.47059H20.6765V7.54902H19.5882V6.47059Z" fill="#FF7262"/>
<path d="M20.6765 6.47059H21.7647V7.54902H20.6765V6.47059Z" fill="#FF7262"/>
<path d="M21.7647 6.47059H22.8529V7.54902H21.7647V6.47059Z" fill="#FF7262"/>
<path d="M22.8529 6.47059H23.9412V7.54902H22.8529V6.47059Z" fill="#FF7262"/>
<path d="M23.9412 6.47059H25.0294V7.54902H23.9412V6.47059Z" fill="#FF7262"/>
<path d="M25.0294 6.47059H26.1176V7.54902H25.0294V6.47059Z" fill="#FF7262"/>
<path d="M26.1176 6.47059H27.2059V7.54902H26.1176V6.47059Z" fill="#FF7262"/>
<path d="M27.2059 6.47059H28.2941V7.54902H27.2059V6.47059Z" fill="#FF7262"/>
<path d="M28.2941 6.47059H29.3824V7.54902H28.2941V6.47059Z" fill="#FF7262"/>
<path d="M29.3824 6.47059H30.4706V7.54902H29.3824V6.47059Z" fill="#FF7262"/>
<path d="M30.4706 6.47059H31.5588V7.54902H30.4706V6.47059Z" fill="#FF7262"/>
<path d="M31.5588 6.47059H32.6471V7.54902H31.5588V6.47059Z" fill="#FF7262"/>
<path d="M32.6471 6.47059H33.7353V7.54902H32.6471V6.47059Z" fill="#FF7262"/>
<path d="M33.7353 6.47059H34.8235V7.54902H33.7353V6.47059Z" fill="#FF7262"/>
<path d="M34.8235 6.47059H35.9118V7.54902H34.8235V6.47059Z" fill="#FF7262"/>
<path d="M35.9118 6.47059H37V7.54902H35.9118V6.47059Z" fill="#FF7262"/>
<path d="M1.08824 7.54902H2.17647V8.62745H1.08824V7.54902Z" fill="#F24E1E"/>
<path d="M2.17647 7.54902H3.26471V8.62745H2.17647V7.54902Z" fill="#F24E1E"/>
<path d="M3.26471 7.54902H4.35294V8.62745H3.26471V7.54902Z" fill="#F24E1E"/>
<path d="M4.35294 7.54902H5.44118V8.62745H4.35294V7.54902Z" fill="#F24E1E"/>
<path d="M5.44118 7.54902H6.52941V8.62745H5.44118V7.54902Z" fill="#F24E1E"/>
<path d="M6.52941 7.54902H7.61765V8.62745H6.52941V7.54902Z" fill="#F24E1E"/>
<path d="M7.61765 7.54902H8.70588V8.62745H7.61765V7.54902Z" fill="#F24E1E"/>
<path d="M8.70588 7.54902H9.79412V8.62745H8.70588V7.54902Z" fill="#F24E1E"/>
<path d="M9.79412 7.54902H10.8824V8.62745H9.79412V7.54902Z" fill="#F24E1E"/>
<path d="M10.8824 7.54902H11.9706V8.62745H10.8824V7.54902Z" fill="#F24E1E"/>
<path d="M11.9706 7.54902H13.0588V8.62745H11.9706V7.54902Z" fill="#F24E1E"/>
<path d="M13.0588 7.54902H14.1471V8.62745H13.0588V7.54902Z" fill="#F24E1E"/>
<path d="M14.1471 7.54902H15.2353V8.62745H14.1471V7.54902Z" fill="#F24E1E"/>
<path d="M15.2353 7.54902H16.3235V8.62745H15.2353V7.54902Z" fill="#F24E1E"/>
<path d="M16.3235 7.54902H17.4118V8.62745H16.3235V7.54902Z" fill="#F24E1E"/>
<path d="M17.4118 7.54902H18.5V8.62745H17.4118V7.54902Z" fill="#F24E1E"/>
<path d="M18.5 7.54902H19.5882V8.62745H18.5V7.54902Z" fill="#FF7262"/>
<path d="M19.5882 7.54902H20.6765V8.62745H19.5882V7.54902Z" fill="#FF7262"/>
<path d="M20.6765 7.54902H21.7647V8.62745H20.6765V7.54902Z" fill="#FF7262"/>
<path d="M21.7647 7.54902H22.8529V8.62745H21.7647V7.54902Z" fill="#FF7262"/>
<path d="M22.8529 7.54902H23.9412V8.62745H22.8529V7.54902Z" fill="#FF7262"/>
<path d="M23.9412 7.54902H25.0294V8.62745H23.9412V7.54902Z" fill="#FF7262"/>
<path d="M25.0294 7.54902H26.1176V8.62745H25.0294V7.54902Z" fill="#FF7262"/>
<path d="M26.1176 7.54902H27.2059V8.62745H26.1176V7.54902Z" fill="#FF7262"/>
<path d="M27.2059 7.54902H28.2941V8.62745H27.2059V7.54902Z" fill="#FF7262"/>
<path d="M28.2941 7.54902H29.3824V8.62745H28.2941V7.54902Z" fill="#FF7262"/>
<path d="M29.3824 7.54902H30.4706V8.62745H29.3824V7.54902Z" fill="#FF7262"/>
<path d="M30.4706 7.54902H31.5588V8.62745H30.4706V7.54902Z" fill="#FF7262"/>
<path d="M31.5588 7.54902H32.6471V8.62745H31.5588V7.54902Z" fill="#FF7262"/>
<path d="M32.6471 7.54902H33.7353V8.62745H32.6471V7.54902Z" fill="#FF7262"/>
<path d="M33.7353 7.54902H34.8235V8.62745H33.7353V7.54902Z" fill="#FF7262"/>
<path d="M34.8235 7.54902H35.9118V8.62745H34.8235V7.54902Z" fill="#FF7262"/>
<path d="M35.9118 7.54902H37V8.62745H35.9118V7.54902Z" fill="#FF7262"/>
<path d="M0 8.62745H1.08824V9.70588H0V8.62745Z" fill="#F24D1D"/>
<path d="M1.08824 8.62745H2.17647V9.70588H1.08824V8.62745Z" fill="#F24E1E"/>
<path d="M2.17647 8.62745H3.26471V9.70588H2.17647V8.62745Z" fill="#F24E1E"/>
<path d="M3.26471 8.62745H4.35294V9.70588H3.26471V8.62745Z" fill="#F24E1E"/>
<path d="M4.35294 8.62745H5.44118V9.70588H4.35294V8.62745Z" fill="#F24E1E"/>
<path d="M5.44118 8.62745H6.52941V9.70588H5.44118V8.62745Z" fill="#F24E1E"/>
<path d="M6.52941 8.62745H7.61765V9.70588H6.52941V8.62745Z" fill="#F24E1E"/>
<path d="M7.61765 8.62745H8.70588V9.70588H7.61765V8.62745Z" fill="#F24E1E"/>
<path d="M8.70588 8.62745H9.79412V9.70588H8.70588V8.62745Z" fill="#F24E1E"/>
<path d="M9.79412 8.62745H10.8824V9.70588H9.79412V8.62745Z" fill="#F24E1E"/>
<path d="M10.8824 8.62745H11.9706V9.70588H10.8824V8.62745Z" fill="#F24E1E"/>
<path d="M11.9706 8.62745H13.0588V9.70588H11.9706V8.62745Z" fill="#F24E1E"/>
<path d="M13.0588 8.62745H14.1471V9.70588H13.0588V8.62745Z" fill="#F24E1E"/>
<path d="M14.1471 8.62745H15.2353V9.70588H14.1471V8.62745Z" fill="#F24E1E"/>
<path d="M15.2353 8.62745H16.3235V9.70588H15.2353V8.62745Z" fill="#F24E1E"/>
<path d="M16.3235 8.62745H17.4118V9.70588H16.3235V8.62745Z" fill="#F24E1E"/>
<path d="M17.4118 8.62745H18.5V9.70588H17.4118V8.62745Z" fill="#F24E1E"/>
<path d="M18.5 8.62745H19.5882V9.70588H18.5V8.62745Z" fill="#FF7262"/>
<path d="M19.5882 8.62745H20.6765V9.70588H19.5882V8.62745Z" fill="#FF7262"/>
<path d="M20.6765 8.62745H21.7647V9.70588H20.6765V8.62745Z" fill="#FF7262"/>
<path d="M21.7647 8.62745H22.8529V9.70588H21.7647V8.62745Z" fill="#FF7262"/>
<path d="M22.8529 8.62745H23.9412V9.70588H22.8529V8.62745Z" fill="#FF7262"/>
<path d="M23.9412 8.62745H25.0294V9.70588H23.9412V8.62745Z" fill="#FF7262"/>
<path d="M25.0294 8.62745H26.1176V9.70588H25.0294V8.62745Z" fill="#FF7262"/>
<path d="M26.1176 8.62745H27.2059V9.70588H26.1176V8.62745Z" fill="#FF7262"/>
<path d="M27.2059 8.62745H28.2941V9.70588H27.2059V8.62745Z" fill="#FF7262"/>
<path d="M28.2941 8.62745H29.3824V9.70588H28.2941V8.62745Z" fill="#FF7262"/>
<path d="M29.3824 8.62745H30.4706V9.70588H29.3824V8.62745Z" fill="#FF7262"/>
<path d="M30.4706 8.62745H31.5588V9.70588H30.4706V8.62745Z" fill="#FF7262"/>
<path d="M31.5588 8.62745H32.6471V9.70588H31.5588V8.62745Z" fill="#FF7262"/>
<path d="M32.6471 8.62745H33.7353V9.70588H32.6471V8.62745Z" fill="#FF7262"/>
<path d="M33.7353 8.62745H34.8235V9.70588H33.7353V8.62745Z" fill="#FF7262"/>
<path d="M34.8235 8.62745H35.9118V9.70588H34.8235V8.62745Z" fill="#FF7262"/>
<path d="M35.9118 8.62745H37V9.70588H35.9118V8.62745Z" fill="#FF7262"/>
<path d="M0 9.70588H1.08824V10.7843H0V9.70588Z" fill="#EF5020"/>
<path d="M1.08824 9.70588H2.17647V10.7843H1.08824V9.70588Z" fill="#F24E1E"/>
<path d="M2.17647 9.70588H3.26471V10.7843H2.17647V9.70588Z" fill="#F24E1E"/>
<path d="M3.26471 9.70588H4.35294V10.7843H3.26471V9.70588Z" fill="#F24E1E"/>
<path d="M4.35294 9.70588H5.44118V10.7843H4.35294V9.70588Z" fill="#F24E1E"/>
<path d="M5.44118 9.70588H6.52941V10.7843H5.44118V9.70588Z" fill="#F24E1E"/>
<path d="M6.52941 9.70588H7.61765V10.7843H6.52941V9.70588Z" fill="#F24E1E"/>
<path d="M7.61765 9.70588H8.70588V10.7843H7.61765V9.70588Z" fill="#F24E1E"/>
<path d="M8.70588 9.70588H9.79412V10.7843H8.70588V9.70588Z" fill="#F24E1E"/>
<path d="M9.79412 9.70588H10.8824V10.7843H9.79412V9.70588Z" fill="#F24E1E"/>
<path d="M10.8824 9.70588H11.9706V10.7843H10.8824V9.70588Z" fill="#F24E1E"/>
<path d="M11.9706 9.70588H13.0588V10.7843H11.9706V9.70588Z" fill="#F24E1E"/>
<path d="M13.0588 9.70588H14.1471V10.7843H13.0588V9.70588Z" fill="#F24E1E"/>
<path d="M14.1471 9.70588H15.2353V10.7843H14.1471V9.70588Z" fill="#F24E1E"/>
<path d="M15.2353 9.70588H16.3235V10.7843H15.2353V9.70588Z" fill="#F24E1E"/>
<path d="M16.3235 9.70588H17.4118V10.7843H16.3235V9.70588Z" fill="#F24E1E"/>
<path d="M17.4118 9.70588H18.5V10.7843H17.4118V9.70588Z" fill="#F24E1E"/>
<path d="M18.5 9.70588H19.5882V10.7843H18.5V9.70588Z" fill="#FF7262"/>
<path d="M19.5882 9.70588H20.6765V10.7843H19.5882V9.70588Z" fill="#FF7262"/>
<path d="M20.6765 9.70588H21.7647V10.7843H20.6765V9.70588Z" fill="#FF7262"/>
<path d="M21.7647 9.70588H22.8529V10.7843H21.7647V9.70588Z" fill="#FF7262"/>
<path d="M22.8529 9.70588H23.9412V10.7843H22.8529V9.70588Z" fill="#FF7262"/>
<path d="M23.9412 9.70588H25.0294V10.7843H23.9412V9.70588Z" fill="#FF7262"/>
<path d="M25.0294 9.70588H26.1176V10.7843H25.0294V9.70588Z" fill="#FF7262"/>
<path d="M26.1176 9.70588H27.2059V10.7843H26.1176V9.70588Z" fill="#FF7262"/>
<path d="M27.2059 9.70588H28.2941V10.7843H27.2059V9.70588Z" fill="#FF7262"/>
<path d="M28.2941 9.70588H29.3824V10.7843H28.2941V9.70588Z" fill="#FF7262"/>
<path d="M29.3824 9.70588H30.4706V10.7843H29.3824V9.70588Z" fill="#FF7262"/>
<path d="M30.4706 9.70588H31.5588V10.7843H30.4706V9.70588Z" fill="#FF7262"/>
<path d="M31.5588 9.70588H32.6471V10.7843H31.5588V9.70588Z" fill="#FF7262"/>
<path d="M32.6471 9.70588H33.7353V10.7843H32.6471V9.70588Z" fill="#FF7262"/>
<path d="M33.7353 9.70588H34.8235V10.7843H33.7353V9.70588Z" fill="#FF7262"/>
<path d="M34.8235 9.70588H35.9118V10.7843H34.8235V9.70588Z" fill="#FF7262"/>
<path d="M35.9118 9.70588H37V10.7843H35.9118V9.70588Z" fill="#FF7262"/>
<path d="M1.08824 10.7843H2.17647V11.8627H1.08824V10.7843Z" fill="#F24E1E"/>
<path d="M2.17647 10.7843H3.26471V11.8627H2.17647V10.7843Z" fill="#F24E1E"/>
<path d="M3.26471 10.7843H4.35294V11.8627H3.26471V10.7843Z" fill="#F24E1E"/>
<path d="M4.35294 10.7843H5.44118V11.8627H4.35294V10.7843Z" fill="#F24E1E"/>
<path d="M5.44118 10.7843H6.52941V11.8627H5.44118V10.7843Z" fill="#F24E1E"/>
<path d="M6.52941 10.7843H7.61765V11.8627H6.52941V10.7843Z" fill="#F24E1E"/>
<path d="M7.61765 10.7843H8.70588V11.8627H7.61765V10.7843Z" fill="#F24E1E"/>
<path d="M8.70588 10.7843H9.79412V11.8627H8.70588V10.7843Z" fill="#F24E1E"/>
<path d="M9.79412 10.7843H10.8824V11.8627H9.79412V10.7843Z" fill="#F24E1E"/>
<path d="M10.8824 10.7843H11.9706V11.8627H10.8824V10.7843Z" fill="#F24E1E"/>
<path d="M11.9706 10.7843H13.0588V11.8627H11.9706V10.7843Z" fill="#F24E1E"/>
<path d="M13.0588 10.7843H14.1471V11.8627H13.0588V10.7843Z" fill="#F24E1E"/>
<path d="M14.1471 10.7843H15.2353V11.8627H14.1471V10.7843Z" fill="#F24E1E"/>
<path d="M15.2353 10.7843H16.3235V11.8627H15.2353V10.7843Z" fill="#F24E1E"/>
<path d="M16.3235 10.7843H17.4118V11.8627H16.3235V10.7843Z" fill="#F24E1E"/>
<path d="M17.4118 10.7843H18.5V11.8627H17.4118V10.7843Z" fill="#F24E1E"/>
<path d="M18.5 10.7843H19.5882V11.8627H18.5V10.7843Z" fill="#FF7262"/>
<path d="M19.5882 10.7843H20.6765V11.8627H19.5882V10.7843Z" fill="#FF7262"/>
<path d="M20.6765 10.7843H21.7647V11.8627H20.6765V10.7843Z" fill="#FF7262"/>
<path d="M21.7647 10.7843H22.8529V11.8627H21.7647V10.7843Z" fill="#FF7262"/>
<path d="M22.8529 10.7843H23.9412V11.8627H22.8529V10.7843Z" fill="#FF7262"/>
<path d="M23.9412 10.7843H25.0294V11.8627H23.9412V10.7843Z" fill="#FF7262"/>
<path d="M25.0294 10.7843H26.1176V11.8627H25.0294V10.7843Z" fill="#FF7262"/>
<path d="M26.1176 10.7843H27.2059V11.8627H26.1176V10.7843Z" fill="#FF7262"/>
<path d="M27.2059 10.7843H28.2941V11.8627H27.2059V10.7843Z" fill="#FF7262"/>
<path d="M28.2941 10.7843H29.3824V11.8627H28.2941V10.7843Z" fill="#FF7262"/>
<path d="M29.3824 10.7843H30.4706V11.8627H29.3824V10.7843Z" fill="#FF7262"/>
<path d="M30.4706 10.7843H31.5588V11.8627H30.4706V10.7843Z" fill="#FF7262"/>
<path d="M31.5588 10.7843H32.6471V11.8627H31.5588V10.7843Z" fill="#FF7262"/>
<path d="M32.6471 10.7843H33.7353V11.8627H32.6471V10.7843Z" fill="#FF7262"/>
<path d="M33.7353 10.7843H34.8235V11.8627H33.7353V10.7843Z" fill="#FF7262"/>
<path d="M34.8235 10.7843H35.9118V11.8627H34.8235V10.7843Z" fill="#FF7262"/>
<path d="M35.9118 10.7843H37V11.8627H35.9118V10.7843Z" fill="#FF7262"/>
<path d="M1.08824 11.8627H2.17647V12.9412H1.08824V11.8627Z" fill="#F24E1E"/>
<path d="M2.17647 11.8627H3.26471V12.9412H2.17647V11.8627Z" fill="#F24E1E"/>
<path d="M3.26471 11.8627H4.35294V12.9412H3.26471V11.8627Z" fill="#F24E1E"/>
<path d="M4.35294 11.8627H5.44118V12.9412H4.35294V11.8627Z" fill="#F24E1E"/>
<path d="M5.44118 11.8627H6.52941V12.9412H5.44118V11.8627Z" fill="#F24E1E"/>
<path d="M6.52941 11.8627H7.61765V12.9412H6.52941V11.8627Z" fill="#F24E1E"/>
<path d="M7.61765 11.8627H8.70588V12.9412H7.61765V11.8627Z" fill="#F24E1E"/>
<path d="M8.70588 11.8627H9.79412V12.9412H8.70588V11.8627Z" fill="#F24E1E"/>
<path d="M9.79412 11.8627H10.8824V12.9412H9.79412V11.8627Z" fill="#F24E1E"/>
<path d="M10.8824 11.8627H11.9706V12.9412H10.8824V11.8627Z" fill="#F24E1E"/>
<path d="M11.9706 11.8627H13.0588V12.9412H11.9706V11.8627Z" fill="#F24E1E"/>
<path d="M13.0588 11.8627H14.1471V12.9412H13.0588V11.8627Z" fill="#F24E1E"/>
<path d="M14.1471 11.8627H15.2353V12.9412H14.1471V11.8627Z" fill="#F24E1E"/>
<path d="M15.2353 11.8627H16.3235V12.9412H15.2353V11.8627Z" fill="#F24E1E"/>
<path d="M16.3235 11.8627H17.4118V12.9412H16.3235V11.8627Z" fill="#F24E1E"/>
<path d="M17.4118 11.8627H18.5V12.9412H17.4118V11.8627Z" fill="#F24E1E"/>
<path d="M18.5 11.8627H19.5882V12.9412H18.5V11.8627Z" fill="#FF7262"/>
<path d="M19.5882 11.8627H20.6765V12.9412H19.5882V11.8627Z" fill="#FF7262"/>
<path d="M20.6765 11.8627H21.7647V12.9412H20.6765V11.8627Z" fill="#FF7262"/>
<path d="M21.7647 11.8627H22.8529V12.9412H21.7647V11.8627Z" fill="#FF7262"/>
<path d="M22.8529 11.8627H23.9412V12.9412H22.8529V11.8627Z" fill="#FF7262"/>
<path d="M23.9412 11.8627H25.0294V12.9412H23.9412V11.8627Z" fill="#FF7262"/>
<path d="M25.0294 11.8627H26.1176V12.9412H25.0294V11.8627Z" fill="#FF7262"/>
<path d="M26.1176 11.8627H27.2059V12.9412H26.1176V11.8627Z" fill="#FF7262"/>
<path d="M27.2059 11.8627H28.2941V12.9412H27.2059V11.8627Z" fill="#FF7262"/>
<path d="M28.2941 11.8627H29.3824V12.9412H28.2941V11.8627Z" fill="#FF7262"/>
<path d="M29.3824 11.8627H30.4706V12.9412H29.3824V11.8627Z" fill="#FF7262"/>
<path d="M30.4706 11.8627H31.5588V12.9412H30.4706V11.8627Z" fill="#FF7262"/>
<path d="M31.5588 11.8627H32.6471V12.9412H31.5588V11.8627Z" fill="#FF7262"/>
<path d="M32.6471 11.8627H33.7353V12.9412H32.6471V11.8627Z" fill="#FF7262"/>
<path d="M33.7353 11.8627H34.8235V12.9412H33.7353V11.8627Z" fill="#FF7262"/>
<path d="M34.8235 11.8627H35.9118V12.9412H34.8235V11.8627Z" fill="#FF7262"/>
<path d="M35.9118 11.8627H37V12.9412H35.9118V11.8627Z" fill="#FF7262"/>
<path d="M1.08824 12.9412H2.17647V14.0196H1.08824V12.9412Z" fill="#F24E1E"/>
<path d="M2.17647 12.9412H3.26471V14.0196H2.17647V12.9412Z" fill="#F24E1E"/>
<path d="M3.26471 12.9412H4.35294V14.0196H3.26471V12.9412Z" fill="#F24E1E"/>
<path d="M4.35294 12.9412H5.44118V14.0196H4.35294V12.9412Z" fill="#F24E1E"/>
<path d="M5.44118 12.9412H6.52941V14.0196H5.44118V12.9412Z" fill="#F24E1E"/>
<path d="M6.52941 12.9412H7.61765V14.0196H6.52941V12.9412Z" fill="#F24E1E"/>
<path d="M7.61765 12.9412H8.70588V14.0196H7.61765V12.9412Z" fill="#F24E1E"/>
<path d="M8.70588 12.9412H9.79412V14.0196H8.70588V12.9412Z" fill="#F24E1E"/>
<path d="M9.79412 12.9412H10.8824V14.0196H9.79412V12.9412Z" fill="#F24E1E"/>
<path d="M10.8824 12.9412H11.9706V14.0196H10.8824V12.9412Z" fill="#F24E1E"/>
<path d="M11.9706 12.9412H13.0588V14.0196H11.9706V12.9412Z" fill="#F24E1E"/>
<path d="M13.0588 12.9412H14.1471V14.0196H13.0588V12.9412Z" fill="#F24E1E"/>
<path d="M14.1471 12.9412H15.2353V14.0196H14.1471V12.9412Z" fill="#F24E1E"/>
<path d="M15.2353 12.9412H16.3235V14.0196H15.2353V12.9412Z" fill="#F24E1E"/>
<path d="M16.3235 12.9412H17.4118V14.0196H16.3235V12.9412Z" fill="#F24E1E"/>
<path d="M17.4118 12.9412H18.5V14.0196H17.4118V12.9412Z" fill="#F24E1E"/>
<path d="M18.5 12.9412H19.5882V14.0196H18.5V12.9412Z" fill="#FF7262"/>
<path d="M19.5882 12.9412H20.6765V14.0196H19.5882V12.9412Z" fill="#FF7262"/>
<path d="M20.6765 12.9412H21.7647V14.0196H20.6765V12.9412Z" fill="#FF7262"/>
<path d="M21.7647 12.9412H22.8529V14.0196H21.7647V12.9412Z" fill="#FF7262"/>
<path d="M22.8529 12.9412H23.9412V14.0196H22.8529V12.9412Z" fill="#FF7262"/>
<path d="M23.9412 12.9412H25.0294V14.0196H23.9412V12.9412Z" fill="#FF7262"/>
<path d="M25.0294 12.9412H26.1176V14.0196H25.0294V12.9412Z" fill="#FF7262"/>
<path d="M26.1176 12.9412H27.2059V14.0196H26.1176V12.9412Z" fill="#FF7262"/>
<path d="M27.2059 12.9412H28.2941V14.0196H27.2059V12.9412Z" fill="#FF7262"/>
<path d="M28.2941 12.9412H29.3824V14.0196H28.2941V12.9412Z" fill="#FF7262"/>
<path d="M29.3824 12.9412H30.4706V14.0196H29.3824V12.9412Z" fill="#FF7262"/>
<path d="M30.4706 12.9412H31.5588V14.0196H30.4706V12.9412Z" fill="#FF7262"/>
<path d="M31.5588 12.9412H32.6471V14.0196H31.5588V12.9412Z" fill="#FF7262"/>
<path d="M32.6471 12.9412H33.7353V14.0196H32.6471V12.9412Z" fill="#FF7262"/>
<path d="M33.7353 12.9412H34.8235V14.0196H33.7353V12.9412Z" fill="#FF7262"/>
<path d="M34.8235 12.9412H35.9118V14.0196H34.8235V12.9412Z" fill="#FF7262"/>
<path d="M35.9118 12.9412H37V14.0196H35.9118V12.9412Z" fill="#FF7262"/>
<path d="M2.17647 14.0196H3.26471V15.098H2.17647V14.0196Z" fill="#F24E1E"/>
<path d="M3.26471 14.0196H4.35294V15.098H3.26471V14.0196Z" fill="#F24E1E"/>
<path d="M4.35294 14.0196H5.44118V15.098H4.35294V14.0196Z" fill="#F24E1E"/>
<path d="M5.44118 14.0196H6.52941V15.098H5.44118V14.0196Z" fill="#F24E1E"/>
<path d="M6.52941 14.0196H7.61765V15.098H6.52941V14.0196Z" fill="#F24E1E"/>
<path d="M7.61765 14.0196H8.70588V15.098H7.61765V14.0196Z" fill="#F24E1E"/>
<path d="M8.70588 14.0196H9.79412V15.098H8.70588V14.0196Z" fill="#F24E1E"/>
<path d="M9.79412 14.0196H10.8824V15.098H9.79412V14.0196Z" fill="#F24E1E"/>
<path d="M10.8824 14.0196H11.9706V15.098H10.8824V14.0196Z" fill="#F24E1E"/>
<path d="M11.9706 14.0196H13.0588V15.098H11.9706V14.0196Z" fill="#F24E1E"/>
<path d="M13.0588 14.0196H14.1471V15.098H13.0588V14.0196Z" fill="#F24E1E"/>
<path d="M14.1471 14.0196H15.2353V15.098H14.1471V14.0196Z" fill="#F24E1E"/>
<path d="M15.2353 14.0196H16.3235V15.098H15.2353V14.0196Z" fill="#F24E1E"/>
<path d="M16.3235 14.0196H17.4118V15.098H16.3235V14.0196Z" fill="#F24E1E"/>
<path d="M17.4118 14.0196H18.5V15.098H17.4118V14.0196Z" fill="#F24E1E"/>
<path d="M18.5 14.0196H19.5882V15.098H18.5V14.0196Z" fill="#FF7262"/>
<path d="M19.5882 14.0196H20.6765V15.098H19.5882V14.0196Z" fill="#FF7262"/>
<path d="M20.6765 14.0196H21.7647V15.098H20.6765V14.0196Z" fill="#FF7262"/>
<path d="M21.7647 14.0196H22.8529V15.098H21.7647V14.0196Z" fill="#FF7262"/>
<path d="M22.8529 14.0196H23.9412V15.098H22.8529V14.0196Z" fill="#FF7262"/>
<path d="M23.9412 14.0196H25.0294V15.098H23.9412V14.0196Z" fill="#FF7262"/>
<path d="M25.0294 14.0196H26.1176V15.098H25.0294V14.0196Z" fill="#FF7262"/>
<path d="M26.1176 14.0196H27.2059V15.098H26.1176V14.0196Z" fill="#FF7262"/>
<path d="M27.2059 14.0196H28.2941V15.098H27.2059V14.0196Z" fill="#FF7262"/>
<path d="M28.2941 14.0196H29.3824V15.098H28.2941V14.0196Z" fill="#FF7262"/>
<path d="M29.3824 14.0196H30.4706V15.098H29.3824V14.0196Z" fill="#FF7262"/>
<path d="M30.4706 14.0196H31.5588V15.098H30.4706V14.0196Z" fill="#FF7262"/>
<path d="M31.5588 14.0196H32.6471V15.098H31.5588V14.0196Z" fill="#FF7262"/>
<path d="M32.6471 14.0196H33.7353V15.098H32.6471V14.0196Z" fill="#FF7262"/>
<path d="M33.7353 14.0196H34.8235V15.098H33.7353V14.0196Z" fill="#FF7262"/>
<path d="M34.8235 14.0196H35.9118V15.098H34.8235V14.0196Z" fill="#FF7262"/>
<path d="M3.26471 15.098H4.35294V16.1765H3.26471V15.098Z" fill="#F24E1E"/>
<path d="M4.35294 15.098H5.44118V16.1765H4.35294V15.098Z" fill="#F24E1E"/>
<path d="M5.44118 15.098H6.52941V16.1765H5.44118V15.098Z" fill="#F24E1E"/>
<path d="M6.52941 15.098H7.61765V16.1765H6.52941V15.098Z" fill="#F24E1E"/>
<path d="M7.61765 15.098H8.70588V16.1765H7.61765V15.098Z" fill="#F24E1E"/>
<path d="M8.70588 15.098H9.79412V16.1765H8.70588V15.098Z" fill="#F24E1E"/>
<path d="M9.79412 15.098H10.8824V16.1765H9.79412V15.098Z" fill="#F24E1E"/>
<path d="M10.8824 15.098H11.9706V16.1765H10.8824V15.098Z" fill="#F24E1E"/>
<path d="M11.9706 15.098H13.0588V16.1765H11.9706V15.098Z" fill="#F24E1E"/>
<path d="M13.0588 15.098H14.1471V16.1765H13.0588V15.098Z" fill="#F24E1E"/>
<path d="M14.1471 15.098H15.2353V16.1765H14.1471V15.098Z" fill="#F24E1E"/>
<path d="M15.2353 15.098H16.3235V16.1765H15.2353V15.098Z" fill="#F24E1E"/>
<path d="M16.3235 15.098H17.4118V16.1765H16.3235V15.098Z" fill="#F24E1E"/>
<path d="M17.4118 15.098H18.5V16.1765H17.4118V15.098Z" fill="#F24E1E"/>
<path d="M18.5 15.098H19.5882V16.1765H18.5V15.098Z" fill="#FF7262"/>
<path d="M19.5882 15.098H20.6765V16.1765H19.5882V15.098Z" fill="#FF7262"/>
<path d="M20.6765 15.098H21.7647V16.1765H20.6765V15.098Z" fill="#FF7262"/>
<path d="M21.7647 15.098H22.8529V16.1765H21.7647V15.098Z" fill="#FF7262"/>
<path d="M22.8529 15.098H23.9412V16.1765H22.8529V15.098Z" fill="#FF7262"/>
<path d="M23.9412 15.098H25.0294V16.1765H23.9412V15.098Z" fill="#FF7262"/>
<path d="M25.0294 15.098H26.1176V16.1765H25.0294V15.098Z" fill="#FF7262"/>
<path d="M26.1176 15.098H27.2059V16.1765H26.1176V15.098Z" fill="#FF7262"/>
<path d="M27.2059 15.098H28.2941V16.1765H27.2059V15.098Z" fill="#FF7262"/>
<path d="M28.2941 15.098H29.3824V16.1765H28.2941V15.098Z" fill="#FF7262"/>
<path d="M29.3824 15.098H30.4706V16.1765H29.3824V15.098Z" fill="#FF7262"/>
<path d="M30.4706 15.098H31.5588V16.1765H30.4706V15.098Z" fill="#FF7262"/>
<path d="M31.5588 15.098H32.6471V16.1765H31.5588V15.098Z" fill="#FF7262"/>
<path d="M32.6471 15.098H33.7353V16.1765H32.6471V15.098Z" fill="#FF7262"/>
<path d="M33.7353 15.098H34.8235V16.1765H33.7353V15.098Z" fill="#FF7262"/>
<path d="M4.35294 16.1765H5.44118V17.2549H4.35294V16.1765Z" fill="#F24E1E"/>
<path d="M5.44118 16.1765H6.52941V17.2549H5.44118V16.1765Z" fill="#F24E1E"/>
<path d="M6.52941 16.1765H7.61765V17.2549H6.52941V16.1765Z" fill="#F24E1E"/>
<path d="M7.61765 16.1765H8.70588V17.2549H7.61765V16.1765Z" fill="#F24E1E"/>
<path d="M8.70588 16.1765H9.79412V17.2549H8.70588V16.1765Z" fill="#F24E1E"/>
<path d="M9.79412 16.1765H10.8824V17.2549H9.79412V16.1765Z" fill="#F24E1E"/>
<path d="M10.8824 16.1765H11.9706V17.2549H10.8824V16.1765Z" fill="#F24E1E"/>
<path d="M11.9706 16.1765H13.0588V17.2549H11.9706V16.1765Z" fill="#F24E1E"/>
<path d="M13.0588 16.1765H14.1471V17.2549H13.0588V16.1765Z" fill="#F24E1E"/>
<path d="M14.1471 16.1765H15.2353V17.2549H14.1471V16.1765Z" fill="#F24E1E"/>
<path d="M15.2353 16.1765H16.3235V17.2549H15.2353V16.1765Z" fill="#F24E1E"/>
<path d="M16.3235 16.1765H17.4118V17.2549H16.3235V16.1765Z" fill="#F24E1E"/>
<path d="M17.4118 16.1765H18.5V17.2549H17.4118V16.1765Z" fill="#F24E1E"/>
<path d="M18.5 16.1765H19.5882V17.2549H18.5V16.1765Z" fill="#FF7262"/>
<path d="M19.5882 16.1765H20.6765V17.2549H19.5882V16.1765Z" fill="#FF7262"/>
<path d="M20.6765 16.1765H21.7647V17.2549H20.6765V16.1765Z" fill="#FF7262"/>
<path d="M21.7647 16.1765H22.8529V17.2549H21.7647V16.1765Z" fill="#FF7262"/>
<path d="M22.8529 16.1765H23.9412V17.2549H22.8529V16.1765Z" fill="#FF7262"/>
<path d="M23.9412 16.1765H25.0294V17.2549H23.9412V16.1765Z" fill="#FF7262"/>
<path d="M25.0294 16.1765H26.1176V17.2549H25.0294V16.1765Z" fill="#FF7262"/>
<path d="M26.1176 16.1765H27.2059V17.2549H26.1176V16.1765Z" fill="#FF7262"/>
<path d="M27.2059 16.1765H28.2941V17.2549H27.2059V16.1765Z" fill="#FF7262"/>
<path d="M28.2941 16.1765H29.3824V17.2549H28.2941V16.1765Z" fill="#FF7262"/>
<path d="M29.3824 16.1765H30.4706V17.2549H29.3824V16.1765Z" fill="#FF7262"/>
<path d="M30.4706 16.1765H31.5588V17.2549H30.4706V16.1765Z" fill="#FF7262"/>
<path d="M31.5588 16.1765H32.6471V17.2549H31.5588V16.1765Z" fill="#FF7262"/>
<path d="M32.6471 16.1765H33.7353V17.2549H32.6471V16.1765Z" fill="#FF7262"/>
<path d="M5.44118 17.2549H6.52941V18.3333H5.44118V17.2549Z" fill="#F24E1E"/>
<path d="M6.52941 17.2549H7.61765V18.3333H6.52941V17.2549Z" fill="#F24E1E"/>
<path d="M7.61765 17.2549H8.70588V18.3333H7.61765V17.2549Z" fill="#F24E1E"/>
<path d="M8.70588 17.2549H9.79412V18.3333H8.70588V17.2549Z" fill="#F24E1E"/>
<path d="M9.79412 17.2549H10.8824V18.3333H9.79412V17.2549Z" fill="#F24E1E"/>
<path d="M10.8824 17.2549H11.9706V18.3333H10.8824V17.2549Z" fill="#F24E1E"/>
<path d="M11.9706 17.2549H13.0588V18.3333H11.9706V17.2549Z" fill="#F24E1E"/>
<path d="M13.0588 17.2549H14.1471V18.3333H13.0588V17.2549Z" fill="#F24E1E"/>
<path d="M14.1471 17.2549H15.2353V18.3333H14.1471V17.2549Z" fill="#F24E1E"/>
<path d="M15.2353 17.2549H16.3235V18.3333H15.2353V17.2549Z" fill="#F24E1E"/>
<path d="M16.3235 17.2549H17.4118V18.3333H16.3235V17.2549Z" fill="#F24E1E"/>
<path d="M17.4118 17.2549H18.5V18.3333H17.4118V17.2549Z" fill="#F24E1E"/>
<path d="M18.5 17.2549H19.5882V18.3333H18.5V17.2549Z" fill="#FF7262"/>
<path d="M19.5882 17.2549H20.6765V18.3333H19.5882V17.2549Z" fill="#FF7262"/>
<path d="M20.6765 17.2549H21.7647V18.3333H20.6765V17.2549Z" fill="#FF7262"/>
<path d="M21.7647 17.2549H22.8529V18.3333H21.7647V17.2549Z" fill="#FF7262"/>
<path d="M22.8529 17.2549H23.9412V18.3333H22.8529V17.2549Z" fill="#FF7262"/>
<path d="M23.9412 17.2549H25.0294V18.3333H23.9412V17.2549Z" fill="#FF7262"/>
<path d="M25.0294 17.2549H26.1176V18.3333H25.0294V17.2549Z" fill="#FF7262"/>
<path d="M26.1176 17.2549H27.2059V18.3333H26.1176V17.2549Z" fill="#FF7262"/>
<path d="M27.2059 17.2549H28.2941V18.3333H27.2059V17.2549Z" fill="#FF7262"/>
<path d="M28.2941 17.2549H29.3824V18.3333H28.2941V17.2549Z" fill="#FF7262"/>
<path d="M29.3824 17.2549H30.4706V18.3333H29.3824V17.2549Z" fill="#FF7262"/>
<path d="M30.4706 17.2549H31.5588V18.3333H30.4706V17.2549Z" fill="#FF7262"/>
<path d="M31.5588 17.2549H32.6471V18.3333H31.5588V17.2549Z" fill="#FF7360"/>
<path d="M7.61765 18.3333H8.70588V19.4118H7.61765V18.3333Z" fill="#A259FF"/>
<path d="M8.70588 18.3333H9.79412V19.4118H8.70588V18.3333Z" fill="#A259FF"/>
<path d="M9.79412 18.3333H10.8824V19.4118H9.79412V18.3333Z" fill="#A259FF"/>
<path d="M10.8824 18.3333H11.9706V19.4118H10.8824V18.3333Z" fill="#A259FF"/>
<path d="M11.9706 18.3333H13.0588V19.4118H11.9706V18.3333Z" fill="#A259FF"/>
<path d="M13.0588 18.3333H14.1471V19.4118H13.0588V18.3333Z" fill="#A259FF"/>
<path d="M14.1471 18.3333H15.2353V19.4118H14.1471V18.3333Z" fill="#A259FF"/>
<path d="M15.2353 18.3333H16.3235V19.4118H15.2353V18.3333Z" fill="#A259FF"/>
<path d="M16.3235 18.3333H17.4118V19.4118H16.3235V18.3333Z" fill="#A259FF"/>
<path d="M17.4118 18.3333H18.5V19.4118H17.4118V18.3333Z" fill="#A259FF"/>
<path d="M26.1176 18.3333H27.2059V19.4118H26.1176V18.3333Z" fill="#1ABCFE"/>
<path d="M27.2059 18.3333H28.2941V19.4118H27.2059V18.3333Z" fill="#1ABCFE"/>
<path d="M28.2941 18.3333H29.3824V19.4118H28.2941V18.3333Z" fill="#1ABCFE"/>
<path d="M29.3824 18.3333H30.4706V19.4118H29.3824V18.3333Z" fill="#1ABCFE"/>
<path d="M5.44118 19.4118H6.52941V20.4902H5.44118V19.4118Z" fill="#A259FF"/>
<path d="M6.52941 19.4118H7.61765V20.4902H6.52941V19.4118Z" fill="#A259FF"/>
<path d="M7.61765 19.4118H8.70588V20.4902H7.61765V19.4118Z" fill="#A259FF"/>
<path d="M8.70588 19.4118H9.79412V20.4902H8.70588V19.4118Z" fill="#A259FF"/>
<path d="M9.79412 19.4118H10.8824V20.4902H9.79412V19.4118Z" fill="#A259FF"/>
<path d="M10.8824 19.4118H11.9706V20.4902H10.8824V19.4118Z" fill="#A259FF"/>
<path d="M11.9706 19.4118H13.0588V20.4902H11.9706V19.4118Z" fill="#A259FF"/>
<path d="M13.0588 19.4118H14.1471V20.4902H13.0588V19.4118Z" fill="#A259FF"/>
<path d="M14.1471 19.4118H15.2353V20.4902H14.1471V19.4118Z" fill="#A259FF"/>
<path d="M15.2353 19.4118H16.3235V20.4902H15.2353V19.4118Z" fill="#A259FF"/>
<path d="M16.3235 19.4118H17.4118V20.4902H16.3235V19.4118Z" fill="#A259FF"/>
<path d="M17.4118 19.4118H18.5V20.4902H17.4118V19.4118Z" fill="#A259FF"/>
<path d="M22.8529 19.4118H23.9412V20.4902H22.8529V19.4118Z" fill="#18BBFF"/>
<path d="M23.9412 19.4118H25.0294V20.4902H23.9412V19.4118Z" fill="#1ABCFE"/>
<path d="M25.0294 19.4118H26.1176V20.4902H25.0294V19.4118Z" fill="#1ABCFE"/>
<path d="M26.1176 19.4118H27.2059V20.4902H26.1176V19.4118Z" fill="#1ABCFE"/>
<path d="M27.2059 19.4118H28.2941V20.4902H27.2059V19.4118Z" fill="#1ABCFE"/>
<path d="M28.2941 19.4118H29.3824V20.4902H28.2941V19.4118Z" fill="#1ABCFE"/>
<path d="M29.3824 19.4118H30.4706V20.4902H29.3824V19.4118Z" fill="#1ABCFE"/>
<path d="M30.4706 19.4118H31.5588V20.4902H30.4706V19.4118Z" fill="#1ABCFE"/>
<path d="M31.5588 19.4118H32.6471V20.4902H31.5588V19.4118Z" fill="#1ABCFE"/>
<path d="M3.26471 20.4902H4.35294V21.5686H3.26471V20.4902Z" fill="#A259FF"/>
<path d="M4.35294 20.4902H5.44118V21.5686H4.35294V20.4902Z" fill="#A259FF"/>
<path d="M5.44118 20.4902H6.52941V21.5686H5.44118V20.4902Z" fill="#A259FF"/>
<path d="M6.52941 20.4902H7.61765V21.5686H6.52941V20.4902Z" fill="#A259FF"/>
<path d="M7.61765 20.4902H8.70588V21.5686H7.61765V20.4902Z" fill="#A259FF"/>
<path d="M8.70588 20.4902H9.79412V21.5686H8.70588V20.4902Z" fill="#A259FF"/>
<path d="M9.79412 20.4902H10.8824V21.5686H9.79412V20.4902Z" fill="#A259FF"/>
<path d="M10.8824 20.4902H11.9706V21.5686H10.8824V20.4902Z" fill="#A259FF"/>
<path d="M11.9706 20.4902H13.0588V21.5686H11.9706V20.4902Z" fill="#A259FF"/>
<path d="M13.0588 20.4902H14.1471V21.5686H13.0588V20.4902Z" fill="#A259FF"/>
<path d="M14.1471 20.4902H15.2353V21.5686H14.1471V20.4902Z" fill="#A259FF"/>
<path d="M15.2353 20.4902H16.3235V21.5686H15.2353V20.4902Z" fill="#A259FF"/>
<path d="M16.3235 20.4902H17.4118V21.5686H16.3235V20.4902Z" fill="#A259FF"/>
<path d="M17.4118 20.4902H18.5V21.5686H17.4118V20.4902Z" fill="#A259FF"/>
<path d="M21.7647 20.4902H22.8529V21.5686H21.7647V20.4902Z" fill="#1ABCFE"/>
<path d="M22.8529 20.4902H23.9412V21.5686H22.8529V20.4902Z" fill="#1ABCFE"/>
<path d="M23.9412 20.4902H25.0294V21.5686H23.9412V20.4902Z" fill="#1ABCFE"/>
<path d="M25.0294 20.4902H26.1176V21.5686H25.0294V20.4902Z" fill="#1ABCFE"/>
<path d="M26.1176 20.4902H27.2059V21.5686H26.1176V20.4902Z" fill="#1ABCFE"/>
<path d="M27.2059 20.4902H28.2941V21.5686H27.2059V20.4902Z" fill="#1ABCFE"/>
<path d="M28.2941 20.4902H29.3824V21.5686H28.2941V20.4902Z" fill="#1ABCFE"/>
<path d="M29.3824 20.4902H30.4706V21.5686H29.3824V20.4902Z" fill="#1ABCFE"/>
<path d="M30.4706 20.4902H31.5588V21.5686H30.4706V20.4902Z" fill="#1ABCFE"/>
<path d="M31.5588 20.4902H32.6471V21.5686H31.5588V20.4902Z" fill="#1ABCFE"/>
<path d="M32.6471 20.4902H33.7353V21.5686H32.6471V20.4902Z" fill="#1ABCFE"/>
<path d="M33.7353 20.4902H34.8235V21.5686H33.7353V20.4902Z" fill="#1ABCFE"/>
<path d="M2.17647 21.5686H3.26471V22.6471H2.17647V21.5686Z" fill="#A259FF"/>
<path d="M3.26471 21.5686H4.35294V22.6471H3.26471V21.5686Z" fill="#A259FF"/>
<path d="M4.35294 21.5686H5.44118V22.6471H4.35294V21.5686Z" fill="#A259FF"/>
<path d="M5.44118 21.5686H6.52941V22.6471H5.44118V21.5686Z" fill="#A259FF"/>
<path d="M6.52941 21.5686H7.61765V22.6471H6.52941V21.5686Z" fill="#A259FF"/>
<path d="M7.61765 21.5686H8.70588V22.6471H7.61765V21.5686Z" fill="#A259FF"/>
<path d="M8.70588 21.5686H9.79412V22.6471H8.70588V21.5686Z" fill="#A259FF"/>
<path d="M9.79412 21.5686H10.8824V22.6471H9.79412V21.5686Z" fill="#A259FF"/>
<path d="M10.8824 21.5686H11.9706V22.6471H10.8824V21.5686Z" fill="#A259FF"/>
<path d="M11.9706 21.5686H13.0588V22.6471H11.9706V21.5686Z" fill="#A259FF"/>
<path d="M13.0588 21.5686H14.1471V22.6471H13.0588V21.5686Z" fill="#A259FF"/>
<path d="M14.1471 21.5686H15.2353V22.6471H14.1471V21.5686Z" fill="#A259FF"/>
<path d="M15.2353 21.5686H16.3235V22.6471H15.2353V21.5686Z" fill="#A259FF"/>
<path d="M16.3235 21.5686H17.4118V22.6471H16.3235V21.5686Z" fill="#A259FF"/>
<path d="M17.4118 21.5686H18.5V22.6471H17.4118V21.5686Z" fill="#A259FF"/>
<path d="M20.6765 21.5686H21.7647V22.6471H20.6765V21.5686Z" fill="#1ABCFE"/>
<path d="M21.7647 21.5686H22.8529V22.6471H21.7647V21.5686Z" fill="#1ABCFE"/>
<path d="M22.8529 21.5686H23.9412V22.6471H22.8529V21.5686Z" fill="#1ABCFE"/>
<path d="M23.9412 21.5686H25.0294V22.6471H23.9412V21.5686Z" fill="#1ABCFE"/>
<path d="M25.0294 21.5686H26.1176V22.6471H25.0294V21.5686Z" fill="#1ABCFE"/>
<path d="M26.1176 21.5686H27.2059V22.6471H26.1176V21.5686Z" fill="#1ABCFE"/>
<path d="M27.2059 21.5686H28.2941V22.6471H27.2059V21.5686Z" fill="#1ABCFE"/>
<path d="M28.2941 21.5686H29.3824V22.6471H28.2941V21.5686Z" fill="#1ABCFE"/>
<path d="M29.3824 21.5686H30.4706V22.6471H29.3824V21.5686Z" fill="#1ABCFE"/>
<path d="M30.4706 21.5686H31.5588V22.6471H30.4706V21.5686Z" fill="#1ABCFE"/>
<path d="M31.5588 21.5686H32.6471V22.6471H31.5588V21.5686Z" fill="#1ABCFE"/>
<path d="M32.6471 21.5686H33.7353V22.6471H32.6471V21.5686Z" fill="#1ABCFE"/>
<path d="M33.7353 21.5686H34.8235V22.6471H33.7353V21.5686Z" fill="#1ABCFE"/>
<path d="M34.8235 21.5686H35.9118V22.6471H34.8235V21.5686Z" fill="#18BBFB"/>
<path d="M2.17647 22.6471H3.26471V23.7255H2.17647V22.6471Z" fill="#A259FF"/>
<path d="M3.26471 22.6471H4.35294V23.7255H3.26471V22.6471Z" fill="#A259FF"/>
<path d="M4.35294 22.6471H5.44118V23.7255H4.35294V22.6471Z" fill="#A259FF"/>
<path d="M5.44118 22.6471H6.52941V23.7255H5.44118V22.6471Z" fill="#A259FF"/>
<path d="M6.52941 22.6471H7.61765V23.7255H6.52941V22.6471Z" fill="#A259FF"/>
<path d="M7.61765 22.6471H8.70588V23.7255H7.61765V22.6471Z" fill="#A259FF"/>
<path d="M8.70588 22.6471H9.79412V23.7255H8.70588V22.6471Z" fill="#A259FF"/>
<path d="M9.79412 22.6471H10.8824V23.7255H9.79412V22.6471Z" fill="#A259FF"/>
<path d="M10.8824 22.6471H11.9706V23.7255H10.8824V22.6471Z" fill="#A259FF"/>
<path d="M11.9706 22.6471H13.0588V23.7255H11.9706V22.6471Z" fill="#A259FF"/>
<path d="M13.0588 22.6471H14.1471V23.7255H13.0588V22.6471Z" fill="#A259FF"/>
<path d="M14.1471 22.6471H15.2353V23.7255H14.1471V22.6471Z" fill="#A259FF"/>
<path d="M15.2353 22.6471H16.3235V23.7255H15.2353V22.6471Z" fill="#A259FF"/>
<path d="M16.3235 22.6471H17.4118V23.7255H16.3235V22.6471Z" fill="#A259FF"/>
<path d="M17.4118 22.6471H18.5V23.7255H17.4118V22.6471Z" fill="#A259FF"/>
<path d="M20.6765 22.6471H21.7647V23.7255H20.6765V22.6471Z" fill="#1ABCFE"/>
<path d="M21.7647 22.6471H22.8529V23.7255H21.7647V22.6471Z" fill="#1ABCFE"/>
<path d="M22.8529 22.6471H23.9412V23.7255H22.8529V22.6471Z" fill="#1ABCFE"/>
<path d="M23.9412 22.6471H25.0294V23.7255H23.9412V22.6471Z" fill="#1ABCFE"/>
<path d="M25.0294 22.6471H26.1176V23.7255H25.0294V22.6471Z" fill="#1ABCFE"/>
<path d="M26.1176 22.6471H27.2059V23.7255H26.1176V22.6471Z" fill="#1ABCFE"/>
<path d="M27.2059 22.6471H28.2941V23.7255H27.2059V22.6471Z" fill="#1ABCFE"/>
<path d="M28.2941 22.6471H29.3824V23.7255H28.2941V22.6471Z" fill="#1ABCFE"/>
<path d="M29.3824 22.6471H30.4706V23.7255H29.3824V22.6471Z" fill="#1ABCFE"/>
<path d="M30.4706 22.6471H31.5588V23.7255H30.4706V22.6471Z" fill="#1ABCFE"/>
<path d="M31.5588 22.6471H32.6471V23.7255H31.5588V22.6471Z" fill="#1ABCFE"/>
<path d="M32.6471 22.6471H33.7353V23.7255H32.6471V22.6471Z" fill="#1ABCFE"/>
<path d="M33.7353 22.6471H34.8235V23.7255H33.7353V22.6471Z" fill="#1ABCFE"/>
<path d="M34.8235 22.6471H35.9118V23.7255H34.8235V22.6471Z" fill="#1ABCFE"/>
<path d="M1.08824 23.7255H2.17647V24.8039H1.08824V23.7255Z" fill="#A259FF"/>
<path d="M2.17647 23.7255H3.26471V24.8039H2.17647V23.7255Z" fill="#A259FF"/>
<path d="M3.26471 23.7255H4.35294V24.8039H3.26471V23.7255Z" fill="#A259FF"/>
<path d="M4.35294 23.7255H5.44118V24.8039H4.35294V23.7255Z" fill="#A259FF"/>
<path d="M5.44118 23.7255H6.52941V24.8039H5.44118V23.7255Z" fill="#A259FF"/>
<path d="M6.52941 23.7255H7.61765V24.8039H6.52941V23.7255Z" fill="#A259FF"/>
<path d="M7.61765 23.7255H8.70588V24.8039H7.61765V23.7255Z" fill="#A259FF"/>
<path d="M8.70588 23.7255H9.79412V24.8039H8.70588V23.7255Z" fill="#A259FF"/>
<path d="M9.79412 23.7255H10.8824V24.8039H9.79412V23.7255Z" fill="#A259FF"/>
<path d="M10.8824 23.7255H11.9706V24.8039H10.8824V23.7255Z" fill="#A259FF"/>
<path d="M11.9706 23.7255H13.0588V24.8039H11.9706V23.7255Z" fill="#A259FF"/>
<path d="M13.0588 23.7255H14.1471V24.8039H13.0588V23.7255Z" fill="#A259FF"/>
<path d="M14.1471 23.7255H15.2353V24.8039H14.1471V23.7255Z" fill="#A259FF"/>
<path d="M15.2353 23.7255H16.3235V24.8039H15.2353V23.7255Z" fill="#A259FF"/>
<path d="M16.3235 23.7255H17.4118V24.8039H16.3235V23.7255Z" fill="#A259FF"/>
<path d="M17.4118 23.7255H18.5V24.8039H17.4118V23.7255Z" fill="#A259FF"/>
<path d="M19.5882 23.7255H20.6765V24.8039H19.5882V23.7255Z" fill="#1ABCFE"/>
<path d="M20.6765 23.7255H21.7647V24.8039H20.6765V23.7255Z" fill="#1ABCFE"/>
<path d="M21.7647 23.7255H22.8529V24.8039H21.7647V23.7255Z" fill="#1ABCFE"/>
<path d="M22.8529 23.7255H23.9412V24.8039H22.8529V23.7255Z" fill="#1ABCFE"/>
<path d="M23.9412 23.7255H25.0294V24.8039H23.9412V23.7255Z" fill="#1ABCFE"/>
<path d="M25.0294 23.7255H26.1176V24.8039H25.0294V23.7255Z" fill="#1ABCFE"/>
<path d="M26.1176 23.7255H27.2059V24.8039H26.1176V23.7255Z" fill="#1ABCFE"/>
<path d="M27.2059 23.7255H28.2941V24.8039H27.2059V23.7255Z" fill="#1ABCFE"/>
<path d="M28.2941 23.7255H29.3824V24.8039H28.2941V23.7255Z" fill="#1ABCFE"/>
<path d="M29.3824 23.7255H30.4706V24.8039H29.3824V23.7255Z" fill="#1ABCFE"/>
<path d="M30.4706 23.7255H31.5588V24.8039H30.4706V23.7255Z" fill="#1ABCFE"/>
<path d="M31.5588 23.7255H32.6471V24.8039H31.5588V23.7255Z" fill="#1ABCFE"/>
<path d="M32.6471 23.7255H33.7353V24.8039H32.6471V23.7255Z" fill="#1ABCFE"/>
<path d="M33.7353 23.7255H34.8235V24.8039H33.7353V23.7255Z" fill="#1ABCFE"/>
<path d="M34.8235 23.7255H35.9118V24.8039H34.8235V23.7255Z" fill="#1ABCFE"/>
<path d="M35.9118 23.7255H37V24.8039H35.9118V23.7255Z" fill="#1ABCFE"/>
<path d="M1.08824 24.8039H2.17647V25.8824H1.08824V24.8039Z" fill="#A259FF"/>
<path d="M2.17647 24.8039H3.26471V25.8824H2.17647V24.8039Z" fill="#A259FF"/>
<path d="M3.26471 24.8039H4.35294V25.8824H3.26471V24.8039Z" fill="#A259FF"/>
<path d="M4.35294 24.8039H5.44118V25.8824H4.35294V24.8039Z" fill="#A259FF"/>
<path d="M5.44118 24.8039H6.52941V25.8824H5.44118V24.8039Z" fill="#A259FF"/>
<path d="M6.52941 24.8039H7.61765V25.8824H6.52941V24.8039Z" fill="#A259FF"/>
<path d="M7.61765 24.8039H8.70588V25.8824H7.61765V24.8039Z" fill="#A259FF"/>
<path d="M8.70588 24.8039H9.79412V25.8824H8.70588V24.8039Z" fill="#A259FF"/>
<path d="M9.79412 24.8039H10.8824V25.8824H9.79412V24.8039Z" fill="#A259FF"/>
<path d="M10.8824 24.8039H11.9706V25.8824H10.8824V24.8039Z" fill="#A259FF"/>
<path d="M11.9706 24.8039H13.0588V25.8824H11.9706V24.8039Z" fill="#A259FF"/>
<path d="M13.0588 24.8039H14.1471V25.8824H13.0588V24.8039Z" fill="#A259FF"/>
<path d="M14.1471 24.8039H15.2353V25.8824H14.1471V24.8039Z" fill="#A259FF"/>
<path d="M15.2353 24.8039H16.3235V25.8824H15.2353V24.8039Z" fill="#A259FF"/>
<path d="M16.3235 24.8039H17.4118V25.8824H16.3235V24.8039Z" fill="#A259FF"/>
<path d="M17.4118 24.8039H18.5V25.8824H17.4118V24.8039Z" fill="#A259FF"/>
<path d="M19.5882 24.8039H20.6765V25.8824H19.5882V24.8039Z" fill="#1ABCFE"/>
<path d="M20.6765 24.8039H21.7647V25.8824H20.6765V24.8039Z" fill="#1ABCFE"/>
<path d="M21.7647 24.8039H22.8529V25.8824H21.7647V24.8039Z" fill="#1ABCFE"/>
<path d="M22.8529 24.8039H23.9412V25.8824H22.8529V24.8039Z" fill="#1ABCFE"/>
<path d="M23.9412 24.8039H25.0294V25.8824H23.9412V24.8039Z" fill="#1ABCFE"/>
<path d="M25.0294 24.8039H26.1176V25.8824H25.0294V24.8039Z" fill="#1ABCFE"/>
<path d="M26.1176 24.8039H27.2059V25.8824H26.1176V24.8039Z" fill="#1ABCFE"/>
<path d="M27.2059 24.8039H28.2941V25.8824H27.2059V24.8039Z" fill="#1ABCFE"/>
<path d="M28.2941 24.8039H29.3824V25.8824H28.2941V24.8039Z" fill="#1ABCFE"/>
<path d="M29.3824 24.8039H30.4706V25.8824H29.3824V24.8039Z" fill="#1ABCFE"/>
<path d="M30.4706 24.8039H31.5588V25.8824H30.4706V24.8039Z" fill="#1ABCFE"/>
<path d="M31.5588 24.8039H32.6471V25.8824H31.5588V24.8039Z" fill="#1ABCFE"/>
<path d="M32.6471 24.8039H33.7353V25.8824H32.6471V24.8039Z" fill="#1ABCFE"/>
<path d="M33.7353 24.8039H34.8235V25.8824H33.7353V24.8039Z" fill="#1ABCFE"/>
<path d="M34.8235 24.8039H35.9118V25.8824H34.8235V24.8039Z" fill="#1ABCFE"/>
<path d="M35.9118 24.8039H37V25.8824H35.9118V24.8039Z" fill="#1ABCFE"/>
<path d="M1.08824 25.8824H2.17647V26.9608H1.08824V25.8824Z" fill="#A259FF"/>
<path d="M2.17647 25.8824H3.26471V26.9608H2.17647V25.8824Z" fill="#A259FF"/>
<path d="M3.26471 25.8824H4.35294V26.9608H3.26471V25.8824Z" fill="#A259FF"/>
<path d="M4.35294 25.8824H5.44118V26.9608H4.35294V25.8824Z" fill="#A259FF"/>
<path d="M5.44118 25.8824H6.52941V26.9608H5.44118V25.8824Z" fill="#A259FF"/>
<path d="M6.52941 25.8824H7.61765V26.9608H6.52941V25.8824Z" fill="#A259FF"/>
<path d="M7.61765 25.8824H8.70588V26.9608H7.61765V25.8824Z" fill="#A259FF"/>
<path d="M8.70588 25.8824H9.79412V26.9608H8.70588V25.8824Z" fill="#A259FF"/>
<path d="M9.79412 25.8824H10.8824V26.9608H9.79412V25.8824Z" fill="#A259FF"/>
<path d="M10.8824 25.8824H11.9706V26.9608H10.8824V25.8824Z" fill="#A259FF"/>
<path d="M11.9706 25.8824H13.0588V26.9608H11.9706V25.8824Z" fill="#A259FF"/>
<path d="M13.0588 25.8824H14.1471V26.9608H13.0588V25.8824Z" fill="#A259FF"/>
<path d="M14.1471 25.8824H15.2353V26.9608H14.1471V25.8824Z" fill="#A259FF"/>
<path d="M15.2353 25.8824H16.3235V26.9608H15.2353V25.8824Z" fill="#A259FF"/>
<path d="M16.3235 25.8824H17.4118V26.9608H16.3235V25.8824Z" fill="#A259FF"/>
<path d="M17.4118 25.8824H18.5V26.9608H17.4118V25.8824Z" fill="#A259FF"/>
<path d="M18.5 25.8824H19.5882V26.9608H18.5V25.8824Z" fill="#1BBCFD"/>
<path d="M19.5882 25.8824H20.6765V26.9608H19.5882V25.8824Z" fill="#1ABCFE"/>
<path d="M20.6765 25.8824H21.7647V26.9608H20.6765V25.8824Z" fill="#1ABCFE"/>
<path d="M21.7647 25.8824H22.8529V26.9608H21.7647V25.8824Z" fill="#1ABCFE"/>
<path d="M22.8529 25.8824H23.9412V26.9608H22.8529V25.8824Z" fill="#1ABCFE"/>
<path d="M23.9412 25.8824H25.0294V26.9608H23.9412V25.8824Z" fill="#1ABCFE"/>
<path d="M25.0294 25.8824H26.1176V26.9608H25.0294V25.8824Z" fill="#1ABCFE"/>
<path d="M26.1176 25.8824H27.2059V26.9608H26.1176V25.8824Z" fill="#1ABCFE"/>
<path d="M27.2059 25.8824H28.2941V26.9608H27.2059V25.8824Z" fill="#1ABCFE"/>
<path d="M28.2941 25.8824H29.3824V26.9608H28.2941V25.8824Z" fill="#1ABCFE"/>
<path d="M29.3824 25.8824H30.4706V26.9608H29.3824V25.8824Z" fill="#1ABCFE"/>
<path d="M30.4706 25.8824H31.5588V26.9608H30.4706V25.8824Z" fill="#1ABCFE"/>
<path d="M31.5588 25.8824H32.6471V26.9608H31.5588V25.8824Z" fill="#1ABCFE"/>
<path d="M32.6471 25.8824H33.7353V26.9608H32.6471V25.8824Z" fill="#1ABCFE"/>
<path d="M33.7353 25.8824H34.8235V26.9608H33.7353V25.8824Z" fill="#1ABCFE"/>
<path d="M34.8235 25.8824H35.9118V26.9608H34.8235V25.8824Z" fill="#1ABCFE"/>
<path d="M35.9118 25.8824H37V26.9608H35.9118V25.8824Z" fill="#1ABCFE"/>
<path d="M0 26.9608H1.08824V28.0392H0V26.9608Z" fill="#9F59FF"/>
<path d="M1.08824 26.9608H2.17647V28.0392H1.08824V26.9608Z" fill="#A259FF"/>
<path d="M2.17647 26.9608H3.26471V28.0392H2.17647V26.9608Z" fill="#A259FF"/>
<path d="M3.26471 26.9608H4.35294V28.0392H3.26471V26.9608Z" fill="#A259FF"/>
<path d="M4.35294 26.9608H5.44118V28.0392H4.35294V26.9608Z" fill="#A259FF"/>
<path d="M5.44118 26.9608H6.52941V28.0392H5.44118V26.9608Z" fill="#A259FF"/>
<path d="M6.52941 26.9608H7.61765V28.0392H6.52941V26.9608Z" fill="#A259FF"/>
<path d="M7.61765 26.9608H8.70588V28.0392H7.61765V26.9608Z" fill="#A259FF"/>
<path d="M8.70588 26.9608H9.79412V28.0392H8.70588V26.9608Z" fill="#A259FF"/>
<path d="M9.79412 26.9608H10.8824V28.0392H9.79412V26.9608Z" fill="#A259FF"/>
<path d="M10.8824 26.9608H11.9706V28.0392H10.8824V26.9608Z" fill="#A259FF"/>
<path d="M11.9706 26.9608H13.0588V28.0392H11.9706V26.9608Z" fill="#A259FF"/>
<path d="M13.0588 26.9608H14.1471V28.0392H13.0588V26.9608Z" fill="#A259FF"/>
<path d="M14.1471 26.9608H15.2353V28.0392H14.1471V26.9608Z" fill="#A259FF"/>
<path d="M15.2353 26.9608H16.3235V28.0392H15.2353V26.9608Z" fill="#A259FF"/>
<path d="M16.3235 26.9608H17.4118V28.0392H16.3235V26.9608Z" fill="#A259FF"/>
<path d="M17.4118 26.9608H18.5V28.0392H17.4118V26.9608Z" fill="#A259FF"/>
<path d="M18.5 26.9608H19.5882V28.0392H18.5V26.9608Z" fill="#1ABCFE"/>
<path d="M19.5882 26.9608H20.6765V28.0392H19.5882V26.9608Z" fill="#1ABCFE"/>
<path d="M20.6765 26.9608H21.7647V28.0392H20.6765V26.9608Z" fill="#1ABCFE"/>
<path d="M21.7647 26.9608H22.8529V28.0392H21.7647V26.9608Z" fill="#1ABCFE"/>
<path d="M22.8529 26.9608H23.9412V28.0392H22.8529V26.9608Z" fill="#1ABCFE"/>
<path d="M23.9412 26.9608H25.0294V28.0392H23.9412V26.9608Z" fill="#1ABCFE"/>
<path d="M25.0294 26.9608H26.1176V28.0392H25.0294V26.9608Z" fill="#1ABCFE"/>
<path d="M26.1176 26.9608H27.2059V28.0392H26.1176V26.9608Z" fill="#1ABCFE"/>
<path d="M27.2059 26.9608H28.2941V28.0392H27.2059V26.9608Z" fill="#1ABCFE"/>
<path d="M28.2941 26.9608H29.3824V28.0392H28.2941V26.9608Z" fill="#1ABCFE"/>
<path d="M29.3824 26.9608H30.4706V28.0392H29.3824V26.9608Z" fill="#1ABCFE"/>
<path d="M30.4706 26.9608H31.5588V28.0392H30.4706V26.9608Z" fill="#1ABCFE"/>
<path d="M31.5588 26.9608H32.6471V28.0392H31.5588V26.9608Z" fill="#1ABCFE"/>
<path d="M32.6471 26.9608H33.7353V28.0392H32.6471V26.9608Z" fill="#1ABCFE"/>
<path d="M33.7353 26.9608H34.8235V28.0392H33.7353V26.9608Z" fill="#1ABCFE"/>
<path d="M34.8235 26.9608H35.9118V28.0392H34.8235V26.9608Z" fill="#1ABCFE"/>
<path d="M35.9118 26.9608H37V28.0392H35.9118V26.9608Z" fill="#1ABCFE"/>
<path d="M1.08824 28.0392H2.17647V29.1176H1.08824V28.0392Z" fill="#A259FF"/>
<path d="M2.17647 28.0392H3.26471V29.1176H2.17647V28.0392Z" fill="#A259FF"/>
<path d="M3.26471 28.0392H4.35294V29.1176H3.26471V28.0392Z" fill="#A259FF"/>
<path d="M4.35294 28.0392H5.44118V29.1176H4.35294V28.0392Z" fill="#A259FF"/>
<path d="M5.44118 28.0392H6.52941V29.1176H5.44118V28.0392Z" fill="#A259FF"/>
<path d="M6.52941 28.0392H7.61765V29.1176H6.52941V28.0392Z" fill="#A259FF"/>
<path d="M7.61765 28.0392H8.70588V29.1176H7.61765V28.0392Z" fill="#A259FF"/>
<path d="M8.70588 28.0392H9.79412V29.1176H8.70588V28.0392Z" fill="#A259FF"/>
<path d="M9.79412 28.0392H10.8824V29.1176H9.79412V28.0392Z" fill="#A259FF"/>
<path d="M10.8824 28.0392H11.9706V29.1176H10.8824V28.0392Z" fill="#A259FF"/>
<path d="M11.9706 28.0392H13.0588V29.1176H11.9706V28.0392Z" fill="#A259FF"/>
<path d="M13.0588 28.0392H14.1471V29.1176H13.0588V28.0392Z" fill="#A259FF"/>
<path d="M14.1471 28.0392H15.2353V29.1176H14.1471V28.0392Z" fill="#A259FF"/>
<path d="M15.2353 28.0392H16.3235V29.1176H15.2353V28.0392Z" fill="#A259FF"/>
<path d="M16.3235 28.0392H17.4118V29.1176H16.3235V28.0392Z" fill="#A259FF"/>
<path d="M17.4118 28.0392H18.5V29.1176H17.4118V28.0392Z" fill="#A259FF"/>
<path d="M18.5 28.0392H19.5882V29.1176H18.5V28.0392Z" fill="#1ABCFE"/>
<path d="M19.5882 28.0392H20.6765V29.1176H19.5882V28.0392Z" fill="#1ABCFE"/>
<path d="M20.6765 28.0392H21.7647V29.1176H20.6765V28.0392Z" fill="#1ABCFE"/>
<path d="M21.7647 28.0392H22.8529V29.1176H21.7647V28.0392Z" fill="#1ABCFE"/>
<path d="M22.8529 28.0392H23.9412V29.1176H22.8529V28.0392Z" fill="#1ABCFE"/>
<path d="M23.9412 28.0392H25.0294V29.1176H23.9412V28.0392Z" fill="#1ABCFE"/>
<path d="M25.0294 28.0392H26.1176V29.1176H25.0294V28.0392Z" fill="#1ABCFE"/>
<path d="M26.1176 28.0392H27.2059V29.1176H26.1176V28.0392Z" fill="#1ABCFE"/>
<path d="M27.2059 28.0392H28.2941V29.1176H27.2059V28.0392Z" fill="#1ABCFE"/>
<path d="M28.2941 28.0392H29.3824V29.1176H28.2941V28.0392Z" fill="#1ABCFE"/>
<path d="M29.3824 28.0392H30.4706V29.1176H29.3824V28.0392Z" fill="#1ABCFE"/>
<path d="M30.4706 28.0392H31.5588V29.1176H30.4706V28.0392Z" fill="#1ABCFE"/>
<path d="M31.5588 28.0392H32.6471V29.1176H31.5588V28.0392Z" fill="#1ABCFE"/>
<path d="M32.6471 28.0392H33.7353V29.1176H32.6471V28.0392Z" fill="#1ABCFE"/>
<path d="M33.7353 28.0392H34.8235V29.1176H33.7353V28.0392Z" fill="#1ABCFE"/>
<path d="M34.8235 28.0392H35.9118V29.1176H34.8235V28.0392Z" fill="#1ABCFE"/>
<path d="M35.9118 28.0392H37V29.1176H35.9118V28.0392Z" fill="#1ABCFE"/>
<path d="M1.08824 29.1176H2.17647V30.1961H1.08824V29.1176Z" fill="#A259FF"/>
<path d="M2.17647 29.1176H3.26471V30.1961H2.17647V29.1176Z" fill="#A259FF"/>
<path d="M3.26471 29.1176H4.35294V30.1961H3.26471V29.1176Z" fill="#A259FF"/>
<path d="M4.35294 29.1176H5.44118V30.1961H4.35294V29.1176Z" fill="#A259FF"/>
<path d="M5.44118 29.1176H6.52941V30.1961H5.44118V29.1176Z" fill="#A259FF"/>
<path d="M6.52941 29.1176H7.61765V30.1961H6.52941V29.1176Z" fill="#A259FF"/>
<path d="M7.61765 29.1176H8.70588V30.1961H7.61765V29.1176Z" fill="#A259FF"/>
<path d="M8.70588 29.1176H9.79412V30.1961H8.70588V29.1176Z" fill="#A259FF"/>
<path d="M9.79412 29.1176H10.8824V30.1961H9.79412V29.1176Z" fill="#A259FF"/>
<path d="M10.8824 29.1176H11.9706V30.1961H10.8824V29.1176Z" fill="#A259FF"/>
<path d="M11.9706 29.1176H13.0588V30.1961H11.9706V29.1176Z" fill="#A259FF"/>
<path d="M13.0588 29.1176H14.1471V30.1961H13.0588V29.1176Z" fill="#A259FF"/>
<path d="M14.1471 29.1176H15.2353V30.1961H14.1471V29.1176Z" fill="#A259FF"/>
<path d="M15.2353 29.1176H16.3235V30.1961H15.2353V29.1176Z" fill="#A259FF"/>
<path d="M16.3235 29.1176H17.4118V30.1961H16.3235V29.1176Z" fill="#A259FF"/>
<path d="M17.4118 29.1176H18.5V30.1961H17.4118V29.1176Z" fill="#A259FF"/>
<path d="M19.5882 29.1176H20.6765V30.1961H19.5882V29.1176Z" fill="#1ABCFE"/>
<path d="M20.6765 29.1176H21.7647V30.1961H20.6765V29.1176Z" fill="#1ABCFE"/>
<path d="M21.7647 29.1176H22.8529V30.1961H21.7647V29.1176Z" fill="#1ABCFE"/>
<path d="M22.8529 29.1176H23.9412V30.1961H22.8529V29.1176Z" fill="#1ABCFE"/>
<path d="M23.9412 29.1176H25.0294V30.1961H23.9412V29.1176Z" fill="#1ABCFE"/>
<path d="M25.0294 29.1176H26.1176V30.1961H25.0294V29.1176Z" fill="#1ABCFE"/>
<path d="M26.1176 29.1176H27.2059V30.1961H26.1176V29.1176Z" fill="#1ABCFE"/>
<path d="M27.2059 29.1176H28.2941V30.1961H27.2059V29.1176Z" fill="#1ABCFE"/>
<path d="M28.2941 29.1176H29.3824V30.1961H28.2941V29.1176Z" fill="#1ABCFE"/>
<path d="M29.3824 29.1176H30.4706V30.1961H29.3824V29.1176Z" fill="#1ABCFE"/>
<path d="M30.4706 29.1176H31.5588V30.1961H30.4706V29.1176Z" fill="#1ABCFE"/>
<path d="M31.5588 29.1176H32.6471V30.1961H31.5588V29.1176Z" fill="#1ABCFE"/>
<path d="M32.6471 29.1176H33.7353V30.1961H32.6471V29.1176Z" fill="#1ABCFE"/>
<path d="M33.7353 29.1176H34.8235V30.1961H33.7353V29.1176Z" fill="#1ABCFE"/>
<path d="M34.8235 29.1176H35.9118V30.1961H34.8235V29.1176Z" fill="#1ABCFE"/>
<path d="M35.9118 29.1176H37V30.1961H35.9118V29.1176Z" fill="#1ABCFE"/>
<path d="M1.08824 30.1961H2.17647V31.2745H1.08824V30.1961Z" fill="#A259FF"/>
<path d="M2.17647 30.1961H3.26471V31.2745H2.17647V30.1961Z" fill="#A259FF"/>
<path d="M3.26471 30.1961H4.35294V31.2745H3.26471V30.1961Z" fill="#A259FF"/>
<path d="M4.35294 30.1961H5.44118V31.2745H4.35294V30.1961Z" fill="#A259FF"/>
<path d="M5.44118 30.1961H6.52941V31.2745H5.44118V30.1961Z" fill="#A259FF"/>
<path d="M6.52941 30.1961H7.61765V31.2745H6.52941V30.1961Z" fill="#A259FF"/>
<path d="M7.61765 30.1961H8.70588V31.2745H7.61765V30.1961Z" fill="#A259FF"/>
<path d="M8.70588 30.1961H9.79412V31.2745H8.70588V30.1961Z" fill="#A259FF"/>
<path d="M9.79412 30.1961H10.8824V31.2745H9.79412V30.1961Z" fill="#A259FF"/>
<path d="M10.8824 30.1961H11.9706V31.2745H10.8824V30.1961Z" fill="#A259FF"/>
<path d="M11.9706 30.1961H13.0588V31.2745H11.9706V30.1961Z" fill="#A259FF"/>
<path d="M13.0588 30.1961H14.1471V31.2745H13.0588V30.1961Z" fill="#A259FF"/>
<path d="M14.1471 30.1961H15.2353V31.2745H14.1471V30.1961Z" fill="#A259FF"/>
<path d="M15.2353 30.1961H16.3235V31.2745H15.2353V30.1961Z" fill="#A259FF"/>
<path d="M16.3235 30.1961H17.4118V31.2745H16.3235V30.1961Z" fill="#A259FF"/>
<path d="M17.4118 30.1961H18.5V31.2745H17.4118V30.1961Z" fill="#A259FF"/>
<path d="M19.5882 30.1961H20.6765V31.2745H19.5882V30.1961Z" fill="#1ABCFE"/>
<path d="M20.6765 30.1961H21.7647V31.2745H20.6765V30.1961Z" fill="#1ABCFE"/>
<path d="M21.7647 30.1961H22.8529V31.2745H21.7647V30.1961Z" fill="#1ABCFE"/>
<path d="M22.8529 30.1961H23.9412V31.2745H22.8529V30.1961Z" fill="#1ABCFE"/>
<path d="M23.9412 30.1961H25.0294V31.2745H23.9412V30.1961Z" fill="#1ABCFE"/>
<path d="M25.0294 30.1961H26.1176V31.2745H25.0294V30.1961Z" fill="#1ABCFE"/>
<path d="M26.1176 30.1961H27.2059V31.2745H26.1176V30.1961Z" fill="#1ABCFE"/>
<path d="M27.2059 30.1961H28.2941V31.2745H27.2059V30.1961Z" fill="#1ABCFE"/>
<path d="M28.2941 30.1961H29.3824V31.2745H28.2941V30.1961Z" fill="#1ABCFE"/>
<path d="M29.3824 30.1961H30.4706V31.2745H29.3824V30.1961Z" fill="#1ABCFE"/>
<path d="M30.4706 30.1961H31.5588V31.2745H30.4706V30.1961Z" fill="#1ABCFE"/>
<path d="M31.5588 30.1961H32.6471V31.2745H31.5588V30.1961Z" fill="#1ABCFE"/>
<path d="M32.6471 30.1961H33.7353V31.2745H32.6471V30.1961Z" fill="#1ABCFE"/>
<path d="M33.7353 30.1961H34.8235V31.2745H33.7353V30.1961Z" fill="#1ABCFE"/>
<path d="M34.8235 30.1961H35.9118V31.2745H34.8235V30.1961Z" fill="#1ABCFE"/>
<path d="M35.9118 30.1961H37V31.2745H35.9118V30.1961Z" fill="#1ABCFE"/>
<path d="M1.08824 31.2745H2.17647V32.3529H1.08824V31.2745Z" fill="#A259FF"/>
<path d="M2.17647 31.2745H3.26471V32.3529H2.17647V31.2745Z" fill="#A259FF"/>
<path d="M3.26471 31.2745H4.35294V32.3529H3.26471V31.2745Z" fill="#A259FF"/>
<path d="M4.35294 31.2745H5.44118V32.3529H4.35294V31.2745Z" fill="#A259FF"/>
<path d="M5.44118 31.2745H6.52941V32.3529H5.44118V31.2745Z" fill="#A259FF"/>
<path d="M6.52941 31.2745H7.61765V32.3529H6.52941V31.2745Z" fill="#A259FF"/>
<path d="M7.61765 31.2745H8.70588V32.3529H7.61765V31.2745Z" fill="#A259FF"/>
<path d="M8.70588 31.2745H9.79412V32.3529H8.70588V31.2745Z" fill="#A259FF"/>
<path d="M9.79412 31.2745H10.8824V32.3529H9.79412V31.2745Z" fill="#A259FF"/>
<path d="M10.8824 31.2745H11.9706V32.3529H10.8824V31.2745Z" fill="#A259FF"/>
<path d="M11.9706 31.2745H13.0588V32.3529H11.9706V31.2745Z" fill="#A259FF"/>
<path d="M13.0588 31.2745H14.1471V32.3529H13.0588V31.2745Z" fill="#A259FF"/>
<path d="M14.1471 31.2745H15.2353V32.3529H14.1471V31.2745Z" fill="#A259FF"/>
<path d="M15.2353 31.2745H16.3235V32.3529H15.2353V31.2745Z" fill="#A259FF"/>
<path d="M16.3235 31.2745H17.4118V32.3529H16.3235V31.2745Z" fill="#A259FF"/>
<path d="M17.4118 31.2745H18.5V32.3529H17.4118V31.2745Z" fill="#A259FF"/>
<path d="M19.5882 31.2745H20.6765V32.3529H19.5882V31.2745Z" fill="#1ABCFE"/>
<path d="M20.6765 31.2745H21.7647V32.3529H20.6765V31.2745Z" fill="#1ABCFE"/>
<path d="M21.7647 31.2745H22.8529V32.3529H21.7647V31.2745Z" fill="#1ABCFE"/>
<path d="M22.8529 31.2745H23.9412V32.3529H22.8529V31.2745Z" fill="#1ABCFE"/>
<path d="M23.9412 31.2745H25.0294V32.3529H23.9412V31.2745Z" fill="#1ABCFE"/>
<path d="M25.0294 31.2745H26.1176V32.3529H25.0294V31.2745Z" fill="#1ABCFE"/>
<path d="M26.1176 31.2745H27.2059V32.3529H26.1176V31.2745Z" fill="#1ABCFE"/>
<path d="M27.2059 31.2745H28.2941V32.3529H27.2059V31.2745Z" fill="#1ABCFE"/>
<path d="M28.2941 31.2745H29.3824V32.3529H28.2941V31.2745Z" fill="#1ABCFE"/>
<path d="M29.3824 31.2745H30.4706V32.3529H29.3824V31.2745Z" fill="#1ABCFE"/>
<path d="M30.4706 31.2745H31.5588V32.3529H30.4706V31.2745Z" fill="#1ABCFE"/>
<path d="M31.5588 31.2745H32.6471V32.3529H31.5588V31.2745Z" fill="#1ABCFE"/>
<path d="M32.6471 31.2745H33.7353V32.3529H32.6471V31.2745Z" fill="#1ABCFE"/>
<path d="M33.7353 31.2745H34.8235V32.3529H33.7353V31.2745Z" fill="#1ABCFE"/>
<path d="M34.8235 31.2745H35.9118V32.3529H34.8235V31.2745Z" fill="#1ABCFE"/>
<path d="M2.17647 32.3529H3.26471V33.4314H2.17647V32.3529Z" fill="#A259FF"/>
<path d="M3.26471 32.3529H4.35294V33.4314H3.26471V32.3529Z" fill="#A259FF"/>
<path d="M4.35294 32.3529H5.44118V33.4314H4.35294V32.3529Z" fill="#A259FF"/>
<path d="M5.44118 32.3529H6.52941V33.4314H5.44118V32.3529Z" fill="#A259FF"/>
<path d="M6.52941 32.3529H7.61765V33.4314H6.52941V32.3529Z" fill="#A259FF"/>
<path d="M7.61765 32.3529H8.70588V33.4314H7.61765V32.3529Z" fill="#A259FF"/>
<path d="M8.70588 32.3529H9.79412V33.4314H8.70588V32.3529Z" fill="#A259FF"/>
<path d="M9.79412 32.3529H10.8824V33.4314H9.79412V32.3529Z" fill="#A259FF"/>
<path d="M10.8824 32.3529H11.9706V33.4314H10.8824V32.3529Z" fill="#A259FF"/>
<path d="M11.9706 32.3529H13.0588V33.4314H11.9706V32.3529Z" fill="#A259FF"/>
<path d="M13.0588 32.3529H14.1471V33.4314H13.0588V32.3529Z" fill="#A259FF"/>
<path d="M14.1471 32.3529H15.2353V33.4314H14.1471V32.3529Z" fill="#A259FF"/>
<path d="M15.2353 32.3529H16.3235V33.4314H15.2353V32.3529Z" fill="#A259FF"/>
<path d="M16.3235 32.3529H17.4118V33.4314H16.3235V32.3529Z" fill="#A259FF"/>
<path d="M17.4118 32.3529H18.5V33.4314H17.4118V32.3529Z" fill="#A259FF"/>
<path d="M20.6765 32.3529H21.7647V33.4314H20.6765V32.3529Z" fill="#1ABCFE"/>
<path d="M21.7647 32.3529H22.8529V33.4314H21.7647V32.3529Z" fill="#1ABCFE"/>
<path d="M22.8529 32.3529H23.9412V33.4314H22.8529V32.3529Z" fill="#1ABCFE"/>
<path d="M23.9412 32.3529H25.0294V33.4314H23.9412V32.3529Z" fill="#1ABCFE"/>
<path d="M25.0294 32.3529H26.1176V33.4314H25.0294V32.3529Z" fill="#1ABCFE"/>
<path d="M26.1176 32.3529H27.2059V33.4314H26.1176V32.3529Z" fill="#1ABCFE"/>
<path d="M27.2059 32.3529H28.2941V33.4314H27.2059V32.3529Z" fill="#1ABCFE"/>
<path d="M28.2941 32.3529H29.3824V33.4314H28.2941V32.3529Z" fill="#1ABCFE"/>
<path d="M29.3824 32.3529H30.4706V33.4314H29.3824V32.3529Z" fill="#1ABCFE"/>
<path d="M30.4706 32.3529H31.5588V33.4314H30.4706V32.3529Z" fill="#1ABCFE"/>
<path d="M31.5588 32.3529H32.6471V33.4314H31.5588V32.3529Z" fill="#1ABCFE"/>
<path d="M32.6471 32.3529H33.7353V33.4314H32.6471V32.3529Z" fill="#1ABCFE"/>
<path d="M33.7353 32.3529H34.8235V33.4314H33.7353V32.3529Z" fill="#1ABCFE"/>
<path d="M34.8235 32.3529H35.9118V33.4314H34.8235V32.3529Z" fill="#1ABCFE"/>
<path d="M3.26471 33.4314H4.35294V34.5098H3.26471V33.4314Z" fill="#A259FF"/>
<path d="M4.35294 33.4314H5.44118V34.5098H4.35294V33.4314Z" fill="#A259FF"/>
<path d="M5.44118 33.4314H6.52941V34.5098H5.44118V33.4314Z" fill="#A259FF"/>
<path d="M6.52941 33.4314H7.61765V34.5098H6.52941V33.4314Z" fill="#A259FF"/>
<path d="M7.61765 33.4314H8.70588V34.5098H7.61765V33.4314Z" fill="#A259FF"/>
<path d="M8.70588 33.4314H9.79412V34.5098H8.70588V33.4314Z" fill="#A259FF"/>
<path d="M9.79412 33.4314H10.8824V34.5098H9.79412V33.4314Z" fill="#A259FF"/>
<path d="M10.8824 33.4314H11.9706V34.5098H10.8824V33.4314Z" fill="#A259FF"/>
<path d="M11.9706 33.4314H13.0588V34.5098H11.9706V33.4314Z" fill="#A259FF"/>
<path d="M13.0588 33.4314H14.1471V34.5098H13.0588V33.4314Z" fill="#A259FF"/>
<path d="M14.1471 33.4314H15.2353V34.5098H14.1471V33.4314Z" fill="#A259FF"/>
<path d="M15.2353 33.4314H16.3235V34.5098H15.2353V33.4314Z" fill="#A259FF"/>
<path d="M16.3235 33.4314H17.4118V34.5098H16.3235V33.4314Z" fill="#A259FF"/>
<path d="M17.4118 33.4314H18.5V34.5098H17.4118V33.4314Z" fill="#A259FF"/>
<path d="M21.7647 33.4314H22.8529V34.5098H21.7647V33.4314Z" fill="#1ABCFE"/>
<path d="M22.8529 33.4314H23.9412V34.5098H22.8529V33.4314Z" fill="#1ABCFE"/>
<path d="M23.9412 33.4314H25.0294V34.5098H23.9412V33.4314Z" fill="#1ABCFE"/>
<path d="M25.0294 33.4314H26.1176V34.5098H25.0294V33.4314Z" fill="#1ABCFE"/>
<path d="M26.1176 33.4314H27.2059V34.5098H26.1176V33.4314Z" fill="#1ABCFE"/>
<path d="M27.2059 33.4314H28.2941V34.5098H27.2059V33.4314Z" fill="#1ABCFE"/>
<path d="M28.2941 33.4314H29.3824V34.5098H28.2941V33.4314Z" fill="#1ABCFE"/>
<path d="M29.3824 33.4314H30.4706V34.5098H29.3824V33.4314Z" fill="#1ABCFE"/>
<path d="M30.4706 33.4314H31.5588V34.5098H30.4706V33.4314Z" fill="#1ABCFE"/>
<path d="M31.5588 33.4314H32.6471V34.5098H31.5588V33.4314Z" fill="#1ABCFE"/>
<path d="M32.6471 33.4314H33.7353V34.5098H32.6471V33.4314Z" fill="#1ABCFE"/>
<path d="M33.7353 33.4314H34.8235V34.5098H33.7353V33.4314Z" fill="#1ABCFE"/>
<path d="M4.35294 34.5098H5.44118V35.5882H4.35294V34.5098Z" fill="#A259FF"/>
<path d="M5.44118 34.5098H6.52941V35.5882H5.44118V34.5098Z" fill="#A259FF"/>
<path d="M6.52941 34.5098H7.61765V35.5882H6.52941V34.5098Z" fill="#A259FF"/>
<path d="M7.61765 34.5098H8.70588V35.5882H7.61765V34.5098Z" fill="#A259FF"/>
<path d="M8.70588 34.5098H9.79412V35.5882H8.70588V34.5098Z" fill="#A259FF"/>
<path d="M9.79412 34.5098H10.8824V35.5882H9.79412V34.5098Z" fill="#A259FF"/>
<path d="M10.8824 34.5098H11.9706V35.5882H10.8824V34.5098Z" fill="#A259FF"/>
<path d="M11.9706 34.5098H13.0588V35.5882H11.9706V34.5098Z" fill="#A259FF"/>
<path d="M13.0588 34.5098H14.1471V35.5882H13.0588V34.5098Z" fill="#A259FF"/>
<path d="M14.1471 34.5098H15.2353V35.5882H14.1471V34.5098Z" fill="#A259FF"/>
<path d="M15.2353 34.5098H16.3235V35.5882H15.2353V34.5098Z" fill="#A259FF"/>
<path d="M16.3235 34.5098H17.4118V35.5882H16.3235V34.5098Z" fill="#A259FF"/>
<path d="M17.4118 34.5098H18.5V35.5882H17.4118V34.5098Z" fill="#A259FF"/>
<path d="M22.8529 34.5098H23.9412V35.5882H22.8529V34.5098Z" fill="#1ABCFE"/>
<path d="M23.9412 34.5098H25.0294V35.5882H23.9412V34.5098Z" fill="#1ABCFE"/>
<path d="M25.0294 34.5098H26.1176V35.5882H25.0294V34.5098Z" fill="#1ABCFE"/>
<path d="M26.1176 34.5098H27.2059V35.5882H26.1176V34.5098Z" fill="#1ABCFE"/>
<path d="M27.2059 34.5098H28.2941V35.5882H27.2059V34.5098Z" fill="#1ABCFE"/>
<path d="M28.2941 34.5098H29.3824V35.5882H28.2941V34.5098Z" fill="#1ABCFE"/>
<path d="M29.3824 34.5098H30.4706V35.5882H29.3824V34.5098Z" fill="#1ABCFE"/>
<path d="M30.4706 34.5098H31.5588V35.5882H30.4706V34.5098Z" fill="#1ABCFE"/>
<path d="M31.5588 34.5098H32.6471V35.5882H31.5588V34.5098Z" fill="#1ABCFE"/>
<path d="M32.6471 34.5098H33.7353V35.5882H32.6471V34.5098Z" fill="#1ABCFE"/>
<path d="M6.52941 35.5882H7.61765V36.6667H6.52941V35.5882Z" fill="#A259FF"/>
<path d="M7.61765 35.5882H8.70588V36.6667H7.61765V35.5882Z" fill="#A259FF"/>
<path d="M8.70588 35.5882H9.79412V36.6667H8.70588V35.5882Z" fill="#A259FF"/>
<path d="M9.79412 35.5882H10.8824V36.6667H9.79412V35.5882Z" fill="#A259FF"/>
<path d="M10.8824 35.5882H11.9706V36.6667H10.8824V35.5882Z" fill="#A259FF"/>
<path d="M11.9706 35.5882H13.0588V36.6667H11.9706V35.5882Z" fill="#A259FF"/>
<path d="M13.0588 35.5882H14.1471V36.6667H13.0588V35.5882Z" fill="#A259FF"/>
<path d="M14.1471 35.5882H15.2353V36.6667H14.1471V35.5882Z" fill="#A259FF"/>
<path d="M15.2353 35.5882H16.3235V36.6667H15.2353V35.5882Z" fill="#A259FF"/>
<path d="M16.3235 35.5882H17.4118V36.6667H16.3235V35.5882Z" fill="#A259FF"/>
<path d="M17.4118 35.5882H18.5V36.6667H17.4118V35.5882Z" fill="#A259FF"/>
<path d="M25.0294 35.5882H26.1176V36.6667H25.0294V35.5882Z" fill="#1ABCFE"/>
<path d="M26.1176 35.5882H27.2059V36.6667H26.1176V35.5882Z" fill="#1ABCFE"/>
<path d="M27.2059 35.5882H28.2941V36.6667H27.2059V35.5882Z" fill="#1ABCFE"/>
<path d="M28.2941 35.5882H29.3824V36.6667H28.2941V35.5882Z" fill="#1ABCFE"/>
<path d="M29.3824 35.5882H30.4706V36.6667H29.3824V35.5882Z" fill="#1ABCFE"/>
<path d="M30.4706 35.5882H31.5588V36.6667H30.4706V35.5882Z" fill="#1ABCFE"/>
<path d="M6.52941 36.6667H7.61765V37.7451H6.52941V36.6667Z" fill="#09CF83"/>
<path d="M7.61765 36.6667H8.70588V37.7451H7.61765V36.6667Z" fill="#0ACF83"/>
<path d="M8.70588 36.6667H9.79412V37.7451H8.70588V36.6667Z" fill="#0ACF83"/>
<path d="M9.79412 36.6667H10.8824V37.7451H9.79412V36.6667Z" fill="#0ACF83"/>
<path d="M10.8824 36.6667H11.9706V37.7451H10.8824V36.6667Z" fill="#0ACF83"/>
<path d="M11.9706 36.6667H13.0588V37.7451H11.9706V36.6667Z" fill="#0ACF83"/>
<path d="M13.0588 36.6667H14.1471V37.7451H13.0588V36.6667Z" fill="#0ACF83"/>
<path d="M14.1471 36.6667H15.2353V37.7451H14.1471V36.6667Z" fill="#0ACF83"/>
<path d="M15.2353 36.6667H16.3235V37.7451H15.2353V36.6667Z" fill="#0ACF83"/>
<path d="M16.3235 36.6667H17.4118V37.7451H16.3235V36.6667Z" fill="#0ACF83"/>
<path d="M17.4118 36.6667H18.5V37.7451H17.4118V36.6667Z" fill="#0ACF83"/>
<path d="M4.35294 37.7451H5.44118V38.8235H4.35294V37.7451Z" fill="#0ACF83"/>
<path d="M5.44118 37.7451H6.52941V38.8235H5.44118V37.7451Z" fill="#0ACF83"/>
<path d="M6.52941 37.7451H7.61765V38.8235H6.52941V37.7451Z" fill="#0ACF83"/>
<path d="M7.61765 37.7451H8.70588V38.8235H7.61765V37.7451Z" fill="#0ACF83"/>
<path d="M8.70588 37.7451H9.79412V38.8235H8.70588V37.7451Z" fill="#0ACF83"/>
<path d="M9.79412 37.7451H10.8824V38.8235H9.79412V37.7451Z" fill="#0ACF83"/>
<path d="M10.8824 37.7451H11.9706V38.8235H10.8824V37.7451Z" fill="#0ACF83"/>
<path d="M11.9706 37.7451H13.0588V38.8235H11.9706V37.7451Z" fill="#0ACF83"/>
<path d="M13.0588 37.7451H14.1471V38.8235H13.0588V37.7451Z" fill="#0ACF83"/>
<path d="M14.1471 37.7451H15.2353V38.8235H14.1471V37.7451Z" fill="#0ACF83"/>
<path d="M15.2353 37.7451H16.3235V38.8235H15.2353V37.7451Z" fill="#0ACF83"/>
<path d="M16.3235 37.7451H17.4118V38.8235H16.3235V37.7451Z" fill="#0ACF83"/>
<path d="M17.4118 37.7451H18.5V38.8235H17.4118V37.7451Z" fill="#0ACF83"/>
<path d="M3.26471 38.8235H4.35294V39.902H3.26471V38.8235Z" fill="#0ACF83"/>
<path d="M4.35294 38.8235H5.44118V39.902H4.35294V38.8235Z" fill="#0ACF83"/>
<path d="M5.44118 38.8235H6.52941V39.902H5.44118V38.8235Z" fill="#0ACF83"/>
<path d="M6.52941 38.8235H7.61765V39.902H6.52941V38.8235Z" fill="#0ACF83"/>
<path d="M7.61765 38.8235H8.70588V39.902H7.61765V38.8235Z" fill="#0ACF83"/>
<path d="M8.70588 38.8235H9.79412V39.902H8.70588V38.8235Z" fill="#0ACF83"/>
<path d="M9.79412 38.8235H10.8824V39.902H9.79412V38.8235Z" fill="#0ACF83"/>
<path d="M10.8824 38.8235H11.9706V39.902H10.8824V38.8235Z" fill="#0ACF83"/>
<path d="M11.9706 38.8235H13.0588V39.902H11.9706V38.8235Z" fill="#0ACF83"/>
<path d="M13.0588 38.8235H14.1471V39.902H13.0588V38.8235Z" fill="#0ACF83"/>
<path d="M14.1471 38.8235H15.2353V39.902H14.1471V38.8235Z" fill="#0ACF83"/>
<path d="M15.2353 38.8235H16.3235V39.902H15.2353V38.8235Z" fill="#0ACF83"/>
<path d="M16.3235 38.8235H17.4118V39.902H16.3235V38.8235Z" fill="#0ACF83"/>
<path d="M17.4118 38.8235H18.5V39.902H17.4118V38.8235Z" fill="#0ACF83"/>
<path d="M2.17647 39.902H3.26471V40.9804H2.17647V39.902Z" fill="#0ACF83"/>
<path d="M3.26471 39.902H4.35294V40.9804H3.26471V39.902Z" fill="#0ACF83"/>
<path d="M4.35294 39.902H5.44118V40.9804H4.35294V39.902Z" fill="#0ACF83"/>
<path d="M5.44118 39.902H6.52941V40.9804H5.44118V39.902Z" fill="#0ACF83"/>
<path d="M6.52941 39.902H7.61765V40.9804H6.52941V39.902Z" fill="#0ACF83"/>
<path d="M7.61765 39.902H8.70588V40.9804H7.61765V39.902Z" fill="#0ACF83"/>
<path d="M8.70588 39.902H9.79412V40.9804H8.70588V39.902Z" fill="#0ACF83"/>
<path d="M9.79412 39.902H10.8824V40.9804H9.79412V39.902Z" fill="#0ACF83"/>
<path d="M10.8824 39.902H11.9706V40.9804H10.8824V39.902Z" fill="#0ACF83"/>
<path d="M11.9706 39.902H13.0588V40.9804H11.9706V39.902Z" fill="#0ACF83"/>
<path d="M13.0588 39.902H14.1471V40.9804H13.0588V39.902Z" fill="#0ACF83"/>
<path d="M14.1471 39.902H15.2353V40.9804H14.1471V39.902Z" fill="#0ACF83"/>
<path d="M15.2353 39.902H16.3235V40.9804H15.2353V39.902Z" fill="#0ACF83"/>
<path d="M16.3235 39.902H17.4118V40.9804H16.3235V39.902Z" fill="#0ACF83"/>
<path d="M17.4118 39.902H18.5V40.9804H17.4118V39.902Z" fill="#0ACF83"/>
<path d="M2.17647 40.9804H3.26471V42.0588H2.17647V40.9804Z" fill="#0ACF83"/>
<path d="M3.26471 40.9804H4.35294V42.0588H3.26471V40.9804Z" fill="#0ACF83"/>
<path d="M4.35294 40.9804H5.44118V42.0588H4.35294V40.9804Z" fill="#0ACF83"/>
<path d="M5.44118 40.9804H6.52941V42.0588H5.44118V40.9804Z" fill="#0ACF83"/>
<path d="M6.52941 40.9804H7.61765V42.0588H6.52941V40.9804Z" fill="#0ACF83"/>
<path d="M7.61765 40.9804H8.70588V42.0588H7.61765V40.9804Z" fill="#0ACF83"/>
<path d="M8.70588 40.9804H9.79412V42.0588H8.70588V40.9804Z" fill="#0ACF83"/>
<path d="M9.79412 40.9804H10.8824V42.0588H9.79412V40.9804Z" fill="#0ACF83"/>
<path d="M10.8824 40.9804H11.9706V42.0588H10.8824V40.9804Z" fill="#0ACF83"/>
<path d="M11.9706 40.9804H13.0588V42.0588H11.9706V40.9804Z" fill="#0ACF83"/>
<path d="M13.0588 40.9804H14.1471V42.0588H13.0588V40.9804Z" fill="#0ACF83"/>
<path d="M14.1471 40.9804H15.2353V42.0588H14.1471V40.9804Z" fill="#0ACF83"/>
<path d="M15.2353 40.9804H16.3235V42.0588H15.2353V40.9804Z" fill="#0ACF83"/>
<path d="M16.3235 40.9804H17.4118V42.0588H16.3235V40.9804Z" fill="#0ACF83"/>
<path d="M17.4118 40.9804H18.5V42.0588H17.4118V40.9804Z" fill="#0ACF83"/>
<path d="M1.08824 42.0588H2.17647V43.1373H1.08824V42.0588Z" fill="#0ACF83"/>
<path d="M2.17647 42.0588H3.26471V43.1373H2.17647V42.0588Z" fill="#0ACF83"/>
<path d="M3.26471 42.0588H4.35294V43.1373H3.26471V42.0588Z" fill="#0ACF83"/>
<path d="M4.35294 42.0588H5.44118V43.1373H4.35294V42.0588Z" fill="#0ACF83"/>
<path d="M5.44118 42.0588H6.52941V43.1373H5.44118V42.0588Z" fill="#0ACF83"/>
<path d="M6.52941 42.0588H7.61765V43.1373H6.52941V42.0588Z" fill="#0ACF83"/>
<path d="M7.61765 42.0588H8.70588V43.1373H7.61765V42.0588Z" fill="#0ACF83"/>
<path d="M8.70588 42.0588H9.79412V43.1373H8.70588V42.0588Z" fill="#0ACF83"/>
<path d="M9.79412 42.0588H10.8824V43.1373H9.79412V42.0588Z" fill="#0ACF83"/>
<path d="M10.8824 42.0588H11.9706V43.1373H10.8824V42.0588Z" fill="#0ACF83"/>
<path d="M11.9706 42.0588H13.0588V43.1373H11.9706V42.0588Z" fill="#0ACF83"/>
<path d="M13.0588 42.0588H14.1471V43.1373H13.0588V42.0588Z" fill="#0ACF83"/>
<path d="M14.1471 42.0588H15.2353V43.1373H14.1471V42.0588Z" fill="#0ACF83"/>
<path d="M15.2353 42.0588H16.3235V43.1373H15.2353V42.0588Z" fill="#0ACF83"/>
<path d="M16.3235 42.0588H17.4118V43.1373H16.3235V42.0588Z" fill="#0ACF83"/>
<path d="M17.4118 42.0588H18.5V43.1373H17.4118V42.0588Z" fill="#0ACF83"/>
<path d="M1.08824 43.1373H2.17647V44.2157H1.08824V43.1373Z" fill="#0ACF83"/>
<path d="M2.17647 43.1373H3.26471V44.2157H2.17647V43.1373Z" fill="#0ACF83"/>
<path d="M3.26471 43.1373H4.35294V44.2157H3.26471V43.1373Z" fill="#0ACF83"/>
<path d="M4.35294 43.1373H5.44118V44.2157H4.35294V43.1373Z" fill="#0ACF83"/>
<path d="M5.44118 43.1373H6.52941V44.2157H5.44118V43.1373Z" fill="#0ACF83"/>
<path d="M6.52941 43.1373H7.61765V44.2157H6.52941V43.1373Z" fill="#0ACF83"/>
<path d="M7.61765 43.1373H8.70588V44.2157H7.61765V43.1373Z" fill="#0ACF83"/>
<path d="M8.70588 43.1373H9.79412V44.2157H8.70588V43.1373Z" fill="#0ACF83"/>
<path d="M9.79412 43.1373H10.8824V44.2157H9.79412V43.1373Z" fill="#0ACF83"/>
<path d="M10.8824 43.1373H11.9706V44.2157H10.8824V43.1373Z" fill="#0ACF83"/>
<path d="M11.9706 43.1373H13.0588V44.2157H11.9706V43.1373Z" fill="#0ACF83"/>
<path d="M13.0588 43.1373H14.1471V44.2157H13.0588V43.1373Z" fill="#0ACF83"/>
<path d="M14.1471 43.1373H15.2353V44.2157H14.1471V43.1373Z" fill="#0ACF83"/>
<path d="M15.2353 43.1373H16.3235V44.2157H15.2353V43.1373Z" fill="#0ACF83"/>
<path d="M16.3235 43.1373H17.4118V44.2157H16.3235V43.1373Z" fill="#0ACF83"/>
<path d="M17.4118 43.1373H18.5V44.2157H17.4118V43.1373Z" fill="#0ACF83"/>
<path d="M1.08824 44.2157H2.17647V45.2941H1.08824V44.2157Z" fill="#0ACF83"/>
<path d="M2.17647 44.2157H3.26471V45.2941H2.17647V44.2157Z" fill="#0ACF83"/>
<path d="M3.26471 44.2157H4.35294V45.2941H3.26471V44.2157Z" fill="#0ACF83"/>
<path d="M4.35294 44.2157H5.44118V45.2941H4.35294V44.2157Z" fill="#0ACF83"/>
<path d="M5.44118 44.2157H6.52941V45.2941H5.44118V44.2157Z" fill="#0ACF83"/>
<path d="M6.52941 44.2157H7.61765V45.2941H6.52941V44.2157Z" fill="#0ACF83"/>
<path d="M7.61765 44.2157H8.70588V45.2941H7.61765V44.2157Z" fill="#0ACF83"/>
<path d="M8.70588 44.2157H9.79412V45.2941H8.70588V44.2157Z" fill="#0ACF83"/>
<path d="M9.79412 44.2157H10.8824V45.2941H9.79412V44.2157Z" fill="#0ACF83"/>
<path d="M10.8824 44.2157H11.9706V45.2941H10.8824V44.2157Z" fill="#0ACF83"/>
<path d="M11.9706 44.2157H13.0588V45.2941H11.9706V44.2157Z" fill="#0ACF83"/>
<path d="M13.0588 44.2157H14.1471V45.2941H13.0588V44.2157Z" fill="#0ACF83"/>
<path d="M14.1471 44.2157H15.2353V45.2941H14.1471V44.2157Z" fill="#0ACF83"/>
<path d="M15.2353 44.2157H16.3235V45.2941H15.2353V44.2157Z" fill="#0ACF83"/>
<path d="M16.3235 44.2157H17.4118V45.2941H16.3235V44.2157Z" fill="#0ACF83"/>
<path d="M17.4118 44.2157H18.5V45.2941H17.4118V44.2157Z" fill="#0ACF83"/>
<path d="M0 45.2941H1.08824V46.3725H0V45.2941Z" fill="#0ACD81"/>
<path d="M1.08824 45.2941H2.17647V46.3725H1.08824V45.2941Z" fill="#0ACF83"/>
<path d="M2.17647 45.2941H3.26471V46.3725H2.17647V45.2941Z" fill="#0ACF83"/>
<path d="M3.26471 45.2941H4.35294V46.3725H3.26471V45.2941Z" fill="#0ACF83"/>
<path d="M4.35294 45.2941H5.44118V46.3725H4.35294V45.2941Z" fill="#0ACF83"/>
<path d="M5.44118 45.2941H6.52941V46.3725H5.44118V45.2941Z" fill="#0ACF83"/>
<path d="M6.52941 45.2941H7.61765V46.3725H6.52941V45.2941Z" fill="#0ACF83"/>
<path d="M7.61765 45.2941H8.70588V46.3725H7.61765V45.2941Z" fill="#0ACF83"/>
<path d="M8.70588 45.2941H9.79412V46.3725H8.70588V45.2941Z" fill="#0ACF83"/>
<path d="M9.79412 45.2941H10.8824V46.3725H9.79412V45.2941Z" fill="#0ACF83"/>
<path d="M10.8824 45.2941H11.9706V46.3725H10.8824V45.2941Z" fill="#0ACF83"/>
<path d="M11.9706 45.2941H13.0588V46.3725H11.9706V45.2941Z" fill="#0ACF83"/>
<path d="M13.0588 45.2941H14.1471V46.3725H13.0588V45.2941Z" fill="#0ACF83"/>
<path d="M14.1471 45.2941H15.2353V46.3725H14.1471V45.2941Z" fill="#0ACF83"/>
<path d="M15.2353 45.2941H16.3235V46.3725H15.2353V45.2941Z" fill="#0ACF83"/>
<path d="M16.3235 45.2941H17.4118V46.3725H16.3235V45.2941Z" fill="#0ACF83"/>
<path d="M17.4118 45.2941H18.5V46.3725H17.4118V45.2941Z" fill="#0ACF83"/>
<path d="M1.08824 46.3725H2.17647V47.451H1.08824V46.3725Z" fill="#0ACF83"/>
<path d="M2.17647 46.3725H3.26471V47.451H2.17647V46.3725Z" fill="#0ACF83"/>
<path d="M3.26471 46.3725H4.35294V47.451H3.26471V46.3725Z" fill="#0ACF83"/>
<path d="M4.35294 46.3725H5.44118V47.451H4.35294V46.3725Z" fill="#0ACF83"/>
<path d="M5.44118 46.3725H6.52941V47.451H5.44118V46.3725Z" fill="#0ACF83"/>
<path d="M6.52941 46.3725H7.61765V47.451H6.52941V46.3725Z" fill="#0ACF83"/>
<path d="M7.61765 46.3725H8.70588V47.451H7.61765V46.3725Z" fill="#0ACF83"/>
<path d="M8.70588 46.3725H9.79412V47.451H8.70588V46.3725Z" fill="#0ACF83"/>
<path d="M9.79412 46.3725H10.8824V47.451H9.79412V46.3725Z" fill="#0ACF83"/>
<path d="M10.8824 46.3725H11.9706V47.451H10.8824V46.3725Z" fill="#0ACF83"/>
<path d="M11.9706 46.3725H13.0588V47.451H11.9706V46.3725Z" fill="#0ACF83"/>
<path d="M13.0588 46.3725H14.1471V47.451H13.0588V46.3725Z" fill="#0ACF83"/>
<path d="M14.1471 46.3725H15.2353V47.451H14.1471V46.3725Z" fill="#0ACF83"/>
<path d="M15.2353 46.3725H16.3235V47.451H15.2353V46.3725Z" fill="#0ACF83"/>
<path d="M16.3235 46.3725H17.4118V47.451H16.3235V46.3725Z" fill="#0ACF83"/>
<path d="M17.4118 46.3725H18.5V47.451H17.4118V46.3725Z" fill="#0ACF83"/>
<path d="M1.08824 47.451H2.17647V48.5294H1.08824V47.451Z" fill="#0ACF83"/>
<path d="M2.17647 47.451H3.26471V48.5294H2.17647V47.451Z" fill="#0ACF83"/>
<path d="M3.26471 47.451H4.35294V48.5294H3.26471V47.451Z" fill="#0ACF83"/>
<path d="M4.35294 47.451H5.44118V48.5294H4.35294V47.451Z" fill="#0ACF83"/>
<path d="M5.44118 47.451H6.52941V48.5294H5.44118V47.451Z" fill="#0ACF83"/>
<path d="M6.52941 47.451H7.61765V48.5294H6.52941V47.451Z" fill="#0ACF83"/>
<path d="M7.61765 47.451H8.70588V48.5294H7.61765V47.451Z" fill="#0ACF83"/>
<path d="M8.70588 47.451H9.79412V48.5294H8.70588V47.451Z" fill="#0ACF83"/>
<path d="M9.79412 47.451H10.8824V48.5294H9.79412V47.451Z" fill="#0ACF83"/>
<path d="M10.8824 47.451H11.9706V48.5294H10.8824V47.451Z" fill="#0ACF83"/>
<path d="M11.9706 47.451H13.0588V48.5294H11.9706V47.451Z" fill="#0ACF83"/>
<path d="M13.0588 47.451H14.1471V48.5294H13.0588V47.451Z" fill="#0ACF83"/>
<path d="M14.1471 47.451H15.2353V48.5294H14.1471V47.451Z" fill="#0ACF83"/>
<path d="M15.2353 47.451H16.3235V48.5294H15.2353V47.451Z" fill="#0ACF83"/>
<path d="M16.3235 47.451H17.4118V48.5294H16.3235V47.451Z" fill="#0ACF83"/>
<path d="M17.4118 47.451H18.5V48.5294H17.4118V47.451Z" fill="#0ACF83"/>
<path d="M1.08824 48.5294H2.17647V49.6078H1.08824V48.5294Z" fill="#0ACF83"/>
<path d="M2.17647 48.5294H3.26471V49.6078H2.17647V48.5294Z" fill="#0ACF83"/>
<path d="M3.26471 48.5294H4.35294V49.6078H3.26471V48.5294Z" fill="#0ACF83"/>
<path d="M4.35294 48.5294H5.44118V49.6078H4.35294V48.5294Z" fill="#0ACF83"/>
<path d="M5.44118 48.5294H6.52941V49.6078H5.44118V48.5294Z" fill="#0ACF83"/>
<path d="M6.52941 48.5294H7.61765V49.6078H6.52941V48.5294Z" fill="#0ACF83"/>
<path d="M7.61765 48.5294H8.70588V49.6078H7.61765V48.5294Z" fill="#0ACF83"/>
<path d="M8.70588 48.5294H9.79412V49.6078H8.70588V48.5294Z" fill="#0ACF83"/>
<path d="M9.79412 48.5294H10.8824V49.6078H9.79412V48.5294Z" fill="#0ACF83"/>
<path d="M10.8824 48.5294H11.9706V49.6078H10.8824V48.5294Z" fill="#0ACF83"/>
<path d="M11.9706 48.5294H13.0588V49.6078H11.9706V48.5294Z" fill="#0ACF83"/>
<path d="M13.0588 48.5294H14.1471V49.6078H13.0588V48.5294Z" fill="#0ACF83"/>
<path d="M14.1471 48.5294H15.2353V49.6078H14.1471V48.5294Z" fill="#0ACF83"/>
<path d="M15.2353 48.5294H16.3235V49.6078H15.2353V48.5294Z" fill="#0ACF83"/>
<path d="M16.3235 48.5294H17.4118V49.6078H16.3235V48.5294Z" fill="#0ACF83"/>
<path d="M17.4118 48.5294H18.5V49.6078H17.4118V48.5294Z" fill="#0ACF83"/>
<path d="M1.08824 49.6078H2.17647V50.6863H1.08824V49.6078Z" fill="#0ACD81"/>
<path d="M2.17647 49.6078H3.26471V50.6863H2.17647V49.6078Z" fill="#0ACF83"/>
<path d="M3.26471 49.6078H4.35294V50.6863H3.26471V49.6078Z" fill="#0ACF83"/>
<path d="M4.35294 49.6078H5.44118V50.6863H4.35294V49.6078Z" fill="#0ACF83"/>
<path d="M5.44118 49.6078H6.52941V50.6863H5.44118V49.6078Z" fill="#0ACF83"/>
<path d="M6.52941 49.6078H7.61765V50.6863H6.52941V49.6078Z" fill="#0ACF83"/>
<path d="M7.61765 49.6078H8.70588V50.6863H7.61765V49.6078Z" fill="#0ACF83"/>
<path d="M8.70588 49.6078H9.79412V50.6863H8.70588V49.6078Z" fill="#0ACF83"/>
<path d="M9.79412 49.6078H10.8824V50.6863H9.79412V49.6078Z" fill="#0ACF83"/>
<path d="M10.8824 49.6078H11.9706V50.6863H10.8824V49.6078Z" fill="#0ACF83"/>
<path d="M11.9706 49.6078H13.0588V50.6863H11.9706V49.6078Z" fill="#0ACF83"/>
<path d="M13.0588 49.6078H14.1471V50.6863H13.0588V49.6078Z" fill="#0ACF83"/>
<path d="M14.1471 49.6078H15.2353V50.6863H14.1471V49.6078Z" fill="#0ACF83"/>
<path d="M15.2353 49.6078H16.3235V50.6863H15.2353V49.6078Z" fill="#0ACF83"/>
<path d="M16.3235 49.6078H17.4118V50.6863H16.3235V49.6078Z" fill="#0ACF83"/>
<path d="M2.17647 50.6863H3.26471V51.7647H2.17647V50.6863Z" fill="#0ACF83"/>
<path d="M3.26471 50.6863H4.35294V51.7647H3.26471V50.6863Z" fill="#0ACF83"/>
<path d="M4.35294 50.6863H5.44118V51.7647H4.35294V50.6863Z" fill="#0ACF83"/>
<path d="M5.44118 50.6863H6.52941V51.7647H5.44118V50.6863Z" fill="#0ACF83"/>
<path d="M6.52941 50.6863H7.61765V51.7647H6.52941V50.6863Z" fill="#0ACF83"/>
<path d="M7.61765 50.6863H8.70588V51.7647H7.61765V50.6863Z" fill="#0ACF83"/>
<path d="M8.70588 50.6863H9.79412V51.7647H8.70588V50.6863Z" fill="#0ACF83"/>
<path d="M9.79412 50.6863H10.8824V51.7647H9.79412V50.6863Z" fill="#0ACF83"/>
<path d="M10.8824 50.6863H11.9706V51.7647H10.8824V50.6863Z" fill="#0ACF83"/>
<path d="M11.9706 50.6863H13.0588V51.7647H11.9706V50.6863Z" fill="#0ACF83"/>
<path d="M13.0588 50.6863H14.1471V51.7647H13.0588V50.6863Z" fill="#0ACF83"/>
<path d="M14.1471 50.6863H15.2353V51.7647H14.1471V50.6863Z" fill="#0ACF83"/>
<path d="M15.2353 50.6863H16.3235V51.7647H15.2353V50.6863Z" fill="#0ACF83"/>
<path d="M16.3235 50.6863H17.4118V51.7647H16.3235V50.6863Z" fill="#0ACF83"/>
<path d="M3.26471 51.7647H4.35294V52.8431H3.26471V51.7647Z" fill="#0ACF83"/>
<path d="M4.35294 51.7647H5.44118V52.8431H4.35294V51.7647Z" fill="#0ACF83"/>
<path d="M5.44118 51.7647H6.52941V52.8431H5.44118V51.7647Z" fill="#0ACF83"/>
<path d="M6.52941 51.7647H7.61765V52.8431H6.52941V51.7647Z" fill="#0ACF83"/>
<path d="M7.61765 51.7647H8.70588V52.8431H7.61765V51.7647Z" fill="#0ACF83"/>
<path d="M8.70588 51.7647H9.79412V52.8431H8.70588V51.7647Z" fill="#0ACF83"/>
<path d="M9.79412 51.7647H10.8824V52.8431H9.79412V51.7647Z" fill="#0ACF83"/>
<path d="M10.8824 51.7647H11.9706V52.8431H10.8824V51.7647Z" fill="#0ACF83"/>
<path d="M11.9706 51.7647H13.0588V52.8431H11.9706V51.7647Z" fill="#0ACF83"/>
<path d="M13.0588 51.7647H14.1471V52.8431H13.0588V51.7647Z" fill="#0ACF83"/>
<path d="M14.1471 51.7647H15.2353V52.8431H14.1471V51.7647Z" fill="#0ACF83"/>
<path d="M15.2353 51.7647H16.3235V52.8431H15.2353V51.7647Z" fill="#0ACF83"/>
<path d="M4.35294 52.8431H5.44118V53.9216H4.35294V52.8431Z" fill="#0ACF83"/>
<path d="M5.44118 52.8431H6.52941V53.9216H5.44118V52.8431Z" fill="#0ACF83"/>
<path d="M6.52941 52.8431H7.61765V53.9216H6.52941V52.8431Z" fill="#0ACF83"/>
<path d="M7.61765 52.8431H8.70588V53.9216H7.61765V52.8431Z" fill="#0ACF83"/>
<path d="M8.70588 52.8431H9.79412V53.9216H8.70588V52.8431Z" fill="#0ACF83"/>
<path d="M9.79412 52.8431H10.8824V53.9216H9.79412V52.8431Z" fill="#0ACF83"/>
<path d="M10.8824 52.8431H11.9706V53.9216H10.8824V52.8431Z" fill="#0ACF83"/>
<path d="M11.9706 52.8431H13.0588V53.9216H11.9706V52.8431Z" fill="#0ACF83"/>
<path d="M13.0588 52.8431H14.1471V53.9216H13.0588V52.8431Z" fill="#0ACF83"/>
<path d="M14.1471 52.8431H15.2353V53.9216H14.1471V52.8431Z" fill="#0ACF83"/>
<path d="M6.52941 53.9216H7.61765V55H6.52941V53.9216Z" fill="#0ACF83"/>
<path d="M7.61765 53.9216H8.70588V55H7.61765V53.9216Z" fill="#0ACF83"/>
<path d="M8.70588 53.9216H9.79412V55H8.70588V53.9216Z" fill="#0ACF83"/>
<path d="M9.79412 53.9216H10.8824V55H9.79412V53.9216Z" fill="#0ACF83"/>
<path d="M10.8824 53.9216H11.9706V55H10.8824V53.9216Z" fill="#0ACF83"/>
<path d="M11.9706 53.9216H13.0588V55H11.9706V53.9216Z" fill="#0ACF83"/>
</svg>
