<svg width="55" height="55" viewBox="0 0 55 55" fill="none" xmlns="http://www.w3.org/2000/svg">
<path d="M25.1087 0H26.3043V1.19565H25.1087V0Z" fill="#F05033"/>
<path d="M26.3043 0H27.5V1.19565H26.3043V0Z" fill="#F05033"/>
<path d="M27.5 0H28.6957V1.19565H27.5V0Z" fill="#F05033"/>
<path d="M28.6957 0H29.8913V1.19565H28.6957V0Z" fill="#F05033"/>
<path d="M29.8913 0H31.087V1.19565H29.8913V0Z" fill="#F05033"/>
<path d="M23.913 1.19565H25.1087V2.3913H23.913V1.19565Z" fill="#F05033"/>
<path d="M25.1087 1.19565H26.3043V2.3913H25.1087V1.19565Z" fill="#F05033"/>
<path d="M26.3043 1.19565H27.5V2.3913H26.3043V1.19565Z" fill="#F05033"/>
<path d="M27.5 1.19565H28.6957V2.3913H27.5V1.19565Z" fill="#F05033"/>
<path d="M28.6957 1.19565H29.8913V2.3913H28.6957V1.19565Z" fill="#F05033"/>
<path d="M29.8913 1.19565H31.087V2.3913H29.8913V1.19565Z" fill="#F05033"/>
<path d="M31.087 1.19565H32.2826V2.3913H31.087V1.19565Z" fill="#F05033"/>
<path d="M22.7174 2.3913H23.913V3.58696H22.7174V2.3913Z" fill="#F05033"/>
<path d="M23.913 2.3913H25.1087V3.58696H23.913V2.3913Z" fill="#F05033"/>
<path d="M25.1087 2.3913H26.3043V3.58696H25.1087V2.3913Z" fill="#F05033"/>
<path d="M26.3043 2.3913H27.5V3.58696H26.3043V2.3913Z" fill="#F05033"/>
<path d="M27.5 2.3913H28.6957V3.58696H27.5V2.3913Z" fill="#F05033"/>
<path d="M28.6957 2.3913H29.8913V3.58696H28.6957V2.3913Z" fill="#F05033"/>
<path d="M29.8913 2.3913H31.087V3.58696H29.8913V2.3913Z" fill="#F05033"/>
<path d="M31.087 2.3913H32.2826V3.58696H31.087V2.3913Z" fill="#F05033"/>
<path d="M32.2826 2.3913H33.4783V3.58696H32.2826V2.3913Z" fill="#F05033"/>
<path d="M21.5217 3.58696H22.7174V4.78261H21.5217V3.58696Z" fill="#D9D9D9"/>
<path d="M22.7174 3.58696H23.913V4.78261H22.7174V3.58696Z" fill="#F05033"/>
<path d="M23.913 3.58696H25.1087V4.78261H23.913V3.58696Z" fill="#F05033"/>
<path d="M25.1087 3.58696H26.3043V4.78261H25.1087V3.58696Z" fill="#F05033"/>
<path d="M26.3043 3.58696H27.5V4.78261H26.3043V3.58696Z" fill="#F05033"/>
<path d="M27.5 3.58696H28.6957V4.78261H27.5V3.58696Z" fill="#F05033"/>
<path d="M28.6957 3.58696H29.8913V4.78261H28.6957V3.58696Z" fill="#F05033"/>
<path d="M29.8913 3.58696H31.087V4.78261H29.8913V3.58696Z" fill="#F05033"/>
<path d="M31.087 3.58696H32.2826V4.78261H31.087V3.58696Z" fill="#F05033"/>
<path d="M32.2826 3.58696H33.4783V4.78261H32.2826V3.58696Z" fill="#F05033"/>
<path d="M33.4783 3.58696H34.6739V4.78261H33.4783V3.58696Z" fill="#F05033"/>
<path d="M20.3261 4.78261H21.5217V5.97826H20.3261V4.78261Z" fill="#D9D9D9"/>
<path d="M21.5217 4.78261H22.7174V5.97826H21.5217V4.78261Z" fill="#D9D9D9"/>
<path d="M22.7174 4.78261H23.913V5.97826H22.7174V4.78261Z" fill="#D9D9D9"/>
<path d="M23.913 4.78261H25.1087V5.97826H23.913V4.78261Z" fill="#F05033"/>
<path d="M25.1087 4.78261H26.3043V5.97826H25.1087V4.78261Z" fill="#F05033"/>
<path d="M26.3043 4.78261H27.5V5.97826H26.3043V4.78261Z" fill="#F05033"/>
<path d="M27.5 4.78261H28.6957V5.97826H27.5V4.78261Z" fill="#F05033"/>
<path d="M28.6957 4.78261H29.8913V5.97826H28.6957V4.78261Z" fill="#F05033"/>
<path d="M29.8913 4.78261H31.087V5.97826H29.8913V4.78261Z" fill="#F05033"/>
<path d="M31.087 4.78261H32.2826V5.97826H31.087V4.78261Z" fill="#F05033"/>
<path d="M32.2826 4.78261H33.4783V5.97826H32.2826V4.78261Z" fill="#F05033"/>
<path d="M33.4783 4.78261H34.6739V5.97826H33.4783V4.78261Z" fill="#F05033"/>
<path d="M34.6739 4.78261H35.8696V5.97826H34.6739V4.78261Z" fill="#F05033"/>
<path d="M19.1304 5.97826H20.3261V7.17391H19.1304V5.97826Z" fill="#D9D9D9"/>
<path d="M20.3261 5.97826H21.5217V7.17391H20.3261V5.97826Z" fill="#D9D9D9"/>
<path d="M21.5217 5.97826H22.7174V7.17391H21.5217V5.97826Z" fill="#D9D9D9"/>
<path d="M22.7174 5.97826H23.913V7.17391H22.7174V5.97826Z" fill="#D9D9D9"/>
<path d="M23.913 5.97826H25.1087V7.17391H23.913V5.97826Z" fill="#D9D9D9"/>
<path d="M25.1087 5.97826H26.3043V7.17391H25.1087V5.97826Z" fill="#F05033"/>
<path d="M26.3043 5.97826H27.5V7.17391H26.3043V5.97826Z" fill="#F05033"/>
<path d="M27.5 5.97826H28.6957V7.17391H27.5V5.97826Z" fill="#F05033"/>
<path d="M28.6957 5.97826H29.8913V7.17391H28.6957V5.97826Z" fill="#F05033"/>
<path d="M29.8913 5.97826H31.087V7.17391H29.8913V5.97826Z" fill="#F05033"/>
<path d="M31.087 5.97826H32.2826V7.17391H31.087V5.97826Z" fill="#F05033"/>
<path d="M32.2826 5.97826H33.4783V7.17391H32.2826V5.97826Z" fill="#F05033"/>
<path d="M33.4783 5.97826H34.6739V7.17391H33.4783V5.97826Z" fill="#F05033"/>
<path d="M34.6739 5.97826H35.8696V7.17391H34.6739V5.97826Z" fill="#F05033"/>
<path d="M35.8696 5.97826H37.0652V7.17391H35.8696V5.97826Z" fill="#F05033"/>
<path d="M17.9348 7.17391H19.1304V8.36957H17.9348V7.17391Z" fill="#DDBFB9"/>
<path d="M19.1304 7.17391H20.3261V8.36957H19.1304V7.17391Z" fill="#D9D9D9"/>
<path d="M20.3261 7.17391H21.5217V8.36957H20.3261V7.17391Z" fill="#D9D9D9"/>
<path d="M21.5217 7.17391H22.7174V8.36957H21.5217V7.17391Z" fill="#D9D9D9"/>
<path d="M22.7174 7.17391H23.913V8.36957H22.7174V7.17391Z" fill="#D9D9D9"/>
<path d="M23.913 7.17391H25.1087V8.36957H23.913V7.17391Z" fill="#D9D9D9"/>
<path d="M25.1087 7.17391H26.3043V8.36957H25.1087V7.17391Z" fill="#D9D9D9"/>
<path d="M26.3043 7.17391H27.5V8.36957H26.3043V7.17391Z" fill="#F05033"/>
<path d="M27.5 7.17391H28.6957V8.36957H27.5V7.17391Z" fill="#F05033"/>
<path d="M28.6957 7.17391H29.8913V8.36957H28.6957V7.17391Z" fill="#F05033"/>
<path d="M29.8913 7.17391H31.087V8.36957H29.8913V7.17391Z" fill="#F05033"/>
<path d="M31.087 7.17391H32.2826V8.36957H31.087V7.17391Z" fill="#F05033"/>
<path d="M32.2826 7.17391H33.4783V8.36957H32.2826V7.17391Z" fill="#F05033"/>
<path d="M33.4783 7.17391H34.6739V8.36957H33.4783V7.17391Z" fill="#F05033"/>
<path d="M34.6739 7.17391H35.8696V8.36957H34.6739V7.17391Z" fill="#F05033"/>
<path d="M35.8696 7.17391H37.0652V8.36957H35.8696V7.17391Z" fill="#F05033"/>
<path d="M37.0652 7.17391H38.2609V8.36957H37.0652V7.17391Z" fill="#F05033"/>
<path d="M16.7391 8.36957H17.9348V9.56522H16.7391V8.36957Z" fill="#F05033"/>
<path d="M17.9348 8.36957H19.1304V9.56522H17.9348V8.36957Z" fill="#F05033"/>
<path d="M19.1304 8.36957H20.3261V9.56522H19.1304V8.36957Z" fill="#DCC8C4"/>
<path d="M20.3261 8.36957H21.5217V9.56522H20.3261V8.36957Z" fill="#D9D9D9"/>
<path d="M21.5217 8.36957H22.7174V9.56522H21.5217V8.36957Z" fill="#D9D9D9"/>
<path d="M22.7174 8.36957H23.913V9.56522H22.7174V8.36957Z" fill="#D9D9D9"/>
<path d="M23.913 8.36957H25.1087V9.56522H23.913V8.36957Z" fill="#D9D9D9"/>
<path d="M25.1087 8.36957H26.3043V9.56522H25.1087V8.36957Z" fill="#D9D9D9"/>
<path d="M26.3043 8.36957H27.5V9.56522H26.3043V8.36957Z" fill="#D9D9D9"/>
<path d="M27.5 8.36957H28.6957V9.56522H27.5V8.36957Z" fill="#D9D9D9"/>
<path d="M28.6957 8.36957H29.8913V9.56522H28.6957V8.36957Z" fill="#D9D9D9"/>
<path d="M29.8913 8.36957H31.087V9.56522H29.8913V8.36957Z" fill="#D9D9D9"/>
<path d="M31.087 8.36957H32.2826V9.56522H31.087V8.36957Z" fill="#F05033"/>
<path d="M32.2826 8.36957H33.4783V9.56522H32.2826V8.36957Z" fill="#F05033"/>
<path d="M33.4783 8.36957H34.6739V9.56522H33.4783V8.36957Z" fill="#F05033"/>
<path d="M34.6739 8.36957H35.8696V9.56522H34.6739V8.36957Z" fill="#F05033"/>
<path d="M35.8696 8.36957H37.0652V9.56522H35.8696V8.36957Z" fill="#F05033"/>
<path d="M37.0652 8.36957H38.2609V9.56522H37.0652V8.36957Z" fill="#F05033"/>
<path d="M38.2609 8.36957H39.4565V9.56522H38.2609V8.36957Z" fill="#F05033"/>
<path d="M15.5435 9.56522H16.7391V10.7609H15.5435V9.56522Z" fill="#F05033"/>
<path d="M16.7391 9.56522H17.9348V10.7609H16.7391V9.56522Z" fill="#F05033"/>
<path d="M17.9348 9.56522H19.1304V10.7609H17.9348V9.56522Z" fill="#F05033"/>
<path d="M19.1304 9.56522H20.3261V10.7609H19.1304V9.56522Z" fill="#F05033"/>
<path d="M20.3261 9.56522H21.5217V10.7609H20.3261V9.56522Z" fill="#DCC8C4"/>
<path d="M21.5217 9.56522H22.7174V10.7609H21.5217V9.56522Z" fill="#D9D9D9"/>
<path d="M22.7174 9.56522H23.913V10.7609H22.7174V9.56522Z" fill="#D9D9D9"/>
<path d="M23.913 9.56522H25.1087V10.7609H23.913V9.56522Z" fill="#D9D9D9"/>
<path d="M25.1087 9.56522H26.3043V10.7609H25.1087V9.56522Z" fill="#D9D9D9"/>
<path d="M26.3043 9.56522H27.5V10.7609H26.3043V9.56522Z" fill="#D9D9D9"/>
<path d="M27.5 9.56522H28.6957V10.7609H27.5V9.56522Z" fill="#D9D9D9"/>
<path d="M28.6957 9.56522H29.8913V10.7609H28.6957V9.56522Z" fill="#D9D9D9"/>
<path d="M29.8913 9.56522H31.087V10.7609H29.8913V9.56522Z" fill="#D9D9D9"/>
<path d="M31.087 9.56522H32.2826V10.7609H31.087V9.56522Z" fill="#D9D9D9"/>
<path d="M32.2826 9.56522H33.4783V10.7609H32.2826V9.56522Z" fill="#F05033"/>
<path d="M33.4783 9.56522H34.6739V10.7609H33.4783V9.56522Z" fill="#F05033"/>
<path d="M34.6739 9.56522H35.8696V10.7609H34.6739V9.56522Z" fill="#F05033"/>
<path d="M35.8696 9.56522H37.0652V10.7609H35.8696V9.56522Z" fill="#F05033"/>
<path d="M37.0652 9.56522H38.2609V10.7609H37.0652V9.56522Z" fill="#F05033"/>
<path d="M38.2609 9.56522H39.4565V10.7609H38.2609V9.56522Z" fill="#F05033"/>
<path d="M39.4565 9.56522H40.6522V10.7609H39.4565V9.56522Z" fill="#F05033"/>
<path d="M14.3478 10.7609H15.5435V11.9565H14.3478V10.7609Z" fill="#F05033"/>
<path d="M15.5435 10.7609H16.7391V11.9565H15.5435V10.7609Z" fill="#F05033"/>
<path d="M16.7391 10.7609H17.9348V11.9565H16.7391V10.7609Z" fill="#F05033"/>
<path d="M17.9348 10.7609H19.1304V11.9565H17.9348V10.7609Z" fill="#F05033"/>
<path d="M19.1304 10.7609H20.3261V11.9565H19.1304V10.7609Z" fill="#F05033"/>
<path d="M20.3261 10.7609H21.5217V11.9565H20.3261V10.7609Z" fill="#F05033"/>
<path d="M21.5217 10.7609H22.7174V11.9565H21.5217V10.7609Z" fill="#DAD1CE"/>
<path d="M22.7174 10.7609H23.913V11.9565H22.7174V10.7609Z" fill="#D9D9D9"/>
<path d="M23.913 10.7609H25.1087V11.9565H23.913V10.7609Z" fill="#D9D9D9"/>
<path d="M25.1087 10.7609H26.3043V11.9565H25.1087V10.7609Z" fill="#D9D9D9"/>
<path d="M26.3043 10.7609H27.5V11.9565H26.3043V10.7609Z" fill="#D9D9D9"/>
<path d="M27.5 10.7609H28.6957V11.9565H27.5V10.7609Z" fill="#D9D9D9"/>
<path d="M28.6957 10.7609H29.8913V11.9565H28.6957V10.7609Z" fill="#D9D9D9"/>
<path d="M29.8913 10.7609H31.087V11.9565H29.8913V10.7609Z" fill="#D9D9D9"/>
<path d="M31.087 10.7609H32.2826V11.9565H31.087V10.7609Z" fill="#D9D9D9"/>
<path d="M32.2826 10.7609H33.4783V11.9565H32.2826V10.7609Z" fill="#D9D9D9"/>
<path d="M33.4783 10.7609H34.6739V11.9565H33.4783V10.7609Z" fill="#F05033"/>
<path d="M34.6739 10.7609H35.8696V11.9565H34.6739V10.7609Z" fill="#F05033"/>
<path d="M35.8696 10.7609H37.0652V11.9565H35.8696V10.7609Z" fill="#F05033"/>
<path d="M37.0652 10.7609H38.2609V11.9565H37.0652V10.7609Z" fill="#F05033"/>
<path d="M38.2609 10.7609H39.4565V11.9565H38.2609V10.7609Z" fill="#F05033"/>
<path d="M39.4565 10.7609H40.6522V11.9565H39.4565V10.7609Z" fill="#F05033"/>
<path d="M40.6522 10.7609H41.8478V11.9565H40.6522V10.7609Z" fill="#F05033"/>
<path d="M13.1522 11.9565H14.3478V13.1522H13.1522V11.9565Z" fill="#F05033"/>
<path d="M14.3478 11.9565H15.5435V13.1522H14.3478V11.9565Z" fill="#F05033"/>
<path d="M15.5435 11.9565H16.7391V13.1522H15.5435V11.9565Z" fill="#F05033"/>
<path d="M16.7391 11.9565H17.9348V13.1522H16.7391V11.9565Z" fill="#F05033"/>
<path d="M17.9348 11.9565H19.1304V13.1522H17.9348V11.9565Z" fill="#F05033"/>
<path d="M19.1304 11.9565H20.3261V13.1522H19.1304V11.9565Z" fill="#F05033"/>
<path d="M20.3261 11.9565H21.5217V13.1522H20.3261V11.9565Z" fill="#F05033"/>
<path d="M21.5217 11.9565H22.7174V13.1522H21.5217V11.9565Z" fill="#F05033"/>
<path d="M22.7174 11.9565H23.913V13.1522H22.7174V11.9565Z" fill="#D9D9D9"/>
<path d="M23.913 11.9565H25.1087V13.1522H23.913V11.9565Z" fill="#D9D9D9"/>
<path d="M25.1087 11.9565H26.3043V13.1522H25.1087V11.9565Z" fill="#D9D9D9"/>
<path d="M26.3043 11.9565H27.5V13.1522H26.3043V11.9565Z" fill="#D9D9D9"/>
<path d="M27.5 11.9565H28.6957V13.1522H27.5V11.9565Z" fill="#D9D9D9"/>
<path d="M28.6957 11.9565H29.8913V13.1522H28.6957V11.9565Z" fill="#D9D9D9"/>
<path d="M29.8913 11.9565H31.087V13.1522H29.8913V11.9565Z" fill="#D9D9D9"/>
<path d="M31.087 11.9565H32.2826V13.1522H31.087V11.9565Z" fill="#D9D9D9"/>
<path d="M32.2826 11.9565H33.4783V13.1522H32.2826V11.9565Z" fill="#D9D9D9"/>
<path d="M33.4783 11.9565H34.6739V13.1522H33.4783V11.9565Z" fill="#F05033"/>
<path d="M34.6739 11.9565H35.8696V13.1522H34.6739V11.9565Z" fill="#F05033"/>
<path d="M35.8696 11.9565H37.0652V13.1522H35.8696V11.9565Z" fill="#F05033"/>
<path d="M37.0652 11.9565H38.2609V13.1522H37.0652V11.9565Z" fill="#F05033"/>
<path d="M38.2609 11.9565H39.4565V13.1522H38.2609V11.9565Z" fill="#F05033"/>
<path d="M39.4565 11.9565H40.6522V13.1522H39.4565V11.9565Z" fill="#F05033"/>
<path d="M40.6522 11.9565H41.8478V13.1522H40.6522V11.9565Z" fill="#F05033"/>
<path d="M41.8478 11.9565H43.0435V13.1522H41.8478V11.9565Z" fill="#F05033"/>
<path d="M11.9565 13.1522H13.1522V14.3478H11.9565V13.1522Z" fill="#F05033"/>
<path d="M13.1522 13.1522H14.3478V14.3478H13.1522V13.1522Z" fill="#F05033"/>
<path d="M14.3478 13.1522H15.5435V14.3478H14.3478V13.1522Z" fill="#F05033"/>
<path d="M15.5435 13.1522H16.7391V14.3478H15.5435V13.1522Z" fill="#F05033"/>
<path d="M16.7391 13.1522H17.9348V14.3478H16.7391V13.1522Z" fill="#F05033"/>
<path d="M17.9348 13.1522H19.1304V14.3478H17.9348V13.1522Z" fill="#F05033"/>
<path d="M19.1304 13.1522H20.3261V14.3478H19.1304V13.1522Z" fill="#F05033"/>
<path d="M20.3261 13.1522H21.5217V14.3478H20.3261V13.1522Z" fill="#F05033"/>
<path d="M21.5217 13.1522H22.7174V14.3478H21.5217V13.1522Z" fill="#F05033"/>
<path d="M22.7174 13.1522H23.913V14.3478H22.7174V13.1522Z" fill="#D9D9D9"/>
<path d="M23.913 13.1522H25.1087V14.3478H23.913V13.1522Z" fill="#D9D9D9"/>
<path d="M25.1087 13.1522H26.3043V14.3478H25.1087V13.1522Z" fill="#D9D9D9"/>
<path d="M26.3043 13.1522H27.5V14.3478H26.3043V13.1522Z" fill="#D9D9D9"/>
<path d="M27.5 13.1522H28.6957V14.3478H27.5V13.1522Z" fill="#D9D9D9"/>
<path d="M28.6957 13.1522H29.8913V14.3478H28.6957V13.1522Z" fill="#D9D9D9"/>
<path d="M29.8913 13.1522H31.087V14.3478H29.8913V13.1522Z" fill="#D9D9D9"/>
<path d="M31.087 13.1522H32.2826V14.3478H31.087V13.1522Z" fill="#D9D9D9"/>
<path d="M32.2826 13.1522H33.4783V14.3478H32.2826V13.1522Z" fill="#D9D9D9"/>
<path d="M33.4783 13.1522H34.6739V14.3478H33.4783V13.1522Z" fill="#F05033"/>
<path d="M34.6739 13.1522H35.8696V14.3478H34.6739V13.1522Z" fill="#F05033"/>
<path d="M35.8696 13.1522H37.0652V14.3478H35.8696V13.1522Z" fill="#F05033"/>
<path d="M37.0652 13.1522H38.2609V14.3478H37.0652V13.1522Z" fill="#F05033"/>
<path d="M38.2609 13.1522H39.4565V14.3478H38.2609V13.1522Z" fill="#F05033"/>
<path d="M39.4565 13.1522H40.6522V14.3478H39.4565V13.1522Z" fill="#F05033"/>
<path d="M40.6522 13.1522H41.8478V14.3478H40.6522V13.1522Z" fill="#F05033"/>
<path d="M41.8478 13.1522H43.0435V14.3478H41.8478V13.1522Z" fill="#F05033"/>
<path d="M43.0435 13.1522H44.2391V14.3478H43.0435V13.1522Z" fill="#F05033"/>
<path d="M10.7609 14.3478H11.9565V15.5435H10.7609V14.3478Z" fill="#F05033"/>
<path d="M11.9565 14.3478H13.1522V15.5435H11.9565V14.3478Z" fill="#F05033"/>
<path d="M13.1522 14.3478H14.3478V15.5435H13.1522V14.3478Z" fill="#F05033"/>
<path d="M14.3478 14.3478H15.5435V15.5435H14.3478V14.3478Z" fill="#F05033"/>
<path d="M15.5435 14.3478H16.7391V15.5435H15.5435V14.3478Z" fill="#F05033"/>
<path d="M16.7391 14.3478H17.9348V15.5435H16.7391V14.3478Z" fill="#F05033"/>
<path d="M17.9348 14.3478H19.1304V15.5435H17.9348V14.3478Z" fill="#F05033"/>
<path d="M19.1304 14.3478H20.3261V15.5435H19.1304V14.3478Z" fill="#F05033"/>
<path d="M20.3261 14.3478H21.5217V15.5435H20.3261V14.3478Z" fill="#F05033"/>
<path d="M21.5217 14.3478H22.7174V15.5435H21.5217V14.3478Z" fill="#F05033"/>
<path d="M22.7174 14.3478H23.913V15.5435H22.7174V14.3478Z" fill="#D9D9D9"/>
<path d="M23.913 14.3478H25.1087V15.5435H23.913V14.3478Z" fill="#D9D9D9"/>
<path d="M25.1087 14.3478H26.3043V15.5435H25.1087V14.3478Z" fill="#D9D9D9"/>
<path d="M26.3043 14.3478H27.5V15.5435H26.3043V14.3478Z" fill="#D9D9D9"/>
<path d="M27.5 14.3478H28.6957V15.5435H27.5V14.3478Z" fill="#D9D9D9"/>
<path d="M28.6957 14.3478H29.8913V15.5435H28.6957V14.3478Z" fill="#D9D9D9"/>
<path d="M29.8913 14.3478H31.087V15.5435H29.8913V14.3478Z" fill="#D9D9D9"/>
<path d="M31.087 14.3478H32.2826V15.5435H31.087V14.3478Z" fill="#D9D9D9"/>
<path d="M32.2826 14.3478H33.4783V15.5435H32.2826V14.3478Z" fill="#D9D9D9"/>
<path d="M33.4783 14.3478H34.6739V15.5435H33.4783V14.3478Z" fill="#F05033"/>
<path d="M34.6739 14.3478H35.8696V15.5435H34.6739V14.3478Z" fill="#F05033"/>
<path d="M35.8696 14.3478H37.0652V15.5435H35.8696V14.3478Z" fill="#F05033"/>
<path d="M37.0652 14.3478H38.2609V15.5435H37.0652V14.3478Z" fill="#F05033"/>
<path d="M38.2609 14.3478H39.4565V15.5435H38.2609V14.3478Z" fill="#F05033"/>
<path d="M39.4565 14.3478H40.6522V15.5435H39.4565V14.3478Z" fill="#F05033"/>
<path d="M40.6522 14.3478H41.8478V15.5435H40.6522V14.3478Z" fill="#F05033"/>
<path d="M41.8478 14.3478H43.0435V15.5435H41.8478V14.3478Z" fill="#F05033"/>
<path d="M43.0435 14.3478H44.2391V15.5435H43.0435V14.3478Z" fill="#F05033"/>
<path d="M44.2391 14.3478H45.4348V15.5435H44.2391V14.3478Z" fill="#F05033"/>
<path d="M9.56521 15.5435H10.7609V16.7391H9.56521V15.5435Z" fill="#F05033"/>
<path d="M10.7609 15.5435H11.9565V16.7391H10.7609V15.5435Z" fill="#F05033"/>
<path d="M11.9565 15.5435H13.1522V16.7391H11.9565V15.5435Z" fill="#F05033"/>
<path d="M13.1522 15.5435H14.3478V16.7391H13.1522V15.5435Z" fill="#F05033"/>
<path d="M14.3478 15.5435H15.5435V16.7391H14.3478V15.5435Z" fill="#F05033"/>
<path d="M15.5435 15.5435H16.7391V16.7391H15.5435V15.5435Z" fill="#F05033"/>
<path d="M16.7391 15.5435H17.9348V16.7391H16.7391V15.5435Z" fill="#F05033"/>
<path d="M17.9348 15.5435H19.1304V16.7391H17.9348V15.5435Z" fill="#F05033"/>
<path d="M19.1304 15.5435H20.3261V16.7391H19.1304V15.5435Z" fill="#F05033"/>
<path d="M20.3261 15.5435H21.5217V16.7391H20.3261V15.5435Z" fill="#F05033"/>
<path d="M21.5217 15.5435H22.7174V16.7391H21.5217V15.5435Z" fill="#F05033"/>
<path d="M22.7174 15.5435H23.913V16.7391H22.7174V15.5435Z" fill="#DFB6AF"/>
<path d="M23.913 15.5435H25.1087V16.7391H23.913V15.5435Z" fill="#D9D9D9"/>
<path d="M25.1087 15.5435H26.3043V16.7391H25.1087V15.5435Z" fill="#D9D9D9"/>
<path d="M26.3043 15.5435H27.5V16.7391H26.3043V15.5435Z" fill="#D9D9D9"/>
<path d="M27.5 15.5435H28.6957V16.7391H27.5V15.5435Z" fill="#D9D9D9"/>
<path d="M28.6957 15.5435H29.8913V16.7391H28.6957V15.5435Z" fill="#D9D9D9"/>
<path d="M29.8913 15.5435H31.087V16.7391H29.8913V15.5435Z" fill="#D9D9D9"/>
<path d="M31.087 15.5435H32.2826V16.7391H31.087V15.5435Z" fill="#D9D9D9"/>
<path d="M32.2826 15.5435H33.4783V16.7391H32.2826V15.5435Z" fill="#D9D9D9"/>
<path d="M33.4783 15.5435H34.6739V16.7391H33.4783V15.5435Z" fill="#D9D9D9"/>
<path d="M34.6739 15.5435H35.8696V16.7391H34.6739V15.5435Z" fill="#F05033"/>
<path d="M35.8696 15.5435H37.0652V16.7391H35.8696V15.5435Z" fill="#F05033"/>
<path d="M37.0652 15.5435H38.2609V16.7391H37.0652V15.5435Z" fill="#F05033"/>
<path d="M38.2609 15.5435H39.4565V16.7391H38.2609V15.5435Z" fill="#F05033"/>
<path d="M39.4565 15.5435H40.6522V16.7391H39.4565V15.5435Z" fill="#F05033"/>
<path d="M40.6522 15.5435H41.8478V16.7391H40.6522V15.5435Z" fill="#F05033"/>
<path d="M41.8478 15.5435H43.0435V16.7391H41.8478V15.5435Z" fill="#F05033"/>
<path d="M43.0435 15.5435H44.2391V16.7391H43.0435V15.5435Z" fill="#F05033"/>
<path d="M44.2391 15.5435H45.4348V16.7391H44.2391V15.5435Z" fill="#F05033"/>
<path d="M45.4348 15.5435H46.6304V16.7391H45.4348V15.5435Z" fill="#F05033"/>
<path d="M8.36956 16.7391H9.56521V17.9348H8.36956V16.7391Z" fill="#F05033"/>
<path d="M9.56521 16.7391H10.7609V17.9348H9.56521V16.7391Z" fill="#F05033"/>
<path d="M10.7609 16.7391H11.9565V17.9348H10.7609V16.7391Z" fill="#F05033"/>
<path d="M11.9565 16.7391H13.1522V17.9348H11.9565V16.7391Z" fill="#F05033"/>
<path d="M13.1522 16.7391H14.3478V17.9348H13.1522V16.7391Z" fill="#F05033"/>
<path d="M14.3478 16.7391H15.5435V17.9348H14.3478V16.7391Z" fill="#F05033"/>
<path d="M15.5435 16.7391H16.7391V17.9348H15.5435V16.7391Z" fill="#F05033"/>
<path d="M16.7391 16.7391H17.9348V17.9348H16.7391V16.7391Z" fill="#F05033"/>
<path d="M17.9348 16.7391H19.1304V17.9348H17.9348V16.7391Z" fill="#F05033"/>
<path d="M19.1304 16.7391H20.3261V17.9348H19.1304V16.7391Z" fill="#F05033"/>
<path d="M20.3261 16.7391H21.5217V17.9348H20.3261V16.7391Z" fill="#F05033"/>
<path d="M21.5217 16.7391H22.7174V17.9348H21.5217V16.7391Z" fill="#F05033"/>
<path d="M22.7174 16.7391H23.913V17.9348H22.7174V16.7391Z" fill="#F05033"/>
<path d="M23.913 16.7391H25.1087V17.9348H23.913V16.7391Z" fill="#D9D9D9"/>
<path d="M25.1087 16.7391H26.3043V17.9348H25.1087V16.7391Z" fill="#D9D9D9"/>
<path d="M26.3043 16.7391H27.5V17.9348H26.3043V16.7391Z" fill="#D9D9D9"/>
<path d="M27.5 16.7391H28.6957V17.9348H27.5V16.7391Z" fill="#D9D9D9"/>
<path d="M28.6957 16.7391H29.8913V17.9348H28.6957V16.7391Z" fill="#D9D9D9"/>
<path d="M29.8913 16.7391H31.087V17.9348H29.8913V16.7391Z" fill="#D9D9D9"/>
<path d="M31.087 16.7391H32.2826V17.9348H31.087V16.7391Z" fill="#D9D9D9"/>
<path d="M32.2826 16.7391H33.4783V17.9348H32.2826V16.7391Z" fill="#D9D9D9"/>
<path d="M33.4783 16.7391H34.6739V17.9348H33.4783V16.7391Z" fill="#D9D9D9"/>
<path d="M34.6739 16.7391H35.8696V17.9348H34.6739V16.7391Z" fill="#D9D9D9"/>
<path d="M35.8696 16.7391H37.0652V17.9348H35.8696V16.7391Z" fill="#F05033"/>
<path d="M37.0652 16.7391H38.2609V17.9348H37.0652V16.7391Z" fill="#F05033"/>
<path d="M38.2609 16.7391H39.4565V17.9348H38.2609V16.7391Z" fill="#F05033"/>
<path d="M39.4565 16.7391H40.6522V17.9348H39.4565V16.7391Z" fill="#F05033"/>
<path d="M40.6522 16.7391H41.8478V17.9348H40.6522V16.7391Z" fill="#F05033"/>
<path d="M41.8478 16.7391H43.0435V17.9348H41.8478V16.7391Z" fill="#F05033"/>
<path d="M43.0435 16.7391H44.2391V17.9348H43.0435V16.7391Z" fill="#F05033"/>
<path d="M44.2391 16.7391H45.4348V17.9348H44.2391V16.7391Z" fill="#F05033"/>
<path d="M45.4348 16.7391H46.6304V17.9348H45.4348V16.7391Z" fill="#F05033"/>
<path d="M46.6304 16.7391H47.8261V17.9348H46.6304V16.7391Z" fill="#F05033"/>
<path d="M7.17391 17.9348H8.36956V19.1304H7.17391V17.9348Z" fill="#F05033"/>
<path d="M8.36956 17.9348H9.56521V19.1304H8.36956V17.9348Z" fill="#F05033"/>
<path d="M9.56521 17.9348H10.7609V19.1304H9.56521V17.9348Z" fill="#F05033"/>
<path d="M10.7609 17.9348H11.9565V19.1304H10.7609V17.9348Z" fill="#F05033"/>
<path d="M11.9565 17.9348H13.1522V19.1304H11.9565V17.9348Z" fill="#F05033"/>
<path d="M13.1522 17.9348H14.3478V19.1304H13.1522V17.9348Z" fill="#F05033"/>
<path d="M14.3478 17.9348H15.5435V19.1304H14.3478V17.9348Z" fill="#F05033"/>
<path d="M15.5435 17.9348H16.7391V19.1304H15.5435V17.9348Z" fill="#F05033"/>
<path d="M16.7391 17.9348H17.9348V19.1304H16.7391V17.9348Z" fill="#F05033"/>
<path d="M17.9348 17.9348H19.1304V19.1304H17.9348V17.9348Z" fill="#F05033"/>
<path d="M19.1304 17.9348H20.3261V19.1304H19.1304V17.9348Z" fill="#F05033"/>
<path d="M20.3261 17.9348H21.5217V19.1304H20.3261V17.9348Z" fill="#F05033"/>
<path d="M21.5217 17.9348H22.7174V19.1304H21.5217V17.9348Z" fill="#F05033"/>
<path d="M22.7174 17.9348H23.913V19.1304H22.7174V17.9348Z" fill="#F05033"/>
<path d="M23.913 17.9348H25.1087V19.1304H23.913V17.9348Z" fill="#F05033"/>
<path d="M25.1087 17.9348H26.3043V19.1304H25.1087V17.9348Z" fill="#D9D9D9"/>
<path d="M26.3043 17.9348H27.5V19.1304H26.3043V17.9348Z" fill="#D9D9D9"/>
<path d="M27.5 17.9348H28.6957V19.1304H27.5V17.9348Z" fill="#D9D9D9"/>
<path d="M28.6957 17.9348H29.8913V19.1304H28.6957V17.9348Z" fill="#D9D9D9"/>
<path d="M29.8913 17.9348H31.087V19.1304H29.8913V17.9348Z" fill="#D9D9D9"/>
<path d="M31.087 17.9348H32.2826V19.1304H31.087V17.9348Z" fill="#D9D9D9"/>
<path d="M32.2826 17.9348H33.4783V19.1304H32.2826V17.9348Z" fill="#D9D9D9"/>
<path d="M33.4783 17.9348H34.6739V19.1304H33.4783V17.9348Z" fill="#D9D9D9"/>
<path d="M34.6739 17.9348H35.8696V19.1304H34.6739V17.9348Z" fill="#D9D9D9"/>
<path d="M35.8696 17.9348H37.0652V19.1304H35.8696V17.9348Z" fill="#D9D9D9"/>
<path d="M37.0652 17.9348H38.2609V19.1304H37.0652V17.9348Z" fill="#F05033"/>
<path d="M38.2609 17.9348H39.4565V19.1304H38.2609V17.9348Z" fill="#F05033"/>
<path d="M39.4565 17.9348H40.6522V19.1304H39.4565V17.9348Z" fill="#F05033"/>
<path d="M40.6522 17.9348H41.8478V19.1304H40.6522V17.9348Z" fill="#F05033"/>
<path d="M41.8478 17.9348H43.0435V19.1304H41.8478V17.9348Z" fill="#F05033"/>
<path d="M43.0435 17.9348H44.2391V19.1304H43.0435V17.9348Z" fill="#F05033"/>
<path d="M44.2391 17.9348H45.4348V19.1304H44.2391V17.9348Z" fill="#F05033"/>
<path d="M45.4348 17.9348H46.6304V19.1304H45.4348V17.9348Z" fill="#F05033"/>
<path d="M46.6304 17.9348H47.8261V19.1304H46.6304V17.9348Z" fill="#F05033"/>
<path d="M47.8261 17.9348H49.0217V19.1304H47.8261V17.9348Z" fill="#F05033"/>
<path d="M5.97826 19.1304H7.17391L7.17391 20.3261H5.97826V19.1304Z" fill="#F05033"/>
<path d="M7.17391 19.1304H8.36956V20.3261H7.17391L7.17391 19.1304Z" fill="#F05033"/>
<path d="M8.36956 19.1304H9.56521V20.3261H8.36956V19.1304Z" fill="#F05033"/>
<path d="M9.56521 19.1304H10.7609V20.3261H9.56521V19.1304Z" fill="#F05033"/>
<path d="M10.7609 19.1304H11.9565V20.3261H10.7609V19.1304Z" fill="#F05033"/>
<path d="M11.9565 19.1304H13.1522V20.3261H11.9565V19.1304Z" fill="#F05033"/>
<path d="M13.1522 19.1304H14.3478V20.3261H13.1522V19.1304Z" fill="#F05033"/>
<path d="M14.3478 19.1304H15.5435V20.3261H14.3478V19.1304Z" fill="#F05033"/>
<path d="M15.5435 19.1304H16.7391V20.3261H15.5435V19.1304Z" fill="#F05033"/>
<path d="M16.7391 19.1304H17.9348V20.3261H16.7391V19.1304Z" fill="#F05033"/>
<path d="M17.9348 19.1304H19.1304V20.3261H17.9348V19.1304Z" fill="#F05033"/>
<path d="M19.1304 19.1304H20.3261V20.3261H19.1304V19.1304Z" fill="#F05033"/>
<path d="M20.3261 19.1304H21.5217V20.3261H20.3261V19.1304Z" fill="#F05033"/>
<path d="M21.5217 19.1304H22.7174V20.3261H21.5217V19.1304Z" fill="#F05033"/>
<path d="M22.7174 19.1304H23.913V20.3261H22.7174V19.1304Z" fill="#F05033"/>
<path d="M23.913 19.1304H25.1087V20.3261H23.913V19.1304Z" fill="#F05033"/>
<path d="M25.1087 19.1304H26.3043V20.3261H25.1087V19.1304Z" fill="#D9D9D9"/>
<path d="M26.3043 19.1304H27.5V20.3261H26.3043V19.1304Z" fill="#D9D9D9"/>
<path d="M27.5 19.1304H28.6957V20.3261H27.5V19.1304Z" fill="#D9D9D9"/>
<path d="M28.6957 19.1304H29.8913V20.3261H28.6957V19.1304Z" fill="#D9D9D9"/>
<path d="M29.8913 19.1304H31.087V20.3261H29.8913V19.1304Z" fill="#D9D9D9"/>
<path d="M31.087 19.1304H32.2826V20.3261H31.087V19.1304Z" fill="#D9D9D9"/>
<path d="M32.2826 19.1304H33.4783V20.3261H32.2826V19.1304Z" fill="#D9D9D9"/>
<path d="M33.4783 19.1304H34.6739V20.3261H33.4783V19.1304Z" fill="#D9D9D9"/>
<path d="M34.6739 19.1304H35.8696V20.3261H34.6739V19.1304Z" fill="#D9D9D9"/>
<path d="M35.8696 19.1304H37.0652V20.3261H35.8696V19.1304Z" fill="#D9D9D9"/>
<path d="M37.0652 19.1304H38.2609V20.3261H37.0652V19.1304Z" fill="#D9D9D9"/>
<path d="M38.2609 19.1304H39.4565V20.3261H38.2609V19.1304Z" fill="#F05033"/>
<path d="M39.4565 19.1304H40.6522V20.3261H39.4565V19.1304Z" fill="#F05033"/>
<path d="M40.6522 19.1304H41.8478V20.3261H40.6522V19.1304Z" fill="#F05033"/>
<path d="M41.8478 19.1304H43.0435V20.3261H41.8478V19.1304Z" fill="#F05033"/>
<path d="M43.0435 19.1304H44.2391V20.3261H43.0435V19.1304Z" fill="#F05033"/>
<path d="M44.2391 19.1304H45.4348V20.3261H44.2391V19.1304Z" fill="#F05033"/>
<path d="M45.4348 19.1304H46.6304V20.3261H45.4348V19.1304Z" fill="#F05033"/>
<path d="M46.6304 19.1304H47.8261V20.3261H46.6304V19.1304Z" fill="#F05033"/>
<path d="M47.8261 19.1304H49.0217V20.3261H47.8261V19.1304Z" fill="#F05033"/>
<path d="M49.0217 19.1304H50.2174V20.3261H49.0217V19.1304Z" fill="#F05033"/>
<path d="M4.78261 20.3261H5.97826V21.5217H4.78261V20.3261Z" fill="#F05033"/>
<path d="M5.97826 20.3261H7.17391V21.5217H5.97826V20.3261Z" fill="#F05033"/>
<path d="M7.17391 20.3261H8.36956V21.5217H7.17391V20.3261Z" fill="#F05033"/>
<path d="M8.36956 20.3261H9.56521V21.5217H8.36956V20.3261Z" fill="#F05033"/>
<path d="M9.56521 20.3261H10.7609V21.5217H9.56521V20.3261Z" fill="#F05033"/>
<path d="M10.7609 20.3261H11.9565V21.5217H10.7609V20.3261Z" fill="#F05033"/>
<path d="M11.9565 20.3261H13.1522V21.5217H11.9565V20.3261Z" fill="#F05033"/>
<path d="M13.1522 20.3261H14.3478V21.5217H13.1522V20.3261Z" fill="#F05033"/>
<path d="M14.3478 20.3261H15.5435V21.5217H14.3478V20.3261Z" fill="#F05033"/>
<path d="M15.5435 20.3261H16.7391V21.5217H15.5435V20.3261Z" fill="#F05033"/>
<path d="M16.7391 20.3261H17.9348V21.5217H16.7391V20.3261Z" fill="#F05033"/>
<path d="M17.9348 20.3261H19.1304V21.5217H17.9348V20.3261Z" fill="#F05033"/>
<path d="M19.1304 20.3261H20.3261V21.5217H19.1304V20.3261Z" fill="#F05033"/>
<path d="M20.3261 20.3261H21.5217V21.5217H20.3261V20.3261Z" fill="#F05033"/>
<path d="M21.5217 20.3261H22.7174V21.5217H21.5217V20.3261Z" fill="#F05033"/>
<path d="M22.7174 20.3261H23.913V21.5217H22.7174V20.3261Z" fill="#F05033"/>
<path d="M23.913 20.3261H25.1087V21.5217H23.913V20.3261Z" fill="#F05033"/>
<path d="M25.1087 20.3261H26.3043V21.5217H25.1087V20.3261Z" fill="#D9D9D9"/>
<path d="M26.3043 20.3261H27.5V21.5217H26.3043V20.3261Z" fill="#D9D9D9"/>
<path d="M27.5 20.3261H28.6957V21.5217H27.5V20.3261Z" fill="#D9D9D9"/>
<path d="M28.6957 20.3261H29.8913V21.5217H28.6957V20.3261Z" fill="#D9D9D9"/>
<path d="M29.8913 20.3261H31.087V21.5217H29.8913V20.3261Z" fill="#D9D9D9"/>
<path d="M31.087 20.3261H32.2826V21.5217H31.087V20.3261Z" fill="#E49486"/>
<path d="M32.2826 20.3261H33.4783V21.5217H32.2826V20.3261Z" fill="#D9D9D9"/>
<path d="M33.4783 20.3261H34.6739V21.5217H33.4783V20.3261Z" fill="#D9D9D9"/>
<path d="M34.6739 20.3261H35.8696V21.5217H34.6739V20.3261Z" fill="#D9D9D9"/>
<path d="M35.8696 20.3261H37.0652V21.5217H35.8696V20.3261Z" fill="#D9D9D9"/>
<path d="M37.0652 20.3261H38.2609V21.5217H37.0652V20.3261Z" fill="#D9D9D9"/>
<path d="M38.2609 20.3261H39.4565V21.5217H38.2609V20.3261Z" fill="#D9D9D9"/>
<path d="M39.4565 20.3261H40.6522V21.5217H39.4565V20.3261Z" fill="#F05033"/>
<path d="M40.6522 20.3261H41.8478V21.5217H40.6522V20.3261Z" fill="#F05033"/>
<path d="M41.8478 20.3261H43.0435V21.5217H41.8478V20.3261Z" fill="#F05033"/>
<path d="M43.0435 20.3261H44.2391V21.5217H43.0435V20.3261Z" fill="#F05033"/>
<path d="M44.2391 20.3261H45.4348V21.5217H44.2391V20.3261Z" fill="#F05033"/>
<path d="M45.4348 20.3261H46.6304V21.5217H45.4348V20.3261Z" fill="#F05033"/>
<path d="M46.6304 20.3261H47.8261V21.5217H46.6304V20.3261Z" fill="#F05033"/>
<path d="M47.8261 20.3261H49.0217V21.5217H47.8261V20.3261Z" fill="#F05033"/>
<path d="M49.0217 20.3261H50.2174V21.5217H49.0217V20.3261Z" fill="#F05033"/>
<path d="M50.2174 20.3261H51.413V21.5217H50.2174V20.3261Z" fill="#F05033"/>
<path d="M3.58696 21.5217H4.78261V22.7174H3.58696V21.5217Z" fill="#F05033"/>
<path d="M4.78261 21.5217H5.97826V22.7174H4.78261V21.5217Z" fill="#F05033"/>
<path d="M5.97826 21.5217H7.17391V22.7174H5.97826V21.5217Z" fill="#F05033"/>
<path d="M7.17391 21.5217H8.36956V22.7174H7.17391V21.5217Z" fill="#F05033"/>
<path d="M8.36956 21.5217H9.56521V22.7174H8.36956V21.5217Z" fill="#F05033"/>
<path d="M9.56521 21.5217H10.7609V22.7174H9.56521V21.5217Z" fill="#F05033"/>
<path d="M10.7609 21.5217H11.9565V22.7174H10.7609V21.5217Z" fill="#F05033"/>
<path d="M11.9565 21.5217H13.1522V22.7174H11.9565V21.5217Z" fill="#F05033"/>
<path d="M13.1522 21.5217H14.3478V22.7174H13.1522V21.5217Z" fill="#F05033"/>
<path d="M14.3478 21.5217H15.5435V22.7174H14.3478V21.5217Z" fill="#F05033"/>
<path d="M15.5435 21.5217H16.7391V22.7174H15.5435V21.5217Z" fill="#F05033"/>
<path d="M16.7391 21.5217H17.9348V22.7174H16.7391V21.5217Z" fill="#F05033"/>
<path d="M17.9348 21.5217H19.1304V22.7174H17.9348V21.5217Z" fill="#F05033"/>
<path d="M19.1304 21.5217H20.3261V22.7174H19.1304V21.5217Z" fill="#F05033"/>
<path d="M20.3261 21.5217H21.5217V22.7174H20.3261V21.5217Z" fill="#F05033"/>
<path d="M21.5217 21.5217H22.7174V22.7174H21.5217V21.5217Z" fill="#F05033"/>
<path d="M22.7174 21.5217H23.913V22.7174H22.7174V21.5217Z" fill="#F05033"/>
<path d="M23.913 21.5217H25.1087V22.7174H23.913V21.5217Z" fill="#F05033"/>
<path d="M25.1087 21.5217H26.3043V22.7174H25.1087V21.5217Z" fill="#D9D9D9"/>
<path d="M26.3043 21.5217H27.5V22.7174H26.3043V21.5217Z" fill="#D9D9D9"/>
<path d="M27.5 21.5217H28.6957V22.7174H27.5V21.5217Z" fill="#D9D9D9"/>
<path d="M28.6957 21.5217H29.8913V22.7174H28.6957V21.5217Z" fill="#D9D9D9"/>
<path d="M29.8913 21.5217H31.087V22.7174H29.8913V21.5217Z" fill="#D9D9D9"/>
<path d="M31.087 21.5217H32.2826V22.7174H31.087V21.5217Z" fill="#F05033"/>
<path d="M32.2826 21.5217H33.4783V22.7174H32.2826V21.5217Z" fill="#E2A69A"/>
<path d="M33.4783 21.5217H34.6739V22.7174H33.4783V21.5217Z" fill="#D9D9D9"/>
<path d="M34.6739 21.5217H35.8696V22.7174H34.6739V21.5217Z" fill="#D9D9D9"/>
<path d="M35.8696 21.5217H37.0652V22.7174H35.8696V21.5217Z" fill="#D9D9D9"/>
<path d="M37.0652 21.5217H38.2609V22.7174H37.0652V21.5217Z" fill="#D9D9D9"/>
<path d="M38.2609 21.5217H39.4565V22.7174H38.2609V21.5217Z" fill="#D9D9D9"/>
<path d="M39.4565 21.5217H40.6522V22.7174H39.4565V21.5217Z" fill="#D9D9D9"/>
<path d="M40.6522 21.5217H41.8478V22.7174H40.6522V21.5217Z" fill="#D9D9D9"/>
<path d="M41.8478 21.5217H43.0435V22.7174H41.8478V21.5217Z" fill="#D9D9D9"/>
<path d="M43.0435 21.5217H44.2391V22.7174H43.0435V21.5217Z" fill="#D9D9D9"/>
<path d="M44.2391 21.5217H45.4348V22.7174H44.2391V21.5217Z" fill="#F05033"/>
<path d="M45.4348 21.5217H46.6304V22.7174H45.4348V21.5217Z" fill="#F05033"/>
<path d="M46.6304 21.5217H47.8261V22.7174H46.6304V21.5217Z" fill="#F05033"/>
<path d="M47.8261 21.5217H49.0217V22.7174H47.8261V21.5217Z" fill="#F05033"/>
<path d="M49.0217 21.5217H50.2174V22.7174H49.0217V21.5217Z" fill="#F05033"/>
<path d="M50.2174 21.5217H51.413V22.7174H50.2174V21.5217Z" fill="#F05033"/>
<path d="M51.413 21.5217H52.6087V22.7174H51.413V21.5217Z" fill="#F05033"/>
<path d="M2.3913 22.7174H3.58696V23.913H2.3913V22.7174Z" fill="#F05033"/>
<path d="M3.58696 22.7174H4.78261V23.913H3.58696V22.7174Z" fill="#F05033"/>
<path d="M4.78261 22.7174H5.97826V23.913H4.78261V22.7174Z" fill="#F05033"/>
<path d="M5.97826 22.7174H7.17391V23.913H5.97826V22.7174Z" fill="#F05033"/>
<path d="M7.17391 22.7174H8.36956V23.913H7.17391V22.7174Z" fill="#F05033"/>
<path d="M8.36956 22.7174H9.56521V23.913H8.36956V22.7174Z" fill="#F05033"/>
<path d="M9.56521 22.7174H10.7609V23.913H9.56521V22.7174Z" fill="#F05033"/>
<path d="M10.7609 22.7174H11.9565V23.913H10.7609V22.7174Z" fill="#F05033"/>
<path d="M11.9565 22.7174H13.1522V23.913H11.9565V22.7174Z" fill="#F05033"/>
<path d="M13.1522 22.7174H14.3478V23.913H13.1522V22.7174Z" fill="#F05033"/>
<path d="M14.3478 22.7174H15.5435V23.913H14.3478V22.7174Z" fill="#F05033"/>
<path d="M15.5435 22.7174H16.7391V23.913H15.5435V22.7174Z" fill="#F05033"/>
<path d="M16.7391 22.7174H17.9348V23.913H16.7391V22.7174Z" fill="#F05033"/>
<path d="M17.9348 22.7174H19.1304V23.913H17.9348V22.7174Z" fill="#F05033"/>
<path d="M19.1304 22.7174H20.3261V23.913H19.1304V22.7174Z" fill="#F05033"/>
<path d="M20.3261 22.7174H21.5217V23.913H20.3261V22.7174Z" fill="#F05033"/>
<path d="M21.5217 22.7174H22.7174V23.913H21.5217V22.7174Z" fill="#F05033"/>
<path d="M22.7174 22.7174H23.913V23.913H22.7174V22.7174Z" fill="#F05033"/>
<path d="M23.913 22.7174H25.1087V23.913H23.913V22.7174Z" fill="#F05033"/>
<path d="M25.1087 22.7174H26.3043V23.913H25.1087V22.7174Z" fill="#D9D9D9"/>
<path d="M26.3043 22.7174H27.5V23.913H26.3043V22.7174Z" fill="#D9D9D9"/>
<path d="M27.5 22.7174H28.6957V23.913H27.5V22.7174Z" fill="#D9D9D9"/>
<path d="M28.6957 22.7174H29.8913V23.913H28.6957V22.7174Z" fill="#D9D9D9"/>
<path d="M29.8913 22.7174H31.087V23.913H29.8913V22.7174Z" fill="#D9D9D9"/>
<path d="M31.087 22.7174H32.2826V23.913H31.087V22.7174Z" fill="#F05033"/>
<path d="M32.2826 22.7174H33.4783V23.913H32.2826V22.7174Z" fill="#F05033"/>
<path d="M33.4783 22.7174H34.6739V23.913H33.4783V22.7174Z" fill="#DDBFB9"/>
<path d="M34.6739 22.7174H35.8696V23.913H34.6739V22.7174Z" fill="#D9D9D9"/>
<path d="M35.8696 22.7174H37.0652V23.913H35.8696V22.7174Z" fill="#D9D9D9"/>
<path d="M37.0652 22.7174H38.2609V23.913H37.0652V22.7174Z" fill="#D9D9D9"/>
<path d="M38.2609 22.7174H39.4565V23.913H38.2609V22.7174Z" fill="#D9D9D9"/>
<path d="M39.4565 22.7174H40.6522V23.913H39.4565V22.7174Z" fill="#D9D9D9"/>
<path d="M40.6522 22.7174H41.8478V23.913H40.6522V22.7174Z" fill="#D9D9D9"/>
<path d="M41.8478 22.7174H43.0435V23.913H41.8478V22.7174Z" fill="#D9D9D9"/>
<path d="M43.0435 22.7174H44.2391V23.913H43.0435V22.7174Z" fill="#D9D9D9"/>
<path d="M44.2391 22.7174H45.4348V23.913H44.2391V22.7174Z" fill="#D9D9D9"/>
<path d="M45.4348 22.7174H46.6304V23.913H45.4348V22.7174Z" fill="#F05033"/>
<path d="M46.6304 22.7174H47.8261V23.913H46.6304V22.7174Z" fill="#F05033"/>
<path d="M47.8261 22.7174H49.0217V23.913H47.8261V22.7174Z" fill="#F05033"/>
<path d="M49.0217 22.7174H50.2174V23.913H49.0217V22.7174Z" fill="#F05033"/>
<path d="M50.2174 22.7174H51.413V23.913H50.2174V22.7174Z" fill="#F05033"/>
<path d="M51.413 22.7174H52.6087V23.913H51.413V22.7174Z" fill="#F05033"/>
<path d="M52.6087 22.7174H53.8043V23.913H52.6087V22.7174Z" fill="#F05033"/>
<path d="M1.19565 23.913H2.3913V25.1087H1.19565V23.913Z" fill="#F05033"/>
<path d="M2.3913 23.913H3.58696V25.1087H2.3913V23.913Z" fill="#F05033"/>
<path d="M3.58696 23.913H4.78261V25.1087H3.58696V23.913Z" fill="#F05033"/>
<path d="M4.78261 23.913H5.97826V25.1087H4.78261V23.913Z" fill="#F05033"/>
<path d="M5.97826 23.913H7.17391V25.1087H5.97826V23.913Z" fill="#F05033"/>
<path d="M7.17391 23.913H8.36956V25.1087H7.17391V23.913Z" fill="#F05033"/>
<path d="M8.36956 23.913H9.56521V25.1087H8.36956V23.913Z" fill="#F05033"/>
<path d="M9.56521 23.913H10.7609V25.1087H9.56521V23.913Z" fill="#F05033"/>
<path d="M10.7609 23.913H11.9565V25.1087H10.7609V23.913Z" fill="#F05033"/>
<path d="M11.9565 23.913H13.1522V25.1087H11.9565V23.913Z" fill="#F05033"/>
<path d="M13.1522 23.913H14.3478V25.1087H13.1522V23.913Z" fill="#F05033"/>
<path d="M14.3478 23.913H15.5435V25.1087H14.3478V23.913Z" fill="#F05033"/>
<path d="M15.5435 23.913H16.7391V25.1087H15.5435V23.913Z" fill="#F05033"/>
<path d="M16.7391 23.913H17.9348V25.1087H16.7391V23.913Z" fill="#F05033"/>
<path d="M17.9348 23.913H19.1304V25.1087H17.9348V23.913Z" fill="#F05033"/>
<path d="M19.1304 23.913H20.3261V25.1087H19.1304V23.913Z" fill="#F05033"/>
<path d="M20.3261 23.913H21.5217V25.1087H20.3261V23.913Z" fill="#F05033"/>
<path d="M21.5217 23.913H22.7174V25.1087H21.5217V23.913Z" fill="#F05033"/>
<path d="M22.7174 23.913H23.913V25.1087H22.7174V23.913Z" fill="#F05033"/>
<path d="M23.913 23.913H25.1087V25.1087H23.913V23.913Z" fill="#F05033"/>
<path d="M25.1087 23.913H26.3043V25.1087H25.1087V23.913Z" fill="#D9D9D9"/>
<path d="M26.3043 23.913H27.5V25.1087H26.3043V23.913Z" fill="#D9D9D9"/>
<path d="M27.5 23.913H28.6957V25.1087H27.5V23.913Z" fill="#D9D9D9"/>
<path d="M28.6957 23.913H29.8913V25.1087H28.6957V23.913Z" fill="#D9D9D9"/>
<path d="M29.8913 23.913H31.087V25.1087H29.8913V23.913Z" fill="#D9D9D9"/>
<path d="M31.087 23.913H32.2826V25.1087H31.087V23.913Z" fill="#F05033"/>
<path d="M32.2826 23.913H33.4783V25.1087H32.2826V23.913Z" fill="#F05033"/>
<path d="M33.4783 23.913H34.6739V25.1087H33.4783V23.913Z" fill="#F05033"/>
<path d="M34.6739 23.913H35.8696V25.1087H34.6739V23.913Z" fill="#DCC8C4"/>
<path d="M35.8696 23.913H37.0652V25.1087H35.8696V23.913Z" fill="#D9D9D9"/>
<path d="M37.0652 23.913H38.2609V25.1087H37.0652V23.913Z" fill="#D9D9D9"/>
<path d="M38.2609 23.913H39.4565V25.1087H38.2609V23.913Z" fill="#D9D9D9"/>
<path d="M39.4565 23.913H40.6522V25.1087H39.4565V23.913Z" fill="#D9D9D9"/>
<path d="M40.6522 23.913H41.8478V25.1087H40.6522V23.913Z" fill="#D9D9D9"/>
<path d="M41.8478 23.913H43.0435V25.1087H41.8478V23.913Z" fill="#D9D9D9"/>
<path d="M43.0435 23.913H44.2391V25.1087H43.0435V23.913Z" fill="#D9D9D9"/>
<path d="M44.2391 23.913H45.4348V25.1087H44.2391V23.913Z" fill="#D9D9D9"/>
<path d="M45.4348 23.913H46.6304V25.1087H45.4348V23.913Z" fill="#D9D9D9"/>
<path d="M46.6304 23.913H47.8261V25.1087H46.6304V23.913Z" fill="#F05033"/>
<path d="M47.8261 23.913H49.0217V25.1087H47.8261V23.913Z" fill="#F05033"/>
<path d="M49.0217 23.913H50.2174V25.1087H49.0217V23.913Z" fill="#F05033"/>
<path d="M50.2174 23.913H51.413V25.1087H50.2174V23.913Z" fill="#F05033"/>
<path d="M51.413 23.913H52.6087V25.1087H51.413V23.913Z" fill="#F05033"/>
<path d="M52.6087 23.913H53.8043V25.1087H52.6087V23.913Z" fill="#F05033"/>
<path d="M53.8043 23.913H55V25.1087H53.8043V23.913Z" fill="#F05033"/>
<path d="M1.19565 25.1087H2.3913V26.3043H1.19565V25.1087Z" fill="#F05033"/>
<path d="M2.3913 25.1087H3.58696V26.3043H2.3913V25.1087Z" fill="#F05033"/>
<path d="M3.58696 25.1087H4.78261V26.3043H3.58696V25.1087Z" fill="#F05033"/>
<path d="M4.78261 25.1087H5.97826V26.3043H4.78261V25.1087Z" fill="#F05033"/>
<path d="M5.97826 25.1087H7.17391V26.3043H5.97826V25.1087Z" fill="#F05033"/>
<path d="M7.17391 25.1087H8.36956V26.3043H7.17391V25.1087Z" fill="#F05033"/>
<path d="M8.36956 25.1087H9.56521V26.3043H8.36956V25.1087Z" fill="#F05033"/>
<path d="M9.56521 25.1087H10.7609V26.3043H9.56521V25.1087Z" fill="#F05033"/>
<path d="M10.7609 25.1087H11.9565V26.3043H10.7609V25.1087Z" fill="#F05033"/>
<path d="M11.9565 25.1087H13.1522V26.3043H11.9565V25.1087Z" fill="#F05033"/>
<path d="M13.1522 25.1087H14.3478V26.3043H13.1522V25.1087Z" fill="#F05033"/>
<path d="M14.3478 25.1087H15.5435V26.3043H14.3478V25.1087Z" fill="#F05033"/>
<path d="M15.5435 25.1087H16.7391V26.3043H15.5435V25.1087Z" fill="#F05033"/>
<path d="M16.7391 25.1087H17.9348V26.3043H16.7391V25.1087Z" fill="#F05033"/>
<path d="M17.9348 25.1087H19.1304V26.3043H17.9348V25.1087Z" fill="#F05033"/>
<path d="M19.1304 25.1087H20.3261V26.3043H19.1304V25.1087Z" fill="#F05033"/>
<path d="M20.3261 25.1087H21.5217V26.3043H20.3261V25.1087Z" fill="#F05033"/>
<path d="M21.5217 25.1087H22.7174V26.3043H21.5217V25.1087Z" fill="#F05033"/>
<path d="M22.7174 25.1087H23.913V26.3043H22.7174V25.1087Z" fill="#F05033"/>
<path d="M23.913 25.1087H25.1087V26.3043H23.913V25.1087Z" fill="#F05033"/>
<path d="M25.1087 25.1087H26.3043V26.3043H25.1087V25.1087Z" fill="#D9D9D9"/>
<path d="M26.3043 25.1087H27.5V26.3043H26.3043V25.1087Z" fill="#D9D9D9"/>
<path d="M27.5 25.1087H28.6957V26.3043H27.5V25.1087Z" fill="#D9D9D9"/>
<path d="M28.6957 25.1087H29.8913V26.3043H28.6957V25.1087Z" fill="#D9D9D9"/>
<path d="M29.8913 25.1087H31.087V26.3043H29.8913V25.1087Z" fill="#D9D9D9"/>
<path d="M31.087 25.1087H32.2826V26.3043H31.087V25.1087Z" fill="#F05033"/>
<path d="M32.2826 25.1087H33.4783V26.3043H32.2826V25.1087Z" fill="#F05033"/>
<path d="M33.4783 25.1087H34.6739V26.3043H33.4783V25.1087Z" fill="#F05033"/>
<path d="M34.6739 25.1087H35.8696V26.3043H34.6739V25.1087Z" fill="#F05033"/>
<path d="M35.8696 25.1087H37.0652V26.3043H35.8696V25.1087Z" fill="#DAD1CE"/>
<path d="M37.0652 25.1087H38.2609V26.3043H37.0652V25.1087Z" fill="#D9D9D9"/>
<path d="M38.2609 25.1087H39.4565V26.3043H38.2609V25.1087Z" fill="#D9D9D9"/>
<path d="M39.4565 25.1087H40.6522V26.3043H39.4565V25.1087Z" fill="#D9D9D9"/>
<path d="M40.6522 25.1087H41.8478V26.3043H40.6522V25.1087Z" fill="#D9D9D9"/>
<path d="M41.8478 25.1087H43.0435V26.3043H41.8478V25.1087Z" fill="#D9D9D9"/>
<path d="M43.0435 25.1087H44.2391V26.3043H43.0435V25.1087Z" fill="#D9D9D9"/>
<path d="M44.2391 25.1087H45.4348V26.3043H44.2391V25.1087Z" fill="#D9D9D9"/>
<path d="M45.4348 25.1087H46.6304V26.3043H45.4348V25.1087Z" fill="#D9D9D9"/>
<path d="M46.6304 25.1087H47.8261V26.3043H46.6304V25.1087Z" fill="#F05033"/>
<path d="M47.8261 25.1087H49.0217V26.3043H47.8261V25.1087Z" fill="#F05033"/>
<path d="M49.0217 25.1087H50.2174V26.3043H49.0217V25.1087Z" fill="#F05033"/>
<path d="M50.2174 25.1087H51.413V26.3043H50.2174V25.1087Z" fill="#F05033"/>
<path d="M51.413 25.1087H52.6087V26.3043H51.413V25.1087Z" fill="#F05033"/>
<path d="M52.6087 25.1087H53.8043V26.3043H52.6087V25.1087Z" fill="#F05033"/>
<path d="M53.8043 25.1087H55V26.3043H53.8043V25.1087Z" fill="#F05033"/>
<path d="M0 26.3043H1.19565V27.5H0V26.3043Z" fill="#EF5034"/>
<path d="M1.19565 26.3043H2.3913V27.5H1.19565V26.3043Z" fill="#F05033"/>
<path d="M2.3913 26.3043H3.58696V27.5H2.3913V26.3043Z" fill="#F05033"/>
<path d="M3.58696 26.3043H4.78261V27.5H3.58696V26.3043Z" fill="#F05033"/>
<path d="M4.78261 26.3043H5.97826V27.5H4.78261V26.3043Z" fill="#F05033"/>
<path d="M5.97826 26.3043H7.17391V27.5H5.97826V26.3043Z" fill="#F05033"/>
<path d="M7.17391 26.3043H8.36956V27.5H7.17391V26.3043Z" fill="#F05033"/>
<path d="M8.36956 26.3043H9.56521V27.5H8.36956V26.3043Z" fill="#F05033"/>
<path d="M9.56521 26.3043H10.7609V27.5H9.56521V26.3043Z" fill="#F05033"/>
<path d="M10.7609 26.3043H11.9565V27.5H10.7609V26.3043Z" fill="#F05033"/>
<path d="M11.9565 26.3043H13.1522V27.5H11.9565V26.3043Z" fill="#F05033"/>
<path d="M13.1522 26.3043H14.3478V27.5H13.1522V26.3043Z" fill="#F05033"/>
<path d="M14.3478 26.3043H15.5435V27.5H14.3478V26.3043Z" fill="#F05033"/>
<path d="M15.5435 26.3043H16.7391V27.5H15.5435V26.3043Z" fill="#F05033"/>
<path d="M16.7391 26.3043H17.9348V27.5H16.7391V26.3043Z" fill="#F05033"/>
<path d="M17.9348 26.3043H19.1304V27.5H17.9348V26.3043Z" fill="#F05033"/>
<path d="M19.1304 26.3043H20.3261V27.5H19.1304V26.3043Z" fill="#F05033"/>
<path d="M20.3261 26.3043H21.5217V27.5H20.3261V26.3043Z" fill="#F05033"/>
<path d="M21.5217 26.3043H22.7174V27.5H21.5217V26.3043Z" fill="#F05033"/>
<path d="M22.7174 26.3043H23.913V27.5H22.7174V26.3043Z" fill="#F05033"/>
<path d="M23.913 26.3043H25.1087V27.5H23.913V26.3043Z" fill="#F05033"/>
<path d="M25.1087 26.3043H26.3043V27.5H25.1087V26.3043Z" fill="#D9D9D9"/>
<path d="M26.3043 26.3043H27.5V27.5H26.3043V26.3043Z" fill="#D9D9D9"/>
<path d="M27.5 26.3043H28.6957V27.5H27.5V26.3043Z" fill="#D9D9D9"/>
<path d="M28.6957 26.3043H29.8913V27.5H28.6957V26.3043Z" fill="#D9D9D9"/>
<path d="M29.8913 26.3043H31.087V27.5H29.8913V26.3043Z" fill="#D9D9D9"/>
<path d="M31.087 26.3043H32.2826V27.5H31.087V26.3043Z" fill="#F05033"/>
<path d="M32.2826 26.3043H33.4783V27.5H32.2826V26.3043Z" fill="#F05033"/>
<path d="M33.4783 26.3043H34.6739V27.5H33.4783V26.3043Z" fill="#F05033"/>
<path d="M34.6739 26.3043H35.8696V27.5H34.6739V26.3043Z" fill="#F05033"/>
<path d="M35.8696 26.3043H37.0652V27.5H35.8696V26.3043Z" fill="#D9D9D9"/>
<path d="M37.0652 26.3043H38.2609V27.5H37.0652V26.3043Z" fill="#D9D9D9"/>
<path d="M38.2609 26.3043H39.4565V27.5H38.2609V26.3043Z" fill="#D9D9D9"/>
<path d="M39.4565 26.3043H40.6522V27.5H39.4565V26.3043Z" fill="#D9D9D9"/>
<path d="M40.6522 26.3043H41.8478V27.5H40.6522V26.3043Z" fill="#D9D9D9"/>
<path d="M41.8478 26.3043H43.0435V27.5H41.8478V26.3043Z" fill="#D9D9D9"/>
<path d="M43.0435 26.3043H44.2391V27.5H43.0435V26.3043Z" fill="#D9D9D9"/>
<path d="M44.2391 26.3043H45.4348V27.5H44.2391V26.3043Z" fill="#D9D9D9"/>
<path d="M45.4348 26.3043H46.6304V27.5H45.4348V26.3043Z" fill="#D9D9D9"/>
<path d="M46.6304 26.3043H47.8261V27.5H46.6304V26.3043Z" fill="#D9D9D9"/>
<path d="M47.8261 26.3043H49.0217V27.5H47.8261V26.3043Z" fill="#F05033"/>
<path d="M49.0217 26.3043H50.2174V27.5H49.0217V26.3043Z" fill="#F05033"/>
<path d="M50.2174 26.3043H51.413V27.5H50.2174V26.3043Z" fill="#F05033"/>
<path d="M51.413 26.3043H52.6087V27.5H51.413V26.3043Z" fill="#F05033"/>
<path d="M52.6087 26.3043H53.8043V27.5H52.6087V26.3043Z" fill="#F05033"/>
<path d="M53.8043 26.3043H55V27.5H53.8043V26.3043Z" fill="#F05033"/>
<path d="M1.19565 27.5H2.3913V28.6957H1.19565V27.5Z" fill="#F05033"/>
<path d="M2.3913 27.5H3.58696V28.6957H2.3913V27.5Z" fill="#F05033"/>
<path d="M3.58696 27.5H4.78261V28.6957H3.58696V27.5Z" fill="#F05033"/>
<path d="M4.78261 27.5H5.97826V28.6957H4.78261V27.5Z" fill="#F05033"/>
<path d="M5.97826 27.5H7.17391V28.6957H5.97826V27.5Z" fill="#F05033"/>
<path d="M7.17391 27.5H8.36956V28.6957H7.17391V27.5Z" fill="#F05033"/>
<path d="M8.36956 27.5H9.56521V28.6957H8.36956V27.5Z" fill="#F05033"/>
<path d="M9.56521 27.5H10.7609V28.6957H9.56521V27.5Z" fill="#F05033"/>
<path d="M10.7609 27.5H11.9565V28.6957H10.7609V27.5Z" fill="#F05033"/>
<path d="M11.9565 27.5H13.1522V28.6957H11.9565V27.5Z" fill="#F05033"/>
<path d="M13.1522 27.5H14.3478V28.6957H13.1522V27.5Z" fill="#F05033"/>
<path d="M14.3478 27.5H15.5435V28.6957H14.3478V27.5Z" fill="#F05033"/>
<path d="M15.5435 27.5H16.7391V28.6957H15.5435V27.5Z" fill="#F05033"/>
<path d="M16.7391 27.5H17.9348V28.6957H16.7391V27.5Z" fill="#F05033"/>
<path d="M17.9348 27.5H19.1304V28.6957H17.9348V27.5Z" fill="#F05033"/>
<path d="M19.1304 27.5H20.3261V28.6957H19.1304V27.5Z" fill="#F05033"/>
<path d="M20.3261 27.5H21.5217V28.6957H20.3261V27.5Z" fill="#F05033"/>
<path d="M21.5217 27.5H22.7174V28.6957H21.5217V27.5Z" fill="#F05033"/>
<path d="M22.7174 27.5H23.913V28.6957H22.7174V27.5Z" fill="#F05033"/>
<path d="M23.913 27.5H25.1087V28.6957H23.913V27.5Z" fill="#F05033"/>
<path d="M25.1087 27.5H26.3043V28.6957H25.1087V27.5Z" fill="#D9D9D9"/>
<path d="M26.3043 27.5H27.5V28.6957H26.3043V27.5Z" fill="#D9D9D9"/>
<path d="M27.5 27.5H28.6957V28.6957H27.5V27.5Z" fill="#D9D9D9"/>
<path d="M28.6957 27.5H29.8913V28.6957H28.6957V27.5Z" fill="#D9D9D9"/>
<path d="M29.8913 27.5H31.087V28.6957H29.8913V27.5Z" fill="#D9D9D9"/>
<path d="M31.087 27.5H32.2826V28.6957H31.087V27.5Z" fill="#F05033"/>
<path d="M32.2826 27.5H33.4783V28.6957H32.2826V27.5Z" fill="#F05033"/>
<path d="M33.4783 27.5H34.6739V28.6957H33.4783V27.5Z" fill="#F05033"/>
<path d="M34.6739 27.5H35.8696V28.6957H34.6739V27.5Z" fill="#F05033"/>
<path d="M35.8696 27.5H37.0652V28.6957H35.8696V27.5Z" fill="#D9D9D9"/>
<path d="M37.0652 27.5H38.2609V28.6957H37.0652V27.5Z" fill="#D9D9D9"/>
<path d="M38.2609 27.5H39.4565V28.6957H38.2609V27.5Z" fill="#D9D9D9"/>
<path d="M39.4565 27.5H40.6522V28.6957H39.4565V27.5Z" fill="#D9D9D9"/>
<path d="M40.6522 27.5H41.8478V28.6957H40.6522V27.5Z" fill="#D9D9D9"/>
<path d="M41.8478 27.5H43.0435V28.6957H41.8478V27.5Z" fill="#D9D9D9"/>
<path d="M43.0435 27.5H44.2391V28.6957H43.0435V27.5Z" fill="#D9D9D9"/>
<path d="M44.2391 27.5H45.4348V28.6957H44.2391V27.5Z" fill="#D9D9D9"/>
<path d="M45.4348 27.5H46.6304V28.6957H45.4348V27.5Z" fill="#D9D9D9"/>
<path d="M46.6304 27.5H47.8261V28.6957H46.6304V27.5Z" fill="#E0AEA5"/>
<path d="M47.8261 27.5H49.0217V28.6957H47.8261V27.5Z" fill="#F05033"/>
<path d="M49.0217 27.5H50.2174V28.6957H49.0217V27.5Z" fill="#F05033"/>
<path d="M50.2174 27.5H51.413V28.6957H50.2174V27.5Z" fill="#F05033"/>
<path d="M51.413 27.5H52.6087V28.6957H51.413V27.5Z" fill="#F05033"/>
<path d="M52.6087 27.5H53.8043V28.6957H52.6087V27.5Z" fill="#F05033"/>
<path d="M53.8043 27.5H55V28.6957H53.8043V27.5Z" fill="#F05033"/>
<path d="M1.19565 28.6957H2.3913V29.8913H1.19565V28.6957Z" fill="#F05033"/>
<path d="M2.3913 28.6957H3.58696V29.8913H2.3913V28.6957Z" fill="#F05033"/>
<path d="M3.58696 28.6957H4.78261V29.8913H3.58696V28.6957Z" fill="#F05033"/>
<path d="M4.78261 28.6957H5.97826V29.8913H4.78261V28.6957Z" fill="#F05033"/>
<path d="M5.97826 28.6957H7.17391V29.8913H5.97826V28.6957Z" fill="#F05033"/>
<path d="M7.17391 28.6957H8.36956V29.8913H7.17391V28.6957Z" fill="#F05033"/>
<path d="M8.36956 28.6957H9.56521V29.8913H8.36956V28.6957Z" fill="#F05033"/>
<path d="M9.56521 28.6957H10.7609V29.8913H9.56521V28.6957Z" fill="#F05033"/>
<path d="M10.7609 28.6957H11.9565V29.8913H10.7609V28.6957Z" fill="#F05033"/>
<path d="M11.9565 28.6957H13.1522V29.8913H11.9565V28.6957Z" fill="#F05033"/>
<path d="M13.1522 28.6957H14.3478V29.8913H13.1522V28.6957Z" fill="#F05033"/>
<path d="M14.3478 28.6957H15.5435V29.8913H14.3478V28.6957Z" fill="#F05033"/>
<path d="M15.5435 28.6957H16.7391V29.8913H15.5435V28.6957Z" fill="#F05033"/>
<path d="M16.7391 28.6957H17.9348V29.8913H16.7391V28.6957Z" fill="#F05033"/>
<path d="M17.9348 28.6957H19.1304V29.8913H17.9348V28.6957Z" fill="#F05033"/>
<path d="M19.1304 28.6957H20.3261V29.8913H19.1304V28.6957Z" fill="#F05033"/>
<path d="M20.3261 28.6957H21.5217V29.8913H20.3261V28.6957Z" fill="#F05033"/>
<path d="M21.5217 28.6957H22.7174V29.8913H21.5217V28.6957Z" fill="#F05033"/>
<path d="M22.7174 28.6957H23.913V29.8913H22.7174V28.6957Z" fill="#F05033"/>
<path d="M23.913 28.6957H25.1087V29.8913H23.913V28.6957Z" fill="#F05033"/>
<path d="M25.1087 28.6957H26.3043V29.8913H25.1087V28.6957Z" fill="#D9D9D9"/>
<path d="M26.3043 28.6957H27.5V29.8913H26.3043V28.6957Z" fill="#D9D9D9"/>
<path d="M27.5 28.6957H28.6957V29.8913H27.5V28.6957Z" fill="#D9D9D9"/>
<path d="M28.6957 28.6957H29.8913V29.8913H28.6957V28.6957Z" fill="#D9D9D9"/>
<path d="M29.8913 28.6957H31.087V29.8913H29.8913V28.6957Z" fill="#D9D9D9"/>
<path d="M31.087 28.6957H32.2826V29.8913H31.087V28.6957Z" fill="#F05033"/>
<path d="M32.2826 28.6957H33.4783V29.8913H32.2826V28.6957Z" fill="#F05033"/>
<path d="M33.4783 28.6957H34.6739V29.8913H33.4783V28.6957Z" fill="#F05033"/>
<path d="M34.6739 28.6957H35.8696V29.8913H34.6739V28.6957Z" fill="#F05033"/>
<path d="M35.8696 28.6957H37.0652V29.8913H35.8696V28.6957Z" fill="#F05033"/>
<path d="M37.0652 28.6957H38.2609V29.8913H37.0652V28.6957Z" fill="#D9D9D9"/>
<path d="M38.2609 28.6957H39.4565V29.8913H38.2609V28.6957Z" fill="#D9D9D9"/>
<path d="M39.4565 28.6957H40.6522V29.8913H39.4565V28.6957Z" fill="#D9D9D9"/>
<path d="M40.6522 28.6957H41.8478V29.8913H40.6522V28.6957Z" fill="#D9D9D9"/>
<path d="M41.8478 28.6957H43.0435V29.8913H41.8478V28.6957Z" fill="#D9D9D9"/>
<path d="M43.0435 28.6957H44.2391V29.8913H43.0435V28.6957Z" fill="#D9D9D9"/>
<path d="M44.2391 28.6957H45.4348V29.8913H44.2391V28.6957Z" fill="#D9D9D9"/>
<path d="M45.4348 28.6957H46.6304V29.8913H45.4348V28.6957Z" fill="#D9D9D9"/>
<path d="M46.6304 28.6957H47.8261V29.8913H46.6304V28.6957Z" fill="#F05033"/>
<path d="M47.8261 28.6957H49.0217V29.8913H47.8261V28.6957Z" fill="#F05033"/>
<path d="M49.0217 28.6957H50.2174V29.8913H49.0217V28.6957Z" fill="#F05033"/>
<path d="M50.2174 28.6957H51.413V29.8913H50.2174V28.6957Z" fill="#F05033"/>
<path d="M51.413 28.6957H52.6087V29.8913H51.413V28.6957Z" fill="#F05033"/>
<path d="M52.6087 28.6957H53.8043V29.8913H52.6087V28.6957Z" fill="#F05033"/>
<path d="M53.8043 28.6957H55V29.8913H53.8043V28.6957Z" fill="#F05033"/>
<path d="M1.19565 29.8913H2.3913V31.087H1.19565V29.8913Z" fill="#F05033"/>
<path d="M2.3913 29.8913H3.58696V31.087H2.3913V29.8913Z" fill="#F05033"/>
<path d="M3.58696 29.8913H4.78261V31.087H3.58696V29.8913Z" fill="#F05033"/>
<path d="M4.78261 29.8913H5.97826V31.087H4.78261V29.8913Z" fill="#F05033"/>
<path d="M5.97826 29.8913H7.17391V31.087H5.97826V29.8913Z" fill="#F05033"/>
<path d="M7.17391 29.8913H8.36956V31.087H7.17391V29.8913Z" fill="#F05033"/>
<path d="M8.36956 29.8913H9.56521V31.087H8.36956V29.8913Z" fill="#F05033"/>
<path d="M9.56521 29.8913H10.7609V31.087H9.56521V29.8913Z" fill="#F05033"/>
<path d="M10.7609 29.8913H11.9565V31.087H10.7609V29.8913Z" fill="#F05033"/>
<path d="M11.9565 29.8913H13.1522V31.087H11.9565V29.8913Z" fill="#F05033"/>
<path d="M13.1522 29.8913H14.3478V31.087H13.1522V29.8913Z" fill="#F05033"/>
<path d="M14.3478 29.8913H15.5435V31.087H14.3478V29.8913Z" fill="#F05033"/>
<path d="M15.5435 29.8913H16.7391V31.087H15.5435V29.8913Z" fill="#F05033"/>
<path d="M16.7391 29.8913H17.9348V31.087H16.7391V29.8913Z" fill="#F05033"/>
<path d="M17.9348 29.8913H19.1304V31.087H17.9348V29.8913Z" fill="#F05033"/>
<path d="M19.1304 29.8913H20.3261V31.087H19.1304V29.8913Z" fill="#F05033"/>
<path d="M20.3261 29.8913H21.5217V31.087H20.3261V29.8913Z" fill="#F05033"/>
<path d="M21.5217 29.8913H22.7174V31.087H21.5217V29.8913Z" fill="#F05033"/>
<path d="M22.7174 29.8913H23.913V31.087H22.7174V29.8913Z" fill="#F05033"/>
<path d="M23.913 29.8913H25.1087V31.087H23.913V29.8913Z" fill="#F05033"/>
<path d="M25.1087 29.8913H26.3043V31.087H25.1087V29.8913Z" fill="#D9D9D9"/>
<path d="M26.3043 29.8913H27.5V31.087H26.3043V29.8913Z" fill="#D9D9D9"/>
<path d="M27.5 29.8913H28.6957V31.087H27.5V29.8913Z" fill="#D9D9D9"/>
<path d="M28.6957 29.8913H29.8913V31.087H28.6957V29.8913Z" fill="#D9D9D9"/>
<path d="M29.8913 29.8913H31.087V31.087H29.8913V29.8913Z" fill="#D9D9D9"/>
<path d="M31.087 29.8913H32.2826V31.087H31.087V29.8913Z" fill="#F05033"/>
<path d="M32.2826 29.8913H33.4783V31.087H32.2826V29.8913Z" fill="#F05033"/>
<path d="M33.4783 29.8913H34.6739V31.087H33.4783V29.8913Z" fill="#F05033"/>
<path d="M34.6739 29.8913H35.8696V31.087H34.6739V29.8913Z" fill="#F05033"/>
<path d="M35.8696 29.8913H37.0652V31.087H35.8696V29.8913Z" fill="#F05033"/>
<path d="M37.0652 29.8913H38.2609V31.087H37.0652V29.8913Z" fill="#D9D9D9"/>
<path d="M38.2609 29.8913H39.4565V31.087H38.2609V29.8913Z" fill="#D9D9D9"/>
<path d="M39.4565 29.8913H40.6522V31.087H39.4565V29.8913Z" fill="#D9D9D9"/>
<path d="M40.6522 29.8913H41.8478V31.087H40.6522V29.8913Z" fill="#D9D9D9"/>
<path d="M41.8478 29.8913H43.0435V31.087H41.8478V29.8913Z" fill="#D9D9D9"/>
<path d="M43.0435 29.8913H44.2391V31.087H43.0435V29.8913Z" fill="#D9D9D9"/>
<path d="M44.2391 29.8913H45.4348V31.087H44.2391V29.8913Z" fill="#D9D9D9"/>
<path d="M45.4348 29.8913H46.6304V31.087H45.4348V29.8913Z" fill="#D9D9D9"/>
<path d="M46.6304 29.8913H47.8261V31.087H46.6304V29.8913Z" fill="#F05033"/>
<path d="M47.8261 29.8913H49.0217V31.087H47.8261V29.8913Z" fill="#F05033"/>
<path d="M49.0217 29.8913H50.2174V31.087H49.0217V29.8913Z" fill="#F05033"/>
<path d="M50.2174 29.8913H51.413V31.087H50.2174V29.8913Z" fill="#F05033"/>
<path d="M51.413 29.8913H52.6087V31.087H51.413V29.8913Z" fill="#F05033"/>
<path d="M52.6087 29.8913H53.8043V31.087H52.6087V29.8913Z" fill="#F05033"/>
<path d="M53.8043 29.8913H55V31.087H53.8043V29.8913Z" fill="#EF5033"/>
<path d="M2.3913 31.087H3.58696V32.2826H2.3913V31.087Z" fill="#F05033"/>
<path d="M3.58696 31.087H4.78261V32.2826H3.58696V31.087Z" fill="#F05033"/>
<path d="M4.78261 31.087H5.97826V32.2826H4.78261V31.087Z" fill="#F05033"/>
<path d="M5.97826 31.087H7.17391V32.2826H5.97826V31.087Z" fill="#F05033"/>
<path d="M7.17391 31.087H8.36956V32.2826H7.17391V31.087Z" fill="#F05033"/>
<path d="M8.36956 31.087H9.56521V32.2826H8.36956V31.087Z" fill="#F05033"/>
<path d="M9.56521 31.087H10.7609V32.2826H9.56521V31.087Z" fill="#F05033"/>
<path d="M10.7609 31.087H11.9565V32.2826H10.7609V31.087Z" fill="#F05033"/>
<path d="M11.9565 31.087H13.1522V32.2826H11.9565V31.087Z" fill="#F05033"/>
<path d="M13.1522 31.087H14.3478V32.2826H13.1522V31.087Z" fill="#F05033"/>
<path d="M14.3478 31.087H15.5435V32.2826H14.3478V31.087Z" fill="#F05033"/>
<path d="M15.5435 31.087H16.7391V32.2826H15.5435V31.087Z" fill="#F05033"/>
<path d="M16.7391 31.087H17.9348V32.2826H16.7391V31.087Z" fill="#F05033"/>
<path d="M17.9348 31.087H19.1304V32.2826H17.9348V31.087Z" fill="#F05033"/>
<path d="M19.1304 31.087H20.3261V32.2826H19.1304V31.087Z" fill="#F05033"/>
<path d="M20.3261 31.087H21.5217V32.2826H20.3261V31.087Z" fill="#F05033"/>
<path d="M21.5217 31.087H22.7174V32.2826H21.5217V31.087Z" fill="#F05033"/>
<path d="M22.7174 31.087H23.913V32.2826H22.7174V31.087Z" fill="#F05033"/>
<path d="M23.913 31.087H25.1087V32.2826H23.913V31.087Z" fill="#F05033"/>
<path d="M25.1087 31.087H26.3043V32.2826H25.1087V31.087Z" fill="#D9D9D9"/>
<path d="M26.3043 31.087H27.5V32.2826H26.3043V31.087Z" fill="#D9D9D9"/>
<path d="M27.5 31.087H28.6957V32.2826H27.5V31.087Z" fill="#D9D9D9"/>
<path d="M28.6957 31.087H29.8913V32.2826H28.6957V31.087Z" fill="#D9D9D9"/>
<path d="M29.8913 31.087H31.087V32.2826H29.8913V31.087Z" fill="#D9D9D9"/>
<path d="M31.087 31.087H32.2826V32.2826H31.087V31.087Z" fill="#F05033"/>
<path d="M32.2826 31.087H33.4783V32.2826H32.2826V31.087Z" fill="#F05033"/>
<path d="M33.4783 31.087H34.6739V32.2826H33.4783V31.087Z" fill="#F05033"/>
<path d="M34.6739 31.087H35.8696V32.2826H34.6739V31.087Z" fill="#F05033"/>
<path d="M35.8696 31.087H37.0652V32.2826H35.8696V31.087Z" fill="#F05033"/>
<path d="M37.0652 31.087H38.2609V32.2826H37.0652V31.087Z" fill="#F05033"/>
<path d="M38.2609 31.087H39.4565V32.2826H38.2609V31.087Z" fill="#D9D9D9"/>
<path d="M39.4565 31.087H40.6522V32.2826H39.4565V31.087Z" fill="#D9D9D9"/>
<path d="M40.6522 31.087H41.8478V32.2826H40.6522V31.087Z" fill="#D9D9D9"/>
<path d="M41.8478 31.087H43.0435V32.2826H41.8478V31.087Z" fill="#D9D9D9"/>
<path d="M43.0435 31.087H44.2391V32.2826H43.0435V31.087Z" fill="#D9D9D9"/>
<path d="M44.2391 31.087H45.4348V32.2826H44.2391V31.087Z" fill="#D9D9D9"/>
<path d="M45.4348 31.087H46.6304V32.2826H45.4348V31.087Z" fill="#F05033"/>
<path d="M46.6304 31.087H47.8261V32.2826H46.6304V31.087Z" fill="#F05033"/>
<path d="M47.8261 31.087H49.0217V32.2826H47.8261V31.087Z" fill="#F05033"/>
<path d="M49.0217 31.087H50.2174V32.2826H49.0217V31.087Z" fill="#F05033"/>
<path d="M50.2174 31.087H51.413V32.2826H50.2174V31.087Z" fill="#F05033"/>
<path d="M51.413 31.087H52.6087V32.2826H51.413V31.087Z" fill="#F05033"/>
<path d="M52.6087 31.087H53.8043V32.2826H52.6087V31.087Z" fill="#F05033"/>
<path d="M3.58696 32.2826H4.78261V33.4783H3.58696V32.2826Z" fill="#F05033"/>
<path d="M4.78261 32.2826H5.97826V33.4783H4.78261V32.2826Z" fill="#F05033"/>
<path d="M5.97826 32.2826H7.17391V33.4783H5.97826V32.2826Z" fill="#F05033"/>
<path d="M7.17391 32.2826H8.36956V33.4783H7.17391V32.2826Z" fill="#F05033"/>
<path d="M8.36956 32.2826H9.56521V33.4783H8.36956V32.2826Z" fill="#F05033"/>
<path d="M9.56521 32.2826H10.7609V33.4783H9.56521V32.2826Z" fill="#F05033"/>
<path d="M10.7609 32.2826H11.9565V33.4783H10.7609V32.2826Z" fill="#F05033"/>
<path d="M11.9565 32.2826H13.1522V33.4783H11.9565V32.2826Z" fill="#F05033"/>
<path d="M13.1522 32.2826H14.3478V33.4783H13.1522V32.2826Z" fill="#F05033"/>
<path d="M14.3478 32.2826H15.5435V33.4783H14.3478V32.2826Z" fill="#F05033"/>
<path d="M15.5435 32.2826H16.7391V33.4783H15.5435V32.2826Z" fill="#F05033"/>
<path d="M16.7391 32.2826H17.9348V33.4783H16.7391V32.2826Z" fill="#F05033"/>
<path d="M17.9348 32.2826H19.1304V33.4783H17.9348V32.2826Z" fill="#F05033"/>
<path d="M19.1304 32.2826H20.3261V33.4783H19.1304V32.2826Z" fill="#F05033"/>
<path d="M20.3261 32.2826H21.5217V33.4783H20.3261V32.2826Z" fill="#F05033"/>
<path d="M21.5217 32.2826H22.7174V33.4783H21.5217V32.2826Z" fill="#F05033"/>
<path d="M22.7174 32.2826H23.913V33.4783H22.7174V32.2826Z" fill="#F05033"/>
<path d="M23.913 32.2826H25.1087V33.4783H23.913V32.2826Z" fill="#F05033"/>
<path d="M25.1087 32.2826H26.3043V33.4783H25.1087V32.2826Z" fill="#D9D9D9"/>
<path d="M26.3043 32.2826H27.5V33.4783H26.3043V32.2826Z" fill="#D9D9D9"/>
<path d="M27.5 32.2826H28.6957V33.4783H27.5V32.2826Z" fill="#D9D9D9"/>
<path d="M28.6957 32.2826H29.8913V33.4783H28.6957V32.2826Z" fill="#D9D9D9"/>
<path d="M29.8913 32.2826H31.087V33.4783H29.8913V32.2826Z" fill="#D9D9D9"/>
<path d="M31.087 32.2826H32.2826V33.4783H31.087V32.2826Z" fill="#F05033"/>
<path d="M32.2826 32.2826H33.4783V33.4783H32.2826V32.2826Z" fill="#F05033"/>
<path d="M33.4783 32.2826H34.6739V33.4783H33.4783V32.2826Z" fill="#F05033"/>
<path d="M34.6739 32.2826H35.8696V33.4783H34.6739V32.2826Z" fill="#F05033"/>
<path d="M35.8696 32.2826H37.0652V33.4783H35.8696V32.2826Z" fill="#F05033"/>
<path d="M37.0652 32.2826H38.2609V33.4783H37.0652V32.2826Z" fill="#F05033"/>
<path d="M38.2609 32.2826H39.4565V33.4783H38.2609V32.2826Z" fill="#F05033"/>
<path d="M39.4565 32.2826H40.6522V33.4783H39.4565V32.2826Z" fill="#F05033"/>
<path d="M40.6522 32.2826H41.8478V33.4783H40.6522V32.2826Z" fill="#F05033"/>
<path d="M41.8478 32.2826H43.0435V33.4783H41.8478V32.2826Z" fill="#F05033"/>
<path d="M43.0435 32.2826H44.2391V33.4783H43.0435V32.2826Z" fill="#F05033"/>
<path d="M44.2391 32.2826H45.4348V33.4783H44.2391V32.2826Z" fill="#F05033"/>
<path d="M45.4348 32.2826H46.6304V33.4783H45.4348V32.2826Z" fill="#F05033"/>
<path d="M46.6304 32.2826H47.8261V33.4783H46.6304V32.2826Z" fill="#F05033"/>
<path d="M47.8261 32.2826H49.0217V33.4783H47.8261V32.2826Z" fill="#F05033"/>
<path d="M49.0217 32.2826H50.2174V33.4783H49.0217V32.2826Z" fill="#F05033"/>
<path d="M50.2174 32.2826H51.413V33.4783H50.2174V32.2826Z" fill="#F05033"/>
<path d="M51.413 32.2826H52.6087V33.4783H51.413V32.2826Z" fill="#F05033"/>
<path d="M4.78261 33.4783H5.97826V34.6739H4.78261V33.4783Z" fill="#F05033"/>
<path d="M5.97826 33.4783H7.17391V34.6739H5.97826V33.4783Z" fill="#F05033"/>
<path d="M7.17391 33.4783H8.36956V34.6739H7.17391V33.4783Z" fill="#F05033"/>
<path d="M8.36956 33.4783H9.56521V34.6739H8.36956V33.4783Z" fill="#F05033"/>
<path d="M9.56521 33.4783H10.7609V34.6739H9.56521V33.4783Z" fill="#F05033"/>
<path d="M10.7609 33.4783H11.9565V34.6739H10.7609V33.4783Z" fill="#F05033"/>
<path d="M11.9565 33.4783H13.1522V34.6739H11.9565V33.4783Z" fill="#F05033"/>
<path d="M13.1522 33.4783H14.3478V34.6739H13.1522V33.4783Z" fill="#F05033"/>
<path d="M14.3478 33.4783H15.5435V34.6739H14.3478V33.4783Z" fill="#F05033"/>
<path d="M15.5435 33.4783H16.7391V34.6739H15.5435V33.4783Z" fill="#F05033"/>
<path d="M16.7391 33.4783H17.9348V34.6739H16.7391V33.4783Z" fill="#F05033"/>
<path d="M17.9348 33.4783H19.1304V34.6739H17.9348V33.4783Z" fill="#F05033"/>
<path d="M19.1304 33.4783H20.3261V34.6739H19.1304V33.4783Z" fill="#F05033"/>
<path d="M20.3261 33.4783H21.5217V34.6739H20.3261V33.4783Z" fill="#F05033"/>
<path d="M21.5217 33.4783H22.7174V34.6739H21.5217V33.4783Z" fill="#F05033"/>
<path d="M22.7174 33.4783H23.913V34.6739H22.7174V33.4783Z" fill="#F05033"/>
<path d="M23.913 33.4783H25.1087V34.6739H23.913V33.4783Z" fill="#D9D9D9"/>
<path d="M25.1087 33.4783H26.3043V34.6739H25.1087V33.4783Z" fill="#D9D9D9"/>
<path d="M26.3043 33.4783H27.5V34.6739H26.3043V33.4783Z" fill="#D9D9D9"/>
<path d="M27.5 33.4783H28.6957V34.6739H27.5V33.4783Z" fill="#D9D9D9"/>
<path d="M28.6957 33.4783H29.8913V34.6739H28.6957V33.4783Z" fill="#D9D9D9"/>
<path d="M29.8913 33.4783H31.087V34.6739H29.8913V33.4783Z" fill="#D9D9D9"/>
<path d="M31.087 33.4783H32.2826V34.6739H31.087V33.4783Z" fill="#DAD0CF"/>
<path d="M32.2826 33.4783H33.4783V34.6739H32.2826V33.4783Z" fill="#F05033"/>
<path d="M33.4783 33.4783H34.6739V34.6739H33.4783V33.4783Z" fill="#F05033"/>
<path d="M34.6739 33.4783H35.8696V34.6739H34.6739V33.4783Z" fill="#F05033"/>
<path d="M35.8696 33.4783H37.0652V34.6739H35.8696V33.4783Z" fill="#F05033"/>
<path d="M37.0652 33.4783H38.2609V34.6739H37.0652V33.4783Z" fill="#F05033"/>
<path d="M38.2609 33.4783H39.4565V34.6739H38.2609V33.4783Z" fill="#F05033"/>
<path d="M39.4565 33.4783H40.6522V34.6739H39.4565V33.4783Z" fill="#F05033"/>
<path d="M40.6522 33.4783H41.8478V34.6739H40.6522V33.4783Z" fill="#F05033"/>
<path d="M41.8478 33.4783H43.0435V34.6739H41.8478V33.4783Z" fill="#F05033"/>
<path d="M43.0435 33.4783H44.2391V34.6739H43.0435V33.4783Z" fill="#F05033"/>
<path d="M44.2391 33.4783H45.4348V34.6739H44.2391V33.4783Z" fill="#F05033"/>
<path d="M45.4348 33.4783H46.6304V34.6739H45.4348V33.4783Z" fill="#F05033"/>
<path d="M46.6304 33.4783H47.8261V34.6739H46.6304V33.4783Z" fill="#F05033"/>
<path d="M47.8261 33.4783H49.0217V34.6739H47.8261V33.4783Z" fill="#F05033"/>
<path d="M49.0217 33.4783H50.2174V34.6739H49.0217V33.4783Z" fill="#F05033"/>
<path d="M50.2174 33.4783H51.413V34.6739H50.2174V33.4783Z" fill="#F05033"/>
<path d="M5.97826 34.6739H7.17391V35.8696H5.97826V34.6739Z" fill="#F05033"/>
<path d="M7.17391 34.6739H8.36956V35.8696H7.17391V34.6739Z" fill="#F05033"/>
<path d="M8.36956 34.6739H9.56521V35.8696H8.36956V34.6739Z" fill="#F05033"/>
<path d="M9.56521 34.6739H10.7609V35.8696H9.56521V34.6739Z" fill="#F05033"/>
<path d="M10.7609 34.6739H11.9565V35.8696H10.7609V34.6739Z" fill="#F05033"/>
<path d="M11.9565 34.6739H13.1522V35.8696H11.9565V34.6739Z" fill="#F05033"/>
<path d="M13.1522 34.6739H14.3478V35.8696H13.1522V34.6739Z" fill="#F05033"/>
<path d="M14.3478 34.6739H15.5435V35.8696H14.3478V34.6739Z" fill="#F05033"/>
<path d="M15.5435 34.6739H16.7391V35.8696H15.5435V34.6739Z" fill="#F05033"/>
<path d="M16.7391 34.6739H17.9348V35.8696H16.7391V34.6739Z" fill="#F05033"/>
<path d="M17.9348 34.6739H19.1304V35.8696H17.9348V34.6739Z" fill="#F05033"/>
<path d="M19.1304 34.6739H20.3261V35.8696H19.1304V34.6739Z" fill="#F05033"/>
<path d="M20.3261 34.6739H21.5217V35.8696H20.3261V34.6739Z" fill="#F05033"/>
<path d="M21.5217 34.6739H22.7174V35.8696H21.5217V34.6739Z" fill="#F05033"/>
<path d="M22.7174 34.6739H23.913V35.8696H22.7174V34.6739Z" fill="#F05033"/>
<path d="M23.913 34.6739H25.1087V35.8696H23.913V34.6739Z" fill="#D9D9D9"/>
<path d="M25.1087 34.6739H26.3043V35.8696H25.1087V34.6739Z" fill="#D9D9D9"/>
<path d="M26.3043 34.6739H27.5V35.8696H26.3043V34.6739Z" fill="#D9D9D9"/>
<path d="M27.5 34.6739H28.6957V35.8696H27.5V34.6739Z" fill="#D9D9D9"/>
<path d="M28.6957 34.6739H29.8913V35.8696H28.6957V34.6739Z" fill="#D9D9D9"/>
<path d="M29.8913 34.6739H31.087V35.8696H29.8913V34.6739Z" fill="#D9D9D9"/>
<path d="M31.087 34.6739H32.2826V35.8696H31.087V34.6739Z" fill="#D9D9D9"/>
<path d="M32.2826 34.6739H33.4783V35.8696H32.2826V34.6739Z" fill="#F05033"/>
<path d="M33.4783 34.6739H34.6739V35.8696H33.4783V34.6739Z" fill="#F05033"/>
<path d="M34.6739 34.6739H35.8696V35.8696H34.6739V34.6739Z" fill="#F05033"/>
<path d="M35.8696 34.6739H37.0652V35.8696H35.8696V34.6739Z" fill="#F05033"/>
<path d="M37.0652 34.6739H38.2609V35.8696H37.0652V34.6739Z" fill="#F05033"/>
<path d="M38.2609 34.6739H39.4565V35.8696H38.2609V34.6739Z" fill="#F05033"/>
<path d="M39.4565 34.6739H40.6522V35.8696H39.4565V34.6739Z" fill="#F05033"/>
<path d="M40.6522 34.6739H41.8478V35.8696H40.6522V34.6739Z" fill="#F05033"/>
<path d="M41.8478 34.6739H43.0435V35.8696H41.8478V34.6739Z" fill="#F05033"/>
<path d="M43.0435 34.6739H44.2391V35.8696H43.0435V34.6739Z" fill="#F05033"/>
<path d="M44.2391 34.6739H45.4348V35.8696H44.2391V34.6739Z" fill="#F05033"/>
<path d="M45.4348 34.6739H46.6304V35.8696H45.4348V34.6739Z" fill="#F05033"/>
<path d="M46.6304 34.6739H47.8261V35.8696H46.6304V34.6739Z" fill="#F05033"/>
<path d="M47.8261 34.6739H49.0217V35.8696H47.8261V34.6739Z" fill="#F05033"/>
<path d="M49.0217 34.6739H50.2174V35.8696H49.0217V34.6739Z" fill="#F05033"/>
<path d="M7.17391 35.8696H8.36956V37.0652H7.17391L7.17391 35.8696Z" fill="#F05033"/>
<path d="M8.36956 35.8696H9.56521V37.0652H8.36956V35.8696Z" fill="#F05033"/>
<path d="M9.56521 35.8696H10.7609V37.0652H9.56521V35.8696Z" fill="#F05033"/>
<path d="M10.7609 35.8696H11.9565V37.0652H10.7609V35.8696Z" fill="#F05033"/>
<path d="M11.9565 35.8696H13.1522V37.0652H11.9565V35.8696Z" fill="#F05033"/>
<path d="M13.1522 35.8696H14.3478V37.0652H13.1522V35.8696Z" fill="#F05033"/>
<path d="M14.3478 35.8696H15.5435V37.0652H14.3478V35.8696Z" fill="#F05033"/>
<path d="M15.5435 35.8696H16.7391V37.0652H15.5435V35.8696Z" fill="#F05033"/>
<path d="M16.7391 35.8696H17.9348V37.0652H16.7391V35.8696Z" fill="#F05033"/>
<path d="M17.9348 35.8696H19.1304V37.0652H17.9348V35.8696Z" fill="#F05033"/>
<path d="M19.1304 35.8696H20.3261V37.0652H19.1304V35.8696Z" fill="#F05033"/>
<path d="M20.3261 35.8696H21.5217V37.0652H20.3261V35.8696Z" fill="#F05033"/>
<path d="M21.5217 35.8696H22.7174V37.0652H21.5217V35.8696Z" fill="#F05033"/>
<path d="M22.7174 35.8696H23.913V37.0652H22.7174V35.8696Z" fill="#D9D9D9"/>
<path d="M23.913 35.8696H25.1087V37.0652H23.913V35.8696Z" fill="#D9D9D9"/>
<path d="M25.1087 35.8696H26.3043V37.0652H25.1087V35.8696Z" fill="#D9D9D9"/>
<path d="M26.3043 35.8696H27.5V37.0652H26.3043V35.8696Z" fill="#D9D9D9"/>
<path d="M27.5 35.8696H28.6957V37.0652H27.5V35.8696Z" fill="#D9D9D9"/>
<path d="M28.6957 35.8696H29.8913V37.0652H28.6957V35.8696Z" fill="#D9D9D9"/>
<path d="M29.8913 35.8696H31.087V37.0652H29.8913V35.8696Z" fill="#D9D9D9"/>
<path d="M31.087 35.8696H32.2826V37.0652H31.087V35.8696Z" fill="#D9D9D9"/>
<path d="M32.2826 35.8696H33.4783V37.0652H32.2826V35.8696Z" fill="#D9D9D9"/>
<path d="M33.4783 35.8696H34.6739V37.0652H33.4783V35.8696Z" fill="#F05033"/>
<path d="M34.6739 35.8696H35.8696V37.0652H34.6739V35.8696Z" fill="#F05033"/>
<path d="M35.8696 35.8696H37.0652V37.0652H35.8696V35.8696Z" fill="#F05033"/>
<path d="M37.0652 35.8696H38.2609V37.0652H37.0652V35.8696Z" fill="#F05033"/>
<path d="M38.2609 35.8696H39.4565V37.0652H38.2609V35.8696Z" fill="#F05033"/>
<path d="M39.4565 35.8696H40.6522V37.0652H39.4565V35.8696Z" fill="#F05033"/>
<path d="M40.6522 35.8696H41.8478V37.0652H40.6522V35.8696Z" fill="#F05033"/>
<path d="M41.8478 35.8696H43.0435V37.0652H41.8478V35.8696Z" fill="#F05033"/>
<path d="M43.0435 35.8696H44.2391V37.0652H43.0435V35.8696Z" fill="#F05033"/>
<path d="M44.2391 35.8696H45.4348V37.0652H44.2391V35.8696Z" fill="#F05033"/>
<path d="M45.4348 35.8696H46.6304V37.0652H45.4348V35.8696Z" fill="#F05033"/>
<path d="M46.6304 35.8696H47.8261V37.0652H46.6304V35.8696Z" fill="#F05033"/>
<path d="M47.8261 35.8696H49.0217V37.0652H47.8261V35.8696Z" fill="#F05033"/>
<path d="M8.36956 37.0652H9.56521V38.2609H8.36956V37.0652Z" fill="#F05033"/>
<path d="M9.56521 37.0652H10.7609V38.2609H9.56521V37.0652Z" fill="#F05033"/>
<path d="M10.7609 37.0652H11.9565V38.2609H10.7609V37.0652Z" fill="#F05033"/>
<path d="M11.9565 37.0652H13.1522V38.2609H11.9565V37.0652Z" fill="#F05033"/>
<path d="M13.1522 37.0652H14.3478V38.2609H13.1522V37.0652Z" fill="#F05033"/>
<path d="M14.3478 37.0652H15.5435V38.2609H14.3478V37.0652Z" fill="#F05033"/>
<path d="M15.5435 37.0652H16.7391V38.2609H15.5435V37.0652Z" fill="#F05033"/>
<path d="M16.7391 37.0652H17.9348V38.2609H16.7391V37.0652Z" fill="#F05033"/>
<path d="M17.9348 37.0652H19.1304V38.2609H17.9348V37.0652Z" fill="#F05033"/>
<path d="M19.1304 37.0652H20.3261V38.2609H19.1304V37.0652Z" fill="#F05033"/>
<path d="M20.3261 37.0652H21.5217V38.2609H20.3261V37.0652Z" fill="#F05033"/>
<path d="M21.5217 37.0652H22.7174V38.2609H21.5217V37.0652Z" fill="#F05033"/>
<path d="M22.7174 37.0652H23.913V38.2609H22.7174V37.0652Z" fill="#D9D9D9"/>
<path d="M23.913 37.0652H25.1087V38.2609H23.913V37.0652Z" fill="#D9D9D9"/>
<path d="M25.1087 37.0652H26.3043V38.2609H25.1087V37.0652Z" fill="#D9D9D9"/>
<path d="M26.3043 37.0652H27.5V38.2609H26.3043V37.0652Z" fill="#D9D9D9"/>
<path d="M27.5 37.0652H28.6957V38.2609H27.5V37.0652Z" fill="#D9D9D9"/>
<path d="M28.6957 37.0652H29.8913V38.2609H28.6957V37.0652Z" fill="#D9D9D9"/>
<path d="M29.8913 37.0652H31.087V38.2609H29.8913V37.0652Z" fill="#D9D9D9"/>
<path d="M31.087 37.0652H32.2826V38.2609H31.087V37.0652Z" fill="#D9D9D9"/>
<path d="M32.2826 37.0652H33.4783V38.2609H32.2826V37.0652Z" fill="#D9D9D9"/>
<path d="M33.4783 37.0652H34.6739V38.2609H33.4783V37.0652Z" fill="#F05033"/>
<path d="M34.6739 37.0652H35.8696V38.2609H34.6739V37.0652Z" fill="#F05033"/>
<path d="M35.8696 37.0652H37.0652V38.2609H35.8696V37.0652Z" fill="#F05033"/>
<path d="M37.0652 37.0652H38.2609V38.2609H37.0652V37.0652Z" fill="#F05033"/>
<path d="M38.2609 37.0652H39.4565V38.2609H38.2609V37.0652Z" fill="#F05033"/>
<path d="M39.4565 37.0652H40.6522V38.2609H39.4565V37.0652Z" fill="#F05033"/>
<path d="M40.6522 37.0652H41.8478V38.2609H40.6522V37.0652Z" fill="#F05033"/>
<path d="M41.8478 37.0652H43.0435V38.2609H41.8478V37.0652Z" fill="#F05033"/>
<path d="M43.0435 37.0652H44.2391V38.2609H43.0435V37.0652Z" fill="#F05033"/>
<path d="M44.2391 37.0652H45.4348V38.2609H44.2391V37.0652Z" fill="#F05033"/>
<path d="M45.4348 37.0652H46.6304V38.2609H45.4348V37.0652Z" fill="#F05033"/>
<path d="M46.6304 37.0652H47.8261V38.2609H46.6304V37.0652Z" fill="#F05033"/>
<path d="M9.56521 38.2609H10.7609V39.4565H9.56521V38.2609Z" fill="#F05033"/>
<path d="M10.7609 38.2609H11.9565V39.4565H10.7609V38.2609Z" fill="#F05033"/>
<path d="M11.9565 38.2609H13.1522V39.4565H11.9565V38.2609Z" fill="#F05033"/>
<path d="M13.1522 38.2609H14.3478V39.4565H13.1522V38.2609Z" fill="#F05033"/>
<path d="M14.3478 38.2609H15.5435V39.4565H14.3478V38.2609Z" fill="#F05033"/>
<path d="M15.5435 38.2609H16.7391V39.4565H15.5435V38.2609Z" fill="#F05033"/>
<path d="M16.7391 38.2609H17.9348V39.4565H16.7391V38.2609Z" fill="#F05033"/>
<path d="M17.9348 38.2609H19.1304V39.4565H17.9348V38.2609Z" fill="#F05033"/>
<path d="M19.1304 38.2609H20.3261V39.4565H19.1304V38.2609Z" fill="#F05033"/>
<path d="M20.3261 38.2609H21.5217V39.4565H20.3261V38.2609Z" fill="#F05033"/>
<path d="M21.5217 38.2609H22.7174V39.4565H21.5217V38.2609Z" fill="#F05033"/>
<path d="M22.7174 38.2609H23.913V39.4565H22.7174V38.2609Z" fill="#D9D9D9"/>
<path d="M23.913 38.2609H25.1087V39.4565H23.913V38.2609Z" fill="#D9D9D9"/>
<path d="M25.1087 38.2609H26.3043V39.4565H25.1087V38.2609Z" fill="#D9D9D9"/>
<path d="M26.3043 38.2609H27.5V39.4565H26.3043V38.2609Z" fill="#D9D9D9"/>
<path d="M27.5 38.2609H28.6957V39.4565H27.5V38.2609Z" fill="#D9D9D9"/>
<path d="M28.6957 38.2609H29.8913V39.4565H28.6957V38.2609Z" fill="#D9D9D9"/>
<path d="M29.8913 38.2609H31.087V39.4565H29.8913V38.2609Z" fill="#D9D9D9"/>
<path d="M31.087 38.2609H32.2826V39.4565H31.087V38.2609Z" fill="#D9D9D9"/>
<path d="M32.2826 38.2609H33.4783V39.4565H32.2826V38.2609Z" fill="#D9D9D9"/>
<path d="M33.4783 38.2609H34.6739V39.4565H33.4783V38.2609Z" fill="#F05033"/>
<path d="M34.6739 38.2609H35.8696V39.4565H34.6739V38.2609Z" fill="#F05033"/>
<path d="M35.8696 38.2609H37.0652V39.4565H35.8696V38.2609Z" fill="#F05033"/>
<path d="M37.0652 38.2609H38.2609V39.4565H37.0652V38.2609Z" fill="#F05033"/>
<path d="M38.2609 38.2609H39.4565V39.4565H38.2609V38.2609Z" fill="#F05033"/>
<path d="M39.4565 38.2609H40.6522V39.4565H39.4565V38.2609Z" fill="#F05033"/>
<path d="M40.6522 38.2609H41.8478V39.4565H40.6522V38.2609Z" fill="#F05033"/>
<path d="M41.8478 38.2609H43.0435V39.4565H41.8478V38.2609Z" fill="#F05033"/>
<path d="M43.0435 38.2609H44.2391V39.4565H43.0435V38.2609Z" fill="#F05033"/>
<path d="M44.2391 38.2609H45.4348V39.4565H44.2391V38.2609Z" fill="#F05033"/>
<path d="M45.4348 38.2609H46.6304V39.4565H45.4348V38.2609Z" fill="#F05033"/>
<path d="M10.7609 39.4565H11.9565V40.6522H10.7609V39.4565Z" fill="#F05033"/>
<path d="M11.9565 39.4565H13.1522V40.6522H11.9565V39.4565Z" fill="#F05033"/>
<path d="M13.1522 39.4565H14.3478V40.6522H13.1522V39.4565Z" fill="#F05033"/>
<path d="M14.3478 39.4565H15.5435V40.6522H14.3478V39.4565Z" fill="#F05033"/>
<path d="M15.5435 39.4565H16.7391V40.6522H15.5435V39.4565Z" fill="#F05033"/>
<path d="M16.7391 39.4565H17.9348V40.6522H16.7391V39.4565Z" fill="#F05033"/>
<path d="M17.9348 39.4565H19.1304V40.6522H17.9348V39.4565Z" fill="#F05033"/>
<path d="M19.1304 39.4565H20.3261V40.6522H19.1304V39.4565Z" fill="#F05033"/>
<path d="M20.3261 39.4565H21.5217V40.6522H20.3261V39.4565Z" fill="#F05033"/>
<path d="M21.5217 39.4565H22.7174V40.6522H21.5217V39.4565Z" fill="#F05033"/>
<path d="M22.7174 39.4565H23.913V40.6522H22.7174V39.4565Z" fill="#D9D9D9"/>
<path d="M23.913 39.4565H25.1087V40.6522H23.913V39.4565Z" fill="#D9D9D9"/>
<path d="M25.1087 39.4565H26.3043V40.6522H25.1087V39.4565Z" fill="#D9D9D9"/>
<path d="M26.3043 39.4565H27.5V40.6522H26.3043V39.4565Z" fill="#D9D9D9"/>
<path d="M27.5 39.4565H28.6957V40.6522H27.5V39.4565Z" fill="#D9D9D9"/>
<path d="M28.6957 39.4565H29.8913V40.6522H28.6957V39.4565Z" fill="#D9D9D9"/>
<path d="M29.8913 39.4565H31.087V40.6522H29.8913V39.4565Z" fill="#D9D9D9"/>
<path d="M31.087 39.4565H32.2826V40.6522H31.087V39.4565Z" fill="#D9D9D9"/>
<path d="M32.2826 39.4565H33.4783V40.6522H32.2826V39.4565Z" fill="#D9D9D9"/>
<path d="M33.4783 39.4565H34.6739V40.6522H33.4783V39.4565Z" fill="#F05033"/>
<path d="M34.6739 39.4565H35.8696V40.6522H34.6739V39.4565Z" fill="#F05033"/>
<path d="M35.8696 39.4565H37.0652V40.6522H35.8696V39.4565Z" fill="#F05033"/>
<path d="M37.0652 39.4565H38.2609V40.6522H37.0652V39.4565Z" fill="#F05033"/>
<path d="M38.2609 39.4565H39.4565V40.6522H38.2609V39.4565Z" fill="#F05033"/>
<path d="M39.4565 39.4565H40.6522V40.6522H39.4565V39.4565Z" fill="#F05033"/>
<path d="M40.6522 39.4565H41.8478V40.6522H40.6522V39.4565Z" fill="#F05033"/>
<path d="M41.8478 39.4565H43.0435V40.6522H41.8478V39.4565Z" fill="#F05033"/>
<path d="M43.0435 39.4565H44.2391V40.6522H43.0435V39.4565Z" fill="#F05033"/>
<path d="M44.2391 39.4565H45.4348V40.6522H44.2391V39.4565Z" fill="#F05033"/>
<path d="M11.9565 40.6522H13.1522V41.8478H11.9565V40.6522Z" fill="#F05033"/>
<path d="M13.1522 40.6522H14.3478V41.8478H13.1522V40.6522Z" fill="#F05033"/>
<path d="M14.3478 40.6522H15.5435V41.8478H14.3478V40.6522Z" fill="#F05033"/>
<path d="M15.5435 40.6522H16.7391V41.8478H15.5435V40.6522Z" fill="#F05033"/>
<path d="M16.7391 40.6522H17.9348V41.8478H16.7391V40.6522Z" fill="#F05033"/>
<path d="M17.9348 40.6522H19.1304V41.8478H17.9348V40.6522Z" fill="#F05033"/>
<path d="M19.1304 40.6522H20.3261V41.8478H19.1304V40.6522Z" fill="#F05033"/>
<path d="M20.3261 40.6522H21.5217V41.8478H20.3261V40.6522Z" fill="#F05033"/>
<path d="M21.5217 40.6522H22.7174V41.8478H21.5217V40.6522Z" fill="#F05033"/>
<path d="M22.7174 40.6522H23.913V41.8478H22.7174V40.6522Z" fill="#F05033"/>
<path d="M23.913 40.6522H25.1087V41.8478H23.913V40.6522Z" fill="#D9D9D9"/>
<path d="M25.1087 40.6522H26.3043V41.8478H25.1087V40.6522Z" fill="#D9D9D9"/>
<path d="M26.3043 40.6522H27.5V41.8478H26.3043V40.6522Z" fill="#D9D9D9"/>
<path d="M27.5 40.6522H28.6957V41.8478H27.5V40.6522Z" fill="#D9D9D9"/>
<path d="M28.6957 40.6522H29.8913V41.8478H28.6957V40.6522Z" fill="#D9D9D9"/>
<path d="M29.8913 40.6522H31.087V41.8478H29.8913V40.6522Z" fill="#D9D9D9"/>
<path d="M31.087 40.6522H32.2826V41.8478H31.087V40.6522Z" fill="#D9D9D9"/>
<path d="M32.2826 40.6522H33.4783V41.8478H32.2826V40.6522Z" fill="#F05033"/>
<path d="M33.4783 40.6522H34.6739V41.8478H33.4783V40.6522Z" fill="#F05033"/>
<path d="M34.6739 40.6522H35.8696V41.8478H34.6739V40.6522Z" fill="#F05033"/>
<path d="M35.8696 40.6522H37.0652V41.8478H35.8696V40.6522Z" fill="#F05033"/>
<path d="M37.0652 40.6522H38.2609V41.8478H37.0652V40.6522Z" fill="#F05033"/>
<path d="M38.2609 40.6522H39.4565V41.8478H38.2609V40.6522Z" fill="#F05033"/>
<path d="M39.4565 40.6522H40.6522V41.8478H39.4565V40.6522Z" fill="#F05033"/>
<path d="M40.6522 40.6522H41.8478V41.8478H40.6522V40.6522Z" fill="#F05033"/>
<path d="M41.8478 40.6522H43.0435V41.8478H41.8478V40.6522Z" fill="#F05033"/>
<path d="M43.0435 40.6522H44.2391V41.8478H43.0435V40.6522Z" fill="#F05033"/>
<path d="M13.1522 41.8478H14.3478V43.0435H13.1522V41.8478Z" fill="#F05033"/>
<path d="M14.3478 41.8478H15.5435V43.0435H14.3478V41.8478Z" fill="#F05033"/>
<path d="M15.5435 41.8478H16.7391V43.0435H15.5435V41.8478Z" fill="#F05033"/>
<path d="M16.7391 41.8478H17.9348V43.0435H16.7391V41.8478Z" fill="#F05033"/>
<path d="M17.9348 41.8478H19.1304V43.0435H17.9348V41.8478Z" fill="#F05033"/>
<path d="M19.1304 41.8478H20.3261V43.0435H19.1304V41.8478Z" fill="#F05033"/>
<path d="M20.3261 41.8478H21.5217V43.0435H20.3261V41.8478Z" fill="#F05033"/>
<path d="M21.5217 41.8478H22.7174V43.0435H21.5217V41.8478Z" fill="#F05033"/>
<path d="M22.7174 41.8478H23.913V43.0435H22.7174V41.8478Z" fill="#F05033"/>
<path d="M23.913 41.8478H25.1087V43.0435H23.913V41.8478Z" fill="#F05033"/>
<path d="M25.1087 41.8478H26.3043V43.0435H25.1087V41.8478Z" fill="#D9D9D9"/>
<path d="M26.3043 41.8478H27.5V43.0435H26.3043V41.8478Z" fill="#D9D9D9"/>
<path d="M27.5 41.8478H28.6957V43.0435H27.5V41.8478Z" fill="#D9D9D9"/>
<path d="M28.6957 41.8478H29.8913V43.0435H28.6957V41.8478Z" fill="#D9D9D9"/>
<path d="M29.8913 41.8478H31.087V43.0435H29.8913V41.8478Z" fill="#D9D9D9"/>
<path d="M31.087 41.8478H32.2826V43.0435H31.087V41.8478Z" fill="#F05033"/>
<path d="M32.2826 41.8478H33.4783V43.0435H32.2826V41.8478Z" fill="#F05033"/>
<path d="M33.4783 41.8478H34.6739V43.0435H33.4783V41.8478Z" fill="#F05033"/>
<path d="M34.6739 41.8478H35.8696V43.0435H34.6739V41.8478Z" fill="#F05033"/>
<path d="M35.8696 41.8478H37.0652V43.0435H35.8696V41.8478Z" fill="#F05033"/>
<path d="M37.0652 41.8478H38.2609V43.0435H37.0652V41.8478Z" fill="#F05033"/>
<path d="M38.2609 41.8478H39.4565V43.0435H38.2609V41.8478Z" fill="#F05033"/>
<path d="M39.4565 41.8478H40.6522V43.0435H39.4565V41.8478Z" fill="#F05033"/>
<path d="M40.6522 41.8478H41.8478V43.0435H40.6522V41.8478Z" fill="#F05033"/>
<path d="M41.8478 41.8478H43.0435V43.0435H41.8478V41.8478Z" fill="#F05033"/>
<path d="M14.3478 43.0435H15.5435V44.2391H14.3478V43.0435Z" fill="#F05033"/>
<path d="M15.5435 43.0435H16.7391V44.2391H15.5435V43.0435Z" fill="#F05033"/>
<path d="M16.7391 43.0435H17.9348V44.2391H16.7391V43.0435Z" fill="#F05033"/>
<path d="M17.9348 43.0435H19.1304V44.2391H17.9348V43.0435Z" fill="#F05033"/>
<path d="M19.1304 43.0435H20.3261V44.2391H19.1304V43.0435Z" fill="#F05033"/>
<path d="M20.3261 43.0435H21.5217V44.2391H20.3261V43.0435Z" fill="#F05033"/>
<path d="M21.5217 43.0435H22.7174V44.2391H21.5217V43.0435Z" fill="#F05033"/>
<path d="M22.7174 43.0435H23.913V44.2391H22.7174V43.0435Z" fill="#F05033"/>
<path d="M23.913 43.0435H25.1087V44.2391H23.913V43.0435Z" fill="#F05033"/>
<path d="M25.1087 43.0435H26.3043V44.2391H25.1087V43.0435Z" fill="#F05033"/>
<path d="M26.3043 43.0435H27.5V44.2391H26.3043V43.0435Z" fill="#F05033"/>
<path d="M27.5 43.0435H28.6957V44.2391H27.5V43.0435Z" fill="#DBC8C4"/>
<path d="M28.6957 43.0435H29.8913V44.2391H28.6957V43.0435Z" fill="#F05033"/>
<path d="M29.8913 43.0435H31.087V44.2391H29.8913V43.0435Z" fill="#F05033"/>
<path d="M31.087 43.0435H32.2826V44.2391H31.087V43.0435Z" fill="#F05033"/>
<path d="M32.2826 43.0435H33.4783V44.2391H32.2826V43.0435Z" fill="#F05033"/>
<path d="M33.4783 43.0435H34.6739V44.2391H33.4783V43.0435Z" fill="#F05033"/>
<path d="M34.6739 43.0435H35.8696V44.2391H34.6739V43.0435Z" fill="#F05033"/>
<path d="M35.8696 43.0435H37.0652V44.2391H35.8696V43.0435Z" fill="#F05033"/>
<path d="M37.0652 43.0435H38.2609V44.2391H37.0652V43.0435Z" fill="#F05033"/>
<path d="M38.2609 43.0435H39.4565V44.2391H38.2609V43.0435Z" fill="#F05033"/>
<path d="M39.4565 43.0435H40.6522V44.2391H39.4565V43.0435Z" fill="#F05033"/>
<path d="M40.6522 43.0435H41.8478V44.2391H40.6522V43.0435Z" fill="#F05033"/>
<path d="M15.5435 44.2391H16.7391V45.4348H15.5435V44.2391Z" fill="#F05033"/>
<path d="M16.7391 44.2391H17.9348V45.4348H16.7391V44.2391Z" fill="#F05033"/>
<path d="M17.9348 44.2391H19.1304V45.4348H17.9348V44.2391Z" fill="#F05033"/>
<path d="M19.1304 44.2391H20.3261V45.4348H19.1304V44.2391Z" fill="#F05033"/>
<path d="M20.3261 44.2391H21.5217V45.4348H20.3261V44.2391Z" fill="#F05033"/>
<path d="M21.5217 44.2391H22.7174V45.4348H21.5217V44.2391Z" fill="#F05033"/>
<path d="M22.7174 44.2391H23.913V45.4348H22.7174V44.2391Z" fill="#F05033"/>
<path d="M23.913 44.2391H25.1087V45.4348H23.913V44.2391Z" fill="#F05033"/>
<path d="M25.1087 44.2391H26.3043V45.4348H25.1087V44.2391Z" fill="#F05033"/>
<path d="M26.3043 44.2391H27.5V45.4348H26.3043V44.2391Z" fill="#F05033"/>
<path d="M27.5 44.2391H28.6957V45.4348H27.5V44.2391Z" fill="#F05033"/>
<path d="M28.6957 44.2391H29.8913V45.4348H28.6957V44.2391Z" fill="#F05033"/>
<path d="M29.8913 44.2391H31.087V45.4348H29.8913V44.2391Z" fill="#F05033"/>
<path d="M31.087 44.2391H32.2826V45.4348H31.087V44.2391Z" fill="#F05033"/>
<path d="M32.2826 44.2391H33.4783V45.4348H32.2826V44.2391Z" fill="#F05033"/>
<path d="M33.4783 44.2391H34.6739V45.4348H33.4783V44.2391Z" fill="#F05033"/>
<path d="M34.6739 44.2391H35.8696V45.4348H34.6739V44.2391Z" fill="#F05033"/>
<path d="M35.8696 44.2391H37.0652V45.4348H35.8696V44.2391Z" fill="#F05033"/>
<path d="M37.0652 44.2391H38.2609V45.4348H37.0652V44.2391Z" fill="#F05033"/>
<path d="M38.2609 44.2391H39.4565V45.4348H38.2609V44.2391Z" fill="#F05033"/>
<path d="M39.4565 44.2391H40.6522V45.4348H39.4565V44.2391Z" fill="#F05033"/>
<path d="M16.7391 45.4348H17.9348V46.6304H16.7391V45.4348Z" fill="#F05033"/>
<path d="M17.9348 45.4348H19.1304V46.6304H17.9348V45.4348Z" fill="#F05033"/>
<path d="M19.1304 45.4348H20.3261V46.6304H19.1304V45.4348Z" fill="#F05033"/>
<path d="M20.3261 45.4348H21.5217V46.6304H20.3261V45.4348Z" fill="#F05033"/>
<path d="M21.5217 45.4348H22.7174V46.6304H21.5217V45.4348Z" fill="#F05033"/>
<path d="M22.7174 45.4348H23.913V46.6304H22.7174V45.4348Z" fill="#F05033"/>
<path d="M23.913 45.4348H25.1087V46.6304H23.913V45.4348Z" fill="#F05033"/>
<path d="M25.1087 45.4348H26.3043V46.6304H25.1087V45.4348Z" fill="#F05033"/>
<path d="M26.3043 45.4348H27.5V46.6304H26.3043V45.4348Z" fill="#F05033"/>
<path d="M27.5 45.4348H28.6957V46.6304H27.5V45.4348Z" fill="#F05033"/>
<path d="M28.6957 45.4348H29.8913V46.6304H28.6957V45.4348Z" fill="#F05033"/>
<path d="M29.8913 45.4348H31.087V46.6304H29.8913V45.4348Z" fill="#F05033"/>
<path d="M31.087 45.4348H32.2826V46.6304H31.087V45.4348Z" fill="#F05033"/>
<path d="M32.2826 45.4348H33.4783V46.6304H32.2826V45.4348Z" fill="#F05033"/>
<path d="M33.4783 45.4348H34.6739V46.6304H33.4783V45.4348Z" fill="#F05033"/>
<path d="M34.6739 45.4348H35.8696V46.6304H34.6739V45.4348Z" fill="#F05033"/>
<path d="M35.8696 45.4348H37.0652V46.6304H35.8696V45.4348Z" fill="#F05033"/>
<path d="M37.0652 45.4348H38.2609V46.6304H37.0652V45.4348Z" fill="#F05033"/>
<path d="M38.2609 45.4348H39.4565V46.6304H38.2609V45.4348Z" fill="#F05033"/>
<path d="M17.9348 46.6304H19.1304V47.8261H17.9348V46.6304Z" fill="#F05033"/>
<path d="M19.1304 46.6304H20.3261V47.8261H19.1304V46.6304Z" fill="#F05033"/>
<path d="M20.3261 46.6304H21.5217V47.8261H20.3261V46.6304Z" fill="#F05033"/>
<path d="M21.5217 46.6304H22.7174V47.8261H21.5217V46.6304Z" fill="#F05033"/>
<path d="M22.7174 46.6304H23.913V47.8261H22.7174V46.6304Z" fill="#F05033"/>
<path d="M23.913 46.6304H25.1087V47.8261H23.913V46.6304Z" fill="#F05033"/>
<path d="M25.1087 46.6304H26.3043V47.8261H25.1087V46.6304Z" fill="#F05033"/>
<path d="M26.3043 46.6304H27.5V47.8261H26.3043V46.6304Z" fill="#F05033"/>
<path d="M27.5 46.6304H28.6957V47.8261H27.5V46.6304Z" fill="#F05033"/>
<path d="M28.6957 46.6304H29.8913V47.8261H28.6957V46.6304Z" fill="#F05033"/>
<path d="M29.8913 46.6304H31.087V47.8261H29.8913V46.6304Z" fill="#F05033"/>
<path d="M31.087 46.6304H32.2826V47.8261H31.087V46.6304Z" fill="#F05033"/>
<path d="M32.2826 46.6304H33.4783V47.8261H32.2826V46.6304Z" fill="#F05033"/>
<path d="M33.4783 46.6304H34.6739V47.8261H33.4783V46.6304Z" fill="#F05033"/>
<path d="M34.6739 46.6304H35.8696V47.8261H34.6739V46.6304Z" fill="#F05033"/>
<path d="M35.8696 46.6304H37.0652V47.8261H35.8696V46.6304Z" fill="#F05033"/>
<path d="M37.0652 46.6304H38.2609V47.8261H37.0652V46.6304Z" fill="#F05033"/>
<path d="M19.1304 47.8261H20.3261V49.0217H19.1304V47.8261Z" fill="#F05033"/>
<path d="M20.3261 47.8261H21.5217V49.0217H20.3261V47.8261Z" fill="#F05033"/>
<path d="M21.5217 47.8261H22.7174V49.0217H21.5217V47.8261Z" fill="#F05033"/>
<path d="M22.7174 47.8261H23.913V49.0217H22.7174V47.8261Z" fill="#F05033"/>
<path d="M23.913 47.8261H25.1087V49.0217H23.913V47.8261Z" fill="#F05033"/>
<path d="M25.1087 47.8261H26.3043V49.0217H25.1087V47.8261Z" fill="#F05033"/>
<path d="M26.3043 47.8261H27.5V49.0217H26.3043V47.8261Z" fill="#F05033"/>
<path d="M27.5 47.8261H28.6957V49.0217H27.5V47.8261Z" fill="#F05033"/>
<path d="M28.6957 47.8261H29.8913V49.0217H28.6957V47.8261Z" fill="#F05033"/>
<path d="M29.8913 47.8261H31.087V49.0217H29.8913V47.8261Z" fill="#F05033"/>
<path d="M31.087 47.8261H32.2826V49.0217H31.087V47.8261Z" fill="#F05033"/>
<path d="M32.2826 47.8261H33.4783V49.0217H32.2826V47.8261Z" fill="#F05033"/>
<path d="M33.4783 47.8261H34.6739V49.0217H33.4783V47.8261Z" fill="#F05033"/>
<path d="M34.6739 47.8261H35.8696V49.0217H34.6739V47.8261Z" fill="#F05033"/>
<path d="M35.8696 47.8261H37.0652V49.0217H35.8696V47.8261Z" fill="#F05033"/>
<path d="M20.3261 49.0217H21.5217V50.2174H20.3261V49.0217Z" fill="#F05033"/>
<path d="M21.5217 49.0217H22.7174V50.2174H21.5217V49.0217Z" fill="#F05033"/>
<path d="M22.7174 49.0217H23.913V50.2174H22.7174V49.0217Z" fill="#F05033"/>
<path d="M23.913 49.0217H25.1087V50.2174H23.913V49.0217Z" fill="#F05033"/>
<path d="M25.1087 49.0217H26.3043V50.2174H25.1087V49.0217Z" fill="#F05033"/>
<path d="M26.3043 49.0217H27.5V50.2174H26.3043V49.0217Z" fill="#F05033"/>
<path d="M27.5 49.0217H28.6957V50.2174H27.5V49.0217Z" fill="#F05033"/>
<path d="M28.6957 49.0217H29.8913V50.2174H28.6957V49.0217Z" fill="#F05033"/>
<path d="M29.8913 49.0217H31.087V50.2174H29.8913V49.0217Z" fill="#F05033"/>
<path d="M31.087 49.0217H32.2826V50.2174H31.087V49.0217Z" fill="#F05033"/>
<path d="M32.2826 49.0217H33.4783V50.2174H32.2826V49.0217Z" fill="#F05033"/>
<path d="M33.4783 49.0217H34.6739V50.2174H33.4783V49.0217Z" fill="#F05033"/>
<path d="M34.6739 49.0217H35.8696V50.2174H34.6739V49.0217Z" fill="#F05033"/>
<path d="M21.5217 50.2174H22.7174V51.413H21.5217V50.2174Z" fill="#F05033"/>
<path d="M22.7174 50.2174H23.913V51.413H22.7174V50.2174Z" fill="#F05033"/>
<path d="M23.913 50.2174H25.1087V51.413H23.913V50.2174Z" fill="#F05033"/>
<path d="M25.1087 50.2174H26.3043V51.413H25.1087V50.2174Z" fill="#F05033"/>
<path d="M26.3043 50.2174H27.5V51.413H26.3043V50.2174Z" fill="#F05033"/>
<path d="M27.5 50.2174H28.6957V51.413H27.5V50.2174Z" fill="#F05033"/>
<path d="M28.6957 50.2174H29.8913V51.413H28.6957V50.2174Z" fill="#F05033"/>
<path d="M29.8913 50.2174H31.087V51.413H29.8913V50.2174Z" fill="#F05033"/>
<path d="M31.087 50.2174H32.2826V51.413H31.087V50.2174Z" fill="#F05033"/>
<path d="M32.2826 50.2174H33.4783V51.413H32.2826V50.2174Z" fill="#F05033"/>
<path d="M33.4783 50.2174H34.6739V51.413H33.4783V50.2174Z" fill="#F05033"/>
<path d="M22.7174 51.413H23.913V52.6087H22.7174V51.413Z" fill="#F05033"/>
<path d="M23.913 51.413H25.1087V52.6087H23.913V51.413Z" fill="#F05033"/>
<path d="M25.1087 51.413H26.3043V52.6087H25.1087V51.413Z" fill="#F05033"/>
<path d="M26.3043 51.413H27.5V52.6087H26.3043V51.413Z" fill="#F05033"/>
<path d="M27.5 51.413H28.6957V52.6087H27.5V51.413Z" fill="#F05033"/>
<path d="M28.6957 51.413H29.8913V52.6087H28.6957V51.413Z" fill="#F05033"/>
<path d="M29.8913 51.413H31.087V52.6087H29.8913V51.413Z" fill="#F05033"/>
<path d="M31.087 51.413H32.2826V52.6087H31.087V51.413Z" fill="#F05033"/>
<path d="M32.2826 51.413H33.4783V52.6087H32.2826V51.413Z" fill="#F05033"/>
<path d="M23.913 52.6087H25.1087V53.8044H23.913V52.6087Z" fill="#F05033"/>
<path d="M25.1087 52.6087H26.3043V53.8044H25.1087V52.6087Z" fill="#F05033"/>
<path d="M26.3043 52.6087H27.5V53.8044H26.3043V52.6087Z" fill="#F05033"/>
<path d="M27.5 52.6087H28.6957V53.8044H27.5V52.6087Z" fill="#F05033"/>
<path d="M28.6957 52.6087H29.8913V53.8044H28.6957V52.6087Z" fill="#F05033"/>
<path d="M29.8913 52.6087H31.087V53.8044H29.8913V52.6087Z" fill="#F05033"/>
<path d="M31.087 52.6087H32.2826V53.8044H31.087V52.6087Z" fill="#F05033"/>
<path d="M26.3043 53.8044H27.5V55H26.3043V53.8044Z" fill="#F05033"/>
<path d="M27.5 53.8044H28.6957V55H27.5V53.8044Z" fill="#F05033"/>
<path d="M28.6957 53.8044H29.8913V55H28.6957V53.8044Z" fill="#F05033"/>
</svg>
