<svg width="48" height="56" viewBox="0 0 48 56" fill="none" xmlns="http://www.w3.org/2000/svg">
<path d="M24 0H25.1429V1.16667H24V0Z" fill="#90C53F"/>
<path d="M21.7143 1.16666H22.8572V2.33333H21.7143V1.16666Z" fill="#90C53F"/>
<path d="M22.8572 1.16666L24 1.16667L24 2.33333H22.8572V1.16666Z" fill="#90C53F"/>
<path d="M24 1.16667H25.1429V2.33333H24L24 1.16667Z" fill="#90C53F"/>
<path d="M25.1429 1.16667L26.2858 1.16666V2.33333H25.1429V1.16667Z" fill="#90C53F"/>
<path d="M26.2858 1.16666H27.4286V2.33333H26.2858V1.16666Z" fill="#90C53F"/>
<path d="M19.4286 2.33334H20.5714V3.5H19.4286V2.33334Z" fill="#90C53F"/>
<path d="M20.5714 2.33334L21.7143 2.33333L21.7143 3.5H20.5714V2.33334Z" fill="#90C53F"/>
<path d="M21.7143 2.33333H22.8572V3.5H21.7143L21.7143 2.33333Z" fill="#90C53F"/>
<path d="M22.8572 2.33333H24V3.5H22.8572V2.33333Z" fill="#90C53F"/>
<path d="M24 2.33333H25.1429V3.5H24V2.33333Z" fill="#90C53F"/>
<path d="M25.1429 2.33333H26.2858V3.5H25.1429V2.33333Z" fill="#90C53F"/>
<path d="M26.2858 2.33333H27.4286V3.5H26.2858V2.33333Z" fill="#90C53F"/>
<path d="M27.4286 2.33333L28.5714 2.33334V3.5H27.4286V2.33333Z" fill="#90C53F"/>
<path d="M28.5714 2.33334H29.7143V3.5H28.5714V2.33334Z" fill="#90C53F"/>
<path d="M17.1429 3.5H18.2857V4.66667H17.1429V3.5Z" fill="#90C53F"/>
<path d="M18.2857 3.5L19.4286 3.5L19.4286 4.66667H18.2857V3.5Z" fill="#90C53F"/>
<path d="M19.4286 3.5H20.5714V4.66667H19.4286L19.4286 3.5Z" fill="#90C53F"/>
<path d="M20.5714 3.5H21.7143V4.66667H20.5714V3.5Z" fill="#90C53F"/>
<path d="M21.7143 3.5H22.8572V4.66667H21.7143V3.5Z" fill="#90C53F"/>
<path d="M22.8572 3.5H24V4.66667H22.8572V3.5Z" fill="#90C53F"/>
<path d="M24 3.5H25.1429V4.66667H24V3.5Z" fill="#90C53F"/>
<path d="M25.1429 3.5H26.2858V4.66667H25.1429V3.5Z" fill="#90C53F"/>
<path d="M26.2858 3.5H27.4286V4.66667H26.2858V3.5Z" fill="#90C53F"/>
<path d="M27.4286 3.5H28.5714V4.66667H27.4286V3.5Z" fill="#90C53F"/>
<path d="M28.5714 3.5H29.7143V4.66667H28.5714V3.5Z" fill="#90C53F"/>
<path d="M29.7143 3.5L30.8571 3.5V4.66667H29.7143V3.5Z" fill="#90C53F"/>
<path d="M30.8571 3.5H32V4.66667H30.8571V3.5Z" fill="#90C53F"/>
<path d="M14.8572 4.66666H16V5.83333H14.8572V4.66666Z" fill="#90C53F"/>
<path d="M16 4.66666L17.1429 4.66667L17.1428 5.83333H16V4.66666Z" fill="#90C53F"/>
<path d="M17.1429 4.66667H18.2857V5.83333H17.1428L17.1429 4.66667Z" fill="#90C53F"/>
<path d="M18.2857 4.66667H19.4286V5.83333H18.2857V4.66667Z" fill="#90C53F"/>
<path d="M19.4286 4.66667H20.5714V5.83333H19.4286V4.66667Z" fill="#90C53F"/>
<path d="M20.5714 4.66667H21.7143V5.83333H20.5714V4.66667Z" fill="#90C53F"/>
<path d="M21.7143 4.66667H22.8572V5.83333H21.7143V4.66667Z" fill="#90C53F"/>
<path d="M26.2858 4.66667H27.4286V5.83333H26.2857L26.2858 4.66667Z" fill="#90C53F"/>
<path d="M27.4286 4.66667H28.5714V5.83333H27.4286V4.66667Z" fill="#90C53F"/>
<path d="M28.5714 4.66667H29.7143V5.83333H28.5714V4.66667Z" fill="#90C53F"/>
<path d="M29.7143 4.66667H30.8571V5.83333H29.7143V4.66667Z" fill="#90C53F"/>
<path d="M30.8571 4.66667H32V5.83333H30.8571V4.66667Z" fill="#90C53F"/>
<path d="M32 4.66667L33.1429 4.66666V5.83333H32V4.66667Z" fill="#90C53F"/>
<path d="M13.7143 5.83334L14.8572 5.83333L14.8572 7H13.7143V5.83334Z" fill="#90C53F"/>
<path d="M14.8572 5.83333H16V7H14.8572L14.8572 5.83333Z" fill="#90C53F"/>
<path d="M16 5.83333H17.1428V7H16V5.83333Z" fill="#90C53F"/>
<path d="M17.1428 5.83333H18.2857V7H17.1428V5.83333Z" fill="#90C53F"/>
<path d="M18.2857 5.83333H19.4286V7H18.2857V5.83333Z" fill="#90C53F"/>
<path d="M19.4286 5.83333H20.5714V7H19.4286V5.83333Z" fill="#90C53F"/>
<path d="M28.5714 5.83333H29.7143V7H28.5715L28.5714 5.83333Z" fill="#90C53F"/>
<path d="M29.7143 5.83333H30.8571V7H29.7143V5.83333Z" fill="#90C53F"/>
<path d="M30.8571 5.83333H32V7H30.8571V5.83333Z" fill="#90C53F"/>
<path d="M32 5.83333H33.1429V7H32V5.83333Z" fill="#90C53F"/>
<path d="M33.1429 5.83333L34.2857 5.83334V7H33.1429V5.83333Z" fill="#90C53F"/>
<path d="M34.2857 5.83334H35.4286V7H34.2857V5.83334Z" fill="#90C53F"/>
<path d="M11.4286 7H12.5715V8.16667H11.4286V7Z" fill="#90C53F"/>
<path d="M12.5715 7L13.7143 7L13.7143 8.16667H12.5715V7Z" fill="#90C53F"/>
<path d="M13.7143 7H14.8572V8.16667H13.7143L13.7143 7Z" fill="#90C53F"/>
<path d="M14.8572 7H16V8.16667H14.8572V7Z" fill="#90C53F"/>
<path d="M16 7H17.1428V8.16667H16V7Z" fill="#90C53F"/>
<path d="M17.1428 7H18.2857V8.16667H17.1428V7Z" fill="#90C53F"/>
<path d="M30.8571 7H32V8.16667H30.8572L30.8571 7Z" fill="#90C53F"/>
<path d="M32 7H33.1429V8.16667H32V7Z" fill="#90C53F"/>
<path d="M33.1429 7H34.2857V8.16667H33.1429V7Z" fill="#90C53F"/>
<path d="M34.2857 7H35.4286V8.16667H34.2857V7Z" fill="#90C53F"/>
<path d="M35.4286 7L36.5715 7V8.16667H35.4286V7Z" fill="#90C53F"/>
<path d="M36.5715 7H37.7143V8.16667H36.5715V7Z" fill="#90C53F"/>
<path d="M9.14283 8.16666H10.2857V9.33333H9.14283V8.16666Z" fill="#90C53F"/>
<path d="M10.2857 8.16666L11.4286 8.16667L11.4286 9.33333H10.2857V8.16666Z" fill="#90C53F"/>
<path d="M11.4286 8.16667H12.5715V9.33333H11.4286L11.4286 8.16667Z" fill="#90C53F"/>
<path d="M12.5715 8.16667H13.7143V9.33333H12.5715V8.16667Z" fill="#90C53F"/>
<path d="M13.7143 8.16667H14.8572V9.33333H13.7143V8.16667Z" fill="#90C53F"/>
<path d="M14.8572 8.16667H16V9.33333H14.8572V8.16667Z" fill="#90C53F"/>
<path d="M32 8.16667H33.1429V9.33333H32L32 8.16667Z" fill="#90C53F"/>
<path d="M33.1429 8.16667H34.2857V9.33333H33.1429V8.16667Z" fill="#90C53F"/>
<path d="M34.2857 8.16667H35.4286V9.33333H34.2857V8.16667Z" fill="#90C53F"/>
<path d="M35.4286 8.16667H36.5715V9.33333H35.4286V8.16667Z" fill="#90C53F"/>
<path d="M36.5715 8.16667H37.7143V9.33333H36.5715V8.16667Z" fill="#90C53F"/>
<path d="M37.7143 8.16667L38.8572 8.16666V9.33333H37.7143V8.16667Z" fill="#90C53F"/>
<path d="M38.8572 8.16666H40.0001V9.33333H38.8572V8.16666Z" fill="#90C53F"/>
<path d="M6.85715 9.33334H8V10.5H6.85715V9.33334Z" fill="#90C63F"/>
<path d="M8 9.33334L9.14283 9.33333L9.14289 10.5H8V9.33334Z" fill="#90C53F"/>
<path d="M9.14283 9.33333H10.2857V10.5H9.14289L9.14283 9.33333Z" fill="#90C53F"/>
<path d="M10.2857 9.33333H11.4286V10.5H10.2857V9.33333Z" fill="#90C53F"/>
<path d="M11.4286 9.33333H12.5715V10.5H11.4286V9.33333Z" fill="#90C53F"/>
<path d="M12.5715 9.33333H13.7143V10.5H12.5715V9.33333Z" fill="#90C53F"/>
<path d="M13.7143 9.33333H14.8572V10.5H13.7143V9.33333Z" fill="#90C53F"/>
<path d="M34.2857 9.33333H35.4286V10.5H34.2857L34.2857 9.33333Z" fill="#90C53F"/>
<path d="M35.4286 9.33333H36.5715V10.5H35.4286V9.33333Z" fill="#90C53F"/>
<path d="M36.5715 9.33333H37.7143V10.5H36.5715V9.33333Z" fill="#90C53F"/>
<path d="M37.7143 9.33333H38.8572V10.5H37.7143V9.33333Z" fill="#90C53F"/>
<path d="M38.8572 9.33333H40.0001V10.5H38.8572V9.33333Z" fill="#90C53F"/>
<path d="M40.0001 9.33333L41.1429 9.33334V10.5H40.0001V9.33333Z" fill="#90C53F"/>
<path d="M5.71426 10.5L6.85715 10.5L6.85712 11.6667H5.71426V10.5Z" fill="#90C53F"/>
<path d="M6.85715 10.5H8V11.6667H6.85712L6.85715 10.5Z" fill="#90C53F"/>
<path d="M8 10.5H9.14289V11.6667H8V10.5Z" fill="#90C53F"/>
<path d="M9.14289 10.5H10.2857V11.6667H9.14289V10.5Z" fill="#90C53F"/>
<path d="M10.2857 10.5H11.4286V11.6667H10.2857V10.5Z" fill="#90C53F"/>
<path d="M11.4286 10.5H12.5715V11.6667H11.4286V10.5Z" fill="#90C53F"/>
<path d="M36.5715 10.5H37.7143V11.6667H36.5714L36.5715 10.5Z" fill="#90C53F"/>
<path d="M37.7143 10.5H38.8572V11.6667H37.7143V10.5Z" fill="#90C53F"/>
<path d="M38.8572 10.5H40.0001V11.6667H38.8572V10.5Z" fill="#90C53F"/>
<path d="M40.0001 10.5H41.1429V11.6667H40.0001V10.5Z" fill="#90C53F"/>
<path d="M41.1429 10.5L42.2857 10.5V11.6667H41.1429V10.5Z" fill="#90C53F"/>
<path d="M42.2857 10.5H43.4286V11.6667H42.2857V10.5Z" fill="#90C53F"/>
<path d="M3.42857 11.6667H4.57143V12.8333H3.42857V11.6667Z" fill="#90C53F"/>
<path d="M4.57143 11.6667L5.71426 11.6667L5.71432 12.8333H4.57143V11.6667Z" fill="#90C53F"/>
<path d="M5.71426 11.6667H6.85712V12.8333H5.71432L5.71426 11.6667Z" fill="#90C53F"/>
<path d="M6.85712 11.6667H8V12.8333H6.85712V11.6667Z" fill="#90C53F"/>
<path d="M8 11.6667H9.14289V12.8333H8V11.6667Z" fill="#90C53F"/>
<path d="M9.14289 11.6667H10.2857V12.8333H9.14289V11.6667Z" fill="#90C53F"/>
<path d="M38.8572 11.6667H40.0001V12.8333H38.8572L38.8572 11.6667Z" fill="#90C53F"/>
<path d="M40.0001 11.6667H41.1429V12.8333H40.0001V11.6667Z" fill="#90C53F"/>
<path d="M41.1429 11.6667H42.2857V12.8333H41.1429V11.6667Z" fill="#90C53F"/>
<path d="M42.2857 11.6667H43.4286V12.8333H42.2857V11.6667Z" fill="#90C53F"/>
<path d="M43.4286 11.6667L44.5714 11.6667V12.8333H43.4286V11.6667Z" fill="#90C53F"/>
<path d="M44.5714 11.6667H45.7143V12.8333H44.5714V11.6667Z" fill="#90C53F"/>
<path d="M1.14289 12.8333H2.28575V14H1.14289V12.8333Z" fill="#8FBF40"/>
<path d="M2.28575 12.8333L3.42857 12.8333L3.42854 14H2.28575V12.8333Z" fill="#90C53F"/>
<path d="M3.42857 12.8333H4.57143V14H3.42854L3.42857 12.8333Z" fill="#90C53F"/>
<path d="M4.57143 12.8333H5.71432V14H4.57143V12.8333Z" fill="#90C53F"/>
<path d="M5.71432 12.8333H6.85712V14H5.71432V12.8333Z" fill="#90C53F"/>
<path d="M6.85712 12.8333H8V14H6.85712V12.8333Z" fill="#90C53F"/>
<path d="M8 12.8333H9.14289V14H8V12.8333Z" fill="#8FC340"/>
<path d="M40.0001 12.8333H41.1429V14H40L40.0001 12.8333Z" fill="#90C53F"/>
<path d="M41.1429 12.8333H42.2857V14H41.1429V12.8333Z" fill="#90C53F"/>
<path d="M42.2857 12.8333H43.4286V14H42.2857V12.8333Z" fill="#90C53F"/>
<path d="M43.4286 12.8333H44.5714V14H43.4286V12.8333Z" fill="#90C53F"/>
<path d="M44.5714 12.8333H45.7143V14H44.5714V12.8333Z" fill="#90C53F"/>
<path d="M45.7143 12.8333L46.8572 12.8333V14H45.7143V12.8333Z" fill="#90C53F"/>
<path d="M1.14289 14H2.28575V15.1667H1.14289V14Z" fill="#90C53F"/>
<path d="M2.28575 14H3.42854V15.1667H2.28575V14Z" fill="#90C53F"/>
<path d="M3.42854 14H4.57143V15.1667H3.42854V14Z" fill="#90C53F"/>
<path d="M4.57143 14H5.71432V15.1667H4.57143V14Z" fill="#90C53F"/>
<path d="M5.71432 14H6.85712V15.1667H5.71432V14Z" fill="#90C53F"/>
<path d="M42.2857 14H43.4286V15.1667H42.2858L42.2857 14Z" fill="#90C53F"/>
<path d="M43.4286 14H44.5714V15.1667H43.4286V14Z" fill="#90C53F"/>
<path d="M44.5714 14H45.7143V15.1667H44.5714V14Z" fill="#90C53F"/>
<path d="M45.7143 14H46.8572V15.1667H45.7143V14Z" fill="#90C53F"/>
<path d="M46.8572 14L48 14V15.1667H46.8572V14Z" fill="#90C53F"/>
<path d="M0 15.1667L1.14289 15.1667L1.14286 16.3333H0V15.1667Z" fill="#8FC540"/>
<path d="M1.14289 15.1667H2.28575V16.3333H1.14286L1.14289 15.1667Z" fill="#90C53F"/>
<path d="M2.28575 15.1667H3.42854V16.3333H2.28575V15.1667Z" fill="#90C53F"/>
<path d="M3.42854 15.1667H4.57143V16.3333H3.42854V15.1667Z" fill="#90C53F"/>
<path d="M44.5714 15.1667H45.7143V16.3333H44.5715L44.5714 15.1667Z" fill="#90C53F"/>
<path d="M45.7143 15.1667H46.8572V16.3333H45.7143V15.1667Z" fill="#90C53F"/>
<path d="M46.8572 15.1667H48V16.3333H46.8572V15.1667Z" fill="#90C53F"/>
<path d="M0 16.3333H1.14286V17.5H0V16.3333Z" fill="#90C53F"/>
<path d="M1.14286 16.3333H2.28575V17.5H1.14286V16.3333Z" fill="#90C53F"/>
<path d="M2.28575 16.3333H3.42854V17.5H2.28575V16.3333Z" fill="#90C53F"/>
<path d="M3.42854 16.3333H4.57143V17.5H3.42854V16.3333Z" fill="#90C53F"/>
<path d="M44.5715 16.3333H45.7143V17.5H44.5715V16.3333Z" fill="#90C53F"/>
<path d="M45.7143 16.3333H46.8572V17.5H45.7143V16.3333Z" fill="#90C53F"/>
<path d="M46.8572 16.3333H48V17.5H46.8572V16.3333Z" fill="#90C53F"/>
<path d="M0 17.5H1.14286V18.6667H0V17.5Z" fill="#90C53F"/>
<path d="M1.14286 17.5H2.28575V18.6667H1.14286V17.5Z" fill="#90C53F"/>
<path d="M2.28575 17.5H3.42854V18.6667H2.28575V17.5Z" fill="#90C53F"/>
<path d="M3.42854 17.5H4.57143V18.6667H3.42854V17.5Z" fill="#90C53F"/>
<path d="M14.8572 17.5H16V18.6667H14.8572V17.5Z" fill="#90C53F"/>
<path d="M16 17.5H17.1428V18.6667H16V17.5Z" fill="#90C53F"/>
<path d="M17.1428 17.5H18.2857V18.6667H17.1428V17.5Z" fill="#90C53F"/>
<path d="M24 17.5H25.1429V18.6667H24V17.5Z" fill="#8FBF40"/>
<path d="M25.1429 17.5H26.2858V18.6667H25.1429V17.5Z" fill="#90C53F"/>
<path d="M26.2858 17.5H27.4286V18.6667H26.2858V17.5Z" fill="#90C53F"/>
<path d="M27.4286 17.5H28.5714V18.6667H27.4286V17.5Z" fill="#90C53F"/>
<path d="M28.5714 17.5H29.7143V18.6667H28.5714V17.5Z" fill="#90C53F"/>
<path d="M29.7143 17.5H30.8571V18.6667H29.7143V17.5Z" fill="#90C53F"/>
<path d="M30.8571 17.5H32V18.6667H30.8571V17.5Z" fill="#90C53F"/>
<path d="M32 17.5H33.1429V18.6667H32V17.5Z" fill="#90C53F"/>
<path d="M33.1429 17.5H34.2857V18.6667H33.1429V17.5Z" fill="#90C53F"/>
<path d="M34.2857 17.5H35.4286V18.6667H34.2857V17.5Z" fill="#90C53F"/>
<path d="M44.5715 17.5H45.7143V18.6667H44.5715V17.5Z" fill="#90C53F"/>
<path d="M45.7143 17.5H46.8572V18.6667H45.7143V17.5Z" fill="#90C53F"/>
<path d="M46.8572 17.5H48V18.6667H46.8572V17.5Z" fill="#90C53F"/>
<path d="M0 18.6667H1.14286V19.8333H0V18.6667Z" fill="#90C53F"/>
<path d="M1.14286 18.6667H2.28575V19.8333H1.14286V18.6667Z" fill="#90C53F"/>
<path d="M2.28575 18.6667H3.42854V19.8333H2.28575V18.6667Z" fill="#90C53F"/>
<path d="M3.42854 18.6667H4.57143V19.8333H3.42854V18.6667Z" fill="#90C53F"/>
<path d="M14.8572 18.6667H16V19.8333H14.8572V18.6667Z" fill="#90C53F"/>
<path d="M16 18.6667H17.1428V19.8333H16V18.6667Z" fill="#90C53F"/>
<path d="M17.1428 18.6667H18.2857V19.8333H17.1428V18.6667Z" fill="#90C53F"/>
<path d="M22.8571 18.6667L24 18.6667L24 19.8333H22.8571V18.6667Z" fill="#90C53F"/>
<path d="M24 18.6667H25.1429V19.8333H24L24 18.6667Z" fill="#90C53F"/>
<path d="M25.1429 18.6667H26.2858V19.8333H25.1429V18.6667Z" fill="#90C53F"/>
<path d="M26.2858 18.6667H27.4286V19.8333H26.2858V18.6667Z" fill="#90C53F"/>
<path d="M27.4286 18.6667H28.5714V19.8333H27.4286V18.6667Z" fill="#90C53F"/>
<path d="M28.5714 18.6667H29.7143V19.8333H28.5714V18.6667Z" fill="#90C53F"/>
<path d="M29.7143 18.6667H30.8571V19.8333H29.7143V18.6667Z" fill="#90C53F"/>
<path d="M30.8571 18.6667H32V19.8333H30.8571V18.6667Z" fill="#90C53F"/>
<path d="M32 18.6667H33.1429V19.8333H32V18.6667Z" fill="#90C53F"/>
<path d="M33.1429 18.6667H34.2857V19.8333H33.1429V18.6667Z" fill="#90C53F"/>
<path d="M34.2857 18.6667H35.4286V19.8333H34.2857V18.6667Z" fill="#90C53F"/>
<path d="M35.4286 18.6667L36.5715 18.6667V19.8333H35.4286V18.6667Z" fill="#90C53F"/>
<path d="M36.5715 18.6667H37.7143V19.8333H36.5715V18.6667Z" fill="#90C53F"/>
<path d="M44.5715 18.6667H45.7143V19.8333H44.5715V18.6667Z" fill="#90C53F"/>
<path d="M45.7143 18.6667H46.8572V19.8333H45.7143V18.6667Z" fill="#90C53F"/>
<path d="M46.8572 18.6667H48V19.8333H46.8572V18.6667Z" fill="#90C53F"/>
<path d="M0 19.8333H1.14286V21H0V19.8333Z" fill="#90C53F"/>
<path d="M1.14286 19.8333H2.28575V21H1.14286V19.8333Z" fill="#90C53F"/>
<path d="M2.28575 19.8333H3.42854V21H2.28575V19.8333Z" fill="#90C53F"/>
<path d="M3.42854 19.8333H4.57143V21H3.42854V19.8333Z" fill="#90C53F"/>
<path d="M14.8572 19.8333H16V21H14.8572V19.8333Z" fill="#90C53F"/>
<path d="M16 19.8333H17.1428V21H16V19.8333Z" fill="#90C53F"/>
<path d="M17.1428 19.8333H18.2857V21H17.1428V19.8333Z" fill="#90C53F"/>
<path d="M21.7143 19.8333L22.8571 19.8333L22.8572 21H21.7143V19.8333Z" fill="#90C53F"/>
<path d="M22.8571 19.8333H24V21H22.8572L22.8571 19.8333Z" fill="#90C53F"/>
<path d="M24 19.8333H25.1429V21H24V19.8333Z" fill="#90C53F"/>
<path d="M25.1429 19.8333H26.2858V21H25.1429V19.8333Z" fill="#90C53F"/>
<path d="M26.2858 19.8333H27.4286V21H26.2858V19.8333Z" fill="#90C53F"/>
<path d="M27.4286 19.8333H28.5714V21H27.4286V19.8333Z" fill="#90C53F"/>
<path d="M28.5714 19.8333H29.7143V21H28.5714V19.8333Z" fill="#90C53F"/>
<path d="M29.7143 19.8333H30.8571V21H29.7143V19.8333Z" fill="#90C53F"/>
<path d="M30.8571 19.8333H32V21H30.8571V19.8333Z" fill="#90C53F"/>
<path d="M32 19.8333H33.1429V21H32V19.8333Z" fill="#90C53F"/>
<path d="M33.1429 19.8333H34.2857V21H33.1429V19.8333Z" fill="#90C53F"/>
<path d="M34.2857 19.8333H35.4286V21H34.2857V19.8333Z" fill="#90C53F"/>
<path d="M35.4286 19.8333H36.5715V21H35.4286V19.8333Z" fill="#90C53F"/>
<path d="M36.5715 19.8333H37.7143V21H36.5715V19.8333Z" fill="#90C53F"/>
<path d="M37.7143 19.8333L38.8572 19.8333V21H37.7143V19.8333Z" fill="#90C53F"/>
<path d="M44.5715 19.8333H45.7143V21H44.5715V19.8333Z" fill="#90C53F"/>
<path d="M45.7143 19.8333H46.8572V21H45.7143V19.8333Z" fill="#90C53F"/>
<path d="M46.8572 19.8333H48V21H46.8572V19.8333Z" fill="#90C53F"/>
<path d="M0 21H1.14286V22.1667H0V21Z" fill="#90C53F"/>
<path d="M1.14286 21H2.28575V22.1667H1.14286V21Z" fill="#90C53F"/>
<path d="M2.28575 21H3.42854V22.1667H2.28575V21Z" fill="#90C53F"/>
<path d="M3.42854 21H4.57143V22.1667H3.42854V21Z" fill="#90C53F"/>
<path d="M14.8572 21H16V22.1667H14.8572V21Z" fill="#90C53F"/>
<path d="M16 21H17.1428V22.1667H16V21Z" fill="#90C53F"/>
<path d="M17.1428 21H18.2857V22.1667H17.1428V21Z" fill="#90C53F"/>
<path d="M20.5714 21L21.7143 21L21.7143 22.1667H20.5714V21Z" fill="#90C53F"/>
<path d="M21.7143 21H22.8572V22.1667H21.7143L21.7143 21Z" fill="#90C53F"/>
<path d="M22.8572 21H24V22.1667H22.8572V21Z" fill="#90C53F"/>
<path d="M24 21H25.1429V22.1667H24V21Z" fill="#90C53F"/>
<path d="M25.1429 21H26.2858V22.1667H25.1429V21Z" fill="#8FC740"/>
<path d="M34.2857 21H35.4286V22.1667H34.2857L34.2857 21Z" fill="#90C53F"/>
<path d="M35.4286 21H36.5715V22.1667H35.4286V21Z" fill="#90C53F"/>
<path d="M36.5715 21H37.7143V22.1667H36.5715V21Z" fill="#90C53F"/>
<path d="M37.7143 21H38.8572V22.1667H37.7143V21Z" fill="#90C53F"/>
<path d="M44.5715 21H45.7143V22.1667H44.5715V21Z" fill="#90C53F"/>
<path d="M45.7143 21H46.8572V22.1667H45.7143V21Z" fill="#90C53F"/>
<path d="M46.8572 21H48V22.1667H46.8572V21Z" fill="#90C53F"/>
<path d="M0 22.1667H1.14286V23.3333H0V22.1667Z" fill="#90C53F"/>
<path d="M1.14286 22.1667H2.28575V23.3333H1.14286V22.1667Z" fill="#90C53F"/>
<path d="M2.28575 22.1667H3.42854V23.3333H2.28575V22.1667Z" fill="#90C53F"/>
<path d="M3.42854 22.1667H4.57143V23.3333H3.42854V22.1667Z" fill="#90C53F"/>
<path d="M14.8572 22.1667H16V23.3333H14.8572V22.1667Z" fill="#90C53F"/>
<path d="M16 22.1667H17.1428V23.3333H16V22.1667Z" fill="#90C53F"/>
<path d="M17.1428 22.1667H18.2857V23.3333H17.1428V22.1667Z" fill="#90C53F"/>
<path d="M20.5714 22.1667H21.7143V23.3333H20.5714V22.1667Z" fill="#90C53F"/>
<path d="M21.7143 22.1667H22.8572V23.3333H21.7143V22.1667Z" fill="#90C53F"/>
<path d="M22.8572 22.1667H24V23.3333H22.8572V22.1667Z" fill="#90C53F"/>
<path d="M24 22.1667H25.1429V23.3333H24V22.1667Z" fill="#90C53F"/>
<path d="M35.4286 22.1667H36.5715V23.3333H35.4286L35.4286 22.1667Z" fill="#90C53F"/>
<path d="M36.5715 22.1667H37.7143V23.3333H36.5715V22.1667Z" fill="#90C53F"/>
<path d="M37.7143 22.1667H38.8572V23.3333H37.7143V22.1667Z" fill="#90C53F"/>
<path d="M44.5715 22.1667H45.7143V23.3333H44.5715V22.1667Z" fill="#90C53F"/>
<path d="M45.7143 22.1667H46.8572V23.3333H45.7143V22.1667Z" fill="#90C53F"/>
<path d="M46.8572 22.1667H48V23.3333H46.8572V22.1667Z" fill="#90C53F"/>
<path d="M0 23.3333H1.14286V24.5H0V23.3333Z" fill="#90C53F"/>
<path d="M1.14286 23.3333H2.28575V24.5H1.14286V23.3333Z" fill="#90C53F"/>
<path d="M2.28575 23.3333H3.42854V24.5H2.28575V23.3333Z" fill="#90C53F"/>
<path d="M3.42854 23.3333H4.57143V24.5H3.42854V23.3333Z" fill="#90C53F"/>
<path d="M14.8572 23.3333H16V24.5H14.8572V23.3333Z" fill="#90C53F"/>
<path d="M16 23.3333H17.1428V24.5H16V23.3333Z" fill="#90C53F"/>
<path d="M17.1428 23.3333H18.2857V24.5H17.1428V23.3333Z" fill="#90C53F"/>
<path d="M20.5714 23.3333H21.7143V24.5H20.5714V23.3333Z" fill="#90C53F"/>
<path d="M21.7143 23.3333H22.8572V24.5H21.7143V23.3333Z" fill="#90C53F"/>
<path d="M22.8572 23.3333H24V24.5H22.8572V23.3333Z" fill="#90C53F"/>
<path d="M24 23.3333H25.1429V24.5H24V23.3333Z" fill="#90C53F"/>
<path d="M35.4286 23.3333H36.5715V24.5H35.4286V23.3333Z" fill="#90C53F"/>
<path d="M36.5715 23.3333H37.7143V24.5H36.5715V23.3333Z" fill="#90C53F"/>
<path d="M37.7143 23.3333H38.8572V24.5H37.7143V23.3333Z" fill="#90C53F"/>
<path d="M38.8572 23.3333L40.0001 23.3333V24.5H38.8572V23.3333Z" fill="#90C53F"/>
<path d="M44.5715 23.3333H45.7143V24.5H44.5715V23.3333Z" fill="#90C53F"/>
<path d="M45.7143 23.3333H46.8572V24.5H45.7143V23.3333Z" fill="#90C53F"/>
<path d="M46.8572 23.3333H48V24.5H46.8572V23.3333Z" fill="#90C53F"/>
<path d="M0 24.5H1.14286V25.6667H0V24.5Z" fill="#90C53F"/>
<path d="M1.14286 24.5H2.28575V25.6667H1.14286V24.5Z" fill="#90C53F"/>
<path d="M2.28575 24.5H3.42854V25.6667H2.28575V24.5Z" fill="#90C53F"/>
<path d="M3.42854 24.5H4.57143V25.6667H3.42854V24.5Z" fill="#90C53F"/>
<path d="M14.8572 24.5H16V25.6667H14.8572V24.5Z" fill="#90C53F"/>
<path d="M16 24.5H17.1428V25.6667H16V24.5Z" fill="#90C53F"/>
<path d="M17.1428 24.5H18.2857V25.6667H17.1428V24.5Z" fill="#90C53F"/>
<path d="M20.5714 24.5H21.7143V25.6667H20.5714V24.5Z" fill="#90C53F"/>
<path d="M21.7143 24.5H22.8572V25.6667H21.7143V24.5Z" fill="#90C53F"/>
<path d="M22.8572 24.5H24V25.6667H22.8572V24.5Z" fill="#90C53F"/>
<path d="M24 24.5H25.1429V25.6667H24V24.5Z" fill="#90C53F"/>
<path d="M44.5715 24.5H45.7143V25.6667H44.5715V24.5Z" fill="#90C53F"/>
<path d="M45.7143 24.5H46.8572V25.6667H45.7143V24.5Z" fill="#90C53F"/>
<path d="M46.8572 24.5H48V25.6667H46.8572V24.5Z" fill="#90C53F"/>
<path d="M0 25.6667H1.14286V26.8333H0V25.6667Z" fill="#90C53F"/>
<path d="M1.14286 25.6667H2.28575V26.8333H1.14286V25.6667Z" fill="#90C53F"/>
<path d="M2.28575 25.6667H3.42854V26.8333H2.28575V25.6667Z" fill="#90C53F"/>
<path d="M3.42854 25.6667H4.57143V26.8333H3.42854V25.6667Z" fill="#90C53F"/>
<path d="M14.8572 25.6667H16V26.8333H14.8572V25.6667Z" fill="#90C53F"/>
<path d="M16 25.6667H17.1428V26.8333H16V25.6667Z" fill="#90C53F"/>
<path d="M17.1428 25.6667H18.2857V26.8333H17.1428V25.6667Z" fill="#90C53F"/>
<path d="M21.7143 25.6667H22.8572V26.8333H21.7143L21.7143 25.6667Z" fill="#90C53F"/>
<path d="M22.8572 25.6667H24V26.8333H22.8572V25.6667Z" fill="#90C53F"/>
<path d="M24 25.6667H25.1429V26.8333H24V25.6667Z" fill="#90C53F"/>
<path d="M25.1429 25.6667L26.2858 25.6667V26.8333H25.1429V25.6667Z" fill="#90C53F"/>
<path d="M26.2858 25.6667H27.4286V26.8333H26.2858V25.6667Z" fill="#90C53F"/>
<path d="M27.4286 25.6667H28.5714V26.8333H27.4286V25.6667Z" fill="#90C53F"/>
<path d="M28.5714 25.6667H29.7143V26.8333H28.5714V25.6667Z" fill="#90C53F"/>
<path d="M29.7143 25.6667H30.8571V26.8333H29.7143V25.6667Z" fill="#90C53F"/>
<path d="M30.8571 25.6667H32V26.8333H30.8571V25.6667Z" fill="#8FC540"/>
<path d="M44.5715 25.6667H45.7143V26.8333H44.5715V25.6667Z" fill="#90C53F"/>
<path d="M45.7143 25.6667H46.8572V26.8333H45.7143V25.6667Z" fill="#90C53F"/>
<path d="M46.8572 25.6667H48V26.8333H46.8572V25.6667Z" fill="#90C53F"/>
<path d="M0 26.8333H1.14286V28H0V26.8333Z" fill="#90C53F"/>
<path d="M1.14286 26.8333H2.28575V28H1.14286V26.8333Z" fill="#90C53F"/>
<path d="M2.28575 26.8333H3.42854V28H2.28575V26.8333Z" fill="#90C53F"/>
<path d="M3.42854 26.8333H4.57143V28H3.42854V26.8333Z" fill="#90C53F"/>
<path d="M14.8572 26.8333H16V28H14.8572V26.8333Z" fill="#90C53F"/>
<path d="M16 26.8333H17.1428V28H16V26.8333Z" fill="#90C53F"/>
<path d="M17.1428 26.8333H18.2857V28H17.1428V26.8333Z" fill="#90C53F"/>
<path d="M21.7143 26.8333H22.8572V28H21.7143V26.8333Z" fill="#90C53F"/>
<path d="M22.8572 26.8333H24V28H22.8572V26.8333Z" fill="#90C53F"/>
<path d="M24 26.8333H25.1429V28H24V26.8333Z" fill="#90C53F"/>
<path d="M25.1429 26.8333H26.2858V28H25.1429V26.8333Z" fill="#90C53F"/>
<path d="M26.2858 26.8333H27.4286V28H26.2858V26.8333Z" fill="#90C53F"/>
<path d="M27.4286 26.8333H28.5714V28H27.4286V26.8333Z" fill="#90C53F"/>
<path d="M28.5714 26.8333H29.7143V28H28.5714V26.8333Z" fill="#90C53F"/>
<path d="M29.7143 26.8333H30.8571V28H29.7143V26.8333Z" fill="#90C53F"/>
<path d="M30.8571 26.8333H32V28H30.8571V26.8333Z" fill="#90C53F"/>
<path d="M32 26.8333L33.1429 26.8333V28H32V26.8333Z" fill="#90C53F"/>
<path d="M33.1429 26.8333H34.2857V28H33.1429V26.8333Z" fill="#90C53F"/>
<path d="M34.2857 26.8333H35.4286V28H34.2857V26.8333Z" fill="#90C53F"/>
<path d="M35.4286 26.8333H36.5715V28H35.4286V26.8333Z" fill="#90C53F"/>
<path d="M44.5715 26.8333H45.7143V28H44.5715V26.8333Z" fill="#90C53F"/>
<path d="M45.7143 26.8333H46.8572V28H45.7143V26.8333Z" fill="#90C53F"/>
<path d="M46.8572 26.8333H48V28H46.8572V26.8333Z" fill="#90C53F"/>
<path d="M0 28H1.14286V29.1667H0V28Z" fill="#90C53F"/>
<path d="M1.14286 28H2.28575V29.1667H1.14286V28Z" fill="#90C53F"/>
<path d="M2.28575 28H3.42854V29.1667H2.28575V28Z" fill="#90C53F"/>
<path d="M3.42854 28H4.57143V29.1667H3.42854V28Z" fill="#90C53F"/>
<path d="M14.8572 28H16V29.1667H14.8572V28Z" fill="#90C53F"/>
<path d="M16 28H17.1428V29.1667H16V28Z" fill="#90C53F"/>
<path d="M17.1428 28H18.2857V29.1667H17.1428V28Z" fill="#90C53F"/>
<path d="M24 28H25.1429V29.1667H24L24 28Z" fill="#90C53F"/>
<path d="M25.1429 28H26.2858V29.1667H25.1429V28Z" fill="#90C53F"/>
<path d="M26.2858 28H27.4286V29.1667H26.2858V28Z" fill="#90C53F"/>
<path d="M27.4286 28H28.5714V29.1667H27.4286V28Z" fill="#90C53F"/>
<path d="M28.5714 28H29.7143V29.1667H28.5714V28Z" fill="#90C53F"/>
<path d="M29.7143 28H30.8571V29.1667H29.7143V28Z" fill="#90C53F"/>
<path d="M30.8571 28H32V29.1667H30.8571V28Z" fill="#90C53F"/>
<path d="M32 28H33.1429V29.1667H32V28Z" fill="#90C53F"/>
<path d="M33.1429 28H34.2857V29.1667H33.1429V28Z" fill="#90C53F"/>
<path d="M34.2857 28H35.4286V29.1667H34.2857V28Z" fill="#90C53F"/>
<path d="M35.4286 28H36.5715V29.1667H35.4286V28Z" fill="#90C53F"/>
<path d="M36.5715 28L37.7143 28V29.1667H36.5715V28Z" fill="#90C53F"/>
<path d="M37.7143 28H38.8572V29.1667H37.7143V28Z" fill="#90C53F"/>
<path d="M44.5715 28H45.7143V29.1667H44.5715V28Z" fill="#90C53F"/>
<path d="M45.7143 28H46.8572V29.1667H45.7143V28Z" fill="#90C53F"/>
<path d="M46.8572 28H48V29.1667H46.8572V28Z" fill="#90C53F"/>
<path d="M0 29.1667H1.14286V30.3333H0V29.1667Z" fill="#90C53F"/>
<path d="M1.14286 29.1667H2.28575V30.3333H1.14286V29.1667Z" fill="#90C53F"/>
<path d="M2.28575 29.1667H3.42854V30.3333H2.28575V29.1667Z" fill="#90C53F"/>
<path d="M3.42854 29.1667H4.57143V30.3333H3.42854V29.1667Z" fill="#90C53F"/>
<path d="M14.8572 29.1667H16V30.3333H14.8572V29.1667Z" fill="#90C53F"/>
<path d="M16 29.1667H17.1428V30.3333H16V29.1667Z" fill="#90C53F"/>
<path d="M17.1428 29.1667H18.2857V30.3333H17.1428V29.1667Z" fill="#90C53F"/>
<path d="M28.5714 29.1667H29.7143V30.3333H28.5715L28.5714 29.1667Z" fill="#90C53F"/>
<path d="M29.7143 29.1667H30.8571V30.3333H29.7143V29.1667Z" fill="#90C53F"/>
<path d="M30.8571 29.1667H32V30.3333H30.8571V29.1667Z" fill="#90C53F"/>
<path d="M32 29.1667H33.1429V30.3333H32V29.1667Z" fill="#90C53F"/>
<path d="M33.1429 29.1667H34.2857V30.3333H33.1429V29.1667Z" fill="#90C53F"/>
<path d="M34.2857 29.1667H35.4286V30.3333H34.2857V29.1667Z" fill="#90C53F"/>
<path d="M35.4286 29.1667H36.5715V30.3333H35.4286V29.1667Z" fill="#90C53F"/>
<path d="M36.5715 29.1667H37.7143V30.3333H36.5715V29.1667Z" fill="#90C53F"/>
<path d="M37.7143 29.1667H38.8572V30.3333H37.7143V29.1667Z" fill="#90C53F"/>
<path d="M38.8572 29.1667L40.0001 29.1667V30.3333H38.8572V29.1667Z" fill="#90C53F"/>
<path d="M44.5715 29.1667H45.7143V30.3333H44.5715V29.1667Z" fill="#90C53F"/>
<path d="M45.7143 29.1667H46.8572V30.3333H45.7143V29.1667Z" fill="#90C53F"/>
<path d="M46.8572 29.1667H48V30.3333H46.8572V29.1667Z" fill="#90C53F"/>
<path d="M0 30.3333H1.14286V31.5H0V30.3333Z" fill="#90C53F"/>
<path d="M1.14286 30.3333H2.28575V31.5H1.14286V30.3333Z" fill="#90C53F"/>
<path d="M2.28575 30.3333H3.42854V31.5H2.28575V30.3333Z" fill="#90C53F"/>
<path d="M3.42854 30.3333H4.57143V31.5H3.42854V30.3333Z" fill="#90C53F"/>
<path d="M14.8572 30.3333H16V31.5H14.8572V30.3333Z" fill="#90C53F"/>
<path d="M16 30.3333H17.1428V31.5H16V30.3333Z" fill="#90C53F"/>
<path d="M17.1428 30.3333H18.2857V31.5H17.1428V30.3333Z" fill="#90C53F"/>
<path d="M35.4286 30.3333H36.5715V31.5H35.4286L35.4286 30.3333Z" fill="#90C53F"/>
<path d="M36.5715 30.3333H37.7143V31.5H36.5715V30.3333Z" fill="#90C53F"/>
<path d="M37.7143 30.3333H38.8572V31.5H37.7143V30.3333Z" fill="#90C53F"/>
<path d="M38.8572 30.3333H40.0001V31.5H38.8572V30.3333Z" fill="#90C53F"/>
<path d="M44.5715 30.3333H45.7143V31.5H44.5715V30.3333Z" fill="#90C53F"/>
<path d="M45.7143 30.3333H46.8572V31.5H45.7143V30.3333Z" fill="#90C53F"/>
<path d="M46.8572 30.3333H48V31.5H46.8572V30.3333Z" fill="#90C53F"/>
<path d="M0 31.5H1.14286V32.6667H0V31.5Z" fill="#90C53F"/>
<path d="M1.14286 31.5H2.28575V32.6667H1.14286V31.5Z" fill="#90C53F"/>
<path d="M2.28575 31.5H3.42854V32.6667H2.28575V31.5Z" fill="#90C53F"/>
<path d="M3.42854 31.5H4.57143V32.6667H3.42854V31.5Z" fill="#90C53F"/>
<path d="M14.8572 31.5H16V32.6667H14.8572V31.5Z" fill="#90C53F"/>
<path d="M16 31.5H17.1428V32.6667H16V31.5Z" fill="#90C53F"/>
<path d="M17.1428 31.5H18.2857V32.6667H17.1428V31.5Z" fill="#90C53F"/>
<path d="M20.5714 31.5H21.7143V32.6667H20.5714V31.5Z" fill="#90C53F"/>
<path d="M21.7143 31.5H22.8572V32.6667H21.7143V31.5Z" fill="#90C53F"/>
<path d="M22.8572 31.5H24V32.6667H22.8572V31.5Z" fill="#90C53F"/>
<path d="M36.5715 31.5H37.7143V32.6667H36.5714L36.5715 31.5Z" fill="#90C53F"/>
<path d="M37.7143 31.5H38.8572V32.6667H37.7143V31.5Z" fill="#90C53F"/>
<path d="M38.8572 31.5H40.0001V32.6667H38.8572V31.5Z" fill="#90C53F"/>
<path d="M44.5715 31.5H45.7143V32.6667H44.5715V31.5Z" fill="#90C53F"/>
<path d="M45.7143 31.5H46.8572V32.6667H45.7143V31.5Z" fill="#90C53F"/>
<path d="M46.8572 31.5H48V32.6667H46.8572V31.5Z" fill="#90C53F"/>
<path d="M0 32.6667H1.14286V33.8333H0V32.6667Z" fill="#90C53F"/>
<path d="M1.14286 32.6667H2.28575V33.8333H1.14286V32.6667Z" fill="#90C53F"/>
<path d="M2.28575 32.6667H3.42854V33.8333H2.28575V32.6667Z" fill="#90C53F"/>
<path d="M3.42854 32.6667H4.57143V33.8333H3.42854V32.6667Z" fill="#90C53F"/>
<path d="M14.8572 32.6667H16V33.8333H14.8572V32.6667Z" fill="#90C53F"/>
<path d="M16 32.6667H17.1428V33.8333H16V32.6667Z" fill="#90C53F"/>
<path d="M17.1428 32.6667H18.2857V33.8333H17.1428V32.6667Z" fill="#90C53F"/>
<path d="M20.5714 32.6667H21.7143V33.8333H20.5714V32.6667Z" fill="#90C53F"/>
<path d="M21.7143 32.6667H22.8572V33.8333H21.7143V32.6667Z" fill="#90C53F"/>
<path d="M22.8572 32.6667H24V33.8333H22.8572V32.6667Z" fill="#90C53F"/>
<path d="M36.5714 32.6667H37.7143V33.8333H36.5714V32.6667Z" fill="#90C53F"/>
<path d="M37.7143 32.6667H38.8572V33.8333H37.7143V32.6667Z" fill="#90C53F"/>
<path d="M38.8572 32.6667H40.0001V33.8333H38.8572V32.6667Z" fill="#90C53F"/>
<path d="M44.5715 32.6667H45.7143V33.8333H44.5715V32.6667Z" fill="#90C53F"/>
<path d="M45.7143 32.6667H46.8572V33.8333H45.7143V32.6667Z" fill="#90C53F"/>
<path d="M46.8572 32.6667H48V33.8333H46.8572V32.6667Z" fill="#90C53F"/>
<path d="M0 33.8333H1.14286V35H0V33.8333Z" fill="#90C53F"/>
<path d="M1.14286 33.8333H2.28575V35H1.14286V33.8333Z" fill="#90C53F"/>
<path d="M2.28575 33.8333H3.42854V35H2.28575V33.8333Z" fill="#90C53F"/>
<path d="M3.42854 33.8333H4.57143V35H3.42854V33.8333Z" fill="#90C53F"/>
<path d="M14.8572 33.8333H16V35H14.8572V33.8333Z" fill="#90C53F"/>
<path d="M16 33.8333H17.1428V35H16V33.8333Z" fill="#90C53F"/>
<path d="M17.1428 33.8333H18.2857V35H17.1428V33.8333Z" fill="#90C53F"/>
<path d="M20.5714 33.8333H21.7143V35H20.5714V33.8333Z" fill="#90C53F"/>
<path d="M21.7143 33.8333H22.8572V35H21.7143V33.8333Z" fill="#90C53F"/>
<path d="M22.8572 33.8333H24V35H22.8572V33.8333Z" fill="#90C53F"/>
<path d="M24 33.8333L25.1429 33.8333V35H24V33.8333Z" fill="#90C53F"/>
<path d="M35.4286 33.8333L36.5714 33.8333L36.5715 35H35.4286V33.8333Z" fill="#8FBF40"/>
<path d="M36.5714 33.8333H37.7143V35H36.5715L36.5714 33.8333Z" fill="#90C53F"/>
<path d="M37.7143 33.8333H38.8572V35H37.7143V33.8333Z" fill="#90C53F"/>
<path d="M38.8572 33.8333H40.0001V35H38.8572V33.8333Z" fill="#90C53F"/>
<path d="M44.5715 33.8333H45.7143V35H44.5715V33.8333Z" fill="#90C53F"/>
<path d="M45.7143 33.8333H46.8572V35H45.7143V33.8333Z" fill="#90C53F"/>
<path d="M46.8572 33.8333H48V35H46.8572V33.8333Z" fill="#90C53F"/>
<path d="M0 35H1.14286V36.1667H0V35Z" fill="#90C53F"/>
<path d="M1.14286 35H2.28575V36.1667H1.14286V35Z" fill="#90C53F"/>
<path d="M2.28575 35H3.42854V36.1667H2.28575V35Z" fill="#90C53F"/>
<path d="M3.42854 35H4.57143V36.1667H3.42854V35Z" fill="#90C53F"/>
<path d="M14.8572 35H16V36.1667H14.8572V35Z" fill="#90C53F"/>
<path d="M16 35H17.1428V36.1667H16V35Z" fill="#90C53F"/>
<path d="M17.1428 35H18.2857V36.1667H17.1428V35Z" fill="#90C53F"/>
<path d="M20.5714 35H21.7143V36.1667H20.5714V35Z" fill="#90C53F"/>
<path d="M21.7143 35H22.8572V36.1667H21.7143V35Z" fill="#90C53F"/>
<path d="M22.8572 35H24V36.1667H22.8572V35Z" fill="#90C53F"/>
<path d="M24 35H25.1429V36.1667H24V35Z" fill="#90C53F"/>
<path d="M25.1429 35L26.2858 35V36.1667H25.1429V35Z" fill="#90C53F"/>
<path d="M26.2858 35H27.4286V36.1667H26.2858V35Z" fill="#8FBF40"/>
<path d="M34.2857 35L35.4286 35L35.4286 36.1667H34.2857V35Z" fill="#90C53F"/>
<path d="M35.4286 35H36.5715V36.1667H35.4286L35.4286 35Z" fill="#90C53F"/>
<path d="M36.5715 35H37.7143V36.1667H36.5715V35Z" fill="#90C53F"/>
<path d="M37.7143 35H38.8572V36.1667H37.7143V35Z" fill="#90C53F"/>
<path d="M38.8572 35H40.0001V36.1667H38.8572V35Z" fill="#90C53F"/>
<path d="M44.5715 35H45.7143V36.1667H44.5715V35Z" fill="#90C53F"/>
<path d="M45.7143 35H46.8572V36.1667H45.7143V35Z" fill="#90C53F"/>
<path d="M46.8572 35H48V36.1667H46.8572V35Z" fill="#90C53F"/>
<path d="M0 36.1667H1.14286V37.3333H0V36.1667Z" fill="#90C53F"/>
<path d="M1.14286 36.1667H2.28575V37.3333H1.14286V36.1667Z" fill="#90C53F"/>
<path d="M2.28575 36.1667H3.42854V37.3333H2.28575V36.1667Z" fill="#90C53F"/>
<path d="M3.42854 36.1667H4.57143V37.3333H3.42854V36.1667Z" fill="#90C53F"/>
<path d="M14.8572 36.1667H16V37.3333H14.8572V36.1667Z" fill="#90C53F"/>
<path d="M16 36.1667H17.1428V37.3333H16V36.1667Z" fill="#90C53F"/>
<path d="M17.1428 36.1667H18.2857V37.3333H17.1428V36.1667Z" fill="#90C53F"/>
<path d="M21.7143 36.1667H22.8572V37.3333H21.7143L21.7143 36.1667Z" fill="#90C53F"/>
<path d="M22.8572 36.1667H24V37.3333H22.8572V36.1667Z" fill="#90C53F"/>
<path d="M24 36.1667H25.1429V37.3333H24V36.1667Z" fill="#90C53F"/>
<path d="M25.1429 36.1667H26.2858V37.3333H25.1429V36.1667Z" fill="#90C53F"/>
<path d="M26.2858 36.1667H27.4286V37.3333H26.2858V36.1667Z" fill="#90C53F"/>
<path d="M27.4286 36.1667L28.5714 36.1667V37.3333H27.4286V36.1667Z" fill="#90C53F"/>
<path d="M28.5714 36.1667H29.7143V37.3333H28.5714V36.1667Z" fill="#90C53F"/>
<path d="M29.7143 36.1667H30.8571V37.3333H29.7143V36.1667Z" fill="#90C53F"/>
<path d="M30.8571 36.1667H32V37.3333H30.8571V36.1667Z" fill="#90C53F"/>
<path d="M32 36.1667H33.1429V37.3333H32V36.1667Z" fill="#90C53F"/>
<path d="M33.1429 36.1667L34.2857 36.1667L34.2857 37.3333H33.1429V36.1667Z" fill="#90C53F"/>
<path d="M34.2857 36.1667H35.4286V37.3333H34.2857L34.2857 36.1667Z" fill="#90C53F"/>
<path d="M35.4286 36.1667H36.5715V37.3333H35.4286V36.1667Z" fill="#90C53F"/>
<path d="M36.5715 36.1667H37.7143V37.3333H36.5715V36.1667Z" fill="#90C53F"/>
<path d="M37.7143 36.1667H38.8572V37.3333H37.7143V36.1667Z" fill="#90C53F"/>
<path d="M44.5715 36.1667H45.7143V37.3333H44.5715V36.1667Z" fill="#90C53F"/>
<path d="M45.7143 36.1667H46.8572V37.3333H45.7143V36.1667Z" fill="#90C53F"/>
<path d="M46.8572 36.1667H48V37.3333H46.8572V36.1667Z" fill="#90C53F"/>
<path d="M0 37.3333H1.14286V38.5H0V37.3333Z" fill="#90C53F"/>
<path d="M1.14286 37.3333H2.28575V38.5H1.14286V37.3333Z" fill="#90C53F"/>
<path d="M2.28575 37.3333H3.42854V38.5H2.28575V37.3333Z" fill="#90C53F"/>
<path d="M3.42854 37.3333H4.57143V38.5H3.42854V37.3333Z" fill="#90C53F"/>
<path d="M14.8572 37.3333H16V38.5H14.8572V37.3333Z" fill="#90C53F"/>
<path d="M16 37.3333H17.1428V38.5H16V37.3333Z" fill="#90C53F"/>
<path d="M17.1428 37.3333H18.2857V38.5H17.1428V37.3333Z" fill="#90C53F"/>
<path d="M22.8572 37.3333H24V38.5H22.8571L22.8572 37.3333Z" fill="#90C53F"/>
<path d="M24 37.3333H25.1429V38.5H24V37.3333Z" fill="#90C53F"/>
<path d="M25.1429 37.3333H26.2858V38.5H25.1429V37.3333Z" fill="#90C53F"/>
<path d="M26.2858 37.3333H27.4286V38.5H26.2858V37.3333Z" fill="#90C53F"/>
<path d="M27.4286 37.3333H28.5714V38.5H27.4286V37.3333Z" fill="#90C53F"/>
<path d="M28.5714 37.3333H29.7143V38.5H28.5714V37.3333Z" fill="#90C53F"/>
<path d="M29.7143 37.3333H30.8571V38.5H29.7143V37.3333Z" fill="#90C53F"/>
<path d="M30.8571 37.3333H32V38.5H30.8571V37.3333Z" fill="#90C53F"/>
<path d="M32 37.3333H33.1429V38.5H32V37.3333Z" fill="#90C53F"/>
<path d="M33.1429 37.3333H34.2857V38.5H33.1429V37.3333Z" fill="#90C53F"/>
<path d="M34.2857 37.3333H35.4286V38.5H34.2857V37.3333Z" fill="#90C53F"/>
<path d="M35.4286 37.3333H36.5715V38.5H35.4286V37.3333Z" fill="#90C53F"/>
<path d="M36.5715 37.3333H37.7143V38.5H36.5715V37.3333Z" fill="#90C53F"/>
<path d="M44.5715 37.3333H45.7143V38.5H44.5715V37.3333Z" fill="#90C53F"/>
<path d="M45.7143 37.3333H46.8572V38.5H45.7143V37.3333Z" fill="#90C53F"/>
<path d="M46.8572 37.3333H48V38.5H46.8572V37.3333Z" fill="#90C53F"/>
<path d="M0 38.5H1.14286V39.6667H0V38.5Z" fill="#90C53F"/>
<path d="M1.14286 38.5H2.28575V39.6667H1.14286V38.5Z" fill="#90C53F"/>
<path d="M2.28575 38.5H3.42854V39.6667H2.28575V38.5Z" fill="#90C53F"/>
<path d="M3.42854 38.5H4.57143V39.6667H3.42854V38.5Z" fill="#90C53F"/>
<path d="M14.8572 38.5H16V39.6667H14.8572V38.5Z" fill="#90C53F"/>
<path d="M16 38.5H17.1428V39.6667H16V38.5Z" fill="#90C53F"/>
<path d="M17.1428 38.5H18.2857V39.6667H17.1428V38.5Z" fill="#90C53F"/>
<path d="M26.2858 38.5H27.4286V39.6667H26.2857L26.2858 38.5Z" fill="#90C53F"/>
<path d="M27.4286 38.5H28.5714V39.6667H27.4286V38.5Z" fill="#90C53F"/>
<path d="M28.5714 38.5H29.7143V39.6667H28.5714V38.5Z" fill="#90C53F"/>
<path d="M29.7143 38.5H30.8571V39.6667H29.7143V38.5Z" fill="#90C53F"/>
<path d="M30.8571 38.5H32V39.6667H30.8571V38.5Z" fill="#90C53F"/>
<path d="M32 38.5H33.1429V39.6667H32V38.5Z" fill="#90C53F"/>
<path d="M33.1429 38.5H34.2857V39.6667H33.1429V38.5Z" fill="#90C53F"/>
<path d="M44.5715 38.5H45.7143V39.6667H44.5715V38.5Z" fill="#90C53F"/>
<path d="M45.7143 38.5H46.8572V39.6667H45.7143V38.5Z" fill="#90C53F"/>
<path d="M46.8572 38.5H48V39.6667H46.8572V38.5Z" fill="#90C53F"/>
<path d="M0 39.6667H1.14286V40.8333H0V39.6667Z" fill="#8FC23D"/>
<path d="M1.14286 39.6667H2.28575V40.8333H1.14286V39.6667Z" fill="#90C53F"/>
<path d="M2.28575 39.6667H3.42854V40.8333H2.28575V39.6667Z" fill="#90C53F"/>
<path d="M3.42854 39.6667H4.57143V40.8333H3.42854V39.6667Z" fill="#90C53F"/>
<path d="M14.8572 39.6667H16V40.8333H14.8572V39.6667Z" fill="#90C53F"/>
<path d="M16 39.6667H17.1428V40.8333H16V39.6667Z" fill="#90C53F"/>
<path d="M17.1428 39.6667H18.2857V40.8333H17.1428V39.6667Z" fill="#90C53F"/>
<path d="M44.5715 39.6667H45.7143V40.8333H44.5715V39.6667Z" fill="#90C53F"/>
<path d="M45.7143 39.6667H46.8572V40.8333H45.7143V39.6667Z" fill="#90C53F"/>
<path d="M46.8572 39.6667H48V40.8333H46.8572V39.6667Z" fill="#90C53F"/>
<path d="M1.14286 40.8333H2.28575V42H1.14289L1.14286 40.8333Z" fill="#90C53F"/>
<path d="M2.28575 40.8333H3.42854V42H2.28575V40.8333Z" fill="#90C53F"/>
<path d="M3.42854 40.8333H4.57143V42H3.42854V40.8333Z" fill="#90C53F"/>
<path d="M4.57143 40.8333H5.71432V42H4.57143V40.8333Z" fill="#90C53F"/>
<path d="M5.71432 40.8333H6.85712V42H5.71432V40.8333Z" fill="#90C53F"/>
<path d="M14.8572 40.8333H16V42H14.8572V40.8333Z" fill="#90C53F"/>
<path d="M16 40.8333H17.1428V42H16V40.8333Z" fill="#90C53F"/>
<path d="M17.1428 40.8333H18.2857V42H17.1428V40.8333Z" fill="#90C53F"/>
<path d="M42.2858 40.8333H43.4286V42H42.2858V40.8333Z" fill="#90C53F"/>
<path d="M43.4286 40.8333H44.5715L44.5714 42H43.4286V40.8333Z" fill="#90C53F"/>
<path d="M44.5715 40.8333H45.7143V42H44.5714L44.5715 40.8333Z" fill="#90C53F"/>
<path d="M45.7143 40.8333H46.8572V42H45.7143V40.8333Z" fill="#90C53F"/>
<path d="M46.8572 40.8333H48V42H46.8572V40.8333Z" fill="#90C53F"/>
<path d="M1.14289 42H2.28575V43.1667H1.14289V42Z" fill="#90C53F"/>
<path d="M2.28575 42H3.42854V43.1667H2.28575V42Z" fill="#90C53F"/>
<path d="M3.42854 42H4.57143V43.1667H3.42854V42Z" fill="#90C53F"/>
<path d="M4.57143 42H5.71432V43.1667H4.57143V42Z" fill="#90C53F"/>
<path d="M5.71432 42H6.85712V43.1667H5.71432V42Z" fill="#90C53F"/>
<path d="M6.85712 42L8 42V43.1667H6.85712V42Z" fill="#90C53F"/>
<path d="M13.7143 42L14.8572 42L14.8572 43.1667H13.7143V42Z" fill="#90C53F"/>
<path d="M14.8572 42H16V43.1667H14.8572L14.8572 42Z" fill="#90C53F"/>
<path d="M16 42H17.1428V43.1667H16V42Z" fill="#90C53F"/>
<path d="M17.1428 42H18.2857V43.1667H17.1428V42Z" fill="#90C53F"/>
<path d="M40 42H41.1429V43.1667H40V42Z" fill="#90C43F"/>
<path d="M41.1429 42L42.2858 42L42.2857 43.1667H41.1429V42Z" fill="#90C53F"/>
<path d="M42.2858 42H43.4286V43.1667H42.2857L42.2858 42Z" fill="#90C53F"/>
<path d="M43.4286 42H44.5714V43.1667H43.4286V42Z" fill="#90C53F"/>
<path d="M44.5714 42H45.7143V43.1667H44.5714V42Z" fill="#90C53F"/>
<path d="M45.7143 42H46.8572V43.1667H45.7143V42Z" fill="#90C53F"/>
<path d="M3.42854 43.1667H4.57143V44.3333H3.42857L3.42854 43.1667Z" fill="#90C53F"/>
<path d="M4.57143 43.1667H5.71432V44.3333H4.57143V43.1667Z" fill="#90C53F"/>
<path d="M5.71432 43.1667H6.85712V44.3333H5.71432V43.1667Z" fill="#90C53F"/>
<path d="M6.85712 43.1667H8V44.3333H6.85712V43.1667Z" fill="#90C53F"/>
<path d="M8 43.1667L9.14289 43.1667V44.3333H8V43.1667Z" fill="#90C53F"/>
<path d="M9.14289 43.1667H10.2857V44.3333H9.14289V43.1667Z" fill="#90C53F"/>
<path d="M12.5714 43.1667L13.7143 43.1667L13.7143 44.3333H12.5714V43.1667Z" fill="#90C53F"/>
<path d="M13.7143 43.1667H14.8572V44.3333H13.7143L13.7143 43.1667Z" fill="#90C53F"/>
<path d="M14.8572 43.1667H16V44.3333H14.8572V43.1667Z" fill="#90C53F"/>
<path d="M16 43.1667H17.1428V44.3333H16V43.1667Z" fill="#90C53F"/>
<path d="M17.1428 43.1667H18.2857V44.3333H17.1428V43.1667Z" fill="#90C53F"/>
<path d="M38.8572 43.1667L40 43.1667L40.0001 44.3333H38.8572V43.1667Z" fill="#90C53F"/>
<path d="M40 43.1667H41.1429V44.3333H40.0001L40 43.1667Z" fill="#90C53F"/>
<path d="M41.1429 43.1667H42.2857V44.3333H41.1429V43.1667Z" fill="#90C53F"/>
<path d="M42.2857 43.1667H43.4286V44.3333H42.2857V43.1667Z" fill="#90C53F"/>
<path d="M43.4286 43.1667H44.5714V44.3333H43.4286V43.1667Z" fill="#90C53F"/>
<path d="M44.5714 43.1667H45.7143V44.3333H44.5714V43.1667Z" fill="#90C53F"/>
<path d="M5.71432 44.3333H6.85712V45.5H5.71426L5.71432 44.3333Z" fill="#90C53F"/>
<path d="M6.85712 44.3333H8V45.5H6.85712V44.3333Z" fill="#90C53F"/>
<path d="M8 44.3333H9.14289V45.5H8V44.3333Z" fill="#90C53F"/>
<path d="M9.14289 44.3333H10.2857V45.5H9.14289V44.3333Z" fill="#90C53F"/>
<path d="M10.2857 44.3333H11.4286V45.5H10.2857V44.3333Z" fill="#90C53F"/>
<path d="M11.4286 44.3333H12.5714L12.5715 45.5H11.4286V44.3333Z" fill="#90C53F"/>
<path d="M12.5714 44.3333H13.7143V45.5H12.5715L12.5714 44.3333Z" fill="#90C53F"/>
<path d="M13.7143 44.3333H14.8572V45.5H13.7143V44.3333Z" fill="#90C53F"/>
<path d="M14.8572 44.3333H16V45.5H14.8572V44.3333Z" fill="#90C53F"/>
<path d="M16 44.3333H17.1428V45.5H16V44.3333Z" fill="#90C53F"/>
<path d="M36.5714 44.3333H37.7143V45.5H36.5714V44.3333Z" fill="#90C53F"/>
<path d="M37.7143 44.3333H38.8572L38.8572 45.5H37.7143V44.3333Z" fill="#90C53F"/>
<path d="M38.8572 44.3333H40.0001V45.5H38.8572L38.8572 44.3333Z" fill="#90C53F"/>
<path d="M40.0001 44.3333H41.1429V45.5H40.0001V44.3333Z" fill="#90C53F"/>
<path d="M41.1429 44.3333H42.2857V45.5H41.1429V44.3333Z" fill="#90C53F"/>
<path d="M42.2857 44.3333H43.4286V45.5H42.2857V44.3333Z" fill="#90C53F"/>
<path d="M6.85712 45.5H8V46.6667H6.85715L6.85712 45.5Z" fill="#90C53F"/>
<path d="M8 45.5H9.14289V46.6667H8V45.5Z" fill="#90C53F"/>
<path d="M9.14289 45.5H10.2857V46.6667H9.14289V45.5Z" fill="#90C53F"/>
<path d="M10.2857 45.5H11.4286V46.6667H10.2857V45.5Z" fill="#90C53F"/>
<path d="M11.4286 45.5H12.5715V46.6667H11.4286V45.5Z" fill="#90C53F"/>
<path d="M12.5715 45.5H13.7143V46.6667H12.5715V45.5Z" fill="#90C53F"/>
<path d="M13.7143 45.5H14.8572V46.6667H13.7143V45.5Z" fill="#90C53F"/>
<path d="M14.8572 45.5H16V46.6667H14.8572V45.5Z" fill="#90C53F"/>
<path d="M16 45.5H17.1428V46.6667H16V45.5Z" fill="#8FC440"/>
<path d="M34.2857 45.5H35.4286V46.6667H34.2857V45.5Z" fill="#90C53F"/>
<path d="M35.4286 45.5L36.5714 45.5L36.5715 46.6667H35.4286V45.5Z" fill="#90C53F"/>
<path d="M36.5714 45.5H37.7143V46.6667H36.5715L36.5714 45.5Z" fill="#90C53F"/>
<path d="M37.7143 45.5H38.8572V46.6667H37.7143V45.5Z" fill="#90C53F"/>
<path d="M38.8572 45.5H40.0001V46.6667H38.8572V45.5Z" fill="#90C53F"/>
<path d="M40.0001 45.5H41.1429V46.6667H40.0001V45.5Z" fill="#90C53F"/>
<path d="M10.2857 46.6667H11.4286V47.8333H10.2857L10.2857 46.6667Z" fill="#90C53F"/>
<path d="M11.4286 46.6667H12.5715V47.8333H11.4286V46.6667Z" fill="#90C53F"/>
<path d="M12.5715 46.6667H13.7143V47.8333H12.5715V46.6667Z" fill="#90C53F"/>
<path d="M13.7143 46.6667H14.8572V47.8333H13.7143V46.6667Z" fill="#90C53F"/>
<path d="M32 46.6667H33.1429V47.8333H32V46.6667Z" fill="#90C63E"/>
<path d="M33.1429 46.6667L34.2857 46.6667L34.2857 47.8333H33.1429V46.6667Z" fill="#90C53F"/>
<path d="M34.2857 46.6667H35.4286V47.8333H34.2857L34.2857 46.6667Z" fill="#90C53F"/>
<path d="M35.4286 46.6667H36.5715V47.8333H35.4286V46.6667Z" fill="#90C53F"/>
<path d="M36.5715 46.6667H37.7143V47.8333H36.5715V46.6667Z" fill="#90C53F"/>
<path d="M37.7143 46.6667H38.8572V47.8333H37.7143V46.6667Z" fill="#90C53F"/>
<path d="M38.8572 46.6667H40.0001V47.8333H38.8572V46.6667Z" fill="#90C53F"/>
<path d="M30.8572 47.8333L32 47.8333L32 49H30.8572V47.8333Z" fill="#90C53F"/>
<path d="M32 47.8333H33.1429V49H32L32 47.8333Z" fill="#90C53F"/>
<path d="M33.1429 47.8333H34.2857V49H33.1429V47.8333Z" fill="#90C53F"/>
<path d="M34.2857 47.8333H35.4286V49H34.2857V47.8333Z" fill="#90C53F"/>
<path d="M35.4286 47.8333H36.5715V49H35.4286V47.8333Z" fill="#90C53F"/>
<path d="M36.5715 47.8333H37.7143V49H36.5715V47.8333Z" fill="#90C53F"/>
<path d="M17.1429 49H18.2857V50.1667H17.1429V49Z" fill="#90C53F"/>
<path d="M18.2857 49H19.4286V50.1667H18.2857V49Z" fill="#90C53F"/>
<path d="M19.4286 49H20.5714V50.1667H19.4286V49Z" fill="#90C53F"/>
<path d="M28.5715 49H29.7143V50.1667H28.5715V49Z" fill="#90C53F"/>
<path d="M29.7143 49L30.8572 49L30.8571 50.1667H29.7143V49Z" fill="#90C53F"/>
<path d="M30.8572 49H32V50.1667H30.8571L30.8572 49Z" fill="#90C53F"/>
<path d="M32 49H33.1429V50.1667H32V49Z" fill="#90C53F"/>
<path d="M33.1429 49H34.2857V50.1667H33.1429V49Z" fill="#90C53F"/>
<path d="M34.2857 49H35.4286V50.1667H34.2857V49Z" fill="#90C53F"/>
<path d="M14.8572 50.1667H16V51.3333H14.8572V50.1667Z" fill="#8FC540"/>
<path d="M16 50.1667L17.1429 50.1667L17.1428 51.3333H16V50.1667Z" fill="#90C53F"/>
<path d="M17.1429 50.1667H18.2857V51.3333H17.1428L17.1429 50.1667Z" fill="#90C53F"/>
<path d="M18.2857 50.1667H19.4286V51.3333H18.2857V50.1667Z" fill="#90C53F"/>
<path d="M19.4286 50.1667H20.5714V51.3333H19.4286V50.1667Z" fill="#90C53F"/>
<path d="M20.5714 50.1667L21.7143 50.1667V51.3333H20.5714V50.1667Z" fill="#90C53F"/>
<path d="M21.7143 50.1667H22.8572V51.3333H21.7143V50.1667Z" fill="#90C53F"/>
<path d="M26.2857 50.1667H27.4286V51.3333H26.2857V50.1667Z" fill="#90C53F"/>
<path d="M27.4286 50.1667L28.5715 50.1667L28.5714 51.3333H27.4286V50.1667Z" fill="#90C53F"/>
<path d="M28.5715 50.1667H29.7143V51.3333H28.5714L28.5715 50.1667Z" fill="#90C53F"/>
<path d="M29.7143 50.1667H30.8571V51.3333H29.7143V50.1667Z" fill="#90C53F"/>
<path d="M30.8571 50.1667H32V51.3333H30.8571V50.1667Z" fill="#90C53F"/>
<path d="M32 50.1667H33.1429V51.3333H32V50.1667Z" fill="#90C53F"/>
<path d="M33.1429 50.1667H34.2857V51.3333H33.1429V50.1667Z" fill="#8FC340"/>
<path d="M17.1428 51.3333H18.2857V52.5H17.1429L17.1428 51.3333Z" fill="#90C53F"/>
<path d="M18.2857 51.3333H19.4286V52.5H18.2857V51.3333Z" fill="#90C53F"/>
<path d="M19.4286 51.3333H20.5714V52.5H19.4286V51.3333Z" fill="#90C53F"/>
<path d="M20.5714 51.3333H21.7143V52.5H20.5714V51.3333Z" fill="#90C53F"/>
<path d="M21.7143 51.3333H22.8572V52.5H21.7143V51.3333Z" fill="#90C53F"/>
<path d="M22.8572 51.3333L24 51.3333V52.5H22.8572V51.3333Z" fill="#90C53F"/>
<path d="M24 51.3333H25.1429V52.5H24V51.3333Z" fill="#8FC53E"/>
<path d="M25.1429 51.3333L26.2857 51.3333L26.2858 52.5H25.1429V51.3333Z" fill="#90C53F"/>
<path d="M26.2857 51.3333H27.4286V52.5H26.2858L26.2857 51.3333Z" fill="#90C53F"/>
<path d="M27.4286 51.3333H28.5714V52.5H27.4286V51.3333Z" fill="#90C53F"/>
<path d="M28.5714 51.3333H29.7143V52.5H28.5714V51.3333Z" fill="#90C53F"/>
<path d="M29.7143 51.3333H30.8571V52.5H29.7143V51.3333Z" fill="#90C53F"/>
<path d="M30.8571 51.3333H32V52.5H30.8571V51.3333Z" fill="#90C53F"/>
<path d="M19.4286 52.5H20.5714V53.6667H19.4286L19.4286 52.5Z" fill="#90C53F"/>
<path d="M20.5714 52.5H21.7143V53.6667H20.5714V52.5Z" fill="#90C53F"/>
<path d="M21.7143 52.5H22.8572V53.6667H21.7143V52.5Z" fill="#90C53F"/>
<path d="M22.8572 52.5H24V53.6667H22.8572V52.5Z" fill="#90C53F"/>
<path d="M24 52.5H25.1429V53.6667H24V52.5Z" fill="#90C53F"/>
<path d="M25.1429 52.5H26.2858V53.6667H25.1429V52.5Z" fill="#90C53F"/>
<path d="M26.2858 52.5H27.4286V53.6667H26.2858V52.5Z" fill="#90C53F"/>
<path d="M27.4286 52.5H28.5714V53.6667H27.4286V52.5Z" fill="#90C53F"/>
<path d="M28.5714 52.5H29.7143V53.6667H28.5714V52.5Z" fill="#90C53F"/>
<path d="M21.7143 53.6667H22.8572V54.8333H21.7143L21.7143 53.6667Z" fill="#90C53F"/>
<path d="M22.8572 53.6667H24V54.8333H22.8572V53.6667Z" fill="#90C53F"/>
<path d="M24 53.6667H25.1429V54.8333H24V53.6667Z" fill="#90C53F"/>
<path d="M25.1429 53.6667H26.2858V54.8333H25.1429V53.6667Z" fill="#90C53F"/>
<path d="M26.2858 53.6667H27.4286V54.8333H26.2858V53.6667Z" fill="#90C53F"/>
<path d="M22.8572 54.8333H24V56H22.8571L22.8572 54.8333Z" fill="#8FC340"/>
<path d="M24 54.8333H25.1429V56H24V54.8333Z" fill="#90C53F"/>
</svg>
