<svg width="62" height="55" viewBox="0 0 62 55" fill="none" xmlns="http://www.w3.org/2000/svg">
<path d="M18.6 0H19.84V1.22222H18.6V0Z" fill="#61DAFB"/>
<path d="M19.84 0H21.08V1.22222H19.84V0Z" fill="#60DBFB"/>
<path d="M42.16 0H43.4V1.22222H42.16V0Z" fill="#60DAFA"/>
<path d="M43.4 0H44.64V1.22222H43.4V0Z" fill="#61D9FA"/>
<path d="M14.88 1.22222H16.12V2.44445H14.88V1.22222Z" fill="#61DAFB"/>
<path d="M16.12 1.22222H17.36V2.44445H16.12V1.22222Z" fill="#61DAFB"/>
<path d="M17.36 1.22222L18.6 1.22222L18.6 2.44445H17.36V1.22222Z" fill="#61DAFB"/>
<path d="M18.6 1.22222H19.84V2.44445H18.6L18.6 1.22222Z" fill="#61DAFB"/>
<path d="M19.84 1.22222H21.08V2.44445H19.84V1.22222Z" fill="#61DAFB"/>
<path d="M21.08 1.22222L22.32 1.22222V2.44445H21.08V1.22222Z" fill="#61DAFB"/>
<path d="M22.32 1.22222H23.56V2.44445H22.32V1.22222Z" fill="#61DAFB"/>
<path d="M23.56 1.22222H24.8V2.44445H23.56V1.22222Z" fill="#61DAFB"/>
<path d="M38.4401 1.22222H39.6801V2.44445H38.4401V1.22222Z" fill="#61DAFB"/>
<path d="M39.6801 1.22222H40.92V2.44445H39.6801V1.22222Z" fill="#61DAFB"/>
<path d="M40.92 1.22222L42.16 1.22222L42.16 2.44445H40.92V1.22222Z" fill="#61DAFB"/>
<path d="M42.16 1.22222H43.4V2.44445H42.16L42.16 1.22222Z" fill="#61DAFB"/>
<path d="M43.4 1.22222H44.64V2.44445H43.4V1.22222Z" fill="#61DAFB"/>
<path d="M44.64 1.22222L45.8801 1.22222V2.44445H44.64V1.22222Z" fill="#61DAFB"/>
<path d="M45.8801 1.22222H47.12V2.44445H45.8801V1.22222Z" fill="#61DAFB"/>
<path d="M13.64 2.44445L14.88 2.44445L14.88 3.66667H13.64V2.44445Z" fill="#61DAFB"/>
<path d="M14.88 2.44445H16.12V3.66667H14.88L14.88 2.44445Z" fill="#61DAFB"/>
<path d="M16.12 2.44445H17.36V3.66667H16.12V2.44445Z" fill="#61DAFB"/>
<path d="M17.36 2.44445H18.6V3.66667H17.36V2.44445Z" fill="#61DAFB"/>
<path d="M18.6 2.44445H19.84V3.66667H18.6V2.44445Z" fill="#61DAFB"/>
<path d="M19.84 2.44445H21.08V3.66667H19.84V2.44445Z" fill="#61DAFB"/>
<path d="M21.08 2.44445H22.32V3.66667H21.08V2.44445Z" fill="#61DAFB"/>
<path d="M22.32 2.44445H23.56V3.66667H22.32V2.44445Z" fill="#61DAFB"/>
<path d="M23.56 2.44445H24.8V3.66667H23.56V2.44445Z" fill="#61DAFB"/>
<path d="M24.8 2.44445L26.04 2.44445V3.66667H24.8V2.44445Z" fill="#61DAFB"/>
<path d="M35.9601 2.44445H37.2001V3.66667H35.9601V2.44445Z" fill="#61DAFB"/>
<path d="M37.2001 2.44445L38.4401 2.44445L38.44 3.66667H37.2001V2.44445Z" fill="#61DAFB"/>
<path d="M38.4401 2.44445H39.6801V3.66667H38.44L38.4401 2.44445Z" fill="#61DAFB"/>
<path d="M39.6801 2.44445H40.92V3.66667H39.6801V2.44445Z" fill="#61DAFB"/>
<path d="M40.92 2.44445H42.16V3.66667H40.92V2.44445Z" fill="#61DAFB"/>
<path d="M42.16 2.44445H43.4V3.66667H42.16V2.44445Z" fill="#61DAFB"/>
<path d="M43.4 2.44445H44.64V3.66667H43.4V2.44445Z" fill="#61DAFB"/>
<path d="M44.64 2.44445H45.8801V3.66667H44.64V2.44445Z" fill="#61DAFB"/>
<path d="M45.8801 2.44445H47.12V3.66667H45.8801V2.44445Z" fill="#61DAFB"/>
<path d="M47.12 2.44445L48.36 2.44445V3.66667H47.12V2.44445Z" fill="#61DAFB"/>
<path d="M13.64 3.66667H14.88V4.88889H13.64V3.66667Z" fill="#61DAFB"/>
<path d="M14.88 3.66667H16.12V4.88889H14.88V3.66667Z" fill="#61DAFB"/>
<path d="M16.12 3.66667H17.36V4.88889H16.12V3.66667Z" fill="#61DAFB"/>
<path d="M17.36 3.66667H18.6V4.88889H17.36V3.66667Z" fill="#61DAFB"/>
<path d="M18.6 3.66667H19.84V4.88889H18.6V3.66667Z" fill="#61DAFB"/>
<path d="M19.84 3.66667H21.08V4.88889H19.84V3.66667Z" fill="#61DAFB"/>
<path d="M21.08 3.66667H22.32V4.88889H21.08V3.66667Z" fill="#61DAFB"/>
<path d="M22.32 3.66667H23.56V4.88889H22.32V3.66667Z" fill="#61DAFB"/>
<path d="M23.56 3.66667H24.8V4.88889H23.56V3.66667Z" fill="#61DAFB"/>
<path d="M24.8 3.66667H26.04V4.88889H24.8V3.66667Z" fill="#61DAFB"/>
<path d="M26.04 3.66667L27.28 3.66666V4.88889H26.04V3.66667Z" fill="#61DAFB"/>
<path d="M27.28 3.66666H28.52V4.88889H27.28V3.66666Z" fill="#61DAFB"/>
<path d="M34.72 3.66666L35.9601 3.66667L35.96 4.88889H34.72V3.66666Z" fill="#61DAFB"/>
<path d="M35.9601 3.66667H37.2001V4.88889H35.96L35.9601 3.66667Z" fill="#61DAFB"/>
<path d="M37.2001 3.66667H38.44V4.88889H37.2001V3.66667Z" fill="#61DAFB"/>
<path d="M38.44 3.66667H39.6801V4.88889H38.44V3.66667Z" fill="#61DAFB"/>
<path d="M39.6801 3.66667H40.92V4.88889H39.6801V3.66667Z" fill="#61DAFB"/>
<path d="M40.92 3.66667H42.16V4.88889H40.92V3.66667Z" fill="#61DAFB"/>
<path d="M42.16 3.66667H43.4V4.88889H42.16V3.66667Z" fill="#61DAFB"/>
<path d="M43.4 3.66667H44.64V4.88889H43.4V3.66667Z" fill="#61DAFB"/>
<path d="M44.64 3.66667H45.8801V4.88889H44.64V3.66667Z" fill="#61DAFB"/>
<path d="M45.8801 3.66667H47.12V4.88889H45.8801V3.66667Z" fill="#61DAFB"/>
<path d="M47.12 3.66667H48.36V4.88889H47.12V3.66667Z" fill="#61DAFB"/>
<path d="M48.36 3.66667L49.6 3.66666V4.88889H48.36V3.66667Z" fill="#61DAFB"/>
<path d="M12.4 4.88889L13.64 4.88889L13.64 6.11111H12.4V4.88889Z" fill="#61DAFB"/>
<path d="M13.64 4.88889H14.88V6.11111H13.64L13.64 4.88889Z" fill="#61DAFB"/>
<path d="M14.88 4.88889H16.12V6.11111H14.88V4.88889Z" fill="#61DAFB"/>
<path d="M16.12 4.88889H17.36V6.11111H16.12V4.88889Z" fill="#61DAFB"/>
<path d="M22.32 4.88889H23.56V6.11111H22.32L22.32 4.88889Z" fill="#61DAFB"/>
<path d="M23.56 4.88889H24.8V6.11111H23.56V4.88889Z" fill="#61DAFB"/>
<path d="M24.8 4.88889H26.04V6.11111H24.8V4.88889Z" fill="#61DAFB"/>
<path d="M26.04 4.88889H27.28V6.11111H26.04V4.88889Z" fill="#61DAFB"/>
<path d="M27.28 4.88889H28.52V6.11111H27.28V4.88889Z" fill="#61DAFB"/>
<path d="M28.52 4.88889L29.76 4.88889V6.11111H28.52V4.88889Z" fill="#61DAFB"/>
<path d="M33.48 4.88889L34.72 4.88889L34.72 6.11111H33.48V4.88889Z" fill="#61DAFB"/>
<path d="M34.72 4.88889H35.96V6.11111H34.72L34.72 4.88889Z" fill="#61DAFB"/>
<path d="M35.96 4.88889H37.2001V6.11111H35.96V4.88889Z" fill="#61DAFB"/>
<path d="M37.2001 4.88889H38.44V6.11111H37.2001V4.88889Z" fill="#61DAFB"/>
<path d="M38.44 4.88889H39.6801V6.11111H38.44V4.88889Z" fill="#61DAFB"/>
<path d="M39.6801 4.88889H40.92V6.11111H39.6801V4.88889Z" fill="#61DAFB"/>
<path d="M44.64 4.88889H45.8801V6.11111H44.6401L44.64 4.88889Z" fill="#60DFFF"/>
<path d="M45.8801 4.88889H47.12V6.11111H45.8801V4.88889Z" fill="#61DAFB"/>
<path d="M47.12 4.88889H48.36V6.11111H47.12V4.88889Z" fill="#61DAFB"/>
<path d="M48.36 4.88889H49.6V6.11111H48.36V4.88889Z" fill="#61DAFB"/>
<path d="M49.6 4.88889L50.84 4.88889V6.11111H49.6V4.88889Z" fill="#60D8FA"/>
<path d="M12.4 6.11111H13.64V7.33333H12.4V6.11111Z" fill="#61DAFB"/>
<path d="M13.64 6.11111H14.88V7.33333H13.64V6.11111Z" fill="#61DAFB"/>
<path d="M14.88 6.11111H16.12V7.33333H14.88V6.11111Z" fill="#61DAFB"/>
<path d="M16.12 6.11111H17.36V7.33333H16.12V6.11111Z" fill="#61DAFB"/>
<path d="M24.8 6.11111H26.04V7.33333H24.8L24.8 6.11111Z" fill="#61DAFB"/>
<path d="M26.04 6.11111H27.28V7.33333H26.04V6.11111Z" fill="#61DAFB"/>
<path d="M27.28 6.11111H28.52V7.33333H27.28V6.11111Z" fill="#61DAFB"/>
<path d="M28.52 6.11111H29.76V7.33333H28.52V6.11111Z" fill="#61DAFB"/>
<path d="M29.76 6.11111L31 6.11111V7.33333H29.76V6.11111Z" fill="#61DAFB"/>
<path d="M32.2401 6.11111L33.48 6.11111L33.4801 7.33333H32.2401V6.11111Z" fill="#61DAFB"/>
<path d="M33.48 6.11111H34.72V7.33333H33.4801L33.48 6.11111Z" fill="#61DAFB"/>
<path d="M34.72 6.11111H35.96V7.33333H34.72V6.11111Z" fill="#61DAFB"/>
<path d="M35.96 6.11111H37.2001V7.33333H35.96V6.11111Z" fill="#61DAFB"/>
<path d="M37.2001 6.11111H38.44V7.33333H37.2001V6.11111Z" fill="#61DAFB"/>
<path d="M45.8801 6.11111H47.12V7.33333H45.88L45.8801 6.11111Z" fill="#61DAFB"/>
<path d="M47.12 6.11111H48.36V7.33333H47.12V6.11111Z" fill="#61DAFB"/>
<path d="M48.36 6.11111H49.6V7.33333H48.36V6.11111Z" fill="#61DAFB"/>
<path d="M49.6 6.11111H50.84V7.33333H49.6V6.11111Z" fill="#61DAFB"/>
<path d="M12.4 7.33333H13.64V8.55556H12.4V7.33333Z" fill="#61DAFB"/>
<path d="M13.64 7.33333H14.88V8.55556H13.64V7.33333Z" fill="#61DAFB"/>
<path d="M14.88 7.33333H16.12V8.55556H14.88V7.33333Z" fill="#61DAFB"/>
<path d="M26.04 7.33333H27.28V8.55556H26.04L26.04 7.33333Z" fill="#61DAFB"/>
<path d="M27.28 7.33333H28.52V8.55556H27.28V7.33333Z" fill="#61DAFB"/>
<path d="M28.52 7.33333H29.76V8.55556H28.52V7.33333Z" fill="#61DAFB"/>
<path d="M29.76 7.33333H31V8.55556H29.76V7.33333Z" fill="#61DAFB"/>
<path d="M31 7.33333H32.2401L32.24 8.55556H31V7.33333Z" fill="#61DAFB"/>
<path d="M32.2401 7.33333H33.4801V8.55556H32.24L32.2401 7.33333Z" fill="#61DAFB"/>
<path d="M33.4801 7.33333H34.72V8.55556H33.4801V7.33333Z" fill="#61DAFB"/>
<path d="M34.72 7.33333H35.96V8.55556H34.72V7.33333Z" fill="#61DAFB"/>
<path d="M35.96 7.33333H37.2001V8.55556H35.96V7.33333Z" fill="#61DAFB"/>
<path d="M45.88 7.33333H47.12V8.55556H45.88V7.33333Z" fill="#61DAFB"/>
<path d="M47.12 7.33333H48.36V8.55556H47.12V7.33333Z" fill="#61DAFB"/>
<path d="M48.36 7.33333H49.6V8.55556H48.36V7.33333Z" fill="#61DAFB"/>
<path d="M49.6 7.33333H50.84V8.55556H49.6V7.33333Z" fill="#61DAFB"/>
<path d="M12.4 8.55556H13.64V9.77778H12.4V8.55556Z" fill="#61DAFB"/>
<path d="M13.64 8.55556H14.88V9.77778H13.64V8.55556Z" fill="#61DAFB"/>
<path d="M14.88 8.55556H16.12V9.77778H14.88V8.55556Z" fill="#61DAFB"/>
<path d="M27.28 8.55556H28.52V9.77778H27.28L27.28 8.55556Z" fill="#61DAFB"/>
<path d="M28.52 8.55556H29.76V9.77778H28.52V8.55556Z" fill="#61DAFB"/>
<path d="M29.76 8.55556H31V9.77778H29.76V8.55556Z" fill="#61DAFB"/>
<path d="M31 8.55556H32.24V9.77778H31V8.55556Z" fill="#61DAFB"/>
<path d="M32.24 8.55556H33.4801V9.77778H32.24V8.55556Z" fill="#61DAFB"/>
<path d="M33.4801 8.55556H34.72V9.77778H33.4801V8.55556Z" fill="#61DAFB"/>
<path d="M34.72 8.55556H35.96V9.77778H34.72V8.55556Z" fill="#61DAFB"/>
<path d="M47.12 8.55556H48.36V9.77778H47.12L47.12 8.55556Z" fill="#61DAFB"/>
<path d="M48.36 8.55556H49.6V9.77778H48.36V8.55556Z" fill="#61DAFB"/>
<path d="M49.6 8.55556H50.84V9.77778H49.6V8.55556Z" fill="#61DAFB"/>
<path d="M12.4 9.77778H13.64V11H12.4V9.77778Z" fill="#61DAFB"/>
<path d="M13.64 9.77778H14.88V11H13.64V9.77778Z" fill="#61DAFB"/>
<path d="M14.88 9.77778H16.12V11H14.88V9.77778Z" fill="#61DAFB"/>
<path d="M28.52 9.77778H29.76V11H28.52L28.52 9.77778Z" fill="#61DAFB"/>
<path d="M29.76 9.77778H31V11H29.76V9.77778Z" fill="#61DAFB"/>
<path d="M31 9.77778H32.24V11H31V9.77778Z" fill="#61DAFB"/>
<path d="M32.24 9.77778H33.4801V11H32.24V9.77778Z" fill="#61DAFB"/>
<path d="M33.4801 9.77778H34.72V11H33.4801V9.77778Z" fill="#61DAFB"/>
<path d="M47.12 9.77778H48.36V11H47.12V9.77778Z" fill="#61DAFB"/>
<path d="M48.36 9.77778H49.6V11H48.36V9.77778Z" fill="#61DAFB"/>
<path d="M49.6 9.77778H50.84V11H49.6V9.77778Z" fill="#61DAFB"/>
<path d="M12.4 11H13.64V12.2222H12.4V11Z" fill="#61DAFB"/>
<path d="M13.64 11H14.88V12.2222H13.64V11Z" fill="#61DAFB"/>
<path d="M14.88 11H16.12V12.2222H14.88V11Z" fill="#61DAFB"/>
<path d="M27.28 11L28.52 11L28.52 12.2222H27.28V11Z" fill="#61DAFB"/>
<path d="M28.52 11H29.76V12.2222H28.52L28.52 11Z" fill="#61DAFB"/>
<path d="M29.76 11H31V12.2222H29.76V11Z" fill="#61DAFB"/>
<path d="M31 11H32.24V12.2222H31V11Z" fill="#61DAFB"/>
<path d="M32.24 11H33.4801V12.2222H32.24V11Z" fill="#61DAFB"/>
<path d="M33.4801 11H34.72V12.2222H33.4801V11Z" fill="#61DAFB"/>
<path d="M34.72 11L35.96 11V12.2222H34.72V11Z" fill="#61DAFB"/>
<path d="M47.12 11H48.36V12.2222H47.12V11Z" fill="#61DAFB"/>
<path d="M48.36 11H49.6V12.2222H48.36V11Z" fill="#61DAFB"/>
<path d="M49.6 11H50.84V12.2222H49.6V11Z" fill="#61DAFB"/>
<path d="M12.4 12.2222H13.64V13.4444H12.4V12.2222Z" fill="#61DAFB"/>
<path d="M13.64 12.2222H14.88V13.4444H13.64V12.2222Z" fill="#61DAFB"/>
<path d="M14.88 12.2222H16.12V13.4444H14.88V12.2222Z" fill="#61DAFB"/>
<path d="M26.04 12.2222L27.28 12.2222L27.28 13.4444H26.04V12.2222Z" fill="#61DAFB"/>
<path d="M27.28 12.2222H28.52V13.4444H27.28L27.28 12.2222Z" fill="#61DAFB"/>
<path d="M28.52 12.2222H29.76V13.4444H28.52V12.2222Z" fill="#61DAFB"/>
<path d="M29.76 12.2222H31V13.4444H29.76V12.2222Z" fill="#61DAFB"/>
<path d="M31 12.2222H32.24V13.4444H31V12.2222Z" fill="#61DAFB"/>
<path d="M32.24 12.2222H33.4801V13.4444H32.24V12.2222Z" fill="#61DAFB"/>
<path d="M33.4801 12.2222H34.72V13.4444H33.4801V12.2222Z" fill="#61DAFB"/>
<path d="M34.72 12.2222H35.96V13.4444H34.72V12.2222Z" fill="#61DAFB"/>
<path d="M35.96 12.2222L37.2001 12.2222V13.4444H35.96V12.2222Z" fill="#61DAFB"/>
<path d="M45.88 12.2222L47.12 12.2222L47.12 13.4444H45.88V12.2222Z" fill="#61DAFB"/>
<path d="M47.12 12.2222H48.36V13.4444H47.12L47.12 12.2222Z" fill="#61DAFB"/>
<path d="M48.36 12.2222H49.6V13.4444H48.36V12.2222Z" fill="#61DAFB"/>
<path d="M49.6 12.2222H50.84V13.4444H49.6V12.2222Z" fill="#61DAFB"/>
<path d="M12.4 13.4444H13.64V14.6667H12.4V13.4444Z" fill="#61DAFB"/>
<path d="M13.64 13.4444H14.88V14.6667H13.64V13.4444Z" fill="#61DAFB"/>
<path d="M14.88 13.4444H16.12V14.6667H14.88V13.4444Z" fill="#61DAFB"/>
<path d="M16.12 13.4444L17.36 13.4444V14.6667H16.12V13.4444Z" fill="#61DAFB"/>
<path d="M24.8 13.4444L26.04 13.4444L26.04 14.6667H24.8V13.4444Z" fill="#61DAFB"/>
<path d="M26.04 13.4444H27.28V14.6667H26.04L26.04 13.4444Z" fill="#61DAFB"/>
<path d="M27.28 13.4444H28.52V14.6667H27.28V13.4444Z" fill="#61DAFB"/>
<path d="M28.52 13.4444H29.76V14.6667H28.52V13.4444Z" fill="#61DAFB"/>
<path d="M29.76 13.4444H31V14.6667H29.76V13.4444Z" fill="#61DAFB"/>
<path d="M32.24 13.4444H33.4801V14.6667H32.2401L32.24 13.4444Z" fill="#61DAFB"/>
<path d="M33.4801 13.4444H34.72V14.6667H33.4801V13.4444Z" fill="#61DAFB"/>
<path d="M34.72 13.4444H35.96V14.6667H34.72V13.4444Z" fill="#61DAFB"/>
<path d="M35.96 13.4444H37.2001V14.6667H35.96V13.4444Z" fill="#61DAFB"/>
<path d="M37.2001 13.4444L38.44 13.4444V14.6667H37.2001V13.4444Z" fill="#61DAFB"/>
<path d="M45.88 13.4444H47.12V14.6667H45.88V13.4444Z" fill="#61DAFB"/>
<path d="M47.12 13.4444H48.36V14.6667H47.12V13.4444Z" fill="#61DAFB"/>
<path d="M48.36 13.4444H49.6V14.6667H48.36V13.4444Z" fill="#61DAFB"/>
<path d="M49.6 13.4444H50.84V14.6667H49.6V13.4444Z" fill="#61DAFB"/>
<path d="M12.4 14.6667H13.64V15.8889H12.4V14.6667Z" fill="#61DAFB"/>
<path d="M13.64 14.6667H14.88V15.8889H13.64V14.6667Z" fill="#61DAFB"/>
<path d="M14.88 14.6667H16.12V15.8889H14.88V14.6667Z" fill="#61DAFB"/>
<path d="M16.12 14.6667H17.36V15.8889H16.12V14.6667Z" fill="#61DAFB"/>
<path d="M24.8 14.6667H26.04V15.8889H24.8V14.6667Z" fill="#61DAFB"/>
<path d="M26.04 14.6667H27.28V15.8889H26.04V14.6667Z" fill="#61DAFB"/>
<path d="M27.28 14.6667H28.52V15.8889H27.28V14.6667Z" fill="#61DAFB"/>
<path d="M28.52 14.6667H29.76V15.8889H28.52V14.6667Z" fill="#61DAFB"/>
<path d="M29.76 14.6667H31V15.8889H29.76V14.6667Z" fill="#61DAFB"/>
<path d="M31 14.6667H32.2401L32.24 15.8889H31V14.6667Z" fill="#61DAFB"/>
<path d="M32.2401 14.6667H33.4801V15.8889H32.24L32.2401 14.6667Z" fill="#61DAFB"/>
<path d="M33.4801 14.6667H34.72V15.8889H33.4801V14.6667Z" fill="#61DAFB"/>
<path d="M34.72 14.6667H35.96V15.8889H34.72V14.6667Z" fill="#61DAFB"/>
<path d="M35.96 14.6667H37.2001V15.8889H35.96V14.6667Z" fill="#61DAFB"/>
<path d="M37.2001 14.6667H38.44V15.8889H37.2001V14.6667Z" fill="#61DAFB"/>
<path d="M45.88 14.6667H47.12V15.8889H45.88V14.6667Z" fill="#61DAFB"/>
<path d="M47.12 14.6667H48.36V15.8889H47.12V14.6667Z" fill="#61DAFB"/>
<path d="M48.36 14.6667H49.6V15.8889H48.36V14.6667Z" fill="#61DAFB"/>
<path d="M49.6 14.6667H50.84V15.8889H49.6V14.6667Z" fill="#61DAFB"/>
<path d="M12.4 15.8889H13.64V17.1111H12.4V15.8889Z" fill="#61DAFB"/>
<path d="M13.64 15.8889H14.88V17.1111H13.64V15.8889Z" fill="#61DAFB"/>
<path d="M14.88 15.8889H16.12V17.1111H14.88V15.8889Z" fill="#61DAFB"/>
<path d="M16.12 15.8889H17.36V17.1111H16.12V15.8889Z" fill="#61DAFB"/>
<path d="M17.36 15.8889L18.6 15.8889V17.1111H17.36V15.8889Z" fill="#61DAFB"/>
<path d="M18.6 15.8889H19.84V17.1111H18.6V15.8889Z" fill="#61DAFB"/>
<path d="M19.84 15.8889H21.08V17.1111H19.84V15.8889Z" fill="#61DAFB"/>
<path d="M21.08 15.8889H22.32V17.1111H21.08V15.8889Z" fill="#61DAFB"/>
<path d="M22.32 15.8889H23.56V17.1111H22.32V15.8889Z" fill="#61DAFB"/>
<path d="M23.56 15.8889L24.8 15.8889L24.8 17.1111H23.56V15.8889Z" fill="#61DAFB"/>
<path d="M24.8 15.8889H26.04V17.1111H24.8L24.8 15.8889Z" fill="#61DAFB"/>
<path d="M26.04 15.8889H27.28V17.1111H26.04V15.8889Z" fill="#61DAFB"/>
<path d="M27.28 15.8889H28.52V17.1111H27.28V15.8889Z" fill="#61DAFB"/>
<path d="M28.52 15.8889H29.76V17.1111H28.52V15.8889Z" fill="#61DAFB"/>
<path d="M29.76 15.8889H31V17.1111H29.76V15.8889Z" fill="#61DAFB"/>
<path d="M31 15.8889H32.24V17.1111H31V15.8889Z" fill="#61DAFB"/>
<path d="M32.24 15.8889H33.4801V17.1111H32.24V15.8889Z" fill="#61DAFB"/>
<path d="M33.4801 15.8889H34.72V17.1111H33.4801V15.8889Z" fill="#61DAFB"/>
<path d="M34.72 15.8889H35.96V17.1111H34.72V15.8889Z" fill="#61DAFB"/>
<path d="M35.96 15.8889H37.2001V17.1111H35.96V15.8889Z" fill="#61DAFB"/>
<path d="M37.2001 15.8889H38.44V17.1111H37.2001V15.8889Z" fill="#61DAFB"/>
<path d="M38.44 15.8889L39.6801 15.8889V17.1111H38.44V15.8889Z" fill="#61DAFB"/>
<path d="M39.6801 15.8889H40.92V17.1111H39.6801V15.8889Z" fill="#61DAFB"/>
<path d="M40.92 15.8889H42.16V17.1111H40.92V15.8889Z" fill="#61DAFB"/>
<path d="M42.16 15.8889H43.4V17.1111H42.16V15.8889Z" fill="#61DAFB"/>
<path d="M43.4 15.8889H44.64V17.1111H43.4V15.8889Z" fill="#61DAFB"/>
<path d="M44.64 15.8889L45.88 15.8889L45.8801 17.1111H44.64V15.8889Z" fill="#61DAFB"/>
<path d="M45.88 15.8889H47.12V17.1111H45.8801L45.88 15.8889Z" fill="#61DAFB"/>
<path d="M47.12 15.8889H48.36V17.1111H47.12V15.8889Z" fill="#61DAFB"/>
<path d="M48.36 15.8889H49.6V17.1111H48.36V15.8889Z" fill="#61DAFB"/>
<path d="M12.4 17.1111H13.64V18.3333H12.4V17.1111Z" fill="#61DAFB"/>
<path d="M13.64 17.1111H14.88V18.3333H13.64V17.1111Z" fill="#61DAFB"/>
<path d="M14.88 17.1111H16.12V18.3333H14.88V17.1111Z" fill="#61DAFB"/>
<path d="M16.12 17.1111H17.36V18.3333H16.12V17.1111Z" fill="#61DAFB"/>
<path d="M17.36 17.1111H18.6V18.3333H17.36V17.1111Z" fill="#61DAFB"/>
<path d="M18.6 17.1111H19.84V18.3333H18.6V17.1111Z" fill="#61DAFB"/>
<path d="M19.84 17.1111H21.08V18.3333H19.84V17.1111Z" fill="#61DAFB"/>
<path d="M21.08 17.1111H22.32V18.3333H21.08V17.1111Z" fill="#61DAFB"/>
<path d="M22.32 17.1111H23.56V18.3333H22.32V17.1111Z" fill="#61DAFB"/>
<path d="M23.56 17.1111H24.8V18.3333H23.56V17.1111Z" fill="#61DAFB"/>
<path d="M24.8 17.1111H26.04V18.3333H24.8V17.1111Z" fill="#61DAFB"/>
<path d="M26.04 17.1111H27.28V18.3333H26.04V17.1111Z" fill="#61DAFB"/>
<path d="M27.28 17.1111H28.52V18.3333H27.28V17.1111Z" fill="#61DAFB"/>
<path d="M28.52 17.1111H29.76V18.3333H28.52V17.1111Z" fill="#61DAFB"/>
<path d="M29.76 17.1111H31V18.3333H29.76V17.1111Z" fill="#61DAFB"/>
<path d="M31 17.1111H32.24V18.3333H31V17.1111Z" fill="#61DAFB"/>
<path d="M32.24 17.1111H33.4801V18.3333H32.24V17.1111Z" fill="#61DAFB"/>
<path d="M33.4801 17.1111H34.72V18.3333H33.4801V17.1111Z" fill="#61DAFB"/>
<path d="M34.72 17.1111H35.96V18.3333H34.72V17.1111Z" fill="#61DAFB"/>
<path d="M35.96 17.1111H37.2001V18.3333H35.96V17.1111Z" fill="#61DAFB"/>
<path d="M37.2001 17.1111H38.44V18.3333H37.2001V17.1111Z" fill="#61DAFB"/>
<path d="M38.44 17.1111H39.6801V18.3333H38.44V17.1111Z" fill="#61DAFB"/>
<path d="M39.6801 17.1111H40.92V18.3333H39.6801V17.1111Z" fill="#61DAFB"/>
<path d="M40.92 17.1111H42.16V18.3333H40.92V17.1111Z" fill="#61DAFB"/>
<path d="M42.16 17.1111H43.4V18.3333H42.16V17.1111Z" fill="#61DAFB"/>
<path d="M43.4 17.1111H44.64V18.3333H43.4V17.1111Z" fill="#61DAFB"/>
<path d="M44.64 17.1111H45.8801V18.3333H44.64V17.1111Z" fill="#61DAFB"/>
<path d="M45.8801 17.1111H47.12V18.3333H45.8801V17.1111Z" fill="#61DAFB"/>
<path d="M47.12 17.1111H48.36V18.3333H47.12V17.1111Z" fill="#61DAFB"/>
<path d="M48.36 17.1111H49.6V18.3333H48.36V17.1111Z" fill="#61DAFB"/>
<path d="M49.6 17.1111L50.84 17.1111V18.3333H49.6V17.1111Z" fill="#61DAFB"/>
<path d="M8.67999 18.3333H9.91999V19.5556H8.67999V18.3333Z" fill="#61DAFB"/>
<path d="M9.91999 18.3333H11.16V19.5556H9.91999V18.3333Z" fill="#61DAFB"/>
<path d="M11.16 18.3333L12.4 18.3333L12.4 19.5556H11.16V18.3333Z" fill="#61DAFB"/>
<path d="M12.4 18.3333H13.64V19.5556H12.4L12.4 18.3333Z" fill="#61DAFB"/>
<path d="M13.64 18.3333H14.88V19.5556H13.64V18.3333Z" fill="#61DAFB"/>
<path d="M14.88 18.3333H16.12V19.5556H14.88V18.3333Z" fill="#61DAFB"/>
<path d="M16.12 18.3333H17.36V19.5556H16.12V18.3333Z" fill="#61DAFB"/>
<path d="M17.36 18.3333H18.6V19.5556H17.36V18.3333Z" fill="#61DAFB"/>
<path d="M18.6 18.3333H19.84V19.5556H18.6V18.3333Z" fill="#61DAFB"/>
<path d="M19.84 18.3333H21.08V19.5556H19.84V18.3333Z" fill="#61DAFB"/>
<path d="M21.08 18.3333H22.32V19.5556H21.08V18.3333Z" fill="#61DAFB"/>
<path d="M22.32 18.3333H23.56V19.5556H22.32V18.3333Z" fill="#61DAFB"/>
<path d="M23.56 18.3333H24.8V19.5556H23.56V18.3333Z" fill="#61DAFB"/>
<path d="M24.8 18.3333H26.04V19.5556H24.8V18.3333Z" fill="#61DAFB"/>
<path d="M26.04 18.3333H27.28V19.5556H26.04V18.3333Z" fill="#61DAFB"/>
<path d="M27.28 18.3333H28.52V19.5556H27.28V18.3333Z" fill="#61DAFB"/>
<path d="M28.52 18.3333H29.76V19.5556H28.52V18.3333Z" fill="#61DAFB"/>
<path d="M29.76 18.3333H31V19.5556H29.76V18.3333Z" fill="#61DAFB"/>
<path d="M31 18.3333H32.24V19.5556H31V18.3333Z" fill="#61DAFB"/>
<path d="M32.24 18.3333H33.4801V19.5556H32.24V18.3333Z" fill="#61DAFB"/>
<path d="M33.4801 18.3333H34.72V19.5556H33.4801V18.3333Z" fill="#61DAFB"/>
<path d="M34.72 18.3333H35.96V19.5556H34.72V18.3333Z" fill="#61DAFB"/>
<path d="M35.96 18.3333H37.2001V19.5556H35.96V18.3333Z" fill="#61DAFB"/>
<path d="M37.2001 18.3333H38.44V19.5556H37.2001V18.3333Z" fill="#61DAFB"/>
<path d="M38.44 18.3333H39.6801V19.5556H38.44V18.3333Z" fill="#61DAFB"/>
<path d="M39.6801 18.3333H40.92V19.5556H39.6801V18.3333Z" fill="#61DAFB"/>
<path d="M40.92 18.3333H42.16V19.5556H40.92V18.3333Z" fill="#61DAFB"/>
<path d="M42.16 18.3333H43.4V19.5556H42.16V18.3333Z" fill="#61DAFB"/>
<path d="M43.4 18.3333H44.64V19.5556H43.4V18.3333Z" fill="#61DAFB"/>
<path d="M44.64 18.3333H45.8801V19.5556H44.64V18.3333Z" fill="#61DAFB"/>
<path d="M45.8801 18.3333H47.12V19.5556H45.8801V18.3333Z" fill="#61DAFB"/>
<path d="M47.12 18.3333H48.36V19.5556H47.12V18.3333Z" fill="#61DAFB"/>
<path d="M48.36 18.3333H49.6V19.5556H48.36V18.3333Z" fill="#61DAFB"/>
<path d="M49.6 18.3333H50.84V19.5556H49.6V18.3333Z" fill="#61DAFB"/>
<path d="M50.84 18.3333L52.0801 18.3333V19.5556H50.84V18.3333Z" fill="#61DAFB"/>
<path d="M52.0801 18.3333H53.32V19.5556H52.0801V18.3333Z" fill="#61DAFB"/>
<path d="M53.32 18.3333H54.56V19.5556H53.32V18.3333Z" fill="#61DAFB"/>
<path d="M6.2 19.5556H7.44V20.7778H6.2V19.5556Z" fill="#61DAFB"/>
<path d="M7.44 19.5556L8.67999 19.5556L8.68004 20.7778H7.44V19.5556Z" fill="#61DAFB"/>
<path d="M8.67999 19.5556H9.91999V20.7778H8.68004L8.67999 19.5556Z" fill="#61DAFB"/>
<path d="M9.91999 19.5556H11.16V20.7778H9.91999V19.5556Z" fill="#61DAFB"/>
<path d="M11.16 19.5556H12.4V20.7778H11.16V19.5556Z" fill="#61DAFB"/>
<path d="M12.4 19.5556H13.64V20.7778H12.4V19.5556Z" fill="#61DAFB"/>
<path d="M13.64 19.5556H14.88V20.7778H13.64V19.5556Z" fill="#61DAFB"/>
<path d="M14.88 19.5556H16.12V20.7778H14.88V19.5556Z" fill="#61DAFB"/>
<path d="M16.12 19.5556H17.36V20.7778H16.12V19.5556Z" fill="#61DAFB"/>
<path d="M17.36 19.5556H18.6V20.7778H17.36V19.5556Z" fill="#61DAFB"/>
<path d="M18.6 19.5556H19.84V20.7778H18.6V19.5556Z" fill="#61DAFB"/>
<path d="M21.08 19.5556H22.32V20.7778H21.08L21.08 19.5556Z" fill="#61DAFB"/>
<path d="M22.32 19.5556H23.56V20.7778H22.32V19.5556Z" fill="#61DAFB"/>
<path d="M23.56 19.5556H24.8V20.7778H23.56V19.5556Z" fill="#61DAFB"/>
<path d="M24.8 19.5556H26.04V20.7778H24.8V19.5556Z" fill="#61DAFB"/>
<path d="M37.2001 19.5556H38.44V20.7778H37.2L37.2001 19.5556Z" fill="#61DAFB"/>
<path d="M38.44 19.5556H39.6801V20.7778H38.44V19.5556Z" fill="#61DAFB"/>
<path d="M39.6801 19.5556H40.92V20.7778H39.6801V19.5556Z" fill="#61DAFB"/>
<path d="M40.92 19.5556H42.16V20.7778H40.92V19.5556Z" fill="#61DAFB"/>
<path d="M42.16 19.5556H43.4V20.7778H42.16V19.5556Z" fill="#60DAFA"/>
<path d="M43.4 19.5556H44.64V20.7778H43.4V19.5556Z" fill="#61DAFB"/>
<path d="M44.64 19.5556H45.8801V20.7778H44.64V19.5556Z" fill="#61DAFB"/>
<path d="M45.8801 19.5556H47.12V20.7778H45.8801V19.5556Z" fill="#61DAFB"/>
<path d="M47.12 19.5556H48.36V20.7778H47.12V19.5556Z" fill="#61DAFB"/>
<path d="M48.36 19.5556H49.6V20.7778H48.36V19.5556Z" fill="#61DAFB"/>
<path d="M49.6 19.5556H50.84V20.7778H49.6V19.5556Z" fill="#61DAFB"/>
<path d="M50.84 19.5556H52.0801V20.7778H50.84V19.5556Z" fill="#61DAFB"/>
<path d="M52.0801 19.5556H53.32V20.7778H52.0801V19.5556Z" fill="#61DAFB"/>
<path d="M53.32 19.5556H54.56V20.7778H53.32V19.5556Z" fill="#61DAFB"/>
<path d="M54.56 19.5556L55.8 19.5556V20.7778H54.56V19.5556Z" fill="#61DAFB"/>
<path d="M55.8 19.5556H57.04V20.7778H55.8V19.5556Z" fill="#61DAFB"/>
<path d="M4.96005 20.7778L6.2 20.7778L6.20005 22H4.96005V20.7778Z" fill="#61DAFB"/>
<path d="M6.2 20.7778H7.44V22H6.20005L6.2 20.7778Z" fill="#61DAFB"/>
<path d="M7.44 20.7778H8.68004V22H7.44V20.7778Z" fill="#61DAFB"/>
<path d="M8.68004 20.7778H9.91999V22H8.68004V20.7778Z" fill="#61DAFB"/>
<path d="M9.91999 20.7778H11.16V22H9.91999V20.7778Z" fill="#61DAFB"/>
<path d="M11.16 20.7778H12.4V22H11.16V20.7778Z" fill="#61DAFB"/>
<path d="M12.4 20.7778H13.64V22H12.4V20.7778Z" fill="#61DAFB"/>
<path d="M13.64 20.7778H14.88V22H13.64V20.7778Z" fill="#61DAFB"/>
<path d="M14.88 20.7778H16.12V22H14.88V20.7778Z" fill="#61DAFB"/>
<path d="M16.12 20.7778H17.36V22H16.12V20.7778Z" fill="#61DAFB"/>
<path d="M17.36 20.7778H18.6V22H17.36V20.7778Z" fill="#61DAFB"/>
<path d="M19.84 20.7778H21.08L21.08 22H19.84L19.84 20.7778Z" fill="#61DAFB"/>
<path d="M21.08 20.7778H22.32V22H21.08L21.08 20.7778Z" fill="#61DAFB"/>
<path d="M22.32 20.7778H23.56V22H22.32V20.7778Z" fill="#61DAFB"/>
<path d="M23.56 20.7778H24.8V22H23.56V20.7778Z" fill="#61DAFB"/>
<path d="M37.2 20.7778H38.44V22H37.2V20.7778Z" fill="#61DAFB"/>
<path d="M38.44 20.7778H39.6801V22H38.44V20.7778Z" fill="#61DAFB"/>
<path d="M39.6801 20.7778H40.92V22H39.6801V20.7778Z" fill="#61DAFB"/>
<path d="M40.92 20.7778H42.16V22H40.92V20.7778Z" fill="#61DAFB"/>
<path d="M42.16 20.7778H43.4V22H42.16V20.7778Z" fill="#61DAFB"/>
<path d="M44.64 20.7778H45.8801V22H44.6401L44.64 20.7778Z" fill="#61DAFB"/>
<path d="M45.8801 20.7778H47.12V22H45.8801V20.7778Z" fill="#61DAFB"/>
<path d="M47.12 20.7778H48.36V22H47.12V20.7778Z" fill="#61DAFB"/>
<path d="M48.36 20.7778H49.6V22H48.36V20.7778Z" fill="#61DAFB"/>
<path d="M49.6 20.7778H50.84V22H49.6V20.7778Z" fill="#61DAFB"/>
<path d="M50.84 20.7778H52.0801V22H50.84V20.7778Z" fill="#61DAFB"/>
<path d="M52.0801 20.7778H53.32V22H52.0801V20.7778Z" fill="#61DAFB"/>
<path d="M53.32 20.7778H54.56V22H53.32V20.7778Z" fill="#61DAFB"/>
<path d="M54.56 20.7778H55.8V22H54.56V20.7778Z" fill="#61DAFB"/>
<path d="M55.8 20.7778H57.04V22H55.8V20.7778Z" fill="#61DAFB"/>
<path d="M57.04 20.7778L58.28 20.7778V22H57.04V20.7778Z" fill="#61DAFB"/>
<path d="M2.47998 22H3.71999V23.2222H2.47998V22Z" fill="#61DAFB"/>
<path d="M3.71999 22L4.96005 22L4.96002 23.2222H3.71999V22Z" fill="#61DAFB"/>
<path d="M4.96005 22H6.20005V23.2222H4.96002L4.96005 22Z" fill="#61DAFB"/>
<path d="M6.20005 22H7.44V23.2222H6.20005V22Z" fill="#61DAFB"/>
<path d="M7.44 22H8.68004V23.2222H7.44V22Z" fill="#61DAFB"/>
<path d="M8.68004 22H9.91999V23.2222H8.68004V22Z" fill="#61DAFB"/>
<path d="M9.91999 22H11.16V23.2222H9.91999V22Z" fill="#61DAFB"/>
<path d="M14.88 22H16.12V23.2222H14.88L14.88 22Z" fill="#61DAFB"/>
<path d="M16.12 22H17.36V23.2222H16.12V22Z" fill="#61DAFB"/>
<path d="M17.36 22H18.6V23.2222H17.36V22Z" fill="#61DAFB"/>
<path d="M18.6 22H19.84L19.84 23.2222H18.6V22Z" fill="#61DAFB"/>
<path d="M19.84 22H21.08V23.2222H19.84L19.84 22Z" fill="#61DAFB"/>
<path d="M21.08 22H22.32V23.2222H21.08V22Z" fill="#61DAFB"/>
<path d="M22.32 22H23.56V23.2222H22.32V22Z" fill="#61DAFB"/>
<path d="M23.56 22H24.8V23.2222H23.56V22Z" fill="#61DAFB"/>
<path d="M29.76 22H31V23.2222H29.76V22Z" fill="#60DFFF"/>
<path d="M31 22H32.24V23.2222H31V22Z" fill="#61DAFB"/>
<path d="M38.44 22H39.6801V23.2222H38.4401L38.44 22Z" fill="#61DAFB"/>
<path d="M39.6801 22H40.92V23.2222H39.6801V22Z" fill="#61DAFB"/>
<path d="M40.92 22H42.16V23.2222H40.92V22Z" fill="#61DAFB"/>
<path d="M42.16 22H43.4V23.2222H42.16V22Z" fill="#61DAFB"/>
<path d="M43.4 22H44.6401L44.64 23.2222H43.4V22Z" fill="#61DAFB"/>
<path d="M44.6401 22H45.8801V23.2222H44.64L44.6401 22Z" fill="#61DAFB"/>
<path d="M45.8801 22H47.12V23.2222H45.8801V22Z" fill="#61DAFB"/>
<path d="M47.12 22H48.36V23.2222H47.12V22Z" fill="#61DAFB"/>
<path d="M52.0801 22H53.32V23.2222H52.08L52.0801 22Z" fill="#61DAFB"/>
<path d="M53.32 22H54.56V23.2222H53.32V22Z" fill="#61DAFB"/>
<path d="M54.56 22H55.8V23.2222H54.56V22Z" fill="#61DAFB"/>
<path d="M55.8 22H57.04V23.2222H55.8V22Z" fill="#61DAFB"/>
<path d="M57.04 22H58.28V23.2222H57.04V22Z" fill="#61DAFB"/>
<path d="M58.28 22L59.52 22V23.2222H58.28V22Z" fill="#61DAFB"/>
<path d="M2.47998 23.2222H3.71999V24.4445H2.47998V23.2222Z" fill="#61DAFB"/>
<path d="M3.71999 23.2222H4.96002V24.4445H3.71999V23.2222Z" fill="#61DAFB"/>
<path d="M4.96002 23.2222H6.20005V24.4445H4.96002V23.2222Z" fill="#61DAFB"/>
<path d="M6.20005 23.2222H7.44V24.4445H6.20005V23.2222Z" fill="#61DAFB"/>
<path d="M7.44 23.2222H8.68004V24.4445H7.44V23.2222Z" fill="#61DAFB"/>
<path d="M14.88 23.2222H16.12V24.4445H14.88V23.2222Z" fill="#61DAFB"/>
<path d="M16.12 23.2222H17.36V24.4445H16.12V23.2222Z" fill="#61DAFB"/>
<path d="M17.36 23.2222H18.6V24.4445H17.36V23.2222Z" fill="#61DAFB"/>
<path d="M18.6 23.2222H19.84V24.4445H18.6V23.2222Z" fill="#61DAFB"/>
<path d="M19.84 23.2222H21.08V24.4445H19.84V23.2222Z" fill="#61DAFB"/>
<path d="M21.08 23.2222H22.32V24.4445H21.08V23.2222Z" fill="#61DAFB"/>
<path d="M22.32 23.2222H23.56V24.4445H22.32V23.2222Z" fill="#61DAFB"/>
<path d="M28.52 23.2222L29.76 23.2222L29.76 24.4445H28.52V23.2222Z" fill="#61DAFB"/>
<path d="M29.76 23.2222H31V24.4445H29.76L29.76 23.2222Z" fill="#61DAFB"/>
<path d="M31 23.2222H32.24V24.4445H31V23.2222Z" fill="#61DAFB"/>
<path d="M32.24 23.2222L33.4801 23.2222V24.4445H32.24V23.2222Z" fill="#61DAFB"/>
<path d="M33.4801 23.2222H34.72V24.4445H33.4801V23.2222Z" fill="#61DAFB"/>
<path d="M39.6801 23.2222H40.92V24.4445H39.68L39.6801 23.2222Z" fill="#61DAFB"/>
<path d="M40.92 23.2222H42.16V24.4445H40.92V23.2222Z" fill="#61DAFB"/>
<path d="M42.16 23.2222H43.4V24.4445H42.16V23.2222Z" fill="#61DAFB"/>
<path d="M43.4 23.2222H44.64V24.4445H43.4V23.2222Z" fill="#61DAFB"/>
<path d="M44.64 23.2222H45.8801V24.4445H44.64V23.2222Z" fill="#61DAFB"/>
<path d="M45.8801 23.2222H47.12V24.4445H45.8801V23.2222Z" fill="#61DAFB"/>
<path d="M47.12 23.2222H48.36V24.4445H47.12V23.2222Z" fill="#61DAFB"/>
<path d="M54.56 23.2222H55.8V24.4445H54.56L54.56 23.2222Z" fill="#61DAFB"/>
<path d="M55.8 23.2222H57.04V24.4445H55.8V23.2222Z" fill="#61DAFB"/>
<path d="M57.04 23.2222H58.28V24.4445H57.04V23.2222Z" fill="#61DAFB"/>
<path d="M58.28 23.2222H59.52V24.4445H58.28V23.2222Z" fill="#61DAFB"/>
<path d="M59.52 23.2222L60.7601 23.2222V24.4445H59.52V23.2222Z" fill="#61DAFB"/>
<path d="M1.23995 24.4444L2.47998 24.4445L2.47995 25.6667H1.23995V24.4444Z" fill="#61DAFB"/>
<path d="M2.47998 24.4445H3.71999V25.6667H2.47995L2.47998 24.4445Z" fill="#61DAFB"/>
<path d="M3.71999 24.4445H4.96002V25.6667H3.71999V24.4445Z" fill="#61DAFB"/>
<path d="M4.96002 24.4445H6.20005V25.6667H4.96002V24.4445Z" fill="#61DAFB"/>
<path d="M16.12 24.4445H17.36V25.6667H16.12L16.12 24.4445Z" fill="#61DAFB"/>
<path d="M17.36 24.4445H18.6V25.6667H17.36V24.4445Z" fill="#61DAFB"/>
<path d="M18.6 24.4445H19.84V25.6667H18.6V24.4445Z" fill="#61DAFB"/>
<path d="M19.84 24.4445H21.08V25.6667H19.84V24.4445Z" fill="#61DAFB"/>
<path d="M21.08 24.4445H22.32V25.6667H21.08V24.4445Z" fill="#61DAFB"/>
<path d="M22.32 24.4445H23.56V25.6667H22.32V24.4445Z" fill="#61DAFB"/>
<path d="M27.28 24.4444L28.52 24.4445L28.52 25.6667H27.28V24.4444Z" fill="#61DAFB"/>
<path d="M28.52 24.4445H29.76V25.6667H28.52L28.52 24.4445Z" fill="#61DAFB"/>
<path d="M29.76 24.4445H31V25.6667H29.76V24.4445Z" fill="#61DAFB"/>
<path d="M31 24.4445H32.24V25.6667H31V24.4445Z" fill="#61DAFB"/>
<path d="M32.24 24.4445H33.4801V25.6667H32.24V24.4445Z" fill="#61DAFB"/>
<path d="M33.4801 24.4445H34.72V25.6667H33.4801V24.4445Z" fill="#61DAFB"/>
<path d="M34.72 24.4445L35.96 24.4444V25.6667H34.72V24.4445Z" fill="#61DAFB"/>
<path d="M39.68 24.4445H40.92V25.6667H39.68V24.4445Z" fill="#61DAFB"/>
<path d="M40.92 24.4445H42.16V25.6667H40.92V24.4445Z" fill="#61DAFB"/>
<path d="M42.16 24.4445H43.4V25.6667H42.16V24.4445Z" fill="#61DAFB"/>
<path d="M43.4 24.4445H44.64V25.6667H43.4V24.4445Z" fill="#61DAFB"/>
<path d="M44.64 24.4445H45.8801V25.6667H44.64V24.4445Z" fill="#61DAFB"/>
<path d="M45.8801 24.4445H47.12V25.6667H45.8801V24.4445Z" fill="#61DAFB"/>
<path d="M55.8 24.4445H57.04V25.6667H55.8L55.8 24.4445Z" fill="#61D9FA"/>
<path d="M57.04 24.4445H58.28V25.6667H57.04V24.4445Z" fill="#61DAFB"/>
<path d="M58.28 24.4445H59.52V25.6667H58.28V24.4445Z" fill="#61DAFB"/>
<path d="M59.52 24.4445H60.7601V25.6667H59.52V24.4445Z" fill="#61DAFB"/>
<path d="M60.7601 24.4445L62 24.4444V25.6667H60.7601V24.4445Z" fill="#61DAFB"/>
<path d="M1.23995 25.6667H2.47995V26.8889H1.23995V25.6667Z" fill="#61DAFB"/>
<path d="M2.47995 25.6667H3.71999V26.8889H2.47995V25.6667Z" fill="#61DAFB"/>
<path d="M3.71999 25.6667H4.96002V26.8889H3.71999V25.6667Z" fill="#61DAFB"/>
<path d="M16.12 25.6667H17.36V26.8889H16.12V25.6667Z" fill="#61DAFB"/>
<path d="M17.36 25.6667H18.6V26.8889H17.36V25.6667Z" fill="#61DAFB"/>
<path d="M18.6 25.6667H19.84V26.8889H18.6V25.6667Z" fill="#61DAFB"/>
<path d="M19.84 25.6667H21.08V26.8889H19.84V25.6667Z" fill="#61DAFB"/>
<path d="M21.08 25.6667H22.32V26.8889H21.08V25.6667Z" fill="#61DAFB"/>
<path d="M26.04 25.6667H27.28L27.28 26.8889H26.04V25.6667Z" fill="#61DAFB"/>
<path d="M27.28 25.6667H28.52V26.8889H27.28L27.28 25.6667Z" fill="#61DAFB"/>
<path d="M28.52 25.6667H29.76V26.8889H28.52V25.6667Z" fill="#61DAFB"/>
<path d="M29.76 25.6667H31V26.8889H29.76V25.6667Z" fill="#61DAFB"/>
<path d="M31 25.6667H32.24V26.8889H31V25.6667Z" fill="#61DAFB"/>
<path d="M32.24 25.6667H33.4801V26.8889H32.24V25.6667Z" fill="#61DAFB"/>
<path d="M33.4801 25.6667H34.72V26.8889H33.4801V25.6667Z" fill="#61DAFB"/>
<path d="M34.72 25.6667H35.96V26.8889H34.72V25.6667Z" fill="#61DAFB"/>
<path d="M35.96 25.6667H37.2001V26.8889H35.96V25.6667Z" fill="#61DAFB"/>
<path d="M40.92 25.6667H42.16V26.8889H40.92L40.92 25.6667Z" fill="#61DAFB"/>
<path d="M42.16 25.6667H43.4V26.8889H42.16V25.6667Z" fill="#61DAFB"/>
<path d="M43.4 25.6667H44.64V26.8889H43.4V25.6667Z" fill="#61DAFB"/>
<path d="M44.64 25.6667H45.8801V26.8889H44.64V25.6667Z" fill="#61DAFB"/>
<path d="M45.8801 25.6667H47.12V26.8889H45.8801V25.6667Z" fill="#61DAFB"/>
<path d="M57.04 25.6667H58.28V26.8889H57.04L57.04 25.6667Z" fill="#61DAFB"/>
<path d="M58.28 25.6667H59.52V26.8889H58.28V25.6667Z" fill="#61DAFB"/>
<path d="M59.52 25.6667H60.7601V26.8889H59.52V25.6667Z" fill="#61DAFB"/>
<path d="M60.7601 25.6667H62V26.8889H60.7601V25.6667Z" fill="#61DAFB"/>
<path d="M0 26.8889L1.23995 26.8889L1.24 28.1111H0V26.8889Z" fill="#61DAFA"/>
<path d="M1.23995 26.8889H2.47995V28.1111H1.24L1.23995 26.8889Z" fill="#61DAFB"/>
<path d="M2.47995 26.8889H3.71999V28.1111H2.47995V26.8889Z" fill="#61DAFB"/>
<path d="M3.71999 26.8889H4.96002V28.1111H3.71999V26.8889Z" fill="#61DAFB"/>
<path d="M16.12 26.8889H17.36V28.1111H16.12V26.8889Z" fill="#60D9F9"/>
<path d="M17.36 26.8889H18.6V28.1111H17.36V26.8889Z" fill="#61DAFB"/>
<path d="M18.6 26.8889H19.84V28.1111H18.6V26.8889Z" fill="#61DAFB"/>
<path d="M19.84 26.8889H21.08V28.1111H19.84V26.8889Z" fill="#61DAFB"/>
<path d="M21.08 26.8889H22.32V28.1111H21.08V26.8889Z" fill="#61DAFB"/>
<path d="M26.04 26.8889H27.28V28.1111H26.04V26.8889Z" fill="#61DAFB"/>
<path d="M27.28 26.8889H28.52V28.1111H27.28V26.8889Z" fill="#61DAFB"/>
<path d="M28.52 26.8889H29.76V28.1111H28.52V26.8889Z" fill="#61DAFB"/>
<path d="M29.76 26.8889H31V28.1111H29.76V26.8889Z" fill="#61DAFB"/>
<path d="M31 26.8889H32.24V28.1111H31V26.8889Z" fill="#61DAFB"/>
<path d="M32.24 26.8889H33.4801V28.1111H32.24V26.8889Z" fill="#61DAFB"/>
<path d="M33.4801 26.8889H34.72V28.1111H33.4801V26.8889Z" fill="#61DAFB"/>
<path d="M34.72 26.8889H35.96V28.1111H34.72V26.8889Z" fill="#61DAFB"/>
<path d="M35.96 26.8889H37.2001V28.1111H35.96V26.8889Z" fill="#61DAFB"/>
<path d="M40.92 26.8889H42.16V28.1111H40.92V26.8889Z" fill="#61DAFB"/>
<path d="M42.16 26.8889H43.4V28.1111H42.16V26.8889Z" fill="#61DAFB"/>
<path d="M43.4 26.8889H44.64V28.1111H43.4V26.8889Z" fill="#61DAFB"/>
<path d="M44.64 26.8889H45.8801V28.1111H44.64V26.8889Z" fill="#61DAFB"/>
<path d="M58.28 26.8889H59.52V28.1111H58.28L58.28 26.8889Z" fill="#61DAFB"/>
<path d="M59.52 26.8889H60.7601V28.1111H59.52V26.8889Z" fill="#61DAFB"/>
<path d="M60.7601 26.8889H62V28.1111H60.7601V26.8889Z" fill="#61DAFB"/>
<path d="M0 28.1111H1.24V29.3333H0V28.1111Z" fill="#60D9FC"/>
<path d="M1.24 28.1111H2.47995V29.3333H1.24V28.1111Z" fill="#61DAFB"/>
<path d="M2.47995 28.1111H3.71999V29.3333H2.47995V28.1111Z" fill="#61DAFB"/>
<path d="M3.71999 28.1111H4.96002V29.3333H3.71999V28.1111Z" fill="#61DAFB"/>
<path d="M16.12 28.1111H17.36V29.3333H16.12V28.1111Z" fill="#61DAFB"/>
<path d="M17.36 28.1111H18.6V29.3333H17.36V28.1111Z" fill="#61DAFB"/>
<path d="M18.6 28.1111H19.84V29.3333H18.6V28.1111Z" fill="#61DAFB"/>
<path d="M19.84 28.1111H21.08V29.3333H19.84V28.1111Z" fill="#61DAFB"/>
<path d="M21.08 28.1111H22.32V29.3333H21.08V28.1111Z" fill="#61DAFB"/>
<path d="M26.04 28.1111H27.28V29.3333H26.04V28.1111Z" fill="#61DAFB"/>
<path d="M27.28 28.1111H28.52V29.3333H27.28V28.1111Z" fill="#61DAFB"/>
<path d="M28.52 28.1111H29.76V29.3333H28.52V28.1111Z" fill="#61DAFB"/>
<path d="M29.76 28.1111H31V29.3333H29.76V28.1111Z" fill="#61DAFB"/>
<path d="M31 28.1111H32.24V29.3333H31V28.1111Z" fill="#61DAFB"/>
<path d="M32.24 28.1111H33.4801V29.3333H32.24V28.1111Z" fill="#61DAFB"/>
<path d="M33.4801 28.1111H34.72V29.3333H33.4801V28.1111Z" fill="#61DAFB"/>
<path d="M34.72 28.1111H35.96V29.3333H34.72V28.1111Z" fill="#61DAFB"/>
<path d="M35.96 28.1111H37.2001V29.3333H35.96V28.1111Z" fill="#61DAFB"/>
<path d="M40.92 28.1111H42.16V29.3333H40.92V28.1111Z" fill="#61DAFB"/>
<path d="M42.16 28.1111H43.4V29.3333H42.16V28.1111Z" fill="#61DAFB"/>
<path d="M43.4 28.1111H44.64V29.3333H43.4V28.1111Z" fill="#61DAFB"/>
<path d="M44.64 28.1111H45.8801V29.3333H44.64V28.1111Z" fill="#61DAFB"/>
<path d="M45.8801 28.1111L47.12 28.1111V29.3333H45.8801V28.1111Z" fill="#61DAFB"/>
<path d="M58.28 28.1111H59.52V29.3333H58.28V28.1111Z" fill="#61DAFB"/>
<path d="M59.52 28.1111H60.7601V29.3333H59.52V28.1111Z" fill="#61DAFB"/>
<path d="M60.7601 28.1111H62V29.3333H60.7601V28.1111Z" fill="#61DAFB"/>
<path d="M1.24 29.3333H2.47995V30.5556H1.23995L1.24 29.3333Z" fill="#61DAFB"/>
<path d="M2.47995 29.3333H3.71999V30.5556H2.47995V29.3333Z" fill="#61DAFB"/>
<path d="M3.71999 29.3333H4.96002V30.5556H3.71999V29.3333Z" fill="#61DAFB"/>
<path d="M4.96002 29.3333L6.20005 29.3333V30.5556H4.96002V29.3333Z" fill="#61DAFB"/>
<path d="M16.12 29.3333H17.36V30.5556H16.12V29.3333Z" fill="#61DAFB"/>
<path d="M17.36 29.3333H18.6V30.5556H17.36V29.3333Z" fill="#61DAFB"/>
<path d="M18.6 29.3333H19.84V30.5556H18.6V29.3333Z" fill="#61DAFB"/>
<path d="M19.84 29.3333H21.08V30.5556H19.84V29.3333Z" fill="#61DAFB"/>
<path d="M21.08 29.3333H22.32V30.5556H21.08V29.3333Z" fill="#61DAFB"/>
<path d="M26.04 29.3333H27.28V30.5556H26.04V29.3333Z" fill="#61DAFB"/>
<path d="M27.28 29.3333H28.52V30.5556H27.28V29.3333Z" fill="#61DAFB"/>
<path d="M28.52 29.3333H29.76V30.5556H28.52V29.3333Z" fill="#61DAFB"/>
<path d="M29.76 29.3333H31V30.5556H29.76V29.3333Z" fill="#61DAFB"/>
<path d="M31 29.3333H32.24V30.5556H31V29.3333Z" fill="#61DAFB"/>
<path d="M32.24 29.3333H33.4801V30.5556H32.24V29.3333Z" fill="#61DAFB"/>
<path d="M33.4801 29.3333H34.72V30.5556H33.4801V29.3333Z" fill="#61DAFB"/>
<path d="M34.72 29.3333H35.96V30.5556H34.72V29.3333Z" fill="#61DAFB"/>
<path d="M39.68 29.3333L40.92 29.3333L40.92 30.5556H39.68V29.3333Z" fill="#61D9FA"/>
<path d="M40.92 29.3333H42.16V30.5556H40.92L40.92 29.3333Z" fill="#61DAFB"/>
<path d="M42.16 29.3333H43.4V30.5556H42.16V29.3333Z" fill="#61DAFB"/>
<path d="M43.4 29.3333H44.64V30.5556H43.4V29.3333Z" fill="#61DAFB"/>
<path d="M44.64 29.3333H45.8801V30.5556H44.64V29.3333Z" fill="#61DAFB"/>
<path d="M45.8801 29.3333H47.12V30.5556H45.8801V29.3333Z" fill="#61DAFB"/>
<path d="M57.04 29.3333L58.28 29.3333L58.28 30.5556H57.04V29.3333Z" fill="#61DAFB"/>
<path d="M58.28 29.3333H59.52V30.5556H58.28L58.28 29.3333Z" fill="#61DAFB"/>
<path d="M59.52 29.3333H60.7601V30.5556H59.52V29.3333Z" fill="#61DAFB"/>
<path d="M60.7601 29.3333H62V30.5556H60.7601V29.3333Z" fill="#61DAFB"/>
<path d="M1.23995 30.5556H2.47995V31.7778H1.23995V30.5556Z" fill="#61DAFB"/>
<path d="M2.47995 30.5556H3.71999V31.7778H2.47995V30.5556Z" fill="#61DAFB"/>
<path d="M3.71999 30.5556H4.96002V31.7778H3.71999V30.5556Z" fill="#61DAFB"/>
<path d="M4.96002 30.5556H6.20005V31.7778H4.96002V30.5556Z" fill="#61DAFB"/>
<path d="M6.20005 30.5556H7.44V31.7778H6.20005V30.5556Z" fill="#61DAFB"/>
<path d="M14.88 30.5556H16.12L16.12 31.7778H14.88V30.5556Z" fill="#61D9FA"/>
<path d="M16.12 30.5556H17.36V31.7778H16.12L16.12 30.5556Z" fill="#61DAFB"/>
<path d="M17.36 30.5556H18.6V31.7778H17.36V30.5556Z" fill="#61DAFB"/>
<path d="M18.6 30.5556H19.84V31.7778H18.6V30.5556Z" fill="#61DAFB"/>
<path d="M19.84 30.5556H21.08V31.7778H19.84V30.5556Z" fill="#61DAFB"/>
<path d="M21.08 30.5556H22.32V31.7778H21.08V30.5556Z" fill="#61DAFB"/>
<path d="M22.32 30.5556H23.56V31.7778H22.32V30.5556Z" fill="#61DAFB"/>
<path d="M27.28 30.5556H28.52V31.7778H27.28L27.28 30.5556Z" fill="#61DAFB"/>
<path d="M28.52 30.5556H29.76V31.7778H28.52V30.5556Z" fill="#61DAFB"/>
<path d="M29.76 30.5556H31V31.7778H29.76V30.5556Z" fill="#61DAFB"/>
<path d="M31 30.5556H32.24V31.7778H31V30.5556Z" fill="#61DAFB"/>
<path d="M32.24 30.5556H33.4801V31.7778H32.24V30.5556Z" fill="#61DAFB"/>
<path d="M33.4801 30.5556H34.72V31.7778H33.4801V30.5556Z" fill="#61DAFB"/>
<path d="M34.72 30.5556H35.96V31.7778H34.72V30.5556Z" fill="#61DAFB"/>
<path d="M39.68 30.5556H40.92V31.7778H39.68V30.5556Z" fill="#61DAFB"/>
<path d="M40.92 30.5556H42.16V31.7778H40.92V30.5556Z" fill="#61DAFB"/>
<path d="M42.16 30.5556H43.4V31.7778H42.16V30.5556Z" fill="#61DAFB"/>
<path d="M43.4 30.5556H44.64V31.7778H43.4V30.5556Z" fill="#61DAFB"/>
<path d="M44.64 30.5556H45.8801V31.7778H44.64V30.5556Z" fill="#61DAFB"/>
<path d="M45.8801 30.5556H47.12V31.7778H45.8801V30.5556Z" fill="#61DAFB"/>
<path d="M55.8 30.5556H57.04L57.04 31.7778H55.8V30.5556Z" fill="#61DAFB"/>
<path d="M57.04 30.5556H58.28V31.7778H57.04L57.04 30.5556Z" fill="#61DAFB"/>
<path d="M58.28 30.5556H59.52V31.7778H58.28V30.5556Z" fill="#61DAFB"/>
<path d="M59.52 30.5556H60.7601V31.7778H59.52V30.5556Z" fill="#61DAFB"/>
<path d="M60.7601 30.5556H62V31.7778H60.7601V30.5556Z" fill="#61DAFB"/>
<path d="M2.47995 31.7778H3.71999V33H2.47998L2.47995 31.7778Z" fill="#61DAFB"/>
<path d="M3.71999 31.7778H4.96002V33H3.71999V31.7778Z" fill="#61DAFB"/>
<path d="M4.96002 31.7778H6.20005V33H4.96002V31.7778Z" fill="#61DAFB"/>
<path d="M6.20005 31.7778H7.44V33H6.20005V31.7778Z" fill="#61DAFB"/>
<path d="M7.44 31.7778H8.68004V33H7.44V31.7778Z" fill="#61DAFB"/>
<path d="M8.68004 31.7778H9.91999V33H8.68004V31.7778Z" fill="#61DAFB"/>
<path d="M14.88 31.7778H16.12V33H14.88V31.7778Z" fill="#61DAFB"/>
<path d="M16.12 31.7778H17.36V33H16.12V31.7778Z" fill="#61DAFB"/>
<path d="M17.36 31.7778H18.6V33H17.36V31.7778Z" fill="#61DAFB"/>
<path d="M18.6 31.7778H19.84V33H18.6V31.7778Z" fill="#61DAFB"/>
<path d="M19.84 31.7778H21.08V33H19.84V31.7778Z" fill="#61DAFB"/>
<path d="M21.08 31.7778H22.32V33H21.08V31.7778Z" fill="#61DAFB"/>
<path d="M22.32 31.7778H23.56V33H22.32V31.7778Z" fill="#61DAFB"/>
<path d="M23.56 31.7778H24.8V33H23.56V31.7778Z" fill="#60D7FF"/>
<path d="M28.52 31.7778H29.76V33H28.52L28.52 31.7778Z" fill="#61DAFB"/>
<path d="M29.76 31.7778H31V33H29.76V31.7778Z" fill="#61DAFB"/>
<path d="M31 31.7778H32.24V33H31V31.7778Z" fill="#61DAFB"/>
<path d="M32.24 31.7778H33.4801V33H32.24V31.7778Z" fill="#61DAFB"/>
<path d="M33.4801 31.7778H34.72V33H33.4801V31.7778Z" fill="#61DAFB"/>
<path d="M38.4401 31.7778H39.68L39.6801 33H38.4401V31.7778Z" fill="#61DAFB"/>
<path d="M39.68 31.7778H40.92V33H39.6801L39.68 31.7778Z" fill="#61DAFB"/>
<path d="M40.92 31.7778H42.16V33H40.92V31.7778Z" fill="#61DAFB"/>
<path d="M42.16 31.7778H43.4V33H42.16V31.7778Z" fill="#61DAFB"/>
<path d="M43.4 31.7778H44.64V33H43.4V31.7778Z" fill="#61DAFB"/>
<path d="M44.64 31.7778H45.8801V33H44.64V31.7778Z" fill="#61DAFB"/>
<path d="M45.8801 31.7778H47.12V33H45.8801V31.7778Z" fill="#61DAFB"/>
<path d="M47.12 31.7778H48.36V33H47.12V31.7778Z" fill="#61DAFB"/>
<path d="M53.32 31.7778H54.56V33H53.32V31.7778Z" fill="#61DAFB"/>
<path d="M54.56 31.7778H55.8L55.8 33H54.56V31.7778Z" fill="#61DAFB"/>
<path d="M55.8 31.7778H57.04V33H55.8L55.8 31.7778Z" fill="#61DAFB"/>
<path d="M57.04 31.7778H58.28V33H57.04V31.7778Z" fill="#61DAFB"/>
<path d="M58.28 31.7778H59.52V33H58.28V31.7778Z" fill="#61DAFB"/>
<path d="M59.52 31.7778H60.7601V33H59.52V31.7778Z" fill="#61DAFB"/>
<path d="M3.71999 33H4.96002V34.2222H3.72002L3.71999 33Z" fill="#61DAFB"/>
<path d="M4.96002 33H6.20005V34.2222H4.96002V33Z" fill="#61DAFB"/>
<path d="M6.20005 33H7.44V34.2222H6.20005V33Z" fill="#61DAFB"/>
<path d="M7.44 33H8.68004V34.2222H7.44V33Z" fill="#61DAFB"/>
<path d="M8.68004 33H9.91999V34.2222H8.68004V33Z" fill="#61DAFB"/>
<path d="M9.91999 33L11.16 33V34.2222H9.91999V33Z" fill="#61DAFB"/>
<path d="M11.16 33H12.4V34.2222H11.16V33Z" fill="#61DAFB"/>
<path d="M14.88 33H16.12V34.2222H14.88V33Z" fill="#61DAFB"/>
<path d="M16.12 33H17.36V34.2222H16.12V33Z" fill="#61DAFB"/>
<path d="M17.36 33H18.6V34.2222H17.36V33Z" fill="#61DAFB"/>
<path d="M19.84 33H21.08V34.2222H19.84L19.84 33Z" fill="#61DAFB"/>
<path d="M21.08 33H22.32V34.2222H21.08V33Z" fill="#61DAFB"/>
<path d="M22.32 33H23.56V34.2222H22.32V33Z" fill="#61DAFB"/>
<path d="M23.56 33H24.8V34.2222H23.56V33Z" fill="#61DAFB"/>
<path d="M38.4401 33H39.6801V34.2222H38.4401V33Z" fill="#61DAFB"/>
<path d="M39.6801 33H40.92V34.2222H39.6801V33Z" fill="#61DAFB"/>
<path d="M40.92 33H42.16V34.2222H40.92V33Z" fill="#61DAFB"/>
<path d="M42.16 33H43.4V34.2222H42.16V33Z" fill="#61DAFB"/>
<path d="M43.4 33H44.64V34.2222H43.4V33Z" fill="#61DAFB"/>
<path d="M44.64 33H45.8801V34.2222H44.64V33Z" fill="#61DAFB"/>
<path d="M45.8801 33H47.12V34.2222H45.8801V33Z" fill="#61DAFB"/>
<path d="M47.12 33H48.36V34.2222H47.12V33Z" fill="#61DAFB"/>
<path d="M50.8401 33H52.0801V34.2222H50.8401V33Z" fill="#61DAFB"/>
<path d="M52.0801 33L53.32 33L53.32 34.2222H52.0801V33Z" fill="#61DAFB"/>
<path d="M53.32 33H54.56V34.2222H53.32L53.32 33Z" fill="#61DAFB"/>
<path d="M54.56 33H55.8V34.2222H54.56V33Z" fill="#61DAFB"/>
<path d="M55.8 33H57.04V34.2222H55.8V33Z" fill="#61DAFB"/>
<path d="M57.04 33H58.28V34.2222H57.04V33Z" fill="#61DAFB"/>
<path d="M58.28 33H59.52V34.2222H58.28V33Z" fill="#61DAFB"/>
<path d="M4.96002 34.2222H6.20005V35.4445H4.96005L4.96002 34.2222Z" fill="#61DAFB"/>
<path d="M6.20005 34.2222H7.44V35.4445H6.20005V34.2222Z" fill="#61DAFB"/>
<path d="M7.44 34.2222H8.68004V35.4445H7.44V34.2222Z" fill="#61DAFB"/>
<path d="M8.68004 34.2222H9.91999V35.4445H8.68004V34.2222Z" fill="#61DAFB"/>
<path d="M9.91999 34.2222H11.16V35.4445H9.91999V34.2222Z" fill="#61DAFB"/>
<path d="M11.16 34.2222H12.4V35.4445H11.16V34.2222Z" fill="#61DAFB"/>
<path d="M12.4 34.2222H13.64V35.4445H12.4V34.2222Z" fill="#61DAFB"/>
<path d="M13.64 34.2222H14.88L14.88 35.4445H13.64V34.2222Z" fill="#61DAFB"/>
<path d="M14.88 34.2222H16.12V35.4445H14.88L14.88 34.2222Z" fill="#61DAFB"/>
<path d="M16.12 34.2222H17.36V35.4445H16.12V34.2222Z" fill="#61DAFB"/>
<path d="M17.36 34.2222H18.6V35.4445H17.36V34.2222Z" fill="#61DAFB"/>
<path d="M21.08 34.2222H22.32V35.4445H21.08L21.08 34.2222Z" fill="#61DAFB"/>
<path d="M22.32 34.2222H23.56V35.4445H22.32V34.2222Z" fill="#61DAFB"/>
<path d="M23.56 34.2222H24.8V35.4445H23.56V34.2222Z" fill="#61DAFB"/>
<path d="M24.8 34.2222H26.04V35.4445H24.8V34.2222Z" fill="#61DAFB"/>
<path d="M37.2 34.2222H38.4401L38.44 35.4445H37.2V34.2222Z" fill="#61DAFB"/>
<path d="M38.4401 34.2222H39.6801V35.4445H38.44L38.4401 34.2222Z" fill="#61DAFB"/>
<path d="M39.6801 34.2222H40.92V35.4445H39.6801V34.2222Z" fill="#61DAFB"/>
<path d="M40.92 34.2222H42.16V35.4445H40.92V34.2222Z" fill="#61DAFB"/>
<path d="M44.64 34.2222H45.8801V35.4445H44.6401L44.64 34.2222Z" fill="#61DAFB"/>
<path d="M45.8801 34.2222H47.12V35.4445H45.8801V34.2222Z" fill="#61DAFB"/>
<path d="M47.12 34.2222H48.36V35.4445H47.12V34.2222Z" fill="#61DAFB"/>
<path d="M48.36 34.2222H49.6V35.4445H48.36V34.2222Z" fill="#61DAFB"/>
<path d="M49.6 34.2222H50.8401L50.84 35.4445H49.6V34.2222Z" fill="#61DAFB"/>
<path d="M50.8401 34.2222H52.0801V35.4445H50.84L50.8401 34.2222Z" fill="#61DAFB"/>
<path d="M52.0801 34.2222H53.32V35.4445H52.0801V34.2222Z" fill="#61DAFB"/>
<path d="M53.32 34.2222H54.56V35.4445H53.32V34.2222Z" fill="#61DAFB"/>
<path d="M54.56 34.2222H55.8V35.4445H54.56V34.2222Z" fill="#61DAFB"/>
<path d="M55.8 34.2222H57.04V35.4445H55.8V34.2222Z" fill="#61DAFB"/>
<path d="M57.04 34.2222H58.28V35.4445H57.04V34.2222Z" fill="#61DAFB"/>
<path d="M7.44 35.4445H8.68004V36.6667H7.44004L7.44 35.4445Z" fill="#61DAFB"/>
<path d="M8.68004 35.4445H9.91999V36.6667H8.68004V35.4445Z" fill="#61DAFB"/>
<path d="M9.91999 35.4445H11.16V36.6667H9.91999V35.4445Z" fill="#61DAFB"/>
<path d="M11.16 35.4445H12.4V36.6667H11.16V35.4445Z" fill="#61DAFB"/>
<path d="M12.4 35.4445H13.64V36.6667H12.4V35.4445Z" fill="#61DAFB"/>
<path d="M13.64 35.4445H14.88V36.6667H13.64V35.4445Z" fill="#61DAFB"/>
<path d="M14.88 35.4445H16.12V36.6667H14.88V35.4445Z" fill="#61DAFB"/>
<path d="M16.12 35.4445H17.36V36.6667H16.12V35.4445Z" fill="#61DAFB"/>
<path d="M17.36 35.4445H18.6V36.6667H17.36V35.4445Z" fill="#61DAFB"/>
<path d="M18.6 35.4445L19.84 35.4445V36.6667H18.6V35.4445Z" fill="#61DAFB"/>
<path d="M19.84 35.4445L21.08 35.4445L21.08 36.6667H19.84V35.4445Z" fill="#61DAFB"/>
<path d="M21.08 35.4445H22.32V36.6667H21.08L21.08 35.4445Z" fill="#61DAFB"/>
<path d="M22.32 35.4445H23.56V36.6667H22.32V35.4445Z" fill="#61DAFB"/>
<path d="M23.56 35.4445H24.8V36.6667H23.56V35.4445Z" fill="#61DAFB"/>
<path d="M24.8 35.4445H26.04V36.6667H24.8V35.4445Z" fill="#61DAFB"/>
<path d="M37.2 35.4445H38.44V36.6667H37.2V35.4445Z" fill="#61DAFB"/>
<path d="M38.44 35.4445H39.6801V36.6667H38.44V35.4445Z" fill="#61DAFB"/>
<path d="M39.6801 35.4445H40.92V36.6667H39.6801V35.4445Z" fill="#61DAFB"/>
<path d="M40.92 35.4445H42.16V36.6667H40.92V35.4445Z" fill="#61DAFB"/>
<path d="M42.16 35.4445L43.4 35.4445V36.6667H42.16V35.4445Z" fill="#61DAFB"/>
<path d="M43.4 35.4445L44.6401 35.4445L44.64 36.6667H43.4V35.4445Z" fill="#61DAFB"/>
<path d="M44.6401 35.4445H45.8801V36.6667H44.64L44.6401 35.4445Z" fill="#61DAFB"/>
<path d="M45.8801 35.4445H47.12V36.6667H45.8801V35.4445Z" fill="#61DAFB"/>
<path d="M47.12 35.4445H48.36V36.6667H47.12V35.4445Z" fill="#61DAFB"/>
<path d="M48.36 35.4445H49.6V36.6667H48.36V35.4445Z" fill="#61DAFB"/>
<path d="M49.6 35.4445H50.84V36.6667H49.6V35.4445Z" fill="#61DAFB"/>
<path d="M50.84 35.4445H52.0801V36.6667H50.84V35.4445Z" fill="#61DAFB"/>
<path d="M52.0801 35.4445H53.32V36.6667H52.0801V35.4445Z" fill="#61DAFB"/>
<path d="M53.32 35.4445H54.56V36.6667H53.32V35.4445Z" fill="#61DAFB"/>
<path d="M54.56 35.4445H55.8V36.6667H54.56V35.4445Z" fill="#61DAFB"/>
<path d="M9.91999 36.6667H11.16V37.8889H9.92002L9.91999 36.6667Z" fill="#61DAFB"/>
<path d="M11.16 36.6667H12.4V37.8889H11.16V36.6667Z" fill="#61DAFB"/>
<path d="M12.4 36.6667H13.64V37.8889H12.4V36.6667Z" fill="#61DAFB"/>
<path d="M13.64 36.6667H14.88V37.8889H13.64V36.6667Z" fill="#61DAFB"/>
<path d="M14.88 36.6667H16.12V37.8889H14.88V36.6667Z" fill="#61DAFB"/>
<path d="M16.12 36.6667H17.36V37.8889H16.12V36.6667Z" fill="#61DAFB"/>
<path d="M17.36 36.6667H18.6V37.8889H17.36V36.6667Z" fill="#61DAFB"/>
<path d="M18.6 36.6667H19.84V37.8889H18.6V36.6667Z" fill="#61DAFB"/>
<path d="M19.84 36.6667H21.08V37.8889H19.84V36.6667Z" fill="#61DAFB"/>
<path d="M21.08 36.6667H22.32V37.8889H21.08V36.6667Z" fill="#61DAFB"/>
<path d="M22.32 36.6667H23.56V37.8889H22.32V36.6667Z" fill="#61DAFB"/>
<path d="M23.56 36.6667H24.8V37.8889H23.56V36.6667Z" fill="#61DAFB"/>
<path d="M24.8 36.6667H26.04V37.8889H24.8V36.6667Z" fill="#61DAFB"/>
<path d="M26.04 36.6667L27.28 36.6667V37.8889H26.04V36.6667Z" fill="#61DAFB"/>
<path d="M27.28 36.6667H28.52V37.8889H27.28V36.6667Z" fill="#61DAFB"/>
<path d="M28.52 36.6667H29.76V37.8889H28.52V36.6667Z" fill="#61DAFB"/>
<path d="M29.76 36.6667H31V37.8889H29.76V36.6667Z" fill="#61DAFB"/>
<path d="M31 36.6667H32.24V37.8889H31V36.6667Z" fill="#61DAFB"/>
<path d="M32.24 36.6667H33.4801V37.8889H32.24V36.6667Z" fill="#61DAFB"/>
<path d="M33.4801 36.6667H34.72V37.8889H33.4801V36.6667Z" fill="#61DAFB"/>
<path d="M34.72 36.6667H35.96V37.8889H34.72V36.6667Z" fill="#61DAFB"/>
<path d="M35.96 36.6667L37.2 36.6667L37.2001 37.8889H35.96V36.6667Z" fill="#61DAFB"/>
<path d="M37.2 36.6667H38.44V37.8889H37.2001L37.2 36.6667Z" fill="#61DAFB"/>
<path d="M38.44 36.6667H39.6801V37.8889H38.44V36.6667Z" fill="#61DAFB"/>
<path d="M39.6801 36.6667H40.92V37.8889H39.6801V36.6667Z" fill="#61DAFB"/>
<path d="M40.92 36.6667H42.16V37.8889H40.92V36.6667Z" fill="#61DAFB"/>
<path d="M42.16 36.6667H43.4V37.8889H42.16V36.6667Z" fill="#61DAFB"/>
<path d="M43.4 36.6667H44.64V37.8889H43.4V36.6667Z" fill="#61DAFB"/>
<path d="M44.64 36.6667H45.8801V37.8889H44.64V36.6667Z" fill="#61DAFB"/>
<path d="M45.8801 36.6667H47.12V37.8889H45.8801V36.6667Z" fill="#61DAFB"/>
<path d="M47.12 36.6667H48.36V37.8889H47.12V36.6667Z" fill="#61DAFB"/>
<path d="M48.36 36.6667H49.6V37.8889H48.36V36.6667Z" fill="#61DAFB"/>
<path d="M49.6 36.6667H50.84V37.8889H49.6V36.6667Z" fill="#61DAFB"/>
<path d="M50.84 36.6667H52.0801V37.8889H50.84V36.6667Z" fill="#61DAFB"/>
<path d="M52.0801 36.6667H53.32V37.8889H52.0801V36.6667Z" fill="#61DAFB"/>
<path d="M13.64 37.8889H14.88V39.1111H13.64L13.64 37.8889Z" fill="#61DAFB"/>
<path d="M14.88 37.8889H16.12V39.1111H14.88V37.8889Z" fill="#61DAFB"/>
<path d="M16.12 37.8889H17.36V39.1111H16.12V37.8889Z" fill="#61DAFB"/>
<path d="M17.36 37.8889H18.6V39.1111H17.36V37.8889Z" fill="#61DAFB"/>
<path d="M18.6 37.8889H19.84V39.1111H18.6V37.8889Z" fill="#61DAFB"/>
<path d="M19.84 37.8889H21.08V39.1111H19.84V37.8889Z" fill="#61DAFB"/>
<path d="M21.08 37.8889H22.32V39.1111H21.08V37.8889Z" fill="#61DAFB"/>
<path d="M22.32 37.8889H23.56V39.1111H22.32V37.8889Z" fill="#61DAFB"/>
<path d="M23.56 37.8889H24.8V39.1111H23.56V37.8889Z" fill="#61DAFB"/>
<path d="M24.8 37.8889H26.04V39.1111H24.8V37.8889Z" fill="#61DAFB"/>
<path d="M26.04 37.8889H27.28V39.1111H26.04V37.8889Z" fill="#61DAFB"/>
<path d="M27.28 37.8889H28.52V39.1111H27.28V37.8889Z" fill="#61DAFB"/>
<path d="M28.52 37.8889H29.76V39.1111H28.52V37.8889Z" fill="#61DAFB"/>
<path d="M29.76 37.8889H31V39.1111H29.76V37.8889Z" fill="#61DAFB"/>
<path d="M31 37.8889H32.24V39.1111H31V37.8889Z" fill="#61DAFB"/>
<path d="M32.24 37.8889H33.4801V39.1111H32.24V37.8889Z" fill="#61DAFB"/>
<path d="M33.4801 37.8889H34.72V39.1111H33.4801V37.8889Z" fill="#61DAFB"/>
<path d="M34.72 37.8889H35.96V39.1111H34.72V37.8889Z" fill="#61DAFB"/>
<path d="M35.96 37.8889H37.2001V39.1111H35.96V37.8889Z" fill="#61DAFB"/>
<path d="M37.2001 37.8889H38.44V39.1111H37.2001V37.8889Z" fill="#61DAFB"/>
<path d="M38.44 37.8889H39.6801V39.1111H38.44V37.8889Z" fill="#61DAFB"/>
<path d="M39.6801 37.8889H40.92V39.1111H39.6801V37.8889Z" fill="#61DAFB"/>
<path d="M40.92 37.8889H42.16V39.1111H40.92V37.8889Z" fill="#61DAFB"/>
<path d="M42.16 37.8889H43.4V39.1111H42.16V37.8889Z" fill="#61DAFB"/>
<path d="M43.4 37.8889H44.64V39.1111H43.4V37.8889Z" fill="#61DAFB"/>
<path d="M44.64 37.8889H45.8801V39.1111H44.64V37.8889Z" fill="#61DAFB"/>
<path d="M45.8801 37.8889H47.12V39.1111H45.8801V37.8889Z" fill="#61DAFB"/>
<path d="M47.12 37.8889H48.36V39.1111H47.12V37.8889Z" fill="#61DAFB"/>
<path d="M48.36 37.8889H49.6V39.1111H48.36V37.8889Z" fill="#61DAFB"/>
<path d="M12.4 39.1111H13.64L13.64 40.3333H12.4V39.1111Z" fill="#61DAFB"/>
<path d="M13.64 39.1111H14.88V40.3333H13.64L13.64 39.1111Z" fill="#61DAFB"/>
<path d="M14.88 39.1111H16.12V40.3333H14.88V39.1111Z" fill="#61DAFB"/>
<path d="M16.12 39.1111H17.36V40.3333H16.12V39.1111Z" fill="#61DAFB"/>
<path d="M18.6 39.1111H19.84V40.3333H18.6L18.6 39.1111Z" fill="#60D7FB"/>
<path d="M19.84 39.1111H21.08V40.3333H19.84V39.1111Z" fill="#61DAFB"/>
<path d="M21.08 39.1111H22.32V40.3333H21.08V39.1111Z" fill="#61DAFB"/>
<path d="M22.32 39.1111H23.56V40.3333H22.32V39.1111Z" fill="#61DAFB"/>
<path d="M23.56 39.1111H24.8V40.3333H23.56V39.1111Z" fill="#61DAFB"/>
<path d="M24.8 39.1111H26.04V40.3333H24.8V39.1111Z" fill="#61DAFB"/>
<path d="M26.04 39.1111H27.28V40.3333H26.04V39.1111Z" fill="#61DAFB"/>
<path d="M27.28 39.1111H28.52V40.3333H27.28V39.1111Z" fill="#61DAFB"/>
<path d="M28.52 39.1111H29.76V40.3333H28.52V39.1111Z" fill="#61DAFB"/>
<path d="M29.76 39.1111H31V40.3333H29.76V39.1111Z" fill="#61DAFB"/>
<path d="M31 39.1111H32.24V40.3333H31V39.1111Z" fill="#61DAFB"/>
<path d="M32.24 39.1111H33.4801V40.3333H32.24V39.1111Z" fill="#61DAFB"/>
<path d="M33.4801 39.1111H34.72V40.3333H33.4801V39.1111Z" fill="#61DAFB"/>
<path d="M34.72 39.1111H35.96V40.3333H34.72V39.1111Z" fill="#61DAFB"/>
<path d="M35.96 39.1111H37.2001V40.3333H35.96V39.1111Z" fill="#61DAFB"/>
<path d="M37.2001 39.1111H38.44V40.3333H37.2001V39.1111Z" fill="#61DAFB"/>
<path d="M38.44 39.1111H39.6801V40.3333H38.44V39.1111Z" fill="#61DAFB"/>
<path d="M39.6801 39.1111H40.92V40.3333H39.6801V39.1111Z" fill="#61DAFB"/>
<path d="M40.92 39.1111H42.16V40.3333H40.92V39.1111Z" fill="#61DAFB"/>
<path d="M42.16 39.1111H43.4V40.3333H42.16V39.1111Z" fill="#61DAFB"/>
<path d="M45.8801 39.1111H47.12V40.3333H45.88L45.8801 39.1111Z" fill="#61DAFB"/>
<path d="M47.12 39.1111H48.36V40.3333H47.12V39.1111Z" fill="#61DAFB"/>
<path d="M48.36 39.1111H49.6V40.3333H48.36V39.1111Z" fill="#61DAFB"/>
<path d="M49.6 39.1111H50.84V40.3333H49.6V39.1111Z" fill="#61DAFB"/>
<path d="M12.4 40.3333H13.64V41.5556H12.4V40.3333Z" fill="#61DAFB"/>
<path d="M13.64 40.3333H14.88V41.5556H13.64V40.3333Z" fill="#61DAFB"/>
<path d="M14.88 40.3333H16.12V41.5556H14.88V40.3333Z" fill="#61DAFB"/>
<path d="M16.12 40.3333H17.36V41.5556H16.12V40.3333Z" fill="#61DAFB"/>
<path d="M24.8 40.3333H26.04V41.5556H24.8L24.8 40.3333Z" fill="#61DAFB"/>
<path d="M26.04 40.3333H27.28V41.5556H26.04V40.3333Z" fill="#61DAFB"/>
<path d="M27.28 40.3333H28.52V41.5556H27.28V40.3333Z" fill="#61DAFB"/>
<path d="M28.52 40.3333H29.76V41.5556H28.52V40.3333Z" fill="#61DAFB"/>
<path d="M33.4801 40.3333H34.72V41.5556H33.48L33.4801 40.3333Z" fill="#61DAFB"/>
<path d="M34.72 40.3333H35.96V41.5556H34.72V40.3333Z" fill="#61DAFB"/>
<path d="M35.96 40.3333H37.2001V41.5556H35.96V40.3333Z" fill="#61DAFB"/>
<path d="M37.2001 40.3333H38.44V41.5556H37.2001V40.3333Z" fill="#61DAFB"/>
<path d="M45.88 40.3333H47.12V41.5556H45.88V40.3333Z" fill="#61DAFB"/>
<path d="M47.12 40.3333H48.36V41.5556H47.12V40.3333Z" fill="#61DAFB"/>
<path d="M48.36 40.3333H49.6V41.5556H48.36V40.3333Z" fill="#61DAFB"/>
<path d="M49.6 40.3333H50.84V41.5556H49.6V40.3333Z" fill="#61DAFB"/>
<path d="M12.4 41.5556H13.64V42.7778H12.4V41.5556Z" fill="#61DAFB"/>
<path d="M13.64 41.5556H14.88V42.7778H13.64V41.5556Z" fill="#61DAFB"/>
<path d="M14.88 41.5556H16.12V42.7778H14.88V41.5556Z" fill="#61DAFB"/>
<path d="M16.12 41.5556H17.36V42.7778H16.12V41.5556Z" fill="#60D8F9"/>
<path d="M26.04 41.5556H27.28V42.7778H26.04L26.04 41.5556Z" fill="#61DAFB"/>
<path d="M27.28 41.5556H28.52V42.7778H27.28V41.5556Z" fill="#61DAFB"/>
<path d="M28.52 41.5556H29.76V42.7778H28.52V41.5556Z" fill="#61DAFB"/>
<path d="M29.76 41.5556L31 41.5556V42.7778H29.76V41.5556Z" fill="#61DAFB"/>
<path d="M32.2401 41.5556L33.48 41.5556L33.4801 42.7778H32.2401V41.5556Z" fill="#61DAFB"/>
<path d="M33.48 41.5556H34.72V42.7778H33.4801L33.48 41.5556Z" fill="#61DAFB"/>
<path d="M34.72 41.5556H35.96V42.7778H34.72V41.5556Z" fill="#61DAFB"/>
<path d="M35.96 41.5556H37.2001V42.7778H35.96V41.5556Z" fill="#61DAFB"/>
<path d="M45.88 41.5556H47.12V42.7778H45.88V41.5556Z" fill="#61DAFB"/>
<path d="M47.12 41.5556H48.36V42.7778H47.12V41.5556Z" fill="#61DAFB"/>
<path d="M48.36 41.5556H49.6V42.7778H48.36V41.5556Z" fill="#61DAFB"/>
<path d="M49.6 41.5556H50.84V42.7778H49.6V41.5556Z" fill="#61DAFB"/>
<path d="M12.4 42.7778H13.64V44H12.4V42.7778Z" fill="#61DAFB"/>
<path d="M13.64 42.7778H14.88V44H13.64V42.7778Z" fill="#61DAFB"/>
<path d="M14.88 42.7778H16.12V44H14.88V42.7778Z" fill="#61DAFB"/>
<path d="M26.04 42.7778H27.28V44H26.04V42.7778Z" fill="#61DAFB"/>
<path d="M27.28 42.7778H28.52V44H27.28V42.7778Z" fill="#61DAFB"/>
<path d="M28.52 42.7778H29.76V44H28.52V42.7778Z" fill="#61DAFB"/>
<path d="M29.76 42.7778H31V44H29.76V42.7778Z" fill="#61DAFB"/>
<path d="M31 42.7778H32.2401L32.24 44H31V42.7778Z" fill="#61DAFB"/>
<path d="M32.2401 42.7778H33.4801V44H32.24L32.2401 42.7778Z" fill="#61DAFB"/>
<path d="M33.4801 42.7778H34.72V44H33.4801V42.7778Z" fill="#61DAFB"/>
<path d="M34.72 42.7778H35.96V44H34.72V42.7778Z" fill="#61DAFB"/>
<path d="M35.96 42.7778H37.2001V44H35.96V42.7778Z" fill="#60D7FF"/>
<path d="M45.88 42.7778H47.12V44H45.88V42.7778Z" fill="#60DAFA"/>
<path d="M47.12 42.7778H48.36V44H47.12V42.7778Z" fill="#61DAFB"/>
<path d="M48.36 42.7778H49.6V44H48.36V42.7778Z" fill="#61DAFB"/>
<path d="M49.6 42.7778H50.84V44H49.6V42.7778Z" fill="#61DAFB"/>
<path d="M12.4 44H13.64V45.2222H12.4V44Z" fill="#61DAFB"/>
<path d="M13.64 44H14.88V45.2222H13.64V44Z" fill="#61DAFB"/>
<path d="M14.88 44H16.12V45.2222H14.88V44Z" fill="#61DAFB"/>
<path d="M27.28 44H28.52V45.2222H27.28L27.28 44Z" fill="#61DAFB"/>
<path d="M28.52 44H29.76V45.2222H28.52V44Z" fill="#61DAFB"/>
<path d="M29.76 44H31V45.2222H29.76V44Z" fill="#61DAFB"/>
<path d="M31 44H32.24V45.2222H31V44Z" fill="#61DAFB"/>
<path d="M32.24 44H33.4801V45.2222H32.24V44Z" fill="#61DAFB"/>
<path d="M33.4801 44H34.72V45.2222H33.4801V44Z" fill="#61DAFB"/>
<path d="M34.72 44H35.96V45.2222H34.72V44Z" fill="#61DAFB"/>
<path d="M47.12 44H48.36V45.2222H47.12L47.12 44Z" fill="#61DAFB"/>
<path d="M48.36 44H49.6V45.2222H48.36V44Z" fill="#61DAFB"/>
<path d="M49.6 44H50.84V45.2222H49.6V44Z" fill="#61DAFB"/>
<path d="M12.4 45.2222H13.64V46.4445H12.4V45.2222Z" fill="#61DAFB"/>
<path d="M13.64 45.2222H14.88V46.4445H13.64V45.2222Z" fill="#61DAFB"/>
<path d="M14.88 45.2222H16.12V46.4445H14.88V45.2222Z" fill="#61DAFB"/>
<path d="M28.52 45.2222H29.76V46.4445H28.52L28.52 45.2222Z" fill="#61DAFB"/>
<path d="M29.76 45.2222H31V46.4445H29.76V45.2222Z" fill="#61DAFB"/>
<path d="M31 45.2222H32.24V46.4445H31V45.2222Z" fill="#61DAFB"/>
<path d="M32.24 45.2222H33.4801V46.4445H32.24V45.2222Z" fill="#61DAFB"/>
<path d="M33.4801 45.2222H34.72V46.4445H33.4801V45.2222Z" fill="#61DAFB"/>
<path d="M47.12 45.2222H48.36V46.4445H47.12V45.2222Z" fill="#61DAFB"/>
<path d="M48.36 45.2222H49.6V46.4445H48.36V45.2222Z" fill="#61DAFB"/>
<path d="M49.6 45.2222H50.84V46.4445H49.6V45.2222Z" fill="#61DAFB"/>
<path d="M12.4 46.4445H13.64V47.6667H12.4V46.4445Z" fill="#61DAFB"/>
<path d="M13.64 46.4445H14.88V47.6667H13.64V46.4445Z" fill="#61DAFB"/>
<path d="M14.88 46.4445H16.12V47.6667H14.88V46.4445Z" fill="#61DAFB"/>
<path d="M27.28 46.4445L28.52 46.4445L28.52 47.6667H27.28V46.4445Z" fill="#61DAFB"/>
<path d="M28.52 46.4445H29.76V47.6667H28.52L28.52 46.4445Z" fill="#61DAFB"/>
<path d="M29.76 46.4445H31V47.6667H29.76V46.4445Z" fill="#61DAFB"/>
<path d="M31 46.4445H32.24V47.6667H31V46.4445Z" fill="#61DAFB"/>
<path d="M32.24 46.4445H33.4801V47.6667H32.24V46.4445Z" fill="#61DAFB"/>
<path d="M33.4801 46.4445H34.72V47.6667H33.4801V46.4445Z" fill="#61DAFB"/>
<path d="M34.72 46.4445L35.96 46.4445V47.6667H34.72V46.4445Z" fill="#61DAFB"/>
<path d="M47.12 46.4445H48.36V47.6667H47.12V46.4445Z" fill="#61DAFB"/>
<path d="M48.36 46.4445H49.6V47.6667H48.36V46.4445Z" fill="#61DAFB"/>
<path d="M49.6 46.4445H50.84V47.6667H49.6V46.4445Z" fill="#61DAFB"/>
<path d="M12.4 47.6667H13.64V48.8889H12.4V47.6667Z" fill="#61DAFB"/>
<path d="M13.64 47.6667H14.88V48.8889H13.64V47.6667Z" fill="#61DAFB"/>
<path d="M14.88 47.6667H16.12V48.8889H14.88V47.6667Z" fill="#61DAFB"/>
<path d="M16.12 47.6667H17.36V48.8889H16.12V47.6667Z" fill="#61DAFB"/>
<path d="M26.04 47.6667H27.28L27.28 48.8889H26.04V47.6667Z" fill="#61DAFB"/>
<path d="M27.28 47.6667H28.52V48.8889H27.28L27.28 47.6667Z" fill="#61DAFB"/>
<path d="M28.52 47.6667H29.76V48.8889H28.52V47.6667Z" fill="#61DAFB"/>
<path d="M29.76 47.6667H31V48.8889H29.76V47.6667Z" fill="#61DAFB"/>
<path d="M31 47.6667H32.24V48.8889H31V47.6667Z" fill="#61DAFB"/>
<path d="M32.24 47.6667H33.4801V48.8889H32.24V47.6667Z" fill="#61DAFB"/>
<path d="M33.4801 47.6667H34.72V48.8889H33.4801V47.6667Z" fill="#61DAFB"/>
<path d="M34.72 47.6667H35.96V48.8889H34.72V47.6667Z" fill="#61DAFB"/>
<path d="M35.96 47.6667H37.2001V48.8889H35.96V47.6667Z" fill="#61DAFB"/>
<path d="M45.88 47.6667H47.12L47.12 48.8889H45.88V47.6667Z" fill="#61DAFB"/>
<path d="M47.12 47.6667H48.36V48.8889H47.12L47.12 47.6667Z" fill="#61DAFB"/>
<path d="M48.36 47.6667H49.6V48.8889H48.36V47.6667Z" fill="#61DAFB"/>
<path d="M49.6 47.6667H50.84V48.8889H49.6V47.6667Z" fill="#61DAFB"/>
<path d="M12.4 48.8889H13.64V50.1111H12.4V48.8889Z" fill="#61DAFB"/>
<path d="M13.64 48.8889H14.88V50.1111H13.64V48.8889Z" fill="#61DAFB"/>
<path d="M14.88 48.8889H16.12V50.1111H14.88V48.8889Z" fill="#61DAFB"/>
<path d="M16.12 48.8889H17.36V50.1111H16.12V48.8889Z" fill="#61DAFB"/>
<path d="M23.56 48.8889H24.8V50.1111H23.56V48.8889Z" fill="#61DAFB"/>
<path d="M24.8 48.8889L26.04 48.8889L26.04 50.1111H24.8V48.8889Z" fill="#61DAFB"/>
<path d="M26.04 48.8889H27.28V50.1111H26.04L26.04 48.8889Z" fill="#61DAFB"/>
<path d="M27.28 48.8889H28.52V50.1111H27.28V48.8889Z" fill="#61DAFB"/>
<path d="M28.52 48.8889H29.76V50.1111H28.52V48.8889Z" fill="#61DAFB"/>
<path d="M29.76 48.8889H31V50.1111H29.76V48.8889Z" fill="#61DAFB"/>
<path d="M32.24 48.8889H33.4801V50.1111H32.2401L32.24 48.8889Z" fill="#61DAFB"/>
<path d="M33.4801 48.8889H34.72V50.1111H33.4801V48.8889Z" fill="#61DAFB"/>
<path d="M34.72 48.8889H35.96V50.1111H34.72V48.8889Z" fill="#61DAFB"/>
<path d="M35.96 48.8889H37.2001V50.1111H35.96V48.8889Z" fill="#61DAFB"/>
<path d="M37.2001 48.8889L38.44 48.8889V50.1111H37.2001V48.8889Z" fill="#61DAFB"/>
<path d="M38.44 48.8889H39.6801V50.1111H38.44V48.8889Z" fill="#61DAFB"/>
<path d="M45.88 48.8889H47.12V50.1111H45.88V48.8889Z" fill="#61DAFB"/>
<path d="M47.12 48.8889H48.36V50.1111H47.12V48.8889Z" fill="#61DAFB"/>
<path d="M48.36 48.8889H49.6V50.1111H48.36V48.8889Z" fill="#61DAFB"/>
<path d="M49.6 48.8889H50.84V50.1111H49.6V48.8889Z" fill="#61DAFB"/>
<path d="M12.4 50.1111H13.64V51.3333H12.4V50.1111Z" fill="#60D9FC"/>
<path d="M13.64 50.1111H14.88V51.3333H13.64V50.1111Z" fill="#61DAFB"/>
<path d="M14.88 50.1111H16.12V51.3333H14.88V50.1111Z" fill="#61DAFB"/>
<path d="M16.12 50.1111H17.36V51.3333H16.12V50.1111Z" fill="#61DAFB"/>
<path d="M17.36 50.1111H18.6V51.3333H17.36V50.1111Z" fill="#61DAFB"/>
<path d="M21.08 50.1111H22.32V51.3333H21.08V50.1111Z" fill="#61DAFB"/>
<path d="M22.32 50.1111H23.56L23.56 51.3333H22.32V50.1111Z" fill="#61DAFB"/>
<path d="M23.56 50.1111H24.8V51.3333H23.56L23.56 50.1111Z" fill="#61DAFB"/>
<path d="M24.8 50.1111H26.04V51.3333H24.8V50.1111Z" fill="#61DAFB"/>
<path d="M26.04 50.1111H27.28V51.3333H26.04V50.1111Z" fill="#61DAFB"/>
<path d="M27.28 50.1111H28.52V51.3333H27.28V50.1111Z" fill="#61DAFB"/>
<path d="M28.52 50.1111H29.76V51.3333H28.52V50.1111Z" fill="#61DAFB"/>
<path d="M33.4801 50.1111H34.72V51.3333H33.48L33.4801 50.1111Z" fill="#61DAFB"/>
<path d="M34.72 50.1111H35.96V51.3333H34.72V50.1111Z" fill="#61DAFB"/>
<path d="M35.96 50.1111H37.2001V51.3333H35.96V50.1111Z" fill="#61DAFB"/>
<path d="M37.2001 50.1111H38.44V51.3333H37.2001V50.1111Z" fill="#61DAFB"/>
<path d="M38.44 50.1111H39.6801V51.3333H38.44V50.1111Z" fill="#61DAFB"/>
<path d="M39.6801 50.1111H40.92V51.3333H39.6801V50.1111Z" fill="#61DAFB"/>
<path d="M40.92 50.1111H42.16V51.3333H40.92V50.1111Z" fill="#61DAFB"/>
<path d="M44.6401 50.1111H45.88L45.8801 51.3333H44.6401V50.1111Z" fill="#61DAFB"/>
<path d="M45.88 50.1111H47.12V51.3333H45.8801L45.88 50.1111Z" fill="#61DAFB"/>
<path d="M47.12 50.1111H48.36V51.3333H47.12V50.1111Z" fill="#61DAFB"/>
<path d="M48.36 50.1111H49.6V51.3333H48.36V50.1111Z" fill="#61DAFB"/>
<path d="M13.64 51.3333H14.88V52.5556H13.64L13.64 51.3333Z" fill="#61DAFB"/>
<path d="M14.88 51.3333H16.12V52.5556H14.88V51.3333Z" fill="#61DAFB"/>
<path d="M16.12 51.3333H17.36V52.5556H16.12V51.3333Z" fill="#61DAFB"/>
<path d="M17.36 51.3333H18.6V52.5556H17.36V51.3333Z" fill="#61DAFB"/>
<path d="M18.6 51.3333H19.84V52.5556H18.6V51.3333Z" fill="#61DAFB"/>
<path d="M19.84 51.3333H21.08L21.08 52.5556H19.84V51.3333Z" fill="#61DAFB"/>
<path d="M21.08 51.3333H22.32V52.5556H21.08L21.08 51.3333Z" fill="#61DAFB"/>
<path d="M22.32 51.3333H23.56V52.5556H22.32V51.3333Z" fill="#61DAFB"/>
<path d="M23.56 51.3333H24.8V52.5556H23.56V51.3333Z" fill="#61DAFB"/>
<path d="M24.8 51.3333H26.04V52.5556H24.8V51.3333Z" fill="#61DAFB"/>
<path d="M26.04 51.3333H27.28V52.5556H26.04V51.3333Z" fill="#61DAFB"/>
<path d="M34.72 51.3333H35.96V52.5556H34.72L34.72 51.3333Z" fill="#60D7F7"/>
<path d="M35.96 51.3333H37.2001V52.5556H35.96V51.3333Z" fill="#61DAFB"/>
<path d="M37.2001 51.3333H38.44V52.5556H37.2001V51.3333Z" fill="#61DAFB"/>
<path d="M38.44 51.3333H39.6801V52.5556H38.44V51.3333Z" fill="#61DAFB"/>
<path d="M39.6801 51.3333H40.92V52.5556H39.6801V51.3333Z" fill="#61DAFB"/>
<path d="M40.92 51.3333H42.16V52.5556H40.92V51.3333Z" fill="#61DAFB"/>
<path d="M42.16 51.3333H43.4V52.5556H42.16V51.3333Z" fill="#61DAFB"/>
<path d="M43.4 51.3333H44.6401L44.64 52.5556H43.4V51.3333Z" fill="#61DAFB"/>
<path d="M44.6401 51.3333H45.8801V52.5556H44.64L44.6401 51.3333Z" fill="#61DAFB"/>
<path d="M45.8801 51.3333H47.12V52.5556H45.8801V51.3333Z" fill="#61DAFB"/>
<path d="M47.12 51.3333H48.36V52.5556H47.12V51.3333Z" fill="#61DAFB"/>
<path d="M48.36 51.3333H49.6V52.5556H48.36V51.3333Z" fill="#61DAFB"/>
<path d="M14.88 52.5556H16.12V53.7778H14.88L14.88 52.5556Z" fill="#61DAFB"/>
<path d="M16.12 52.5556H17.36V53.7778H16.12V52.5556Z" fill="#61DAFB"/>
<path d="M17.36 52.5556H18.6V53.7778H17.36V52.5556Z" fill="#61DAFB"/>
<path d="M18.6 52.5556H19.84V53.7778H18.6V52.5556Z" fill="#61DAFB"/>
<path d="M19.84 52.5556H21.08V53.7778H19.84V52.5556Z" fill="#61DAFB"/>
<path d="M21.08 52.5556H22.32V53.7778H21.08V52.5556Z" fill="#61DAFB"/>
<path d="M22.32 52.5556H23.56V53.7778H22.32V52.5556Z" fill="#61DAFB"/>
<path d="M23.56 52.5556H24.8V53.7778H23.56V52.5556Z" fill="#61DAFB"/>
<path d="M24.8 52.5556H26.04V53.7778H24.8V52.5556Z" fill="#61DAFB"/>
<path d="M37.2001 52.5556H38.44V53.7778H37.2L37.2001 52.5556Z" fill="#61DAFB"/>
<path d="M38.44 52.5556H39.6801V53.7778H38.44V52.5556Z" fill="#61DAFB"/>
<path d="M39.6801 52.5556H40.92V53.7778H39.6801V52.5556Z" fill="#61DAFB"/>
<path d="M40.92 52.5556H42.16V53.7778H40.92V52.5556Z" fill="#61DAFB"/>
<path d="M42.16 52.5556H43.4V53.7778H42.16V52.5556Z" fill="#61DAFB"/>
<path d="M43.4 52.5556H44.64V53.7778H43.4V52.5556Z" fill="#61DAFB"/>
<path d="M44.64 52.5556H45.8801V53.7778H44.64V52.5556Z" fill="#61DAFB"/>
<path d="M45.8801 52.5556H47.12V53.7778H45.8801V52.5556Z" fill="#61DAFB"/>
<path d="M47.12 52.5556H48.36V53.7778H47.12V52.5556Z" fill="#61DAFB"/>
<path d="M16.12 53.7778H17.36V55H16.12L16.12 53.7778Z" fill="#61DAFB"/>
<path d="M17.36 53.7778H18.6V55H17.36V53.7778Z" fill="#61DAFB"/>
<path d="M18.6 53.7778H19.84V55H18.6V53.7778Z" fill="#61DAFB"/>
<path d="M19.84 53.7778H21.08V55H19.84V53.7778Z" fill="#61DAFB"/>
<path d="M21.08 53.7778H22.32V55H21.08V53.7778Z" fill="#61DAFB"/>
<path d="M22.32 53.7778H23.56V55H22.32V53.7778Z" fill="#61DAFB"/>
<path d="M39.6801 53.7778H40.92V55H39.68L39.6801 53.7778Z" fill="#61DAFB"/>
<path d="M40.92 53.7778H42.16V55H40.92V53.7778Z" fill="#61DAFB"/>
<path d="M42.16 53.7778H43.4V55H42.16V53.7778Z" fill="#61DAFB"/>
<path d="M43.4 53.7778H44.64V55H43.4V53.7778Z" fill="#61DAFB"/>
<path d="M44.64 53.7778H45.8801V55H44.64V53.7778Z" fill="#61DAFB"/>
<path d="M45.8801 53.7778H47.12V55H45.8801V53.7778Z" fill="#61DAFB"/>
</svg>
