<svg width="55" height="55" viewBox="0 0 55 55" fill="none" xmlns="http://www.w3.org/2000/svg">
<path d="M21.3265 0H22.449V1.12245H21.3265V0Z" fill="#FFA700"/>
<path d="M22.449 0H23.5714V1.12245H22.449V0Z" fill="#FFA800"/>
<path d="M23.5714 0H24.6939V1.12245H23.5714V0Z" fill="#FFA800"/>
<path d="M24.6939 0H25.8163V1.12245H24.6939V0Z" fill="#FFA800"/>
<path d="M25.8163 0H26.9388V1.12245H25.8163V0Z" fill="#FFA700"/>
<path d="M13.4694 1.12245H14.5918V2.2449H13.4694V1.12245Z" fill="#FFA800"/>
<path d="M14.5918 1.12245H15.7143V2.2449H14.5918V1.12245Z" fill="#FFA800"/>
<path d="M15.7143 1.12245H16.8367V2.2449H15.7143V1.12245Z" fill="#FFA800"/>
<path d="M16.8367 1.12245H17.9592V2.2449H16.8367V1.12245Z" fill="#FFA800"/>
<path d="M17.9592 1.12245H19.0816V2.2449H17.9592V1.12245Z" fill="#FFA800"/>
<path d="M19.0816 1.12245H20.2041V2.2449H19.0816V1.12245Z" fill="#FFA800"/>
<path d="M20.2041 1.12245H21.3265V2.2449H20.2041V1.12245Z" fill="#FFA800"/>
<path d="M21.3265 1.12245H22.449V2.2449H21.3265V1.12245Z" fill="#FFA800"/>
<path d="M22.449 1.12245H23.5714V2.2449H22.449V1.12245Z" fill="#FFA800"/>
<path d="M23.5714 1.12245H24.6939V2.2449H23.5714V1.12245Z" fill="#FFA800"/>
<path d="M24.6939 1.12245H25.8163V2.2449H24.6939V1.12245Z" fill="#FFA800"/>
<path d="M25.8163 1.12245H26.9388V2.2449H25.8163V1.12245Z" fill="#FFA800"/>
<path d="M26.9388 1.12245H28.0612V2.2449H26.9388V1.12245Z" fill="#FFA800"/>
<path d="M28.0612 1.12245H29.1837V2.2449H28.0612V1.12245Z" fill="#FFA800"/>
<path d="M29.1837 1.12245H30.3061V2.2449H29.1837V1.12245Z" fill="#FFA800"/>
<path d="M30.3061 1.12245H31.4286V2.2449H30.3061V1.12245Z" fill="#FFA800"/>
<path d="M31.4286 1.12245H32.551V2.2449H31.4286V1.12245Z" fill="#FFA800"/>
<path d="M32.551 1.12245H33.6735V2.2449H32.551V1.12245Z" fill="#FFA800"/>
<path d="M33.6735 1.12245H34.7959V2.2449H33.6735V1.12245Z" fill="#FFA800"/>
<path d="M10.102 2.2449H11.2245V3.36735H10.102V2.2449Z" fill="#FFA800"/>
<path d="M11.2245 2.2449H12.3469V3.36735H11.2245V2.2449Z" fill="#FFA800"/>
<path d="M12.3469 2.2449H13.4694L13.4694 3.36735H12.3469V2.2449Z" fill="#FFA800"/>
<path d="M13.4694 2.2449H14.5918V3.36735H13.4694L13.4694 2.2449Z" fill="#FFA800"/>
<path d="M14.5918 2.2449H15.7143V3.36735H14.5918V2.2449Z" fill="#FFA800"/>
<path d="M15.7143 2.2449H16.8367V3.36735H15.7143V2.2449Z" fill="#FFA800"/>
<path d="M16.8367 2.2449H17.9592V3.36735H16.8367V2.2449Z" fill="#FFA800"/>
<path d="M17.9592 2.2449H19.0816V3.36735H17.9592V2.2449Z" fill="#FFA800"/>
<path d="M19.0816 2.2449H20.2041V3.36735H19.0816V2.2449Z" fill="#FFA800"/>
<path d="M20.2041 2.2449H21.3265V3.36735H20.2041V2.2449Z" fill="#FFA800"/>
<path d="M21.3265 2.2449H22.449V3.36735H21.3265V2.2449Z" fill="#FFA800"/>
<path d="M22.449 2.2449H23.5714V3.36735H22.449V2.2449Z" fill="#FFA800"/>
<path d="M23.5714 2.2449H24.6939V3.36735H23.5714V2.2449Z" fill="#FFA800"/>
<path d="M24.6939 2.2449H25.8163V3.36735H24.6939V2.2449Z" fill="#FFA800"/>
<path d="M25.8163 2.2449H26.9388V3.36735H25.8163V2.2449Z" fill="#FFA800"/>
<path d="M26.9388 2.2449H28.0612V3.36735H26.9388V2.2449Z" fill="#FFA800"/>
<path d="M28.0612 2.2449H29.1837V3.36735H28.0612V2.2449Z" fill="#FFA800"/>
<path d="M29.1837 2.2449H30.3061V3.36735H29.1837V2.2449Z" fill="#FFA800"/>
<path d="M30.3061 2.2449H31.4286V3.36735H30.3061V2.2449Z" fill="#FFA800"/>
<path d="M31.4286 2.2449H32.551V3.36735H31.4286V2.2449Z" fill="#FFA800"/>
<path d="M32.551 2.2449H33.6735V3.36735H32.551V2.2449Z" fill="#FFA800"/>
<path d="M33.6735 2.2449H34.7959V3.36735H33.6735V2.2449Z" fill="#FFA800"/>
<path d="M34.7959 2.2449H35.9184V3.36735H34.7959V2.2449Z" fill="#FFA800"/>
<path d="M35.9184 2.2449H37.0408V3.36735H35.9184V2.2449Z" fill="#FFA800"/>
<path d="M37.0408 2.2449H38.1633V3.36735H37.0408V2.2449Z" fill="#FFA800"/>
<path d="M6.73469 3.36735H7.85714V4.4898H6.73469V3.36735Z" fill="#FFA800"/>
<path d="M7.85714 3.36735H8.97959V4.4898H7.85714V3.36735Z" fill="#FFA800"/>
<path d="M8.97959 3.36735L10.102 3.36735V4.4898H8.97959V3.36735Z" fill="#FFA800"/>
<path d="M10.102 3.36735H11.2245V4.4898H10.102V3.36735Z" fill="#FFA800"/>
<path d="M11.2245 3.36735H12.3469V4.4898H11.2245V3.36735Z" fill="#FFA800"/>
<path d="M12.3469 3.36735H13.4694V4.4898H12.3469V3.36735Z" fill="#FFA800"/>
<path d="M13.4694 3.36735H14.5918V4.4898H13.4694V3.36735Z" fill="#FFA800"/>
<path d="M14.5918 3.36735H15.7143V4.4898H14.5918V3.36735Z" fill="#FFA800"/>
<path d="M15.7143 3.36735H16.8367V4.4898H15.7143V3.36735Z" fill="#FFA800"/>
<path d="M16.8367 3.36735H17.9592V4.4898H16.8367V3.36735Z" fill="#FFA800"/>
<path d="M17.9592 3.36735H19.0816V4.4898H17.9592V3.36735Z" fill="#FFA800"/>
<path d="M19.0816 3.36735H20.2041V4.4898H19.0816V3.36735Z" fill="#FFA800"/>
<path d="M20.2041 3.36735H21.3265V4.4898H20.2041V3.36735Z" fill="#FFA800"/>
<path d="M21.3265 3.36735H22.449V4.4898H21.3265V3.36735Z" fill="#FFA800"/>
<path d="M22.449 3.36735H23.5714V4.4898H22.449V3.36735Z" fill="#FFA800"/>
<path d="M23.5714 3.36735H24.6939V4.4898H23.5714V3.36735Z" fill="#FFA800"/>
<path d="M24.6939 3.36735H25.8163V4.4898H24.6939V3.36735Z" fill="#FFA800"/>
<path d="M25.8163 3.36735H26.9388V4.4898H25.8163V3.36735Z" fill="#FFA800"/>
<path d="M26.9388 3.36735H28.0612V4.4898H26.9388V3.36735Z" fill="#FFA800"/>
<path d="M28.0612 3.36735H29.1837V4.4898H28.0612V3.36735Z" fill="#FFA800"/>
<path d="M29.1837 3.36735H30.3061V4.4898H29.1837V3.36735Z" fill="#FFA800"/>
<path d="M30.3061 3.36735H31.4286V4.4898H30.3061V3.36735Z" fill="#FFA800"/>
<path d="M31.4286 3.36735H32.551V4.4898H31.4286V3.36735Z" fill="#FFA800"/>
<path d="M32.551 3.36735H33.6735V4.4898H32.551V3.36735Z" fill="#FFA800"/>
<path d="M33.6735 3.36735H34.7959V4.4898H33.6735V3.36735Z" fill="#FFA800"/>
<path d="M34.7959 3.36735H35.9184V4.4898H34.7959V3.36735Z" fill="#FFA800"/>
<path d="M35.9184 3.36735H37.0408V4.4898H35.9184V3.36735Z" fill="#FFA800"/>
<path d="M37.0408 3.36735H38.1633V4.4898H37.0408V3.36735Z" fill="#FFA800"/>
<path d="M38.1633 3.36735L39.2857 3.36735V4.4898H38.1633V3.36735Z" fill="#FFA800"/>
<path d="M39.2857 3.36735H40.4082V4.4898H39.2857V3.36735Z" fill="#FFA800"/>
<path d="M40.4082 3.36735H41.5306V4.4898H40.4082V3.36735Z" fill="#FFA800"/>
<path d="M5.61225 4.4898L6.73469 4.4898L6.73469 5.61225H5.61225V4.4898Z" fill="#FFA800"/>
<path d="M6.73469 4.4898H7.85714V5.61225H6.73469L6.73469 4.4898Z" fill="#FFA800"/>
<path d="M7.85714 4.4898H8.97959V5.61225H7.85714V4.4898Z" fill="#FFA800"/>
<path d="M8.97959 4.4898H10.102V5.61225H8.97959V4.4898Z" fill="#FFA800"/>
<path d="M10.102 4.4898H11.2245V5.61225H10.102V4.4898Z" fill="#FFA800"/>
<path d="M11.2245 4.4898H12.3469V5.61225H11.2245V4.4898Z" fill="#FFA800"/>
<path d="M12.3469 4.4898H13.4694V5.61225H12.3469V4.4898Z" fill="#FFA800"/>
<path d="M13.4694 4.4898H14.5918V5.61225H13.4694V4.4898Z" fill="#FFA800"/>
<path d="M14.5918 4.4898H15.7143V5.61225H14.5918V4.4898Z" fill="#FFA800"/>
<path d="M15.7143 4.4898H16.8367V5.61225H15.7143V4.4898Z" fill="#FFA800"/>
<path d="M16.8367 4.4898H17.9592V5.61225H16.8367V4.4898Z" fill="#FFA800"/>
<path d="M17.9592 4.4898H19.0816V5.61225H17.9592V4.4898Z" fill="#FFA800"/>
<path d="M19.0816 4.4898H20.2041V5.61225H19.0816V4.4898Z" fill="#FFA800"/>
<path d="M20.2041 4.4898H21.3265V5.61225H20.2041V4.4898Z" fill="#FFA800"/>
<path d="M21.3265 4.4898H22.449V5.61225H21.3265V4.4898Z" fill="#FFA800"/>
<path d="M22.449 4.4898H23.5714V5.61225H22.449V4.4898Z" fill="#FFA800"/>
<path d="M23.5714 4.4898H24.6939V5.61225H23.5714V4.4898Z" fill="#FFA800"/>
<path d="M24.6939 4.4898H25.8163V5.61225H24.6939V4.4898Z" fill="#FFA800"/>
<path d="M25.8163 4.4898H26.9388V5.61225H25.8163V4.4898Z" fill="#FFA800"/>
<path d="M26.9388 4.4898H28.0612V5.61225H26.9388V4.4898Z" fill="#FFA800"/>
<path d="M28.0612 4.4898H29.1837V5.61225H28.0612V4.4898Z" fill="#FFA800"/>
<path d="M29.1837 4.4898H30.3061V5.61225H29.1837V4.4898Z" fill="#FFA800"/>
<path d="M30.3061 4.4898H31.4286V5.61225H30.3061V4.4898Z" fill="#FFA800"/>
<path d="M31.4286 4.4898H32.551V5.61225H31.4286V4.4898Z" fill="#FFA800"/>
<path d="M32.551 4.4898H33.6735V5.61225H32.551V4.4898Z" fill="#FFA800"/>
<path d="M33.6735 4.4898H34.7959V5.61225H33.6735V4.4898Z" fill="#FFA800"/>
<path d="M34.7959 4.4898H35.9184V5.61225H34.7959V4.4898Z" fill="#FFA800"/>
<path d="M35.9184 4.4898H37.0408V5.61225H35.9184V4.4898Z" fill="#FFA800"/>
<path d="M37.0408 4.4898H38.1633V5.61225H37.0408V4.4898Z" fill="#FFA800"/>
<path d="M38.1633 4.4898H39.2857V5.61225H38.1633V4.4898Z" fill="#FFA800"/>
<path d="M39.2857 4.4898H40.4082V5.61225H39.2857V4.4898Z" fill="#FFA800"/>
<path d="M40.4082 4.4898H41.5306V5.61225H40.4082V4.4898Z" fill="#FFA800"/>
<path d="M41.5306 4.4898L42.6531 4.4898V5.61225H41.5306V4.4898Z" fill="#FFA800"/>
<path d="M3.36735 5.61225H4.4898V6.73469H3.36735V5.61225Z" fill="#FFA800"/>
<path d="M4.4898 5.61225H5.61225V6.73469H4.4898V5.61225Z" fill="#FFA800"/>
<path d="M5.61225 5.61225H6.73469V6.73469H5.61225V5.61225Z" fill="#FFA800"/>
<path d="M6.73469 5.61225H7.85714V6.73469H6.73469V5.61225Z" fill="#FFA800"/>
<path d="M7.85714 5.61225H8.97959V6.73469H7.85714V5.61225Z" fill="#FFA800"/>
<path d="M8.97959 5.61225H10.102V6.73469H8.97959V5.61225Z" fill="#FFA800"/>
<path d="M10.102 5.61225H11.2245V6.73469H10.102V5.61225Z" fill="#FFA800"/>
<path d="M11.2245 5.61225H12.3469V6.73469H11.2245V5.61225Z" fill="#FFA800"/>
<path d="M12.3469 5.61225H13.4694V6.73469H12.3469V5.61225Z" fill="#FFA800"/>
<path d="M13.4694 5.61225H14.5918V6.73469H13.4694V5.61225Z" fill="#FFA800"/>
<path d="M14.5918 5.61225H15.7143V6.73469H14.5918V5.61225Z" fill="#FFA800"/>
<path d="M15.7143 5.61225H16.8367V6.73469H15.7143V5.61225Z" fill="#FFA800"/>
<path d="M16.8367 5.61225H17.9592V6.73469H16.8367V5.61225Z" fill="#FFA800"/>
<path d="M17.9592 5.61225H19.0816V6.73469H17.9592V5.61225Z" fill="#FFA800"/>
<path d="M19.0816 5.61225H20.2041V6.73469H19.0816V5.61225Z" fill="#FFA800"/>
<path d="M20.2041 5.61225H21.3265V6.73469H20.2041V5.61225Z" fill="#FFA800"/>
<path d="M21.3265 5.61225H22.449V6.73469H21.3265V5.61225Z" fill="#FFA800"/>
<path d="M22.449 5.61225H23.5714V6.73469H22.449V5.61225Z" fill="#FFA800"/>
<path d="M23.5714 5.61225H24.6939V6.73469H23.5714V5.61225Z" fill="#FFA800"/>
<path d="M24.6939 5.61225H25.8163V6.73469H24.6939V5.61225Z" fill="#FFA800"/>
<path d="M25.8163 5.61225H26.9388V6.73469H25.8163V5.61225Z" fill="#FFA800"/>
<path d="M26.9388 5.61225H28.0612V6.73469H26.9388V5.61225Z" fill="#FFA800"/>
<path d="M28.0612 5.61225H29.1837V6.73469H28.0612V5.61225Z" fill="#FFA800"/>
<path d="M29.1837 5.61225H30.3061V6.73469H29.1837V5.61225Z" fill="#FFA800"/>
<path d="M30.3061 5.61225H31.4286V6.73469H30.3061V5.61225Z" fill="#FFA800"/>
<path d="M31.4286 5.61225H32.551V6.73469H31.4286V5.61225Z" fill="#FFA800"/>
<path d="M32.551 5.61225H33.6735V6.73469H32.551V5.61225Z" fill="#FFA800"/>
<path d="M33.6735 5.61225H34.7959V6.73469H33.6735V5.61225Z" fill="#FFA800"/>
<path d="M34.7959 5.61225H35.9184V6.73469H34.7959V5.61225Z" fill="#FFA800"/>
<path d="M35.9184 5.61225H37.0408V6.73469H35.9184V5.61225Z" fill="#FFA800"/>
<path d="M37.0408 5.61225H38.1633V6.73469H37.0408V5.61225Z" fill="#FFA800"/>
<path d="M38.1633 5.61225H39.2857V6.73469H38.1633V5.61225Z" fill="#FFA800"/>
<path d="M39.2857 5.61225H40.4082V6.73469H39.2857V5.61225Z" fill="#FFA800"/>
<path d="M40.4082 5.61225H41.5306V6.73469H40.4082V5.61225Z" fill="#FFA800"/>
<path d="M41.5306 5.61225H42.6531V6.73469H41.5306V5.61225Z" fill="#FFA800"/>
<path d="M42.6531 5.61225H43.7755V6.73469H42.6531V5.61225Z" fill="#FFA800"/>
<path d="M43.7755 5.61225H44.898V6.73469H43.7755V5.61225Z" fill="#FFA800"/>
<path d="M2.2449 6.73469L3.36735 6.73469L3.36735 7.85714H2.2449V6.73469Z" fill="#FFA800"/>
<path d="M3.36735 6.73469H4.4898V7.85714H3.36735L3.36735 6.73469Z" fill="#FFA800"/>
<path d="M4.4898 6.73469H5.61225V7.85714H4.4898V6.73469Z" fill="#FFA800"/>
<path d="M5.61225 6.73469H6.73469V7.85714H5.61225V6.73469Z" fill="#FFA800"/>
<path d="M6.73469 6.73469H7.85714V7.85714H6.73469V6.73469Z" fill="#FFA800"/>
<path d="M7.85714 6.73469H8.97959V7.85714H7.85714V6.73469Z" fill="#FFA800"/>
<path d="M8.97959 6.73469H10.102V7.85714H8.97959V6.73469Z" fill="#FFA800"/>
<path d="M10.102 6.73469H11.2245V7.85714H10.102V6.73469Z" fill="#FFA800"/>
<path d="M11.2245 6.73469H12.3469V7.85714H11.2245V6.73469Z" fill="#FFA800"/>
<path d="M12.3469 6.73469H13.4694V7.85714H12.3469V6.73469Z" fill="#FFA800"/>
<path d="M13.4694 6.73469H14.5918V7.85714H13.4694V6.73469Z" fill="#FFA800"/>
<path d="M14.5918 6.73469H15.7143V7.85714H14.5918V6.73469Z" fill="#FFA800"/>
<path d="M15.7143 6.73469H16.8367V7.85714H15.7143V6.73469Z" fill="#FFA800"/>
<path d="M16.8367 6.73469H17.9592V7.85714H16.8367V6.73469Z" fill="#FFA800"/>
<path d="M17.9592 6.73469H19.0816V7.85714H17.9592V6.73469Z" fill="#FFA800"/>
<path d="M19.0816 6.73469H20.2041V7.85714H19.0816V6.73469Z" fill="#FFA800"/>
<path d="M20.2041 6.73469H21.3265V7.85714H20.2041V6.73469Z" fill="#FFA800"/>
<path d="M21.3265 6.73469H22.449V7.85714H21.3265V6.73469Z" fill="#FFA800"/>
<path d="M22.449 6.73469H23.5714V7.85714H22.449V6.73469Z" fill="#FFA800"/>
<path d="M23.5714 6.73469H24.6939V7.85714H23.5714V6.73469Z" fill="#FFA800"/>
<path d="M24.6939 6.73469H25.8163V7.85714H24.6939V6.73469Z" fill="#FFA800"/>
<path d="M25.8163 6.73469H26.9388V7.85714H25.8163V6.73469Z" fill="#FFA800"/>
<path d="M26.9388 6.73469H28.0612V7.85714H26.9388V6.73469Z" fill="#FFA800"/>
<path d="M28.0612 6.73469H29.1837V7.85714H28.0612V6.73469Z" fill="#FFA800"/>
<path d="M29.1837 6.73469H30.3061V7.85714H29.1837V6.73469Z" fill="#FFA800"/>
<path d="M30.3061 6.73469H31.4286V7.85714H30.3061V6.73469Z" fill="#FFA800"/>
<path d="M31.4286 6.73469H32.551V7.85714H31.4286V6.73469Z" fill="#FFA800"/>
<path d="M32.551 6.73469H33.6735V7.85714H32.551V6.73469Z" fill="#FFA800"/>
<path d="M33.6735 6.73469H34.7959V7.85714H33.6735V6.73469Z" fill="#FFA800"/>
<path d="M34.7959 6.73469H35.9184V7.85714H34.7959V6.73469Z" fill="#FFA800"/>
<path d="M35.9184 6.73469H37.0408V7.85714H35.9184V6.73469Z" fill="#FFA800"/>
<path d="M37.0408 6.73469H38.1633V7.85714H37.0408V6.73469Z" fill="#FFA800"/>
<path d="M38.1633 6.73469H39.2857V7.85714H38.1633V6.73469Z" fill="#FFA800"/>
<path d="M39.2857 6.73469H40.4082V7.85714H39.2857V6.73469Z" fill="#FFA800"/>
<path d="M40.4082 6.73469H41.5306V7.85714H40.4082V6.73469Z" fill="#FFA800"/>
<path d="M41.5306 6.73469H42.6531V7.85714H41.5306V6.73469Z" fill="#FFA800"/>
<path d="M42.6531 6.73469H43.7755V7.85714H42.6531V6.73469Z" fill="#FFA800"/>
<path d="M43.7755 6.73469H44.898V7.85714H43.7755V6.73469Z" fill="#FFA800"/>
<path d="M44.898 6.73469L46.0204 6.73469V7.85714H44.898V6.73469Z" fill="#FFA800"/>
<path d="M1.12245 7.85714L2.2449 7.85714V8.97959H1.12245V7.85714Z" fill="#FFA800"/>
<path d="M2.2449 7.85714H3.36735V8.97959H2.2449V7.85714Z" fill="#FFA800"/>
<path d="M3.36735 7.85714H4.4898V8.97959H3.36735V7.85714Z" fill="#FFA800"/>
<path d="M4.4898 7.85714H5.61225V8.97959H4.4898V7.85714Z" fill="#FFA800"/>
<path d="M5.61225 7.85714H6.73469V8.97959H5.61225V7.85714Z" fill="#FFA800"/>
<path d="M6.73469 7.85714H7.85714V8.97959H6.73469V7.85714Z" fill="#FFA800"/>
<path d="M7.85714 7.85714H8.97959V8.97959H7.85714V7.85714Z" fill="#FFA800"/>
<path d="M8.97959 7.85714H10.102V8.97959H8.97959V7.85714Z" fill="#FFA800"/>
<path d="M10.102 7.85714H11.2245V8.97959H10.102V7.85714Z" fill="#FFA800"/>
<path d="M11.2245 7.85714H12.3469V8.97959H11.2245V7.85714Z" fill="#FFA800"/>
<path d="M12.3469 7.85714H13.4694V8.97959H12.3469V7.85714Z" fill="#FFA800"/>
<path d="M13.4694 7.85714H14.5918V8.97959H13.4694V7.85714Z" fill="#FFA800"/>
<path d="M14.5918 7.85714H15.7143V8.97959H14.5918V7.85714Z" fill="#FFA800"/>
<path d="M15.7143 7.85714H16.8367V8.97959H15.7143V7.85714Z" fill="#FFA800"/>
<path d="M16.8367 7.85714H17.9592V8.97959H16.8367V7.85714Z" fill="#FFA800"/>
<path d="M17.9592 7.85714H19.0816V8.97959H17.9592V7.85714Z" fill="#FFA800"/>
<path d="M19.0816 7.85714H20.2041V8.97959H19.0816V7.85714Z" fill="#FFA800"/>
<path d="M20.2041 7.85714H21.3265V8.97959H20.2041V7.85714Z" fill="#FFA800"/>
<path d="M21.3265 7.85714H22.449V8.97959H21.3265V7.85714Z" fill="#FFA800"/>
<path d="M22.449 7.85714H23.5714V8.97959H22.449V7.85714Z" fill="#FFA800"/>
<path d="M23.5714 7.85714H24.6939V8.97959H23.5714V7.85714Z" fill="#FFA800"/>
<path d="M24.6939 7.85714H25.8163V8.97959H24.6939V7.85714Z" fill="#FFA800"/>
<path d="M25.8163 7.85714H26.9388V8.97959H25.8163V7.85714Z" fill="#FFA800"/>
<path d="M26.9388 7.85714H28.0612V8.97959H26.9388V7.85714Z" fill="#FFA800"/>
<path d="M28.0612 7.85714H29.1837V8.97959H28.0612V7.85714Z" fill="#FFA800"/>
<path d="M29.1837 7.85714H30.3061V8.97959H29.1837V7.85714Z" fill="#FFA800"/>
<path d="M30.3061 7.85714H31.4286V8.97959H30.3061V7.85714Z" fill="#FFA800"/>
<path d="M31.4286 7.85714H32.551V8.97959H31.4286V7.85714Z" fill="#FFA800"/>
<path d="M32.551 7.85714H33.6735V8.97959H32.551V7.85714Z" fill="#FFA800"/>
<path d="M33.6735 7.85714H34.7959V8.97959H33.6735V7.85714Z" fill="#FFA800"/>
<path d="M34.7959 7.85714H35.9184V8.97959H34.7959V7.85714Z" fill="#FFA800"/>
<path d="M35.9184 7.85714H37.0408V8.97959H35.9184V7.85714Z" fill="#FFA800"/>
<path d="M37.0408 7.85714H38.1633V8.97959H37.0408V7.85714Z" fill="#FFA800"/>
<path d="M38.1633 7.85714H39.2857V8.97959H38.1633V7.85714Z" fill="#FFA800"/>
<path d="M39.2857 7.85714H40.4082V8.97959H39.2857V7.85714Z" fill="#FFA800"/>
<path d="M40.4082 7.85714H41.5306V8.97959H40.4082V7.85714Z" fill="#FFA800"/>
<path d="M41.5306 7.85714H42.6531V8.97959H41.5306V7.85714Z" fill="#FFA800"/>
<path d="M42.6531 7.85714H43.7755V8.97959H42.6531V7.85714Z" fill="#FFA800"/>
<path d="M43.7755 7.85714H44.898V8.97959H43.7755V7.85714Z" fill="#FFA800"/>
<path d="M44.898 7.85714H46.0204V8.97959H44.898V7.85714Z" fill="#FFA800"/>
<path d="M46.0204 7.85714L47.1429 7.85714V8.97959H46.0204V7.85714Z" fill="#FFA800"/>
<path d="M1.12245 8.97959H2.2449V10.102H1.12245V8.97959Z" fill="#FFA800"/>
<path d="M2.2449 8.97959H3.36735V10.102H2.2449V8.97959Z" fill="#FFA800"/>
<path d="M3.36735 8.97959H4.4898V10.102H3.36735V8.97959Z" fill="#FFA800"/>
<path d="M4.4898 8.97959H5.61225V10.102H4.4898V8.97959Z" fill="#FFA800"/>
<path d="M5.61225 8.97959H6.73469V10.102H5.61225V8.97959Z" fill="#FFA800"/>
<path d="M6.73469 8.97959H7.85714V10.102H6.73469V8.97959Z" fill="#FFA800"/>
<path d="M7.85714 8.97959H8.97959V10.102H7.85714V8.97959Z" fill="#FFA800"/>
<path d="M8.97959 8.97959H10.102V10.102H8.97959V8.97959Z" fill="#FFA800"/>
<path d="M10.102 8.97959H11.2245V10.102H10.102V8.97959Z" fill="#FFA800"/>
<path d="M11.2245 8.97959H12.3469V10.102H11.2245V8.97959Z" fill="#FFA800"/>
<path d="M12.3469 8.97959H13.4694V10.102H12.3469V8.97959Z" fill="#FFA800"/>
<path d="M13.4694 8.97959H14.5918V10.102H13.4694V8.97959Z" fill="#FFA800"/>
<path d="M14.5918 8.97959H15.7143V10.102H14.5918V8.97959Z" fill="#FFA800"/>
<path d="M15.7143 8.97959H16.8367V10.102H15.7143V8.97959Z" fill="#FFA800"/>
<path d="M16.8367 8.97959H17.9592V10.102H16.8367V8.97959Z" fill="#FFA800"/>
<path d="M17.9592 8.97959H19.0816V10.102H17.9592V8.97959Z" fill="#FFA800"/>
<path d="M19.0816 8.97959H20.2041V10.102H19.0816V8.97959Z" fill="#FFA800"/>
<path d="M20.2041 8.97959H21.3265V10.102H20.2041V8.97959Z" fill="#FFA800"/>
<path d="M21.3265 8.97959H22.449V10.102H21.3265V8.97959Z" fill="#FFA800"/>
<path d="M22.449 8.97959H23.5714V10.102H22.449V8.97959Z" fill="#FFA800"/>
<path d="M23.5714 8.97959H24.6939V10.102H23.5714V8.97959Z" fill="#FFA800"/>
<path d="M24.6939 8.97959H25.8163V10.102H24.6939V8.97959Z" fill="#FFA800"/>
<path d="M25.8163 8.97959H26.9388V10.102H25.8163V8.97959Z" fill="#FFA800"/>
<path d="M26.9388 8.97959H28.0612V10.102H26.9388V8.97959Z" fill="#FFA800"/>
<path d="M28.0612 8.97959H29.1837V10.102H28.0612V8.97959Z" fill="#FFA800"/>
<path d="M29.1837 8.97959H30.3061V10.102H29.1837V8.97959Z" fill="#FFA800"/>
<path d="M30.3061 8.97959H31.4286V10.102H30.3061V8.97959Z" fill="#FFA800"/>
<path d="M31.4286 8.97959H32.551V10.102H31.4286V8.97959Z" fill="#FFA800"/>
<path d="M32.551 8.97959H33.6735V10.102H32.551V8.97959Z" fill="#FFA800"/>
<path d="M33.6735 8.97959H34.7959V10.102H33.6735V8.97959Z" fill="#FFA800"/>
<path d="M34.7959 8.97959H35.9184V10.102H34.7959V8.97959Z" fill="#FFA800"/>
<path d="M35.9184 8.97959H37.0408V10.102H35.9184V8.97959Z" fill="#FFA800"/>
<path d="M37.0408 8.97959H38.1633V10.102H37.0408V8.97959Z" fill="#FFA800"/>
<path d="M38.1633 8.97959H39.2857V10.102H38.1633V8.97959Z" fill="#FFA800"/>
<path d="M39.2857 8.97959H40.4082V10.102H39.2857V8.97959Z" fill="#FFA800"/>
<path d="M40.4082 8.97959H41.5306V10.102H40.4082V8.97959Z" fill="#FFA800"/>
<path d="M41.5306 8.97959H42.6531V10.102H41.5306V8.97959Z" fill="#FFA800"/>
<path d="M42.6531 8.97959H43.7755V10.102H42.6531V8.97959Z" fill="#FFA800"/>
<path d="M43.7755 8.97959H44.898V10.102H43.7755V8.97959Z" fill="#FFA800"/>
<path d="M44.898 8.97959H46.0204V10.102H44.898V8.97959Z" fill="#FFA800"/>
<path d="M46.0204 8.97959H47.1429V10.102H46.0204V8.97959Z" fill="#FFA800"/>
<path d="M1.12245 10.102H2.2449V11.2245H1.12245V10.102Z" fill="#FFA800"/>
<path d="M2.2449 10.102H3.36735V11.2245H2.2449V10.102Z" fill="#FFA800"/>
<path d="M3.36735 10.102H4.4898V11.2245H3.36735V10.102Z" fill="#FFA800"/>
<path d="M4.4898 10.102H5.61225V11.2245H4.4898V10.102Z" fill="#FFA800"/>
<path d="M5.61225 10.102H6.73469V11.2245H5.61225V10.102Z" fill="#FFA800"/>
<path d="M6.73469 10.102H7.85714V11.2245H6.73469V10.102Z" fill="#FFA800"/>
<path d="M7.85714 10.102H8.97959V11.2245H7.85714V10.102Z" fill="#FFA800"/>
<path d="M8.97959 10.102H10.102V11.2245H8.97959V10.102Z" fill="#FFA800"/>
<path d="M10.102 10.102H11.2245V11.2245H10.102V10.102Z" fill="#FFA800"/>
<path d="M11.2245 10.102H12.3469V11.2245H11.2245V10.102Z" fill="#FFA800"/>
<path d="M12.3469 10.102H13.4694V11.2245H12.3469V10.102Z" fill="#FFA800"/>
<path d="M13.4694 10.102H14.5918V11.2245H13.4694V10.102Z" fill="#FFA800"/>
<path d="M14.5918 10.102H15.7143V11.2245H14.5918V10.102Z" fill="#FFA800"/>
<path d="M15.7143 10.102H16.8367V11.2245H15.7143V10.102Z" fill="#FFA800"/>
<path d="M16.8367 10.102H17.9592V11.2245H16.8367V10.102Z" fill="#FFA800"/>
<path d="M17.9592 10.102H19.0816V11.2245H17.9592V10.102Z" fill="#FFA800"/>
<path d="M19.0816 10.102H20.2041V11.2245H19.0816V10.102Z" fill="#FFA800"/>
<path d="M20.2041 10.102H21.3265V11.2245H20.2041V10.102Z" fill="#FFA800"/>
<path d="M21.3265 10.102H22.449V11.2245H21.3265V10.102Z" fill="#FFA800"/>
<path d="M22.449 10.102H23.5714V11.2245H22.449V10.102Z" fill="#FFA800"/>
<path d="M23.5714 10.102H24.6939V11.2245H23.5714V10.102Z" fill="#FFA800"/>
<path d="M24.6939 10.102H25.8163V11.2245H24.6939V10.102Z" fill="#FFA800"/>
<path d="M25.8163 10.102H26.9388V11.2245H25.8163V10.102Z" fill="#FFA800"/>
<path d="M26.9388 10.102H28.0612V11.2245H26.9388V10.102Z" fill="#FFA800"/>
<path d="M28.0612 10.102H29.1837V11.2245H28.0612V10.102Z" fill="#FFA800"/>
<path d="M29.1837 10.102H30.3061V11.2245H29.1837V10.102Z" fill="#FFA800"/>
<path d="M30.3061 10.102H31.4286V11.2245H30.3061V10.102Z" fill="#FFA800"/>
<path d="M31.4286 10.102H32.551V11.2245H31.4286V10.102Z" fill="#FFA800"/>
<path d="M32.551 10.102H33.6735V11.2245H32.551V10.102Z" fill="#FFA800"/>
<path d="M33.6735 10.102H34.7959V11.2245H33.6735V10.102Z" fill="#FFA800"/>
<path d="M34.7959 10.102H35.9184V11.2245H34.7959V10.102Z" fill="#FFA800"/>
<path d="M35.9184 10.102H37.0408V11.2245H35.9184V10.102Z" fill="#FFA800"/>
<path d="M37.0408 10.102H38.1633V11.2245H37.0408V10.102Z" fill="#FFA800"/>
<path d="M38.1633 10.102H39.2857V11.2245H38.1633V10.102Z" fill="#FFA800"/>
<path d="M39.2857 10.102H40.4082V11.2245H39.2857V10.102Z" fill="#FFA800"/>
<path d="M40.4082 10.102H41.5306V11.2245H40.4082V10.102Z" fill="#FFA800"/>
<path d="M41.5306 10.102H42.6531V11.2245H41.5306V10.102Z" fill="#FFA800"/>
<path d="M42.6531 10.102H43.7755V11.2245H42.6531V10.102Z" fill="#FFA800"/>
<path d="M43.7755 10.102H44.898V11.2245H43.7755V10.102Z" fill="#FFA800"/>
<path d="M44.898 10.102H46.0204V11.2245H44.898V10.102Z" fill="#FFA800"/>
<path d="M46.0204 10.102H47.1429V11.2245H46.0204V10.102Z" fill="#FFA800"/>
<path d="M0 11.2245H1.12245V12.3469H0V11.2245Z" fill="#FFA800"/>
<path d="M1.12245 11.2245H2.2449V12.3469H1.12245V11.2245Z" fill="#FFA800"/>
<path d="M2.2449 11.2245H3.36735V12.3469H2.2449V11.2245Z" fill="#FFA800"/>
<path d="M3.36735 11.2245H4.4898V12.3469H3.36735V11.2245Z" fill="#FFA800"/>
<path d="M4.4898 11.2245H5.61225V12.3469H4.4898V11.2245Z" fill="#FFA800"/>
<path d="M5.61225 11.2245H6.73469V12.3469H5.61225V11.2245Z" fill="#FFA800"/>
<path d="M6.73469 11.2245H7.85714V12.3469H6.73469V11.2245Z" fill="#FFA800"/>
<path d="M7.85714 11.2245H8.97959V12.3469H7.85714V11.2245Z" fill="#FFA800"/>
<path d="M8.97959 11.2245H10.102V12.3469H8.97959V11.2245Z" fill="#FFA800"/>
<path d="M10.102 11.2245H11.2245V12.3469H10.102V11.2245Z" fill="#FFA800"/>
<path d="M11.2245 11.2245H12.3469V12.3469H11.2245V11.2245Z" fill="#FFA800"/>
<path d="M12.3469 11.2245H13.4694V12.3469H12.3469V11.2245Z" fill="#FFA800"/>
<path d="M13.4694 11.2245H14.5918V12.3469H13.4694V11.2245Z" fill="#FFA800"/>
<path d="M14.5918 11.2245H15.7143V12.3469H14.5918V11.2245Z" fill="#FFA800"/>
<path d="M15.7143 11.2245H16.8367V12.3469H15.7143V11.2245Z" fill="#FFA800"/>
<path d="M16.8367 11.2245H17.9592V12.3469H16.8367V11.2245Z" fill="#FFA800"/>
<path d="M17.9592 11.2245H19.0816V12.3469H17.9592V11.2245Z" fill="#FFA800"/>
<path d="M19.0816 11.2245H20.2041V12.3469H19.0816V11.2245Z" fill="#FFA800"/>
<path d="M20.2041 11.2245H21.3265V12.3469H20.2041V11.2245Z" fill="#FFA800"/>
<path d="M21.3265 11.2245H22.449V12.3469H21.3265V11.2245Z" fill="#FFA800"/>
<path d="M22.449 11.2245H23.5714V12.3469H22.449V11.2245Z" fill="#FFA800"/>
<path d="M23.5714 11.2245H24.6939V12.3469H23.5714V11.2245Z" fill="#FFA800"/>
<path d="M24.6939 11.2245H25.8163V12.3469H24.6939V11.2245Z" fill="#FFA800"/>
<path d="M25.8163 11.2245H26.9388V12.3469H25.8163V11.2245Z" fill="#FFA800"/>
<path d="M26.9388 11.2245H28.0612V12.3469H26.9388V11.2245Z" fill="#FFA800"/>
<path d="M28.0612 11.2245H29.1837V12.3469H28.0612V11.2245Z" fill="#FFA800"/>
<path d="M29.1837 11.2245H30.3061V12.3469H29.1837V11.2245Z" fill="#FFA800"/>
<path d="M30.3061 11.2245H31.4286V12.3469H30.3061V11.2245Z" fill="#FFA800"/>
<path d="M31.4286 11.2245H32.551V12.3469H31.4286V11.2245Z" fill="#FFA800"/>
<path d="M32.551 11.2245H33.6735V12.3469H32.551V11.2245Z" fill="#FFA800"/>
<path d="M33.6735 11.2245H34.7959V12.3469H33.6735V11.2245Z" fill="#FFA800"/>
<path d="M34.7959 11.2245H35.9184V12.3469H34.7959V11.2245Z" fill="#FFA800"/>
<path d="M35.9184 11.2245H37.0408V12.3469H35.9184V11.2245Z" fill="#FFA800"/>
<path d="M37.0408 11.2245H38.1633V12.3469H37.0408V11.2245Z" fill="#FFA800"/>
<path d="M38.1633 11.2245H39.2857V12.3469H38.1633V11.2245Z" fill="#FFA800"/>
<path d="M39.2857 11.2245H40.4082V12.3469H39.2857V11.2245Z" fill="#FFA800"/>
<path d="M40.4082 11.2245H41.5306V12.3469H40.4082V11.2245Z" fill="#FFA800"/>
<path d="M41.5306 11.2245H42.6531V12.3469H41.5306V11.2245Z" fill="#FFA800"/>
<path d="M42.6531 11.2245H43.7755V12.3469H42.6531V11.2245Z" fill="#FFA800"/>
<path d="M43.7755 11.2245H44.898V12.3469H43.7755V11.2245Z" fill="#FFA800"/>
<path d="M44.898 11.2245H46.0204V12.3469H44.898V11.2245Z" fill="#FFA800"/>
<path d="M46.0204 11.2245H47.1429V12.3469H46.0204V11.2245Z" fill="#FFA800"/>
<path d="M47.1429 11.2245H48.2653V12.3469H47.1429V11.2245Z" fill="#FFA800"/>
<path d="M1.12245 12.3469H2.2449V13.4694H1.12245V12.3469Z" fill="#FFA800"/>
<path d="M2.2449 12.3469H3.36735V13.4694H2.2449V12.3469Z" fill="#FFA800"/>
<path d="M3.36735 12.3469H4.4898V13.4694H3.36735V12.3469Z" fill="#FFA800"/>
<path d="M4.4898 12.3469H5.61225V13.4694H4.4898V12.3469Z" fill="#FFA800"/>
<path d="M5.61225 12.3469H6.73469V13.4694H5.61225V12.3469Z" fill="#FFA800"/>
<path d="M6.73469 12.3469H7.85714V13.4694H6.73469V12.3469Z" fill="#FFA800"/>
<path d="M7.85714 12.3469H8.97959V13.4694H7.85714V12.3469Z" fill="#FFA800"/>
<path d="M8.97959 12.3469H10.102V13.4694H8.97959V12.3469Z" fill="#FFA800"/>
<path d="M10.102 12.3469H11.2245V13.4694H10.102V12.3469Z" fill="#FFA800"/>
<path d="M11.2245 12.3469H12.3469V13.4694H11.2245V12.3469Z" fill="#FFA800"/>
<path d="M12.3469 12.3469H13.4694V13.4694H12.3469V12.3469Z" fill="#FFA800"/>
<path d="M13.4694 12.3469H14.5918V13.4694H13.4694V12.3469Z" fill="#FFA800"/>
<path d="M14.5918 12.3469H15.7143V13.4694H14.5918V12.3469Z" fill="#FFA800"/>
<path d="M15.7143 12.3469H16.8367V13.4694H15.7143V12.3469Z" fill="#FFA800"/>
<path d="M16.8367 12.3469H17.9592V13.4694H16.8367V12.3469Z" fill="#FFA800"/>
<path d="M17.9592 12.3469H19.0816V13.4694H17.9592V12.3469Z" fill="#FFA800"/>
<path d="M19.0816 12.3469H20.2041V13.4694H19.0816V12.3469Z" fill="#FFA800"/>
<path d="M20.2041 12.3469H21.3265V13.4694H20.2041V12.3469Z" fill="#FFA800"/>
<path d="M21.3265 12.3469H22.449V13.4694H21.3265V12.3469Z" fill="#FFA800"/>
<path d="M22.449 12.3469H23.5714V13.4694H22.449V12.3469Z" fill="#FFA800"/>
<path d="M23.5714 12.3469H24.6939V13.4694H23.5714V12.3469Z" fill="#FFA800"/>
<path d="M24.6939 12.3469H25.8163V13.4694H24.6939V12.3469Z" fill="#FFA800"/>
<path d="M25.8163 12.3469H26.9388V13.4694H25.8163V12.3469Z" fill="#FFA800"/>
<path d="M26.9388 12.3469H28.0612V13.4694H26.9388V12.3469Z" fill="#FFA800"/>
<path d="M28.0612 12.3469H29.1837V13.4694H28.0612V12.3469Z" fill="#FFA800"/>
<path d="M29.1837 12.3469H30.3061V13.4694H29.1837V12.3469Z" fill="#FFA800"/>
<path d="M30.3061 12.3469H31.4286V13.4694H30.3061V12.3469Z" fill="#FFA800"/>
<path d="M31.4286 12.3469H32.551V13.4694H31.4286V12.3469Z" fill="#FFA800"/>
<path d="M32.551 12.3469H33.6735V13.4694H32.551V12.3469Z" fill="#FFA800"/>
<path d="M33.6735 12.3469H34.7959V13.4694H33.6735V12.3469Z" fill="#FFA800"/>
<path d="M34.7959 12.3469H35.9184V13.4694H34.7959V12.3469Z" fill="#FFA800"/>
<path d="M35.9184 12.3469H37.0408V13.4694H35.9184V12.3469Z" fill="#FFA800"/>
<path d="M37.0408 12.3469H38.1633V13.4694H37.0408V12.3469Z" fill="#FFA800"/>
<path d="M38.1633 12.3469H39.2857V13.4694H38.1633V12.3469Z" fill="#FFA800"/>
<path d="M39.2857 12.3469H40.4082V13.4694H39.2857V12.3469Z" fill="#FFA800"/>
<path d="M40.4082 12.3469H41.5306V13.4694H40.4082V12.3469Z" fill="#FFA800"/>
<path d="M41.5306 12.3469H42.6531V13.4694H41.5306V12.3469Z" fill="#FFA800"/>
<path d="M42.6531 12.3469H43.7755V13.4694H42.6531V12.3469Z" fill="#FFA800"/>
<path d="M43.7755 12.3469H44.898V13.4694H43.7755V12.3469Z" fill="#FFA800"/>
<path d="M44.898 12.3469H46.0204V13.4694H44.898V12.3469Z" fill="#FFA800"/>
<path d="M46.0204 12.3469H47.1429V13.4694H46.0204V12.3469Z" fill="#FFA800"/>
<path d="M1.12245 13.4694H2.2449V14.5918H1.12245V13.4694Z" fill="#FFA800"/>
<path d="M2.2449 13.4694H3.36735V14.5918H2.2449V13.4694Z" fill="#FFA800"/>
<path d="M3.36735 13.4694H4.4898V14.5918H3.36735V13.4694Z" fill="#FFA800"/>
<path d="M4.4898 13.4694H5.61225V14.5918H4.4898V13.4694Z" fill="#FFA800"/>
<path d="M5.61225 13.4694H6.73469V14.5918H5.61225V13.4694Z" fill="#FFA800"/>
<path d="M6.73469 13.4694H7.85714V14.5918H6.73469V13.4694Z" fill="#FFA800"/>
<path d="M7.85714 13.4694H8.97959V14.5918H7.85714V13.4694Z" fill="#FFA800"/>
<path d="M8.97959 13.4694H10.102V14.5918H8.97959V13.4694Z" fill="#FFA800"/>
<path d="M10.102 13.4694H11.2245V14.5918H10.102V13.4694Z" fill="#FFA800"/>
<path d="M11.2245 13.4694H12.3469V14.5918H11.2245V13.4694Z" fill="#FFA800"/>
<path d="M12.3469 13.4694H13.4694V14.5918H12.3469V13.4694Z" fill="#FFA800"/>
<path d="M13.4694 13.4694H14.5918V14.5918H13.4694V13.4694Z" fill="#FFA800"/>
<path d="M14.5918 13.4694H15.7143V14.5918H14.5918V13.4694Z" fill="#FFA800"/>
<path d="M15.7143 13.4694H16.8367V14.5918H15.7143V13.4694Z" fill="#FFA800"/>
<path d="M16.8367 13.4694H17.9592V14.5918H16.8367V13.4694Z" fill="#FFA800"/>
<path d="M17.9592 13.4694H19.0816V14.5918H17.9592V13.4694Z" fill="#FFA800"/>
<path d="M19.0816 13.4694H20.2041V14.5918H19.0816V13.4694Z" fill="#FFA800"/>
<path d="M20.2041 13.4694H21.3265V14.5918H20.2041V13.4694Z" fill="#FFA800"/>
<path d="M21.3265 13.4694H22.449V14.5918H21.3265V13.4694Z" fill="#FFA800"/>
<path d="M22.449 13.4694H23.5714V14.5918H22.449V13.4694Z" fill="#FFA800"/>
<path d="M23.5714 13.4694H24.6939V14.5918H23.5714V13.4694Z" fill="#FFA800"/>
<path d="M24.6939 13.4694H25.8163V14.5918H24.6939V13.4694Z" fill="#FFA800"/>
<path d="M25.8163 13.4694H26.9388V14.5918H25.8163V13.4694Z" fill="#FFA800"/>
<path d="M26.9388 13.4694H28.0612V14.5918H26.9388V13.4694Z" fill="#FFA800"/>
<path d="M28.0612 13.4694H29.1837V14.5918H28.0612V13.4694Z" fill="#FFA800"/>
<path d="M29.1837 13.4694H30.3061V14.5918H29.1837V13.4694Z" fill="#FFA800"/>
<path d="M30.3061 13.4694H31.4286V14.5918H30.3061V13.4694Z" fill="#FFA800"/>
<path d="M31.4286 13.4694H32.551V14.5918H31.4286V13.4694Z" fill="#FFA800"/>
<path d="M32.551 13.4694H33.6735V14.5918H32.551V13.4694Z" fill="#FFA800"/>
<path d="M33.6735 13.4694H34.7959V14.5918H33.6735V13.4694Z" fill="#FFA800"/>
<path d="M34.7959 13.4694H35.9184V14.5918H34.7959V13.4694Z" fill="#FFA800"/>
<path d="M35.9184 13.4694H37.0408V14.5918H35.9184V13.4694Z" fill="#FFA800"/>
<path d="M37.0408 13.4694H38.1633V14.5918H37.0408V13.4694Z" fill="#FFA800"/>
<path d="M38.1633 13.4694H39.2857V14.5918H38.1633V13.4694Z" fill="#FFA800"/>
<path d="M39.2857 13.4694H40.4082V14.5918H39.2857V13.4694Z" fill="#FFA800"/>
<path d="M40.4082 13.4694H41.5306V14.5918H40.4082V13.4694Z" fill="#FFA800"/>
<path d="M41.5306 13.4694H42.6531V14.5918H41.5306V13.4694Z" fill="#FFA800"/>
<path d="M42.6531 13.4694H43.7755V14.5918H42.6531V13.4694Z" fill="#FFA800"/>
<path d="M43.7755 13.4694H44.898V14.5918H43.7755V13.4694Z" fill="#FFA800"/>
<path d="M44.898 13.4694H46.0204V14.5918H44.898V13.4694Z" fill="#FFA800"/>
<path d="M46.0204 13.4694H47.1429V14.5918H46.0204V13.4694Z" fill="#FFA800"/>
<path d="M1.12245 14.5918H2.2449V15.7143H1.12245V14.5918Z" fill="#FFA800"/>
<path d="M2.2449 14.5918H3.36735V15.7143H2.2449V14.5918Z" fill="#FFA800"/>
<path d="M3.36735 14.5918H4.4898V15.7143H3.36735V14.5918Z" fill="#FFA800"/>
<path d="M4.4898 14.5918H5.61225V15.7143H4.4898V14.5918Z" fill="#FFA800"/>
<path d="M5.61225 14.5918H6.73469V15.7143H5.61225V14.5918Z" fill="#FFA800"/>
<path d="M6.73469 14.5918H7.85714V15.7143H6.73469V14.5918Z" fill="#FFA800"/>
<path d="M7.85714 14.5918H8.97959V15.7143H7.85714V14.5918Z" fill="#FFA800"/>
<path d="M8.97959 14.5918H10.102V15.7143H8.97959V14.5918Z" fill="#FFA800"/>
<path d="M10.102 14.5918H11.2245V15.7143H10.102V14.5918Z" fill="#FFA800"/>
<path d="M11.2245 14.5918H12.3469V15.7143H11.2245V14.5918Z" fill="#FFA800"/>
<path d="M12.3469 14.5918H13.4694V15.7143H12.3469V14.5918Z" fill="#FFA800"/>
<path d="M13.4694 14.5918H14.5918V15.7143H13.4694V14.5918Z" fill="#FFA800"/>
<path d="M14.5918 14.5918H15.7143V15.7143H14.5918V14.5918Z" fill="#FFA800"/>
<path d="M15.7143 14.5918H16.8367V15.7143H15.7143V14.5918Z" fill="#FFA800"/>
<path d="M16.8367 14.5918H17.9592V15.7143H16.8367V14.5918Z" fill="#FFA800"/>
<path d="M17.9592 14.5918H19.0816V15.7143H17.9592V14.5918Z" fill="#FFA800"/>
<path d="M19.0816 14.5918H20.2041V15.7143H19.0816V14.5918Z" fill="#FFA800"/>
<path d="M20.2041 14.5918H21.3265V15.7143H20.2041V14.5918Z" fill="#FFA800"/>
<path d="M21.3265 14.5918H22.449V15.7143H21.3265V14.5918Z" fill="#FFA800"/>
<path d="M22.449 14.5918H23.5714V15.7143H22.449V14.5918Z" fill="#FFA800"/>
<path d="M23.5714 14.5918H24.6939V15.7143H23.5714V14.5918Z" fill="#FFA800"/>
<path d="M24.6939 14.5918H25.8163V15.7143H24.6939V14.5918Z" fill="#FFA800"/>
<path d="M25.8163 14.5918H26.9388V15.7143H25.8163V14.5918Z" fill="#FFA800"/>
<path d="M26.9388 14.5918H28.0612V15.7143H26.9388V14.5918Z" fill="#FFA800"/>
<path d="M28.0612 14.5918H29.1837V15.7143H28.0612V14.5918Z" fill="#FFA800"/>
<path d="M29.1837 14.5918H30.3061V15.7143H29.1837V14.5918Z" fill="#FFA800"/>
<path d="M30.3061 14.5918H31.4286V15.7143H30.3061V14.5918Z" fill="#FFA800"/>
<path d="M31.4286 14.5918H32.551V15.7143H31.4286V14.5918Z" fill="#FFA800"/>
<path d="M32.551 14.5918H33.6735V15.7143H32.551V14.5918Z" fill="#FFA800"/>
<path d="M33.6735 14.5918H34.7959V15.7143H33.6735V14.5918Z" fill="#FFA800"/>
<path d="M34.7959 14.5918H35.9184V15.7143H34.7959V14.5918Z" fill="#FFA800"/>
<path d="M35.9184 14.5918H37.0408V15.7143H35.9184V14.5918Z" fill="#FFA800"/>
<path d="M37.0408 14.5918H38.1633V15.7143H37.0408V14.5918Z" fill="#FFA800"/>
<path d="M38.1633 14.5918H39.2857V15.7143H38.1633V14.5918Z" fill="#FFA800"/>
<path d="M39.2857 14.5918H40.4082V15.7143H39.2857V14.5918Z" fill="#FFA800"/>
<path d="M40.4082 14.5918H41.5306V15.7143H40.4082V14.5918Z" fill="#FFA800"/>
<path d="M41.5306 14.5918H42.6531V15.7143H41.5306V14.5918Z" fill="#FFA800"/>
<path d="M42.6531 14.5918H43.7755V15.7143H42.6531V14.5918Z" fill="#FFA800"/>
<path d="M43.7755 14.5918H44.898V15.7143H43.7755V14.5918Z" fill="#FFA800"/>
<path d="M44.898 14.5918H46.0204V15.7143H44.898V14.5918Z" fill="#FFA800"/>
<path d="M46.0204 14.5918H47.1429V15.7143H46.0204V14.5918Z" fill="#FFA800"/>
<path d="M2.2449 15.7143H3.36735V16.8367H2.2449V15.7143Z" fill="#FFA800"/>
<path d="M3.36735 15.7143H4.4898V16.8367H3.36735V15.7143Z" fill="#FFA800"/>
<path d="M4.4898 15.7143H5.61225V16.8367H4.4898V15.7143Z" fill="#FFA800"/>
<path d="M5.61225 15.7143H6.73469V16.8367H5.61225V15.7143Z" fill="#FFA800"/>
<path d="M6.73469 15.7143H7.85714V16.8367H6.73469V15.7143Z" fill="#FFA800"/>
<path d="M7.85714 15.7143H8.97959V16.8367H7.85714V15.7143Z" fill="#FFA800"/>
<path d="M8.97959 15.7143H10.102V16.8367H8.97959V15.7143Z" fill="#FFA800"/>
<path d="M10.102 15.7143H11.2245V16.8367H10.102V15.7143Z" fill="#FFA800"/>
<path d="M11.2245 15.7143H12.3469V16.8367H11.2245V15.7143Z" fill="#FFA800"/>
<path d="M12.3469 15.7143H13.4694V16.8367H12.3469V15.7143Z" fill="#FFA800"/>
<path d="M13.4694 15.7143H14.5918V16.8367H13.4694V15.7143Z" fill="#FFA800"/>
<path d="M14.5918 15.7143H15.7143V16.8367H14.5918V15.7143Z" fill="#FFA800"/>
<path d="M15.7143 15.7143H16.8367V16.8367H15.7143V15.7143Z" fill="#FFA800"/>
<path d="M16.8367 15.7143H17.9592V16.8367H16.8367V15.7143Z" fill="#FFA800"/>
<path d="M17.9592 15.7143H19.0816V16.8367H17.9592V15.7143Z" fill="#FFA800"/>
<path d="M19.0816 15.7143H20.2041V16.8367H19.0816V15.7143Z" fill="#FFA800"/>
<path d="M20.2041 15.7143H21.3265V16.8367H20.2041V15.7143Z" fill="#FFA800"/>
<path d="M21.3265 15.7143H22.449V16.8367H21.3265V15.7143Z" fill="#FFA800"/>
<path d="M22.449 15.7143H23.5714V16.8367H22.449V15.7143Z" fill="#FFA800"/>
<path d="M23.5714 15.7143H24.6939V16.8367H23.5714V15.7143Z" fill="#FFA800"/>
<path d="M24.6939 15.7143H25.8163V16.8367H24.6939V15.7143Z" fill="#FFA800"/>
<path d="M25.8163 15.7143H26.9388V16.8367H25.8163V15.7143Z" fill="#FFA800"/>
<path d="M26.9388 15.7143H28.0612V16.8367H26.9388V15.7143Z" fill="#FFA800"/>
<path d="M28.0612 15.7143H29.1837V16.8367H28.0612V15.7143Z" fill="#FFA800"/>
<path d="M29.1837 15.7143H30.3061V16.8367H29.1837V15.7143Z" fill="#FFA800"/>
<path d="M30.3061 15.7143H31.4286V16.8367H30.3061V15.7143Z" fill="#FFA800"/>
<path d="M31.4286 15.7143H32.551V16.8367H31.4286V15.7143Z" fill="#FFA800"/>
<path d="M32.551 15.7143H33.6735V16.8367H32.551V15.7143Z" fill="#FFA800"/>
<path d="M33.6735 15.7143H34.7959V16.8367H33.6735V15.7143Z" fill="#FFA800"/>
<path d="M34.7959 15.7143H35.9184V16.8367H34.7959V15.7143Z" fill="#FFA800"/>
<path d="M35.9184 15.7143H37.0408V16.8367H35.9184V15.7143Z" fill="#FFA800"/>
<path d="M37.0408 15.7143H38.1633V16.8367H37.0408V15.7143Z" fill="#FFA800"/>
<path d="M38.1633 15.7143H39.2857V16.8367H38.1633V15.7143Z" fill="#FFA800"/>
<path d="M39.2857 15.7143H40.4082V16.8367H39.2857V15.7143Z" fill="#FFA800"/>
<path d="M40.4082 15.7143H41.5306V16.8367H40.4082V15.7143Z" fill="#FFA800"/>
<path d="M41.5306 15.7143H42.6531V16.8367H41.5306V15.7143Z" fill="#FFA800"/>
<path d="M42.6531 15.7143H43.7755V16.8367H42.6531V15.7143Z" fill="#FFA800"/>
<path d="M43.7755 15.7143H44.898V16.8367H43.7755V15.7143Z" fill="#FFA800"/>
<path d="M44.898 15.7143H46.0204V16.8367H44.898V15.7143Z" fill="#FFA800"/>
<path d="M3.36735 16.8367H4.4898V17.9592H3.36735L3.36735 16.8367Z" fill="#FFA800"/>
<path d="M4.4898 16.8367H5.61225V17.9592H4.4898V16.8367Z" fill="#FFA800"/>
<path d="M5.61225 16.8367H6.73469V17.9592H5.61225V16.8367Z" fill="#FFA800"/>
<path d="M6.73469 16.8367H7.85714V17.9592H6.73469V16.8367Z" fill="#FFA800"/>
<path d="M7.85714 16.8367H8.97959V17.9592H7.85714V16.8367Z" fill="#FFA800"/>
<path d="M8.97959 16.8367H10.102V17.9592H8.97959V16.8367Z" fill="#FFA800"/>
<path d="M10.102 16.8367H11.2245V17.9592H10.102V16.8367Z" fill="#FFA800"/>
<path d="M11.2245 16.8367H12.3469V17.9592H11.2245V16.8367Z" fill="#FFA800"/>
<path d="M12.3469 16.8367H13.4694V17.9592H12.3469V16.8367Z" fill="#FFA800"/>
<path d="M13.4694 16.8367H14.5918V17.9592H13.4694V16.8367Z" fill="#FFA800"/>
<path d="M14.5918 16.8367H15.7143V17.9592H14.5918V16.8367Z" fill="#FFA800"/>
<path d="M15.7143 16.8367H16.8367V17.9592H15.7143V16.8367Z" fill="#FFA800"/>
<path d="M16.8367 16.8367H17.9592V17.9592H16.8367V16.8367Z" fill="#FFA800"/>
<path d="M17.9592 16.8367H19.0816V17.9592H17.9592V16.8367Z" fill="#FFA800"/>
<path d="M19.0816 16.8367H20.2041V17.9592H19.0816V16.8367Z" fill="#FFA800"/>
<path d="M20.2041 16.8367H21.3265V17.9592H20.2041V16.8367Z" fill="#FFA800"/>
<path d="M21.3265 16.8367H22.449V17.9592H21.3265V16.8367Z" fill="#FFA800"/>
<path d="M22.449 16.8367H23.5714V17.9592H22.449V16.8367Z" fill="#FFA800"/>
<path d="M23.5714 16.8367H24.6939V17.9592H23.5714V16.8367Z" fill="#FFA800"/>
<path d="M24.6939 16.8367H25.8163V17.9592H24.6939V16.8367Z" fill="#FFA800"/>
<path d="M25.8163 16.8367H26.9388V17.9592H25.8163V16.8367Z" fill="#FFA800"/>
<path d="M26.9388 16.8367H28.0612V17.9592H26.9388V16.8367Z" fill="#FFA800"/>
<path d="M28.0612 16.8367H29.1837V17.9592H28.0612V16.8367Z" fill="#FFA800"/>
<path d="M29.1837 16.8367H30.3061V17.9592H29.1837V16.8367Z" fill="#FFA800"/>
<path d="M30.3061 16.8367H31.4286V17.9592H30.3061V16.8367Z" fill="#FFA800"/>
<path d="M31.4286 16.8367H32.551V17.9592H31.4286V16.8367Z" fill="#FFA800"/>
<path d="M32.551 16.8367H33.6735V17.9592H32.551V16.8367Z" fill="#FFA500"/>
<path d="M35.9184 16.8367H37.0408V17.9592H35.9184V16.8367Z" fill="#FFA800"/>
<path d="M37.0408 16.8367H38.1633V17.9592H37.0408V16.8367Z" fill="#FFA800"/>
<path d="M38.1633 16.8367H39.2857V17.9592H38.1633V16.8367Z" fill="#FFA800"/>
<path d="M39.2857 16.8367H40.4082V17.9592H39.2857V16.8367Z" fill="#FFA800"/>
<path d="M40.4082 16.8367H41.5306V17.9592H40.4082V16.8367Z" fill="#FFA800"/>
<path d="M41.5306 16.8367H42.6531V17.9592H41.5306V16.8367Z" fill="#FFA800"/>
<path d="M42.6531 16.8367H43.7755V17.9592H42.6531V16.8367Z" fill="#FFA800"/>
<path d="M43.7755 16.8367H44.898V17.9592H43.7755V16.8367Z" fill="#FFA800"/>
<path d="M0 17.9592H1.12245V19.0816H0V17.9592Z" fill="#FFA800"/>
<path d="M5.61225 17.9592H6.73469V19.0816H5.61225V17.9592Z" fill="#FFA800"/>
<path d="M6.73469 17.9592H7.85714V19.0816H6.73469V17.9592Z" fill="#FFA800"/>
<path d="M7.85714 17.9592H8.97959V19.0816H7.85714V17.9592Z" fill="#FFA800"/>
<path d="M8.97959 17.9592H10.102V19.0816H8.97959V17.9592Z" fill="#FFA800"/>
<path d="M10.102 17.9592H11.2245V19.0816H10.102V17.9592Z" fill="#FFA800"/>
<path d="M11.2245 17.9592H12.3469V19.0816H11.2245V17.9592Z" fill="#FFA800"/>
<path d="M12.3469 17.9592H13.4694V19.0816H12.3469V17.9592Z" fill="#FFA800"/>
<path d="M13.4694 17.9592H14.5918V19.0816H13.4694V17.9592Z" fill="#FFA800"/>
<path d="M14.5918 17.9592H15.7143V19.0816H14.5918V17.9592Z" fill="#FFA800"/>
<path d="M15.7143 17.9592H16.8367V19.0816H15.7143V17.9592Z" fill="#FFA800"/>
<path d="M16.8367 17.9592H17.9592V19.0816H16.8367V17.9592Z" fill="#FFA800"/>
<path d="M17.9592 17.9592H19.0816V19.0816H17.9592V17.9592Z" fill="#FFA800"/>
<path d="M19.0816 17.9592H20.2041V19.0816H19.0816V17.9592Z" fill="#FFA800"/>
<path d="M20.2041 17.9592H21.3265V19.0816H20.2041V17.9592Z" fill="#FFA800"/>
<path d="M21.3265 17.9592H22.449V19.0816H21.3265V17.9592Z" fill="#FFA800"/>
<path d="M22.449 17.9592H23.5714V19.0816H22.449V17.9592Z" fill="#FFA800"/>
<path d="M23.5714 17.9592H24.6939V19.0816H23.5714V17.9592Z" fill="#FFA800"/>
<path d="M24.6939 17.9592H25.8163V19.0816H24.6939V17.9592Z" fill="#FFA800"/>
<path d="M25.8163 17.9592H26.9388V19.0816H25.8163V17.9592Z" fill="#FFA800"/>
<path d="M26.9388 17.9592H28.0612V19.0816H26.9388V17.9592Z" fill="#FFA800"/>
<path d="M41.5306 17.9592H42.6531V19.0816H41.5306V17.9592Z" fill="#FFA800"/>
<path d="M0 19.0816H1.12245V20.2041H0V19.0816Z" fill="#FFA800"/>
<path d="M7.85714 19.0816H8.97959V20.2041H7.85714L7.85714 19.0816Z" fill="#FFA800"/>
<path d="M8.97959 19.0816H10.102V20.2041H8.97959V19.0816Z" fill="#FFA800"/>
<path d="M10.102 19.0816H11.2245V20.2041H10.102V19.0816Z" fill="#FFA800"/>
<path d="M11.2245 19.0816H12.3469V20.2041H11.2245V19.0816Z" fill="#FFA800"/>
<path d="M12.3469 19.0816H13.4694V20.2041H12.3469V19.0816Z" fill="#FFA800"/>
<path d="M13.4694 19.0816H14.5918V20.2041H13.4694V19.0816Z" fill="#FFA800"/>
<path d="M14.5918 19.0816H15.7143V20.2041H14.5918V19.0816Z" fill="#FFA800"/>
<path d="M15.7143 19.0816H16.8367V20.2041H15.7143V19.0816Z" fill="#FFA800"/>
<path d="M16.8367 19.0816H17.9592V20.2041H16.8367V19.0816Z" fill="#FFA800"/>
<path d="M17.9592 19.0816H19.0816V20.2041H17.9592V19.0816Z" fill="#FFA800"/>
<path d="M19.0816 19.0816H20.2041V20.2041H19.0816V19.0816Z" fill="#FFA800"/>
<path d="M20.2041 19.0816H21.3265V20.2041H20.2041V19.0816Z" fill="#FFA800"/>
<path d="M21.3265 19.0816H22.449V20.2041H21.3265V19.0816Z" fill="#FFA800"/>
<path d="M22.449 19.0816H23.5714V20.2041H22.449V19.0816Z" fill="#FFA800"/>
<path d="M23.5714 19.0816H24.6939V20.2041H23.5714V19.0816Z" fill="#FFA800"/>
<path d="M24.6939 19.0816H25.8163V20.2041H24.6939V19.0816Z" fill="#FFA800"/>
<path d="M0 20.2041H1.12245V21.3265H0V20.2041Z" fill="#FFA800"/>
<path d="M1.12245 20.2041H2.2449V21.3265H1.12245V20.2041Z" fill="#FFA700"/>
<path d="M10.102 20.2041H11.2245V21.3265H10.102V20.2041Z" fill="#FFA800"/>
<path d="M11.2245 20.2041H12.3469V21.3265H11.2245V20.2041Z" fill="#FFA800"/>
<path d="M12.3469 20.2041H13.4694V21.3265H12.3469V20.2041Z" fill="#FFA800"/>
<path d="M13.4694 20.2041H14.5918V21.3265H13.4694V20.2041Z" fill="#FFA800"/>
<path d="M14.5918 20.2041H15.7143V21.3265H14.5918V20.2041Z" fill="#FFA800"/>
<path d="M15.7143 20.2041H16.8367V21.3265H15.7143V20.2041Z" fill="#FFA800"/>
<path d="M16.8367 20.2041H17.9592V21.3265H16.8367V20.2041Z" fill="#FFA800"/>
<path d="M17.9592 20.2041H19.0816V21.3265H17.9592V20.2041Z" fill="#FFA800"/>
<path d="M19.0816 20.2041H20.2041V21.3265H19.0816V20.2041Z" fill="#FFA800"/>
<path d="M20.2041 20.2041H21.3265V21.3265H20.2041V20.2041Z" fill="#FFA800"/>
<path d="M21.3265 20.2041H22.449V21.3265H21.3265V20.2041Z" fill="#FFA800"/>
<path d="M22.449 20.2041H23.5714V21.3265H22.449V20.2041Z" fill="#FFA800"/>
<path d="M0 21.3265H1.12245V22.449H0V21.3265Z" fill="#FFA800"/>
<path d="M1.12245 21.3265H2.2449V22.449H1.12245V21.3265Z" fill="#FFA800"/>
<path d="M13.4694 21.3265H14.5918V22.449H13.4694L13.4694 21.3265Z" fill="#FFA800"/>
<path d="M14.5918 21.3265H15.7143V22.449H14.5918V21.3265Z" fill="#FFA800"/>
<path d="M15.7143 21.3265H16.8367V22.449H15.7143V21.3265Z" fill="#FFA800"/>
<path d="M16.8367 21.3265H17.9592V22.449H16.8367V21.3265Z" fill="#FFA800"/>
<path d="M17.9592 21.3265H19.0816V22.449H17.9592V21.3265Z" fill="#FFA800"/>
<path d="M19.0816 21.3265H20.2041V22.449H19.0816V21.3265Z" fill="#FFA800"/>
<path d="M20.2041 21.3265H21.3265V22.449H20.2041V21.3265Z" fill="#FFA800"/>
<path d="M21.3265 21.3265H22.449V22.449H21.3265V21.3265Z" fill="#FFA800"/>
<path d="M0 22.449H1.12245V23.5714H0V22.449Z" fill="#FFA800"/>
<path d="M1.12245 22.449H2.2449V23.5714H1.12245V22.449Z" fill="#FFA800"/>
<path d="M2.2449 22.449H3.36735V23.5714H2.2449V22.449Z" fill="#FFA800"/>
<path d="M32.551 22.449H33.6735V23.5714H32.551V22.449Z" fill="#FFA700"/>
<path d="M33.6735 22.449H34.7959V23.5714H33.6735V22.449Z" fill="#FFA800"/>
<path d="M34.7959 22.449H35.9184V23.5714H34.7959V22.449Z" fill="#FFA800"/>
<path d="M0 23.5714H1.12245V24.6939H0V23.5714Z" fill="#FFA800"/>
<path d="M1.12245 23.5714H2.2449V24.6939H1.12245V23.5714Z" fill="#FFA800"/>
<path d="M2.2449 23.5714H3.36735V24.6939H2.2449V23.5714Z" fill="#FFA800"/>
<path d="M3.36735 23.5714H4.4898V24.6939H3.36735V23.5714Z" fill="#FFA800"/>
<path d="M4.4898 23.5714H5.61225V24.6939H4.4898V23.5714Z" fill="#FFA800"/>
<path d="M29.1837 23.5714H30.3061V24.6939H29.1837V23.5714Z" fill="#FFA800"/>
<path d="M30.3061 23.5714H31.4286V24.6939H30.3061V23.5714Z" fill="#FFA800"/>
<path d="M31.4286 23.5714H32.551V24.6939H31.4286V23.5714Z" fill="#FFA800"/>
<path d="M32.551 23.5714H33.6735V24.6939H32.551V23.5714Z" fill="#FFA800"/>
<path d="M33.6735 23.5714H34.7959V24.6939H33.6735V23.5714Z" fill="#FFA800"/>
<path d="M34.7959 23.5714H35.9184V24.6939H34.7959V23.5714Z" fill="#FFA800"/>
<path d="M35.9184 23.5714H37.0408V24.6939H35.9184V23.5714Z" fill="#FFA800"/>
<path d="M37.0408 23.5714H38.1633V24.6939H37.0408V23.5714Z" fill="#FFA800"/>
<path d="M38.1633 23.5714H39.2857V24.6939H38.1633V23.5714Z" fill="#FFA800"/>
<path d="M39.2857 23.5714H40.4082V24.6939H39.2857V23.5714Z" fill="#FFA800"/>
<path d="M0 24.6939H1.12245V25.8163H0V24.6939Z" fill="#FFA800"/>
<path d="M1.12245 24.6939H2.2449V25.8163H1.12245V24.6939Z" fill="#FFA800"/>
<path d="M2.2449 24.6939H3.36735V25.8163H2.2449V24.6939Z" fill="#FFA800"/>
<path d="M3.36735 24.6939H4.4898V25.8163H3.36735V24.6939Z" fill="#FFA800"/>
<path d="M4.4898 24.6939H5.61225V25.8163H4.4898V24.6939Z" fill="#FFA800"/>
<path d="M5.61225 24.6939H6.73469V25.8163H5.61225V24.6939Z" fill="#FFA800"/>
<path d="M6.73469 24.6939H7.85714V25.8163H6.73469V24.6939Z" fill="#FFA800"/>
<path d="M26.9388 24.6939H28.0612V25.8163H26.9388V24.6939Z" fill="#FFA800"/>
<path d="M28.0612 24.6939H29.1837V25.8163H28.0612V24.6939Z" fill="#FFA800"/>
<path d="M29.1837 24.6939H30.3061V25.8163H29.1837V24.6939Z" fill="#FFA800"/>
<path d="M30.3061 24.6939H31.4286V25.8163H30.3061V24.6939Z" fill="#FFA800"/>
<path d="M31.4286 24.6939H32.551V25.8163H31.4286V24.6939Z" fill="#FFA800"/>
<path d="M32.551 24.6939H33.6735V25.8163H32.551V24.6939Z" fill="#FFA800"/>
<path d="M33.6735 24.6939H34.7959V25.8163H33.6735V24.6939Z" fill="#FFA800"/>
<path d="M34.7959 24.6939H35.9184V25.8163H34.7959V24.6939Z" fill="#FFA800"/>
<path d="M35.9184 24.6939H37.0408V25.8163H35.9184V24.6939Z" fill="#FFA800"/>
<path d="M37.0408 24.6939H38.1633V25.8163H37.0408V24.6939Z" fill="#FFA800"/>
<path d="M38.1633 24.6939H39.2857V25.8163H38.1633V24.6939Z" fill="#FFA800"/>
<path d="M39.2857 24.6939H40.4082V25.8163H39.2857V24.6939Z" fill="#FFA800"/>
<path d="M40.4082 24.6939H41.5306V25.8163H40.4082V24.6939Z" fill="#FFA800"/>
<path d="M41.5306 24.6939H42.6531V25.8163H41.5306V24.6939Z" fill="#FFA800"/>
<path d="M0 25.8163H1.12245V26.9388H0V25.8163Z" fill="#FFA800"/>
<path d="M1.12245 25.8163H2.2449V26.9388H1.12245V25.8163Z" fill="#FFA800"/>
<path d="M2.2449 25.8163H3.36735V26.9388H2.2449V25.8163Z" fill="#FFA800"/>
<path d="M3.36735 25.8163H4.4898V26.9388H3.36735V25.8163Z" fill="#FFA800"/>
<path d="M4.4898 25.8163H5.61225V26.9388H4.4898V25.8163Z" fill="#FFA800"/>
<path d="M5.61225 25.8163H6.73469V26.9388H5.61225V25.8163Z" fill="#FFA800"/>
<path d="M6.73469 25.8163H7.85714V26.9388H6.73469V25.8163Z" fill="#FFA800"/>
<path d="M7.85714 25.8163L8.97959 25.8163V26.9388H7.85714V25.8163Z" fill="#FFA800"/>
<path d="M8.97959 25.8163H10.102V26.9388H8.97959V25.8163Z" fill="#FFA800"/>
<path d="M25.8163 25.8163L26.9388 25.8163V26.9388H25.8163V25.8163Z" fill="#FFA800"/>
<path d="M26.9388 25.8163H28.0612V26.9388H26.9388V25.8163Z" fill="#FFA800"/>
<path d="M28.0612 25.8163H29.1837V26.9388H28.0612V25.8163Z" fill="#FFA800"/>
<path d="M29.1837 25.8163H30.3061V26.9388H29.1837V25.8163Z" fill="#FFA800"/>
<path d="M30.3061 25.8163H31.4286V26.9388H30.3061V25.8163Z" fill="#FFA800"/>
<path d="M31.4286 25.8163H32.551V26.9388H31.4286V25.8163Z" fill="#FFA800"/>
<path d="M32.551 25.8163H33.6735V26.9388H32.551V25.8163Z" fill="#FFA800"/>
<path d="M33.6735 25.8163H34.7959V26.9388H33.6735V25.8163Z" fill="#FFA800"/>
<path d="M34.7959 25.8163H35.9184V26.9388H34.7959V25.8163Z" fill="#FFA800"/>
<path d="M35.9184 25.8163H37.0408V26.9388H35.9184V25.8163Z" fill="#FFA800"/>
<path d="M37.0408 25.8163H38.1633V26.9388H37.0408V25.8163Z" fill="#FFA800"/>
<path d="M38.1633 25.8163H39.2857V26.9388H38.1633V25.8163Z" fill="#FFA800"/>
<path d="M39.2857 25.8163H40.4082V26.9388H39.2857V25.8163Z" fill="#FFA800"/>
<path d="M40.4082 25.8163H41.5306V26.9388H40.4082V25.8163Z" fill="#FFA800"/>
<path d="M41.5306 25.8163H42.6531V26.9388H41.5306V25.8163Z" fill="#FFA800"/>
<path d="M42.6531 25.8163L43.7755 25.8163V26.9388H42.6531V25.8163Z" fill="#FFA800"/>
<path d="M1.12245 26.9388H2.2449V28.0612H1.12245V26.9388Z" fill="#FFA800"/>
<path d="M2.2449 26.9388H3.36735V28.0612H2.2449V26.9388Z" fill="#FFA800"/>
<path d="M3.36735 26.9388H4.4898V28.0612H3.36735V26.9388Z" fill="#FFA800"/>
<path d="M4.4898 26.9388H5.61225V28.0612H4.4898V26.9388Z" fill="#FFA800"/>
<path d="M5.61225 26.9388H6.73469V28.0612H5.61225V26.9388Z" fill="#FFA800"/>
<path d="M6.73469 26.9388H7.85714V28.0612H6.73469V26.9388Z" fill="#FFA800"/>
<path d="M7.85714 26.9388H8.97959V28.0612H7.85714V26.9388Z" fill="#FFA800"/>
<path d="M8.97959 26.9388H10.102V28.0612H8.97959V26.9388Z" fill="#FFA800"/>
<path d="M10.102 26.9388H11.2245V28.0612H10.102V26.9388Z" fill="#FFA800"/>
<path d="M11.2245 26.9388H12.3469V28.0612H11.2245V26.9388Z" fill="#FFA800"/>
<path d="M12.3469 26.9388H13.4694V28.0612H12.3469V26.9388Z" fill="#FFA800"/>
<path d="M13.4694 26.9388H14.5918V28.0612H13.4694V26.9388Z" fill="#FFA800"/>
<path d="M24.6939 26.9388H25.8163L25.8163 28.0612H24.6939V26.9388Z" fill="#FFA800"/>
<path d="M25.8163 26.9388H26.9388V28.0612H25.8163L25.8163 26.9388Z" fill="#FFA800"/>
<path d="M26.9388 26.9388H28.0612V28.0612H26.9388V26.9388Z" fill="#FFA800"/>
<path d="M28.0612 26.9388H29.1837V28.0612H28.0612V26.9388Z" fill="#FFA800"/>
<path d="M29.1837 26.9388H30.3061V28.0612H29.1837V26.9388Z" fill="#FFA800"/>
<path d="M30.3061 26.9388H31.4286V28.0612H30.3061V26.9388Z" fill="#FFA800"/>
<path d="M31.4286 26.9388H32.551V28.0612H31.4286V26.9388Z" fill="#FFA800"/>
<path d="M32.551 26.9388H33.6735V28.0612H32.551V26.9388Z" fill="#FFA800"/>
<path d="M33.6735 26.9388H34.7959V28.0612H33.6735V26.9388Z" fill="#FFA800"/>
<path d="M34.7959 26.9388H35.9184V28.0612H34.7959V26.9388Z" fill="#FFA800"/>
<path d="M35.9184 26.9388H37.0408V28.0612H35.9184V26.9388Z" fill="#FFA800"/>
<path d="M37.0408 26.9388H38.1633V28.0612H37.0408V26.9388Z" fill="#FFA800"/>
<path d="M38.1633 26.9388H39.2857V28.0612H38.1633V26.9388Z" fill="#FFA800"/>
<path d="M39.2857 26.9388H40.4082V28.0612H39.2857V26.9388Z" fill="#FFA800"/>
<path d="M40.4082 26.9388H41.5306V28.0612H40.4082V26.9388Z" fill="#FFA800"/>
<path d="M41.5306 26.9388H42.6531V28.0612H41.5306V26.9388Z" fill="#FFA800"/>
<path d="M42.6531 26.9388H43.7755V28.0612H42.6531V26.9388Z" fill="#FFA800"/>
<path d="M43.7755 26.9388H44.898V28.0612H43.7755V26.9388Z" fill="#FFA800"/>
<path d="M1.12245 28.0612H2.2449V29.1837H1.12245V28.0612Z" fill="#FFA800"/>
<path d="M2.2449 28.0612H3.36735V29.1837H2.2449V28.0612Z" fill="#FFA800"/>
<path d="M3.36735 28.0612H4.4898V29.1837H3.36735V28.0612Z" fill="#FFA800"/>
<path d="M4.4898 28.0612H5.61225V29.1837H4.4898V28.0612Z" fill="#FFA800"/>
<path d="M5.61225 28.0612H6.73469V29.1837H5.61225V28.0612Z" fill="#FFA800"/>
<path d="M6.73469 28.0612H7.85714V29.1837H6.73469V28.0612Z" fill="#FFA800"/>
<path d="M7.85714 28.0612H8.97959V29.1837H7.85714V28.0612Z" fill="#FFA800"/>
<path d="M8.97959 28.0612H10.102V29.1837H8.97959V28.0612Z" fill="#FFA800"/>
<path d="M10.102 28.0612H11.2245V29.1837H10.102V28.0612Z" fill="#FFA800"/>
<path d="M11.2245 28.0612H12.3469V29.1837H11.2245V28.0612Z" fill="#FFA800"/>
<path d="M12.3469 28.0612H13.4694V29.1837H12.3469V28.0612Z" fill="#FFA800"/>
<path d="M13.4694 28.0612H14.5918V29.1837H13.4694V28.0612Z" fill="#FFA800"/>
<path d="M14.5918 28.0612L15.7143 28.0612V29.1837H14.5918V28.0612Z" fill="#FFA800"/>
<path d="M15.7143 28.0612H16.8367V29.1837H15.7143V28.0612Z" fill="#FFA800"/>
<path d="M23.5714 28.0612L24.6939 28.0612V29.1837H23.5714V28.0612Z" fill="#FFA800"/>
<path d="M24.6939 28.0612H25.8163V29.1837H24.6939V28.0612Z" fill="#FFA800"/>
<path d="M25.8163 28.0612H26.9388V29.1837H25.8163V28.0612Z" fill="#FFA800"/>
<path d="M26.9388 28.0612H28.0612V29.1837H26.9388V28.0612Z" fill="#FFA800"/>
<path d="M28.0612 28.0612H29.1837V29.1837H28.0612V28.0612Z" fill="#FFA800"/>
<path d="M29.1837 28.0612H30.3061V29.1837H29.1837V28.0612Z" fill="#FFA800"/>
<path d="M30.3061 28.0612H31.4286V29.1837H30.3061V28.0612Z" fill="#FFA800"/>
<path d="M31.4286 28.0612H32.551V29.1837H31.4286V28.0612Z" fill="#FFA800"/>
<path d="M32.551 28.0612H33.6735V29.1837H32.551V28.0612Z" fill="#FFA800"/>
<path d="M35.9184 28.0612H37.0408V29.1837H35.9184V28.0612Z" fill="#FFA800"/>
<path d="M37.0408 28.0612H38.1633V29.1837H37.0408V28.0612Z" fill="#FFA800"/>
<path d="M38.1633 28.0612H39.2857V29.1837H38.1633V28.0612Z" fill="#FFA800"/>
<path d="M39.2857 28.0612H40.4082V29.1837H39.2857V28.0612Z" fill="#FFA800"/>
<path d="M40.4082 28.0612H41.5306V29.1837H40.4082V28.0612Z" fill="#FFA800"/>
<path d="M41.5306 28.0612H42.6531V29.1837H41.5306V28.0612Z" fill="#FFA800"/>
<path d="M42.6531 28.0612H43.7755V29.1837H42.6531V28.0612Z" fill="#FFA800"/>
<path d="M43.7755 28.0612H44.898V29.1837H43.7755V28.0612Z" fill="#FFA800"/>
<path d="M44.898 28.0612L46.0204 28.0612V29.1837H44.898V28.0612Z" fill="#FFA800"/>
<path d="M2.2449 29.1837H3.36735V30.3061H2.2449V29.1837Z" fill="#FFA800"/>
<path d="M3.36735 29.1837H4.4898V30.3061H3.36735V29.1837Z" fill="#FFA800"/>
<path d="M4.4898 29.1837H5.61225V30.3061H4.4898V29.1837Z" fill="#FFA800"/>
<path d="M5.61225 29.1837H6.73469V30.3061H5.61225V29.1837Z" fill="#FFA800"/>
<path d="M6.73469 29.1837H7.85714V30.3061H6.73469V29.1837Z" fill="#FFA800"/>
<path d="M7.85714 29.1837H8.97959V30.3061H7.85714V29.1837Z" fill="#FFA800"/>
<path d="M8.97959 29.1837H10.102V30.3061H8.97959V29.1837Z" fill="#FFA800"/>
<path d="M10.102 29.1837H11.2245V30.3061H10.102V29.1837Z" fill="#FFA800"/>
<path d="M11.2245 29.1837H12.3469V30.3061H11.2245V29.1837Z" fill="#FFA800"/>
<path d="M12.3469 29.1837H13.4694V30.3061H12.3469V29.1837Z" fill="#FFA800"/>
<path d="M13.4694 29.1837H14.5918V30.3061H13.4694V29.1837Z" fill="#FFA800"/>
<path d="M14.5918 29.1837H15.7143V30.3061H14.5918V29.1837Z" fill="#FFA800"/>
<path d="M15.7143 29.1837H16.8367V30.3061H15.7143V29.1837Z" fill="#FFA800"/>
<path d="M22.449 29.1837H23.5714V30.3061H22.449V29.1837Z" fill="#FFA800"/>
<path d="M23.5714 29.1837H24.6939V30.3061H23.5714V29.1837Z" fill="#FFA800"/>
<path d="M24.6939 29.1837H25.8163V30.3061H24.6939V29.1837Z" fill="#FFA800"/>
<path d="M25.8163 29.1837H26.9388V30.3061H25.8163V29.1837Z" fill="#FFA800"/>
<path d="M26.9388 29.1837H28.0612V30.3061H26.9388V29.1837Z" fill="#FFA800"/>
<path d="M28.0612 29.1837H29.1837V30.3061H28.0612V29.1837Z" fill="#FFA800"/>
<path d="M29.1837 29.1837H30.3061V30.3061H29.1837V29.1837Z" fill="#FFA800"/>
<path d="M38.1633 29.1837H39.2857V30.3061H38.1633V29.1837Z" fill="#FFA800"/>
<path d="M39.2857 29.1837H40.4082V30.3061H39.2857V29.1837Z" fill="#FFA800"/>
<path d="M40.4082 29.1837H41.5306V30.3061H40.4082V29.1837Z" fill="#FFA800"/>
<path d="M41.5306 29.1837H42.6531V30.3061H41.5306V29.1837Z" fill="#FFA800"/>
<path d="M42.6531 29.1837H43.7755V30.3061H42.6531V29.1837Z" fill="#FFA800"/>
<path d="M43.7755 29.1837H44.898V30.3061H43.7755V29.1837Z" fill="#FFA800"/>
<path d="M44.898 29.1837H46.0204V30.3061H44.898V29.1837Z" fill="#FFA800"/>
<path d="M3.36735 30.3061H4.4898V31.4286H3.36735L3.36735 30.3061Z" fill="#FFA800"/>
<path d="M4.4898 30.3061H5.61225V31.4286H4.4898V30.3061Z" fill="#FFA800"/>
<path d="M5.61225 30.3061H6.73469V31.4286H5.61225V30.3061Z" fill="#FFA800"/>
<path d="M6.73469 30.3061H7.85714V31.4286H6.73469V30.3061Z" fill="#FFA800"/>
<path d="M7.85714 30.3061H8.97959V31.4286H7.85714V30.3061Z" fill="#FFA800"/>
<path d="M8.97959 30.3061H10.102V31.4286H8.97959V30.3061Z" fill="#FFA800"/>
<path d="M10.102 30.3061H11.2245V31.4286H10.102V30.3061Z" fill="#FFA800"/>
<path d="M11.2245 30.3061H12.3469V31.4286H11.2245V30.3061Z" fill="#FFA800"/>
<path d="M12.3469 30.3061H13.4694V31.4286H12.3469V30.3061Z" fill="#FFA800"/>
<path d="M13.4694 30.3061H14.5918V31.4286H13.4694V30.3061Z" fill="#FFA800"/>
<path d="M14.5918 30.3061H15.7143V31.4286H14.5918V30.3061Z" fill="#FFA800"/>
<path d="M22.449 30.3061H23.5714V31.4286H22.449V30.3061Z" fill="#FFA800"/>
<path d="M23.5714 30.3061H24.6939V31.4286H23.5714V30.3061Z" fill="#FFA800"/>
<path d="M24.6939 30.3061H25.8163V31.4286H24.6939V30.3061Z" fill="#FFA800"/>
<path d="M25.8163 30.3061H26.9388V31.4286H25.8163V30.3061Z" fill="#FFA800"/>
<path d="M26.9388 30.3061H28.0612V31.4286H26.9388V30.3061Z" fill="#FFA800"/>
<path d="M28.0612 30.3061H29.1837V31.4286H28.0612V30.3061Z" fill="#FFA800"/>
<path d="M40.4082 30.3061H41.5306V31.4286H40.4082V30.3061Z" fill="#FFA800"/>
<path d="M41.5306 30.3061H42.6531V31.4286H41.5306V30.3061Z" fill="#FFA800"/>
<path d="M42.6531 30.3061H43.7755V31.4286H42.6531V30.3061Z" fill="#FFA800"/>
<path d="M43.7755 30.3061H44.898V31.4286H43.7755V30.3061Z" fill="#FFA800"/>
<path d="M44.898 30.3061H46.0204V31.4286H44.898V30.3061Z" fill="#FFA800"/>
<path d="M46.0204 30.3061H47.1429V31.4286H46.0204V30.3061Z" fill="#FFA800"/>
<path d="M0 31.4286H1.12245V32.551H0V31.4286Z" fill="#FFA600"/>
<path d="M4.4898 31.4286H5.61225V32.551H4.4898L4.4898 31.4286Z" fill="#FFA800"/>
<path d="M5.61225 31.4286H6.73469V32.551H5.61225V31.4286Z" fill="#FFA800"/>
<path d="M6.73469 31.4286H7.85714V32.551H6.73469V31.4286Z" fill="#FFA800"/>
<path d="M7.85714 31.4286H8.97959V32.551H7.85714V31.4286Z" fill="#FFA800"/>
<path d="M8.97959 31.4286H10.102V32.551H8.97959V31.4286Z" fill="#FFA800"/>
<path d="M10.102 31.4286H11.2245V32.551H10.102V31.4286Z" fill="#FFA800"/>
<path d="M11.2245 31.4286H12.3469V32.551H11.2245V31.4286Z" fill="#FFA800"/>
<path d="M12.3469 31.4286H13.4694V32.551H12.3469V31.4286Z" fill="#FFA800"/>
<path d="M13.4694 31.4286H14.5918V32.551H13.4694V31.4286Z" fill="#FFA800"/>
<path d="M14.5918 31.4286H15.7143V32.551H14.5918V31.4286Z" fill="#FFA800"/>
<path d="M21.3265 31.4286H22.449V32.551H21.3265V31.4286Z" fill="#FFA800"/>
<path d="M22.449 31.4286H23.5714V32.551H22.449V31.4286Z" fill="#FFA800"/>
<path d="M23.5714 31.4286H24.6939V32.551H23.5714V31.4286Z" fill="#FFA800"/>
<path d="M24.6939 31.4286H25.8163V32.551H24.6939V31.4286Z" fill="#FFA800"/>
<path d="M25.8163 31.4286H26.9388V32.551H25.8163V31.4286Z" fill="#FFA800"/>
<path d="M26.9388 31.4286H28.0612V32.551H26.9388V31.4286Z" fill="#FFA800"/>
<path d="M40.4082 31.4286H41.5306V32.551H40.4082V31.4286Z" fill="#FFA800"/>
<path d="M41.5306 31.4286H42.6531V32.551H41.5306V31.4286Z" fill="#FFA800"/>
<path d="M42.6531 31.4286H43.7755V32.551H42.6531V31.4286Z" fill="#FFA800"/>
<path d="M43.7755 31.4286H44.898V32.551H43.7755V31.4286Z" fill="#FFA800"/>
<path d="M44.898 31.4286H46.0204V32.551H44.898V31.4286Z" fill="#FFA800"/>
<path d="M46.0204 31.4286H47.1429V32.551H46.0204V31.4286Z" fill="#FFA800"/>
<path d="M0 32.551H1.12245V33.6735H0V32.551Z" fill="#FFA800"/>
<path d="M6.73469 32.551H7.85714V33.6735H6.73469L6.73469 32.551Z" fill="#FFA800"/>
<path d="M7.85714 32.551H8.97959V33.6735H7.85714V32.551Z" fill="#FFA800"/>
<path d="M8.97959 32.551H10.102V33.6735H8.97959V32.551Z" fill="#FFA800"/>
<path d="M10.102 32.551H11.2245V33.6735H10.102V32.551Z" fill="#FFA800"/>
<path d="M11.2245 32.551H12.3469V33.6735H11.2245V32.551Z" fill="#FFA800"/>
<path d="M12.3469 32.551H13.4694V33.6735H12.3469V32.551Z" fill="#FFA800"/>
<path d="M13.4694 32.551H14.5918V33.6735H13.4694V32.551Z" fill="#FFA800"/>
<path d="M14.5918 32.551H15.7143V33.6735H14.5918V32.551Z" fill="#FFA800"/>
<path d="M21.3265 32.551H22.449V33.6735H21.3265V32.551Z" fill="#FFA800"/>
<path d="M22.449 32.551H23.5714V33.6735H22.449V32.551Z" fill="#FFA800"/>
<path d="M23.5714 32.551H24.6939V33.6735H23.5714V32.551Z" fill="#FFA800"/>
<path d="M24.6939 32.551H25.8163V33.6735H24.6939V32.551Z" fill="#FFA800"/>
<path d="M25.8163 32.551H26.9388V33.6735H25.8163V32.551Z" fill="#FFA800"/>
<path d="M26.9388 32.551H28.0612V33.6735H26.9388V32.551Z" fill="#FFA800"/>
<path d="M41.5306 32.551H42.6531V33.6735H41.5306V32.551Z" fill="#FFA800"/>
<path d="M42.6531 32.551H43.7755V33.6735H42.6531V32.551Z" fill="#FFA800"/>
<path d="M43.7755 32.551H44.898V33.6735H43.7755V32.551Z" fill="#FFA800"/>
<path d="M44.898 32.551H46.0204V33.6735H44.898V32.551Z" fill="#FFA800"/>
<path d="M46.0204 32.551H47.1429V33.6735H46.0204V32.551Z" fill="#FFA800"/>
<path d="M0 33.6735H1.12245V34.7959H0V33.6735Z" fill="#FFA800"/>
<path d="M8.97959 33.6735H10.102V34.7959H8.97959V33.6735Z" fill="#FFA800"/>
<path d="M10.102 33.6735H11.2245V34.7959H10.102V33.6735Z" fill="#FFA800"/>
<path d="M11.2245 33.6735H12.3469V34.7959H11.2245V33.6735Z" fill="#FFA800"/>
<path d="M12.3469 33.6735H13.4694V34.7959H12.3469V33.6735Z" fill="#FFA800"/>
<path d="M13.4694 33.6735H14.5918V34.7959H13.4694V33.6735Z" fill="#FFA800"/>
<path d="M14.5918 33.6735H15.7143V34.7959H14.5918V33.6735Z" fill="#FFA800"/>
<path d="M21.3265 33.6735H22.449V34.7959H21.3265V33.6735Z" fill="#FFA800"/>
<path d="M22.449 33.6735H23.5714V34.7959H22.449V33.6735Z" fill="#FFA800"/>
<path d="M23.5714 33.6735H24.6939V34.7959H23.5714V33.6735Z" fill="#FFA800"/>
<path d="M24.6939 33.6735H25.8163V34.7959H24.6939V33.6735Z" fill="#FFA800"/>
<path d="M25.8163 33.6735H26.9388V34.7959H25.8163V33.6735Z" fill="#FFA800"/>
<path d="M41.5306 33.6735H42.6531V34.7959H41.5306V33.6735Z" fill="#FFA800"/>
<path d="M42.6531 33.6735H43.7755V34.7959H42.6531V33.6735Z" fill="#FFA800"/>
<path d="M43.7755 33.6735H44.898V34.7959H43.7755V33.6735Z" fill="#FFA800"/>
<path d="M44.898 33.6735H46.0204V34.7959H44.898V33.6735Z" fill="#FFA800"/>
<path d="M46.0204 33.6735H47.1429V34.7959H46.0204V33.6735Z" fill="#FFA800"/>
<path d="M47.1429 33.6735H48.2653V34.7959H47.1429V33.6735Z" fill="#FFA800"/>
<path d="M0 34.7959H1.12245V35.9184H0V34.7959Z" fill="#FFA800"/>
<path d="M1.12245 34.7959H2.2449V35.9184H1.12245V34.7959Z" fill="#FFA800"/>
<path d="M12.3469 34.7959H13.4694V35.9184H12.3469V34.7959Z" fill="#FFA800"/>
<path d="M13.4694 34.7959H14.5918V35.9184H13.4694V34.7959Z" fill="#FFA800"/>
<path d="M14.5918 34.7959H15.7143V35.9184H14.5918V34.7959Z" fill="#FFA800"/>
<path d="M21.3265 34.7959H22.449V35.9184H21.3265V34.7959Z" fill="#FFA800"/>
<path d="M22.449 34.7959H23.5714V35.9184H22.449V34.7959Z" fill="#FFA800"/>
<path d="M23.5714 34.7959H24.6939V35.9184H23.5714V34.7959Z" fill="#FFA800"/>
<path d="M24.6939 34.7959H25.8163V35.9184H24.6939V34.7959Z" fill="#FFA800"/>
<path d="M25.8163 34.7959H26.9388V35.9184H25.8163V34.7959Z" fill="#FFA800"/>
<path d="M41.5306 34.7959H42.6531V35.9184H41.5306V34.7959Z" fill="#FFA800"/>
<path d="M42.6531 34.7959H43.7755V35.9184H42.6531V34.7959Z" fill="#FFA800"/>
<path d="M43.7755 34.7959H44.898V35.9184H43.7755V34.7959Z" fill="#FFA800"/>
<path d="M44.898 34.7959H46.0204V35.9184H44.898V34.7959Z" fill="#FFA800"/>
<path d="M46.0204 34.7959H47.1429V35.9184H46.0204V34.7959Z" fill="#FFA800"/>
<path d="M47.1429 34.7959H48.2653V35.9184H47.1429V34.7959Z" fill="#FFA800"/>
<path d="M0 35.9184H1.12245V37.0408H0V35.9184Z" fill="#FFA800"/>
<path d="M1.12245 35.9184H2.2449V37.0408H1.12245V35.9184Z" fill="#FFA800"/>
<path d="M2.2449 35.9184H3.36735V37.0408H2.2449V35.9184Z" fill="#FFA800"/>
<path d="M21.3265 35.9184H22.449V37.0408H21.3265V35.9184Z" fill="#FFA800"/>
<path d="M22.449 35.9184H23.5714V37.0408H22.449V35.9184Z" fill="#FFA800"/>
<path d="M23.5714 35.9184H24.6939V37.0408H23.5714V35.9184Z" fill="#FFA800"/>
<path d="M24.6939 35.9184H25.8163V37.0408H24.6939V35.9184Z" fill="#FFA800"/>
<path d="M25.8163 35.9184H26.9388V37.0408H25.8163V35.9184Z" fill="#FFA800"/>
<path d="M41.5306 35.9184H42.6531V37.0408H41.5306V35.9184Z" fill="#FFA800"/>
<path d="M42.6531 35.9184H43.7755V37.0408H42.6531V35.9184Z" fill="#FFA800"/>
<path d="M43.7755 35.9184H44.898V37.0408H43.7755V35.9184Z" fill="#FFA800"/>
<path d="M44.898 35.9184H46.0204V37.0408H44.898V35.9184Z" fill="#FFA800"/>
<path d="M46.0204 35.9184H47.1429V37.0408H46.0204V35.9184Z" fill="#FFA800"/>
<path d="M47.1429 35.9184H48.2653V37.0408H47.1429V35.9184Z" fill="#FFA800"/>
<path d="M0 37.0408H1.12245V38.1633H0V37.0408Z" fill="#FFA800"/>
<path d="M1.12245 37.0408H2.2449V38.1633H1.12245V37.0408Z" fill="#FFA800"/>
<path d="M2.2449 37.0408H3.36735V38.1633H2.2449V37.0408Z" fill="#FFA800"/>
<path d="M3.36735 37.0408H4.4898V38.1633H3.36735V37.0408Z" fill="#FFA800"/>
<path d="M21.3265 37.0408H22.449V38.1633H21.3265V37.0408Z" fill="#FFA800"/>
<path d="M22.449 37.0408H23.5714V38.1633H22.449V37.0408Z" fill="#FFA800"/>
<path d="M23.5714 37.0408H24.6939V38.1633H23.5714V37.0408Z" fill="#FFA800"/>
<path d="M24.6939 37.0408H25.8163V38.1633H24.6939V37.0408Z" fill="#FFA800"/>
<path d="M25.8163 37.0408H26.9388V38.1633H25.8163V37.0408Z" fill="#FFA800"/>
<path d="M41.5306 37.0408H42.6531V38.1633H41.5306V37.0408Z" fill="#FFA800"/>
<path d="M42.6531 37.0408H43.7755V38.1633H42.6531V37.0408Z" fill="#FFA800"/>
<path d="M43.7755 37.0408H44.898V38.1633H43.7755V37.0408Z" fill="#FFA800"/>
<path d="M44.898 37.0408H46.0204V38.1633H44.898V37.0408Z" fill="#FFA800"/>
<path d="M46.0204 37.0408H47.1429V38.1633H46.0204V37.0408Z" fill="#FFA800"/>
<path d="M0 38.1633H1.12245V39.2857H0V38.1633Z" fill="#FFA800"/>
<path d="M1.12245 38.1633H2.2449V39.2857H1.12245V38.1633Z" fill="#FFA800"/>
<path d="M2.2449 38.1633H3.36735V39.2857H2.2449V38.1633Z" fill="#FFA800"/>
<path d="M3.36735 38.1633H4.4898V39.2857H3.36735V38.1633Z" fill="#FFA800"/>
<path d="M4.4898 38.1633H5.61225V39.2857H4.4898V38.1633Z" fill="#FFA800"/>
<path d="M5.61225 38.1633H6.73469V39.2857H5.61225V38.1633Z" fill="#FFA800"/>
<path d="M21.3265 38.1633H22.449V39.2857H21.3265V38.1633Z" fill="#FFA800"/>
<path d="M22.449 38.1633H23.5714V39.2857H22.449V38.1633Z" fill="#FFA800"/>
<path d="M23.5714 38.1633H24.6939V39.2857H23.5714V38.1633Z" fill="#FFA800"/>
<path d="M24.6939 38.1633H25.8163V39.2857H24.6939V38.1633Z" fill="#FFA800"/>
<path d="M25.8163 38.1633H26.9388V39.2857H25.8163V38.1633Z" fill="#FFA800"/>
<path d="M26.9388 38.1633H28.0612V39.2857H26.9388V38.1633Z" fill="#FFA800"/>
<path d="M41.5306 38.1633H42.6531V39.2857H41.5306V38.1633Z" fill="#FFA800"/>
<path d="M42.6531 38.1633H43.7755V39.2857H42.6531V38.1633Z" fill="#FFA800"/>
<path d="M43.7755 38.1633H44.898V39.2857H43.7755V38.1633Z" fill="#FFA800"/>
<path d="M44.898 38.1633H46.0204V39.2857H44.898V38.1633Z" fill="#FFA800"/>
<path d="M46.0204 38.1633H47.1429V39.2857H46.0204V38.1633Z" fill="#FFA800"/>
<path d="M0 39.2857H1.12245V40.4082H0V39.2857Z" fill="#FFA800"/>
<path d="M1.12245 39.2857H2.2449V40.4082H1.12245V39.2857Z" fill="#FFA800"/>
<path d="M2.2449 39.2857H3.36735V40.4082H2.2449V39.2857Z" fill="#FFA800"/>
<path d="M3.36735 39.2857H4.4898V40.4082H3.36735V39.2857Z" fill="#FFA800"/>
<path d="M4.4898 39.2857H5.61225V40.4082H4.4898V39.2857Z" fill="#FFA800"/>
<path d="M5.61225 39.2857H6.73469V40.4082H5.61225V39.2857Z" fill="#FFA800"/>
<path d="M6.73469 39.2857H7.85714V40.4082H6.73469V39.2857Z" fill="#FFA800"/>
<path d="M7.85714 39.2857H8.97959V40.4082H7.85714V39.2857Z" fill="#FFA800"/>
<path d="M22.449 39.2857H23.5714V40.4082H22.449V39.2857Z" fill="#FFA800"/>
<path d="M23.5714 39.2857H24.6939V40.4082H23.5714V39.2857Z" fill="#FFA800"/>
<path d="M24.6939 39.2857H25.8163V40.4082H24.6939V39.2857Z" fill="#FFA800"/>
<path d="M25.8163 39.2857H26.9388V40.4082H25.8163V39.2857Z" fill="#FFA800"/>
<path d="M26.9388 39.2857H28.0612V40.4082H26.9388V39.2857Z" fill="#FFA800"/>
<path d="M28.0612 39.2857H29.1837V40.4082H28.0612V39.2857Z" fill="#FFA800"/>
<path d="M40.4082 39.2857H41.5306V40.4082H40.4082V39.2857Z" fill="#FFA800"/>
<path d="M41.5306 39.2857H42.6531V40.4082H41.5306V39.2857Z" fill="#FFA800"/>
<path d="M42.6531 39.2857H43.7755V40.4082H42.6531V39.2857Z" fill="#FFA800"/>
<path d="M43.7755 39.2857H44.898V40.4082H43.7755V39.2857Z" fill="#FFA800"/>
<path d="M44.898 39.2857H46.0204V40.4082H44.898V39.2857Z" fill="#FFA800"/>
<path d="M46.0204 39.2857H47.1429V40.4082H46.0204V39.2857Z" fill="#FFA800"/>
<path d="M1.12245 40.4082H2.2449V41.5306H1.12245V40.4082Z" fill="#FFA800"/>
<path d="M2.2449 40.4082H3.36735V41.5306H2.2449V40.4082Z" fill="#FFA800"/>
<path d="M3.36735 40.4082H4.4898V41.5306H3.36735V40.4082Z" fill="#FFA800"/>
<path d="M4.4898 40.4082H5.61225V41.5306H4.4898V40.4082Z" fill="#FFA800"/>
<path d="M5.61225 40.4082H6.73469V41.5306H5.61225V40.4082Z" fill="#FFA800"/>
<path d="M6.73469 40.4082H7.85714V41.5306H6.73469V40.4082Z" fill="#FFA800"/>
<path d="M7.85714 40.4082H8.97959V41.5306H7.85714V40.4082Z" fill="#FFA800"/>
<path d="M8.97959 40.4082H10.102V41.5306H8.97959V40.4082Z" fill="#FFA800"/>
<path d="M10.102 40.4082H11.2245V41.5306H10.102V40.4082Z" fill="#FFA800"/>
<path d="M11.2245 40.4082H12.3469V41.5306H11.2245V40.4082Z" fill="#FFA800"/>
<path d="M22.449 40.4082H23.5714V41.5306H22.449V40.4082Z" fill="#FFA800"/>
<path d="M23.5714 40.4082H24.6939V41.5306H23.5714V40.4082Z" fill="#FFA800"/>
<path d="M24.6939 40.4082H25.8163V41.5306H24.6939V40.4082Z" fill="#FFA800"/>
<path d="M25.8163 40.4082H26.9388V41.5306H25.8163V40.4082Z" fill="#FFA800"/>
<path d="M26.9388 40.4082H28.0612V41.5306H26.9388V40.4082Z" fill="#FFA800"/>
<path d="M28.0612 40.4082H29.1837V41.5306H28.0612V40.4082Z" fill="#FFA800"/>
<path d="M29.1837 40.4082H30.3061V41.5306H29.1837V40.4082Z" fill="#FFA800"/>
<path d="M39.2857 40.4082H40.4082V41.5306H39.2857V40.4082Z" fill="#FFA800"/>
<path d="M40.4082 40.4082H41.5306V41.5306H40.4082V40.4082Z" fill="#FFA800"/>
<path d="M41.5306 40.4082H42.6531V41.5306H41.5306V40.4082Z" fill="#FFA800"/>
<path d="M42.6531 40.4082H43.7755V41.5306H42.6531V40.4082Z" fill="#FFA800"/>
<path d="M43.7755 40.4082H44.898V41.5306H43.7755V40.4082Z" fill="#FFA800"/>
<path d="M44.898 40.4082H46.0204V41.5306H44.898V40.4082Z" fill="#FFA800"/>
<path d="M1.12245 41.5306H2.2449V42.6531H1.12245V41.5306Z" fill="#FFA800"/>
<path d="M2.2449 41.5306H3.36735V42.6531H2.2449V41.5306Z" fill="#FFA800"/>
<path d="M3.36735 41.5306H4.4898V42.6531H3.36735V41.5306Z" fill="#FFA800"/>
<path d="M4.4898 41.5306H5.61225V42.6531H4.4898V41.5306Z" fill="#FFA800"/>
<path d="M5.61225 41.5306H6.73469V42.6531H5.61225V41.5306Z" fill="#FFA800"/>
<path d="M6.73469 41.5306H7.85714V42.6531H6.73469V41.5306Z" fill="#FFA800"/>
<path d="M7.85714 41.5306H8.97959V42.6531H7.85714V41.5306Z" fill="#FFA800"/>
<path d="M8.97959 41.5306H10.102V42.6531H8.97959V41.5306Z" fill="#FFA800"/>
<path d="M10.102 41.5306H11.2245V42.6531H10.102V41.5306Z" fill="#FFA800"/>
<path d="M11.2245 41.5306H12.3469V42.6531H11.2245V41.5306Z" fill="#FFA800"/>
<path d="M12.3469 41.5306H13.4694V42.6531H12.3469V41.5306Z" fill="#FFA800"/>
<path d="M13.4694 41.5306H14.5918V42.6531H13.4694V41.5306Z" fill="#FFA800"/>
<path d="M14.5918 41.5306H15.7143V42.6531H14.5918V41.5306Z" fill="#FFA800"/>
<path d="M15.7143 41.5306H16.8367V42.6531H15.7143V41.5306Z" fill="#FFA800"/>
<path d="M23.5714 41.5306H24.6939V42.6531H23.5714V41.5306Z" fill="#FFA800"/>
<path d="M24.6939 41.5306H25.8163V42.6531H24.6939V41.5306Z" fill="#FFA800"/>
<path d="M25.8163 41.5306H26.9388V42.6531H25.8163V41.5306Z" fill="#FFA800"/>
<path d="M26.9388 41.5306H28.0612V42.6531H26.9388V41.5306Z" fill="#FFA800"/>
<path d="M28.0612 41.5306H29.1837V42.6531H28.0612V41.5306Z" fill="#FFA800"/>
<path d="M29.1837 41.5306H30.3061V42.6531H29.1837V41.5306Z" fill="#FFA800"/>
<path d="M30.3061 41.5306H31.4286V42.6531H30.3061V41.5306Z" fill="#FFA800"/>
<path d="M31.4286 41.5306H32.551V42.6531H31.4286V41.5306Z" fill="#FFA700"/>
<path d="M37.0408 41.5306H38.1633V42.6531H37.0408V41.5306Z" fill="#FFA800"/>
<path d="M38.1633 41.5306H39.2857V42.6531H38.1633V41.5306Z" fill="#FFA800"/>
<path d="M39.2857 41.5306H40.4082V42.6531H39.2857V41.5306Z" fill="#FFA800"/>
<path d="M40.4082 41.5306H41.5306V42.6531H40.4082V41.5306Z" fill="#FFA800"/>
<path d="M41.5306 41.5306H42.6531V42.6531H41.5306V41.5306Z" fill="#FFA800"/>
<path d="M42.6531 41.5306H43.7755V42.6531H42.6531V41.5306Z" fill="#FFA800"/>
<path d="M43.7755 41.5306H44.898V42.6531H43.7755V41.5306Z" fill="#FFA800"/>
<path d="M44.898 41.5306H46.0204V42.6531H44.898V41.5306Z" fill="#FFA800"/>
<path d="M1.12245 42.6531H2.2449V43.7755H1.12245V42.6531Z" fill="#FFA600"/>
<path d="M2.2449 42.6531H3.36735V43.7755H2.2449V42.6531Z" fill="#FFA800"/>
<path d="M3.36735 42.6531H4.4898V43.7755H3.36735V42.6531Z" fill="#FFA800"/>
<path d="M4.4898 42.6531H5.61225V43.7755H4.4898V42.6531Z" fill="#FFA800"/>
<path d="M5.61225 42.6531H6.73469V43.7755H5.61225V42.6531Z" fill="#FFA800"/>
<path d="M6.73469 42.6531H7.85714V43.7755H6.73469V42.6531Z" fill="#FFA800"/>
<path d="M7.85714 42.6531H8.97959V43.7755H7.85714V42.6531Z" fill="#FFA800"/>
<path d="M8.97959 42.6531H10.102V43.7755H8.97959V42.6531Z" fill="#FFA800"/>
<path d="M10.102 42.6531H11.2245V43.7755H10.102V42.6531Z" fill="#FFA800"/>
<path d="M11.2245 42.6531H12.3469V43.7755H11.2245V42.6531Z" fill="#FFA800"/>
<path d="M12.3469 42.6531H13.4694V43.7755H12.3469V42.6531Z" fill="#FFA800"/>
<path d="M13.4694 42.6531H14.5918V43.7755H13.4694V42.6531Z" fill="#FFA800"/>
<path d="M14.5918 42.6531H15.7143V43.7755H14.5918V42.6531Z" fill="#FFA800"/>
<path d="M15.7143 42.6531H16.8367V43.7755H15.7143V42.6531Z" fill="#FFA800"/>
<path d="M23.5714 42.6531H24.6939V43.7755H23.5714V42.6531Z" fill="#FFA800"/>
<path d="M24.6939 42.6531H25.8163V43.7755H24.6939V42.6531Z" fill="#FFA800"/>
<path d="M25.8163 42.6531H26.9388V43.7755H25.8163V42.6531Z" fill="#FFA800"/>
<path d="M26.9388 42.6531H28.0612V43.7755H26.9388V42.6531Z" fill="#FFA800"/>
<path d="M28.0612 42.6531H29.1837V43.7755H28.0612V42.6531Z" fill="#FFA800"/>
<path d="M29.1837 42.6531H30.3061V43.7755H29.1837V42.6531Z" fill="#FFA800"/>
<path d="M30.3061 42.6531H31.4286V43.7755H30.3061V42.6531Z" fill="#FFA800"/>
<path d="M31.4286 42.6531H32.551V43.7755H31.4286V42.6531Z" fill="#FFA800"/>
<path d="M32.551 42.6531H33.6735V43.7755H32.551V42.6531Z" fill="#FFA800"/>
<path d="M33.6735 42.6531H34.7959V43.7755H33.6735V42.6531Z" fill="#FFA800"/>
<path d="M34.7959 42.6531H35.9184V43.7755H34.7959V42.6531Z" fill="#FFA800"/>
<path d="M35.9184 42.6531H37.0408V43.7755H35.9184V42.6531Z" fill="#FFA800"/>
<path d="M37.0408 42.6531H38.1633V43.7755H37.0408V42.6531Z" fill="#FFA800"/>
<path d="M38.1633 42.6531H39.2857V43.7755H38.1633V42.6531Z" fill="#FFA800"/>
<path d="M39.2857 42.6531H40.4082V43.7755H39.2857V42.6531Z" fill="#FFA800"/>
<path d="M40.4082 42.6531H41.5306V43.7755H40.4082V42.6531Z" fill="#FFA800"/>
<path d="M41.5306 42.6531H42.6531V43.7755H41.5306V42.6531Z" fill="#FFA800"/>
<path d="M42.6531 42.6531H43.7755V43.7755H42.6531V42.6531Z" fill="#FFA800"/>
<path d="M43.7755 42.6531H44.898V43.7755H43.7755V42.6531Z" fill="#FFA800"/>
<path d="M44.898 42.6531H46.0204V43.7755H44.898V42.6531Z" fill="#FFA800"/>
<path d="M46.0204 42.6531H47.1429V43.7755H46.0204V42.6531Z" fill="#FFA800"/>
<path d="M2.2449 43.7755H3.36735V44.898H2.2449V43.7755Z" fill="#FFA800"/>
<path d="M3.36735 43.7755H4.4898V44.898H3.36735V43.7755Z" fill="#FFA800"/>
<path d="M4.4898 43.7755H5.61225V44.898H4.4898V43.7755Z" fill="#FFA800"/>
<path d="M5.61225 43.7755H6.73469V44.898H5.61225V43.7755Z" fill="#FFA800"/>
<path d="M6.73469 43.7755H7.85714V44.898H6.73469V43.7755Z" fill="#FFA800"/>
<path d="M7.85714 43.7755H8.97959V44.898H7.85714V43.7755Z" fill="#FFA800"/>
<path d="M8.97959 43.7755H10.102V44.898H8.97959V43.7755Z" fill="#FFA800"/>
<path d="M10.102 43.7755H11.2245V44.898H10.102V43.7755Z" fill="#FFA800"/>
<path d="M11.2245 43.7755H12.3469V44.898H11.2245V43.7755Z" fill="#FFA800"/>
<path d="M12.3469 43.7755H13.4694V44.898H12.3469V43.7755Z" fill="#FFA800"/>
<path d="M13.4694 43.7755H14.5918V44.898H13.4694V43.7755Z" fill="#FFA800"/>
<path d="M14.5918 43.7755H15.7143V44.898H14.5918V43.7755Z" fill="#FFA800"/>
<path d="M15.7143 43.7755H16.8367V44.898H15.7143V43.7755Z" fill="#FFA800"/>
<path d="M16.8367 43.7755H17.9592V44.898H16.8367V43.7755Z" fill="#FFA800"/>
<path d="M24.6939 43.7755H25.8163V44.898H24.6939V43.7755Z" fill="#FFA800"/>
<path d="M25.8163 43.7755H26.9388V44.898H25.8163V43.7755Z" fill="#FFA800"/>
<path d="M26.9388 43.7755H28.0612V44.898H26.9388V43.7755Z" fill="#FFA800"/>
<path d="M28.0612 43.7755H29.1837V44.898H28.0612V43.7755Z" fill="#FFA800"/>
<path d="M29.1837 43.7755H30.3061V44.898H29.1837V43.7755Z" fill="#FFA800"/>
<path d="M30.3061 43.7755H31.4286V44.898H30.3061V43.7755Z" fill="#FFA800"/>
<path d="M31.4286 43.7755H32.551V44.898H31.4286V43.7755Z" fill="#FFA800"/>
<path d="M32.551 43.7755H33.6735V44.898H32.551V43.7755Z" fill="#FFA800"/>
<path d="M33.6735 43.7755H34.7959V44.898H33.6735V43.7755Z" fill="#FFA800"/>
<path d="M34.7959 43.7755H35.9184V44.898H34.7959V43.7755Z" fill="#FFA800"/>
<path d="M35.9184 43.7755H37.0408V44.898H35.9184V43.7755Z" fill="#FFA800"/>
<path d="M37.0408 43.7755H38.1633V44.898H37.0408V43.7755Z" fill="#FFA800"/>
<path d="M38.1633 43.7755H39.2857V44.898H38.1633V43.7755Z" fill="#FFA800"/>
<path d="M39.2857 43.7755H40.4082V44.898H39.2857V43.7755Z" fill="#FFA800"/>
<path d="M40.4082 43.7755H41.5306V44.898H40.4082V43.7755Z" fill="#FFA800"/>
<path d="M41.5306 43.7755H42.6531V44.898H41.5306V43.7755Z" fill="#FFA800"/>
<path d="M42.6531 43.7755H43.7755V44.898H42.6531V43.7755Z" fill="#FFA800"/>
<path d="M43.7755 43.7755H44.898V44.898H43.7755V43.7755Z" fill="#FFA800"/>
<path d="M44.898 43.7755H46.0204V44.898H44.898V43.7755Z" fill="#FFA800"/>
<path d="M46.0204 43.7755H47.1429V44.898H46.0204V43.7755Z" fill="#FFA800"/>
<path d="M47.1429 43.7755H48.2653V44.898H47.1429V43.7755Z" fill="#FFA800"/>
<path d="M3.36735 44.898H4.4898V46.0204H3.36735L3.36735 44.898Z" fill="#FFA800"/>
<path d="M4.4898 44.898H5.61225V46.0204H4.4898V44.898Z" fill="#FFA800"/>
<path d="M5.61225 44.898H6.73469V46.0204H5.61225V44.898Z" fill="#FFA800"/>
<path d="M6.73469 44.898H7.85714V46.0204H6.73469V44.898Z" fill="#FFA800"/>
<path d="M7.85714 44.898H8.97959V46.0204H7.85714V44.898Z" fill="#FFA800"/>
<path d="M8.97959 44.898H10.102V46.0204H8.97959V44.898Z" fill="#FFA800"/>
<path d="M10.102 44.898H11.2245V46.0204H10.102V44.898Z" fill="#FFA800"/>
<path d="M11.2245 44.898H12.3469V46.0204H11.2245V44.898Z" fill="#FFA800"/>
<path d="M12.3469 44.898H13.4694V46.0204H12.3469V44.898Z" fill="#FFA800"/>
<path d="M13.4694 44.898H14.5918V46.0204H13.4694V44.898Z" fill="#FFA800"/>
<path d="M14.5918 44.898H15.7143V46.0204H14.5918V44.898Z" fill="#FFA800"/>
<path d="M15.7143 44.898H16.8367V46.0204H15.7143V44.898Z" fill="#FFA800"/>
<path d="M16.8367 44.898H17.9592V46.0204H16.8367V44.898Z" fill="#FFA800"/>
<path d="M25.8163 44.898H26.9388V46.0204H25.8163L25.8163 44.898Z" fill="#FFA800"/>
<path d="M26.9388 44.898H28.0612V46.0204H26.9388V44.898Z" fill="#FFA800"/>
<path d="M28.0612 44.898H29.1837V46.0204H28.0612V44.898Z" fill="#FFA800"/>
<path d="M29.1837 44.898H30.3061V46.0204H29.1837V44.898Z" fill="#FFA800"/>
<path d="M30.3061 44.898H31.4286V46.0204H30.3061V44.898Z" fill="#FFA800"/>
<path d="M31.4286 44.898H32.551V46.0204H31.4286V44.898Z" fill="#FFA800"/>
<path d="M32.551 44.898H33.6735V46.0204H32.551V44.898Z" fill="#FFA800"/>
<path d="M33.6735 44.898H34.7959V46.0204H33.6735V44.898Z" fill="#FFA800"/>
<path d="M34.7959 44.898H35.9184V46.0204H34.7959V44.898Z" fill="#FFA800"/>
<path d="M35.9184 44.898H37.0408V46.0204H35.9184V44.898Z" fill="#FFA800"/>
<path d="M37.0408 44.898H38.1633V46.0204H37.0408V44.898Z" fill="#FFA800"/>
<path d="M38.1633 44.898H39.2857V46.0204H38.1633V44.898Z" fill="#FFA800"/>
<path d="M39.2857 44.898H40.4082V46.0204H39.2857V44.898Z" fill="#FFA800"/>
<path d="M40.4082 44.898H41.5306V46.0204H40.4082V44.898Z" fill="#FFA800"/>
<path d="M41.5306 44.898H42.6531V46.0204H41.5306V44.898Z" fill="#FFA800"/>
<path d="M42.6531 44.898H43.7755V46.0204H42.6531V44.898Z" fill="#FFA800"/>
<path d="M43.7755 44.898H44.898V46.0204H43.7755V44.898Z" fill="#FFA800"/>
<path d="M44.898 44.898H46.0204V46.0204H44.898V44.898Z" fill="#FFA800"/>
<path d="M46.0204 44.898H47.1429V46.0204H46.0204V44.898Z" fill="#FFA800"/>
<path d="M47.1429 44.898H48.2653V46.0204H47.1429V44.898Z" fill="#FFA800"/>
<path d="M48.2653 44.898H49.3878V46.0204H48.2653V44.898Z" fill="#FFA800"/>
<path d="M5.61225 46.0204H6.73469V47.1429H5.61225V46.0204Z" fill="#FFA800"/>
<path d="M6.73469 46.0204H7.85714V47.1429H6.73469V46.0204Z" fill="#FFA800"/>
<path d="M7.85714 46.0204H8.97959V47.1429H7.85714V46.0204Z" fill="#FFA800"/>
<path d="M8.97959 46.0204H10.102V47.1429H8.97959V46.0204Z" fill="#FFA800"/>
<path d="M10.102 46.0204H11.2245V47.1429H10.102V46.0204Z" fill="#FFA800"/>
<path d="M11.2245 46.0204H12.3469V47.1429H11.2245V46.0204Z" fill="#FFA800"/>
<path d="M12.3469 46.0204H13.4694V47.1429H12.3469V46.0204Z" fill="#FFA800"/>
<path d="M13.4694 46.0204H14.5918V47.1429H13.4694V46.0204Z" fill="#FFA800"/>
<path d="M14.5918 46.0204H15.7143V47.1429H14.5918V46.0204Z" fill="#FFA800"/>
<path d="M15.7143 46.0204H16.8367V47.1429H15.7143V46.0204Z" fill="#FFA800"/>
<path d="M16.8367 46.0204H17.9592V47.1429H16.8367V46.0204Z" fill="#FFA800"/>
<path d="M17.9592 46.0204H19.0816V47.1429H17.9592V46.0204Z" fill="#FFA800"/>
<path d="M28.0612 46.0204H29.1837V47.1429H28.0612L28.0612 46.0204Z" fill="#FFA800"/>
<path d="M29.1837 46.0204H30.3061V47.1429H29.1837V46.0204Z" fill="#FFA800"/>
<path d="M30.3061 46.0204H31.4286V47.1429H30.3061V46.0204Z" fill="#FFA800"/>
<path d="M31.4286 46.0204H32.551V47.1429H31.4286V46.0204Z" fill="#FFA800"/>
<path d="M32.551 46.0204H33.6735V47.1429H32.551V46.0204Z" fill="#FFA800"/>
<path d="M33.6735 46.0204H34.7959V47.1429H33.6735V46.0204Z" fill="#FFA800"/>
<path d="M34.7959 46.0204H35.9184V47.1429H34.7959V46.0204Z" fill="#FFA800"/>
<path d="M35.9184 46.0204H37.0408V47.1429H35.9184V46.0204Z" fill="#FFA800"/>
<path d="M37.0408 46.0204H38.1633V47.1429H37.0408V46.0204Z" fill="#FFA800"/>
<path d="M38.1633 46.0204H39.2857V47.1429H38.1633V46.0204Z" fill="#FFA800"/>
<path d="M39.2857 46.0204H40.4082V47.1429H39.2857V46.0204Z" fill="#FFA800"/>
<path d="M40.4082 46.0204H41.5306V47.1429H40.4082V46.0204Z" fill="#FF9F00"/>
<path d="M41.5306 46.0204H42.6531V47.1429H41.5306V46.0204Z" fill="#FFA800"/>
<path d="M42.6531 46.0204H43.7755V47.1429H42.6531V46.0204Z" fill="#FFA800"/>
<path d="M43.7755 46.0204H44.898V47.1429H43.7755V46.0204Z" fill="#FFA800"/>
<path d="M44.898 46.0204H46.0204V47.1429H44.898V46.0204Z" fill="#FFA800"/>
<path d="M46.0204 46.0204H47.1429V47.1429H46.0204V46.0204Z" fill="#FFA800"/>
<path d="M47.1429 46.0204H48.2653V47.1429H47.1429V46.0204Z" fill="#FFA800"/>
<path d="M48.2653 46.0204H49.3878V47.1429H48.2653V46.0204Z" fill="#FFA800"/>
<path d="M49.3878 46.0204H50.5102V47.1429H49.3878V46.0204Z" fill="#FFA800"/>
<path d="M7.85714 47.1429H8.97959V48.2653H7.85714L7.85714 47.1429Z" fill="#FFA800"/>
<path d="M8.97959 47.1429H10.102V48.2653H8.97959V47.1429Z" fill="#FFA800"/>
<path d="M10.102 47.1429H11.2245V48.2653H10.102V47.1429Z" fill="#FFA800"/>
<path d="M11.2245 47.1429H12.3469V48.2653H11.2245V47.1429Z" fill="#FFA800"/>
<path d="M12.3469 47.1429H13.4694V48.2653H12.3469V47.1429Z" fill="#FFA800"/>
<path d="M13.4694 47.1429H14.5918V48.2653H13.4694V47.1429Z" fill="#FFA800"/>
<path d="M14.5918 47.1429H15.7143V48.2653H14.5918V47.1429Z" fill="#FFA800"/>
<path d="M15.7143 47.1429H16.8367V48.2653H15.7143V47.1429Z" fill="#FFA800"/>
<path d="M16.8367 47.1429H17.9592V48.2653H16.8367V47.1429Z" fill="#FFA800"/>
<path d="M17.9592 47.1429H19.0816V48.2653H17.9592V47.1429Z" fill="#FFA800"/>
<path d="M19.0816 47.1429H20.2041V48.2653H19.0816V47.1429Z" fill="#FFA800"/>
<path d="M31.4286 47.1429H32.551V48.2653H31.4286V47.1429Z" fill="#FFA800"/>
<path d="M32.551 47.1429H33.6735V48.2653H32.551V47.1429Z" fill="#FFA800"/>
<path d="M33.6735 47.1429H34.7959V48.2653H33.6735V47.1429Z" fill="#FFA800"/>
<path d="M34.7959 47.1429H35.9184V48.2653H34.7959V47.1429Z" fill="#FFA800"/>
<path d="M35.9184 47.1429H37.0408V48.2653H35.9184V47.1429Z" fill="#FFA800"/>
<path d="M37.0408 47.1429H38.1633V48.2653H37.0408V47.1429Z" fill="#FFA800"/>
<path d="M42.6531 47.1429H43.7755V48.2653H42.6531V47.1429Z" fill="#FFA800"/>
<path d="M43.7755 47.1429H44.898V48.2653H43.7755V47.1429Z" fill="#FFA800"/>
<path d="M44.898 47.1429H46.0204V48.2653H44.898V47.1429Z" fill="#FFA800"/>
<path d="M46.0204 47.1429H47.1429V48.2653H46.0204V47.1429Z" fill="#FFA800"/>
<path d="M47.1429 47.1429H48.2653V48.2653H47.1429V47.1429Z" fill="#FFA800"/>
<path d="M48.2653 47.1429H49.3878V48.2653H48.2653V47.1429Z" fill="#FFA800"/>
<path d="M49.3878 47.1429H50.5102V48.2653H49.3878V47.1429Z" fill="#FFA800"/>
<path d="M50.5102 47.1429H51.6327V48.2653H50.5102V47.1429Z" fill="#FFA800"/>
<path d="M10.102 48.2653H11.2245V49.3878H10.102V48.2653Z" fill="#FFA800"/>
<path d="M11.2245 48.2653H12.3469V49.3878H11.2245V48.2653Z" fill="#FFA800"/>
<path d="M12.3469 48.2653H13.4694V49.3878H12.3469V48.2653Z" fill="#FFA800"/>
<path d="M13.4694 48.2653H14.5918V49.3878H13.4694V48.2653Z" fill="#FFA800"/>
<path d="M14.5918 48.2653H15.7143V49.3878H14.5918V48.2653Z" fill="#FFA800"/>
<path d="M15.7143 48.2653H16.8367V49.3878H15.7143V48.2653Z" fill="#FFA800"/>
<path d="M16.8367 48.2653H17.9592V49.3878H16.8367V48.2653Z" fill="#FFA800"/>
<path d="M17.9592 48.2653H19.0816V49.3878H17.9592V48.2653Z" fill="#FFA800"/>
<path d="M19.0816 48.2653H20.2041V49.3878H19.0816V48.2653Z" fill="#FFA800"/>
<path d="M20.2041 48.2653H21.3265V49.3878H20.2041V48.2653Z" fill="#FFA800"/>
<path d="M43.7755 48.2653H44.898V49.3878H43.7755V48.2653Z" fill="#FFA800"/>
<path d="M44.898 48.2653H46.0204V49.3878H44.898V48.2653Z" fill="#FFA800"/>
<path d="M46.0204 48.2653H47.1429V49.3878H46.0204V48.2653Z" fill="#FFA800"/>
<path d="M47.1429 48.2653H48.2653V49.3878H47.1429V48.2653Z" fill="#FFA800"/>
<path d="M48.2653 48.2653H49.3878V49.3878H48.2653V48.2653Z" fill="#FFA800"/>
<path d="M49.3878 48.2653H50.5102V49.3878H49.3878V48.2653Z" fill="#FFA800"/>
<path d="M50.5102 48.2653H51.6327V49.3878H50.5102V48.2653Z" fill="#FFA800"/>
<path d="M51.6327 48.2653H52.7551V49.3878H51.6327V48.2653Z" fill="#FFA800"/>
<path d="M14.5918 49.3878H15.7143V50.5102H14.5918L14.5918 49.3878Z" fill="#FFA800"/>
<path d="M15.7143 49.3878H16.8367V50.5102H15.7143V49.3878Z" fill="#FFA800"/>
<path d="M16.8367 49.3878H17.9592V50.5102H16.8367V49.3878Z" fill="#FFA800"/>
<path d="M17.9592 49.3878H19.0816V50.5102H17.9592V49.3878Z" fill="#FFA800"/>
<path d="M19.0816 49.3878H20.2041V50.5102H19.0816V49.3878Z" fill="#FFA800"/>
<path d="M20.2041 49.3878H21.3265V50.5102H20.2041V49.3878Z" fill="#FFA800"/>
<path d="M21.3265 49.3878H22.449V50.5102H21.3265V49.3878Z" fill="#FFA800"/>
<path d="M44.898 49.3878H46.0204V50.5102H44.898V49.3878Z" fill="#FF9F00"/>
<path d="M46.0204 49.3878H47.1429V50.5102H46.0204V49.3878Z" fill="#FFA800"/>
<path d="M47.1429 49.3878H48.2653V50.5102H47.1429V49.3878Z" fill="#FFA800"/>
<path d="M48.2653 49.3878H49.3878V50.5102H48.2653V49.3878Z" fill="#FFA800"/>
<path d="M49.3878 49.3878H50.5102V50.5102H49.3878V49.3878Z" fill="#FFA800"/>
<path d="M50.5102 49.3878H51.6327V50.5102H50.5102V49.3878Z" fill="#FFA800"/>
<path d="M51.6327 49.3878H52.7551V50.5102H51.6327V49.3878Z" fill="#FFA800"/>
<path d="M52.7551 49.3878H53.8776V50.5102H52.7551V49.3878Z" fill="#FFA800"/>
<path d="M47.1429 50.5102H48.2653V51.6327H47.1429V50.5102Z" fill="#FFA800"/>
<path d="M48.2653 50.5102H49.3878V51.6327H48.2653V50.5102Z" fill="#FFA800"/>
<path d="M49.3878 50.5102H50.5102V51.6327H49.3878V50.5102Z" fill="#FFA800"/>
<path d="M50.5102 50.5102H51.6327V51.6327H50.5102V50.5102Z" fill="#FFA800"/>
<path d="M51.6327 50.5102H52.7551V51.6327H51.6327V50.5102Z" fill="#FFA800"/>
<path d="M52.7551 50.5102H53.8776V51.6327H52.7551V50.5102Z" fill="#FFA800"/>
<path d="M53.8776 50.5102H55V51.6327H53.8776V50.5102Z" fill="#FFA800"/>
<path d="M48.2653 51.6327H49.3878V52.7551H48.2653V51.6327Z" fill="#FFA800"/>
<path d="M49.3878 51.6327H50.5102V52.7551H49.3878V51.6327Z" fill="#FFA800"/>
<path d="M50.5102 51.6327H51.6327V52.7551H50.5102V51.6327Z" fill="#FFA800"/>
<path d="M51.6327 51.6327H52.7551V52.7551H51.6327V51.6327Z" fill="#FFA800"/>
<path d="M52.7551 51.6327H53.8776V52.7551H52.7551V51.6327Z" fill="#FFA800"/>
<path d="M49.3878 52.7551H50.5102V53.8776H49.3878V52.7551Z" fill="#FFA800"/>
<path d="M50.5102 52.7551H51.6327V53.8776H50.5102V52.7551Z" fill="#FFA800"/>
<path d="M51.6327 52.7551H52.7551V53.8776H51.6327V52.7551Z" fill="#FFA800"/>
<path d="M50.5102 53.8776H51.6327V55H50.5102V53.8776Z" fill="#FFA800"/>
</svg>
