<svg width="55" height="55" viewBox="0 0 55 55" fill="none" xmlns="http://www.w3.org/2000/svg">
<path d="M23.5714 26.7143H25.1429V28.2857H23.5714V26.7143Z" fill="#E3AC1D"/>
<path d="M22 28.2857H23.5714V29.8571H22V28.2857Z" fill="#E3AC1D"/>
<path d="M23.5714 28.2857H25.1429V29.8571H23.5714V28.2857Z" fill="#E3AC1D"/>
<path d="M9.42857 29.8571H11V31.4286H9.42857V29.8571Z" fill="#E3AC1D"/>
<path d="M20.4286 29.8571H22V31.4286H20.4286V29.8571Z" fill="#E3AC1D"/>
<path d="M34.5714 29.8571H36.1429V31.4286H34.5714V29.8571Z" fill="#E3AC1D"/>
<path d="M6.28571 31.4286H7.85714V33H6.28571V31.4286Z" fill="#E4AE1E"/>
<path d="M7.85714 31.4286H9.42857V33H7.85714V31.4286Z" fill="#E3AC1D"/>
<path d="M9.42857 31.4286H11V33H9.42857V31.4286Z" fill="#E3AC1D"/>
<path d="M11 31.4286H12.5714V33H11V31.4286Z" fill="#E3AC1D"/>
<path d="M12.5714 31.4286H14.1429V33H12.5714V31.4286Z" fill="#E3AC1D"/>
<path d="M14.1429 31.4286H15.7143V33H14.1429V31.4286Z" fill="#E3AC1D"/>
<path d="M15.7143 31.4286H17.2857V33H15.7143V31.4286Z" fill="#E3AC1D"/>
<path d="M17.2857 31.4286H18.8571V33H17.2857V31.4286Z" fill="#E3AC1D"/>
<path d="M18.8571 31.4286H20.4286V33H18.8571V31.4286Z" fill="#E3AC1D"/>
<path d="M33 31.4286H34.5714V33H33V31.4286Z" fill="#E3AC1D"/>
<path d="M34.5714 31.4286H36.1429V33H34.5714V31.4286Z" fill="#E3AC1D"/>
<path d="M4.71429 33H6.28571V34.5714H4.71429V33Z" fill="#E3AC1D"/>
<path d="M6.28571 33H7.85714V34.5714H6.28571V33Z" fill="#E3AC1D"/>
<path d="M7.85714 33H9.42857V34.5714H7.85714V33Z" fill="#E3AC1D"/>
<path d="M9.42857 33H11V34.5714H9.42857V33Z" fill="#E3AC1D"/>
<path d="M11 33H12.5714V34.5714H11V33Z" fill="#E3AC1D"/>
<path d="M12.5714 33H14.1429V34.5714H12.5714V33Z" fill="#E3AC1D"/>
<path d="M14.1429 33H15.7143V34.5714H14.1429V33Z" fill="#E3AC1D"/>
<path d="M15.7143 33H17.2857V34.5714H15.7143V33Z" fill="#E3AC1D"/>
<path d="M17.2857 33H18.8571V34.5714H17.2857V33Z" fill="#E3AC1D"/>
<path d="M18.8571 33H20.4286V34.5714H18.8571V33Z" fill="#DFAF10"/>
<path d="M20.4286 33H22V34.5714H20.4286V33Z" fill="#E3AC1D"/>
<path d="M31.4286 33H33V34.5714H31.4286V33Z" fill="#E3AC1D"/>
<path d="M33 33H34.5714V34.5714H33V33Z" fill="#E3AC1D"/>
<path d="M34.5714 33H36.1429V34.5714H34.5714V33Z" fill="#E3AC1D"/>
<path d="M3.14286 34.5714H4.71429V36.1429H3.14286V34.5714Z" fill="#E3AC1D"/>
<path d="M4.71429 34.5714H6.28571V36.1429H4.71429V34.5714Z" fill="#E3AC1D"/>
<path d="M6.28571 34.5714H7.85714V36.1429H6.28571V34.5714Z" fill="#E3AC1D"/>
<path d="M7.85714 34.5714H9.42857V36.1429H7.85714V34.5714Z" fill="#E3AC1D"/>
<path d="M9.42857 34.5714H11V36.1429H9.42857V34.5714Z" fill="#E3AC1D"/>
<path d="M11 34.5714H12.5714V36.1429H11V34.5714Z" fill="#E3AC1D"/>
<path d="M12.5714 34.5714H14.1429V36.1429H12.5714V34.5714Z" fill="#E3AC1D"/>
<path d="M14.1429 34.5714H15.7143V36.1429H14.1429V34.5714Z" fill="#E3AC1D"/>
<path d="M15.7143 34.5714H17.2857V36.1429H15.7143V34.5714Z" fill="#E3AC1D"/>
<path d="M17.2857 34.5714H18.8571V36.1429H17.2857V34.5714Z" fill="#E3AC1D"/>
<path d="M18.8571 34.5714H20.4286V36.1429H18.8571V34.5714Z" fill="#E3AC1D"/>
<path d="M20.4286 34.5714H22V36.1429H20.4286V34.5714Z" fill="#E3AC1D"/>
<path d="M28.2857 34.5714H29.8571V36.1429H28.2857V34.5714Z" fill="#E3AC1D"/>
<path d="M29.8571 34.5714H31.4286V36.1429H29.8571V34.5714Z" fill="#E3AC1D"/>
<path d="M31.4286 34.5714H33V36.1429H31.4286V34.5714Z" fill="#E3AC1D"/>
<path d="M33 34.5714H34.5714V36.1429H33V34.5714Z" fill="#E3AC1D"/>
<path d="M1.57143 36.1429H3.14286V37.7143H1.57143V36.1429Z" fill="#E3AC1D"/>
<path d="M3.14286 36.1429H4.71429V37.7143H3.14286V36.1429Z" fill="#E3AC1D"/>
<path d="M4.71429 36.1429H6.28571V37.7143H4.71429V36.1429Z" fill="#E3AC1D"/>
<path d="M6.28571 36.1429H7.85714V37.7143H6.28571V36.1429Z" fill="#E3AC1D"/>
<path d="M7.85714 36.1429H9.42857V37.7143H7.85714V36.1429Z" fill="#E3AC1D"/>
<path d="M9.42857 36.1429H11V37.7143H9.42857V36.1429Z" fill="#E3AC1D"/>
<path d="M11 36.1429H12.5714V37.7143H11V36.1429Z" fill="#E3AC1D"/>
<path d="M12.5714 36.1429H14.1429V37.7143H12.5714V36.1429Z" fill="#E3AC1D"/>
<path d="M15.7143 36.1429H17.2857V37.7143H15.7143V36.1429Z" fill="#E3AC1D"/>
<path d="M17.2857 36.1429H18.8571V37.7143H17.2857V36.1429Z" fill="#E3AC1D"/>
<path d="M18.8571 36.1429H20.4286V37.7143H18.8571V36.1429Z" fill="#E3AC1D"/>
<path d="M20.4286 36.1429H22V37.7143H20.4286V36.1429Z" fill="#E3AC1D"/>
<path d="M22 36.1429H23.5714V37.7143H22V36.1429Z" fill="#E3AC1D"/>
<path d="M23.5714 36.1429H25.1429V37.7143H23.5714V36.1429Z" fill="#E3AC1D"/>
<path d="M25.1429 36.1429H26.7143V37.7143H25.1429V36.1429Z" fill="#E3AC1D"/>
<path d="M26.7143 36.1429H28.2857V37.7143H26.7143V36.1429Z" fill="#E3AC1D"/>
<path d="M28.2857 36.1429H29.8571V37.7143H28.2857V36.1429Z" fill="#E3AC1D"/>
<path d="M29.8571 36.1429H31.4286V37.7143H29.8571V36.1429Z" fill="#E3AC1D"/>
<path d="M31.4286 36.1429H33V37.7143H31.4286V36.1429Z" fill="#E3AC1D"/>
<path d="M0 37.7143H1.57143V39.2857H0V37.7143Z" fill="#E3AC1D"/>
<path d="M1.57143 37.7143H3.14286V39.2857H1.57143V37.7143Z" fill="#E3AC1D"/>
<path d="M3.14286 37.7143H4.71429V39.2857H3.14286V37.7143Z" fill="#E3AC1D"/>
<path d="M4.71429 37.7143H6.28571V39.2857H4.71429V37.7143Z" fill="#E3AC1D"/>
<path d="M6.28571 37.7143H7.85714V39.2857H6.28571V37.7143Z" fill="#E3AC1D"/>
<path d="M7.85714 37.7143H9.42857V39.2857H7.85714V37.7143Z" fill="#E3AC1D"/>
<path d="M9.42857 37.7143H11V39.2857H9.42857V37.7143Z" fill="#E3AC1D"/>
<path d="M11 37.7143H12.5714V39.2857H11V37.7143Z" fill="#E3AC1D"/>
<path d="M14.1429 37.7143H15.7143V39.2857H14.1429V37.7143Z" fill="#E3AC1D"/>
<path d="M15.7143 37.7143H17.2857V39.2857H15.7143V37.7143Z" fill="#E3AC1D"/>
<path d="M17.2857 37.7143H18.8571V39.2857H17.2857V37.7143Z" fill="#E3AC1D"/>
<path d="M18.8571 37.7143H20.4286V39.2857H18.8571V37.7143Z" fill="#E3AC1D"/>
<path d="M20.4286 37.7143H22V39.2857H20.4286V37.7143Z" fill="#E3AC1D"/>
<path d="M22 37.7143H23.5714V39.2857H22V37.7143Z" fill="#E3AC1D"/>
<path d="M23.5714 37.7143H25.1429V39.2857H23.5714V37.7143Z" fill="#E3AC1D"/>
<path d="M25.1429 37.7143H26.7143V39.2857H25.1429V37.7143Z" fill="#E3AC1D"/>
<path d="M26.7143 37.7143H28.2857V39.2857H26.7143V37.7143Z" fill="#E3AC1D"/>
<path d="M28.2857 37.7143H29.8571V39.2857H28.2857V37.7143Z" fill="#E3AC1D"/>
<path d="M29.8571 37.7143H31.4286V39.2857H29.8571V37.7143Z" fill="#E3AC1D"/>
<path d="M0 39.2857H1.57143V40.8571H0V39.2857Z" fill="#E3AC1D"/>
<path d="M1.57143 39.2857H3.14286V40.8571H1.57143V39.2857Z" fill="#E3AC1D"/>
<path d="M3.14286 39.2857H4.71429V40.8571H3.14286V39.2857Z" fill="#E3AC1D"/>
<path d="M4.71429 39.2857H6.28571V40.8571H4.71429V39.2857Z" fill="#E3AC1D"/>
<path d="M6.28571 39.2857H7.85714V40.8571H6.28571V39.2857Z" fill="#E3AC1D"/>
<path d="M7.85714 39.2857H9.42857V40.8571H7.85714V39.2857Z" fill="#E3AC1D"/>
<path d="M9.42857 39.2857H11V40.8571H9.42857V39.2857Z" fill="#E3AC1D"/>
<path d="M11 39.2857H12.5714V40.8571H11V39.2857Z" fill="#E4AD1D"/>
<path d="M12.5714 39.2857H14.1429V40.8571H12.5714V39.2857Z" fill="#E3AC1D"/>
<path d="M14.1429 39.2857H15.7143V40.8571H14.1429V39.2857Z" fill="#E3AC1D"/>
<path d="M15.7143 39.2857H17.2857V40.8571H15.7143V39.2857Z" fill="#E3AC1D"/>
<path d="M17.2857 39.2857H18.8571V40.8571H17.2857V39.2857Z" fill="#E3AC1D"/>
<path d="M18.8571 39.2857H20.4286V40.8571H18.8571V39.2857Z" fill="#E3AC1D"/>
<path d="M20.4286 39.2857H22V40.8571H20.4286V39.2857Z" fill="#E3AC1D"/>
<path d="M22 39.2857H23.5714V40.8571H22V39.2857Z" fill="#E3AC1D"/>
<path d="M23.5714 39.2857H25.1429V40.8571H23.5714V39.2857Z" fill="#E3AC1D"/>
<path d="M25.1429 39.2857H26.7143V40.8571H25.1429V39.2857Z" fill="#E3AC1D"/>
<path d="M26.7143 39.2857H28.2857V40.8571H26.7143V39.2857Z" fill="#E3AC1D"/>
<path d="M28.2857 39.2857H29.8571V40.8571H28.2857V39.2857Z" fill="#E3AC1D"/>
<path d="M0 40.8571H1.57143V42.4286H0V40.8571Z" fill="#E3AC1D"/>
<path d="M1.57143 40.8571H3.14286V42.4286H1.57143V40.8571Z" fill="#E3AC1D"/>
<path d="M3.14286 40.8571H4.71429V42.4286H3.14286V40.8571Z" fill="#E3AC1D"/>
<path d="M4.71429 40.8571H6.28571V42.4286H4.71429V40.8571Z" fill="#E3AC1D"/>
<path d="M6.28571 40.8571H7.85714V42.4286H6.28571V40.8571Z" fill="#E3AC1D"/>
<path d="M7.85714 40.8571H9.42857V42.4286H7.85714V40.8571Z" fill="#E4AB1B"/>
<path d="M9.42857 40.8571H11V42.4286H9.42857V40.8571Z" fill="#E3AC1D"/>
<path d="M11 40.8571H12.5714V42.4286H11V40.8571Z" fill="#E3AC1D"/>
<path d="M12.5714 40.8571H14.1429V42.4286H12.5714V40.8571Z" fill="#E3AC1D"/>
<path d="M14.1429 40.8571H15.7143V42.4286H14.1429V40.8571Z" fill="#E3AC1D"/>
<path d="M15.7143 40.8571H17.2857V42.4286H15.7143V40.8571Z" fill="#E3AC1D"/>
<path d="M17.2857 40.8571H18.8571V42.4286H17.2857V40.8571Z" fill="#E3AC1D"/>
<path d="M18.8571 40.8571H20.4286V42.4286H18.8571V40.8571Z" fill="#E3AC1D"/>
<path d="M20.4286 40.8571H22V42.4286H20.4286V40.8571Z" fill="#E3AC1D"/>
<path d="M22 40.8571H23.5714V42.4286H22V40.8571Z" fill="#E3AC1D"/>
<path d="M23.5714 40.8571H25.1429V42.4286H23.5714V40.8571Z" fill="#E3AC1D"/>
<path d="M25.1429 40.8571H26.7143V42.4286H25.1429V40.8571Z" fill="#E3AC1D"/>
<path d="M26.7143 40.8571H28.2857V42.4286H26.7143V40.8571Z" fill="#E3AC1D"/>
<path d="M39.2857 40.8571H40.8571V42.4286H39.2857V40.8571Z" fill="#E3AC1D"/>
<path d="M0 42.4286H1.57143V44H0V42.4286Z" fill="#E3AC1D"/>
<path d="M1.57143 42.4286H3.14286V44H1.57143V42.4286Z" fill="#E3AC1D"/>
<path d="M3.14286 42.4286H4.71429V44H3.14286V42.4286Z" fill="#E3AC1D"/>
<path d="M4.71429 42.4286H6.28571V44H4.71429V42.4286Z" fill="#E3AC1D"/>
<path d="M7.85714 42.4286H9.42857V44H7.85714V42.4286Z" fill="#E3AC1D"/>
<path d="M9.42857 42.4286H11V44H9.42857V42.4286Z" fill="#E3AC1D"/>
<path d="M11 42.4286H12.5714V44H11V42.4286Z" fill="#E3AC1D"/>
<path d="M12.5714 42.4286H14.1429V44H12.5714V42.4286Z" fill="#E3AC1D"/>
<path d="M14.1429 42.4286H15.7143V44H14.1429V42.4286Z" fill="#E3AC1D"/>
<path d="M15.7143 42.4286H17.2857V44H15.7143V42.4286Z" fill="#E3AC1D"/>
<path d="M17.2857 42.4286H18.8571V44H17.2857V42.4286Z" fill="#E3AC1D"/>
<path d="M18.8571 42.4286H20.4286V44H18.8571V42.4286Z" fill="#E3AC1D"/>
<path d="M20.4286 42.4286H22V44H20.4286V42.4286Z" fill="#E3AC1D"/>
<path d="M22 42.4286H23.5714V44H22V42.4286Z" fill="#E3AC1D"/>
<path d="M23.5714 42.4286H25.1429V44H23.5714V42.4286Z" fill="#E3AC1D"/>
<path d="M37.7143 42.4286H39.2857V44H37.7143V42.4286Z" fill="#E3AC1D"/>
<path d="M39.2857 42.4286H40.8571V44H39.2857V42.4286Z" fill="#E3AC1D"/>
<path d="M0 44H1.57143V45.5714H0V44Z" fill="#E3AC1D"/>
<path d="M1.57143 44H3.14286V45.5714H1.57143V44Z" fill="#E3AC1D"/>
<path d="M3.14286 44H4.71429V45.5714H3.14286V44Z" fill="#E3AC1D"/>
<path d="M6.28571 44H7.85714V45.5714H6.28571V44Z" fill="#E3AC1D"/>
<path d="M7.85714 44H9.42857V45.5714H7.85714V44Z" fill="#E3AC1D"/>
<path d="M9.42857 44H11V45.5714H9.42857V44Z" fill="#E3AC1D"/>
<path d="M11 44H12.5714V45.5714H11V44Z" fill="#E3AC1D"/>
<path d="M12.5714 44H14.1429V45.5714H12.5714V44Z" fill="#E3AC1D"/>
<path d="M14.1429 44H15.7143V45.5714H14.1429V44Z" fill="#E3AC1D"/>
<path d="M15.7143 44H17.2857V45.5714H15.7143V44Z" fill="#E3AC1D"/>
<path d="M17.2857 44H18.8571V45.5714H17.2857V44Z" fill="#E3AC1D"/>
<path d="M18.8571 44H20.4286V45.5714H18.8571V44Z" fill="#E3AC1D"/>
<path d="M20.4286 44H22V45.5714H20.4286V44Z" fill="#E3AC1D"/>
<path d="M22 44H23.5714V45.5714H22V44Z" fill="#E3AC1D"/>
<path d="M25.1429 44H26.7143V45.5714H25.1429V44Z" fill="#E3AC1D"/>
<path d="M36.1429 44H37.7143V45.5714H36.1429V44Z" fill="#E3AC1D"/>
<path d="M37.7143 44H39.2857V45.5714H37.7143V44Z" fill="#E3AC1D"/>
<path d="M39.2857 44H40.8571V45.5714H39.2857V44Z" fill="#E3AC1D"/>
<path d="M0 45.5714H1.57143V47.1429H0V45.5714Z" fill="#E3AC1D"/>
<path d="M1.57143 45.5714H3.14286V47.1429H1.57143V45.5714Z" fill="#E3AC1D"/>
<path d="M3.14286 45.5714H4.71429V47.1429H3.14286V45.5714Z" fill="#E3AC1D"/>
<path d="M4.71429 45.5714H6.28571V47.1429H4.71429V45.5714Z" fill="#E3AC1D"/>
<path d="M6.28571 45.5714H7.85714V47.1429H6.28571V45.5714Z" fill="#E3AC1D"/>
<path d="M7.85714 45.5714H9.42857V47.1429H7.85714V45.5714Z" fill="#E3AC1D"/>
<path d="M9.42857 45.5714H11V47.1429H9.42857V45.5714Z" fill="#E3AC1D"/>
<path d="M11 45.5714H12.5714V47.1429H11V45.5714Z" fill="#E3AC1D"/>
<path d="M12.5714 45.5714H14.1429V47.1429H12.5714V45.5714Z" fill="#E3AC1D"/>
<path d="M14.1429 45.5714H15.7143V47.1429H14.1429V45.5714Z" fill="#E3AC1D"/>
<path d="M15.7143 45.5714H17.2857V47.1429H15.7143V45.5714Z" fill="#E3AC1D"/>
<path d="M17.2857 45.5714H18.8571V47.1429H17.2857V45.5714Z" fill="#E3AC1D"/>
<path d="M18.8571 45.5714H20.4286V47.1429H18.8571V45.5714Z" fill="#E3AC1D"/>
<path d="M20.4286 45.5714H22V47.1429H20.4286V45.5714Z" fill="#E3AC1D"/>
<path d="M22 45.5714H23.5714V47.1429H22V45.5714Z" fill="#E3AC1D"/>
<path d="M23.5714 45.5714H25.1429V47.1429H23.5714V45.5714Z" fill="#E3AC1D"/>
<path d="M25.1429 45.5714H26.7143V47.1429H25.1429V45.5714Z" fill="#E3AC1D"/>
<path d="M26.7143 45.5714H28.2857V47.1429H26.7143V45.5714Z" fill="#E3AC1D"/>
<path d="M28.2857 45.5714H29.8571V47.1429H28.2857V45.5714Z" fill="#E3AC1D"/>
<path d="M29.8571 45.5714H31.4286V47.1429H29.8571V45.5714Z" fill="#E3AC1D"/>
<path d="M31.4286 45.5714H33V47.1429H31.4286V45.5714Z" fill="#E3AC1D"/>
<path d="M33 45.5714H34.5714V47.1429H33V45.5714Z" fill="#E3AC1D"/>
<path d="M34.5714 45.5714H36.1429V47.1429H34.5714V45.5714Z" fill="#E3AC1D"/>
<path d="M36.1429 45.5714H37.7143V47.1429H36.1429V45.5714Z" fill="#E3AC1D"/>
<path d="M37.7143 45.5714H39.2857V47.1429H37.7143V45.5714Z" fill="#E3AC1D"/>
<path d="M39.2857 45.5714H40.8571V47.1429H39.2857V45.5714Z" fill="#E4AD1D"/>
<path d="M1.57143 47.1429H3.14286V48.7143H1.57143V47.1429Z" fill="#E3AC1D"/>
<path d="M3.14286 47.1429H4.71429V48.7143H3.14286V47.1429Z" fill="#E3AC1D"/>
<path d="M4.71429 47.1429H6.28571V48.7143H4.71429V47.1429Z" fill="#E3AC1D"/>
<path d="M6.28571 47.1429H7.85714V48.7143H6.28571V47.1429Z" fill="#E3AC1D"/>
<path d="M7.85714 47.1429H9.42857V48.7143H7.85714V47.1429Z" fill="#E3AC1D"/>
<path d="M9.42857 47.1429H11V48.7143H9.42857V47.1429Z" fill="#E3AC1D"/>
<path d="M11 47.1429H12.5714V48.7143H11V47.1429Z" fill="#E3AC1D"/>
<path d="M12.5714 47.1429H14.1429V48.7143H12.5714V47.1429Z" fill="#E3AC1D"/>
<path d="M14.1429 47.1429H15.7143V48.7143H14.1429V47.1429Z" fill="#E3AC1D"/>
<path d="M15.7143 47.1429H17.2857V48.7143H15.7143V47.1429Z" fill="#E3AC1D"/>
<path d="M17.2857 47.1429H18.8571V48.7143H17.2857V47.1429Z" fill="#E3AC1D"/>
<path d="M18.8571 47.1429H20.4286V48.7143H18.8571V47.1429Z" fill="#E4AB1B"/>
<path d="M20.4286 47.1429H22V48.7143H20.4286V47.1429Z" fill="#E3AC1D"/>
<path d="M22 47.1429H23.5714V48.7143H22V47.1429Z" fill="#E3AC1D"/>
<path d="M23.5714 47.1429H25.1429V48.7143H23.5714V47.1429Z" fill="#E3AC1D"/>
<path d="M25.1429 47.1429H26.7143V48.7143H25.1429V47.1429Z" fill="#E3AC1D"/>
<path d="M26.7143 47.1429H28.2857V48.7143H26.7143V47.1429Z" fill="#E3AC1D"/>
<path d="M28.2857 47.1429H29.8571V48.7143H28.2857V47.1429Z" fill="#E3AC1D"/>
<path d="M29.8571 47.1429H31.4286V48.7143H29.8571V47.1429Z" fill="#E3AC1D"/>
<path d="M31.4286 47.1429H33V48.7143H31.4286V47.1429Z" fill="#E3AC1D"/>
<path d="M33 47.1429H34.5714V48.7143H33V47.1429Z" fill="#E3AC1D"/>
<path d="M34.5714 47.1429H36.1429V48.7143H34.5714V47.1429Z" fill="#E3AC1D"/>
<path d="M36.1429 47.1429H37.7143V48.7143H36.1429V47.1429Z" fill="#E3AC1D"/>
<path d="M37.7143 47.1429H39.2857V48.7143H37.7143V47.1429Z" fill="#E3AC1D"/>
<path d="M0 48.7143H1.57143V50.2857H0V48.7143Z" fill="#E3AC1D"/>
<path d="M1.57143 48.7143H3.14286V50.2857H1.57143V48.7143Z" fill="#E3AC1D"/>
<path d="M3.14286 48.7143H4.71429V50.2857H3.14286V48.7143Z" fill="#E3AC1D"/>
<path d="M4.71429 48.7143H6.28571V50.2857H4.71429V48.7143Z" fill="#E3AC1D"/>
<path d="M6.28571 48.7143H7.85714V50.2857H6.28571V48.7143Z" fill="#E3AC1D"/>
<path d="M7.85714 48.7143H9.42857V50.2857H7.85714V48.7143Z" fill="#E3AC1D"/>
<path d="M9.42857 48.7143H11V50.2857H9.42857V48.7143Z" fill="#E3AC1D"/>
<path d="M11 48.7143H12.5714V50.2857H11V48.7143Z" fill="#E3AC1D"/>
<path d="M12.5714 48.7143H14.1429V50.2857H12.5714V48.7143Z" fill="#E3AC1D"/>
<path d="M14.1429 48.7143H15.7143V50.2857H14.1429V48.7143Z" fill="#E3AC1D"/>
<path d="M15.7143 48.7143H17.2857V50.2857H15.7143V48.7143Z" fill="#E3AC1D"/>
<path d="M18.8571 48.7143H20.4286V50.2857H18.8571V48.7143Z" fill="#E3AC1D"/>
<path d="M20.4286 48.7143H22V50.2857H20.4286V48.7143Z" fill="#E3AC1D"/>
<path d="M22 48.7143H23.5714V50.2857H22V48.7143Z" fill="#E3AC1D"/>
<path d="M23.5714 48.7143H25.1429V50.2857H23.5714V48.7143Z" fill="#E3AC1D"/>
<path d="M25.1429 48.7143H26.7143V50.2857H25.1429V48.7143Z" fill="#E3AC1D"/>
<path d="M26.7143 48.7143H28.2857V50.2857H26.7143V48.7143Z" fill="#E3AC1D"/>
<path d="M28.2857 48.7143H29.8571V50.2857H28.2857V48.7143Z" fill="#E3AC1D"/>
<path d="M29.8571 48.7143H31.4286V50.2857H29.8571V48.7143Z" fill="#E3AC1D"/>
<path d="M31.4286 48.7143H33V50.2857H31.4286V48.7143Z" fill="#E3AC1D"/>
<path d="M33 48.7143H34.5714V50.2857H33V48.7143Z" fill="#E3AC1D"/>
<path d="M34.5714 48.7143H36.1429V50.2857H34.5714V48.7143Z" fill="#E3AC1D"/>
<path d="M36.1429 48.7143H37.7143V50.2857H36.1429V48.7143Z" fill="#E3AC1D"/>
<path d="M0 50.2857H1.57143V51.8571H0V50.2857Z" fill="#E3AC1D"/>
<path d="M1.57143 50.2857H3.14286V51.8571H1.57143V50.2857Z" fill="#E3AC1D"/>
<path d="M3.14286 50.2857H4.71429V51.8571H3.14286V50.2857Z" fill="#E3AC1D"/>
<path d="M4.71429 50.2857H6.28571V51.8571H4.71429V50.2857Z" fill="#E3AC1D"/>
<path d="M6.28571 50.2857H7.85714V51.8571H6.28571V50.2857Z" fill="#E3AC1D"/>
<path d="M7.85714 50.2857H9.42857V51.8571H7.85714V50.2857Z" fill="#E3AC1D"/>
<path d="M9.42857 50.2857H11V51.8571H9.42857V50.2857Z" fill="#E3AC1D"/>
<path d="M11 50.2857H12.5714V51.8571H11V50.2857Z" fill="#E3AC1D"/>
<path d="M12.5714 50.2857H14.1429V51.8571H12.5714V50.2857Z" fill="#E3AC1D"/>
<path d="M14.1429 50.2857H15.7143V51.8571H14.1429V50.2857Z" fill="#E3AC1D"/>
<path d="M15.7143 50.2857H17.2857V51.8571H15.7143V50.2857Z" fill="#DFAF10"/>
<path d="M17.2857 50.2857H18.8571V51.8571H17.2857V50.2857Z" fill="#E3AC1D"/>
<path d="M18.8571 50.2857H20.4286V51.8571H18.8571V50.2857Z" fill="#E3AC1D"/>
<path d="M20.4286 50.2857H22V51.8571H20.4286V50.2857Z" fill="#E3AC1D"/>
<path d="M22 50.2857H23.5714V51.8571H22V50.2857Z" fill="#E3AC1D"/>
<path d="M23.5714 50.2857H25.1429V51.8571H23.5714V50.2857Z" fill="#E3AC1D"/>
<path d="M25.1429 50.2857H26.7143V51.8571H25.1429V50.2857Z" fill="#E3AC1D"/>
<path d="M26.7143 50.2857H28.2857V51.8571H26.7143V50.2857Z" fill="#E3AC1D"/>
<path d="M28.2857 50.2857H29.8571V51.8571H28.2857V50.2857Z" fill="#E3AC1D"/>
<path d="M29.8571 50.2857H31.4286V51.8571H29.8571V50.2857Z" fill="#E3AC1D"/>
<path d="M31.4286 50.2857H33V51.8571H31.4286V50.2857Z" fill="#E3AC1D"/>
<path d="M33 50.2857H34.5714V51.8571H33V50.2857Z" fill="#E3AC1D"/>
<path d="M34.5714 50.2857H36.1429V51.8571H34.5714V50.2857Z" fill="#E3AC1D"/>
<path d="M36.1429 50.2857H37.7143V51.8571H36.1429V50.2857Z" fill="#E3AC1D"/>
<path d="M0 51.8571H1.57143V53.4286H0V51.8571Z" fill="#E3AC1D"/>
<path d="M1.57143 51.8571H3.14286V53.4286H1.57143V51.8571Z" fill="#E3AC1D"/>
<path d="M3.14286 51.8571H4.71429V53.4286H3.14286V51.8571Z" fill="#E3AC1D"/>
<path d="M4.71429 51.8571H6.28571V53.4286H4.71429V51.8571Z" fill="#E3AC1D"/>
<path d="M6.28571 51.8571H7.85714V53.4286H6.28571V51.8571Z" fill="#E3AC1D"/>
<path d="M7.85714 51.8571H9.42857V53.4286H7.85714V51.8571Z" fill="#E3AC1D"/>
<path d="M9.42857 51.8571H11V53.4286H9.42857V51.8571Z" fill="#E3AC1D"/>
<path d="M11 51.8571H12.5714V53.4286H11V51.8571Z" fill="#E3AC1D"/>
<path d="M12.5714 51.8571H14.1429V53.4286H12.5714V51.8571Z" fill="#E3AC1D"/>
<path d="M14.1429 51.8571H15.7143V53.4286H14.1429V51.8571Z" fill="#E3AC1D"/>
<path d="M15.7143 51.8571H17.2857V53.4286H15.7143V51.8571Z" fill="#E3AC1D"/>
<path d="M17.2857 51.8571H18.8571V53.4286H17.2857V51.8571Z" fill="#E3AC1D"/>
<path d="M18.8571 51.8571H20.4286V53.4286H18.8571V51.8571Z" fill="#E3AC1D"/>
<path d="M20.4286 51.8571H22V53.4286H20.4286V51.8571Z" fill="#E3AC1D"/>
<path d="M22 51.8571H23.5714V53.4286H22V51.8571Z" fill="#E3AC1D"/>
<path d="M23.5714 51.8571H25.1429V53.4286H23.5714V51.8571Z" fill="#E3AC1D"/>
<path d="M25.1429 51.8571H26.7143V53.4286H25.1429V51.8571Z" fill="#E3AC1D"/>
<path d="M26.7143 51.8571H28.2857V53.4286H26.7143V51.8571Z" fill="#E3AC1D"/>
<path d="M28.2857 51.8571H29.8571V53.4286H28.2857V51.8571Z" fill="#E3AC1D"/>
<path d="M29.8571 51.8571H31.4286V53.4286H29.8571V51.8571Z" fill="#E3AC1D"/>
<path d="M31.4286 51.8571H33V53.4286H31.4286V51.8571Z" fill="#E3AC1D"/>
<path d="M33 51.8571H34.5714V53.4286H33V51.8571Z" fill="#E3AC1D"/>
<path d="M34.5714 51.8571H36.1429V53.4286H34.5714V51.8571Z" fill="#E3AC1D"/>
<path d="M0 53.4286H1.57143V55H0V53.4286Z" fill="#E3AC1D"/>
<path d="M1.57143 53.4286H3.14286V55H1.57143V53.4286Z" fill="#E3AC1D"/>
<path d="M3.14286 53.4286H4.71429V55H3.14286V53.4286Z" fill="#E3AC1D"/>
<path d="M4.71429 53.4286H6.28571V55H4.71429V53.4286Z" fill="#E3AC1D"/>
<path d="M6.28571 53.4286H7.85714V55H6.28571V53.4286Z" fill="#E3AC1D"/>
<path d="M7.85714 53.4286H9.42857V55H7.85714V53.4286Z" fill="#E3AC1D"/>
<path d="M9.42857 53.4286H11V55H9.42857V53.4286Z" fill="#E3AC1D"/>
<path d="M12.5714 53.4286H14.1429V55H12.5714V53.4286Z" fill="#E3AC1D"/>
<path d="M14.1429 53.4286H15.7143V55H14.1429V53.4286Z" fill="#E3AC1D"/>
<path d="M15.7143 53.4286H17.2857V55H15.7143V53.4286Z" fill="#E3AC1D"/>
<path d="M17.2857 53.4286H18.8571V55H17.2857V53.4286Z" fill="#E3AC1D"/>
<path d="M18.8571 53.4286H20.4286V55H18.8571V53.4286Z" fill="#E3AC1D"/>
<path d="M20.4286 53.4286H22V55H20.4286V53.4286Z" fill="#E3AC1D"/>
<path d="M22 53.4286H23.5714V55H22V53.4286Z" fill="#E3AC1D"/>
<path d="M23.5714 53.4286H25.1429V55H23.5714V53.4286Z" fill="#E3AC1D"/>
<path d="M25.1429 53.4286H26.7143V55H25.1429V53.4286Z" fill="#E3AC1D"/>
<path d="M26.7143 53.4286H28.2857V55H26.7143V53.4286Z" fill="#E3AC1D"/>
<path d="M28.2857 53.4286H29.8571V55H28.2857V53.4286Z" fill="#E3AC1D"/>
<path d="M29.8571 53.4286H31.4286V55H29.8571V53.4286Z" fill="#E3AC1D"/>
<path d="M31.4286 53.4286H33V55H31.4286V53.4286Z" fill="#E3AC1D"/>
<path d="M33 53.4286H34.5714V55H33V53.4286Z" fill="#E3AC1D"/>
<path d="M45.5714 0H47.1429V1.57143H45.5714V0Z" fill="#E31D88"/>
<path d="M47.1429 0H48.7143V1.57143H47.1429V0Z" fill="#E31D88"/>
<path d="M48.7143 0H50.2857V1.57143H48.7143V0Z" fill="#E31D88"/>
<path d="M50.2857 0H51.8571V1.57143H50.2857V0Z" fill="#E31D88"/>
<path d="M51.8571 0H53.4286V1.57143H51.8571V0Z" fill="#E31D88"/>
<path d="M53.4286 0H55V1.57143H53.4286V0Z" fill="#E31D88"/>
<path d="M44 1.57143H45.5714V3.14286H44V1.57143Z" fill="#E31D88"/>
<path d="M45.5714 1.57143H47.1429V3.14286H45.5714V1.57143Z" fill="#E31D88"/>
<path d="M47.1429 1.57143H48.7143V3.14286H47.1429V1.57143Z" fill="#E31D88"/>
<path d="M48.7143 1.57143H50.2857V3.14286H48.7143V1.57143Z" fill="#E31D88"/>
<path d="M50.2857 1.57143H51.8571V3.14286H50.2857V1.57143Z" fill="#E31D88"/>
<path d="M51.8571 1.57143H53.4286V3.14286H51.8571V1.57143Z" fill="#E31D88"/>
<path d="M53.4286 1.57143H55V3.14286H53.4286V1.57143Z" fill="#E31D88"/>
<path d="M44 3.14286H45.5714V4.71429H44V3.14286Z" fill="#E31D88"/>
<path d="M45.5714 3.14286H47.1429V4.71429H45.5714V3.14286Z" fill="#E31D88"/>
<path d="M47.1429 3.14286H48.7143V4.71429H47.1429V3.14286Z" fill="#E31D88"/>
<path d="M48.7143 3.14286H50.2857V4.71429H48.7143V3.14286Z" fill="#E31D88"/>
<path d="M50.2857 3.14286H51.8571V4.71429H50.2857V3.14286Z" fill="#E31D88"/>
<path d="M51.8571 3.14286H53.4286V4.71429H51.8571V3.14286Z" fill="#E31D88"/>
<path d="M53.4286 3.14286H55V4.71429H53.4286V3.14286Z" fill="#E31D88"/>
<path d="M44 4.71429H45.5714V6.28571H44V4.71429Z" fill="#E31D88"/>
<path d="M45.5714 4.71429H47.1429V6.28571H45.5714V4.71429Z" fill="#E31D88"/>
<path d="M47.1429 4.71429H48.7143V6.28571H47.1429V4.71429Z" fill="#E31D88"/>
<path d="M48.7143 4.71429H50.2857V6.28571H48.7143V4.71429Z" fill="#E31D88"/>
<path d="M50.2857 4.71429H51.8571V6.28571H50.2857V4.71429Z" fill="#E31D88"/>
<path d="M51.8571 4.71429H53.4286V6.28571H51.8571V4.71429Z" fill="#E31D88"/>
<path d="M53.4286 4.71429H55V6.28571H53.4286V4.71429Z" fill="#E31D88"/>
<path d="M44 6.28571H45.5714V7.85714H44V6.28571Z" fill="#E31D88"/>
<path d="M45.5714 6.28571H47.1429V7.85714H45.5714V6.28571Z" fill="#E31D88"/>
<path d="M47.1429 6.28571H48.7143V7.85714H47.1429V6.28571Z" fill="#E31D88"/>
<path d="M48.7143 6.28571H50.2857V7.85714H48.7143V6.28571Z" fill="#E31D88"/>
<path d="M50.2857 6.28571H51.8571V7.85714H50.2857V6.28571Z" fill="#E31D88"/>
<path d="M51.8571 6.28571H53.4286V7.85714H51.8571V6.28571Z" fill="#E31D88"/>
<path d="M53.4286 6.28571H55V7.85714H53.4286V6.28571Z" fill="#E31D88"/>
<path d="M45.5714 7.85714H47.1429V9.42857H45.5714V7.85714Z" fill="#E31D88"/>
<path d="M47.1429 7.85714H48.7143V9.42857H47.1429V7.85714Z" fill="#E31D88"/>
<path d="M48.7143 7.85714H50.2857V9.42857H48.7143V7.85714Z" fill="#E31D88"/>
<path d="M50.2857 7.85714H51.8571V9.42857H50.2857V7.85714Z" fill="#E31D88"/>
<path d="M51.8571 7.85714H53.4286V9.42857H51.8571V7.85714Z" fill="#E31D88"/>
<path d="M53.4286 7.85714H55V9.42857H53.4286V7.85714Z" fill="#E31D88"/>
<path d="M47.1429 9.42857H48.7143V11H47.1429V9.42857Z" fill="#E31D88"/>
<path d="M48.7143 9.42857H50.2857V11H48.7143V9.42857Z" fill="#E31D88"/>
<path d="M50.2857 9.42857H51.8571V11H50.2857V9.42857Z" fill="#E31D88"/>
<path d="M51.8571 9.42857H53.4286V11H51.8571V9.42857Z" fill="#E31D88"/>
<path d="M53.4286 9.42857H55V11H53.4286V9.42857Z" fill="#E31D88"/>
<path d="M47.1429 11H48.7143V12.5714H47.1429V11Z" fill="#E31D88"/>
<path d="M48.7143 11H50.2857V12.5714H48.7143V11Z" fill="#E31D88"/>
<path d="M47.1429 12.5714H48.7143V14.1429H47.1429V12.5714Z" fill="#E31D88"/>
<path d="M48.7143 12.5714H50.2857V14.1429H48.7143V12.5714Z" fill="#E31D88"/>
<path d="M47.1429 14.1429H48.7143V15.7143H47.1429V14.1429Z" fill="#E31D88"/>
<path d="M45.5714 15.7143H47.1429V17.2857H45.5714V15.7143Z" fill="#E31D88"/>
<path d="M47.1429 15.7143H48.7143V17.2857H47.1429V15.7143Z" fill="#E31D88"/>
<path d="M45.5714 17.2857H47.1429V18.8571H45.5714V17.2857Z" fill="#E31D88"/>
<path d="M47.1429 17.2857H48.7143V18.8571H47.1429V17.2857Z" fill="#E31D88"/>
<path d="M23.5714 18.8571H25.1429V20.4286H23.5714V18.8571Z" fill="#E31D88"/>
<path d="M25.1429 18.8571H26.7143V20.4286H25.1429V18.8571Z" fill="#E31D88"/>
<path d="M26.7143 18.8571H28.2857V20.4286H26.7143V18.8571Z" fill="#E31D88"/>
<path d="M45.5714 18.8571H47.1429V20.4286H45.5714V18.8571Z" fill="#E31D88"/>
<path d="M47.1429 18.8571H48.7143V20.4286H47.1429V18.8571Z" fill="#DF1B8A"/>
<path d="M20.4286 20.4286H22V22H20.4286V20.4286Z" fill="#E31D88"/>
<path d="M22 20.4286H23.5714V22H22V20.4286Z" fill="#E31D88"/>
<path d="M23.5714 20.4286H25.1429V22H23.5714V20.4286Z" fill="#E31D88"/>
<path d="M25.1429 20.4286H26.7143V22H25.1429V20.4286Z" fill="#E31D88"/>
<path d="M45.5714 20.4286H47.1429V22H45.5714V20.4286Z" fill="#E31D88"/>
<path d="M18.8571 22H20.4286V23.5714H18.8571V22Z" fill="#E31D88"/>
<path d="M20.4286 22H22V23.5714H20.4286V22Z" fill="#E31D88"/>
<path d="M22 22H23.5714V23.5714H22V22Z" fill="#E31D88"/>
<path d="M23.5714 22H25.1429V23.5714H23.5714V22Z" fill="#E31D88"/>
<path d="M34.5714 22H36.1429V23.5714H34.5714V22Z" fill="#E31D88"/>
<path d="M36.1429 22H37.7143V23.5714H36.1429V22Z" fill="#E31D88"/>
<path d="M37.7143 22H39.2857V23.5714H37.7143V22Z" fill="#E31D88"/>
<path d="M44 22H45.5714V23.5714H44V22Z" fill="#E31D88"/>
<path d="M45.5714 22H47.1429V23.5714H45.5714V22Z" fill="#E31D88"/>
<path d="M17.2857 23.5714H18.8571V25.1429H17.2857V23.5714Z" fill="#E31D88"/>
<path d="M18.8571 23.5714H20.4286V25.1429H18.8571V23.5714Z" fill="#E31D88"/>
<path d="M20.4286 23.5714H22V25.1429H20.4286V23.5714Z" fill="#E31D88"/>
<path d="M22 23.5714H23.5714V25.1429H22V23.5714Z" fill="#E31D88"/>
<path d="M31.4286 23.5714H33V25.1429H31.4286V23.5714Z" fill="#DF1080"/>
<path d="M33 23.5714H34.5714V25.1429H33V23.5714Z" fill="#E31D88"/>
<path d="M34.5714 23.5714H36.1429V25.1429H34.5714V23.5714Z" fill="#E31D88"/>
<path d="M36.1429 23.5714H37.7143V25.1429H36.1429V23.5714Z" fill="#E31D88"/>
<path d="M37.7143 23.5714H39.2857V25.1429H37.7143V23.5714Z" fill="#E72087"/>
<path d="M44 23.5714H45.5714V25.1429H44V23.5714Z" fill="#E31D88"/>
<path d="M45.5714 23.5714H47.1429V25.1429H45.5714V23.5714Z" fill="#E31D88"/>
<path d="M14.1429 25.1429H15.7143V26.7143H14.1429V25.1429Z" fill="#E31D88"/>
<path d="M15.7143 25.1429H17.2857V26.7143H15.7143V25.1429Z" fill="#E31D88"/>
<path d="M17.2857 25.1429H18.8571V26.7143H17.2857V25.1429Z" fill="#E31D88"/>
<path d="M18.8571 25.1429H20.4286V26.7143H18.8571V25.1429Z" fill="#E31D88"/>
<path d="M20.4286 25.1429H22V26.7143H20.4286V25.1429Z" fill="#E31D88"/>
<path d="M29.8571 25.1429H31.4286V26.7143H29.8571V25.1429Z" fill="#E31D88"/>
<path d="M31.4286 25.1429H33V26.7143H31.4286V25.1429Z" fill="#E31D88"/>
<path d="M33 25.1429H34.5714V26.7143H33V25.1429Z" fill="#E31D88"/>
<path d="M34.5714 25.1429H36.1429V26.7143H34.5714V25.1429Z" fill="#E31D88"/>
<path d="M36.1429 25.1429H37.7143V26.7143H36.1429V25.1429Z" fill="#E31D88"/>
<path d="M44 25.1429H45.5714V26.7143H44V25.1429Z" fill="#E31D88"/>
<path d="M12.5714 26.7143H14.1429V28.2857H12.5714V26.7143Z" fill="#E31D88"/>
<path d="M14.1429 26.7143H15.7143V28.2857H14.1429V26.7143Z" fill="#E31D88"/>
<path d="M15.7143 26.7143H17.2857V28.2857H15.7143V26.7143Z" fill="#E31D88"/>
<path d="M17.2857 26.7143H18.8571V28.2857H17.2857V26.7143Z" fill="#E31D88"/>
<path d="M18.8571 26.7143H20.4286V28.2857H18.8571V26.7143Z" fill="#E31D88"/>
<path d="M28.2857 26.7143H29.8571V28.2857H28.2857V26.7143Z" fill="#E31D88"/>
<path d="M29.8571 26.7143H31.4286V28.2857H29.8571V26.7143Z" fill="#E31D88"/>
<path d="M31.4286 26.7143H33V28.2857H31.4286V26.7143Z" fill="#E31D88"/>
<path d="M33 26.7143H34.5714V28.2857H33V26.7143Z" fill="#E31D88"/>
<path d="M34.5714 26.7143H36.1429V28.2857H34.5714V26.7143Z" fill="#E31D88"/>
<path d="M42.4286 26.7143H44V28.2857H42.4286V26.7143Z" fill="#E31D88"/>
<path d="M44 26.7143H45.5714V28.2857H44V26.7143Z" fill="#E31D88"/>
<path d="M11 28.2857H12.5714V29.8571H11V28.2857Z" fill="#E31D88"/>
<path d="M12.5714 28.2857H14.1429V29.8571H12.5714V28.2857Z" fill="#E31D88"/>
<path d="M14.1429 28.2857H15.7143V29.8571H14.1429V28.2857Z" fill="#E31D88"/>
<path d="M15.7143 28.2857H17.2857V29.8571H15.7143V28.2857Z" fill="#E31D88"/>
<path d="M17.2857 28.2857H18.8571V29.8571H17.2857V28.2857Z" fill="#E31D88"/>
<path d="M25.1429 28.2857H26.7143V29.8571H25.1429V28.2857Z" fill="#E31D88"/>
<path d="M26.7143 28.2857H28.2857V29.8571H26.7143V28.2857Z" fill="#E31D88"/>
<path d="M28.2857 28.2857H29.8571V29.8571H28.2857V28.2857Z" fill="#E31D88"/>
<path d="M29.8571 28.2857H31.4286V29.8571H29.8571V28.2857Z" fill="#E31D88"/>
<path d="M31.4286 28.2857H33V29.8571H31.4286V28.2857Z" fill="#E31D88"/>
<path d="M33 28.2857H34.5714V29.8571H33V28.2857Z" fill="#E31D88"/>
<path d="M42.4286 28.2857H44V29.8571H42.4286V28.2857Z" fill="#E31D88"/>
<path d="M44 28.2857H45.5714V29.8571H44V28.2857Z" fill="#E31D88"/>
<path d="M11 29.8571H12.5714V31.4286H11V29.8571Z" fill="#E31D88"/>
<path d="M12.5714 29.8571H14.1429V31.4286H12.5714V29.8571Z" fill="#E31D88"/>
<path d="M14.1429 29.8571H15.7143V31.4286H14.1429V29.8571Z" fill="#E31D88"/>
<path d="M15.7143 29.8571H17.2857V31.4286H15.7143V29.8571Z" fill="#E31D88"/>
<path d="M23.5714 29.8571H25.1429V31.4286H23.5714V29.8571Z" fill="#E31D88"/>
<path d="M25.1429 29.8571H26.7143V31.4286H25.1429V29.8571Z" fill="#E31D88"/>
<path d="M26.7143 29.8571H28.2857V31.4286H26.7143V29.8571Z" fill="#E31D88"/>
<path d="M28.2857 29.8571H29.8571V31.4286H28.2857V29.8571Z" fill="#E31D88"/>
<path d="M29.8571 29.8571H31.4286V31.4286H29.8571V29.8571Z" fill="#E31D88"/>
<path d="M31.4286 29.8571H33V31.4286H31.4286V29.8571Z" fill="#E31D88"/>
<path d="M40.8571 29.8571H42.4286V31.4286H40.8571V29.8571Z" fill="#E31D88"/>
<path d="M42.4286 29.8571H44V31.4286H42.4286V29.8571Z" fill="#E31D88"/>
<path d="M22 31.4286H23.5714V33H22V31.4286Z" fill="#E31D88"/>
<path d="M23.5714 31.4286H25.1429V33H23.5714V31.4286Z" fill="#E31D88"/>
<path d="M25.1429 31.4286H26.7143V33H25.1429V31.4286Z" fill="#E31D88"/>
<path d="M26.7143 31.4286H28.2857V33H26.7143V31.4286Z" fill="#E31D88"/>
<path d="M28.2857 31.4286H29.8571V33H28.2857V31.4286Z" fill="#E31D88"/>
<path d="M29.8571 31.4286H31.4286V33H29.8571V31.4286Z" fill="#E31D88"/>
<path d="M40.8571 31.4286H42.4286V33H40.8571V31.4286Z" fill="#E31D88"/>
<path d="M42.4286 31.4286H44V33H42.4286V31.4286Z" fill="#E31D88"/>
<path d="M22 33H23.5714V34.5714H22V33Z" fill="#E31D88"/>
<path d="M23.5714 33H25.1429V34.5714H23.5714V33Z" fill="#E31D88"/>
<path d="M25.1429 33H26.7143V34.5714H25.1429V33Z" fill="#E31D88"/>
<path d="M26.7143 33H28.2857V34.5714H26.7143V33Z" fill="#E31D88"/>
<path d="M28.2857 33H29.8571V34.5714H28.2857V33Z" fill="#E31D88"/>
<path d="M37.7143 33H39.2857V34.5714H37.7143V33Z" fill="#DF1C87"/>
<path d="M39.2857 33H40.8571V34.5714H39.2857V33Z" fill="#E31D88"/>
<path d="M40.8571 33H42.4286V34.5714H40.8571V33Z" fill="#E31D88"/>
<path d="M22 34.5714H23.5714V36.1429H22V34.5714Z" fill="#E31D88"/>
<path d="M23.5714 34.5714H25.1429V36.1429H23.5714V34.5714Z" fill="#E31D88"/>
<path d="M25.1429 34.5714H26.7143V36.1429H25.1429V34.5714Z" fill="#E31D88"/>
<path d="M36.1429 34.5714H37.7143V36.1429H36.1429V34.5714Z" fill="#E31D88"/>
<path d="M37.7143 34.5714H39.2857V36.1429H37.7143V34.5714Z" fill="#E31D88"/>
<path d="M39.2857 34.5714H40.8571V36.1429H39.2857V34.5714Z" fill="#E31D88"/>
<path d="M34.5714 36.1429H36.1429V37.7143H34.5714V36.1429Z" fill="#E31D88"/>
<path d="M36.1429 36.1429H37.7143V37.7143H36.1429V36.1429Z" fill="#E31D88"/>
<path d="M37.7143 36.1429H39.2857V37.7143H37.7143V36.1429Z" fill="#E31D88"/>
<path d="M39.2857 36.1429H40.8571V37.7143H39.2857V36.1429Z" fill="#E31D88"/>
<path d="M33 37.7143H34.5714V39.2857H33V37.7143Z" fill="#E31D88"/>
<path d="M34.5714 37.7143H36.1429V39.2857H34.5714V37.7143Z" fill="#E31D88"/>
<path d="M36.1429 37.7143H37.7143V39.2857H36.1429V37.7143Z" fill="#E31D88"/>
<path d="M37.7143 37.7143H39.2857V39.2857H37.7143V37.7143Z" fill="#E31D88"/>
<path d="M39.2857 37.7143H40.8571V39.2857H39.2857V37.7143Z" fill="#E31D88"/>
<path d="M29.8571 39.2857H31.4286V40.8571H29.8571V39.2857Z" fill="#E31D88"/>
<path d="M31.4286 39.2857H33V40.8571H31.4286V39.2857Z" fill="#E31D88"/>
<path d="M33 39.2857H34.5714V40.8571H33V39.2857Z" fill="#E31D88"/>
<path d="M34.5714 39.2857H36.1429V40.8571H34.5714V39.2857Z" fill="#E31D88"/>
<path d="M36.1429 39.2857H37.7143V40.8571H36.1429V39.2857Z" fill="#E31D88"/>
<path d="M37.7143 39.2857H39.2857V40.8571H37.7143V39.2857Z" fill="#E31D88"/>
<path d="M28.2857 40.8571H29.8571V42.4286H28.2857V40.8571Z" fill="#E31D88"/>
<path d="M29.8571 40.8571H31.4286V42.4286H29.8571V40.8571Z" fill="#E31D88"/>
<path d="M31.4286 40.8571H33V42.4286H31.4286V40.8571Z" fill="#E31D88"/>
<path d="M33 40.8571H34.5714V42.4286H33V40.8571Z" fill="#E31D88"/>
<path d="M34.5714 40.8571H36.1429V42.4286H34.5714V40.8571Z" fill="#E31D88"/>
<path d="M36.1429 40.8571H37.7143V42.4286H36.1429V40.8571Z" fill="#E31D88"/>
<path d="M28.2857 42.4286H29.8571V44H28.2857V42.4286Z" fill="#E31D88"/>
<path d="M29.8571 42.4286H31.4286V44H29.8571V42.4286Z" fill="#E31D88"/>
<path d="M31.4286 42.4286H33V44H31.4286V42.4286Z" fill="#E31D88"/>
<path d="M33 42.4286H34.5714V44H33V42.4286Z" fill="#E31D88"/>
<path d="M34.5714 42.4286H36.1429V44H34.5714V42.4286Z" fill="#E31D88"/>
<path d="M26.7143 44H28.2857V45.5714H26.7143V44Z" fill="#E31D88"/>
<path d="M28.2857 44H29.8571V45.5714H28.2857V44Z" fill="#E31D88"/>
<path d="M29.8571 44H31.4286V45.5714H29.8571V44Z" fill="#E31D88"/>
<path d="M31.4286 44H33V45.5714H31.4286V44Z" fill="#E31D88"/>
<path d="M33 44H34.5714V45.5714H33V44Z" fill="#E31D88"/>
</svg>
