<svg width="93" height="93" viewBox="0 0 93 93" fill="none" xmlns="http://www.w3.org/2000/svg">
<rect x="23" y="16" width="49" height="60" rx="3" fill="white"/>
<path d="M45.8958 44.5663H37.9421V31.8479H47.4328C52.2742 31.8479 54.9639 33.9997 54.9639 37.9573C54.9639 42.2608 51.7747 44.5663 45.8958 44.5663ZM47.3175 48.9082H37.9421V62.8945H47.7786C53.7727 62.8945 56.9235 60.4738 56.9235 55.8629C56.9235 51.252 53.6574 48.9082 47.3175 48.9082ZM85.1266 20.7819V72.193C85.1266 79.1478 79.3631 84.9114 72.4083 84.9114H20.9971C14.0424 84.9114 8.27881 79.1478 8.27881 72.193V20.7819C8.27881 13.8271 14.0424 8.06354 20.9971 8.06354H72.4083C79.3631 8.06354 85.1266 13.8271 85.1266 20.7819ZM62.0723 56.0934C62.0723 50.7909 58.5373 46.987 53.1195 46.2953V46.0648C56.9619 45.3732 59.9974 41.5308 59.9974 37.381C59.9974 31.4253 55.3865 27.4676 48.6239 27.4676H32.9854V67.2748H48.5086C57.0003 67.2748 62.0723 63.0866 62.0723 56.0934Z" fill="#62488A"/>
</svg>
