<svg width="93" height="94" viewBox="0 0 93 94" fill="none" xmlns="http://www.w3.org/2000/svg">
<path d="M33.4278 88.7173C41.1459 88.7173 47.4098 82.4875 47.4098 74.8115V60.9057H33.4278C25.7097 60.9057 19.4458 67.1355 19.4458 74.8115C19.4458 82.4875 25.7097 88.7173 33.4278 88.7173Z" fill="#0ACF83"/>
<path d="M19.4458 46.9999C19.4458 39.3239 25.7097 33.0941 33.4278 33.0941H47.4098V60.9057H33.4278C25.7097 60.9057 19.4458 54.6759 19.4458 46.9999Z" fill="#A259FF"/>
<path d="M19.4458 19.1883C19.4458 11.5123 25.7097 5.28253 33.4278 5.28253H47.4098V33.0941H33.4278C25.7097 33.0941 19.4458 26.8643 19.4458 19.1883Z" fill="#F24E1E"/>
<path d="M47.4099 5.28253H61.3919C69.11 5.28253 75.3739 11.5123 75.3739 19.1883C75.3739 26.8643 69.11 33.0941 61.3919 33.0941H47.4099V5.28253Z" fill="#FF7262"/>
<path d="M75.3739 46.9999C75.3739 54.6759 69.11 60.9057 61.3919 60.9057C53.6739 60.9057 47.4099 54.6759 47.4099 46.9999C47.4099 39.3239 53.6739 33.0941 61.3919 33.0941C69.11 33.0941 75.3739 39.3239 75.3739 46.9999Z" fill="#1ABCFE"/>
</svg>
