<svg width="93" height="93" viewBox="0 0 93 93" fill="none" xmlns="http://www.w3.org/2000/svg">
<path d="M40.6888 10.6569C43.813 7.53266 48.8784 7.53266 52.0026 10.6569L77.1888 35.8431C80.313 38.9673 80.313 44.0327 77.1889 47.1569L52.0026 72.3431C48.8784 75.4673 43.813 75.4673 40.6888 72.3431L15.5026 47.1569C12.3784 44.0327 12.3784 38.9673 15.5026 35.8431L40.6888 10.6569Z" fill="#D9D9D9"/>
<path d="M10.6626 40.8515L32.6431 18.833L39.0699 25.2979C38.1572 28.5303 39.6403 32.0669 42.6066 33.7782V54.846C40.3249 56.139 38.8037 58.6109 38.8037 61.425C38.8037 63.4421 39.605 65.3767 41.0314 66.803C42.4577 68.2294 44.3923 69.0307 46.4094 69.0307C48.4266 69.0307 50.3611 68.2294 51.7875 66.803C53.2138 65.3767 54.0151 63.4421 54.0151 61.425C54.0151 58.6109 52.494 56.139 50.2123 54.846V36.3642L58.0842 44.3121C57.818 44.8826 57.818 45.529 57.818 46.2136C57.818 48.2307 58.6193 50.1653 60.0456 51.5916C61.472 53.018 63.4065 53.8193 65.4237 53.8193C67.4408 53.8193 69.3754 53.018 70.8017 51.5916C72.2281 50.1653 73.0294 48.2307 73.0294 46.2136C73.0294 44.1964 72.2281 42.2619 70.8017 40.8355C69.3754 39.4092 67.4408 38.6079 65.4237 38.6079C64.7392 38.6079 64.0927 38.6079 63.5223 38.8741L53.7489 29.1007C54.7377 25.5641 52.9123 21.6852 49.3756 20.2021C47.7404 19.5936 46.0291 19.4415 44.508 19.8598L38.0431 13.433L41.0474 10.4668C44.0136 7.4625 48.8052 7.4625 51.7714 10.4668L82.1562 40.8515C85.1605 43.8178 85.1605 48.6094 82.1562 51.5756L51.7714 81.9604C48.8052 84.9646 44.0136 84.9646 41.0474 81.9604L10.6626 51.5756C7.65836 48.6094 7.65836 43.8178 10.6626 40.8515Z" fill="#F05033"/>
</svg>
