<svg width="103" height="103" viewBox="0 0 103 103" fill="none" xmlns="http://www.w3.org/2000/svg">
<rect x="8" y="9" width="36" height="43" fill="white"/>
<path d="M27.1944 50.008L41.0457 46.1623L42.9175 25.4024H18.2779L17.6653 18.4938H43.5301L44.2107 11.7213H10.1781L12.0839 32.1749H35.5324L34.7496 40.9553L27.1944 42.9973L19.6392 40.9553L19.1627 35.3059H12.3562L13.3431 46.1623L27.1944 50.008ZM0.206543 0.456543H54.1823L49.3156 55.5894L27.1944 61.7152L5.07321 55.5894L0.206543 0.456543Z" fill="#FF5C00"/>
<rect x="40" y="44" width="36" height="43" fill="white"/>
<path d="M30.8359 33.6383L35.7215 89.9225L57.6045 96.1732L79.5518 89.9128L84.4373 33.6383H30.8359ZM71.4111 80.386L57.6464 84.3083L43.9027 80.3664L42.9605 69.5121H49.6969L50.1757 75.0342L57.6562 77.1503L57.6743 77.1894L65.138 75.1165L65.9253 66.162H50.2385L49.6802 59.1827H66.5213L67.1285 52.0638H41.4445L40.8862 45.224H74.468L71.4111 80.386Z" fill="#259DE0"/>
</svg>
