<svg width="70" height="70" viewBox="0 0 70 70" fill="none" xmlns="http://www.w3.org/2000/svg">
<rect x="9.94141" y="8.26782" width="57.087" height="61.4783" fill="black"/>
<path d="M0.309814 0.70105H69.4729V69.8641H0.309814V0.70105ZM18.4843 58.4906C20.0213 61.7567 23.0568 64.4463 28.244 64.4463C34.0076 64.4463 37.9653 61.3724 37.9653 54.6482V32.4392H31.4332V54.4945C31.4332 57.799 30.0883 58.6443 27.975 58.6443C25.7464 58.6443 24.8243 57.1074 23.7868 55.3014L18.4843 58.4906ZM41.4618 57.799C43.383 61.5645 47.2638 64.4463 53.3348 64.4463C59.4826 64.4463 64.0935 61.2571 64.0935 55.3783C64.0935 49.9605 60.9812 47.5398 55.4481 45.1575L53.8343 44.4659C51.0294 43.2747 49.8382 42.4678 49.8382 40.5466C49.8382 38.9713 51.0294 37.7417 52.9506 37.7417C54.7949 37.7417 56.0245 38.5486 57.1388 40.5466L62.1723 37.2038C60.059 33.5151 57.0619 32.0934 52.9506 32.0934C47.1486 32.0934 43.4214 35.7821 43.4214 40.6619C43.4214 45.9644 46.5338 48.462 51.2215 50.46L52.8353 51.1516C55.8324 52.4581 57.5999 53.265 57.5999 55.4936C57.5999 57.3379 55.8708 58.6827 53.1811 58.6827C49.9919 58.6827 48.1476 57.0305 46.7643 54.7251L41.4618 57.799Z" fill="#F7DF1E"/>
</svg>
