<svg width="93" height="93" viewBox="0 0 93 93" fill="none" xmlns="http://www.w3.org/2000/svg">
<path d="M67.2293 25.9999C69.8841 25.9999 72.4302 27.0546 74.3074 28.9318C76.1846 30.809 77.2393 33.3551 77.2393 36.0099V49.2399C77.2393 51.8948 76.1846 54.4408 74.3074 56.3181C72.4302 58.1953 69.8841 59.2499 67.2293 59.2499H42.2393C42.2393 60.6149 43.3593 62.6099 44.7243 62.6099H59.7393V68.4899C59.7393 71.1448 58.6846 73.6908 56.8074 75.5681C54.9302 77.4453 52.3841 78.4999 49.7293 78.4999H34.7493C32.0944 78.4999 29.5484 77.4453 27.6711 75.5681C25.7939 73.6908 24.7393 71.1448 24.7393 68.4899V55.3649C24.7393 49.8349 29.2193 45.3899 34.7493 45.3899H53.1243C58.6543 45.3899 63.0993 40.9099 63.0993 35.3799V25.9999H67.2293ZM52.2493 67.2649C50.8493 67.2649 49.7293 68.3149 49.7293 70.3799C49.7293 72.4449 50.8493 72.8649 52.2493 72.8649C52.5756 72.8649 52.8987 72.8007 53.2002 72.6758C53.5017 72.5509 53.7757 72.3679 54.0064 72.1371C54.2372 71.9063 54.4202 71.6324 54.5451 71.3309C54.67 71.0294 54.7343 70.7063 54.7343 70.3799C54.7343 68.3149 53.6143 67.2649 52.2493 67.2649Z" fill="#FFE600"/>
<path d="M17.3747 61.0862C11.8447 61.0862 7.36475 56.6062 7.36475 51.0762V37.8462C7.36475 32.3162 11.8447 27.8362 17.3747 27.8362H42.3647C42.3647 26.4712 41.2447 24.4762 39.8797 24.4762H24.8647V18.5962C24.8647 13.0662 29.3447 8.58618 34.8747 8.58618H49.8547C55.3847 8.58618 59.8647 13.0662 59.8647 18.5962V31.7212C59.8647 37.2512 55.3847 41.6962 49.8547 41.6962H31.4797C25.9497 41.6962 21.5047 46.1762 21.5047 51.7062V61.0862H17.3747ZM32.3547 19.8212C33.7547 19.8212 34.8747 18.7712 34.8747 16.7062C34.8747 14.6412 33.7547 14.2212 32.3547 14.2212C30.9897 14.2212 29.8697 14.6412 29.8697 16.7062C29.8697 18.7712 30.9897 19.8212 32.3547 19.8212Z" fill="#1400FF"/>
</svg>
