<svg width="75" height="79" viewBox="0 0 75 79" fill="none" xmlns="http://www.w3.org/2000/svg">
<path d="M35.4604 2.20897C36.718 1.46355 38.282 1.46354 39.5396 2.20897L68.0155 19.088C69.2308 19.8083 69.976 21.1162 69.976 22.5289V56.4711C69.976 57.8838 69.2308 59.1917 68.0156 59.912L39.5396 76.791C38.282 77.5365 36.718 77.5365 35.4604 76.791L6.98445 59.912C5.76921 59.1917 5.02405 57.8838 5.02405 56.4711V22.5289C5.02405 21.1162 5.76921 19.8083 6.98445 19.088L35.4604 2.20897Z" fill="#2C2CAB"/>
<path d="M39.3479 0.282349C38.3104 0.282349 37.2346 0.551316 36.3508 1.05083L7.76342 17.5731C5.91907 18.649 4.76636 20.647 4.76636 22.7988V55.7665C4.76636 57.9182 5.91907 59.9163 7.76342 60.9921L15.2561 65.2956C18.9064 67.0631 20.1359 67.1015 21.8266 67.1015C27.2059 67.1015 30.3183 63.8355 30.3183 58.1488V25.6037C30.3183 25.1426 29.934 24.7584 29.4729 24.7584H25.8995C25.4 24.7584 25.0158 25.1426 25.0158 25.6037V58.1488C25.0158 60.6847 22.4029 63.1823 18.2147 61.069L10.3378 56.5734C10.0689 56.3813 9.91516 56.0739 9.91516 55.7665V22.7988C9.91516 22.4529 10.0689 22.1456 10.3378 21.9919L38.9252 5.508C39.1558 5.35431 39.54 5.35431 39.7705 5.508L68.3579 21.9919C68.6269 22.1456 68.7806 22.4529 68.7806 22.7988V55.7665C68.7806 56.0739 68.6269 56.3813 68.3579 56.5734L39.7705 73.0572C39.54 73.2109 39.1558 73.2109 38.8868 73.0572L31.6631 68.6769C31.3557 68.5616 31.0483 68.5232 30.8562 68.6385C28.8197 69.7912 28.4355 70.0217 26.5527 70.5981C26.0916 70.7518 25.3616 71.0208 26.8217 71.8277L36.3508 77.476C37.273 78.0139 38.272 78.2829 39.3479 78.2829C40.4238 78.2829 41.4228 78.0139 42.3449 77.476L70.9323 60.9921C72.7767 59.9163 73.9294 57.9182 73.9294 55.7665V22.7988C73.9294 20.647 72.7767 18.649 70.9323 17.5731L42.3449 1.05083C41.4612 0.551316 40.4238 0.282349 39.3479 0.282349ZM47.0327 23.9131C38.8868 23.9131 34.007 27.3328 34.007 33.0964C34.007 39.2826 38.8484 41.0885 46.6868 41.857C56.0239 42.7792 56.7539 44.1625 56.7539 46.0068C56.7539 49.196 54.1795 50.5408 48.1854 50.5408C40.5774 50.5408 38.9636 48.6581 38.3873 44.8925C38.3104 44.5083 37.9646 44.2009 37.542 44.2009H33.8533C33.3922 44.2009 33.0464 44.5467 33.0464 45.0462C33.0464 49.8108 35.6592 55.5744 48.1854 55.5744C57.215 55.5744 62.4022 52.0009 62.4022 45.7763C62.4022 39.59 58.2524 37.9762 49.4534 36.7851C40.5774 35.6323 39.6937 35.0176 39.6937 32.9427C39.6937 31.2136 40.4622 28.9082 47.0327 28.9082C52.7963 28.9082 55.0633 30.1762 55.947 34.1338C56.0239 34.5181 56.3697 34.787 56.7539 34.787H60.481C60.6732 34.787 60.9037 34.7102 61.0574 34.5181C61.2111 34.3644 61.3264 34.1338 61.2495 33.9033C60.7116 27.0638 56.1776 23.9131 47.0327 23.9131Z" fill="#90C53F"/>
</svg>
