<svg width="93" height="93" viewBox="0 0 93 93" fill="none" xmlns="http://www.w3.org/2000/svg">
<path d="M46.8045 39.0205C50.7622 39.0205 53.9898 42.2481 53.9898 46.2826C53.9898 50.125 50.7622 53.391 46.8045 53.391C42.8468 53.391 39.6192 50.125 39.6192 46.2826C39.6192 42.2481 42.8468 39.0205 46.8045 39.0205ZM29.0142 77.0217C31.4349 78.4818 36.7374 76.2533 42.8468 70.4897C40.8488 68.2227 38.8892 65.7635 37.0448 63.1891C33.8941 62.8817 30.7817 62.4207 27.8231 61.8059C25.8635 70.0286 26.5935 75.6769 29.0142 77.0217ZM31.7423 54.9664L30.628 53.0068C30.2054 54.1211 29.7827 55.2354 29.5137 56.3112C30.5512 56.5418 31.7039 56.7339 32.895 56.926C32.5108 56.2728 32.1266 55.6196 31.7423 54.9664ZM56.8716 52.0462L59.9839 46.2826L56.8716 40.519C55.7188 38.4825 54.4893 36.6766 53.375 34.8707C51.3001 34.7554 49.1099 34.7554 46.8045 34.7554C44.4991 34.7554 42.3089 34.7554 40.234 34.8707C39.1197 36.6766 37.8901 38.4825 36.7374 40.519L33.6251 46.2826L36.7374 52.0462C37.8901 54.0827 39.1197 55.8886 40.234 57.6945C42.3089 57.8098 44.4991 57.8098 46.8045 57.8098C49.1099 57.8098 51.3001 57.8098 53.375 57.6945C54.4893 55.8886 55.7188 54.0827 56.8716 52.0462ZM46.8045 26.2253C46.0744 27.0706 45.306 27.9544 44.5375 28.9918C45.306 28.9918 46.036 28.9918 46.8045 28.9918C47.573 28.9918 48.303 28.9918 49.0715 28.9918C48.303 27.9544 47.5345 27.0706 46.8045 26.2253ZM46.8045 66.3399C47.5345 65.4946 48.303 64.6108 49.0715 63.5734C48.303 63.5734 47.573 63.5734 46.8045 63.5734C46.036 63.5734 45.306 63.5734 44.5375 63.5734C45.306 64.6108 46.0744 65.4946 46.8045 66.3399ZM64.5563 15.5435C62.1741 14.0834 56.8716 16.312 50.7622 22.0755C52.7602 24.3425 54.7198 26.8017 56.5642 29.3761C59.7149 29.6835 62.8273 30.1446 65.7859 30.7593C67.7455 22.5366 67.0155 16.8883 64.5563 15.5435ZM61.8667 37.5988L62.981 39.5584C63.4036 38.4441 63.8263 37.3298 64.0953 36.254C63.0578 36.0234 61.9051 35.8313 60.7139 35.6392C61.0982 36.2924 61.4824 36.9456 61.8667 37.5988ZM67.4381 10.5099C73.0865 13.7375 73.7012 22.2292 71.3189 32.1426C81.0786 35.0244 88.1102 39.789 88.1102 46.2826C88.1102 52.7762 81.0786 57.5408 71.3189 60.4226C73.7012 70.336 73.0865 78.8277 67.4381 82.0553C61.8282 85.2829 54.1819 81.5942 46.8045 74.5626C39.4271 81.5942 31.7807 85.2829 26.1324 82.0553C20.5225 78.8277 19.9077 70.336 22.29 60.4226C12.5304 57.5408 5.49878 52.7762 5.49878 46.2826C5.49878 39.789 12.5304 35.0244 22.29 32.1426C19.9077 22.2292 20.5225 13.7375 26.1324 10.5099C31.7807 7.28233 39.4271 10.971 46.8045 18.0026C54.1819 10.971 61.8282 7.28233 67.4381 10.5099ZM66.3238 46.2826C67.6303 49.1644 68.783 52.0462 69.7436 54.9664C77.8126 52.5457 82.3466 49.0876 82.3466 46.2826C82.3466 43.4777 77.8126 40.0195 69.7436 37.5988C68.783 40.519 67.6303 43.4008 66.3238 46.2826ZM27.2851 46.2826C25.9787 43.4008 24.826 40.519 23.8654 37.5988C15.7964 40.0195 11.2624 43.4777 11.2624 46.2826C11.2624 49.0876 15.7964 52.5457 23.8654 54.9664C24.826 52.0462 25.9787 49.1644 27.2851 46.2826ZM61.8667 54.9664C61.4824 55.6196 61.0982 56.2728 60.7139 56.926C61.9051 56.7339 63.0578 56.5418 64.0953 56.3112C63.8263 55.2354 63.4036 54.1211 62.981 53.0068L61.8667 54.9664ZM50.7622 70.4897C56.8716 76.2533 62.1741 78.4818 64.5563 77.0217C67.0155 75.6769 67.7455 70.0286 65.7859 61.8059C62.8273 62.4207 59.7149 62.8817 56.5642 63.1891C54.7198 65.7635 52.7602 68.2227 50.7622 70.4897ZM31.7423 37.5988C32.1266 36.9456 32.5108 36.2924 32.895 35.6392C31.7039 35.8313 30.5512 36.0234 29.5137 36.254C29.7827 37.3298 30.2054 38.4441 30.628 39.5584L31.7423 37.5988ZM42.8468 22.0755C36.7374 16.312 31.4349 14.0834 29.0142 15.5435C26.5935 16.8883 25.8635 22.5366 27.8231 30.7593C30.7817 30.1446 33.8941 29.6835 37.0448 29.3761C38.8892 26.8017 40.8488 24.3425 42.8468 22.0755Z" fill="#61DAFB"/>
</svg>
