<svg width="93" height="93" viewBox="0 0 93 93" fill="none" xmlns="http://www.w3.org/2000/svg">
<rect x="22" y="17" width="49" height="60" rx="3" fill="white"/>
<path d="M46.348 8.33698C51.3939 8.33698 56.3904 9.33084 61.0522 11.2618C65.714 13.1928 69.9498 16.0231 73.5178 19.5911C77.0858 23.1591 79.9161 27.3949 81.8471 32.0567C83.778 36.7185 84.7719 41.715 84.7719 46.7609C84.7719 56.9515 80.7237 66.7248 73.5178 73.9307C66.3119 81.1366 56.5386 85.1848 46.348 85.1848C41.3021 85.1848 36.3056 84.1909 31.6438 82.26C26.982 80.329 22.7462 77.4987 19.1782 73.9307C11.9723 66.7248 7.92407 56.9515 7.92407 46.7609C7.92407 36.5702 11.9723 26.797 19.1782 19.5911C26.3841 12.3852 36.1573 8.33698 46.348 8.33698ZM38.6632 59.556C39.278 61.6309 39.2011 63.5521 38.6632 65.3196C38.6632 65.5118 38.5095 65.7039 38.4327 65.9728C38.3558 65.9728 38.279 66.2418 38.1637 66.4339C37.741 67.3561 37.1262 68.2399 36.3962 69.0083C34.1676 71.4675 30.9784 72.3896 29.7104 71.6212C28.2503 70.7758 29.0572 67.3177 31.5932 64.5896C34.3597 61.6694 38.3558 59.7482 38.3558 59.7482L38.6632 59.556ZM70.4398 24.7824C68.7107 17.943 57.3756 15.7144 46.6938 19.5183C40.3154 21.7853 33.3991 25.3203 28.4424 29.9696C22.5636 35.5027 21.603 40.3057 21.9872 42.3037C23.2936 49.3737 33.0533 54.023 37.0494 57.4427V57.4812C35.8967 58.0575 27.2897 62.3994 25.2148 66.8566C23.1399 71.5443 25.5991 74.9256 27.136 75.3867C32.2848 76.77 37.4721 74.2724 40.2386 70.0842C42.9283 66.0881 42.7361 60.9009 41.545 58.2881C43.1588 57.9038 45.0416 57.7117 47.4239 57.9807C54.1865 58.7876 55.4929 62.9758 55.2239 64.7433C54.9934 66.5108 53.5717 67.4714 53.1106 67.7788C52.6495 68.0477 52.4958 68.163 52.5342 68.3935C52.5727 68.7009 52.8032 68.7009 53.1874 68.6241C53.7638 68.5088 56.7609 67.2024 56.8761 63.9364C57.0298 59.7866 53.0722 55.1757 46.079 55.291C43.1972 55.3678 41.3913 55.6368 40.0849 56.1363L39.7775 55.7905C35.4356 51.1796 27.4434 47.9136 27.7892 41.6889C27.9045 39.4219 28.673 33.5046 43.1588 26.2809C54.9934 20.3637 64.4841 21.9775 66.1363 25.6277C68.4802 30.7381 61.0643 40.3057 48.7687 41.6889C44.081 42.2269 41.5834 40.3825 40.9686 39.7293C40.3154 39.0761 40.2386 38.9608 40.008 39.0761C39.5854 39.3451 39.8543 39.9599 40.008 40.3441C40.3539 41.3047 41.8908 42.9185 44.4268 43.8407C46.6938 44.5707 52.2268 44.9934 58.8742 42.419C66.3284 39.5372 72.1689 31.5066 70.4398 24.7824Z" fill="#CC6699"/>
</svg>
