<svg width="72" height="75" viewBox="0 0 72 75" fill="none" xmlns="http://www.w3.org/2000/svg">
<path d="M56.8087 36.2475C50.046 29.4849 39.0952 29.5233 32.371 36.2859C25.6084 43.0485 25.6084 53.9993 32.371 60.7235C38.0962 66.4103 46.9337 67.4093 53.7732 63.1442L65.723 74.9404L71.0639 69.5994L59.1909 57.6496C63.5328 50.8486 62.5338 41.9342 56.8087 36.2475ZM51.3909 55.2673C47.6253 59.0329 41.5544 58.9945 37.7888 55.2673C34.0617 51.5018 34.0617 45.4308 37.8272 41.6653C41.5544 37.9381 47.6253 37.9381 51.3909 41.6653C55.118 45.4308 55.118 51.5018 51.3909 55.2673ZM26.9148 66.1413C24.4173 63.6053 22.4577 60.5698 21.2281 57.227C9.12457 55.1905 0.402344 49.4653 0.402344 42.7027V54.2299C0.402344 62.7216 14.1581 69.5994 31.1415 69.5994C29.6045 68.6004 28.1828 67.4477 26.9148 66.1413ZM0.402344 23.4907V35.0179C0.402344 41.4731 8.35609 47.0062 19.6143 49.2348C19.6143 48.9658 19.6143 48.7353 19.6143 48.4663C19.6143 44.8929 20.3828 41.3579 21.8429 38.1303C9.39354 36.1706 0.402344 30.3686 0.402344 23.4907ZM31.1415 0.436401C14.1581 0.436401 0.402344 7.31428 0.402344 15.806C0.402344 23.4908 11.9295 29.946 26.7227 31.1755H26.9148C31.5257 26.3341 37.9041 23.4907 44.5898 23.4907C48.0864 23.4907 51.5446 24.2208 54.7338 25.6425C58.6914 23.8366 61.3811 20.1094 61.8806 15.806C61.8806 7.31428 48.1248 0.436401 31.1415 0.436401Z" fill="#FFA800"/>
</svg>
