<svg width="134" height="59" viewBox="0 0 134 59" fill="none" xmlns="http://www.w3.org/2000/svg">
<path d="M111.828 18.0988C111.473 18.0988 110.887 18.6302 110.538 19.2168C109.896 20.2685 110.654 20.9105 120.318 26.9435C126.058 30.5799 130.685 33.6795 130.569 33.9175C130.453 34.0891 125.765 37.1388 120.147 40.6534C109.951 46.9742 109.896 47.0351 110.831 48.3247C112.005 49.8468 110.831 50.3726 124.065 42.1146L133.674 35.9654V31.3382L122.953 24.7185C117.158 21.0876 112.121 18.1597 111.828 18.0988ZM22.7993 18.7464C22.5059 18.7464 17.4692 21.7352 11.6742 25.3052L0.836914 31.9249V36.5521L11.6133 43.288C17.591 46.9742 22.6277 50.0239 22.8602 50.0239C23.0926 50.0239 23.5631 49.4926 24.0336 48.8506C24.7365 47.738 24.1443 47.2676 14.2479 41.0021C4.82202 35.0853 3.82575 34.2662 4.76667 33.6241C5.35337 33.2145 9.80341 30.4582 14.6077 27.4749C25.5612 20.7389 24.9745 21.2039 24.0944 19.798C23.7458 19.2169 23.1535 18.691 22.8048 18.7464H22.7993Z" fill="#2C2CAB"/>
<path d="M90.5793 0.580933L90.1642 2.74507C89.5222 6.84641 89.7546 8.0198 91.5147 9.54189L93.214 10.9478L91.4538 18.7962C90.4022 23.4787 89.1126 27.4029 88.2934 28.6925C87.5905 29.8051 86.7714 31.4434 86.5942 32.3234C86.3009 33.3751 85.3046 34.4322 83.7825 35.3676C82.4375 36.1314 79.7974 38.1793 77.9266 39.8232C76.4322 41.1682 75.4027 41.9928 74.8437 42.3471L73.0172 43.7917C72.4305 44.7326 72.0984 45.4909 71.9711 46.0665C71.8438 46.6587 71.9157 47.0517 72.1039 47.3395C72.2866 47.6163 72.6021 47.81 73.0338 47.9318C73.5449 48.0516 74.0709 48.0945 74.5946 48.0591C75.7795 47.9781 76.9522 47.7703 78.0927 47.4392C78.4801 47.334 78.7845 47.2344 79.0502 47.1458C79.4598 46.6421 80.4062 45.6901 82.0833 44.0352C86.5333 39.6461 88.2326 37.2439 86.478 37.8915C85.8304 38.124 86.1238 37.5373 87.2363 36.3639C89.5831 34.078 90.928 30.6242 93.7398 19.7925C95.9648 11.2411 95.9648 11.1193 97.6031 11.1193C98.3724 11.1193 100.548 11.2522 100.548 11.2522V0.580933H95.5552H90.5793ZM70.8641 18.8737C69.2479 18.8626 65.772 21.3256 55.3665 29.8217C54.9182 30.8899 54.8794 31.626 55.0842 32.102C55.217 32.4286 55.4606 32.6555 55.7982 32.8216C56.1303 32.9876 56.562 33.0872 57.038 33.126C57.9845 33.209 59.1025 33.0596 60.0047 32.8824L60.6135 32.7441C60.8219 32.4646 61.0956 32.2404 61.4106 32.091C62.0526 31.7367 64.7481 29.2792 67.4436 26.6446C72.187 21.8404 73.2995 19.6707 71.3678 18.9678C71.2093 18.9047 71.0347 18.8728 70.8641 18.8737ZM83.0187 22.2112C81.5962 22.25 79.0336 23.8994 74.6444 27.4029C72.4416 29.1907 71.0468 30.1538 70.2996 30.353L67.3993 32.6445C66.3089 34.637 66.1484 35.8713 66.4362 36.5521C66.5083 36.72 66.6128 36.872 66.7439 36.9993C66.875 37.1266 67.0301 37.2267 67.2 37.2937C67.6229 37.4607 68.0738 37.5453 68.5284 37.5428C69.6148 37.5312 70.6946 37.373 71.7386 37.0723C72.2827 36.9263 72.8201 36.7564 73.3493 36.5631L73.5098 36.4967L73.8031 36.3417C74.3566 35.6277 75.6296 34.2828 77.2237 32.733C82.2604 27.8734 84.8341 24.4196 84.3083 23.13C84.0703 22.5046 83.6608 22.1891 83.0187 22.2112ZM69.6022 28.1889C69.1926 28.2332 68.2738 28.9416 66.6189 30.3918C64.2278 32.5061 61.6209 33.7238 60.7187 33.1813C60.509 33.2287 60.2987 33.273 60.0877 33.3142C59.1689 33.4968 58.0232 33.6463 56.9993 33.5632C56.5168 33.534 56.0439 33.4158 55.6045 33.2145C55.19 33.025 54.8592 32.6903 54.6746 32.2736C54.4698 31.7755 54.4698 31.1556 54.7023 30.3641L51.1046 33.3197L42.9628 40.0556V50.9759L69.6409 29.96C69.6357 29.7299 69.6656 29.5004 69.7295 29.2792C69.9343 28.5376 69.9232 28.1612 69.6022 28.1944V28.1889ZM81.0815 31.7257C80.6775 31.7257 80.0022 32.2958 78.9229 33.4415C77.4562 35.0078 75.1481 36.5244 73.9249 36.8344L73.7367 36.934C73.5359 37.0169 73.3329 37.0944 73.1279 37.1664C72.7958 37.2771 72.3641 37.41 71.8659 37.5428C70.8697 37.814 69.6299 38.0631 68.5229 38.0354C68.001 38.0348 67.4842 37.9333 67.0008 37.7365C66.5452 37.5488 66.1801 37.1916 65.9824 36.7403C65.6613 35.9709 65.7887 34.8916 66.4916 33.3584L42.9573 51.8947V58.5643H53.2964L75.2256 41.3397C75.7957 40.7088 76.6536 39.8453 77.8104 38.766C80.9099 35.8934 81.6128 34.9027 81.6128 33.4359C81.6128 32.2958 81.4855 31.7201 81.0815 31.7201V31.7257ZM86.3009 42.5187L84.4246 44.3895C83.3729 45.3857 81.4966 46.6145 80.2125 47.1403L79.9579 47.251L79.9413 47.2787L79.886 47.334C79.8362 47.3727 79.814 47.3783 79.7753 47.3949C79.2627 47.5889 78.7419 47.7606 78.2144 47.9096C77.0417 48.251 75.8354 48.4644 74.6168 48.5461C74.0406 48.5831 73.4621 48.5327 72.901 48.3967C72.414 48.2895 71.9841 48.0055 71.6944 47.5997C71.4287 47.1901 71.3512 46.6421 71.5006 45.9669C71.6195 45.4861 71.7961 45.0215 72.0265 44.5832L54.3315 58.5643H77.8657L80.6775 55.343C84.5408 50.8376 86.3009 47.6163 86.3009 44.8599V42.5187Z" fill="#E3AC1D"/>
<path d="M90.5793 0.580933L90.1642 2.74507C89.5222 6.84641 89.7546 8.0198 91.5147 9.54189L93.214 10.9478L91.4538 18.7962C90.4022 23.4787 89.1126 27.4029 88.2934 28.6925C87.5905 29.8051 86.7714 31.4434 86.5942 32.3234C86.3009 33.3751 85.3046 34.4322 83.7825 35.3676C82.4375 36.1314 79.7974 38.1793 77.9266 39.8232C76.4322 41.1682 75.4027 41.9928 74.8437 42.3471L73.0172 43.7917C72.4305 44.7326 72.0984 45.4909 71.9711 46.0665C71.8438 46.6587 71.9157 47.0517 72.1039 47.3395C72.2866 47.6163 72.6021 47.81 73.0338 47.9318C73.5449 48.0516 74.0709 48.0945 74.5946 48.0591C75.7795 47.9781 76.9522 47.7703 78.0927 47.4392C78.4801 47.334 78.7845 47.2344 79.0502 47.1458C79.4598 46.6421 80.4062 45.6901 82.0833 44.0352C86.5333 39.6461 88.2326 37.2439 86.478 37.8915C85.8304 38.124 86.1238 37.5373 87.2363 36.3639C89.5831 34.078 90.928 30.6242 93.7398 19.7925C95.9648 11.2411 95.9648 11.1193 97.6031 11.1193C98.3724 11.1193 100.548 11.2522 100.548 11.2522V0.580933H95.5552H90.5793ZM70.8641 18.8737C69.2479 18.8626 65.772 21.3256 55.3665 29.8217C54.9182 30.8899 54.8794 31.626 55.0842 32.102C55.217 32.4286 55.4606 32.6555 55.7982 32.8216C56.1303 32.9876 56.562 33.0872 57.038 33.126C57.9845 33.209 59.1025 33.0596 60.0047 32.8824L60.6135 32.7441C60.8219 32.4646 61.0956 32.2404 61.4106 32.091C62.0526 31.7367 64.7481 29.2792 67.4436 26.6446C72.187 21.8404 73.2995 19.6707 71.3678 18.9678C71.2093 18.9047 71.0347 18.8728 70.8641 18.8737ZM83.0187 22.2112C81.5962 22.25 79.0336 23.8994 74.6444 27.4029C72.4416 29.1907 71.0468 30.1538 70.2996 30.353L67.3993 32.6445C66.3089 34.637 66.1484 35.8713 66.4362 36.5521C66.5083 36.72 66.6128 36.872 66.7439 36.9993C66.875 37.1266 67.0301 37.2267 67.2 37.2937C67.6229 37.4607 68.0738 37.5453 68.5284 37.5428C69.6148 37.5312 70.6946 37.373 71.7386 37.0723C72.2827 36.9263 72.8201 36.7564 73.3493 36.5631L73.5098 36.4967L73.8031 36.3417C74.3566 35.6277 75.6296 34.2828 77.2237 32.733C82.2604 27.8734 84.8341 24.4196 84.3083 23.13C84.0703 22.5046 83.6608 22.1891 83.0187 22.2112ZM69.6022 28.1889C69.1926 28.2332 68.2738 28.9416 66.6189 30.3918C64.2278 32.5061 61.6209 33.7238 60.7187 33.1813C60.509 33.2287 60.2987 33.273 60.0877 33.3142C59.1689 33.4968 58.0232 33.6463 56.9993 33.5632C56.5168 33.534 56.0439 33.4158 55.6045 33.2145C55.19 33.025 54.8592 32.6903 54.6746 32.2736C54.4698 31.7755 54.4698 31.1556 54.7023 30.3641L51.1046 33.3197L42.9628 40.0556V50.9759L69.6409 29.96C69.6357 29.7299 69.6656 29.5004 69.7295 29.2792C69.9343 28.5376 69.9232 28.1612 69.6022 28.1944V28.1889ZM81.0815 31.7257C80.6775 31.7257 80.0022 32.2958 78.9229 33.4415C77.4562 35.0078 75.1481 36.5244 73.9249 36.8344L73.7367 36.934C73.5359 37.0169 73.3329 37.0944 73.1279 37.1664C72.7958 37.2771 72.3641 37.41 71.8659 37.5428C70.8697 37.814 69.6299 38.0631 68.5229 38.0354C68.001 38.0348 67.4842 37.9333 67.0008 37.7365C66.5452 37.5488 66.1801 37.1916 65.9824 36.7403C65.6613 35.9709 65.7887 34.8916 66.4916 33.3584L42.9573 51.8947V58.5643H53.2964L75.2256 41.3397C75.7957 40.7088 76.6536 39.8453 77.8104 38.766C80.9099 35.8934 81.6128 34.9027 81.6128 33.4359C81.6128 32.2958 81.4855 31.7201 81.0815 31.7201V31.7257ZM86.3009 42.5187L84.4246 44.3895C83.3729 45.3857 81.4966 46.6145 80.2125 47.1403L79.9579 47.251L79.9413 47.2787L79.886 47.334C79.8362 47.3727 79.814 47.3783 79.7753 47.3949C79.2627 47.5889 78.7419 47.7606 78.2144 47.9096C77.0417 48.251 75.8354 48.4644 74.6168 48.5461C74.0406 48.5831 73.4621 48.5327 72.901 48.3967C72.414 48.2895 71.9841 48.0055 71.6944 47.5997C71.4287 47.1901 71.3512 46.6421 71.5006 45.9669C71.6195 45.4861 71.7961 45.0215 72.0265 44.5832L54.3315 58.5643H77.8657L80.6775 55.343C84.5408 50.8376 86.3009 47.6163 86.3009 44.8599V42.5187Z" fill="#E3AC1D"/>
<path d="M90.5793 0.580933L90.1642 2.74507C89.5222 6.84641 89.7546 8.0198 91.5147 9.54189L93.214 10.9478L91.4538 18.7962C90.4022 23.4787 89.1126 27.4029 88.2934 28.6925C87.5905 29.8051 86.7714 31.4434 86.5942 32.3234C86.3009 33.3751 85.3046 34.4322 83.7825 35.3676C82.4375 36.1314 79.7974 38.1793 77.9266 39.8232C76.4322 41.1682 75.4027 41.9928 74.8437 42.3471L73.0172 43.7917C72.4305 44.7326 72.0984 45.4909 71.9711 46.0665C71.8438 46.6587 71.9157 47.0517 72.1039 47.3395C72.2866 47.6163 72.6021 47.81 73.0338 47.9318C73.5449 48.0516 74.0709 48.0945 74.5946 48.0591C75.7795 47.9781 76.9522 47.7703 78.0927 47.4392C78.4801 47.334 78.7845 47.2344 79.0502 47.1458C79.4598 46.6421 80.4062 45.6901 82.0833 44.0352C86.5333 39.6461 88.2326 37.2439 86.478 37.8915C85.8304 38.124 86.1238 37.5373 87.2363 36.3639C89.5831 34.078 90.928 30.6242 93.7398 19.7925C95.9648 11.2411 95.9648 11.1193 97.6031 11.1193C98.3724 11.1193 100.548 11.2522 100.548 11.2522V0.580933H95.5552H90.5793ZM70.8641 18.8737C69.2479 18.8626 65.772 21.3256 55.3665 29.8217C54.9182 30.8899 54.8794 31.626 55.0842 32.102C55.217 32.4286 55.4606 32.6555 55.7982 32.8216C56.1303 32.9876 56.562 33.0872 57.038 33.126C57.9845 33.209 59.1025 33.0596 60.0047 32.8824L60.6135 32.7441C60.8219 32.4646 61.0956 32.2404 61.4106 32.091C62.0526 31.7367 64.7481 29.2792 67.4436 26.6446C72.187 21.8404 73.2995 19.6707 71.3678 18.9678C71.2093 18.9047 71.0347 18.8728 70.8641 18.8737ZM83.0187 22.2112C81.5962 22.25 79.0336 23.8994 74.6444 27.4029C72.4416 29.1907 71.0468 30.1538 70.2996 30.353L67.3993 32.6445C66.3089 34.637 66.1484 35.8713 66.4362 36.5521C66.5083 36.72 66.6128 36.872 66.7439 36.9993C66.875 37.1266 67.0301 37.2267 67.2 37.2937C67.6229 37.4607 68.0738 37.5453 68.5284 37.5428C69.6148 37.5312 70.6946 37.373 71.7386 37.0723C72.2827 36.9263 72.8201 36.7564 73.3493 36.5631L73.5098 36.4967L73.8031 36.3417C74.3566 35.6277 75.6296 34.2828 77.2237 32.733C82.2604 27.8734 84.8341 24.4196 84.3083 23.13C84.0703 22.5046 83.6608 22.1891 83.0187 22.2112Z" fill="#E31D88"/>
<path d="M90.5793 0.580933L90.1642 2.74507C89.5222 6.84641 89.7546 8.0198 91.5147 9.54189L93.214 10.9478L91.4538 18.7962C90.4022 23.4787 89.1126 27.4029 88.2934 28.6925C87.5905 29.8051 86.7714 31.4434 86.5942 32.3234C86.3009 33.3751 85.3046 34.4322 83.7825 35.3676C82.4375 36.1314 79.7974 38.1793 77.9266 39.8232C76.4322 41.1682 75.4027 41.9928 74.8437 42.3471L73.0172 43.7917C72.4305 44.7326 72.0984 45.4909 71.9711 46.0665C71.8438 46.6587 71.9157 47.0517 72.1039 47.3395C72.2866 47.6163 72.6021 47.81 73.0338 47.9318C73.5449 48.0516 74.0709 48.0945 74.5946 48.0591C75.7795 47.9781 76.9522 47.7703 78.0927 47.4392C78.4801 47.334 78.7845 47.2344 79.0502 47.1458C79.4598 46.6421 80.4062 45.6901 82.0833 44.0352C86.5333 39.6461 88.2326 37.2439 86.478 37.8915C85.8304 38.124 86.1238 37.5373 87.2363 36.3639C89.5831 34.078 90.928 30.6242 93.7398 19.7925C95.9648 11.2411 95.9648 11.1193 97.6031 11.1193C98.3724 11.1193 100.548 11.2522 100.548 11.2522V0.580933H95.5552H90.5793ZM70.8641 18.8737C69.2479 18.8626 65.772 21.3256 55.3665 29.8217C54.9182 30.8899 54.8794 31.626 55.0842 32.102C55.217 32.4286 55.4606 32.6555 55.7982 32.8216C56.1303 32.9876 56.562 33.0872 57.038 33.126C57.9845 33.209 59.1025 33.0596 60.0047 32.8824L60.6135 32.7441C60.8219 32.4646 61.0956 32.2404 61.4106 32.091C62.0526 31.7367 64.7481 29.2792 67.4436 26.6446C72.187 21.8404 73.2995 19.6707 71.3678 18.9678C71.2093 18.9047 71.0347 18.8728 70.8641 18.8737ZM83.0187 22.2112C81.5962 22.25 79.0336 23.8994 74.6444 27.4029C72.4416 29.1907 71.0468 30.1538 70.2996 30.353L67.3993 32.6445C66.3089 34.637 66.1484 35.8713 66.4362 36.5521C66.5083 36.72 66.6128 36.872 66.7439 36.9993C66.875 37.1266 67.0301 37.2267 67.2 37.2937C67.6229 37.4607 68.0738 37.5453 68.5284 37.5428C69.6148 37.5312 70.6946 37.373 71.7386 37.0723C72.2827 36.9263 72.8201 36.7564 73.3493 36.5631L73.5098 36.4967L73.8031 36.3417C74.3566 35.6277 75.6296 34.2828 77.2237 32.733C82.2604 27.8734 84.8341 24.4196 84.3083 23.13C84.0703 22.5046 83.6608 22.1891 83.0187 22.2112Z" fill="#E31D88"/>
</svg>
