<svg width="70" height="70" viewBox="0 0 70 70" fill="none" xmlns="http://www.w3.org/2000/svg">
<rect x="10.739" y="25.7391" width="55.9891" height="43.913" fill="white"/>
<path d="M0.76416 0.474487H69.9272V69.6375H0.76416V0.474487ZM41.9162 57.5724C43.8374 61.338 47.7182 64.2198 53.7892 64.2198C59.937 64.2198 64.5479 61.0306 64.5479 55.1517C64.5479 49.7339 61.4355 47.3132 55.9025 44.931L54.2887 44.2393C51.4837 43.0482 50.2926 42.2413 50.2926 40.3201C50.2926 38.7447 51.4837 37.5151 53.4049 37.5151C55.2493 37.5151 56.4788 38.322 57.5931 40.3201L62.6267 36.9772C60.5133 33.2885 57.5163 31.8668 53.4049 31.8668C47.6029 31.8668 43.8758 35.5555 43.8758 40.4354C43.8758 45.7379 46.9881 48.2354 51.6758 50.2335L53.2897 50.9251C56.2867 52.2315 58.0542 53.0384 58.0542 55.267C58.0542 57.1113 56.3251 58.4562 53.6355 58.4562C50.4463 58.4562 48.6019 56.8039 47.2187 54.4985L41.9162 57.5724ZM39.1881 32.1742H19.9761V37.9378H25.7397V65.7951H32.4639V37.9378H39.1881V32.1742Z" fill="#007ACC"/>
</svg>
