<svg width="1580" height="569" viewBox="0 0 1580 569" fill="none" xmlns="http://www.w3.org/2000/svg">
<path d="M168.085 0H201.702V40.6429H168.085V0Z" fill="#542260"/>
<path d="M67.234 40.6428H100.851V81.2857H67.234V40.6428Z" fill="black"/>
<path d="M100.851 40.6428H134.468V81.2857H100.851V40.6428Z" fill="white"/>
<path d="M168.085 40.6429H201.702V81.2857H168.085V40.6429Z" fill="#00E7B2"/>
<path d="M134.468 81.2857H168.085L168.085 121.929H134.468L134.468 81.2857Z" fill="#8700A0"/>
<path d="M168.085 81.2857H201.702V121.929H168.085L168.085 81.2857Z" fill="white"/>
<path d="M201.702 81.2857L235.319 81.2858V121.929H201.702V81.2857Z" fill="white"/>
<path d="M235.319 81.2858H268.936V121.929H235.319V81.2858Z" fill="white"/>
<path d="M268.936 81.2858H302.553V121.929H268.936V81.2858Z" fill="white"/>
<path d="M302.553 81.2858H336.17V121.929H302.553V81.2858Z" fill="white"/>
<path d="M336.17 81.2858H369.787V121.929H336.17V81.2858Z" fill="white"/>
<path d="M369.787 81.2858H403.404V121.929H369.787V81.2858Z" fill="white"/>
<path d="M403.404 81.2858H437.021V121.929H403.404V81.2858Z" fill="white"/>
<path d="M437.021 81.2858H470.638V121.929H437.021V81.2858Z" fill="white"/>
<path d="M470.638 81.2858H504.255V121.929H470.638V81.2858Z" fill="white"/>
<path d="M504.255 81.2858H537.872V121.929H504.255V81.2858Z" fill="white"/>
<path d="M537.872 81.2858H571.489V121.929H537.872V81.2858Z" fill="white"/>
<path d="M571.489 81.2858H605.107V121.929H571.489V81.2858Z" fill="white"/>
<path d="M605.107 81.2858H638.724V121.929H605.107V81.2858Z" fill="white"/>
<path d="M638.724 81.2858H672.341V121.929H638.724V81.2858Z" fill="white"/>
<path d="M672.341 81.2858H705.958V121.929H672.341V81.2858Z" fill="white"/>
<path d="M705.958 81.2858H739.575V121.929H705.958V81.2858Z" fill="white"/>
<path d="M739.575 81.2858H773.192V121.929H739.575V81.2858Z" fill="white"/>
<path d="M773.192 81.2858H806.809V121.929H773.192V81.2858Z" fill="white"/>
<path d="M806.809 81.2858H840.425V121.929H806.809V81.2858Z" fill="white"/>
<path d="M840.425 81.2858H874.042V121.929H840.425V81.2858Z" fill="white"/>
<path d="M874.042 81.2858H907.659V121.929H874.042V81.2858Z" fill="white"/>
<path d="M907.659 81.2858H941.276V121.929H907.659V81.2858Z" fill="white"/>
<path d="M941.276 81.2858H974.893V121.929H941.276V81.2858Z" fill="white"/>
<path d="M974.893 81.2858H1008.51V121.929H974.893V81.2858Z" fill="white"/>
<path d="M1008.51 81.2858H1042.13V121.929H1008.51V81.2858Z" fill="white"/>
<path d="M1042.13 81.2858H1075.74V121.929H1042.13V81.2858Z" fill="white"/>
<path d="M1075.74 81.2858H1109.36V121.929H1075.74V81.2858Z" fill="white"/>
<path d="M1109.36 81.2858H1142.98V121.929H1109.36V81.2858Z" fill="white"/>
<path d="M1142.98 81.2858H1176.6V121.929H1142.98V81.2858Z" fill="white"/>
<path d="M1176.6 81.2858H1210.21V121.929H1176.6V81.2858Z" fill="white"/>
<path d="M1210.21 81.2858H1243.83V121.929H1210.21V81.2858Z" fill="white"/>
<path d="M1243.83 81.2858H1277.45V121.929H1243.83V81.2858Z" fill="white"/>
<path d="M1277.45 81.2858H1311.06V121.929H1277.45V81.2858Z" fill="white"/>
<path d="M1311.06 81.2858H1344.68V121.929H1311.06V81.2858Z" fill="white"/>
<path d="M1344.68 81.2858H1378.3V121.929H1344.68V81.2858Z" fill="white"/>
<path d="M1378.3 81.2858H1411.92V121.929H1378.3V81.2858Z" fill="white"/>
<path d="M1411.92 81.2858H1445.53V121.929H1411.92V81.2858Z" fill="white"/>
<path d="M1445.53 81.2858H1479.15V121.929H1445.53V81.2858Z" fill="white"/>
<path d="M1479.15 81.2858H1512.77V121.929H1479.15V81.2858Z" fill="white"/>
<path d="M33.617 121.929H67.234V162.571H33.617V121.929Z" fill="white"/>
<path d="M67.234 121.929H100.851V162.571H67.234V121.929Z" fill="white"/>
<path d="M134.468 121.929H168.085V162.571H134.468V121.929Z" fill="white"/>
<path d="M168.085 121.929H201.702V162.571H168.085V121.929Z" fill="#8700A0"/>
<path d="M201.702 121.929H235.319V162.571H201.702V121.929Z" fill="#8700A0"/>
<path d="M235.319 121.929H268.936V162.571H235.319V121.929Z" fill="white"/>
<path d="M268.936 121.929H302.553V162.571H268.936V121.929Z" fill="white"/>
<path d="M302.553 121.929H336.17V162.571H302.553V121.929Z" fill="white"/>
<path d="M336.17 121.929H369.787V162.571H336.17V121.929Z" fill="white"/>
<path d="M369.787 121.929H403.404V162.571H369.787V121.929Z" fill="white"/>
<path d="M403.404 121.929H437.021V162.571H403.404V121.929Z" fill="white"/>
<path d="M437.021 121.929H470.638V162.571H437.021V121.929Z" fill="white"/>
<path d="M470.638 121.929H504.255V162.571H470.638V121.929Z" fill="white"/>
<path d="M504.255 121.929H537.872V162.571H504.255V121.929Z" fill="white"/>
<path d="M537.872 121.929H571.489V162.571H537.872V121.929Z" fill="white"/>
<path d="M571.489 121.929H605.107V162.571H571.489V121.929Z" fill="white"/>
<path d="M605.107 121.929H638.724V162.571H605.107V121.929Z" fill="white"/>
<path d="M638.724 121.929H672.341V162.571H638.724V121.929Z" fill="white"/>
<path d="M672.341 121.929H705.958V162.571H672.341V121.929Z" fill="white"/>
<path d="M705.958 121.929H739.575V162.571H705.958V121.929Z" fill="white"/>
<path d="M739.575 121.929H773.192V162.571H739.575V121.929Z" fill="white"/>
<path d="M773.192 121.929H806.809V162.571H773.192V121.929Z" fill="white"/>
<path d="M806.809 121.929H840.425V162.571H806.809V121.929Z" fill="white"/>
<path d="M840.425 121.929H874.042V162.571H840.425V121.929Z" fill="white"/>
<path d="M874.042 121.929H907.659V162.571H874.042V121.929Z" fill="white"/>
<path d="M907.659 121.929H941.276V162.571H907.659V121.929Z" fill="white"/>
<path d="M941.276 121.929H974.893V162.571H941.276V121.929Z" fill="white"/>
<path d="M974.893 121.929H1008.51V162.571H974.893V121.929Z" fill="white"/>
<path d="M1008.51 121.929H1042.13V162.571H1008.51V121.929Z" fill="white"/>
<path d="M1042.13 121.929H1075.74V162.571H1042.13V121.929Z" fill="white"/>
<path d="M1075.74 121.929H1109.36V162.571H1075.74V121.929Z" fill="white"/>
<path d="M1109.36 121.929H1142.98V162.571H1109.36V121.929Z" fill="white"/>
<path d="M1142.98 121.929H1176.6V162.571H1142.98V121.929Z" fill="white"/>
<path d="M1176.6 121.929H1210.21V162.571H1176.6V121.929Z" fill="white"/>
<path d="M1210.21 121.929H1243.83V162.571H1210.21V121.929Z" fill="white"/>
<path d="M1243.83 121.929H1277.45V162.571H1243.83V121.929Z" fill="white"/>
<path d="M1277.45 121.929H1311.06V162.571H1277.45V121.929Z" fill="white"/>
<path d="M1311.06 121.929H1344.68V162.571H1311.06V121.929Z" fill="white"/>
<path d="M1344.68 121.929H1378.3V162.571H1344.68V121.929Z" fill="white"/>
<path d="M1378.3 121.929H1411.92V162.571H1378.3V121.929Z" fill="white"/>
<path d="M1411.92 121.929H1445.53V162.571H1411.92V121.929Z" fill="white"/>
<path d="M1445.53 121.929H1479.15V162.571H1445.53V121.929Z" fill="white"/>
<path d="M1479.15 121.929H1512.77V162.571H1479.15V121.929Z" fill="white"/>
<path d="M1512.77 121.929L1546.38 121.929V162.571H1512.77V121.929Z" fill="black"/>
<path d="M33.617 162.571H67.234V203.214H33.617V162.571Z" fill="white"/>
<path d="M67.234 162.571H100.851V203.214H67.234V162.571Z" fill="white"/>
<path d="M134.468 162.571H168.085V203.214H134.468V162.571Z" fill="#3F3F3F"/>
<path d="M168.085 162.571H201.702V203.214H168.085V162.571Z" fill="#8700A0"/>
<path d="M201.702 162.571H235.319V203.214H201.702V162.571Z" fill="#8700A0"/>
<path d="M235.319 162.571H268.936V203.214H235.319V162.571Z" fill="white"/>
<path d="M268.936 162.571H302.553V203.214H268.936V162.571Z" fill="black"/>
<path d="M302.553 162.571H336.17V203.214H302.553V162.571Z" fill="black"/>
<path d="M336.17 162.571H369.787V203.214H336.17V162.571Z" fill="black"/>
<path d="M369.787 162.571H403.404V203.214H369.787V162.571Z" fill="black"/>
<path d="M403.404 162.571H437.021V203.214H403.404V162.571Z" fill="black"/>
<path d="M437.021 162.571H470.638V203.214H437.021V162.571Z" fill="black"/>
<path d="M470.638 162.571H504.255V203.214H470.638V162.571Z" fill="black"/>
<path d="M504.255 162.571H537.872V203.214H504.255V162.571Z" fill="black"/>
<path d="M537.872 162.571H571.489V203.214H537.872V162.571Z" fill="black"/>
<path d="M571.489 162.571H605.107V203.214H571.489V162.571Z" fill="#8F8F8F"/>
<path d="M605.107 162.571H638.724V203.214H605.107V162.571Z" fill="white"/>
<path d="M638.724 162.571H672.341V203.214H638.724V162.571Z" fill="black"/>
<path d="M672.341 162.571H705.958V203.214H672.341V162.571Z" fill="black"/>
<path d="M705.958 162.571H739.575V203.214H705.958V162.571Z" fill="black"/>
<path d="M739.575 162.571H773.192V203.214H739.575V162.571Z" fill="black"/>
<path d="M773.192 162.571H806.809V203.214H773.192V162.571Z" fill="black"/>
<path d="M806.809 162.571H840.425V203.214H806.809V162.571Z" fill="black"/>
<path d="M840.425 162.571H874.042V203.214H840.425V162.571Z" fill="black"/>
<path d="M874.042 162.571H907.659V203.214H874.042V162.571Z" fill="black"/>
<path d="M907.659 162.571H941.276V203.214H907.659V162.571Z" fill="black"/>
<path d="M941.276 162.571H974.893V203.214H941.276V162.571Z" fill="white"/>
<path d="M974.893 162.571H1008.51V203.214H974.893V162.571Z" fill="white"/>
<path d="M1008.51 162.571H1042.13V203.214H1008.51V162.571Z" fill="black"/>
<path d="M1042.13 162.571H1075.74V203.214H1042.13V162.571Z" fill="black"/>
<path d="M1075.74 162.571H1109.36V203.214H1075.74V162.571Z" fill="black"/>
<path d="M1109.36 162.571H1142.98V203.214H1109.36V162.571Z" fill="black"/>
<path d="M1142.98 162.571H1176.6V203.214H1142.98V162.571Z" fill="#8F8F8F"/>
<path d="M1176.6 162.571H1210.21V203.214H1176.6V162.571Z" fill="black"/>
<path d="M1210.21 162.571H1243.83V203.214H1210.21V162.571Z" fill="black"/>
<path d="M1243.83 162.571H1277.45V203.214H1243.83V162.571Z" fill="black"/>
<path d="M1277.45 162.571H1311.06V203.214H1277.45V162.571Z" fill="black"/>
<path d="M1311.06 162.571H1344.68V203.214H1311.06V162.571Z" fill="black"/>
<path d="M1344.68 162.571H1378.3V203.214H1344.68V162.571Z" fill="black"/>
<path d="M1378.3 162.571H1411.92V203.214H1378.3V162.571Z" fill="black"/>
<path d="M1411.92 162.571H1445.53V203.214H1411.92V162.571Z" fill="black"/>
<path d="M1445.53 162.571H1479.15V203.214H1445.53V162.571Z" fill="black"/>
<path d="M1479.15 162.571H1512.77V203.214H1479.15V162.571Z" fill="black"/>
<path d="M1512.77 162.571H1546.38V203.214H1512.77V162.571Z" fill="white"/>
<path d="M33.617 203.214H67.234V243.857H33.617V203.214Z" fill="black"/>
<path d="M134.468 203.214H168.085V243.857H134.468V203.214Z" fill="white"/>
<path d="M168.085 203.214H201.702V243.857H168.085V203.214Z" fill="white"/>
<path d="M201.702 203.214H235.319V243.857H201.702V203.214Z" fill="white"/>
<path d="M235.319 203.214H268.936V243.857H235.319V203.214Z" fill="white"/>
<path d="M268.936 203.214H302.553V243.857H268.936V203.214Z" fill="black"/>
<path d="M302.553 203.214H336.17V243.857H302.553V203.214Z" fill="black"/>
<path d="M336.17 203.214H369.787V243.857H336.17V203.214Z" fill="black"/>
<path d="M369.787 203.214H403.404V243.857H369.787V203.214Z" fill="black"/>
<path d="M403.404 203.214H437.021V243.857H403.404V203.214Z" fill="black"/>
<path d="M437.021 203.214H470.638V243.857H437.021V203.214Z" fill="black"/>
<path d="M470.638 203.214H504.255V243.857H470.638V203.214Z" fill="black"/>
<path d="M504.255 203.214H537.872V243.857H504.255V203.214Z" fill="black"/>
<path d="M537.872 203.214H571.489V243.857H537.872V203.214Z" fill="black"/>
<path d="M571.489 203.214H605.107V243.857H571.489V203.214Z" fill="#8F8F8F"/>
<path d="M605.107 203.214H638.724V243.857H605.107V203.214Z" fill="white"/>
<path d="M638.724 203.214H672.341V243.857H638.724V203.214Z" fill="black"/>
<path d="M672.341 203.214H705.958V243.857H672.341V203.214Z" fill="black"/>
<path d="M705.958 203.214H739.575V243.857H705.958V203.214Z" fill="black"/>
<path d="M739.575 203.214H773.192V243.857H739.575V203.214Z" fill="black"/>
<path d="M773.192 203.214H806.809V243.857H773.192V203.214Z" fill="black"/>
<path d="M806.809 203.214H840.425V243.857H806.809V203.214Z" fill="black"/>
<path d="M840.425 203.214H874.042V243.857H840.425V203.214Z" fill="black"/>
<path d="M874.042 203.214H907.659V243.857H874.042V203.214Z" fill="black"/>
<path d="M907.659 203.214H941.276V243.857H907.659V203.214Z" fill="black"/>
<path d="M941.276 203.214H974.893V243.857H941.276V203.214Z" fill="#969696"/>
<path d="M974.893 203.214H1008.51V243.857H974.893V203.214Z" fill="white"/>
<path d="M1008.51 203.214H1042.13V243.857H1008.51V203.214Z" fill="black"/>
<path d="M1042.13 203.214H1075.74V243.857H1042.13V203.214Z" fill="black"/>
<path d="M1075.74 203.214H1109.36V243.857H1075.74V203.214Z" fill="black"/>
<path d="M1109.36 203.214H1142.98V243.857H1109.36V203.214Z" fill="black"/>
<path d="M1142.98 203.214H1176.6V243.857H1142.98V203.214Z" fill="#8F8F8F"/>
<path d="M1176.6 203.214H1210.21V243.857H1176.6V203.214Z" fill="black"/>
<path d="M1210.21 203.214H1243.83V243.857H1210.21V203.214Z" fill="black"/>
<path d="M1243.83 203.214H1277.45V243.857H1243.83V203.214Z" fill="black"/>
<path d="M1277.45 203.214H1311.06V243.857H1277.45V203.214Z" fill="black"/>
<path d="M1311.06 203.214H1344.68V243.857H1311.06V203.214Z" fill="black"/>
<path d="M1344.68 203.214H1378.3V243.857H1344.68V203.214Z" fill="black"/>
<path d="M1378.3 203.214H1411.92V243.857H1378.3V203.214Z" fill="black"/>
<path d="M1411.92 203.214H1445.53V243.857H1411.92V203.214Z" fill="black"/>
<path d="M1445.53 203.214H1479.15V243.857H1445.53V203.214Z" fill="black"/>
<path d="M1479.15 203.214H1512.77V243.857H1479.15V203.214Z" fill="black"/>
<path d="M1512.77 203.214H1546.38V243.857H1512.77V203.214Z" fill="white"/>
<path d="M1546.38 203.214L1580 203.214V243.857H1546.38V203.214Z" fill="black"/>
<path d="M0 243.857L33.617 243.857L33.617 284.5H0V243.857Z" fill="#F5E2FA"/>
<path d="M33.617 243.857H67.234V284.5L33.617 284.5L33.617 243.857Z" fill="white"/>
<path d="M67.234 243.857L100.851 243.857V284.5H67.234V243.857Z" fill="white"/>
<path d="M100.851 243.857L134.468 243.857L134.468 284.5H100.851V243.857Z" fill="#610A70"/>
<path d="M134.468 243.857H168.085V284.5H134.468L134.468 243.857Z" fill="#3F1446"/>
<path d="M168.085 243.857H201.702V284.5H168.085V243.857Z" fill="#8E8E8D"/>
<path d="M201.702 243.857H235.319V284.5H201.702V243.857Z" fill="white"/>
<path d="M235.319 243.857H268.936V284.5H235.319V243.857Z" fill="white"/>
<path d="M268.936 243.857H302.553V284.5H268.936V243.857Z" fill="black"/>
<path d="M302.553 243.857H336.17V284.5H302.553V243.857Z" fill="black"/>
<path d="M336.17 243.857H369.787V284.5H336.17V243.857Z" fill="#FEFEFE"/>
<path d="M369.787 243.857H403.404V284.5H369.787V243.857Z" fill="white"/>
<path d="M403.404 243.857H437.021V284.5H403.404V243.857Z" fill="white"/>
<path d="M437.021 243.857H470.638V284.5H437.021V243.857Z" fill="white"/>
<path d="M470.638 243.857H504.255V284.5H470.638V243.857Z" fill="white"/>
<path d="M504.255 243.857H537.872V284.5H504.255V243.857Z" fill="white"/>
<path d="M537.872 243.857H571.489V284.5H537.872V243.857Z" fill="white"/>
<path d="M571.489 243.857H605.107V284.5H571.489V243.857Z" fill="white"/>
<path d="M605.107 243.857H638.724V284.5H605.107V243.857Z" fill="white"/>
<path d="M638.724 243.857H672.341V284.5H638.724V243.857Z" fill="black"/>
<path d="M672.341 243.857H705.958V284.5H672.341V243.857Z" fill="black"/>
<path d="M705.958 243.857H739.575V284.5H705.958V243.857Z" fill="white"/>
<path d="M739.575 243.857H773.192V284.5H739.575V243.857Z" fill="white"/>
<path d="M773.192 243.857H806.809V284.5H773.192V243.857Z" fill="white"/>
<path d="M806.809 243.857H840.425V284.5H806.809V243.857Z" fill="white"/>
<path d="M840.425 243.857H874.042V284.5H840.425V243.857Z" fill="white"/>
<path d="M874.042 243.857H907.659V284.5H874.042V243.857Z" fill="black"/>
<path d="M907.659 243.857H941.276V284.5H907.659V243.857Z" fill="black"/>
<path d="M941.276 243.857H974.893V284.5H941.276V243.857Z" fill="black"/>
<path d="M974.893 243.857H1008.51V284.5H974.893V243.857Z" fill="white"/>
<path d="M1008.51 243.857H1042.13V284.5H1008.51V243.857Z" fill="white"/>
<path d="M1042.13 243.857H1075.74V284.5H1042.13V243.857Z" fill="white"/>
<path d="M1075.74 243.857H1109.36V284.5H1075.74V243.857Z" fill="black"/>
<path d="M1109.36 243.857H1142.98V284.5H1109.36V243.857Z" fill="black"/>
<path d="M1142.98 243.857H1176.6V284.5H1142.98V243.857Z" fill="#8F8F8F"/>
<path d="M1176.6 243.857H1210.21V284.5H1176.6V243.857Z" fill="white"/>
<path d="M1210.21 243.857H1243.83V284.5H1210.21V243.857Z" fill="white"/>
<path d="M1243.83 243.857H1277.45V284.5H1243.83V243.857Z" fill="white"/>
<path d="M1277.45 243.857H1311.06V284.5H1277.45V243.857Z" fill="white"/>
<path d="M1311.06 243.857H1344.68V284.5H1311.06V243.857Z" fill="black"/>
<path d="M1344.68 243.857H1378.3V284.5H1344.68V243.857Z" fill="black"/>
<path d="M1378.3 243.857H1411.92V284.5H1378.3V243.857Z" fill="#FBFBFB"/>
<path d="M1411.92 243.857H1445.53V284.5H1411.92V243.857Z" fill="white"/>
<path d="M1445.53 243.857H1479.15V284.5H1445.53V243.857Z" fill="white"/>
<path d="M1479.15 243.857H1512.77V284.5H1479.15V243.857Z" fill="white"/>
<path d="M1512.77 243.857H1546.38V284.5H1512.77V243.857Z" fill="white"/>
<path d="M1546.38 243.857H1580V284.5H1546.38V243.857Z" fill="black"/>
<path d="M0 284.5H33.617V325.143H0V284.5Z" fill="white"/>
<path d="M33.617 284.5L67.234 284.5V325.143H33.617V284.5Z" fill="white"/>
<path d="M67.234 284.5H100.851V325.143H67.234V284.5Z" fill="white"/>
<path d="M100.851 284.5H134.468V325.143H100.851V284.5Z" fill="#610A70"/>
<path d="M134.468 284.5H168.085V325.143H134.468V284.5Z" fill="#3F1446"/>
<path d="M168.085 284.5H201.702V325.143H168.085V284.5Z" fill="#8E8E8D"/>
<path d="M201.702 284.5H235.319V325.143H201.702V284.5Z" fill="white"/>
<path d="M235.319 284.5H268.936V325.143H235.319V284.5Z" fill="white"/>
<path d="M268.936 284.5H302.553V325.143H268.936V284.5Z" fill="black"/>
<path d="M302.553 284.5H336.17V325.143H302.553V284.5Z" fill="black"/>
<path d="M336.17 284.5H369.787V325.143H336.17V284.5Z" fill="black"/>
<path d="M369.787 284.5H403.404V325.143H369.787V284.5Z" fill="black"/>
<path d="M403.404 284.5H437.021V325.143H403.404V284.5Z" fill="black"/>
<path d="M437.021 284.5H470.638V325.143H437.021V284.5Z" fill="black"/>
<path d="M470.638 284.5H504.255V325.143H470.638V284.5Z" fill="black"/>
<path d="M504.255 284.5H537.872V325.143H504.255V284.5Z" fill="black"/>
<path d="M537.872 284.5H571.489V325.143H537.872V284.5Z" fill="black"/>
<path d="M571.489 284.5H605.107V325.143H571.489V284.5Z" fill="white"/>
<path d="M605.107 284.5H638.724V325.143H605.107V284.5Z" fill="white"/>
<path d="M638.724 284.5H672.341V325.143H638.724V284.5Z" fill="black"/>
<path d="M672.341 284.5H705.958V325.143H672.341V284.5Z" fill="black"/>
<path d="M705.958 284.5H739.575V325.143H705.958V284.5Z" fill="black"/>
<path d="M739.575 284.5H773.192V325.143H739.575V284.5Z" fill="black"/>
<path d="M773.192 284.5H806.809V325.143H773.192V284.5Z" fill="black"/>
<path d="M806.809 284.5H840.425V325.143H806.809V284.5Z" fill="black"/>
<path d="M840.425 284.5H874.042V325.143H840.425V284.5Z" fill="black"/>
<path d="M874.042 284.5H907.659V325.143H874.042V284.5Z" fill="black"/>
<path d="M907.659 284.5H941.276V325.143H907.659V284.5Z" fill="black"/>
<path d="M941.276 284.5H974.893V325.143H941.276V284.5Z" fill="#8E8E8E"/>
<path d="M974.893 284.5H1008.51V325.143H974.893V284.5Z" fill="white"/>
<path d="M1008.51 284.5H1042.13V325.143H1008.51V284.5Z" fill="white"/>
<path d="M1042.13 284.5H1075.74V325.143H1042.13V284.5Z" fill="white"/>
<path d="M1075.74 284.5H1109.36V325.143H1075.74V284.5Z" fill="black"/>
<path d="M1109.36 284.5H1142.98V325.143H1109.36V284.5Z" fill="black"/>
<path d="M1142.98 284.5H1176.6V325.143H1142.98V284.5Z" fill="#8F8F8F"/>
<path d="M1176.6 284.5H1210.21V325.143H1176.6V284.5Z" fill="white"/>
<path d="M1210.21 284.5H1243.83V325.143H1210.21V284.5Z" fill="white"/>
<path d="M1243.83 284.5H1277.45V325.143H1243.83V284.5Z" fill="white"/>
<path d="M1277.45 284.5H1311.06V325.143H1277.45V284.5Z" fill="white"/>
<path d="M1311.06 284.5H1344.68V325.143H1311.06V284.5Z" fill="black"/>
<path d="M1344.68 284.5H1378.3V325.143H1344.68V284.5Z" fill="black"/>
<path d="M1378.3 284.5H1411.92V325.143H1378.3V284.5Z" fill="#FBFBFB"/>
<path d="M1411.92 284.5H1445.53V325.143H1411.92V284.5Z" fill="white"/>
<path d="M1445.53 284.5H1479.15V325.143H1445.53V284.5Z" fill="white"/>
<path d="M1479.15 284.5H1512.77V325.143H1479.15V284.5Z" fill="white"/>
<path d="M1512.77 284.5H1546.38V325.143H1512.77V284.5Z" fill="white"/>
<path d="M1546.38 284.5H1580V325.143H1546.38V284.5Z" fill="black"/>
<path d="M0 325.143H33.617V365.786H0V325.143Z" fill="white"/>
<path d="M33.617 325.143H67.234V365.786L33.617 365.786V325.143Z" fill="white"/>
<path d="M67.234 325.143H100.851V365.786H67.234V325.143Z" fill="white"/>
<path d="M100.851 325.143H134.468V365.786H100.851V325.143Z" fill="#610A70"/>
<path d="M134.468 325.143H168.085V365.786H134.468V325.143Z" fill="#3F1446"/>
<path d="M168.085 325.143H201.702V365.786H168.085V325.143Z" fill="#8E8E8D"/>
<path d="M201.702 325.143H235.319V365.786H201.702V325.143Z" fill="white"/>
<path d="M235.319 325.143H268.936V365.786H235.319V325.143Z" fill="white"/>
<path d="M268.936 325.143H302.553V365.786H268.936V325.143Z" fill="black"/>
<path d="M302.553 325.143H336.17V365.786H302.553V325.143Z" fill="black"/>
<path d="M336.17 325.143H369.787V365.786H336.17V325.143Z" fill="black"/>
<path d="M369.787 325.143H403.404V365.786H369.787V325.143Z" fill="black"/>
<path d="M403.404 325.143H437.021V365.786H403.404V325.143Z" fill="black"/>
<path d="M437.021 325.143H470.638V365.786H437.021V325.143Z" fill="black"/>
<path d="M470.638 325.143H504.255V365.786H470.638V325.143Z" fill="black"/>
<path d="M504.255 325.143H537.872V365.786H504.255V325.143Z" fill="black"/>
<path d="M537.872 325.143H571.489V365.786H537.872V325.143Z" fill="black"/>
<path d="M571.489 325.143H605.107V365.786H571.489V325.143Z" fill="white"/>
<path d="M605.107 325.143H638.724V365.786H605.107V325.143Z" fill="white"/>
<path d="M638.724 325.143H672.341V365.786H638.724V325.143Z" fill="black"/>
<path d="M672.341 325.143H705.958V365.786H672.341V325.143Z" fill="black"/>
<path d="M705.958 325.143H739.575V365.786H705.958V325.143Z" fill="black"/>
<path d="M739.575 325.143H773.192V365.786H739.575V325.143Z" fill="black"/>
<path d="M773.192 325.143H806.809V365.786H773.192V325.143Z" fill="black"/>
<path d="M806.809 325.143H840.425V365.786H806.809V325.143Z" fill="black"/>
<path d="M840.425 325.143H874.042V365.786H840.425V325.143Z" fill="black"/>
<path d="M874.042 325.143H907.659V365.786H874.042V325.143Z" fill="black"/>
<path d="M907.659 325.143H941.276V365.786H907.659V325.143Z" fill="black"/>
<path d="M941.276 325.143H974.893V365.786H941.276V325.143Z" fill="black"/>
<path d="M974.893 325.143H1008.51V365.786H974.893V325.143Z" fill="white"/>
<path d="M1008.51 325.143H1042.13V365.786H1008.51V325.143Z" fill="white"/>
<path d="M1042.13 325.143H1075.74V365.786H1042.13V325.143Z" fill="white"/>
<path d="M1075.74 325.143H1109.36V365.786H1075.74V325.143Z" fill="black"/>
<path d="M1109.36 325.143H1142.98V365.786H1109.36V325.143Z" fill="black"/>
<path d="M1142.98 325.143H1176.6V365.786H1142.98V325.143Z" fill="#8F8F8F"/>
<path d="M1176.6 325.143H1210.21V365.786H1176.6V325.143Z" fill="white"/>
<path d="M1210.21 325.143H1243.83V365.786H1210.21V325.143Z" fill="white"/>
<path d="M1243.83 325.143H1277.45V365.786H1243.83V325.143Z" fill="white"/>
<path d="M1277.45 325.143H1311.06V365.786H1277.45V325.143Z" fill="white"/>
<path d="M1311.06 325.143H1344.68V365.786H1311.06V325.143Z" fill="black"/>
<path d="M1344.68 325.143H1378.3V365.786H1344.68V325.143Z" fill="black"/>
<path d="M1378.3 325.143H1411.92V365.786H1378.3V325.143Z" fill="#FBFBFB"/>
<path d="M1411.92 325.143H1445.53V365.786H1411.92V325.143Z" fill="white"/>
<path d="M1445.53 325.143H1479.15V365.786H1445.53V325.143Z" fill="white"/>
<path d="M1479.15 325.143H1512.77V365.786H1479.15V325.143Z" fill="white"/>
<path d="M1512.77 325.143H1546.38V365.786H1512.77V325.143Z" fill="white"/>
<path d="M1546.38 325.143H1580V365.786H1546.38V325.143Z" fill="black"/>
<path d="M33.617 365.786L67.234 365.786V406.428H33.617L33.617 365.786Z" fill="black"/>
<path d="M134.468 365.786H168.085V406.428H134.468L134.468 365.786Z" fill="white"/>
<path d="M168.085 365.786H201.702V406.428H168.085V365.786Z" fill="white"/>
<path d="M201.702 365.786H235.319V406.428H201.702V365.786Z" fill="white"/>
<path d="M235.319 365.786H268.936V406.428H235.319V365.786Z" fill="white"/>
<path d="M268.936 365.786H302.553V406.428H268.936V365.786Z" fill="black"/>
<path d="M302.553 365.786H336.17V406.428H302.553V365.786Z" fill="black"/>
<path d="M336.17 365.786H369.787V406.428H336.17V365.786Z" fill="#FEFEFE"/>
<path d="M369.787 365.786H403.404V406.428H369.787V365.786Z" fill="white"/>
<path d="M403.404 365.786H437.021V406.428H403.404V365.786Z" fill="white"/>
<path d="M437.021 365.786H470.638V406.428H437.021V365.786Z" fill="white"/>
<path d="M470.638 365.786H504.255V406.428H470.638V365.786Z" fill="white"/>
<path d="M504.255 365.786H537.872V406.428H504.255V365.786Z" fill="white"/>
<path d="M537.872 365.786H571.489V406.428H537.872V365.786Z" fill="white"/>
<path d="M571.489 365.786H605.107V406.428H571.489V365.786Z" fill="white"/>
<path d="M605.107 365.786H638.724V406.428H605.107V365.786Z" fill="white"/>
<path d="M638.724 365.786H672.341V406.428H638.724V365.786Z" fill="black"/>
<path d="M672.341 365.786H705.958V406.428H672.341V365.786Z" fill="black"/>
<path d="M705.958 365.786H739.575V406.428H705.958V365.786Z" fill="white"/>
<path d="M739.575 365.786H773.192V406.428H739.575V365.786Z" fill="white"/>
<path d="M773.192 365.786H806.809V406.428H773.192V365.786Z" fill="white"/>
<path d="M806.809 365.786H840.425V406.428H806.809V365.786Z" fill="white"/>
<path d="M840.425 365.786H874.042V406.428H840.425V365.786Z" fill="white"/>
<path d="M874.042 365.786H907.659V406.428H874.042V365.786Z" fill="white"/>
<path d="M907.659 365.786H941.276V406.428H907.659V365.786Z" fill="black"/>
<path d="M941.276 365.786H974.893V406.428H941.276V365.786Z" fill="black"/>
<path d="M974.893 365.786H1008.51V406.428H974.893V365.786Z" fill="white"/>
<path d="M1008.51 365.786H1042.13V406.428H1008.51V365.786Z" fill="white"/>
<path d="M1042.13 365.786H1075.74V406.428H1042.13V365.786Z" fill="white"/>
<path d="M1075.74 365.786H1109.36V406.428H1075.74V365.786Z" fill="black"/>
<path d="M1109.36 365.786H1142.98V406.428H1109.36V365.786Z" fill="black"/>
<path d="M1142.98 365.786H1176.6V406.428H1142.98V365.786Z" fill="#8F8F8F"/>
<path d="M1176.6 365.786H1210.21V406.428H1176.6V365.786Z" fill="white"/>
<path d="M1210.21 365.786H1243.83V406.428H1210.21V365.786Z" fill="white"/>
<path d="M1243.83 365.786H1277.45V406.428H1243.83V365.786Z" fill="white"/>
<path d="M1277.45 365.786H1311.06V406.428H1277.45V365.786Z" fill="white"/>
<path d="M1311.06 365.786H1344.68V406.428H1311.06V365.786Z" fill="black"/>
<path d="M1344.68 365.786H1378.3V406.428H1344.68V365.786Z" fill="black"/>
<path d="M1378.3 365.786H1411.92V406.428H1378.3V365.786Z" fill="#FBFBFB"/>
<path d="M1411.92 365.786H1445.53V406.428H1411.92V365.786Z" fill="white"/>
<path d="M1445.53 365.786H1479.15V406.428H1445.53V365.786Z" fill="white"/>
<path d="M1479.15 365.786H1512.77V406.428H1479.15V365.786Z" fill="white"/>
<path d="M1512.77 365.786H1546.38V406.428H1512.77V365.786Z" fill="white"/>
<path d="M1546.38 365.786H1580V406.428H1546.38V365.786Z" fill="black"/>
<path d="M100.851 406.428L134.468 406.428L134.468 447.071H100.851V406.428Z" fill="#BB2FDD"/>
<path d="M134.468 406.428H168.085V447.071H134.468L134.468 406.428Z" fill="white"/>
<path d="M168.085 406.428H201.702V447.071H168.085V406.428Z" fill="white"/>
<path d="M201.702 406.428H235.319V447.071H201.702V406.428Z" fill="white"/>
<path d="M235.319 406.428H268.936V447.071H235.319V406.428Z" fill="white"/>
<path d="M268.936 406.428H302.553V447.071H268.936V406.428Z" fill="black"/>
<path d="M302.553 406.428H336.17V447.071H302.553V406.428Z" fill="black"/>
<path d="M336.17 406.428H369.787V447.071H336.17V406.428Z" fill="#FEFEFE"/>
<path d="M369.787 406.428H403.404V447.071H369.787V406.428Z" fill="white"/>
<path d="M403.404 406.428H437.021V447.071H403.404V406.428Z" fill="white"/>
<path d="M437.021 406.428H470.638V447.071H437.021V406.428Z" fill="white"/>
<path d="M470.638 406.428H504.255V447.071H470.638V406.428Z" fill="white"/>
<path d="M504.255 406.428H537.872V447.071H504.255V406.428Z" fill="white"/>
<path d="M537.872 406.428H571.489V447.071H537.872V406.428Z" fill="white"/>
<path d="M571.489 406.428H605.107V447.071H571.489V406.428Z" fill="white"/>
<path d="M605.107 406.428H638.724V447.071H605.107V406.428Z" fill="white"/>
<path d="M638.724 406.428H672.341V447.071H638.724V406.428Z" fill="black"/>
<path d="M672.341 406.428H705.958V447.071H672.341V406.428Z" fill="black"/>
<path d="M705.958 406.428H739.575V447.071H705.958V406.428Z" fill="black"/>
<path d="M739.575 406.428H773.192V447.071H739.575V406.428Z" fill="black"/>
<path d="M773.192 406.428H806.809V447.071H773.192V406.428Z" fill="black"/>
<path d="M806.809 406.428H840.425V447.071H806.809V406.428Z" fill="black"/>
<path d="M840.425 406.428H874.042V447.071H840.425V406.428Z" fill="black"/>
<path d="M874.042 406.428H907.659V447.071H874.042V406.428Z" fill="black"/>
<path d="M907.659 406.428H941.276V447.071H907.659V406.428Z" fill="black"/>
<path d="M941.276 406.428H974.893V447.071H941.276V406.428Z" fill="black"/>
<path d="M974.893 406.428H1008.51V447.071H974.893V406.428Z" fill="white"/>
<path d="M1008.51 406.428H1042.13V447.071H1008.51V406.428Z" fill="white"/>
<path d="M1042.13 406.428H1075.74V447.071H1042.13V406.428Z" fill="white"/>
<path d="M1075.74 406.428H1109.36V447.071H1075.74V406.428Z" fill="black"/>
<path d="M1109.36 406.428H1142.98V447.071H1109.36V406.428Z" fill="black"/>
<path d="M1142.98 406.428H1176.6V447.071H1142.98V406.428Z" fill="#8F8F8F"/>
<path d="M1176.6 406.428H1210.21V447.071H1176.6V406.428Z" fill="white"/>
<path d="M1210.21 406.428H1243.83V447.071H1210.21V406.428Z" fill="white"/>
<path d="M1243.83 406.428H1277.45V447.071H1243.83V406.428Z" fill="white"/>
<path d="M1277.45 406.428H1311.06V447.071H1277.45V406.428Z" fill="white"/>
<path d="M1311.06 406.428H1344.68V447.071H1311.06V406.428Z" fill="black"/>
<path d="M1344.68 406.428H1378.3V447.071H1344.68V406.428Z" fill="black"/>
<path d="M1378.3 406.428H1411.92V447.071H1378.3V406.428Z" fill="#FBFBFB"/>
<path d="M1411.92 406.428H1445.53V447.071H1411.92V406.428Z" fill="white"/>
<path d="M1445.53 406.428H1479.15V447.071H1445.53V406.428Z" fill="white"/>
<path d="M1479.15 406.428H1512.77V447.071H1479.15V406.428Z" fill="white"/>
<path d="M1512.77 406.428H1546.38V447.071H1512.77V406.428Z" fill="white"/>
<path d="M1546.38 406.428H1580V447.071H1546.38V406.428Z" fill="black"/>
<path d="M134.468 447.071H168.085V487.714H134.468L134.468 447.071Z" fill="white"/>
<path d="M168.085 447.071H201.702V487.714H168.085V447.071Z" fill="white"/>
<path d="M201.702 447.071H235.319V487.714H201.702V447.071Z" fill="white"/>
<path d="M235.319 447.071H268.936V487.714H235.319V447.071Z" fill="white"/>
<path d="M268.936 447.071H302.553V487.714H268.936V447.071Z" fill="black"/>
<path d="M302.553 447.071H336.17V487.714H302.553V447.071Z" fill="black"/>
<path d="M336.17 447.071H369.787V487.714H336.17V447.071Z" fill="#FEFEFE"/>
<path d="M369.787 447.071H403.404V487.714H369.787V447.071Z" fill="white"/>
<path d="M403.404 447.071H437.021V487.714H403.404V447.071Z" fill="white"/>
<path d="M437.021 447.071H470.638V487.714H437.021V447.071Z" fill="white"/>
<path d="M470.638 447.071H504.255V487.714H470.638V447.071Z" fill="white"/>
<path d="M504.255 447.071H537.872V487.714H504.255V447.071Z" fill="white"/>
<path d="M537.872 447.071H571.489V487.714H537.872V447.071Z" fill="white"/>
<path d="M571.489 447.071H605.107V487.714H571.489V447.071Z" fill="white"/>
<path d="M605.107 447.071H638.724V487.714H605.107V447.071Z" fill="white"/>
<path d="M638.724 447.071H672.341V487.714H638.724V447.071Z" fill="black"/>
<path d="M672.341 447.071H705.958V487.714H672.341V447.071Z" fill="black"/>
<path d="M705.958 447.071H739.575V487.714H705.958V447.071Z" fill="black"/>
<path d="M739.575 447.071H773.192V487.714H739.575V447.071Z" fill="black"/>
<path d="M773.192 447.071H806.809V487.714H773.192V447.071Z" fill="black"/>
<path d="M806.809 447.071H840.425V487.714H806.809V447.071Z" fill="black"/>
<path d="M840.425 447.071H874.042V487.714H840.425V447.071Z" fill="black"/>
<path d="M874.042 447.071H907.659V487.714H874.042V447.071Z" fill="black"/>
<path d="M907.659 447.071H941.276V487.714H907.659V447.071Z" fill="#818181"/>
<path d="M941.276 447.071H974.893V487.714H941.276V447.071Z" fill="white"/>
<path d="M974.893 447.071H1008.51V487.714H974.893V447.071Z" fill="white"/>
<path d="M1008.51 447.071H1042.13V487.714H1008.51V447.071Z" fill="white"/>
<path d="M1042.13 447.071H1075.74V487.714H1042.13V447.071Z" fill="white"/>
<path d="M1075.74 447.071H1109.36V487.714H1075.74V447.071Z" fill="black"/>
<path d="M1109.36 447.071H1142.98V487.714H1109.36V447.071Z" fill="black"/>
<path d="M1142.98 447.071H1176.6V487.714H1142.98V447.071Z" fill="#8F8F8F"/>
<path d="M1176.6 447.071H1210.21V487.714H1176.6V447.071Z" fill="white"/>
<path d="M1210.21 447.071H1243.83V487.714H1210.21V447.071Z" fill="white"/>
<path d="M1243.83 447.071H1277.45V487.714H1243.83V447.071Z" fill="white"/>
<path d="M1277.45 447.071H1311.06V487.714H1277.45V447.071Z" fill="white"/>
<path d="M1311.06 447.071H1344.68V487.714H1311.06V447.071Z" fill="black"/>
<path d="M1344.68 447.071H1378.3V487.714H1344.68V447.071Z" fill="black"/>
<path d="M1378.3 447.071H1411.92V487.714H1378.3V447.071Z" fill="#FBFBFB"/>
<path d="M1411.92 447.071H1445.53V487.714H1411.92V447.071Z" fill="white"/>
<path d="M1445.53 447.071H1479.15V487.714H1445.53V447.071Z" fill="white"/>
<path d="M1479.15 447.071H1512.77V487.714H1479.15V447.071Z" fill="white"/>
<path d="M1512.77 447.071H1546.38V487.714H1512.77V447.071Z" fill="white"/>
<path d="M1546.38 447.071H1580V487.714H1546.38V447.071Z" fill="black"/>
<path d="M134.468 487.714H168.085V528.357H134.468V487.714Z" fill="black"/>
<path d="M168.085 487.714H201.702V528.357H168.085V487.714Z" fill="white"/>
<path d="M201.702 487.714H235.319V528.357H201.702V487.714Z" fill="white"/>
<path d="M235.319 487.714H268.936V528.357H235.319V487.714Z" fill="white"/>
<path d="M268.936 487.714H302.553V528.357H268.936V487.714Z" fill="white"/>
<path d="M302.553 487.714H336.17V528.357H302.553V487.714Z" fill="white"/>
<path d="M336.17 487.714H369.787V528.357H336.17V487.714Z" fill="white"/>
<path d="M369.787 487.714H403.404V528.357H369.787V487.714Z" fill="white"/>
<path d="M403.404 487.714H437.021V528.357H403.404V487.714Z" fill="white"/>
<path d="M437.021 487.714H470.638V528.357H437.021V487.714Z" fill="white"/>
<path d="M470.638 487.714H504.255V528.357H470.638V487.714Z" fill="white"/>
<path d="M504.255 487.714H537.872V528.357H504.255V487.714Z" fill="white"/>
<path d="M537.872 487.714H571.489V528.357H537.872V487.714Z" fill="white"/>
<path d="M571.489 487.714H605.107V528.357H571.489V487.714Z" fill="white"/>
<path d="M605.107 487.714H638.724V528.357H605.107V487.714Z" fill="white"/>
<path d="M638.724 487.714H672.341V528.357H638.724V487.714Z" fill="white"/>
<path d="M672.341 487.714H705.958V528.357H672.341V487.714Z" fill="white"/>
<path d="M705.958 487.714H739.575V528.357H705.958V487.714Z" fill="white"/>
<path d="M739.575 487.714H773.192V528.357H739.575V487.714Z" fill="white"/>
<path d="M773.192 487.714H806.809V528.357H773.192V487.714Z" fill="white"/>
<path d="M806.809 487.714H840.425V528.357H806.809V487.714Z" fill="white"/>
<path d="M840.425 487.714H874.042V528.357H840.425V487.714Z" fill="white"/>
<path d="M874.042 487.714H907.659V528.357H874.042V487.714Z" fill="white"/>
<path d="M907.659 487.714H941.276V528.357H907.659V487.714Z" fill="white"/>
<path d="M941.276 487.714H974.893V528.357H941.276V487.714Z" fill="white"/>
<path d="M974.893 487.714H1008.51V528.357H974.893V487.714Z" fill="white"/>
<path d="M1008.51 487.714H1042.13V528.357H1008.51V487.714Z" fill="white"/>
<path d="M1042.13 487.714H1075.74V528.357H1042.13V487.714Z" fill="white"/>
<path d="M1075.74 487.714H1109.36V528.357H1075.74V487.714Z" fill="white"/>
<path d="M1109.36 487.714H1142.98V528.357H1109.36V487.714Z" fill="white"/>
<path d="M1142.98 487.714H1176.6V528.357H1142.98V487.714Z" fill="white"/>
<path d="M1176.6 487.714H1210.21V528.357H1176.6V487.714Z" fill="white"/>
<path d="M1210.21 487.714H1243.83V528.357H1210.21V487.714Z" fill="white"/>
<path d="M1243.83 487.714H1277.45V528.357H1243.83V487.714Z" fill="white"/>
<path d="M1277.45 487.714H1311.06V528.357H1277.45V487.714Z" fill="white"/>
<path d="M1311.06 487.714H1344.68V528.357H1311.06V487.714Z" fill="white"/>
<path d="M1344.68 487.714H1378.3V528.357H1344.68V487.714Z" fill="white"/>
<path d="M1378.3 487.714H1411.92V528.357H1378.3V487.714Z" fill="white"/>
<path d="M1411.92 487.714H1445.53V528.357H1411.92V487.714Z" fill="white"/>
<path d="M1445.53 487.714H1479.15V528.357H1445.53V487.714Z" fill="white"/>
<path d="M1479.15 487.714H1512.77V528.357H1479.15V487.714Z" fill="white"/>
<path d="M1512.77 487.714H1546.38V528.357H1512.77V487.714Z" fill="white"/>
<path d="M1546.38 487.714H1580V528.357H1546.38V487.714Z" fill="black"/>
<path d="M168.085 528.357H201.702V569H168.085L168.085 528.357Z" fill="black"/>
<path d="M201.702 528.357H235.319V569H201.702V528.357Z" fill="#E0E0E0"/>
<path d="M235.319 528.357H268.936V569H235.319V528.357Z" fill="white"/>
<path d="M268.936 528.357H302.553V569H268.936V528.357Z" fill="white"/>
<path d="M302.553 528.357H336.17V569H302.553V528.357Z" fill="white"/>
<path d="M336.17 528.357H369.787V569H336.17V528.357Z" fill="white"/>
<path d="M369.787 528.357H403.404V569H369.787V528.357Z" fill="white"/>
<path d="M403.404 528.357H437.021V569H403.404V528.357Z" fill="white"/>
<path d="M437.021 528.357H470.638V569H437.021V528.357Z" fill="white"/>
<path d="M470.638 528.357H504.255V569H470.638V528.357Z" fill="white"/>
<path d="M504.255 528.357H537.872V569H504.255V528.357Z" fill="white"/>
<path d="M537.872 528.357H571.489V569H537.872V528.357Z" fill="white"/>
<path d="M571.489 528.357H605.107V569H571.489V528.357Z" fill="white"/>
<path d="M605.107 528.357H638.724V569H605.107V528.357Z" fill="white"/>
<path d="M638.724 528.357H672.341V569H638.724V528.357Z" fill="white"/>
<path d="M672.341 528.357H705.958V569H672.341V528.357Z" fill="white"/>
<path d="M705.958 528.357H739.575V569H705.958V528.357Z" fill="white"/>
<path d="M739.575 528.357H773.192V569H739.575V528.357Z" fill="white"/>
<path d="M773.192 528.357H806.809V569H773.192V528.357Z" fill="white"/>
<path d="M806.809 528.357H840.425V569H806.809V528.357Z" fill="white"/>
<path d="M840.425 528.357H874.042V569H840.425V528.357Z" fill="white"/>
<path d="M874.042 528.357H907.659V569H874.042V528.357Z" fill="white"/>
<path d="M907.659 528.357H941.276V569H907.659V528.357Z" fill="white"/>
<path d="M941.276 528.357H974.893V569H941.276V528.357Z" fill="white"/>
<path d="M974.893 528.357H1008.51V569H974.893V528.357Z" fill="white"/>
<path d="M1008.51 528.357H1042.13V569H1008.51V528.357Z" fill="white"/>
<path d="M1042.13 528.357H1075.74V569H1042.13V528.357Z" fill="white"/>
<path d="M1075.74 528.357H1109.36V569H1075.74V528.357Z" fill="white"/>
<path d="M1109.36 528.357H1142.98V569H1109.36V528.357Z" fill="white"/>
<path d="M1142.98 528.357H1176.6V569H1142.98V528.357Z" fill="white"/>
<path d="M1176.6 528.357H1210.21V569H1176.6V528.357Z" fill="white"/>
<path d="M1210.21 528.357H1243.83V569H1210.21V528.357Z" fill="white"/>
<path d="M1243.83 528.357H1277.45V569H1243.83V528.357Z" fill="white"/>
<path d="M1277.45 528.357H1311.06V569H1277.45V528.357Z" fill="white"/>
<path d="M1311.06 528.357H1344.68V569H1311.06V528.357Z" fill="white"/>
<path d="M1344.68 528.357H1378.3V569H1344.68V528.357Z" fill="white"/>
<path d="M1378.3 528.357H1411.92V569H1378.3V528.357Z" fill="white"/>
<path d="M1411.92 528.357H1445.53V569H1411.92V528.357Z" fill="white"/>
<path d="M1445.53 528.357H1479.15V569H1445.53V528.357Z" fill="white"/>
<path d="M1479.15 528.357H1512.77V569H1479.15V528.357Z" fill="white"/>
<path d="M1512.77 528.357H1546.38V569H1512.77V528.357Z" fill="white"/>
<path d="M1546.38 528.357H1580V569H1546.38V528.357Z" fill="black"/>
</svg>
