<svg width="1551" height="528" viewBox="0 0 1551 528" fill="none" xmlns="http://www.w3.org/2000/svg">
<path d="M1374.75 0H1386.5V16H1374.75V0Z" fill="black"/>
<path d="M1386.5 0H1398.25V16H1386.5V0Z" fill="black"/>
<path d="M1374.75 16H1386.5V31.9999H1374.75V16Z" fill="black"/>
<path d="M1386.5 16H1398.25V31.9999H1386.5V16Z" fill="black"/>
<path d="M258.5 32.0001H270.25V48.0001H258.5V32.0001Z" fill="black"/>
<path d="M270.25 32.0001H282V48.0001H270.25V32.0001Z" fill="black"/>
<path d="M282 32.0001H293.75V48.0001H282V32.0001Z" fill="black"/>
<path d="M293.75 32.0001H305.5V48.0001H293.75V32.0001Z" fill="black"/>
<path d="M305.5 32.0001H317.25V48.0001H305.5V32.0001Z" fill="black"/>
<path d="M317.25 32.0001H329V48.0001H317.25V32.0001Z" fill="black"/>
<path d="M329 32.0001H340.75V48.0001H329V32.0001Z" fill="black"/>
<path d="M340.75 32.0001H352.5V48.0001H340.75V32.0001Z" fill="black"/>
<path d="M352.5 32.0001H364.25V48.0001H352.5V32.0001Z" fill="black"/>
<path d="M364.25 32.0001H376V48.0001H364.25V32.0001Z" fill="black"/>
<path d="M376 32.0001H387.75V48.0001H376V32.0001Z" fill="black"/>
<path d="M387.75 32.0001H399.5V48.0001H387.75V32.0001Z" fill="black"/>
<path d="M399.5 32.0001H411.25V48.0001H399.5V32.0001Z" fill="black"/>
<path d="M411.25 32.0001H423V48.0001H411.25V32.0001Z" fill="black"/>
<path d="M423 32.0001H434.75V48.0001H423V32.0001Z" fill="black"/>
<path d="M434.75 32.0001H446.5V48.0001H434.75V32.0001Z" fill="black"/>
<path d="M493.5 32.0001H505.25V48.0001H493.5V32.0001Z" fill="black"/>
<path d="M505.25 32.0001H517V48.0001H505.25V32.0001Z" fill="black"/>
<path d="M517 32.0001H528.75V48.0001H517V32.0001Z" fill="black"/>
<path d="M528.75 32.0001H540.5V48.0001H528.75V32.0001Z" fill="black"/>
<path d="M540.5 32.0001H552.25V48.0001H540.5V32.0001Z" fill="black"/>
<path d="M552.25 32.0001H564V48.0001H552.25V32.0001Z" fill="black"/>
<path d="M564 32.0001H575.75V48.0001H564V32.0001Z" fill="black"/>
<path d="M575.75 32.0001H587.5V48.0001H575.75V32.0001Z" fill="black"/>
<path d="M587.5 32.0001H599.25V48.0001H587.5V32.0001Z" fill="black"/>
<path d="M599.25 32.0001H611V48.0001H599.25V32.0001Z" fill="black"/>
<path d="M1374.75 31.9999H1386.5V48.0001H1374.75V31.9999Z" fill="black"/>
<path d="M1386.5 31.9999H1398.25V48.0001H1386.5V31.9999Z" fill="black"/>
<path d="M258.5 48.0001H270.25V64H258.5V48.0001Z" fill="black"/>
<path d="M270.25 48.0001H282V64H270.25V48.0001Z" fill="black"/>
<path d="M282 48.0001H293.75V64H282V48.0001Z" fill="black"/>
<path d="M293.75 48.0001H305.5V64H293.75V48.0001Z" fill="black"/>
<path d="M305.5 48.0001H317.25V64H305.5V48.0001Z" fill="black"/>
<path d="M317.25 48.0001H329V64H317.25V48.0001Z" fill="black"/>
<path d="M329 48.0001H340.75V64H329V48.0001Z" fill="black"/>
<path d="M340.75 48.0001H352.5V64H340.75V48.0001Z" fill="black"/>
<path d="M352.5 48.0001H364.25V64H352.5V48.0001Z" fill="black"/>
<path d="M364.25 48.0001H376V64H364.25V48.0001Z" fill="black"/>
<path d="M376 48.0001H387.75V64H376V48.0001Z" fill="black"/>
<path d="M387.75 48.0001H399.5V64H387.75V48.0001Z" fill="black"/>
<path d="M399.5 48.0001H411.25V64H399.5V48.0001Z" fill="black"/>
<path d="M411.25 48.0001H423V64H411.25V48.0001Z" fill="black"/>
<path d="M423 48.0001H434.75V64H423V48.0001Z" fill="black"/>
<path d="M434.75 48.0001H446.5V64H434.75V48.0001Z" fill="black"/>
<path d="M493.5 48.0001H505.25V64H493.5V48.0001Z" fill="black"/>
<path d="M505.25 48.0001H517V64H505.25V48.0001Z" fill="black"/>
<path d="M517 48.0001H528.75V64H517V48.0001Z" fill="black"/>
<path d="M528.75 48.0001H540.5V64H528.75V48.0001Z" fill="black"/>
<path d="M540.5 48.0001H552.25V64H540.5V48.0001Z" fill="black"/>
<path d="M552.25 48.0001H564V64H552.25V48.0001Z" fill="black"/>
<path d="M564 48.0001H575.75V64H564V48.0001Z" fill="black"/>
<path d="M575.75 48.0001H587.5V64H575.75V48.0001Z" fill="black"/>
<path d="M587.5 48.0001H599.25V64H587.5V48.0001Z" fill="black"/>
<path d="M599.25 48.0001H611V64H599.25V48.0001Z" fill="black"/>
<path d="M611 48.0001L622.75 48V64H611V48.0001Z" fill="black"/>
<path d="M622.75 48H634.5V64H622.75V48Z" fill="black"/>
<path d="M634.5 48H646.25V64H634.5V48Z" fill="black"/>
<path d="M763.75 48H775.5V64H763.75V48Z" fill="black"/>
<path d="M1374.75 48.0001H1386.5V64H1374.75V48.0001Z" fill="black"/>
<path d="M1386.5 48.0001H1398.25V64H1386.5V48.0001Z" fill="black"/>
<path d="M258.5 64H270.25V79.9998H258.5V64Z" fill="black"/>
<path d="M270.25 64H282V79.9998H270.25V64Z" fill="black"/>
<path d="M282 64H293.75V79.9998H282V64Z" fill="black"/>
<path d="M293.75 64H305.5V79.9998H293.75V64Z" fill="black"/>
<path d="M305.5 64H317.25V79.9998H305.5V64Z" fill="black"/>
<path d="M317.25 64H329V79.9998H317.25V64Z" fill="black"/>
<path d="M329 64H340.75V79.9998H329V64Z" fill="black"/>
<path d="M340.75 64H352.5V79.9998H340.75V64Z" fill="black"/>
<path d="M352.5 64H364.25V79.9998H352.5V64Z" fill="black"/>
<path d="M364.25 64H376V79.9998H364.25V64Z" fill="black"/>
<path d="M376 64H387.75V79.9998H376V64Z" fill="black"/>
<path d="M387.75 64H399.5V79.9998H387.75V64Z" fill="black"/>
<path d="M399.5 64H411.25V79.9998H399.5V64Z" fill="black"/>
<path d="M411.25 64H423V79.9998H411.25V64Z" fill="black"/>
<path d="M423 64H434.75V79.9998H423V64Z" fill="black"/>
<path d="M434.75 64H446.5V79.9998H434.75V64Z" fill="black"/>
<path d="M493.5 64H505.25V79.9998H493.5V64Z" fill="black"/>
<path d="M505.25 64H517V79.9998H505.25V64Z" fill="black"/>
<path d="M517 64H528.75V79.9998H517V64Z" fill="black"/>
<path d="M528.75 64H540.5V79.9998H528.75V64Z" fill="black"/>
<path d="M540.5 64H552.25V79.9998H540.5V64Z" fill="black"/>
<path d="M552.25 64H564V79.9998H552.25V64Z" fill="black"/>
<path d="M564 64H575.75V79.9998H564V64Z" fill="black"/>
<path d="M575.75 64H587.5V79.9998H575.75V64Z" fill="black"/>
<path d="M587.5 64H599.25V79.9998H587.5V64Z" fill="black"/>
<path d="M599.25 64H611V79.9998H599.25V64Z" fill="black"/>
<path d="M611 64H622.75V79.9998H611V64Z" fill="black"/>
<path d="M622.75 64H634.5V79.9998H622.75V64Z" fill="black"/>
<path d="M634.5 64H646.25V79.9998H634.5V64Z" fill="black"/>
<path d="M646.25 64L658 63.9999V79.9998H646.25V64Z" fill="black"/>
<path d="M752 63.9999L763.75 64V79.9998H752V63.9999Z" fill="black"/>
<path d="M763.75 64H775.5V79.9998H763.75V64Z" fill="black"/>
<path d="M1374.75 64H1386.5V79.9998H1374.75V64Z" fill="black"/>
<path d="M1386.5 64H1398.25V79.9998H1386.5V64Z" fill="black"/>
<path d="M258.5 79.9998H270.25V96.0001H258.5V79.9998Z" fill="black"/>
<path d="M270.25 79.9998H282V96.0001H270.25V79.9998Z" fill="black"/>
<path d="M282 79.9998H293.75V96.0001H282V79.9998Z" fill="black"/>
<path d="M493.5 79.9998H505.25V96.0001H493.5V79.9998Z" fill="black"/>
<path d="M505.25 79.9998H517V96.0001H505.25V79.9998Z" fill="black"/>
<path d="M517 79.9998H528.75V96.0001H517V79.9998Z" fill="black"/>
<path d="M622.75 79.9998H634.5V96.0001H622.75V79.9998Z" fill="black"/>
<path d="M634.5 79.9998H646.25V96.0001H634.5V79.9998Z" fill="black"/>
<path d="M646.25 79.9998H658V96.0001H646.25V79.9998Z" fill="black"/>
<path d="M658 79.9998L669.75 80.0001V96.0001H658V79.9998Z" fill="black"/>
<path d="M752 79.9998H763.75V96.0001H752V79.9998Z" fill="black"/>
<path d="M763.75 79.9998H775.5V96.0001H763.75V79.9998Z" fill="black"/>
<path d="M1374.75 79.9998H1386.5V96.0001H1374.75V79.9998Z" fill="black"/>
<path d="M1386.5 79.9998H1398.25V96.0001H1386.5V79.9998Z" fill="black"/>
<path d="M258.5 96.0001H270.25V112H258.5V96.0001Z" fill="black"/>
<path d="M270.25 96.0001H282V112H270.25V96.0001Z" fill="black"/>
<path d="M282 96.0001H293.75V112H282V96.0001Z" fill="black"/>
<path d="M493.5 96.0001H505.25V112H493.5V96.0001Z" fill="black"/>
<path d="M505.25 96.0001H517V112H505.25V96.0001Z" fill="black"/>
<path d="M517 96.0001H528.75V112H517V96.0001Z" fill="black"/>
<path d="M634.5 96.0001H646.25V112H634.5V96.0001Z" fill="black"/>
<path d="M646.25 96.0001H658V112H646.25V96.0001Z" fill="black"/>
<path d="M658 96.0001H669.75V112H658V96.0001Z" fill="black"/>
<path d="M669.75 96.0001L681.5 96V112H669.75V96.0001Z" fill="black"/>
<path d="M752 96.0001H763.75V112H752V96.0001Z" fill="black"/>
<path d="M763.75 96.0001H775.5V112H763.75V96.0001Z" fill="black"/>
<path d="M1374.75 96.0001H1386.5V112H1374.75V96.0001Z" fill="black"/>
<path d="M1386.5 96.0001H1398.25V112H1386.5V96.0001Z" fill="black"/>
<path d="M258.5 112H270.25V128H258.5V112Z" fill="black"/>
<path d="M270.25 112H282V128H270.25V112Z" fill="black"/>
<path d="M282 112H293.75V128H282V112Z" fill="black"/>
<path d="M493.5 112H505.25V128H493.5V112Z" fill="black"/>
<path d="M505.25 112H517V128H505.25V112Z" fill="black"/>
<path d="M517 112H528.75V128H517V112Z" fill="black"/>
<path d="M646.25 112H658V128H646.25L646.25 112Z" fill="black"/>
<path d="M658 112H669.75V128H658V112Z" fill="black"/>
<path d="M669.75 112H681.5V128H669.75V112Z" fill="black"/>
<path d="M752 112H763.75V128H752V112Z" fill="black"/>
<path d="M763.75 112H775.5V128H763.75V112Z" fill="black"/>
<path d="M1374.75 112H1386.5V128H1374.75V112Z" fill="black"/>
<path d="M1386.5 112H1398.25V128H1386.5V112Z" fill="black"/>
<path d="M258.5 128H270.25V144H258.5V128Z" fill="black"/>
<path d="M270.25 128H282V144H270.25V128Z" fill="black"/>
<path d="M282 128H293.75V144H282V128Z" fill="black"/>
<path d="M493.5 128H505.25V144H493.5V128Z" fill="black"/>
<path d="M505.25 128H517V144H505.25V128Z" fill="black"/>
<path d="M517 128H528.75V144H517V128Z" fill="black"/>
<path d="M646.25 128H658V144H646.25V128Z" fill="black"/>
<path d="M658 128H669.75V144H658V128Z" fill="black"/>
<path d="M669.75 128H681.5V144H669.75V128Z" fill="black"/>
<path d="M752 128H763.75V144H752V128Z" fill="black"/>
<path d="M763.75 128H775.5V144H763.75V128Z" fill="black"/>
<path d="M775.5 128L787.25 128V144H775.5V128Z" fill="black"/>
<path d="M787.25 128H799V144H787.25V128Z" fill="black"/>
<path d="M799 128H810.75V144H799V128Z" fill="black"/>
<path d="M810.75 128H822.5V144H810.75V128Z" fill="black"/>
<path d="M822.5 128H834.25V144H822.5V128Z" fill="black"/>
<path d="M834.25 128H846V144H834.25V128Z" fill="black"/>
<path d="M846 128H857.75V144H846V128Z" fill="black"/>
<path d="M857.75 128H869.5V144H857.75V128Z" fill="black"/>
<path d="M963.5 128H975.25V144H963.5V128Z" fill="black"/>
<path d="M975.25 128H987V144H975.25V128Z" fill="black"/>
<path d="M987 128H998.75V144H987V128Z" fill="black"/>
<path d="M998.75 128H1010.5V144H998.75V128Z" fill="black"/>
<path d="M1010.5 128H1022.25V144H1010.5V128Z" fill="black"/>
<path d="M1022.25 128H1034V144H1022.25V128Z" fill="black"/>
<path d="M1210.25 128H1222V144H1210.25V128Z" fill="black"/>
<path d="M1222 128H1233.75V144H1222V128Z" fill="black"/>
<path d="M1233.75 128H1245.5V144H1233.75V128Z" fill="black"/>
<path d="M1245.5 128H1257.25V144H1245.5V128Z" fill="black"/>
<path d="M1257.25 128H1269V144H1257.25V128Z" fill="black"/>
<path d="M1269 128H1280.75V144H1269V128Z" fill="black"/>
<path d="M1374.75 128H1386.5V144H1374.75V128Z" fill="black"/>
<path d="M1386.5 128H1398.25V144H1386.5V128Z" fill="black"/>
<path d="M1445.25 128H1457V144H1445.25V128Z" fill="black"/>
<path d="M1457 128H1468.75V144H1457V128Z" fill="black"/>
<path d="M1468.75 128H1480.5V144H1468.75V128Z" fill="black"/>
<path d="M1480.5 128H1492.25V144H1480.5V128Z" fill="black"/>
<path d="M1492.25 128H1504V144H1492.25V128Z" fill="black"/>
<path d="M1504 128H1515.75V144H1504V128Z" fill="black"/>
<path d="M258.5 144H270.25V160H258.5V144Z" fill="black"/>
<path d="M270.25 144H282V160H270.25V144Z" fill="black"/>
<path d="M282 144H293.75V160H282V144Z" fill="black"/>
<path d="M493.5 144H505.25V160H493.5V144Z" fill="black"/>
<path d="M505.25 144H517V160H505.25V144Z" fill="black"/>
<path d="M517 144H528.75V160H517V144Z" fill="black"/>
<path d="M646.25 144H658V160H646.25V144Z" fill="black"/>
<path d="M658 144H669.75V160H658V144Z" fill="black"/>
<path d="M669.75 144H681.5V160H669.75V144Z" fill="black"/>
<path d="M752 144H763.75V160H752V144Z" fill="black"/>
<path d="M763.75 144H775.5V160H763.75V144Z" fill="black"/>
<path d="M775.5 144H787.25V160H775.5V144Z" fill="black"/>
<path d="M787.25 144H799V160H787.25V144Z" fill="black"/>
<path d="M799 144H810.75V160H799V144Z" fill="black"/>
<path d="M810.75 144H822.5V160H810.75V144Z" fill="black"/>
<path d="M822.5 144H834.25V160H822.5V144Z" fill="black"/>
<path d="M834.25 144H846V160H834.25V144Z" fill="black"/>
<path d="M846 144H857.75V160H846V144Z" fill="black"/>
<path d="M857.75 144H869.5V160H857.75V144Z" fill="black"/>
<path d="M940 144H951.75V160H940V144Z" fill="black"/>
<path d="M951.75 144L963.5 144V160H951.75V144Z" fill="black"/>
<path d="M963.5 144H975.25V160H963.5V144Z" fill="black"/>
<path d="M975.25 144H987V160H975.25V144Z" fill="black"/>
<path d="M987 144H998.75V160H987V144Z" fill="black"/>
<path d="M998.75 144H1010.5V160H998.75V144Z" fill="black"/>
<path d="M1010.5 144H1022.25V160H1010.5V144Z" fill="black"/>
<path d="M1022.25 144H1034V160H1022.25V144Z" fill="black"/>
<path d="M1034 144L1045.75 144V160H1034V144Z" fill="black"/>
<path d="M1045.75 144H1057.5V160H1045.75V144Z" fill="black"/>
<path d="M1186.75 144H1198.5V160H1186.75V144Z" fill="black"/>
<path d="M1198.5 144L1210.25 144V160H1198.5V144Z" fill="black"/>
<path d="M1210.25 144H1222V160H1210.25V144Z" fill="black"/>
<path d="M1222 144H1233.75V160H1222V144Z" fill="black"/>
<path d="M1233.75 144H1245.5V160H1233.75V144Z" fill="black"/>
<path d="M1245.5 144H1257.25V160H1245.5V144Z" fill="black"/>
<path d="M1257.25 144H1269V160H1257.25V144Z" fill="black"/>
<path d="M1269 144H1280.75V160H1269V144Z" fill="black"/>
<path d="M1280.75 144L1292.5 144V160H1280.75V144Z" fill="black"/>
<path d="M1292.5 144H1304.25V160H1292.5V144Z" fill="black"/>
<path d="M1374.75 144H1386.5V160H1374.75V144Z" fill="black"/>
<path d="M1386.5 144H1398.25V160H1386.5V144Z" fill="black"/>
<path d="M1421.75 144H1433.5V160H1421.75V144Z" fill="black"/>
<path d="M1433.5 144L1445.25 144V160H1433.5V144Z" fill="black"/>
<path d="M1445.25 144H1457V160H1445.25V144Z" fill="black"/>
<path d="M1457 144H1468.75V160H1457V144Z" fill="black"/>
<path d="M1468.75 144H1480.5V160H1468.75V144Z" fill="black"/>
<path d="M1480.5 144H1492.25V160H1480.5V144Z" fill="black"/>
<path d="M1492.25 144H1504V160H1492.25V144Z" fill="black"/>
<path d="M1504 144H1515.75V160H1504V144Z" fill="black"/>
<path d="M1515.75 144L1527.5 144V160H1515.75V144Z" fill="black"/>
<path d="M258.5 160H270.25V176H258.5V160Z" fill="black"/>
<path d="M270.25 160H282V176H270.25V160Z" fill="black"/>
<path d="M282 160H293.75V176H282V160Z" fill="black"/>
<path d="M493.5 160H505.25V176H493.5V160Z" fill="black"/>
<path d="M505.25 160H517V176H505.25V160Z" fill="black"/>
<path d="M517 160H528.75V176H517V160Z" fill="black"/>
<path d="M646.25 160H658V176H646.25V160Z" fill="black"/>
<path d="M658 160H669.75V176H658V160Z" fill="black"/>
<path d="M669.75 160H681.5V176H669.75V160Z" fill="black"/>
<path d="M752 160H763.75V176H752V160Z" fill="black"/>
<path d="M763.75 160H775.5V176H763.75V160Z" fill="black"/>
<path d="M928.25 160L940 160L940 176H928.25V160Z" fill="black"/>
<path d="M940 160H951.75V176H940L940 160Z" fill="black"/>
<path d="M951.75 160H963.5V176H951.75V160Z" fill="black"/>
<path d="M1034 160H1045.75V176H1034V160Z" fill="black"/>
<path d="M1045.75 160H1057.5V176H1045.75V160Z" fill="black"/>
<path d="M1057.5 160L1069.25 160V176H1057.5V160Z" fill="black"/>
<path d="M1175 160L1186.75 160V176H1175V160Z" fill="black"/>
<path d="M1186.75 160H1198.5V176H1186.75V160Z" fill="black"/>
<path d="M1198.5 160H1210.25V176H1198.5V160Z" fill="black"/>
<path d="M1280.75 160H1292.5V176H1280.75L1280.75 160Z" fill="black"/>
<path d="M1292.5 160H1304.25V176H1292.5V160Z" fill="black"/>
<path d="M1304.25 160L1316 160V176H1304.25V160Z" fill="black"/>
<path d="M1374.75 160H1386.5V176H1374.75V160Z" fill="black"/>
<path d="M1386.5 160H1398.25V176H1386.5V160Z" fill="black"/>
<path d="M1398.25 160L1410 160V176H1398.25V160Z" fill="black"/>
<path d="M1410 160L1421.75 160V176H1410V160Z" fill="black"/>
<path d="M1421.75 160H1433.5V176H1421.75V160Z" fill="black"/>
<path d="M1504 160H1515.75V176H1504V160Z" fill="black"/>
<path d="M1515.75 160H1527.5V176H1515.75V160Z" fill="black"/>
<path d="M1527.5 160L1539.25 160V176H1527.5V160Z" fill="black"/>
<path d="M258.5 176H270.25V192H258.5V176Z" fill="black"/>
<path d="M270.25 176H282V192H270.25V176Z" fill="black"/>
<path d="M282 176H293.75V192H282V176Z" fill="black"/>
<path d="M493.5 176H505.25V192H493.5V176Z" fill="black"/>
<path d="M505.25 176H517V192H505.25V176Z" fill="black"/>
<path d="M517 176H528.75V192H517V176Z" fill="black"/>
<path d="M646.25 176H658V192H646.25V176Z" fill="black"/>
<path d="M658 176H669.75V192H658V176Z" fill="black"/>
<path d="M669.75 176H681.5V192H669.75V176Z" fill="black"/>
<path d="M752 176H763.75V192H752V176Z" fill="black"/>
<path d="M763.75 176H775.5V192H763.75V176Z" fill="black"/>
<path d="M916.5 176L928.25 176V192H916.5V176Z" fill="black"/>
<path d="M928.25 176H940V192H928.25V176Z" fill="black"/>
<path d="M940 176H951.75V192H940V176Z" fill="black"/>
<path d="M1045.75 176H1057.5V192H1045.75V176Z" fill="black"/>
<path d="M1057.5 176H1069.25V192H1057.5V176Z" fill="black"/>
<path d="M1069.25 176L1081 176V192H1069.25V176Z" fill="black"/>
<path d="M1163.25 176L1175 176V192H1163.25V176Z" fill="black"/>
<path d="M1175 176H1186.75V192H1175V176Z" fill="black"/>
<path d="M1292.5 176H1304.25V192H1292.5V176Z" fill="black"/>
<path d="M1304.25 176H1316V192H1304.25V176Z" fill="black"/>
<path d="M1374.75 176H1386.5V192H1374.75V176Z" fill="black"/>
<path d="M1386.5 176H1398.25V192H1386.5V176Z" fill="black"/>
<path d="M1398.25 176H1410V192H1398.25V176Z" fill="black"/>
<path d="M1410 176H1421.75V192H1410V176Z" fill="black"/>
<path d="M1515.75 176H1527.5V192H1515.75V176Z" fill="black"/>
<path d="M1527.5 176H1539.25V192H1527.5V176Z" fill="black"/>
<path d="M1539.25 176L1551 176V192H1539.25V176Z" fill="black"/>
<path d="M258.5 192H270.25V208H258.5V192Z" fill="black"/>
<path d="M270.25 192H282V208H270.25V192Z" fill="black"/>
<path d="M282 192H293.75V208H282V192Z" fill="black"/>
<path d="M493.5 192H505.25V208H493.5V192Z" fill="black"/>
<path d="M505.25 192H517V208H505.25V192Z" fill="black"/>
<path d="M517 192H528.75V208H517V192Z" fill="black"/>
<path d="M634.5 192L646.25 192L646.25 208H634.5V192Z" fill="black"/>
<path d="M646.25 192H658V208H646.25L646.25 192Z" fill="black"/>
<path d="M658 192H669.75V208H658V192Z" fill="black"/>
<path d="M752 192H763.75V208H752V192Z" fill="black"/>
<path d="M763.75 192H775.5V208H763.75V192Z" fill="black"/>
<path d="M916.5 192H928.25V208H916.5V192Z" fill="black"/>
<path d="M928.25 192H940V208H928.25V192Z" fill="black"/>
<path d="M1057.5 192H1069.25V208H1057.5V192Z" fill="black"/>
<path d="M1069.25 192H1081V208H1069.25V192Z" fill="black"/>
<path d="M1151.5 192L1163.25 192V208H1151.5V192Z" fill="black"/>
<path d="M1163.25 192H1175V208H1163.25V192Z" fill="black"/>
<path d="M1374.75 192H1386.5V208H1374.75V192Z" fill="black"/>
<path d="M1386.5 192H1398.25V208H1386.5V192Z" fill="black"/>
<path d="M1398.25 192H1410V208H1398.25V192Z" fill="black"/>
<path d="M1527.5 192H1539.25V208H1527.5V192Z" fill="black"/>
<path d="M1539.25 192H1551V208H1539.25V192Z" fill="black"/>
<path d="M258.5 208H270.25V224H258.5V208Z" fill="black"/>
<path d="M270.25 208H282V224H270.25V208Z" fill="black"/>
<path d="M282 208H293.75V224H282V208Z" fill="black"/>
<path d="M293.75 208L305.5 208V224H293.75V208Z" fill="black"/>
<path d="M305.5 208H317.25V224H305.5V208Z" fill="black"/>
<path d="M317.25 208H329V224H317.25V208Z" fill="black"/>
<path d="M329 208H340.75V224H329V208Z" fill="black"/>
<path d="M340.75 208H352.5V224H340.75V208Z" fill="black"/>
<path d="M352.5 208H364.25V224H352.5V208Z" fill="black"/>
<path d="M364.25 208H376V224H364.25V208Z" fill="black"/>
<path d="M376 208H387.75V224H376V208Z" fill="black"/>
<path d="M387.75 208H399.5V224H387.75V208Z" fill="black"/>
<path d="M399.5 208H411.25V224H399.5V208Z" fill="black"/>
<path d="M411.25 208H423V224H411.25V208Z" fill="black"/>
<path d="M493.5 208H505.25V224H493.5V208Z" fill="black"/>
<path d="M505.25 208H517V224H505.25V208Z" fill="black"/>
<path d="M517 208H528.75V224H517V208Z" fill="black"/>
<path d="M528.75 208L540.5 208V224H528.75V208Z" fill="black"/>
<path d="M540.5 208H552.25V224H540.5V208Z" fill="black"/>
<path d="M552.25 208H564V224H552.25V208Z" fill="black"/>
<path d="M564 208H575.75V224H564V208Z" fill="black"/>
<path d="M575.75 208H587.5V224H575.75V208Z" fill="black"/>
<path d="M587.5 208H599.25V224H587.5V208Z" fill="black"/>
<path d="M599.25 208H611V224H599.25V208Z" fill="black"/>
<path d="M611 208H622.75V224H611V208Z" fill="black"/>
<path d="M622.75 208L634.5 208V224H622.75V208Z" fill="black"/>
<path d="M634.5 208H646.25V224H634.5V208Z" fill="black"/>
<path d="M646.25 208H658V224H646.25V208Z" fill="black"/>
<path d="M752 208H763.75V224H752V208Z" fill="black"/>
<path d="M763.75 208H775.5V224H763.75V208Z" fill="black"/>
<path d="M904.75 208L916.5 208V224H904.75V208Z" fill="black"/>
<path d="M916.5 208H928.25V224H916.5V208Z" fill="black"/>
<path d="M1069.25 208H1081V224H1069.25V208Z" fill="black"/>
<path d="M1081 208L1092.75 208V224H1081V208Z" fill="black"/>
<path d="M1151.5 208H1163.25V224H1151.5V208Z" fill="black"/>
<path d="M1163.25 208H1175V224H1163.25V208Z" fill="black"/>
<path d="M1374.75 208H1386.5V224H1374.75V208Z" fill="black"/>
<path d="M1386.5 208H1398.25V224H1386.5V208Z" fill="black"/>
<path d="M1527.5 208H1539.25V224H1527.5V208Z" fill="black"/>
<path d="M1539.25 208H1551V224H1539.25V208Z" fill="black"/>
<path d="M258.5 224H270.25V240H258.5V224Z" fill="black"/>
<path d="M270.25 224H282V240H270.25V224Z" fill="black"/>
<path d="M282 224H293.75V240H282V224Z" fill="black"/>
<path d="M293.75 224H305.5V240H293.75V224Z" fill="black"/>
<path d="M305.5 224H317.25V240H305.5V224Z" fill="black"/>
<path d="M317.25 224H329V240H317.25V224Z" fill="black"/>
<path d="M329 224H340.75V240H329V224Z" fill="black"/>
<path d="M340.75 224H352.5V240H340.75V224Z" fill="black"/>
<path d="M352.5 224H364.25V240H352.5V224Z" fill="black"/>
<path d="M364.25 224H376V240H364.25V224Z" fill="black"/>
<path d="M376 224H387.75V240H376V224Z" fill="black"/>
<path d="M387.75 224H399.5V240H387.75V224Z" fill="black"/>
<path d="M399.5 224H411.25V240H399.5V224Z" fill="black"/>
<path d="M411.25 224H423V240H411.25V224Z" fill="black"/>
<path d="M493.5 224H505.25V240H493.5V224Z" fill="black"/>
<path d="M505.25 224H517V240H505.25V224Z" fill="black"/>
<path d="M517 224H528.75V240H517V224Z" fill="black"/>
<path d="M528.75 224H540.5V240H528.75V224Z" fill="black"/>
<path d="M540.5 224H552.25V240H540.5V224Z" fill="black"/>
<path d="M552.25 224H564V240H552.25V224Z" fill="black"/>
<path d="M564 224H575.75V240H564V224Z" fill="black"/>
<path d="M575.75 224H587.5V240H575.75V224Z" fill="black"/>
<path d="M587.5 224H599.25V240H587.5V224Z" fill="black"/>
<path d="M599.25 224H611V240H599.25V224Z" fill="black"/>
<path d="M611 224H622.75V240H611V224Z" fill="black"/>
<path d="M622.75 224H634.5V240H622.75V224Z" fill="black"/>
<path d="M634.5 224H646.25V240H634.5V224Z" fill="black"/>
<path d="M646.25 224H658V240H646.25V224Z" fill="black"/>
<path d="M752 224H763.75V240H752V224Z" fill="black"/>
<path d="M763.75 224H775.5V240H763.75V224Z" fill="black"/>
<path d="M904.75 224H916.5V240H904.75V224Z" fill="black"/>
<path d="M916.5 224H928.25V240H916.5V224Z" fill="black"/>
<path d="M1069.25 224H1081V240H1069.25V224Z" fill="black"/>
<path d="M1081 224H1092.75V240H1081V224Z" fill="black"/>
<path d="M1139.75 224L1151.5 224V240H1139.75V224Z" fill="black"/>
<path d="M1151.5 224H1163.25V240H1151.5V224Z" fill="black"/>
<path d="M1374.75 224H1386.5V240H1374.75V224Z" fill="black"/>
<path d="M1386.5 224H1398.25V240H1386.5V224Z" fill="black"/>
<path d="M1527.5 224H1539.25V240H1527.5V224Z" fill="black"/>
<path d="M1539.25 224H1551V240H1539.25V224Z" fill="black"/>
<path d="M258.5 240H270.25V256H258.5V240Z" fill="black"/>
<path d="M270.25 240H282V256H270.25V240Z" fill="black"/>
<path d="M282 240H293.75V256H282V240Z" fill="black"/>
<path d="M293.75 240H305.5V256H293.75V240Z" fill="black"/>
<path d="M305.5 240H317.25V256H305.5V240Z" fill="black"/>
<path d="M317.25 240H329V256H317.25V240Z" fill="black"/>
<path d="M329 240H340.75V256H329V240Z" fill="black"/>
<path d="M340.75 240H352.5V256H340.75V240Z" fill="black"/>
<path d="M352.5 240H364.25V256H352.5V240Z" fill="black"/>
<path d="M364.25 240H376V256H364.25V240Z" fill="black"/>
<path d="M376 240H387.75V256H376V240Z" fill="black"/>
<path d="M387.75 240H399.5V256H387.75V240Z" fill="black"/>
<path d="M399.5 240H411.25V256H399.5V240Z" fill="black"/>
<path d="M411.25 240H423V256H411.25V240Z" fill="black"/>
<path d="M493.5 240H505.25V256H493.5V240Z" fill="black"/>
<path d="M505.25 240H517V256H505.25V240Z" fill="black"/>
<path d="M517 240H528.75V256H517V240Z" fill="black"/>
<path d="M528.75 240H540.5V256H528.75V240Z" fill="black"/>
<path d="M540.5 240H552.25V256H540.5V240Z" fill="black"/>
<path d="M552.25 240H564V256H552.25V240Z" fill="black"/>
<path d="M564 240H575.75V256H564V240Z" fill="black"/>
<path d="M575.75 240H587.5V256H575.75V240Z" fill="black"/>
<path d="M587.5 240H599.25V256H587.5V240Z" fill="black"/>
<path d="M599.25 240H611V256H599.25V240Z" fill="black"/>
<path d="M611 240H622.75V256H611V240Z" fill="black"/>
<path d="M622.75 240H634.5V256H622.75V240Z" fill="black"/>
<path d="M634.5 240H646.25V256H634.5V240Z" fill="black"/>
<path d="M646.25 240H658V256H646.25V240Z" fill="black"/>
<path d="M658 240L669.75 240V256H658V240Z" fill="black"/>
<path d="M669.75 240H681.5V256H669.75V240Z" fill="black"/>
<path d="M752 240H763.75V256H752V240Z" fill="black"/>
<path d="M763.75 240H775.5V256H763.75V240Z" fill="black"/>
<path d="M904.75 240H916.5V256H904.75V240Z" fill="black"/>
<path d="M916.5 240H928.25V256H916.5V240Z" fill="black"/>
<path d="M1069.25 240H1081V256H1069.25V240Z" fill="black"/>
<path d="M1081 240H1092.75V256H1081V240Z" fill="black"/>
<path d="M1139.75 240H1151.5V256H1139.75V240Z" fill="black"/>
<path d="M1151.5 240H1163.25V256H1151.5V240Z" fill="black"/>
<path d="M1374.75 240H1386.5V256H1374.75V240Z" fill="black"/>
<path d="M1386.5 240H1398.25V256H1386.5V240Z" fill="black"/>
<path d="M1527.5 240H1539.25V256H1527.5V240Z" fill="black"/>
<path d="M1539.25 240H1551V256H1539.25V240Z" fill="black"/>
<path d="M258.5 256H270.25V272H258.5V256Z" fill="black"/>
<path d="M270.25 256H282V272H270.25V256Z" fill="black"/>
<path d="M282 256H293.75V272H282V256Z" fill="black"/>
<path d="M493.5 256H505.25V272H493.5V256Z" fill="black"/>
<path d="M505.25 256H517V272H505.25V256Z" fill="black"/>
<path d="M517 256H528.75V272H517V256Z" fill="black"/>
<path d="M634.5 256H646.25V272H634.5V256Z" fill="black"/>
<path d="M646.25 256H658V272H646.25V256Z" fill="black"/>
<path d="M658 256H669.75V272H658V256Z" fill="black"/>
<path d="M669.75 256H681.5V272H669.75V256Z" fill="black"/>
<path d="M681.5 256L693.25 256V272H681.5V256Z" fill="black"/>
<path d="M752 256H763.75V272H752V256Z" fill="black"/>
<path d="M763.75 256H775.5V272H763.75V256Z" fill="black"/>
<path d="M904.75 256H916.5V272H904.75V256Z" fill="black"/>
<path d="M916.5 256H928.25V272H916.5V256Z" fill="black"/>
<path d="M1069.25 256H1081V272H1069.25V256Z" fill="black"/>
<path d="M1081 256H1092.75V272H1081V256Z" fill="black"/>
<path d="M1139.75 256H1151.5V272H1139.75V256Z" fill="black"/>
<path d="M1151.5 256H1163.25V272H1151.5V256Z" fill="black"/>
<path d="M1374.75 256H1386.5V272H1374.75V256Z" fill="black"/>
<path d="M1386.5 256H1398.25V272H1386.5V256Z" fill="black"/>
<path d="M1527.5 256H1539.25V272H1527.5V256Z" fill="black"/>
<path d="M1539.25 256H1551V272H1539.25V256Z" fill="black"/>
<path d="M258.5 272H270.25V288H258.5V272Z" fill="black"/>
<path d="M270.25 272H282V288H270.25V272Z" fill="black"/>
<path d="M282 272H293.75V288H282V272Z" fill="black"/>
<path d="M493.5 272H505.25V288H493.5V272Z" fill="black"/>
<path d="M505.25 272H517V288H505.25V272Z" fill="black"/>
<path d="M517 272H528.75V288H517V272Z" fill="black"/>
<path d="M646.25 272H658V288H646.25L646.25 272Z" fill="black"/>
<path d="M658 272H669.75V288H658V272Z" fill="black"/>
<path d="M669.75 272H681.5V288H669.75V272Z" fill="black"/>
<path d="M681.5 272H693.25V288H681.5V272Z" fill="black"/>
<path d="M752 272H763.75V288H752V272Z" fill="black"/>
<path d="M763.75 272H775.5V288H763.75V272Z" fill="black"/>
<path d="M904.75 272H916.5V288H904.75V272Z" fill="black"/>
<path d="M916.5 272H928.25V288H916.5V272Z" fill="black"/>
<path d="M928.25 272L940 272V288H928.25V272Z" fill="black"/>
<path d="M940 272H951.75V288H940V272Z" fill="black"/>
<path d="M951.75 272H963.5V288H951.75V272Z" fill="black"/>
<path d="M963.5 272H975.25V288H963.5V272Z" fill="black"/>
<path d="M975.25 272H987V288H975.25V272Z" fill="black"/>
<path d="M987 272H998.75V288H987V272Z" fill="black"/>
<path d="M998.75 272H1010.5V288H998.75V272Z" fill="black"/>
<path d="M1010.5 272H1022.25V288H1010.5V272Z" fill="black"/>
<path d="M1022.25 272H1034V288H1022.25V272Z" fill="black"/>
<path d="M1034 272H1045.75V288H1034V272Z" fill="black"/>
<path d="M1045.75 272H1057.5V288H1045.75V272Z" fill="black"/>
<path d="M1057.5 272L1069.25 272V288H1057.5V272Z" fill="black"/>
<path d="M1069.25 272H1081V288H1069.25V272Z" fill="black"/>
<path d="M1081 272H1092.75V288H1081V272Z" fill="black"/>
<path d="M1139.75 272H1151.5V288H1139.75V272Z" fill="black"/>
<path d="M1151.5 272H1163.25V288H1151.5V272Z" fill="black"/>
<path d="M1374.75 272H1386.5V288H1374.75V272Z" fill="black"/>
<path d="M1386.5 272H1398.25V288H1386.5V272Z" fill="black"/>
<path d="M1527.5 272H1539.25V288H1527.5V272Z" fill="black"/>
<path d="M1539.25 272H1551V288H1539.25V272Z" fill="black"/>
<path d="M258.5 288H270.25V304H258.5V288Z" fill="black"/>
<path d="M270.25 288H282V304H270.25V288Z" fill="black"/>
<path d="M282 288H293.75V304H282V288Z" fill="black"/>
<path d="M493.5 288H505.25V304H493.5V288Z" fill="black"/>
<path d="M505.25 288H517V304H505.25V288Z" fill="black"/>
<path d="M517 288H528.75V304H517V288Z" fill="black"/>
<path d="M658 288H669.75V304H658V288Z" fill="black"/>
<path d="M669.75 288H681.5V304H669.75V288Z" fill="black"/>
<path d="M681.5 288H693.25V304H681.5V288Z" fill="black"/>
<path d="M752 288H763.75V304H752V288Z" fill="black"/>
<path d="M763.75 288H775.5V304H763.75V288Z" fill="black"/>
<path d="M904.75 288H916.5V304H904.75V288Z" fill="black"/>
<path d="M916.5 288H928.25V304H916.5V288Z" fill="black"/>
<path d="M1139.75 288H1151.5V304H1139.75V288Z" fill="black"/>
<path d="M1151.5 288H1163.25V304H1151.5V288Z" fill="black"/>
<path d="M1374.75 288H1386.5V304H1374.75V288Z" fill="black"/>
<path d="M1386.5 288H1398.25V304H1386.5V288Z" fill="black"/>
<path d="M1527.5 288H1539.25V304H1527.5V288Z" fill="black"/>
<path d="M1539.25 288H1551V304H1539.25V288Z" fill="black"/>
<path d="M258.5 304H270.25V320H258.5V304Z" fill="black"/>
<path d="M270.25 304H282V320H270.25V304Z" fill="black"/>
<path d="M282 304H293.75V320H282V304Z" fill="black"/>
<path d="M493.5 304H505.25V320H493.5V304Z" fill="black"/>
<path d="M505.25 304H517V320H505.25V304Z" fill="black"/>
<path d="M517 304H528.75V320H517V304Z" fill="black"/>
<path d="M669.75 304H681.5V320H669.75V304Z" fill="black"/>
<path d="M681.5 304H693.25V320H681.5V304Z" fill="black"/>
<path d="M693.25 304L705 304V320H693.25V304Z" fill="black"/>
<path d="M752 304H763.75V320H752V304Z" fill="black"/>
<path d="M763.75 304H775.5V320H763.75V304Z" fill="black"/>
<path d="M904.75 304H916.5V320H904.75V304Z" fill="black"/>
<path d="M916.5 304H928.25V320H916.5V304Z" fill="black"/>
<path d="M1139.75 304H1151.5V320H1139.75V304Z" fill="black"/>
<path d="M1151.5 304H1163.25V320H1151.5V304Z" fill="black"/>
<path d="M1374.75 304H1386.5V320H1374.75V304Z" fill="black"/>
<path d="M1386.5 304H1398.25V320H1386.5V304Z" fill="black"/>
<path d="M1527.5 304H1539.25V320H1527.5V304Z" fill="black"/>
<path d="M1539.25 304H1551V320H1539.25V304Z" fill="black"/>
<path d="M258.5 320H270.25V336H258.5V320Z" fill="black"/>
<path d="M270.25 320H282V336H270.25V320Z" fill="black"/>
<path d="M282 320H293.75V336H282V320Z" fill="black"/>
<path d="M493.5 320H505.25V336H493.5V320Z" fill="black"/>
<path d="M505.25 320H517V336H505.25V320Z" fill="black"/>
<path d="M517 320H528.75V336H517V320Z" fill="black"/>
<path d="M669.75 320H681.5V336H669.75V320Z" fill="black"/>
<path d="M681.5 320H693.25V336H681.5V320Z" fill="black"/>
<path d="M693.25 320H705V336H693.25V320Z" fill="black"/>
<path d="M752 320H763.75V336H752V320Z" fill="black"/>
<path d="M763.75 320H775.5V336H763.75V320Z" fill="black"/>
<path d="M904.75 320H916.5V336H904.75V320Z" fill="black"/>
<path d="M916.5 320H928.25V336H916.5V320Z" fill="black"/>
<path d="M1139.75 320H1151.5V336H1139.75V320Z" fill="black"/>
<path d="M1151.5 320H1163.25V336H1151.5V320Z" fill="black"/>
<path d="M1374.75 320H1386.5V336H1374.75V320Z" fill="black"/>
<path d="M1386.5 320H1398.25V336H1386.5V320Z" fill="black"/>
<path d="M1527.5 320H1539.25V336H1527.5V320Z" fill="black"/>
<path d="M1539.25 320H1551V336H1539.25V320Z" fill="black"/>
<path d="M258.5 336H270.25V352H258.5V336Z" fill="black"/>
<path d="M270.25 336H282V352H270.25V336Z" fill="black"/>
<path d="M282 336H293.75V352H282V336Z" fill="black"/>
<path d="M493.5 336H505.25V352H493.5V336Z" fill="black"/>
<path d="M505.25 336H517V352H505.25V336Z" fill="black"/>
<path d="M517 336H528.75V352H517V336Z" fill="black"/>
<path d="M658 336L669.75 336V352H658V336Z" fill="black"/>
<path d="M669.75 336H681.5V352H669.75V336Z" fill="black"/>
<path d="M681.5 336H693.25V352H681.5V336Z" fill="black"/>
<path d="M693.25 336H705V352H693.25V336Z" fill="black"/>
<path d="M752 336H763.75V352H752V336Z" fill="black"/>
<path d="M763.75 336H775.5V352H763.75V336Z" fill="black"/>
<path d="M904.75 336H916.5V352H904.75V336Z" fill="black"/>
<path d="M916.5 336H928.25V352H916.5V336Z" fill="black"/>
<path d="M1139.75 336H1151.5V352H1139.75V336Z" fill="black"/>
<path d="M1151.5 336H1163.25V352H1151.5V336Z" fill="black"/>
<path d="M1163.25 336L1175 336V352H1163.25V336Z" fill="black"/>
<path d="M1374.75 336H1386.5V352H1374.75V336Z" fill="black"/>
<path d="M1386.5 336H1398.25V352H1386.5V336Z" fill="black"/>
<path d="M1527.5 336H1539.25V352H1527.5V336Z" fill="black"/>
<path d="M1539.25 336H1551V352H1539.25V336Z" fill="black"/>
<path d="M258.5 352H270.25V368H258.5V352Z" fill="black"/>
<path d="M270.25 352H282V368H270.25V352Z" fill="black"/>
<path d="M282 352H293.75V368H282V352Z" fill="black"/>
<path d="M493.5 352H505.25V368H493.5V352Z" fill="black"/>
<path d="M505.25 352H517V368H505.25V352Z" fill="black"/>
<path d="M517 352H528.75V368H517V352Z" fill="black"/>
<path d="M658 352H669.75V368H658V352Z" fill="black"/>
<path d="M669.75 352H681.5V368H669.75V352Z" fill="black"/>
<path d="M681.5 352H693.25V368H681.5V352Z" fill="black"/>
<path d="M752 352H763.75V368H752V352Z" fill="black"/>
<path d="M763.75 352H775.5V368H763.75V352Z" fill="black"/>
<path d="M904.75 352H916.5V368H904.75V352Z" fill="black"/>
<path d="M916.5 352H928.25V368H916.5V352Z" fill="black"/>
<path d="M928.25 352L940 352V368H928.25V352Z" fill="black"/>
<path d="M1151.5 352H1163.25V368H1151.5V352Z" fill="black"/>
<path d="M1163.25 352H1175V368H1163.25V352Z" fill="black"/>
<path d="M1374.75 352H1386.5V368H1374.75V352Z" fill="black"/>
<path d="M1386.5 352H1398.25V368H1386.5V352Z" fill="black"/>
<path d="M1527.5 352H1539.25V368H1527.5V352Z" fill="black"/>
<path d="M1539.25 352H1551V368H1539.25V352Z" fill="black"/>
<path d="M258.5 368H270.25V384H258.5V368Z" fill="black"/>
<path d="M270.25 368H282V384H270.25V368Z" fill="black"/>
<path d="M282 368H293.75V384H282V368Z" fill="black"/>
<path d="M493.5 368H505.25V384H493.5V368Z" fill="black"/>
<path d="M505.25 368H517V384H505.25V368Z" fill="black"/>
<path d="M517 368H528.75V384H517V368Z" fill="black"/>
<path d="M646.25 368L658 368V384H646.25V368Z" fill="black"/>
<path d="M658 368H669.75V384H658V368Z" fill="black"/>
<path d="M669.75 368H681.5V384H669.75V368Z" fill="black"/>
<path d="M681.5 368H693.25V384H681.5V368Z" fill="black"/>
<path d="M763.75 368H775.5V384H763.75V368Z" fill="black"/>
<path d="M775.5 368L787.25 368V384H775.5V368Z" fill="black"/>
<path d="M916.5 368H928.25V384H916.5V368Z" fill="black"/>
<path d="M928.25 368H940V384H928.25V368Z" fill="black"/>
<path d="M1151.5 368H1163.25V384H1151.5V368Z" fill="black"/>
<path d="M1163.25 368H1175V384H1163.25V368Z" fill="black"/>
<path d="M1175 368L1186.75 368V384H1175V368Z" fill="black"/>
<path d="M1374.75 368H1386.5V384H1374.75V368Z" fill="black"/>
<path d="M1386.5 368H1398.25V384H1386.5V368Z" fill="black"/>
<path d="M1527.5 368H1539.25V384H1527.5V368Z" fill="black"/>
<path d="M1539.25 368H1551V384H1539.25V368Z" fill="black"/>
<path d="M258.5 384H270.25V400H258.5V384Z" fill="black"/>
<path d="M270.25 384H282V400H270.25V384Z" fill="black"/>
<path d="M282 384H293.75V400H282V384Z" fill="black"/>
<path d="M493.5 384H505.25V400H493.5V384Z" fill="black"/>
<path d="M505.25 384H517V400H505.25V384Z" fill="black"/>
<path d="M517 384H528.75V400H517V384Z" fill="black"/>
<path d="M622.75 384H634.5V400H622.75V384Z" fill="black"/>
<path d="M634.5 384L646.25 384L646.25 400H634.5V384Z" fill="black"/>
<path d="M646.25 384H658V400H646.25L646.25 384Z" fill="black"/>
<path d="M658 384H669.75V400H658V384Z" fill="black"/>
<path d="M669.75 384H681.5V400H669.75V384Z" fill="black"/>
<path d="M681.5 384H693.25V400H681.5V384Z" fill="black"/>
<path d="M763.75 384H775.5V400H763.75V384Z" fill="black"/>
<path d="M775.5 384H787.25V400H775.5V384Z" fill="black"/>
<path d="M928.25 384H940V400H928.25V384Z" fill="black"/>
<path d="M940 384L951.75 384V400H940V384Z" fill="black"/>
<path d="M1057.5 384H1069.25V400H1057.5V384Z" fill="black"/>
<path d="M1069.25 384H1081V400H1069.25V384Z" fill="black"/>
<path d="M1163.25 384H1175V400H1163.25V384Z" fill="black"/>
<path d="M1175 384H1186.75V400H1175V384Z" fill="black"/>
<path d="M1186.75 384L1198.5 384V400H1186.75V384Z" fill="black"/>
<path d="M1292.5 384H1304.25V400H1292.5V384Z" fill="black"/>
<path d="M1304.25 384H1316V400H1304.25V384Z" fill="black"/>
<path d="M1374.75 384H1386.5V400H1374.75V384Z" fill="black"/>
<path d="M1386.5 384H1398.25V400H1386.5V384Z" fill="black"/>
<path d="M1527.5 384H1539.25V400H1527.5V384Z" fill="black"/>
<path d="M1539.25 384H1551V400H1539.25V384Z" fill="black"/>
<path d="M258.5 400H270.25V416H258.5V400Z" fill="black"/>
<path d="M270.25 400H282V416H270.25V400Z" fill="black"/>
<path d="M282 400H293.75V416H282V400Z" fill="black"/>
<path d="M493.5 400H505.25V416H493.5V400Z" fill="black"/>
<path d="M505.25 400H517V416H505.25V400Z" fill="black"/>
<path d="M517 400H528.75V416H517V400Z" fill="black"/>
<path d="M528.75 400L540.5 400V416H528.75V400Z" fill="black"/>
<path d="M540.5 400H552.25V416H540.5V400Z" fill="black"/>
<path d="M552.25 400H564V416H552.25V400Z" fill="black"/>
<path d="M564 400H575.75V416H564V400Z" fill="black"/>
<path d="M575.75 400H587.5V416H575.75V400Z" fill="black"/>
<path d="M587.5 400H599.25V416H587.5V400Z" fill="black"/>
<path d="M599.25 400H611V416H599.25V400Z" fill="black"/>
<path d="M611 400L622.75 400V416H611V400Z" fill="black"/>
<path d="M622.75 400H634.5V416H622.75V400Z" fill="black"/>
<path d="M634.5 400H646.25V416H634.5V400Z" fill="black"/>
<path d="M646.25 400H658V416H646.25V400Z" fill="black"/>
<path d="M658 400H669.75V416H658V400Z" fill="black"/>
<path d="M669.75 400H681.5V416H669.75V400Z" fill="black"/>
<path d="M775.5 400H787.25V416H775.5V400Z" fill="black"/>
<path d="M787.25 400L799 400V416H787.25V400Z" fill="black"/>
<path d="M799 400H810.75V416H799V400Z" fill="black"/>
<path d="M846 400H857.75V416H846V400Z" fill="black"/>
<path d="M857.75 400H869.5V416H857.75V400Z" fill="black"/>
<path d="M940 400H951.75V416H940L940 400Z" fill="black"/>
<path d="M951.75 400L963.5 400V416H951.75V400Z" fill="black"/>
<path d="M963.5 400H975.25V416H963.5V400Z" fill="black"/>
<path d="M1034 400H1045.75V416H1034V400Z" fill="black"/>
<path d="M1045.75 400L1057.5 400V416H1045.75V400Z" fill="black"/>
<path d="M1057.5 400H1069.25V416H1057.5V400Z" fill="black"/>
<path d="M1069.25 400H1081V416H1069.25V400Z" fill="black"/>
<path d="M1175 400H1186.75V416H1175V400Z" fill="black"/>
<path d="M1186.75 400H1198.5V416H1186.75V400Z" fill="black"/>
<path d="M1198.5 400L1210.25 400V416H1198.5V400Z" fill="black"/>
<path d="M1269 400H1280.75V416H1269V400Z" fill="black"/>
<path d="M1280.75 400L1292.5 400V416H1280.75V400Z" fill="black"/>
<path d="M1292.5 400H1304.25V416H1292.5V400Z" fill="black"/>
<path d="M1304.25 400H1316V416H1304.25V400Z" fill="black"/>
<path d="M1374.75 400H1386.5V416H1374.75V400Z" fill="black"/>
<path d="M1386.5 400H1398.25V416H1386.5V400Z" fill="black"/>
<path d="M1527.5 400H1539.25V416H1527.5V400Z" fill="black"/>
<path d="M1539.25 400H1551V416H1539.25V400Z" fill="black"/>
<path d="M258.5 416H270.25V432H258.5V416Z" fill="black"/>
<path d="M270.25 416H282V432H270.25V416Z" fill="black"/>
<path d="M282 416H293.75V432H282V416Z" fill="black"/>
<path d="M493.5 416H505.25V432H493.5V416Z" fill="black"/>
<path d="M505.25 416H517V432H505.25V416Z" fill="black"/>
<path d="M517 416H528.75V432H517V416Z" fill="black"/>
<path d="M528.75 416H540.5V432H528.75V416Z" fill="black"/>
<path d="M540.5 416H552.25V432H540.5V416Z" fill="black"/>
<path d="M552.25 416H564V432H552.25V416Z" fill="black"/>
<path d="M564 416H575.75V432H564V416Z" fill="black"/>
<path d="M575.75 416H587.5V432H575.75V416Z" fill="black"/>
<path d="M587.5 416H599.25V432H587.5V416Z" fill="black"/>
<path d="M599.25 416H611V432H599.25V416Z" fill="black"/>
<path d="M611 416H622.75V432H611V416Z" fill="black"/>
<path d="M622.75 416H634.5V432H622.75V416Z" fill="black"/>
<path d="M634.5 416H646.25V432H634.5V416Z" fill="black"/>
<path d="M646.25 416H658V432H646.25V416Z" fill="black"/>
<path d="M787.25 416H799V432H787.25L787.25 416Z" fill="black"/>
<path d="M799 416H810.75V432H799V416Z" fill="black"/>
<path d="M810.75 416L822.5 416V432H810.75V416Z" fill="black"/>
<path d="M822.5 416H834.25V432H822.5V416Z" fill="black"/>
<path d="M834.25 416L846 416V432H834.25V416Z" fill="black"/>
<path d="M846 416H857.75V432H846V416Z" fill="black"/>
<path d="M857.75 416H869.5V432H857.75V416Z" fill="black"/>
<path d="M951.75 416H963.5V432H951.75V416Z" fill="black"/>
<path d="M963.5 416H975.25V432H963.5V416Z" fill="black"/>
<path d="M975.25 416L987 416V432H975.25V416Z" fill="black"/>
<path d="M987 416H998.75V432H987V416Z" fill="black"/>
<path d="M998.75 416H1010.5V432H998.75V416Z" fill="black"/>
<path d="M1010.5 416H1022.25V432H1010.5V416Z" fill="black"/>
<path d="M1022.25 416L1034 416V432H1022.25V416Z" fill="black"/>
<path d="M1034 416H1045.75V432H1034V416Z" fill="black"/>
<path d="M1045.75 416H1057.5V432H1045.75V416Z" fill="black"/>
<path d="M1186.75 416H1198.5V432H1186.75V416Z" fill="black"/>
<path d="M1198.5 416H1210.25V432H1198.5V416Z" fill="black"/>
<path d="M1210.25 416L1222 416V432H1210.25V416Z" fill="black"/>
<path d="M1222 416H1233.75V432H1222V416Z" fill="black"/>
<path d="M1233.75 416H1245.5V432H1233.75V416Z" fill="black"/>
<path d="M1245.5 416H1257.25V432H1245.5V416Z" fill="black"/>
<path d="M1257.25 416L1269 416V432H1257.25V416Z" fill="black"/>
<path d="M1269 416H1280.75V432H1269V416Z" fill="black"/>
<path d="M1280.75 416H1292.5V432H1280.75V416Z" fill="black"/>
<path d="M1292.5 416H1304.25V432H1292.5V416Z" fill="black"/>
<path d="M1374.75 416H1386.5V432H1374.75V416Z" fill="black"/>
<path d="M1386.5 416H1398.25V432H1386.5V416Z" fill="black"/>
<path d="M1527.5 416H1539.25V432H1527.5V416Z" fill="black"/>
<path d="M1539.25 416H1551V432H1539.25V416Z" fill="black"/>
<path d="M810.75 432H822.5V448H810.75V432Z" fill="black"/>
<path d="M822.5 432H834.25V448H822.5V432Z" fill="black"/>
<path d="M834.25 432H846V448H834.25V432Z" fill="black"/>
<path d="M975.25 432H987V448H975.25V432Z" fill="black"/>
<path d="M987 432H998.75V448H987V432Z" fill="black"/>
<path d="M998.75 432H1010.5V448H998.75V432Z" fill="black"/>
<path d="M1010.5 432H1022.25V448H1010.5V432Z" fill="black"/>
<path d="M1022.25 432H1034V448H1022.25V432Z" fill="black"/>
<path d="M1222 432H1233.75V448H1222V432Z" fill="black"/>
<path d="M1233.75 432H1245.5V448H1233.75V432Z" fill="black"/>
<path d="M1245.5 432H1257.25V448H1245.5V432Z" fill="black"/>
<path d="M1257.25 432H1269V448H1257.25V432Z" fill="black"/>
<path d="M0 480H11.75V496H0V480Z" fill="black"/>
<path d="M11.75 480H23.5V496H11.75V480Z" fill="black"/>
<path d="M23.5 480H35.25V496H23.5V480Z" fill="black"/>
<path d="M35.25 480H47V496H35.25V480Z" fill="black"/>
<path d="M47 480H58.75V496H47V480Z" fill="black"/>
<path d="M58.75 480H70.5V496H58.75V480Z" fill="black"/>
<path d="M70.5 480H82.25V496H70.5V480Z" fill="black"/>
<path d="M82.25 480H94V496H82.25V480Z" fill="black"/>
<path d="M94 480H105.75V496H94V480Z" fill="black"/>
<path d="M105.75 480H117.5V496H105.75V480Z" fill="black"/>
<path d="M117.5 480H129.25V496H117.5V480Z" fill="black"/>
<path d="M129.25 480H141V496H129.25V480Z" fill="black"/>
<path d="M141 480H152.75V496H141V480Z" fill="black"/>
<path d="M152.75 480H164.5V496H152.75V480Z" fill="black"/>
<path d="M164.5 480H176.25V496H164.5V480Z" fill="black"/>
<path d="M176.25 480H188V496H176.25V480Z" fill="black"/>
<path d="M188 480H199.75V496H188V480Z" fill="black"/>
<path d="M199.75 480H211.5V496H199.75V480Z" fill="black"/>
<path d="M211.5 480H223.25V496H211.5V480Z" fill="black"/>
<path d="M0 496H11.75V512H0V496Z" fill="black"/>
<path d="M11.75 496H23.5V512H11.75V496Z" fill="black"/>
<path d="M23.5 496H35.25V512H23.5V496Z" fill="black"/>
<path d="M35.25 496H47V512H35.25V496Z" fill="black"/>
<path d="M47 496H58.75V512H47V496Z" fill="black"/>
<path d="M58.75 496H70.5V512H58.75V496Z" fill="black"/>
<path d="M70.5 496H82.25V512H70.5V496Z" fill="black"/>
<path d="M82.25 496H94V512H82.25V496Z" fill="black"/>
<path d="M94 496H105.75V512H94V496Z" fill="black"/>
<path d="M105.75 496H117.5V512H105.75V496Z" fill="black"/>
<path d="M117.5 496H129.25V512H117.5V496Z" fill="black"/>
<path d="M129.25 496H141V512H129.25V496Z" fill="black"/>
<path d="M141 496H152.75V512H141V496Z" fill="black"/>
<path d="M152.75 496H164.5V512H152.75V496Z" fill="black"/>
<path d="M164.5 496H176.25V512H164.5V496Z" fill="black"/>
<path d="M176.25 496H188V512H176.25V496Z" fill="black"/>
<path d="M188 496H199.75V512H188V496Z" fill="black"/>
<path d="M199.75 496H211.5V512H199.75V496Z" fill="black"/>
<path d="M211.5 496H223.25V512H211.5V496Z" fill="black"/>
<path d="M0 512H11.75V528H0V512Z" fill="black"/>
<path d="M11.75 512H23.5V528H11.75V512Z" fill="black"/>
<path d="M23.5 512H35.25V528H23.5V512Z" fill="black"/>
<path d="M35.25 512H47V528H35.25V512Z" fill="black"/>
<path d="M47 512H58.75V528H47V512Z" fill="black"/>
<path d="M58.75 512H70.5V528H58.75V512Z" fill="black"/>
<path d="M70.5 512H82.25V528H70.5V512Z" fill="black"/>
<path d="M82.25 512H94V528H82.25V512Z" fill="black"/>
<path d="M94 512H105.75V528H94V512Z" fill="black"/>
<path d="M105.75 512H117.5V528H105.75V512Z" fill="black"/>
<path d="M117.5 512H129.25V528H117.5V512Z" fill="black"/>
<path d="M129.25 512H141V528H129.25V512Z" fill="black"/>
<path d="M141 512H152.75V528H141V512Z" fill="black"/>
<path d="M152.75 512H164.5V528H152.75V512Z" fill="black"/>
<path d="M164.5 512H176.25V528H164.5V512Z" fill="black"/>
<path d="M176.25 512H188V528H176.25V512Z" fill="black"/>
<path d="M188 512H199.75V528H188V512Z" fill="black"/>
<path d="M199.75 512H211.5V528H199.75V512Z" fill="black"/>
<path d="M211.5 512H223.25V528H211.5V512Z" fill="black"/>
</svg>
