<svg width="16" height="22" viewBox="0 0 16 22" fill="none" xmlns="http://www.w3.org/2000/svg">
<path d="M7.56611 10.1162C6.84945 10.1162 6.16214 9.83569 5.65538 9.33644C5.14862 8.83719 4.86393 8.16006 4.86393 7.45402C4.86393 6.74797 5.14862 6.07085 5.65538 5.5716C6.16214 5.07235 6.84945 4.79187 7.56611 4.79187C8.28277 4.79187 8.97008 5.07235 9.47684 5.5716C9.9836 6.07085 10.2683 6.74797 10.2683 7.45402C10.2683 7.80362 10.1984 8.14979 10.0626 8.47278C9.9268 8.79577 9.72776 9.08924 9.47684 9.33644C9.22592 9.58365 8.92803 9.77974 8.60019 9.91352C8.27235 10.0473 7.92096 10.1162 7.56611 10.1162ZM7.56611 0C5.55945 0 3.63498 0.785332 2.21606 2.18323C0.797141 3.58113 0 5.47709 0 7.45402C0 13.0445 7.56611 21.2972 7.56611 21.2972C7.56611 21.2972 15.1322 13.0445 15.1322 7.45402C15.1322 5.47709 14.3351 3.58113 12.9162 2.18323C11.4972 0.785332 9.57277 0 7.56611 0Z" fill="#54C198"/>
</svg>
