<svg width="20" height="20" viewBox="0 0 20 20" fill="none" xmlns="http://www.w3.org/2000/svg">
<path d="M4.06315 8.29526C5.61961 11.3088 8.12723 13.7793 11.1861 15.3127L13.564 12.97C13.8667 12.6718 14.2882 12.5866 14.6665 12.7038C15.8771 13.0978 17.1741 13.3107 18.5252 13.3107C18.8119 13.3107 19.0868 13.4229 19.2895 13.6226C19.4922 13.8223 19.6061 14.0932 19.6061 14.3756V18.1026C19.6061 18.385 19.4922 18.6559 19.2895 18.8556C19.0868 19.0553 18.8119 19.1675 18.5252 19.1675C13.6519 19.1675 8.9782 17.2602 5.53225 13.8653C2.0863 10.4704 0.150391 5.86597 0.150391 1.06486C0.150391 0.782441 0.264268 0.51159 0.466971 0.31189C0.669674 0.11219 0.944598 0 1.23126 0H5.01432C5.30098 0 5.57591 0.11219 5.77861 0.31189C5.98131 0.51159 6.09519 0.782441 6.09519 1.06486C6.09519 2.39593 6.31136 3.67377 6.71129 4.86641C6.83018 5.23911 6.74371 5.6544 6.44107 5.95257L4.06315 8.29526Z" fill="#54C198"/>
</svg>
