<svg width="14" height="14" viewBox="0 0 14 14" fill="none" xmlns="http://www.w3.org/2000/svg">
<path d="M13.02 0.979996C13.5613 1.52123 13.5613 2.39876 13.02 2.94L8.96003 7L13.02 11.06C13.5613 11.6012 13.5613 12.4788 13.02 13.02C12.4788 13.5612 11.6013 13.5612 11.06 13.02L7.00003 8.96L2.94003 13.02C2.39879 13.5612 1.52127 13.5612 0.980026 13.02C0.438787 12.4788 0.438787 11.6012 0.980027 11.06L5.04003 7L0.980026 2.93999C0.438787 2.39876 0.438787 1.52123 0.980026 0.979996C1.52127 0.438757 2.39879 0.438757 2.94003 0.979996L7.00003 5.04L11.06 0.979995C11.6013 0.438756 12.4788 0.438757 13.02 0.979996Z" fill="black"/>
</svg>
