<svg width="16" height="15" viewBox="0 0 16 15" fill="none" xmlns="http://www.w3.org/2000/svg">
<mask id="path-1-inside-1_55_191" fill="white">
<path d="M0.891479 1C0.891479 0.447715 1.33919 0 1.89148 0H14.9343C15.4866 0 15.9343 0.447715 15.9343 1V14C15.9343 14.5523 15.4866 15 14.9343 15H1.89148C1.3392 15 0.891479 14.5523 0.891479 14V1Z"/>
</mask>
<path d="M-0.608521 -1.5C-0.608521 -2.88071 0.510768 -4 1.89148 -4H14.9343C16.315 -4 17.4343 -2.88071 17.4343 -1.5L14.4343 4H2.39148L-0.608521 -1.5ZM17.4343 14C17.4343 15.3807 16.315 16.5 14.9343 16.5H1.89148C0.510768 16.5 -0.608521 15.3807 -0.608521 14L2.39148 13.5H14.4343L17.4343 14ZM1.89148 16.5C0.510768 16.5 -0.608521 15.3807 -0.608521 14V-1.5C-0.608521 -2.88071 0.510768 -4 1.89148 -4L2.39148 4V13.5L1.89148 16.5ZM14.9343 -4C16.315 -4 17.4343 -2.88071 17.4343 -1.5V14C17.4343 15.3807 16.315 16.5 14.9343 16.5L14.4343 13.5V4L14.9343 -4Z" fill="#232033" mask="url(#path-1-inside-1_55_191)"/>
</svg>
